<?xml version="1.0" standalone="no"?>
<!DOCTYPE svg PUBLIC "-//W3C//DTD SVG 1.1//EN" "http://www.w3.org/Graphics/SVG/1.1/DTD/svg11.dtd" >
<svg xmlns="http://www.w3.org/2000/svg" xmlns:xlink="http://www.w3.org/1999/xlink" version="1.1">
<metadata>
Created by FontForge 20161116 at Tue Dec 16 15:57:11 2008
 By Jimmy Wärting
Copyright (c) 2008 by G-Type Designed and digitized by Nick Cooke. All rights reserved.
</metadata>
<defs>
<font id="HouschkaPro-Light" horiz-adv-x="600" >
  <font-face 
    font-family="Houschka Pro Light"
    font-weight="300"
    font-stretch="normal"
    units-per-em="1000"
    panose-1="2 0 5 3 3 0 0 2 0 3"
    ascent="760"
    descent="-240"
    x-height="448"
    cap-height="681"
    bbox="-153 -251 1327.41 977"
    underline-thickness="50"
    underline-position="-100"
    stemh="38"
    stemv="44"
    unicode-range="U+0020-FB06"
  />
<missing-glyph horiz-adv-x="500" 
d="M0 690h500v-690h-500v690zM250 301l-181 -249h361zM69 638l181 -249l180 249h-361zM218 345l-166 229v-458zM282 345l166 -229v458z" />
    <glyph glyph-name="ff" unicode="ff" horiz-adv-x="574" 
d="M350 413h-208v-406c0 -4 -3 -7 -6 -7h-30c-4 0 -7 3 -7 7v406h-62c-3 0 -6 3 -6 7v21c0 4 3 7 6 7h62v71c0 52 7 98 35 127c19 21 49 34 89 34c50 0 90 -18 120 -42c3 -2 4 -6 3 -9l-10 -20c-3 -4 -7 -5 -12 -2c-28 24 -60 35 -92 35s-53 -10 -68 -27
c-18 -22 -22 -57 -22 -101v-66h208v81c0 52 10 98 38 127c20 21 50 34 91 34c51 0 94 -18 124 -42c3 -2 5 -6 3 -10l-11 -21c-2 -4 -8 -5 -12 -2c-29 25 -62 37 -97 37c-31 0 -53 -10 -67 -27c-19 -22 -25 -57 -25 -101v-76h152c3 0 6 -3 6 -7v-21c0 -4 -3 -7 -6 -7h-152
v-406c0 -4 -3 -7 -7 -7h-30c-4 0 -7 3 -7 7v406z" />
    <glyph glyph-name="ffi" unicode="ffi" horiz-adv-x="716" 
d="M350 413h-208v-406c0 -4 -3 -7 -6 -7h-30c-4 0 -7 3 -7 7v406h-62c-3 0 -6 3 -6 7v21c0 4 3 7 6 7h62v71c0 52 7 98 35 127c19 21 49 34 89 34c50 0 90 -18 120 -42c3 -2 4 -6 3 -9l-10 -20c-3 -4 -7 -5 -12 -2c-28 24 -60 35 -92 35s-53 -10 -68 -27
c-18 -22 -22 -57 -22 -101v-66h208v76c0 46 9 89 31 118c22 30 56 48 109 48c50 0 93 -18 123 -42c3 -2 4 -6 3 -10l-11 -21c-2 -4 -7 -5 -11 -2c-30 25 -64 37 -97 37c-39 -1 -65 -14 -81 -37s-22 -55 -22 -95v-72h238c4 0 7 -3 7 -7v-434c0 -4 -3 -7 -7 -7h-30
c-4 0 -7 3 -7 7v406h-201v-406c0 -4 -3 -7 -7 -7h-30c-4 0 -7 3 -7 7v406z" />
    <glyph glyph-name="ffj" unicode="ffj" horiz-adv-x="716" 
d="M595 413h-201v-406c0 -4 -3 -7 -7 -7h-30c-4 0 -7 3 -7 7v406h-208v-406c0 -4 -3 -7 -6 -7h-30c-4 0 -7 3 -7 7v406h-62c-3 0 -6 3 -6 7v21c0 4 3 7 6 7h62v71c0 52 7 97 35 127c19 21 49 34 89 34c53 0 89 -19 120 -42c3 -2 4 -6 3 -9l-10 -20c-3 -4 -7 -5 -12 -2
c-28 24 -60 35 -92 35s-54 -10 -68 -27c-19 -22 -22 -57 -22 -101v-66h208v76c0 46 8 88 31 118c22 30 56 48 109 48c52 0 92 -19 123 -42c3 -3 4 -6 3 -10l-11 -21c-2 -4 -7 -5 -11 -2c-30 25 -64 37 -97 37c-37 0 -66 -14 -81 -37c-17 -23 -22 -55 -22 -95v-72h238
c4 0 7 -3 7 -7v-476c0 -84 -18 -156 -82 -194c-5 -3 -9 -2 -13 3l-18 18c-4 3 -4 8 1 11c59 34 68 99 68 175v435z" />
    <glyph glyph-name="ffl" unicode="ffl" horiz-adv-x="717" 
d="M232 642c-32 0 -53 -10 -68 -27c-18 -22 -22 -57 -22 -101v-66h208v82c0 89 33 160 148 160c55 0 104 -14 136 -33c4 -2 6 -5 6 -11v-639c0 -4 -3 -7 -6 -7h-30c-4 0 -7 3 -7 7v610c0 6 -2 8 -6 11c-29 19 -65 25 -93 25c-79 0 -104 -53 -104 -130v-75h148c3 0 6 -3 6 -7
v-21c0 -4 -3 -7 -6 -7h-148v-406c0 -4 -3 -7 -7 -7h-30c-4 0 -7 3 -7 7v406h-208v-406c0 -4 -3 -7 -6 -7h-30c-4 0 -7 3 -7 7v406h-62c-3 0 -6 3 -6 7v21c0 4 3 7 6 7h62v71c0 52 7 98 35 127c19 21 49 34 89 34c50 0 90 -18 120 -42c3 -2 4 -6 3 -9l-10 -20
c-3 -4 -7 -5 -12 -2c-28 24 -60 35 -92 35z" />
    <glyph glyph-name="fi" unicode="fi" horiz-adv-x="464" 
d="M246 652c-39 -1 -65 -14 -82 -37c-16 -23 -22 -55 -22 -95v-72h239c3 0 6 -3 6 -7v-434c0 -4 -3 -7 -6 -7h-30c-4 0 -7 3 -7 7v406h-202v-406c0 -4 -3 -7 -6 -7h-30c-4 0 -7 3 -7 7v406h-62c-3 0 -6 3 -6 7v21c0 4 3 7 6 7h62v76c0 46 8 89 30 118c22 30 56 48 109 48
c51 0 94 -18 123 -42c4 -2 5 -6 3 -10l-10 -21c-3 -4 -7 -5 -12 -2c-30 25 -63 37 -96 37z" />
    <glyph glyph-name="fj" unicode="fj" horiz-adv-x="464" 
d="M142 413v-406c0 -4 -3 -7 -6 -7h-30c-4 0 -7 3 -7 7v406h-62c-3 0 -6 3 -6 7v21c0 4 3 7 6 7h62v76c0 46 8 89 30 118c22 30 56 48 109 48c51 0 94 -18 123 -42c4 -2 5 -6 3 -10l-10 -21c-3 -4 -7 -5 -12 -2c-30 25 -63 37 -96 37c-39 -1 -65 -14 -82 -37
c-16 -23 -22 -55 -22 -95v-72h239c3 0 6 -3 6 -7v-476c0 -84 -18 -156 -81 -194c-5 -3 -9 -1 -13 3l-19 18c-3 3 -3 8 2 11c59 34 68 99 68 175v435h-202z" />
    <glyph glyph-name="fl" unicode="fl" horiz-adv-x="466" 
d="M382 657c5 -2 7 -5 7 -11v-639c0 -4 -3 -7 -7 -7h-30c-3 0 -7 3 -7 7v610c0 6 -1 8 -6 11c-28 19 -64 25 -92 25c-79 0 -105 -53 -105 -130v-75h148c4 0 7 -3 7 -7v-21c0 -4 -3 -7 -7 -7h-148v-406c0 -4 -3 -7 -6 -7h-30c-4 0 -7 3 -7 7v406h-62c-3 0 -6 3 -6 7v21
c0 4 3 7 6 7h62v82c0 89 33 160 148 160c54 0 104 -14 135 -33z" />
    <glyph glyph-name=".notdef" horiz-adv-x="500" 
d="M0 690h500v-690h-500v690zM250 301l-181 -249h361zM69 638l181 -249l180 249h-361zM218 345l-166 229v-458zM282 345l166 -229v458z" />
    <glyph glyph-name="A" unicode="A" horiz-adv-x="689" 
d="M344 646c-68 0 -122 -28 -159 -70c-41 -48 -61 -115 -61 -184v-98h441v98c0 69 -20 136 -61 184c-37 41 -91 70 -160 70zM613 392v-385c0 -4 -4 -7 -7 -7h-35c-3 0 -6 3 -6 7v244h-441v-244c0 -4 -3 -7 -6 -7h-35c-3 0 -7 3 -7 7v385c0 78 24 158 77 217
c43 49 107 81 191 81c85 0 149 -32 192 -81c53 -59 77 -139 77 -217z" />
    <glyph glyph-name="A.2" unicode="&#xe000;" horiz-adv-x="689" 
d="M344 646c-68 0 -122 -29 -159 -70c-41 -48 -61 -115 -61 -184v-110h441v110c0 69 -20 136 -61 184c-37 41 -91 70 -160 70zM613 392v-385c0 -4 -4 -7 -7 -7h-35c-3 0 -6 3 -6 7v232h-441v-232c0 -4 -3 -7 -6 -7h-35c-3 0 -7 3 -7 7v385c0 78 24 158 77 217
c43 49 107 81 191 81c85 0 149 -32 192 -81c53 -59 77 -139 77 -217z" />
    <glyph glyph-name="A.3" unicode="&#xe001;" horiz-adv-x="630" 
d="M322 648c-90 0 -172 -37 -210 -62c-6 -4 -9 -3 -11 1l-13 28c-2 4 -1 7 4 10c48 31 132 65 233 65c68 0 134 -16 179 -71c31 -40 50 -99 50 -187v-425c0 -4 -3 -7 -7 -7h-31c-4 0 -7 3 -7 7v35h-4c-65 -39 -127 -52 -208 -52c-52 0 -109 10 -154 36
c-50 30 -86 77 -86 149c0 82 40 133 104 167c88 47 222 59 345 66v24c0 75 -14 125 -42 160c-38 46 -92 56 -142 56zM108 177c0 -59 30 -96 72 -118c38 -21 86 -29 132 -29c74 0 131 13 194 53v287c-104 -6 -222 -15 -301 -52c-59 -28 -97 -71 -97 -141z" />
    <glyph glyph-name="A.calt" unicode="&#xe002;" horiz-adv-x="618" 
d="M127 183l-72 -176c-2 -4 -5 -7 -10 -7h-33c-4 0 -7 2 -7 5c0 2 0 4 2 8l273 662c2 7 5 9 11 9h35c6 0 9 -2 11 -9l273 -661c1 -3 3 -7 3 -9c0 -3 -3 -5 -7 -5h-35c-6 0 -9 3 -10 7l-73 176h-361zM475 222l-167 403l-167 -403h334z" />
    <glyph glyph-name="AE" unicode="&#xc6;" horiz-adv-x="1022" 
d="M571 681h410c4 0 7 -3 7 -7v-29c0 -3 -3 -7 -7 -7h-368v-276h317c3 0 7 -4 7 -7v-29c0 -4 -4 -7 -7 -7h-317v-277h368c4 0 7 -3 7 -7v-28c0 -4 -3 -7 -7 -7h-374h-1h-35h-1l-3 1c-1 1 -2 3 -2 5v1v244h-441v-244c0 -4 -3 -7 -6 -7h-35c-3 0 -7 3 -7 7v385
c0 78 24 158 77 217c43 49 107 81 191 81c85 0 149 -32 192 -81c11 -12 20 -25 29 -39v104c0 4 3 7 6 7zM344 646c-68 0 -122 -28 -159 -70c-41 -48 -61 -115 -61 -184v-98h441v98c0 69 -20 136 -61 184c-37 41 -91 70 -160 70z" />
    <glyph glyph-name="AE.3" unicode="&#xe003;" horiz-adv-x="1176" 
d="M322 648c-90 0 -172 -37 -210 -62c-6 -4 -9 -3 -11 1l-13 28c-2 4 -1 7 4 10c48 31 130 64 222 64c105 0 211 -28 227 -196c36 112 135 197 285 197c103 0 184 -44 237 -114c37 -50 59 -111 65 -186c1 -15 2 -29 1 -45c-1 -9 -4 -10 -10 -10h-561c2 -81 25 -158 77 -213
c52 -57 124 -89 211 -89c84 0 163 23 232 71c5 4 9 3 11 -1l13 -28c2 -5 1 -7 -3 -10c-76 -49 -152 -74 -252 -75c-112 0 -199 39 -259 109c-62 -56 -142 -109 -290 -109c-110 0 -241 48 -241 184c0 187 276 199 449 201l-2 66c-3 179 -98 207 -182 207zM558 376h522
c-5 152 -102 271 -254 271c-160 0 -258 -115 -268 -271zM312 30c135 0 202 53 255 100c-37 52 -60 124 -60 205c-147 0 -399 -11 -399 -158c0 -110 107 -147 204 -147z" />
    <glyph glyph-name="AE.calt" unicode="&#xe004;" horiz-adv-x="981" 
d="M200 183l-135 -176c-4 -4 -7 -7 -14 -7h-38c-7 0 -9 5 -4 12l507 660c5 6 10 9 19 9h405c4 0 7 -3 7 -7v-29c0 -3 -3 -7 -7 -7h-369v-276h318c4 0 7 -4 7 -7v-29c0 -4 -3 -7 -7 -7h-318v-277h369c4 0 7 -3 7 -7v-28c0 -4 -3 -7 -7 -7h-409c-5 0 -8 3 -8 7v176h-323z
M229 222h294v383z" />
    <glyph glyph-name="AEsmall" unicode="&#xf7e6;" horiz-adv-x="873" 
d="M474 544h370c3 0 7 -3 7 -7v-25c0 -3 -4 -7 -7 -7h-333v-184v-9v-21h293c3 0 6 -3 6 -6v-25c0 -4 -3 -7 -6 -7h-293v-215h333c3 0 7 -3 7 -7v-24c0 -4 -4 -7 -7 -7h-339h-1h-30h-1c-4 0 -6 3 -6 7v192h-347v-192c0 -4 -4 -7 -7 -7h-30c-4 0 -7 3 -7 7v305
c0 61 18 125 58 170c36 41 88 70 159 70c72 0 124 -29 160 -70l14 -18v73c0 4 3 7 7 7zM293 511c-56 0 -99 -23 -129 -59c-30 -37 -44 -88 -44 -141v-74h347v98c-4 44 -19 85 -44 117c-30 37 -73 59 -130 59z" />
    <glyph glyph-name="AEsmall.3" unicode="&#xe005;" horiz-adv-x="960" 
d="M672 552c77 0 141 -33 180 -77c45 -49 65 -118 64 -201c-1 -6 -4 -9 -10 -9h-443c3 -59 20 -114 50 -153c40 -51 102 -80 175 -80c75 0 135 24 181 57c5 3 9 4 12 -1l11 -24c2 -5 1 -8 -3 -11c-47 -30 -115 -61 -202 -61s-155 29 -202 83c-56 -44 -122 -83 -233 -83
c-47 0 -95 11 -132 37c-36 25 -59 63 -59 116c0 62 37 99 92 122c75 32 185 34 262 34v44c0 56 -11 98 -33 124c-29 36 -69 44 -108 44c-62 0 -125 -24 -163 -50c-6 -3 -9 -3 -11 2l-11 24c-2 4 -2 7 3 10c48 32 115 53 184 53c48 0 95 -9 128 -48c20 -24 37 -56 43 -103
c12 31 27 56 52 81c40 43 96 70 173 70zM263 30c93 0 154 35 203 72c-31 42 -49 97 -50 163c-68 0 -161 -2 -227 -25c-48 -17 -83 -45 -83 -93c0 -39 18 -68 46 -87c30 -21 71 -30 111 -30zM463 301h407c-2 60 -20 113 -52 148c-33 35 -86 62 -145 62
c-71 0 -123 -27 -159 -71c-30 -37 -47 -88 -51 -139z" />
    <glyph glyph-name="Aacute" unicode="&#xc1;" horiz-adv-x="689" 
d="M344 646c-68 0 -122 -28 -159 -70c-41 -48 -61 -115 -61 -184v-98h441v98c0 69 -20 136 -61 184c-37 41 -91 70 -160 70zM613 392v-385c0 -4 -4 -7 -7 -7h-35c-3 0 -6 3 -6 7v244h-441v-244c0 -4 -3 -7 -6 -7h-35c-3 0 -7 3 -7 7v385c0 78 24 158 77 217
c43 49 107 81 191 81c85 0 149 -32 192 -81c53 -59 77 -139 77 -217zM383 968h31c8 0 7 -7 4 -12l-106 -174c-3 -5 -6 -7 -11 -7h-21c-9 0 -6 7 -3 13l97 173c2 4 4 7 9 7z" />
    <glyph glyph-name="Aacute.2" unicode="&#xe006;" horiz-adv-x="689" 
d="M344 646c-68 0 -122 -29 -159 -70c-41 -48 -61 -115 -61 -184v-110h441v110c0 69 -20 136 -61 184c-37 41 -91 70 -160 70zM613 392v-385c0 -4 -4 -7 -7 -7h-35c-3 0 -6 3 -6 7v232h-441v-232c0 -4 -3 -7 -6 -7h-35c-3 0 -7 3 -7 7v385c0 78 24 158 77 217
c43 49 107 81 191 81c85 0 149 -32 192 -81c53 -59 77 -139 77 -217zM381 968h31c8 0 7 -7 4 -12l-106 -174c-3 -5 -6 -7 -11 -7h-21c-9 0 -6 7 -3 13l97 173c2 4 4 7 9 7z" />
    <glyph glyph-name="Aacute.3" unicode="&#xe007;" horiz-adv-x="630" 
d="M322 648c-90 0 -172 -37 -210 -62c-6 -4 -9 -3 -11 1l-13 28c-2 4 -1 7 4 10c48 31 132 65 233 65c68 0 134 -16 179 -71c31 -40 50 -99 50 -187v-425c0 -4 -3 -7 -7 -7h-31c-4 0 -7 3 -7 7v35h-4c-65 -39 -127 -52 -208 -52c-52 0 -109 10 -154 36
c-50 30 -86 77 -86 149c0 82 40 133 104 167c88 47 222 59 345 66v24c0 75 -14 125 -42 160c-38 46 -92 56 -142 56zM108 177c0 -59 30 -96 72 -118c38 -21 86 -29 132 -29c74 0 131 13 194 53v287c-104 -6 -222 -15 -301 -52c-59 -28 -97 -71 -97 -141zM359 968h31
c8 0 7 -7 4 -12l-106 -174c-3 -5 -6 -7 -11 -7h-21c-9 0 -6 7 -3 13l97 173c2 4 4 7 9 7z" />
    <glyph glyph-name="Aacute.calt" unicode="&#xe008;" horiz-adv-x="618" 
d="M127 183l-72 -176c-2 -4 -5 -7 -10 -7h-33c-4 0 -7 2 -7 5c0 2 0 4 2 8l273 662c2 7 5 9 11 9h35c6 0 9 -2 11 -9l273 -661c1 -3 3 -7 3 -9c0 -3 -3 -5 -7 -5h-35c-6 0 -9 3 -10 7l-73 176h-361zM475 222l-167 403l-167 -403h334zM343 968h31c8 0 7 -7 4 -12l-106 -174
c-3 -5 -6 -7 -11 -7h-21c-9 0 -6 7 -3 13l97 173c2 4 4 7 9 7z" />
    <glyph glyph-name="Abreve" unicode="&#x102;" horiz-adv-x="689" 
d="M344 646c-68 0 -122 -28 -159 -70c-41 -48 -61 -115 -61 -184v-98h441v98c0 69 -20 136 -61 184c-37 41 -91 70 -160 70zM613 392v-385c0 -4 -4 -7 -7 -7h-35c-3 0 -6 3 -6 7v244h-441v-244c0 -4 -3 -7 -6 -7h-35c-3 0 -7 3 -7 7v385c0 78 24 158 77 217
c43 49 107 81 191 81c85 0 149 -32 192 -81c53 -59 77 -139 77 -217zM344 844c54 0 84 32 87 79c0 5 3 8 8 8h15c6 0 9 -4 9 -8c0 -63 -45 -113 -119 -113c-75 0 -119 50 -119 113c0 4 3 8 9 8h15c4 0 7 -3 8 -8c3 -47 32 -79 87 -79z" />
    <glyph glyph-name="Abreve.2" unicode="&#xe009;" horiz-adv-x="689" 
d="M344 646c-68 0 -122 -29 -159 -70c-41 -48 -61 -115 -61 -184v-110h441v110c0 69 -20 136 -61 184c-37 41 -91 70 -160 70zM613 392v-385c0 -4 -4 -7 -7 -7h-35c-3 0 -6 3 -6 7v232h-441v-232c0 -4 -3 -7 -6 -7h-35c-3 0 -7 3 -7 7v385c0 78 24 158 77 217
c43 49 107 81 191 81c85 0 149 -32 192 -81c53 -59 77 -139 77 -217zM344 844c54 0 84 32 87 79c0 5 3 8 8 8h15c6 0 9 -4 9 -8c0 -63 -45 -113 -119 -113c-75 0 -119 50 -119 113c0 4 3 8 9 8h15c4 0 7 -3 8 -8c3 -47 32 -79 87 -79z" />
    <glyph glyph-name="Abreve.3" unicode="&#xe00a;" horiz-adv-x="630" 
d="M322 648c-90 0 -172 -37 -210 -62c-6 -4 -9 -3 -11 1l-13 28c-2 4 -1 7 4 10c48 31 132 65 233 65c68 0 134 -16 179 -71c31 -40 50 -99 50 -187v-425c0 -4 -3 -7 -7 -7h-31c-4 0 -7 3 -7 7v35h-4c-65 -39 -127 -52 -208 -52c-52 0 -109 10 -154 36
c-50 30 -86 77 -86 149c0 82 40 133 104 167c88 47 222 59 345 66v24c0 75 -14 125 -42 160c-38 46 -92 56 -142 56zM108 177c0 -59 30 -96 72 -118c38 -21 86 -29 132 -29c74 0 131 13 194 53v287c-104 -6 -222 -15 -301 -52c-59 -28 -97 -71 -97 -141zM319 844
c54 0 84 32 87 79c0 5 3 8 8 8h15c6 0 9 -4 9 -8c0 -63 -45 -113 -119 -113c-75 0 -119 50 -119 113c0 4 3 8 9 8h15c4 0 7 -3 8 -8c3 -47 32 -79 87 -79z" />
    <glyph glyph-name="Abreve.calt" unicode="&#xe00b;" horiz-adv-x="618" 
d="M127 183l-72 -176c-2 -4 -5 -7 -10 -7h-33c-4 0 -7 2 -7 5c0 2 0 4 2 8l273 662c2 7 5 9 11 9h35c6 0 9 -2 11 -9l273 -661c1 -3 3 -7 3 -9c0 -3 -3 -5 -7 -5h-35c-6 0 -9 3 -10 7l-73 176h-361zM475 222l-167 403l-167 -403h334zM308 844c54 0 84 32 87 79c0 5 3 8 8 8
h15c6 0 9 -4 9 -8c0 -63 -45 -113 -119 -113c-75 0 -119 50 -119 113c0 4 3 8 9 8h15c4 0 7 -3 8 -8c3 -47 32 -79 87 -79z" />
    <glyph glyph-name="Acircumflex" unicode="&#xc2;" horiz-adv-x="689" 
d="M344 646c-68 0 -122 -28 -159 -70c-41 -48 -61 -115 -61 -184v-98h441v98c0 69 -20 136 -61 184c-37 41 -91 70 -160 70zM613 392v-385c0 -4 -4 -7 -7 -7h-35c-3 0 -6 3 -6 7v244h-441v-244c0 -4 -3 -7 -6 -7h-35c-3 0 -7 3 -7 7v385c0 78 24 158 77 217
c43 49 107 81 191 81c85 0 149 -32 192 -81c53 -59 77 -139 77 -217zM336 967h16c5 0 7 -2 10 -6l161 -178c4 -5 3 -9 -3 -9h-26c-6 0 -9 1 -13 6l-137 150l-138 -150c-4 -5 -6 -6 -12 -6h-26c-7 0 -8 4 -4 9l162 178c3 4 5 6 10 6z" />
    <glyph glyph-name="Acircumflex.2" unicode="&#xe00c;" horiz-adv-x="689" 
d="M344 646c-68 0 -122 -29 -159 -70c-41 -48 -61 -115 -61 -184v-110h441v110c0 69 -20 136 -61 184c-37 41 -91 70 -160 70zM613 392v-385c0 -4 -4 -7 -7 -7h-35c-3 0 -6 3 -6 7v232h-441v-232c0 -4 -3 -7 -6 -7h-35c-3 0 -7 3 -7 7v385c0 78 24 158 77 217
c43 49 107 81 191 81c85 0 149 -32 192 -81c53 -59 77 -139 77 -217zM336 967h16c5 0 7 -2 10 -6l161 -178c4 -5 3 -9 -3 -9h-26c-6 0 -9 1 -13 6l-137 150l-138 -150c-4 -5 -6 -6 -12 -6h-26c-7 0 -8 4 -4 9l162 178c3 4 5 6 10 6z" />
    <glyph glyph-name="Acircumflex.3" unicode="&#xe00d;" horiz-adv-x="630" 
d="M322 648c-90 0 -172 -37 -210 -62c-6 -4 -9 -3 -11 1l-13 28c-2 4 -1 7 4 10c48 31 132 65 233 65c68 0 134 -16 179 -71c31 -40 50 -99 50 -187v-425c0 -4 -3 -7 -7 -7h-31c-4 0 -7 3 -7 7v35h-4c-65 -39 -127 -52 -208 -52c-52 0 -109 10 -154 36
c-50 30 -86 77 -86 149c0 82 40 133 104 167c88 47 222 59 345 66v24c0 75 -14 125 -42 160c-38 46 -92 56 -142 56zM108 177c0 -59 30 -96 72 -118c38 -21 86 -29 132 -29c74 0 131 13 194 53v287c-104 -6 -222 -15 -301 -52c-59 -28 -97 -71 -97 -141zM310 967h16
c5 0 7 -2 10 -6l161 -178c4 -5 3 -9 -3 -9h-26c-6 0 -9 1 -13 6l-137 150l-138 -150c-4 -5 -6 -6 -12 -6h-26c-7 0 -8 4 -4 9l162 178c3 4 5 6 10 6z" />
    <glyph glyph-name="Acircumflex.calt" unicode="&#xe00e;" horiz-adv-x="618" 
d="M127 183l-72 -176c-2 -4 -5 -7 -10 -7h-33c-4 0 -7 2 -7 5c0 2 0 4 2 8l273 662c2 7 5 9 11 9h35c6 0 9 -2 11 -9l273 -661c1 -3 3 -7 3 -9c0 -3 -3 -5 -7 -5h-35c-6 0 -9 3 -10 7l-73 176h-361zM475 222l-167 403l-167 -403h334zM297 967h16c5 0 7 -2 10 -6l161 -178
c4 -5 3 -9 -3 -9h-26c-6 0 -9 1 -13 6l-137 150l-138 -150c-4 -5 -6 -6 -12 -6h-26c-7 0 -8 4 -4 9l162 178c3 4 5 6 10 6z" />
    <glyph glyph-name="Adieresis" unicode="&#xc4;" horiz-adv-x="689" 
d="M344 646c-68 0 -122 -28 -159 -70c-41 -48 -61 -115 -61 -184v-98h441v98c0 69 -20 136 -61 184c-37 41 -91 70 -160 70zM613 392v-385c0 -4 -4 -7 -7 -7h-35c-3 0 -6 3 -6 7v244h-441v-244c0 -4 -3 -7 -6 -7h-35c-3 0 -7 3 -7 7v385c0 78 24 158 77 217
c43 49 107 81 191 81c85 0 149 -32 192 -81c53 -59 77 -139 77 -217zM261 845c-16 0 -28 13 -28 29c0 15 12 27 28 27c15 0 27 -12 27 -27c0 -16 -12 -29 -27 -29zM427 845c-16 0 -28 13 -28 29c0 15 12 27 28 27c15 0 27 -12 27 -27c0 -16 -12 -29 -27 -29z" />
    <glyph glyph-name="Adieresis.2" unicode="&#xe00f;" horiz-adv-x="689" 
d="M344 646c-68 0 -122 -29 -159 -70c-41 -48 -61 -115 -61 -184v-110h441v110c0 69 -20 136 -61 184c-37 41 -91 70 -160 70zM613 392v-385c0 -4 -4 -7 -7 -7h-35c-3 0 -6 3 -6 7v232h-441v-232c0 -4 -3 -7 -6 -7h-35c-3 0 -7 3 -7 7v385c0 78 24 158 77 217
c43 49 107 81 191 81c85 0 149 -32 192 -81c53 -59 77 -139 77 -217zM262 845c-16 0 -28 13 -28 29c0 15 12 27 28 27c15 0 27 -12 27 -27c0 -16 -12 -29 -27 -29zM428 845c-16 0 -28 13 -28 29c0 15 12 27 28 27c15 0 27 -12 27 -27c0 -16 -12 -29 -27 -29z" />
    <glyph glyph-name="Adieresis.3" unicode="&#xe010;" horiz-adv-x="630" 
d="M322 648c-90 0 -172 -37 -210 -62c-6 -4 -9 -3 -11 1l-13 28c-2 4 -1 7 4 10c48 31 132 65 233 65c68 0 134 -16 179 -71c31 -40 50 -99 50 -187v-425c0 -4 -3 -7 -7 -7h-31c-4 0 -7 3 -7 7v35h-4c-65 -39 -127 -52 -208 -52c-52 0 -109 10 -154 36
c-50 30 -86 77 -86 149c0 82 40 133 104 167c88 47 222 59 345 66v24c0 75 -14 125 -42 160c-38 46 -92 56 -142 56zM108 177c0 -59 30 -96 72 -118c38 -21 86 -29 132 -29c74 0 131 13 194 53v287c-104 -6 -222 -15 -301 -52c-59 -28 -97 -71 -97 -141zM233 845
c-16 0 -28 13 -28 29c0 15 12 27 28 27c15 0 27 -12 27 -27c0 -16 -12 -29 -27 -29zM399 845c-16 0 -28 13 -28 29c0 15 12 27 28 27c15 0 27 -12 27 -27c0 -16 -12 -29 -27 -29z" />
    <glyph glyph-name="Adieresis.calt" unicode="&#xe011;" horiz-adv-x="618" 
d="M127 183l-72 -176c-2 -4 -5 -7 -10 -7h-33c-4 0 -7 2 -7 5c0 2 0 4 2 8l273 662c2 7 5 9 11 9h35c6 0 9 -2 11 -9l273 -661c1 -3 3 -7 3 -9c0 -3 -3 -5 -7 -5h-35c-6 0 -9 3 -10 7l-73 176h-361zM475 222l-167 403l-167 -403h334zM226 845c-16 0 -28 13 -28 29
c0 15 12 27 28 27c15 0 27 -12 27 -27c0 -16 -12 -29 -27 -29zM392 845c-16 0 -28 13 -28 29c0 15 12 27 28 27c15 0 27 -12 27 -27c0 -16 -12 -29 -27 -29z" />
    <glyph glyph-name="Agrave" unicode="&#xc0;" horiz-adv-x="689" 
d="M344 646c-68 0 -122 -28 -159 -70c-41 -48 -61 -115 -61 -184v-98h441v98c0 69 -20 136 -61 184c-37 41 -91 70 -160 70zM613 392v-385c0 -4 -4 -7 -7 -7h-35c-3 0 -6 3 -6 7v244h-441v-244c0 -4 -3 -7 -6 -7h-35c-3 0 -7 3 -7 7v385c0 78 24 158 77 217
c43 49 107 81 191 81c85 0 149 -32 192 -81c53 -59 77 -139 77 -217zM277 968h31c5 0 7 -3 9 -7l97 -173c2 -4 6 -13 -3 -13h-22c-5 0 -7 2 -10 7l-106 174c-3 5 -3 11 4 12z" />
    <glyph glyph-name="Agrave.2" unicode="&#xe012;" horiz-adv-x="689" 
d="M344 646c-68 0 -122 -29 -159 -70c-41 -48 -61 -115 -61 -184v-110h441v110c0 69 -20 136 -61 184c-37 41 -91 70 -160 70zM613 392v-385c0 -4 -4 -7 -7 -7h-35c-3 0 -6 3 -6 7v232h-441v-232c0 -4 -3 -7 -6 -7h-35c-3 0 -7 3 -7 7v385c0 78 24 158 77 217
c43 49 107 81 191 81c85 0 149 -32 192 -81c53 -59 77 -139 77 -217zM277 968h31c5 0 7 -3 9 -7l97 -173c2 -4 6 -13 -3 -13h-22c-5 0 -7 2 -10 7l-106 174c-3 5 -3 11 4 12z" />
    <glyph glyph-name="Agrave.3" unicode="&#xe013;" horiz-adv-x="630" 
d="M322 648c-90 0 -172 -37 -210 -62c-6 -4 -9 -3 -11 1l-13 28c-2 4 -1 7 4 10c48 31 132 65 233 65c68 0 134 -16 179 -71c31 -40 50 -99 50 -187v-425c0 -4 -3 -7 -7 -7h-31c-4 0 -7 3 -7 7v35h-4c-65 -39 -127 -52 -208 -52c-52 0 -109 10 -154 36
c-50 30 -86 77 -86 149c0 82 40 133 104 167c88 47 222 59 345 66v24c0 75 -14 125 -42 160c-38 46 -92 56 -142 56zM108 177c0 -59 30 -96 72 -118c38 -21 86 -29 132 -29c74 0 131 13 194 53v287c-104 -6 -222 -15 -301 -52c-59 -28 -97 -71 -97 -141zM254 968h31
c5 0 7 -3 9 -7l97 -173c2 -4 6 -13 -3 -13h-22c-5 0 -7 2 -10 7l-106 174c-3 5 -3 11 4 12z" />
    <glyph glyph-name="Agrave.calt" unicode="&#xe014;" horiz-adv-x="618" 
d="M127 183l-72 -176c-2 -4 -5 -7 -10 -7h-33c-4 0 -7 2 -7 5c0 2 0 4 2 8l273 662c2 7 5 9 11 9h35c6 0 9 -2 11 -9l273 -661c1 -3 3 -7 3 -9c0 -3 -3 -5 -7 -5h-35c-6 0 -9 3 -10 7l-73 176h-361zM475 222l-167 403l-167 -403h334zM237 968h31c5 0 7 -3 9 -7l97 -173
c2 -4 6 -13 -3 -13h-22c-5 0 -7 2 -10 7l-106 174c-3 5 -3 11 4 12z" />
    <glyph glyph-name="Amacron" unicode="&#x100;" horiz-adv-x="689" 
d="M344 646c-68 0 -122 -28 -159 -70c-41 -48 -61 -115 -61 -184v-98h441v98c0 69 -20 136 -61 184c-37 41 -91 70 -160 70zM613 392v-385c0 -4 -4 -7 -7 -7h-35c-3 0 -6 3 -6 7v244h-441v-244c0 -4 -3 -7 -6 -7h-35c-3 0 -7 3 -7 7v385c0 78 24 158 77 217
c43 49 107 81 191 81c85 0 149 -32 192 -81c53 -59 77 -139 77 -217zM228 904h233c4 0 7 -4 7 -7v-24c0 -4 -3 -7 -7 -7h-233c-4 0 -7 3 -7 7v24c0 3 3 7 7 7z" />
    <glyph glyph-name="Amacron.2" unicode="&#xe015;" horiz-adv-x="689" 
d="M344 646c-68 0 -122 -29 -159 -70c-41 -48 -61 -115 -61 -184v-110h441v110c0 69 -20 136 -61 184c-37 41 -91 70 -160 70zM613 392v-385c0 -4 -4 -7 -7 -7h-35c-3 0 -6 3 -6 7v232h-441v-232c0 -4 -3 -7 -6 -7h-35c-3 0 -7 3 -7 7v385c0 78 24 158 77 217
c43 49 107 81 191 81c85 0 149 -32 192 -81c53 -59 77 -139 77 -217zM228 904h233c4 0 7 -4 7 -7v-24c0 -4 -3 -7 -7 -7h-233c-4 0 -7 3 -7 7v24c0 3 3 7 7 7z" />
    <glyph glyph-name="Amacron.3" unicode="&#xe016;" horiz-adv-x="630" 
d="M322 648c-90 0 -172 -37 -210 -62c-6 -4 -9 -3 -11 1l-13 28c-2 4 -1 7 4 10c48 31 132 65 233 65c68 0 134 -16 179 -71c31 -40 50 -99 50 -187v-425c0 -4 -3 -7 -7 -7h-31c-4 0 -7 3 -7 7v35h-4c-65 -39 -127 -52 -208 -52c-52 0 -109 10 -154 36
c-50 30 -86 77 -86 149c0 82 40 133 104 167c88 47 222 59 345 66v24c0 75 -14 125 -42 160c-38 46 -92 56 -142 56zM108 177c0 -59 30 -96 72 -118c38 -21 86 -29 132 -29c74 0 131 13 194 53v287c-104 -6 -222 -15 -301 -52c-59 -28 -97 -71 -97 -141zM203 904h233
c4 0 7 -4 7 -7v-24c0 -4 -3 -7 -7 -7h-233c-4 0 -7 3 -7 7v24c0 3 3 7 7 7z" />
    <glyph glyph-name="Amacron.calt" unicode="&#xe017;" horiz-adv-x="618" 
d="M127 183l-72 -176c-2 -4 -5 -7 -10 -7h-33c-4 0 -7 2 -7 5c0 2 0 4 2 8l273 662c2 7 5 9 11 9h35c6 0 9 -2 11 -9l273 -661c1 -3 3 -7 3 -9c0 -3 -3 -5 -7 -5h-35c-6 0 -9 3 -10 7l-73 176h-361zM475 222l-167 403l-167 -403h334zM192 904h233c4 0 7 -4 7 -7v-24
c0 -4 -3 -7 -7 -7h-233c-4 0 -7 3 -7 7v24c0 3 3 7 7 7z" />
    <glyph glyph-name="Aogonek" unicode="&#x104;" horiz-adv-x="689" 
d="M477 -111c0 49 45 92 88 116v2v244h-441v-244c0 -4 -3 -7 -6 -7h-35c-3 0 -7 3 -7 7v385c0 78 24 158 77 217c43 49 107 81 191 81c85 0 149 -32 192 -81c53 -59 77 -139 77 -217v-385c0 -4 -4 -7 -7 -7h-18c-35 -21 -76 -58 -76 -100c0 -29 20 -43 48 -43s42 9 50 9
c4 0 5 -2 5 -5v-17c0 -5 -2 -6 -5 -8c-13 -6 -37 -11 -58 -11c-42 0 -75 19 -75 64zM344 646c-68 0 -122 -28 -159 -70c-41 -48 -61 -115 -61 -184v-98h441v98c0 69 -20 136 -61 184c-37 41 -91 70 -160 70z" />
    <glyph glyph-name="Aogonek.2" unicode="&#xe018;" horiz-adv-x="689" 
d="M477 -111c0 49 45 92 88 116v2v232h-441v-232c0 -4 -3 -7 -6 -7h-35c-3 0 -7 3 -7 7v385c0 78 24 158 77 217c43 49 107 81 191 81c85 0 149 -32 192 -81c53 -59 77 -139 77 -217v-385c0 -4 -4 -7 -7 -7h-18c-35 -21 -76 -58 -76 -100c0 -29 20 -43 48 -43s42 9 50 9
c4 0 5 -2 5 -5v-17c0 -5 -2 -6 -5 -8c-13 -6 -37 -11 -58 -11c-42 0 -75 19 -75 64zM344 646c-68 0 -122 -29 -159 -70c-41 -48 -61 -115 -61 -184v-110h441v110c0 69 -20 136 -61 184c-37 41 -91 70 -160 70z" />
    <glyph glyph-name="Aogonek.3" unicode="&#xe019;" horiz-adv-x="630" 
d="M420 -111c0 50 46 93 89 116v2v35h-4c-65 -39 -127 -52 -208 -52c-52 0 -109 10 -154 36c-50 30 -86 77 -86 149c0 82 40 133 104 167c88 47 222 59 345 66v24c0 75 -14 125 -42 160c-38 46 -92 56 -142 56c-90 0 -172 -37 -210 -62c-6 -4 -9 -3 -11 1l-13 28
c-2 4 -1 7 4 10c48 31 132 65 233 65c68 0 134 -16 179 -71c31 -40 50 -99 50 -187v-425c0 -4 -3 -7 -7 -7h-16c-35 -21 -76 -58 -76 -100c0 -29 20 -43 48 -43s42 9 50 9c4 0 5 -2 5 -5v-17c0 -5 -2 -6 -5 -8c-13 -6 -37 -11 -58 -11c-42 0 -75 19 -75 64zM108 177
c0 -59 30 -96 72 -118c38 -21 86 -29 132 -29c74 0 131 13 194 53v287c-104 -6 -222 -15 -301 -52c-59 -28 -97 -71 -97 -141z" />
    <glyph glyph-name="Aogonek.calt" unicode="&#xe01a;" horiz-adv-x="618" 
d="M475 -111c0 49 44 92 87 115c-1 1 -1 2 -1 3l-73 176h-361l-72 -176c-2 -4 -5 -7 -10 -7h-33c-4 0 -7 2 -7 5c0 2 0 4 2 8l273 662c2 7 5 9 11 9h35c6 0 9 -2 11 -9l273 -661c1 -3 3 -7 3 -9c0 -3 -3 -5 -7 -5h-20c-35 -21 -76 -58 -76 -100c0 -29 20 -43 48 -43
s42 9 50 9c4 0 5 -2 5 -5v-17c0 -5 -2 -6 -5 -8c-13 -6 -37 -11 -58 -11c-42 0 -75 19 -75 64zM475 222l-167 403l-167 -403h334z" />
    <glyph glyph-name="Aring" unicode="&#xc5;" horiz-adv-x="689" 
d="M344 646c-68 0 -122 -28 -159 -70c-41 -48 -61 -115 -61 -184v-98h441v98c0 69 -20 136 -61 184c-37 41 -91 70 -160 70zM613 392v-385c0 -4 -4 -7 -7 -7h-35c-3 0 -6 3 -6 7v244h-441v-244c0 -4 -3 -7 -6 -7h-35c-3 0 -7 3 -7 7v385c0 78 24 158 77 217
c43 49 107 81 191 81c85 0 149 -32 192 -81c53 -59 77 -139 77 -217zM457 864c0 -63 -50 -113 -112 -113c-63 0 -113 50 -113 113s50 113 113 113c62 0 112 -50 112 -113zM432 864c0 49 -39 88 -87 88c-49 0 -88 -39 -88 -88s39 -88 88 -88c48 0 87 38 87 88z" />
    <glyph glyph-name="Aring.2" unicode="&#xe01b;" horiz-adv-x="689" 
d="M344 646c-68 0 -122 -29 -159 -70c-41 -48 -61 -115 -61 -184v-110h441v110c0 69 -20 136 -61 184c-37 41 -91 70 -160 70zM613 392v-385c0 -4 -4 -7 -7 -7h-35c-3 0 -6 3 -6 7v232h-441v-232c0 -4 -3 -7 -6 -7h-35c-3 0 -7 3 -7 7v385c0 78 24 158 77 217
c43 49 107 81 191 81c85 0 149 -32 192 -81c53 -59 77 -139 77 -217zM457 864c0 -63 -50 -113 -112 -113c-63 0 -113 50 -113 113s50 113 113 113c62 0 112 -50 112 -113zM432 864c0 49 -39 88 -87 88c-49 0 -88 -39 -88 -88s39 -88 88 -88c48 0 87 38 87 88z" />
    <glyph glyph-name="Aring.3" unicode="&#xe01c;" horiz-adv-x="630" 
d="M322 648c-90 0 -172 -37 -210 -62c-6 -4 -9 -3 -11 1l-13 28c-2 4 -1 7 4 10c48 31 132 65 233 65c68 0 134 -16 179 -71c31 -40 50 -99 50 -187v-425c0 -4 -3 -7 -7 -7h-31c-4 0 -7 3 -7 7v35h-4c-65 -39 -127 -52 -208 -52c-52 0 -109 10 -154 36
c-50 30 -86 77 -86 149c0 82 40 133 104 167c88 47 222 59 345 66v24c0 75 -14 125 -42 160c-38 46 -92 56 -142 56zM108 177c0 -59 30 -96 72 -118c38 -21 86 -29 132 -29c74 0 131 13 194 53v287c-104 -6 -222 -15 -301 -52c-59 -28 -97 -71 -97 -141zM430 864
c0 -63 -50 -113 -112 -113c-63 0 -113 50 -113 113s50 113 113 113c62 0 112 -50 112 -113zM405 864c0 49 -39 88 -87 88c-49 0 -88 -39 -88 -88s39 -88 88 -88c48 0 87 38 87 88z" />
    <glyph glyph-name="Aring.calt" unicode="&#xe01d;" horiz-adv-x="618" 
d="M127 183l-72 -176c-2 -4 -5 -7 -10 -7h-33c-4 0 -7 2 -7 5c0 2 0 4 2 8l273 662c2 7 5 9 11 9h35c6 0 9 -2 11 -9l273 -661c1 -3 3 -7 3 -9c0 -3 -3 -5 -7 -5h-35c-6 0 -9 3 -10 7l-73 176h-361zM475 222l-167 403l-167 -403h334zM421 864c0 -63 -50 -113 -112 -113
c-63 0 -113 50 -113 113s50 113 113 113c62 0 112 -50 112 -113zM396 864c0 49 -39 88 -87 88c-49 0 -88 -39 -88 -88s39 -88 88 -88c48 0 87 38 87 88z" />
    <glyph glyph-name="Asmall" unicode="&#xf761;" horiz-adv-x="587" 
d="M293 511c-56 0 -99 -23 -129 -59c-30 -37 -44 -88 -44 -141v-74h348v74c0 53 -15 104 -45 141s-73 59 -130 59zM511 312v-305c0 -4 -3 -7 -7 -7h-30c-3 0 -6 3 -6 7v192h-348v-192c0 -4 -4 -7 -7 -7h-30c-4 0 -7 3 -7 7v305c0 61 18 125 58 170c36 41 88 70 159 70
c72 0 124 -29 160 -70c40 -45 58 -109 58 -170z" />
    <glyph glyph-name="Asmall.2" unicode="&#xe01e;" horiz-adv-x="587" 
d="M293 511c-56 0 -99 -23 -129 -59c-30 -37 -44 -88 -44 -141v-86h348v86c0 53 -15 104 -45 141s-73 59 -130 59zM511 312v-305c0 -4 -3 -7 -7 -7h-30c-3 0 -6 3 -6 7v180h-348v-180c0 -4 -4 -7 -7 -7h-30c-4 0 -7 3 -7 7v305c0 61 18 125 58 170c36 41 88 70 159 70
c72 0 124 -29 160 -70c40 -45 58 -109 58 -170z" />
    <glyph glyph-name="Asmall.3" unicode="&#xe01f;" horiz-adv-x="535" 
d="M263 30c58 0 102 10 152 42v218c-68 -2 -163 -6 -230 -36c-47 -20 -79 -53 -79 -107c0 -42 20 -71 50 -90c29 -19 69 -27 107 -27zM459 342v-335c0 -4 -3 -7 -7 -7h-25c-4 0 -7 3 -7 7v26h-5c-56 -32 -98 -41 -163 -41c-45 0 -91 11 -127 34c-38 25 -64 64 -64 119
c0 72 40 115 97 140c76 34 183 38 257 41v19c0 58 -11 98 -33 124c-29 36 -69 44 -108 44c-62 0 -125 -24 -163 -50c-6 -3 -9 -3 -11 2l-11 24c-2 4 -2 7 3 10c48 32 115 53 184 53c55 0 107 -13 142 -58c26 -32 41 -81 41 -152z" />
    <glyph glyph-name="Asmall.calt" unicode="&#xe020;" horiz-adv-x="514" 
d="M115 144l-56 -137c-1 -4 -4 -7 -10 -7h-29c-4 0 -7 2 -7 5c0 2 0 4 2 8l218 526c2 6 5 8 11 8h28c6 0 8 -2 11 -8l216 -525c1 -3 3 -7 3 -9c0 -3 -3 -5 -8 -5h-29c-5 0 -8 3 -10 7l-57 137h-283zM387 178l-130 313l-130 -313h260z" />
    <glyph glyph-name="Asmallacute" unicode="&#xe021;" horiz-adv-x="587" 
d="M293 511c-56 0 -99 -23 -129 -59c-30 -37 -44 -88 -44 -141v-74h348v74c0 53 -15 104 -45 141s-73 59 -130 59zM511 312v-305c0 -4 -3 -7 -7 -7h-30c-3 0 -6 3 -6 7v192h-348v-192c0 -4 -4 -7 -7 -7h-30c-4 0 -7 3 -7 7v305c0 61 18 125 58 170c36 41 88 70 159 70
c72 0 124 -29 160 -70c40 -45 58 -109 58 -170zM331 825h31c8 0 7 -7 4 -12l-106 -174c-3 -5 -6 -7 -11 -7h-21c-9 0 -6 7 -3 13l97 173c2 4 4 7 9 7z" />
    <glyph glyph-name="Asmallacute.2" unicode="&#xe022;" horiz-adv-x="587" 
d="M293 511c-56 0 -99 -23 -129 -59c-30 -37 -44 -88 -44 -141v-86h348v86c0 53 -15 104 -45 141s-73 59 -130 59zM511 312v-305c0 -4 -3 -7 -7 -7h-30c-3 0 -6 3 -6 7v180h-348v-180c0 -4 -4 -7 -7 -7h-30c-4 0 -7 3 -7 7v305c0 61 18 125 58 170c36 41 88 70 159 70
c72 0 124 -29 160 -70c40 -45 58 -109 58 -170zM333 825h31c8 0 7 -7 4 -12l-106 -174c-3 -5 -6 -7 -11 -7h-21c-9 0 -6 7 -3 13l97 173c2 4 4 7 9 7z" />
    <glyph glyph-name="Asmallacute.3" unicode="&#xe023;" horiz-adv-x="535" 
d="M263 30c58 0 102 10 152 42v218c-68 -2 -163 -6 -230 -36c-47 -20 -79 -53 -79 -107c0 -42 20 -71 50 -90c29 -19 69 -27 107 -27zM459 342v-335c0 -4 -3 -7 -7 -7h-25c-4 0 -7 3 -7 7v26h-5c-56 -32 -98 -41 -163 -41c-45 0 -91 11 -127 34c-38 25 -64 64 -64 119
c0 72 40 115 97 140c76 34 183 38 257 41v19c0 58 -11 98 -33 124c-29 36 -69 44 -108 44c-62 0 -125 -24 -163 -50c-6 -3 -9 -3 -11 2l-11 24c-2 4 -2 7 3 10c48 32 115 53 184 53c55 0 107 -13 142 -58c26 -32 41 -81 41 -152zM314 825h31c8 0 7 -7 4 -12l-106 -174
c-3 -5 -6 -7 -11 -7h-21c-9 0 -6 7 -3 13l97 173c2 4 4 7 9 7z" />
    <glyph glyph-name="Asmallacute.calt" unicode="&#xe024;" horiz-adv-x="514" 
d="M115 144l-56 -137c-1 -4 -4 -7 -10 -7h-29c-4 0 -7 2 -7 5c0 2 0 4 2 8l218 526c2 6 5 8 11 8h28c6 0 8 -2 11 -8l216 -525c1 -3 3 -7 3 -9c0 -3 -3 -5 -8 -5h-29c-5 0 -8 3 -10 7l-57 137h-283zM387 178l-130 313l-130 -313h260zM293 825h31c8 0 7 -7 4 -12l-106 -174
c-3 -5 -6 -7 -11 -7h-21c-9 0 -6 7 -3 13l97 173c2 4 4 7 9 7z" />
    <glyph glyph-name="Asmallbreve" unicode="&#xe025;" horiz-adv-x="587" 
d="M293 511c-56 0 -99 -23 -129 -59c-30 -37 -44 -88 -44 -141v-74h348v74c0 53 -15 104 -45 141s-73 59 -130 59zM511 312v-305c0 -4 -3 -7 -7 -7h-30c-3 0 -6 3 -6 7v192h-348v-192c0 -4 -4 -7 -7 -7h-30c-4 0 -7 3 -7 7v305c0 61 18 125 58 170c36 41 88 70 159 70
c72 0 124 -29 160 -70c40 -45 58 -109 58 -170zM292 687c54 0 84 32 87 79c0 5 3 8 8 8h15c6 0 9 -4 9 -8c0 -63 -45 -113 -119 -113c-75 0 -119 50 -119 113c0 4 3 8 9 8h15c4 0 7 -3 8 -8c3 -47 32 -79 87 -79z" />
    <glyph glyph-name="Asmallbreve.2" unicode="&#xe026;" horiz-adv-x="587" 
d="M293 511c-56 0 -99 -23 -129 -59c-30 -37 -44 -88 -44 -141v-86h348v86c0 53 -15 104 -45 141s-73 59 -130 59zM511 312v-305c0 -4 -3 -7 -7 -7h-30c-3 0 -6 3 -6 7v180h-348v-180c0 -4 -4 -7 -7 -7h-30c-4 0 -7 3 -7 7v305c0 61 18 125 58 170c36 41 88 70 159 70
c72 0 124 -29 160 -70c40 -45 58 -109 58 -170zM293 687c54 0 84 32 87 79c0 5 3 8 8 8h15c6 0 9 -4 9 -8c0 -63 -45 -113 -119 -113c-75 0 -119 50 -119 113c0 4 3 8 9 8h15c4 0 7 -3 8 -8c3 -47 32 -79 87 -79z" />
    <glyph glyph-name="Asmallbreve.3" unicode="&#xe027;" horiz-adv-x="535" 
d="M263 30c58 0 102 10 152 42v218c-68 -2 -163 -6 -230 -36c-47 -20 -79 -53 -79 -107c0 -42 20 -71 50 -90c29 -19 69 -27 107 -27zM459 342v-335c0 -4 -3 -7 -7 -7h-25c-4 0 -7 3 -7 7v26h-5c-56 -32 -98 -41 -163 -41c-45 0 -91 11 -127 34c-38 25 -64 64 -64 119
c0 72 40 115 97 140c76 34 183 38 257 41v19c0 58 -11 98 -33 124c-29 36 -69 44 -108 44c-62 0 -125 -24 -163 -50c-6 -3 -9 -3 -11 2l-11 24c-2 4 -2 7 3 10c48 32 115 53 184 53c55 0 107 -13 142 -58c26 -32 41 -81 41 -152zM272 687c54 0 84 32 87 79c0 5 3 8 8 8h15
c6 0 9 -4 9 -8c0 -63 -45 -113 -119 -113c-75 0 -119 50 -119 113c0 4 3 8 9 8h15c4 0 7 -3 8 -8c3 -47 32 -79 87 -79z" />
    <glyph glyph-name="Asmallbreve.calt" unicode="&#xe028;" horiz-adv-x="514" 
d="M115 144l-56 -137c-1 -4 -4 -7 -10 -7h-29c-4 0 -7 2 -7 5c0 2 0 4 2 8l218 526c2 6 5 8 11 8h28c6 0 8 -2 11 -8l216 -525c1 -3 3 -7 3 -9c0 -3 -3 -5 -8 -5h-29c-5 0 -8 3 -10 7l-57 137h-283zM387 178l-130 313l-130 -313h260zM257 687c54 0 84 32 87 79c0 5 3 8 8 8
h15c6 0 9 -4 9 -8c0 -63 -45 -113 -119 -113c-75 0 -119 50 -119 113c0 4 3 8 9 8h15c4 0 7 -3 8 -8c3 -47 32 -79 87 -79z" />
    <glyph glyph-name="Asmallcircumflex" unicode="&#xe029;" horiz-adv-x="587" 
d="M293 511c-56 0 -99 -23 -129 -59c-30 -37 -44 -88 -44 -141v-74h348v74c0 53 -15 104 -45 141s-73 59 -130 59zM511 312v-305c0 -4 -3 -7 -7 -7h-30c-3 0 -6 3 -6 7v192h-348v-192c0 -4 -4 -7 -7 -7h-30c-4 0 -7 3 -7 7v305c0 61 18 125 58 170c36 41 88 70 159 70
c72 0 124 -29 160 -70c40 -45 58 -109 58 -170zM285 825h16c5 0 7 -2 10 -6l161 -178c4 -5 3 -9 -3 -9h-26c-6 0 -9 1 -13 6l-137 150l-138 -150c-4 -5 -6 -6 -12 -6h-26c-7 0 -8 4 -4 9l162 178c3 4 5 6 10 6z" />
    <glyph glyph-name="Asmallcircumflex.2" unicode="&#xe02a;" horiz-adv-x="587" 
d="M293 511c-56 0 -99 -23 -129 -59c-30 -37 -44 -88 -44 -141v-86h348v86c0 53 -15 104 -45 141s-73 59 -130 59zM511 312v-305c0 -4 -3 -7 -7 -7h-30c-3 0 -6 3 -6 7v180h-348v-180c0 -4 -4 -7 -7 -7h-30c-4 0 -7 3 -7 7v305c0 61 18 125 58 170c36 41 88 70 159 70
c72 0 124 -29 160 -70c40 -45 58 -109 58 -170zM285 825h16c5 0 7 -2 10 -6l161 -178c4 -5 3 -9 -3 -9h-26c-6 0 -9 1 -13 6l-137 150l-138 -150c-4 -5 -6 -6 -12 -6h-26c-7 0 -8 4 -4 9l162 178c3 4 5 6 10 6z" />
    <glyph glyph-name="Asmallcircumflex.3" unicode="&#xe02b;" horiz-adv-x="535" 
d="M263 30c58 0 102 10 152 42v218c-68 -2 -163 -6 -230 -36c-47 -20 -79 -53 -79 -107c0 -42 20 -71 50 -90c29 -19 69 -27 107 -27zM459 342v-335c0 -4 -3 -7 -7 -7h-25c-4 0 -7 3 -7 7v26h-5c-56 -32 -98 -41 -163 -41c-45 0 -91 11 -127 34c-38 25 -64 64 -64 119
c0 72 40 115 97 140c76 34 183 38 257 41v19c0 58 -11 98 -33 124c-29 36 -69 44 -108 44c-62 0 -125 -24 -163 -50c-6 -3 -9 -3 -11 2l-11 24c-2 4 -2 7 3 10c48 32 115 53 184 53c55 0 107 -13 142 -58c26 -32 41 -81 41 -152zM258 825h16c5 0 7 -2 10 -6l161 -178
c4 -5 3 -9 -3 -9h-26c-6 0 -9 1 -13 6l-137 150l-138 -150c-4 -5 -6 -6 -12 -6h-26c-7 0 -8 4 -4 9l162 178c3 4 5 6 10 6z" />
    <glyph glyph-name="Asmallcircumflex.calt" unicode="&#xe02c;" horiz-adv-x="514" 
d="M115 144l-56 -137c-1 -4 -4 -7 -10 -7h-29c-4 0 -7 2 -7 5c0 2 0 4 2 8l218 526c2 6 5 8 11 8h28c6 0 8 -2 11 -8l216 -525c1 -3 3 -7 3 -9c0 -3 -3 -5 -8 -5h-29c-5 0 -8 3 -10 7l-57 137h-283zM387 178l-130 313l-130 -313h260zM249 825h16c5 0 7 -2 10 -6l161 -178
c4 -5 3 -9 -3 -9h-26c-6 0 -9 1 -13 6l-137 150l-138 -150c-4 -5 -6 -6 -12 -6h-26c-7 0 -8 4 -4 9l162 178c3 4 5 6 10 6z" />
    <glyph glyph-name="Asmalldieresis" unicode="&#xe02d;" horiz-adv-x="587" 
d="M293 511c-56 0 -99 -23 -129 -59c-30 -37 -44 -88 -44 -141v-74h348v74c0 53 -15 104 -45 141s-73 59 -130 59zM511 312v-305c0 -4 -3 -7 -7 -7h-30c-3 0 -6 3 -6 7v192h-348v-192c0 -4 -4 -7 -7 -7h-30c-4 0 -7 3 -7 7v305c0 61 18 125 58 170c36 41 88 70 159 70
c72 0 124 -29 160 -70c40 -45 58 -109 58 -170zM211 702c-16 0 -28 13 -28 29c0 15 12 27 28 27c15 0 27 -12 27 -27c0 -16 -12 -29 -27 -29zM377 702c-16 0 -28 13 -28 29c0 15 12 27 28 27c15 0 27 -12 27 -27c0 -16 -12 -29 -27 -29z" />
    <glyph glyph-name="Asmalldieresis.2" unicode="&#xe02e;" horiz-adv-x="587" 
d="M293 511c-56 0 -99 -23 -129 -59c-30 -37 -44 -88 -44 -141v-86h348v86c0 53 -15 104 -45 141s-73 59 -130 59zM511 312v-305c0 -4 -3 -7 -7 -7h-30c-3 0 -6 3 -6 7v180h-348v-180c0 -4 -4 -7 -7 -7h-30c-4 0 -7 3 -7 7v305c0 61 18 125 58 170c36 41 88 70 159 70
c72 0 124 -29 160 -70c40 -45 58 -109 58 -170zM211 702c-16 0 -28 13 -28 29c0 15 12 27 28 27c15 0 27 -12 27 -27c0 -16 -12 -29 -27 -29zM377 702c-16 0 -28 13 -28 29c0 15 12 27 28 27c15 0 27 -12 27 -27c0 -16 -12 -29 -27 -29z" />
    <glyph glyph-name="Asmalldieresis.3" unicode="&#xe02f;" horiz-adv-x="535" 
d="M263 30c58 0 102 10 152 42v218c-68 -2 -163 -6 -230 -36c-47 -20 -79 -53 -79 -107c0 -42 20 -71 50 -90c29 -19 69 -27 107 -27zM459 342v-335c0 -4 -3 -7 -7 -7h-25c-4 0 -7 3 -7 7v26h-5c-56 -32 -98 -41 -163 -41c-45 0 -91 11 -127 34c-38 25 -64 64 -64 119
c0 72 40 115 97 140c76 34 183 38 257 41v19c0 58 -11 98 -33 124c-29 36 -69 44 -108 44c-62 0 -125 -24 -163 -50c-6 -3 -9 -3 -11 2l-11 24c-2 4 -2 7 3 10c48 32 115 53 184 53c55 0 107 -13 142 -58c26 -32 41 -81 41 -152zM186 702c-16 0 -28 13 -28 29
c0 15 12 27 28 27c15 0 27 -12 27 -27c0 -16 -12 -29 -27 -29zM352 702c-16 0 -28 13 -28 29c0 15 12 27 28 27c15 0 27 -12 27 -27c0 -16 -12 -29 -27 -29z" />
    <glyph glyph-name="Asmalldieresis.calt" unicode="&#xe030;" horiz-adv-x="514" 
d="M115 144l-56 -137c-1 -4 -4 -7 -10 -7h-29c-4 0 -7 2 -7 5c0 2 0 4 2 8l218 526c2 6 5 8 11 8h28c6 0 8 -2 11 -8l216 -525c1 -3 3 -7 3 -9c0 -3 -3 -5 -8 -5h-29c-5 0 -8 3 -10 7l-57 137h-283zM387 178l-130 313l-130 -313h260zM175 702c-16 0 -28 13 -28 29
c0 15 12 27 28 27c15 0 27 -12 27 -27c0 -16 -12 -29 -27 -29zM341 702c-16 0 -28 13 -28 29c0 15 12 27 28 27c15 0 27 -12 27 -27c0 -16 -12 -29 -27 -29z" />
    <glyph glyph-name="Asmallgrave" unicode="&#xe031;" horiz-adv-x="587" 
d="M293 511c-56 0 -99 -23 -129 -59c-30 -37 -44 -88 -44 -141v-74h348v74c0 53 -15 104 -45 141s-73 59 -130 59zM511 312v-305c0 -4 -3 -7 -7 -7h-30c-3 0 -6 3 -6 7v192h-348v-192c0 -4 -4 -7 -7 -7h-30c-4 0 -7 3 -7 7v305c0 61 18 125 58 170c36 41 88 70 159 70
c72 0 124 -29 160 -70c40 -45 58 -109 58 -170zM225 825h31c5 0 7 -3 9 -7l97 -173c2 -4 6 -13 -3 -13h-22c-5 0 -7 2 -10 7l-106 174c-3 5 -3 11 4 12z" />
    <glyph glyph-name="Asmallgrave.2" unicode="&#xe032;" horiz-adv-x="587" 
d="M293 511c-56 0 -99 -23 -129 -59c-30 -37 -44 -88 -44 -141v-86h348v86c0 53 -15 104 -45 141s-73 59 -130 59zM511 312v-305c0 -4 -3 -7 -7 -7h-30c-3 0 -6 3 -6 7v180h-348v-180c0 -4 -4 -7 -7 -7h-30c-4 0 -7 3 -7 7v305c0 61 18 125 58 170c36 41 88 70 159 70
c72 0 124 -29 160 -70c40 -45 58 -109 58 -170zM227 825h31c5 0 7 -3 9 -7l97 -173c2 -4 6 -13 -3 -13h-22c-5 0 -7 2 -10 7l-106 174c-3 5 -3 11 4 12z" />
    <glyph glyph-name="Asmallgrave.3" unicode="&#xe033;" horiz-adv-x="535" 
d="M263 30c58 0 102 10 152 42v218c-68 -2 -163 -6 -230 -36c-47 -20 -79 -53 -79 -107c0 -42 20 -71 50 -90c29 -19 69 -27 107 -27zM459 342v-335c0 -4 -3 -7 -7 -7h-25c-4 0 -7 3 -7 7v26h-5c-56 -32 -98 -41 -163 -41c-45 0 -91 11 -127 34c-38 25 -64 64 -64 119
c0 72 40 115 97 140c76 34 183 38 257 41v19c0 58 -11 98 -33 124c-29 36 -69 44 -108 44c-62 0 -125 -24 -163 -50c-6 -3 -9 -3 -11 2l-11 24c-2 4 -2 7 3 10c48 32 115 53 184 53c55 0 107 -13 142 -58c26 -32 41 -81 41 -152zM211 825h31c5 0 7 -3 9 -7l97 -173
c2 -4 6 -13 -3 -13h-22c-5 0 -7 2 -10 7l-106 174c-3 5 -3 11 4 12z" />
    <glyph glyph-name="Asmallgrave.calt" unicode="&#xe034;" horiz-adv-x="514" 
d="M115 144l-56 -137c-1 -4 -4 -7 -10 -7h-29c-4 0 -7 2 -7 5c0 2 0 4 2 8l218 526c2 6 5 8 11 8h28c6 0 8 -2 11 -8l216 -525c1 -3 3 -7 3 -9c0 -3 -3 -5 -8 -5h-29c-5 0 -8 3 -10 7l-57 137h-283zM387 178l-130 313l-130 -313h260zM189 825h31c5 0 7 -3 9 -7l97 -173
c2 -4 6 -13 -3 -13h-22c-5 0 -7 2 -10 7l-106 174c-3 5 -3 11 4 12z" />
    <glyph glyph-name="Asmallmacron" unicode="&#xe035;" horiz-adv-x="587" 
d="M293 511c-56 0 -99 -23 -129 -59c-30 -37 -44 -88 -44 -141v-74h348v74c0 53 -15 104 -45 141s-73 59 -130 59zM511 312v-305c0 -4 -3 -7 -7 -7h-30c-3 0 -6 3 -6 7v192h-348v-192c0 -4 -4 -7 -7 -7h-30c-4 0 -7 3 -7 7v305c0 61 18 125 58 170c36 41 88 70 159 70
c72 0 124 -29 160 -70c40 -45 58 -109 58 -170zM177 741h233c4 0 7 -4 7 -7v-24c0 -4 -3 -7 -7 -7h-233c-4 0 -7 3 -7 7v24c0 3 3 7 7 7z" />
    <glyph glyph-name="Asmallmacron.2" unicode="&#xe036;" horiz-adv-x="587" 
d="M293 511c-56 0 -99 -23 -129 -59c-30 -37 -44 -88 -44 -141v-86h348v86c0 53 -15 104 -45 141s-73 59 -130 59zM511 312v-305c0 -4 -3 -7 -7 -7h-30c-3 0 -6 3 -6 7v180h-348v-180c0 -4 -4 -7 -7 -7h-30c-4 0 -7 3 -7 7v305c0 61 18 125 58 170c36 41 88 70 159 70
c72 0 124 -29 160 -70c40 -45 58 -109 58 -170zM177 741h233c4 0 7 -4 7 -7v-24c0 -4 -3 -7 -7 -7h-233c-4 0 -7 3 -7 7v24c0 3 3 7 7 7z" />
    <glyph glyph-name="Asmallmacron.3" unicode="&#xe037;" horiz-adv-x="535" 
d="M263 30c58 0 102 10 152 42v218c-68 -2 -163 -6 -230 -36c-47 -20 -79 -53 -79 -107c0 -42 20 -71 50 -90c29 -19 69 -27 107 -27zM459 342v-335c0 -4 -3 -7 -7 -7h-25c-4 0 -7 3 -7 7v26h-5c-56 -32 -98 -41 -163 -41c-45 0 -91 11 -127 34c-38 25 -64 64 -64 119
c0 72 40 115 97 140c76 34 183 38 257 41v19c0 58 -11 98 -33 124c-29 36 -69 44 -108 44c-62 0 -125 -24 -163 -50c-6 -3 -9 -3 -11 2l-11 24c-2 4 -2 7 3 10c48 32 115 53 184 53c55 0 107 -13 142 -58c26 -32 41 -81 41 -152zM156 741h233c4 0 7 -4 7 -7v-24
c0 -4 -3 -7 -7 -7h-233c-4 0 -7 3 -7 7v24c0 3 3 7 7 7z" />
    <glyph glyph-name="Asmallmacron.calt" unicode="&#xe038;" horiz-adv-x="514" 
d="M115 144l-56 -137c-1 -4 -4 -7 -10 -7h-29c-4 0 -7 2 -7 5c0 2 0 4 2 8l218 526c2 6 5 8 11 8h28c6 0 8 -2 11 -8l216 -525c1 -3 3 -7 3 -9c0 -3 -3 -5 -8 -5h-29c-5 0 -8 3 -10 7l-57 137h-283zM387 178l-130 313l-130 -313h260zM140 741h233c4 0 7 -4 7 -7v-24
c0 -4 -3 -7 -7 -7h-233c-4 0 -7 3 -7 7v24c0 3 3 7 7 7z" />
    <glyph glyph-name="Asmallogonek" unicode="&#xe039;" horiz-adv-x="587" 
d="M377 -111c0 50 47 94 91 117v1v192h-348v-192c0 -4 -4 -7 -7 -7h-30c-4 0 -7 3 -7 7v305c0 61 18 125 58 170c36 41 88 70 159 70c72 0 124 -29 160 -70c40 -45 58 -109 58 -170v-305c0 -4 -3 -7 -7 -7h-16c-35 -21 -76 -58 -76 -100c0 -29 20 -43 48 -43s42 9 50 9
c4 0 5 -2 5 -5v-17c0 -5 -2 -6 -5 -8c-13 -6 -37 -11 -58 -11c-42 0 -75 19 -75 64zM293 511c-56 0 -99 -23 -129 -59c-30 -37 -44 -88 -44 -141v-74h348v74c0 53 -15 104 -45 141s-73 59 -130 59z" />
    <glyph glyph-name="Asmallogonek.2" unicode="&#xe03a;" horiz-adv-x="587" 
d="M377 -111c0 50 47 94 91 117v1v180h-348v-180c0 -4 -4 -7 -7 -7h-30c-4 0 -7 3 -7 7v305c0 61 18 125 58 170c36 41 88 70 159 70c72 0 124 -29 160 -70c40 -45 58 -109 58 -170v-305c0 -4 -3 -7 -7 -7h-16c-35 -21 -76 -58 -76 -100c0 -29 20 -43 48 -43s42 9 50 9
c4 0 5 -2 5 -5v-17c0 -5 -2 -6 -5 -8c-13 -6 -37 -11 -58 -11c-42 0 -75 19 -75 64zM293 511c-56 0 -99 -23 -129 -59c-30 -37 -44 -88 -44 -141v-86h348v86c0 53 -15 104 -45 141s-73 59 -130 59z" />
    <glyph glyph-name="Asmallogonek.3" unicode="&#xe03b;" horiz-adv-x="535" 
d="M328 -111c0 51 48 95 92 118v26h-5c-56 -32 -98 -41 -163 -41c-45 0 -91 11 -127 34c-38 25 -64 64 -64 119c0 72 40 115 97 140c76 34 183 38 257 41v19c0 58 -11 98 -33 124c-29 36 -69 44 -108 44c-62 0 -125 -24 -163 -50c-6 -3 -9 -3 -11 2l-11 24c-2 4 -2 7 3 10
c48 32 115 53 184 53c55 0 107 -13 142 -58c26 -32 41 -81 41 -152v-335c0 -4 -3 -7 -7 -7h-13c-35 -21 -76 -58 -76 -100c0 -29 20 -43 48 -43s42 9 50 9c4 0 5 -2 5 -5v-17c0 -5 -2 -6 -5 -8c-13 -6 -37 -11 -58 -11c-42 0 -75 19 -75 64zM263 30c58 0 102 10 152 42v218
c-68 -2 -163 -6 -230 -36c-47 -20 -79 -53 -79 -107c0 -42 20 -71 50 -90c29 -19 69 -27 107 -27z" />
    <glyph glyph-name="Asmallogonek.calt" unicode="&#xe03c;" horiz-adv-x="514" 
d="M368 -111c0 49 45 92 88 116c-1 0 -1 1 -1 2l-57 137h-283l-56 -137c-1 -4 -4 -7 -10 -7h-29c-4 0 -7 2 -7 5c0 2 0 4 2 8l218 526c2 6 5 8 11 8h28c6 0 8 -2 11 -8l216 -525c1 -3 3 -7 3 -9c0 -3 -3 -5 -8 -5h-15c-35 -21 -76 -58 -76 -100c0 -29 20 -43 48 -43
s42 9 50 9c4 0 5 -2 5 -5v-17c0 -5 -2 -6 -5 -8c-13 -6 -37 -11 -58 -11c-42 0 -75 19 -75 64zM387 178l-130 313l-130 -313h260z" />
    <glyph glyph-name="Asmallring" unicode="&#xe03d;" horiz-adv-x="587" 
d="M293 511c-56 0 -99 -23 -129 -59c-30 -37 -44 -88 -44 -141v-74h348v74c0 53 -15 104 -45 141s-73 59 -130 59zM511 312v-305c0 -4 -3 -7 -7 -7h-30c-3 0 -6 3 -6 7v192h-348v-192c0 -4 -4 -7 -7 -7h-30c-4 0 -7 3 -7 7v305c0 61 18 125 58 170c36 41 88 70 159 70
c72 0 124 -29 160 -70c40 -45 58 -109 58 -170zM406 719c0 -63 -50 -113 -112 -113c-63 0 -113 50 -113 113s50 113 113 113c62 0 112 -50 112 -113zM381 719c0 49 -39 88 -87 88c-49 0 -88 -39 -88 -88s39 -88 88 -88c48 0 87 38 87 88z" />
    <glyph glyph-name="Asmallring.2" unicode="&#xe03e;" horiz-adv-x="587" 
d="M293 511c-56 0 -99 -23 -129 -59c-30 -37 -44 -88 -44 -141v-86h348v86c0 53 -15 104 -45 141s-73 59 -130 59zM511 312v-305c0 -4 -3 -7 -7 -7h-30c-3 0 -6 3 -6 7v180h-348v-180c0 -4 -4 -7 -7 -7h-30c-4 0 -7 3 -7 7v305c0 61 18 125 58 170c36 41 88 70 159 70
c72 0 124 -29 160 -70c40 -45 58 -109 58 -170zM406 719c0 -63 -50 -113 -112 -113c-63 0 -113 50 -113 113s50 113 113 113c62 0 112 -50 112 -113zM381 719c0 49 -39 88 -87 88c-49 0 -88 -39 -88 -88s39 -88 88 -88c48 0 87 38 87 88z" />
    <glyph glyph-name="Asmallring.3" unicode="&#xe03f;" horiz-adv-x="535" 
d="M263 30c58 0 102 10 152 42v218c-68 -2 -163 -6 -230 -36c-47 -20 -79 -53 -79 -107c0 -42 20 -71 50 -90c29 -19 69 -27 107 -27zM459 342v-335c0 -4 -3 -7 -7 -7h-25c-4 0 -7 3 -7 7v26h-5c-56 -32 -98 -41 -163 -41c-45 0 -91 11 -127 34c-38 25 -64 64 -64 119
c0 72 40 115 97 140c76 34 183 38 257 41v19c0 58 -11 98 -33 124c-29 36 -69 44 -108 44c-62 0 -125 -24 -163 -50c-6 -3 -9 -3 -11 2l-11 24c-2 4 -2 7 3 10c48 32 115 53 184 53c55 0 107 -13 142 -58c26 -32 41 -81 41 -152zM385 719c0 -63 -50 -113 -112 -113
c-63 0 -113 50 -113 113s50 113 113 113c62 0 112 -50 112 -113zM360 719c0 49 -39 88 -87 88c-49 0 -88 -39 -88 -88s39 -88 88 -88c48 0 87 38 87 88z" />
    <glyph glyph-name="Asmallring.calt" unicode="&#xe040;" horiz-adv-x="514" 
d="M115 144l-56 -137c-1 -4 -4 -7 -10 -7h-29c-4 0 -7 2 -7 5c0 2 0 4 2 8l218 526c2 6 5 8 11 8h28c6 0 8 -2 11 -8l216 -525c1 -3 3 -7 3 -9c0 -3 -3 -5 -8 -5h-29c-5 0 -8 3 -10 7l-57 137h-283zM387 178l-130 313l-130 -313h260zM370 719c0 -63 -50 -113 -112 -113
c-63 0 -113 50 -113 113s50 113 113 113c62 0 112 -50 112 -113zM345 719c0 49 -39 88 -87 88c-49 0 -88 -39 -88 -88s39 -88 88 -88c48 0 87 38 87 88z" />
    <glyph glyph-name="Asmalltilde" unicode="&#xe041;" horiz-adv-x="587" 
d="M293 511c-56 0 -99 -23 -129 -59c-30 -37 -44 -88 -44 -141v-74h348v74c0 53 -15 104 -45 141s-73 59 -130 59zM511 312v-305c0 -4 -3 -7 -7 -7h-30c-3 0 -6 3 -6 7v192h-348v-192c0 -4 -4 -7 -7 -7h-30c-4 0 -7 3 -7 7v305c0 61 18 125 58 170c36 41 88 70 159 70
c72 0 124 -29 160 -70c40 -45 58 -109 58 -170zM361 718c38 0 46 22 48 38c0 6 3 8 7 8h14c6 0 9 -4 9 -8c0 -43 -28 -72 -75 -72c-27 0 -49 12 -73 27c-20 13 -40 25 -64 25c-39 0 -47 -23 -49 -39c0 -5 -3 -8 -7 -8h-14c-6 0 -9 4 -9 9c0 42 28 72 76 72
c29 0 52 -12 75 -26c21 -14 39 -26 62 -26z" />
    <glyph glyph-name="Asmalltilde.2" unicode="&#xe042;" horiz-adv-x="587" 
d="M293 511c-56 0 -99 -23 -129 -59c-30 -37 -44 -88 -44 -141v-86h348v86c0 53 -15 104 -45 141s-73 59 -130 59zM511 312v-305c0 -4 -3 -7 -7 -7h-30c-3 0 -6 3 -6 7v180h-348v-180c0 -4 -4 -7 -7 -7h-30c-4 0 -7 3 -7 7v305c0 61 18 125 58 170c36 41 88 70 159 70
c72 0 124 -29 160 -70c40 -45 58 -109 58 -170zM361 718c38 0 46 22 48 38c0 6 3 8 7 8h14c6 0 9 -4 9 -8c0 -43 -28 -72 -75 -72c-27 0 -49 12 -73 27c-20 13 -40 25 -64 25c-39 0 -47 -23 -49 -39c0 -5 -3 -8 -7 -8h-14c-6 0 -9 4 -9 9c0 42 28 72 76 72
c29 0 52 -12 75 -26c21 -14 39 -26 62 -26z" />
    <glyph glyph-name="Asmalltilde.3" unicode="&#xe043;" horiz-adv-x="535" 
d="M263 30c58 0 102 10 152 42v218c-68 -2 -163 -6 -230 -36c-47 -20 -79 -53 -79 -107c0 -42 20 -71 50 -90c29 -19 69 -27 107 -27zM459 342v-335c0 -4 -3 -7 -7 -7h-25c-4 0 -7 3 -7 7v26h-5c-56 -32 -98 -41 -163 -41c-45 0 -91 11 -127 34c-38 25 -64 64 -64 119
c0 72 40 115 97 140c76 34 183 38 257 41v19c0 58 -11 98 -33 124c-29 36 -69 44 -108 44c-62 0 -125 -24 -163 -50c-6 -3 -9 -3 -11 2l-11 24c-2 4 -2 7 3 10c48 32 115 53 184 53c55 0 107 -13 142 -58c26 -32 41 -81 41 -152zM339 718c38 0 46 22 48 38c0 6 3 8 7 8h14
c6 0 9 -4 9 -8c0 -43 -28 -72 -75 -72c-27 0 -49 12 -73 27c-20 13 -40 25 -64 25c-39 0 -47 -23 -49 -39c0 -5 -3 -8 -7 -8h-14c-6 0 -9 4 -9 9c0 42 28 72 76 72c29 0 52 -12 75 -26c21 -14 39 -26 62 -26z" />
    <glyph glyph-name="Asmalltilde.calt" unicode="&#xe044;" horiz-adv-x="514" 
d="M115 144l-56 -137c-1 -4 -4 -7 -10 -7h-29c-4 0 -7 2 -7 5c0 2 0 4 2 8l218 526c2 6 5 8 11 8h28c6 0 8 -2 11 -8l216 -525c1 -3 3 -7 3 -9c0 -3 -3 -5 -8 -5h-29c-5 0 -8 3 -10 7l-57 137h-283zM387 178l-130 313l-130 -313h260zM325 718c38 0 46 22 48 38c0 6 3 8 7 8
h14c6 0 9 -4 9 -8c0 -43 -28 -72 -75 -72c-27 0 -49 12 -73 27c-20 13 -40 25 -64 25c-39 0 -47 -23 -49 -39c0 -5 -3 -8 -7 -8h-14c-6 0 -9 4 -9 9c0 42 28 72 76 72c29 0 52 -12 75 -26c21 -14 39 -26 62 -26z" />
    <glyph glyph-name="Atilde" unicode="&#xc3;" horiz-adv-x="689" 
d="M344 646c-68 0 -122 -28 -159 -70c-41 -48 -61 -115 -61 -184v-98h441v98c0 69 -20 136 -61 184c-37 41 -91 70 -160 70zM613 392v-385c0 -4 -4 -7 -7 -7h-35c-3 0 -6 3 -6 7v244h-441v-244c0 -4 -3 -7 -6 -7h-35c-3 0 -7 3 -7 7v385c0 78 24 158 77 217
c43 49 107 81 191 81c85 0 149 -32 192 -81c53 -59 77 -139 77 -217zM411 893c38 0 46 22 48 38c0 6 3 8 7 8h14c6 0 9 -4 9 -8c0 -43 -28 -72 -75 -72c-27 0 -49 12 -73 27c-20 13 -40 25 -64 25c-39 0 -47 -23 -49 -39c0 -5 -3 -8 -7 -8h-14c-6 0 -9 4 -9 9
c0 42 28 72 76 72c29 0 52 -12 75 -26c21 -14 39 -26 62 -26z" />
    <glyph glyph-name="Atilde.2" unicode="&#xe045;" horiz-adv-x="689" 
d="M344 646c-68 0 -122 -29 -159 -70c-41 -48 -61 -115 -61 -184v-110h441v110c0 69 -20 136 -61 184c-37 41 -91 70 -160 70zM613 392v-385c0 -4 -4 -7 -7 -7h-35c-3 0 -6 3 -6 7v232h-441v-232c0 -4 -3 -7 -6 -7h-35c-3 0 -7 3 -7 7v385c0 78 24 158 77 217
c43 49 107 81 191 81c85 0 149 -32 192 -81c53 -59 77 -139 77 -217zM411 893c38 0 46 22 48 38c0 6 3 8 7 8h14c6 0 9 -4 9 -8c0 -43 -28 -72 -75 -72c-27 0 -49 12 -73 27c-20 13 -40 25 -64 25c-39 0 -47 -23 -49 -39c0 -5 -3 -8 -7 -8h-14c-6 0 -9 4 -9 9
c0 42 28 72 76 72c29 0 52 -12 75 -26c21 -14 39 -26 62 -26z" />
    <glyph glyph-name="Atilde.3" unicode="&#xe046;" horiz-adv-x="630" 
d="M322 648c-90 0 -172 -37 -210 -62c-6 -4 -9 -3 -11 1l-13 28c-2 4 -1 7 4 10c48 31 132 65 233 65c68 0 134 -16 179 -71c31 -40 50 -99 50 -187v-425c0 -4 -3 -7 -7 -7h-31c-4 0 -7 3 -7 7v35h-4c-65 -39 -127 -52 -208 -52c-52 0 -109 10 -154 36
c-50 30 -86 77 -86 149c0 82 40 133 104 167c88 47 222 59 345 66v24c0 75 -14 125 -42 160c-38 46 -92 56 -142 56zM108 177c0 -59 30 -96 72 -118c38 -21 86 -29 132 -29c74 0 131 13 194 53v287c-104 -6 -222 -15 -301 -52c-59 -28 -97 -71 -97 -141zM381 893
c38 0 46 22 48 38c0 6 3 8 7 8h14c6 0 9 -4 9 -8c0 -43 -28 -72 -75 -72c-27 0 -49 12 -73 27c-20 13 -40 25 -64 25c-39 0 -47 -23 -49 -39c0 -5 -3 -8 -7 -8h-14c-6 0 -9 4 -9 9c0 42 28 72 76 72c29 0 52 -12 75 -26c21 -14 39 -26 62 -26z" />
    <glyph glyph-name="Atilde.calt" unicode="&#xe047;" horiz-adv-x="618" 
d="M127 183l-72 -176c-2 -4 -5 -7 -10 -7h-33c-4 0 -7 2 -7 5c0 2 0 4 2 8l273 662c2 7 5 9 11 9h35c6 0 9 -2 11 -9l273 -661c1 -3 3 -7 3 -9c0 -3 -3 -5 -7 -5h-35c-6 0 -9 3 -10 7l-73 176h-361zM475 222l-167 403l-167 -403h334zM376 893c38 0 46 22 48 38c0 6 3 8 7 8
h14c6 0 9 -4 9 -8c0 -43 -28 -72 -75 -72c-27 0 -49 12 -73 27c-20 13 -40 25 -64 25c-39 0 -47 -23 -49 -39c0 -5 -3 -8 -7 -8h-14c-6 0 -9 4 -9 9c0 42 28 72 76 72c29 0 52 -12 75 -26c21 -14 39 -26 62 -26z" />
    <glyph glyph-name="B" unicode="B" horiz-adv-x="640" 
d="M587 180c0 -127 -107 -180 -224 -180h-278c-4 0 -7 3 -7 7v667c0 4 3 7 7 7h229c48 0 98 -6 141 -34c45 -28 76 -74 76 -139c0 -81 -40 -129 -93 -152v-4c94 -14 149 -82 149 -172zM483 502c0 55 -25 92 -63 114c-30 17 -65 25 -101 25h-193v-275h182c42 0 82 1 111 16
c39 21 64 60 64 120zM539 185c0 48 -21 92 -65 119c-35 20 -76 22 -153 22h-195v-286h230c36 0 70 5 99 17c49 21 84 61 84 128z" />
    <glyph glyph-name="B.2" unicode="&#xe048;" horiz-adv-x="674" 
d="M621 180c0 -127 -107 -180 -224 -180h-312c-4 0 -7 3 -7 7v667c0 4 3 7 7 7h263c48 0 99 -6 141 -34c45 -28 76 -74 76 -139c0 -81 -40 -129 -93 -152v-4c94 -14 149 -82 149 -172zM517 502c0 55 -25 92 -63 114c-30 17 -65 25 -101 25h-227v-275h216c42 0 82 1 111 16
c39 21 64 60 64 120zM573 185c0 48 -21 92 -65 119c-35 20 -76 22 -153 22h-229v-286h264c36 0 70 5 99 17c49 21 84 61 84 128z" />
    <glyph glyph-name="Bsmall" unicode="&#xf762;" horiz-adv-x="540" 
d="M314 0h-231c-4 0 -7 3 -7 7v530c0 4 3 7 7 7h190c38 0 81 -5 115 -28c35 -22 60 -59 60 -111c0 -64 -32 -103 -75 -121v-3c76 -11 120 -65 120 -137c0 -102 -86 -144 -179 -144zM405 399c0 42 -20 71 -50 89c-24 13 -53 19 -82 19h-153v-213h144c34 0 65 1 88 13
c31 16 53 44 53 92zM449 149c0 38 -17 72 -53 93c-27 16 -60 18 -122 18h-154v-224h182c29 0 57 5 80 14c39 17 67 48 67 99z" />
    <glyph glyph-name="Bsmall.2" unicode="&#xe049;" horiz-adv-x="562" 
d="M336 0h-253c-4 0 -7 3 -7 7v530c0 4 3 7 7 7h212c38 0 81 -5 115 -28c35 -22 60 -59 60 -111c0 -64 -32 -103 -75 -121v-3c76 -11 120 -65 120 -137c0 -102 -86 -144 -179 -144zM427 399c0 42 -20 72 -50 89c-24 14 -53 19 -82 19h-175v-213h166c34 0 65 1 88 13
c31 16 53 44 53 92zM471 149c0 38 -17 72 -53 93c-27 16 -60 18 -122 18h-176v-224h204c29 0 57 5 80 14c39 17 67 48 67 99z" />
    <glyph glyph-name="C" unicode="C" horiz-adv-x="661" 
d="M401 -10c-193 0 -351 139 -351 351c0 189 159 349 351 349c99 0 164 -29 211 -57c5 -4 7 -7 5 -13l-13 -27c-3 -5 -7 -4 -12 -2c-39 25 -100 56 -191 56c-164 0 -301 -141 -301 -306c0 -185 140 -308 302 -308c91 0 152 31 192 56c5 3 9 3 11 -2l13 -28c3 -5 1 -8 -4 -11
c-48 -29 -113 -58 -213 -58z" />
    <glyph glyph-name="C.2" unicode="&#xe04a;" horiz-adv-x="703" 
d="M660 555c0 -38 -26 -72 -85 -77c-5 -1 -7 0 -10 4l-10 21c-3 4 0 7 6 9c41 5 51 22 51 43c0 19 -12 38 -34 53c-32 23 -87 40 -159 40c-103 0 -188 -40 -245 -105c-47 -54 -74 -124 -74 -202c0 -92 32 -168 85 -221c57 -56 137 -87 230 -87c95 0 173 35 213 59
c5 3 9 4 11 -2l14 -27c1 -4 1 -8 -4 -11c-49 -29 -129 -62 -233 -62c-109 0 -203 35 -268 100c-62 61 -98 146 -98 251c0 90 33 171 88 232c66 72 165 117 280 117c82 0 156 -19 200 -54c26 -22 42 -48 42 -81z" />
    <glyph glyph-name="Cacute" unicode="&#x106;" horiz-adv-x="661" 
d="M401 -10c-193 0 -351 139 -351 351c0 189 159 349 351 349c99 0 164 -29 211 -57c5 -4 7 -7 5 -13l-13 -27c-3 -5 -7 -4 -12 -2c-39 25 -100 56 -191 56c-164 0 -301 -141 -301 -306c0 -185 140 -308 302 -308c91 0 152 31 192 56c5 3 9 3 11 -2l13 -28c3 -5 1 -8 -4 -11
c-48 -29 -113 -58 -213 -58zM432 968h31c8 0 7 -7 4 -12l-106 -174c-3 -5 -6 -7 -11 -7h-21c-9 0 -6 7 -3 13l97 173c2 4 4 7 9 7z" />
    <glyph glyph-name="Cacute.2" unicode="&#xe04b;" horiz-adv-x="703" 
d="M660 555c0 -38 -26 -72 -85 -77c-5 -1 -7 0 -10 4l-10 21c-3 4 0 7 6 9c41 5 51 22 51 43c0 19 -12 38 -34 53c-32 23 -87 40 -159 40c-103 0 -188 -40 -245 -105c-47 -54 -74 -124 -74 -202c0 -92 32 -168 85 -221c57 -56 137 -87 230 -87c95 0 173 35 213 59
c5 3 9 4 11 -2l14 -27c1 -4 1 -8 -4 -11c-49 -29 -129 -62 -233 -62c-109 0 -203 35 -268 100c-62 61 -98 146 -98 251c0 90 33 171 88 232c66 72 165 117 280 117c82 0 156 -19 200 -54c26 -22 42 -48 42 -81zM449 968h31c8 0 7 -7 4 -12l-106 -174c-3 -5 -6 -7 -11 -7h-21
c-9 0 -6 7 -3 13l97 173c2 4 4 7 9 7z" />
    <glyph glyph-name="Ccaron" unicode="&#x10c;" horiz-adv-x="661" 
d="M401 -10c-193 0 -351 139 -351 351c0 189 159 349 351 349c99 0 164 -29 211 -57c5 -4 7 -7 5 -13l-13 -27c-3 -5 -7 -4 -12 -2c-39 25 -100 56 -191 56c-164 0 -301 -141 -301 -306c0 -185 140 -308 302 -308c91 0 152 31 192 56c5 3 9 3 11 -2l13 -28c3 -5 1 -8 -4 -11
c-48 -29 -113 -58 -213 -58zM401 774h-16c-5 0 -7 3 -10 6l-162 177c-4 5 -3 10 4 10h26c6 0 8 -2 12 -6l138 -149l137 149c4 4 7 6 13 6h26c6 0 7 -5 3 -10l-161 -177c-3 -3 -5 -6 -10 -6z" />
    <glyph glyph-name="Ccaron.2" unicode="&#xe04c;" horiz-adv-x="703" 
d="M660 555c0 -38 -26 -72 -85 -77c-5 -1 -7 0 -10 4l-10 21c-3 4 0 7 6 9c41 5 51 22 51 43c0 19 -12 38 -34 53c-32 23 -87 40 -159 40c-103 0 -188 -40 -245 -105c-47 -54 -74 -124 -74 -202c0 -92 32 -168 85 -221c57 -56 137 -87 230 -87c95 0 173 35 213 59
c5 3 9 4 11 -2l14 -27c1 -4 1 -8 -4 -11c-49 -29 -129 -62 -233 -62c-109 0 -203 35 -268 100c-62 61 -98 146 -98 251c0 90 33 171 88 232c66 72 165 117 280 117c82 0 156 -19 200 -54c26 -22 42 -48 42 -81zM418 774h-16c-5 0 -7 3 -10 6l-162 177c-4 5 -3 10 4 10h26
c6 0 8 -2 12 -6l138 -149l137 149c4 4 7 6 13 6h26c6 0 7 -5 3 -10l-161 -177c-3 -3 -5 -6 -10 -6z" />
    <glyph glyph-name="Ccedilla" unicode="&#xc7;" horiz-adv-x="661" 
d="M500 -108c0 -64 -66 -82 -113 -82c-14 0 -25 1 -34 4c-4 0 -7 2 -7 6v14c0 3 2 6 7 6c6 0 13 -3 34 -3c37 0 81 15 81 56c0 34 -35 46 -67 46c-12 0 -10 0 -19 -1l4 53c-186 7 -336 143 -336 350c0 189 159 349 351 349c99 0 164 -29 211 -57c5 -4 7 -7 5 -13l-13 -27
c-3 -5 -7 -4 -12 -2c-39 25 -100 56 -191 56c-164 0 -301 -141 -301 -306c0 -185 140 -308 302 -308c91 0 152 31 192 56c5 3 9 3 11 -2l13 -28c3 -5 1 -8 -4 -11c-46 -28 -109 -56 -202 -58v-29c46 -1 88 -22 88 -69z" />
    <glyph glyph-name="Ccedilla.2" unicode="&#xe04d;" horiz-adv-x="703" 
d="M515 -108c0 -64 -66 -82 -113 -82c-14 0 -25 1 -34 4c-4 0 -7 2 -7 6v14c0 3 2 6 7 6c6 0 13 -3 34 -3c37 0 81 15 81 56c0 34 -35 46 -67 46c-12 0 -10 0 -19 -1l4 52c-103 3 -191 38 -253 100c-62 61 -98 146 -98 251c0 90 33 171 88 232c66 72 165 117 280 117
c82 0 156 -19 200 -54c26 -22 42 -48 42 -81c0 -38 -26 -72 -85 -77c-5 -1 -7 0 -10 4l-10 21c-3 4 0 7 6 9c41 5 51 22 51 43c0 19 -12 38 -34 53c-32 23 -87 40 -159 40c-103 0 -188 -40 -245 -105c-47 -54 -74 -124 -74 -202c0 -92 32 -168 85 -221
c57 -56 137 -87 230 -87c95 0 173 35 213 59c5 3 9 4 11 -2l14 -27c1 -4 1 -8 -4 -11c-48 -28 -124 -60 -222 -62v-29c46 -1 88 -22 88 -69z" />
    <glyph glyph-name="Csmall" unicode="&#xf763;" horiz-adv-x="533" 
d="M331 33c59 0 112 16 155 45c4 3 8 2 10 -3l12 -24c1 -3 1 -7 -3 -10c-42 -28 -98 -49 -175 -49s-148 28 -200 79c-50 49 -82 119 -82 202c0 67 25 128 66 176c52 62 130 103 216 103c78 0 130 -20 171 -48c4 -2 5 -7 3 -10l-12 -24c-2 -4 -5 -5 -10 -2
c-44 29 -92 43 -150 43c-76 0 -142 -35 -186 -90c-33 -42 -53 -93 -53 -148c0 -70 26 -128 68 -170c43 -44 105 -70 170 -70z" />
    <glyph glyph-name="Csmall.2" unicode="&#xe04e;" horiz-adv-x="550" 
d="M339 511c-76 0 -147 -34 -192 -89c-34 -42 -54 -94 -54 -149c0 -70 27 -129 69 -171c46 -44 109 -69 177 -69c61 0 120 17 164 46c4 2 7 1 10 -2l11 -25c2 -3 1 -7 -3 -10c-41 -28 -101 -50 -182 -50c-79 0 -154 27 -207 79c-52 49 -84 119 -84 202c0 66 25 129 66 177
c53 62 135 102 224 102c62 0 117 -16 150 -43c23 -19 37 -45 37 -75c0 -36 -24 -67 -77 -72c-6 0 -8 0 -10 4l-8 16c-3 4 0 7 6 9c37 4 47 21 47 41c0 17 -9 34 -26 47c-23 19 -63 32 -118 32z" />
    <glyph glyph-name="Csmallacute" unicode="&#xe04f;" horiz-adv-x="533" 
d="M331 33c59 0 112 16 155 45c4 3 8 2 10 -3l12 -24c1 -3 1 -7 -3 -10c-42 -28 -98 -49 -175 -49s-148 28 -200 79c-50 49 -82 119 -82 202c0 67 25 128 66 176c52 62 130 103 216 103c78 0 130 -20 171 -48c4 -2 5 -7 3 -10l-12 -24c-2 -4 -5 -5 -10 -2
c-44 29 -92 43 -150 43c-76 0 -142 -35 -186 -90c-33 -42 -53 -93 -53 -148c0 -70 26 -128 68 -170c43 -44 105 -70 170 -70zM338 825h31c8 0 7 -7 4 -12l-106 -174c-3 -5 -6 -7 -11 -7h-21c-9 0 -6 7 -3 13l97 173c2 4 4 7 9 7z" />
    <glyph glyph-name="Csmallacute.2" unicode="&#xe050;" horiz-adv-x="550" 
d="M339 511c-76 0 -147 -34 -192 -89c-34 -42 -54 -94 -54 -149c0 -70 27 -129 69 -171c46 -44 109 -69 177 -69c61 0 120 17 164 46c4 2 7 1 10 -2l11 -25c2 -3 1 -7 -3 -10c-41 -28 -101 -50 -182 -50c-79 0 -154 27 -207 79c-52 49 -84 119 -84 202c0 66 25 129 66 177
c53 62 135 102 224 102c62 0 117 -16 150 -43c23 -19 37 -45 37 -75c0 -36 -24 -67 -77 -72c-6 0 -8 0 -10 4l-8 16c-3 4 0 7 6 9c37 4 47 21 47 41c0 17 -9 34 -26 47c-23 19 -63 32 -118 32zM363 825h31c8 0 7 -7 4 -12l-106 -174c-3 -5 -6 -7 -11 -7h-21c-9 0 -6 7 -3 13
l97 173c2 4 4 7 9 7z" />
    <glyph glyph-name="Csmallcaron" unicode="&#xe051;" horiz-adv-x="533" 
d="M331 33c59 0 112 16 155 45c4 3 8 2 10 -3l12 -24c1 -3 1 -7 -3 -10c-42 -28 -98 -49 -175 -49s-148 28 -200 79c-50 49 -82 119 -82 202c0 67 25 128 66 176c52 62 130 103 216 103c78 0 130 -20 171 -48c4 -2 5 -7 3 -10l-12 -24c-2 -4 -5 -5 -10 -2
c-44 29 -92 43 -150 43c-76 0 -142 -35 -186 -90c-33 -42 -53 -93 -53 -148c0 -70 26 -128 68 -170c43 -44 105 -70 170 -70zM333 632h-16c-5 0 -7 3 -10 6l-162 177c-4 5 -3 10 4 10h26c6 0 8 -2 12 -6l138 -149l137 149c4 4 7 6 13 6h26c6 0 7 -5 3 -10l-161 -177
c-3 -3 -5 -6 -10 -6z" />
    <glyph glyph-name="Csmallcaron.2" unicode="&#xe052;" horiz-adv-x="550" 
d="M339 511c-76 0 -147 -34 -192 -89c-34 -42 -54 -94 -54 -149c0 -70 27 -129 69 -171c46 -44 109 -69 177 -69c61 0 120 17 164 46c4 2 7 1 10 -2l11 -25c2 -3 1 -7 -3 -10c-41 -28 -101 -50 -182 -50c-79 0 -154 27 -207 79c-52 49 -84 119 -84 202c0 66 25 129 66 177
c53 62 135 102 224 102c62 0 117 -16 150 -43c23 -19 37 -45 37 -75c0 -36 -24 -67 -77 -72c-6 0 -8 0 -10 4l-8 16c-3 4 0 7 6 9c37 4 47 21 47 41c0 17 -9 34 -26 47c-23 19 -63 32 -118 32zM340 632h-16c-5 0 -7 3 -10 6l-162 177c-4 5 -3 10 4 10h26c6 0 8 -2 12 -6
l138 -149l137 149c4 4 7 6 13 6h26c6 0 7 -5 3 -10l-161 -177c-3 -3 -5 -6 -10 -6z" />
    <glyph glyph-name="Csmallcedilla" unicode="&#xe053;" horiz-adv-x="533" 
d="M421 -108c0 -64 -66 -82 -113 -82c-14 0 -25 1 -34 4c-4 0 -7 2 -7 6v14c0 3 2 6 7 6c6 0 13 -3 34 -3c37 0 81 15 81 56c0 34 -35 46 -67 46c-12 0 -10 0 -19 -1l4 55c-68 5 -130 32 -177 78c-50 49 -82 119 -82 202c0 67 25 128 66 176c52 62 130 103 216 103
c78 0 130 -20 171 -48c4 -2 5 -7 3 -10l-12 -24c-2 -4 -5 -5 -10 -2c-44 29 -92 43 -150 43c-76 0 -142 -35 -186 -90c-33 -42 -53 -93 -53 -148c0 -70 26 -128 68 -170c43 -44 105 -70 170 -70c59 0 112 16 155 45c4 3 8 2 10 -3l12 -24c1 -3 1 -7 -3 -10
c-42 -28 -97 -48 -172 -49v-31c46 -1 88 -22 88 -69z" />
    <glyph glyph-name="Csmallcedilla.2" unicode="&#xe054;" horiz-adv-x="550" 
d="M436 -108c0 -64 -66 -82 -113 -82c-14 0 -25 1 -34 4c-4 0 -7 2 -7 6v14c0 3 2 6 7 6c6 0 13 -3 34 -3c37 0 81 15 81 56c0 34 -35 46 -67 46c-12 0 -10 0 -19 -1l4 55c-73 3 -141 29 -190 78c-52 49 -84 119 -84 202c0 66 25 129 66 177c53 62 135 102 224 102
c62 0 117 -16 150 -43c23 -19 37 -45 37 -75c0 -36 -24 -67 -77 -72c-6 0 -8 0 -10 4l-8 16c-3 4 0 7 6 9c37 4 47 21 47 41c0 17 -9 34 -26 47c-23 19 -63 32 -118 32c-76 0 -147 -34 -192 -89c-34 -42 -54 -94 -54 -149c0 -70 27 -129 69 -171c46 -44 109 -69 177 -69
c61 0 120 17 164 46c4 2 7 1 10 -2l11 -25c2 -3 1 -7 -3 -10c-40 -27 -97 -48 -173 -50v-31c46 -1 88 -22 88 -69z" />
    <glyph glyph-name="D" unicode="D" horiz-adv-x="736" 
d="M685 340c0 -136 -56 -236 -155 -291c-65 -36 -143 -49 -223 -49h-222c-4 0 -7 3 -7 7v667c0 4 3 7 7 7h237c119 0 218 -33 286 -109c48 -56 77 -132 77 -232zM126 640v-599h176c73 0 142 12 198 42c86 46 136 133 136 257c0 89 -25 156 -67 205c-55 63 -145 95 -254 95
h-189z" />
    <glyph glyph-name="Dcaron" unicode="&#x10e;" horiz-adv-x="736" 
d="M685 340c0 -136 -56 -236 -155 -291c-65 -36 -143 -49 -223 -49h-222c-4 0 -7 3 -7 7v667c0 4 3 7 7 7h237c119 0 218 -33 286 -109c48 -56 77 -132 77 -232zM126 640v-599h176c73 0 142 12 198 42c86 46 136 133 136 257c0 89 -25 156 -67 205c-55 63 -145 95 -254 95
h-189zM368 774h-16c-5 0 -7 3 -10 6l-162 177c-4 5 -3 10 4 10h26c6 0 8 -2 12 -6l138 -149l137 149c4 4 7 6 13 6h26c6 0 7 -5 3 -10l-161 -177c-3 -3 -5 -6 -10 -6z" />
    <glyph glyph-name="Dcroat" unicode="&#x110;" horiz-adv-x="739" 
d="M688 340c0 -136 -56 -236 -155 -291c-66 -36 -143 -49 -224 -49h-221c-4 0 -7 3 -7 7v313h-93c-3 0 -7 3 -7 7v26c0 4 4 7 7 7h93v314c0 4 3 7 7 7h237c118 0 217 -33 285 -109c49 -56 78 -132 78 -232zM129 640v-280h179c3 0 6 -3 6 -7v-26c0 -4 -3 -7 -6 -7h-179v-279
h176c73 0 142 12 197 42c87 46 137 133 137 257c0 89 -25 156 -67 205c-55 63 -145 95 -255 95h-188z" />
    <glyph glyph-name="Delta" unicode="&#x2206;" horiz-adv-x="594" 
d="M550 0h-506c-4 0 -7 2 -7 7v15c0 3 0 6 2 9l231 643c1 5 5 7 9 7h35c4 0 8 -2 9 -7l232 -643l1 -9v-15c0 -5 -2 -7 -6 -7zM297 613l-207 -571h414z" />
    <glyph glyph-name="Dsmall" unicode="&#xf764;" horiz-adv-x="612" 
d="M261 0h-178c-4 0 -7 3 -7 7v530c0 4 3 7 7 7h191c94 0 173 -27 227 -88c39 -44 63 -104 63 -185c0 -108 -45 -189 -125 -232c-52 -29 -113 -39 -178 -39zM120 505v-467h138c58 0 111 10 155 33c66 36 106 104 106 200c0 69 -20 122 -53 160c-42 49 -113 74 -198 74h-148z
" />
    <glyph glyph-name="Dsmallcaron" unicode="&#xe055;" horiz-adv-x="617" 
d="M261 0h-178c-4 0 -7 3 -7 7v530c0 4 3 7 7 7h191c94 0 173 -27 227 -88c39 -44 63 -104 63 -185c0 -108 -45 -189 -125 -232c-52 -29 -113 -39 -178 -39zM120 505v-467h138c58 0 111 10 155 33c66 36 106 104 106 200c0 69 -20 122 -53 160c-42 49 -113 74 -198 74h-148z
M297 632h-16c-5 0 -7 3 -10 6l-162 177c-4 5 -3 10 4 10h26c6 0 8 -2 12 -6l138 -149l137 149c4 4 7 6 13 6h26c6 0 7 -5 3 -10l-161 -177c-3 -3 -5 -6 -10 -6z" />
    <glyph glyph-name="E" unicode="E" horiz-adv-x="587" 
d="M85 681h461c4 0 7 -3 7 -7v-29c0 -3 -3 -7 -7 -7h-420v-276h369c3 0 7 -4 7 -7v-29c0 -4 -4 -7 -7 -7h-369v-277h420c4 0 7 -3 7 -7v-28c0 -4 -3 -7 -7 -7h-461c-4 0 -7 3 -7 7v667c0 4 3 7 7 7z" />
    <glyph glyph-name="E.1" unicode="&#xe056;" horiz-adv-x="562" 
d="M521 638h-170c-83 0 -147 -19 -186 -63c-45 -50 -48 -122 -48 -189v-22h351c4 0 7 -3 7 -7v-29c0 -3 -3 -6 -7 -6h-351v-28c0 -67 3 -138 48 -188c39 -45 103 -64 186 -64h170c4 0 7 -3 7 -7v-28c0 -4 -3 -7 -7 -7h-173c-97 0 -170 22 -217 73c-59 63 -62 152 -62 236v61
c0 86 3 175 62 237c47 51 120 74 217 74h173c4 0 7 -3 7 -7v-29c0 -3 -3 -7 -7 -7z" />
    <glyph glyph-name="E.2" unicode="&#xe057;" horiz-adv-x="623" 
d="M85 681h497c4 0 7 -3 7 -7v-29c0 -3 -3 -7 -7 -7h-456v-331h405c3 0 7 -4 7 -7v-29c0 -4 -4 -7 -7 -7h-405v-222h456c4 0 7 -3 7 -7v-28c0 -4 -3 -7 -7 -7h-497c-4 0 -7 3 -7 7v667c0 4 3 7 7 7z" />
    <glyph glyph-name="E.3" unicode="&#xe058;" horiz-adv-x="719" 
d="M103 376h522c-5 152 -102 271 -254 271c-160 0 -258 -115 -268 -271zM50 349c0 91 26 177 89 246c53 57 130 95 231 95c104 0 185 -44 238 -114c37 -50 59 -111 65 -186c1 -15 2 -29 1 -45c-1 -9 -4 -10 -10 -10h-561c2 -81 25 -158 77 -213c52 -57 124 -89 211 -89
c84 0 163 23 232 71c5 4 9 3 11 -1l13 -28c2 -5 1 -7 -3 -10c-76 -49 -152 -74 -254 -74c-108 0 -191 36 -251 101c-60 66 -89 159 -89 257z" />
    <glyph glyph-name="Eacute" unicode="&#xc9;" horiz-adv-x="587" 
d="M85 681h461c4 0 7 -3 7 -7v-29c0 -3 -3 -7 -7 -7h-420v-276h369c3 0 7 -4 7 -7v-29c0 -4 -4 -7 -7 -7h-369v-277h420c4 0 7 -3 7 -7v-28c0 -4 -3 -7 -7 -7h-461c-4 0 -7 3 -7 7v667c0 4 3 7 7 7zM362 968h31c8 0 7 -7 4 -12l-106 -174c-3 -5 -6 -7 -11 -7h-21
c-9 0 -6 7 -3 13l97 173c2 4 4 7 9 7z" />
    <glyph glyph-name="Eacute.1" unicode="&#xe059;" horiz-adv-x="562" 
d="M521 638h-170c-83 0 -147 -19 -186 -63c-45 -50 -48 -122 -48 -189v-22h351c4 0 7 -3 7 -7v-29c0 -3 -3 -6 -7 -6h-351v-28c0 -67 3 -138 48 -188c39 -45 103 -64 186 -64h170c4 0 7 -3 7 -7v-28c0 -4 -3 -7 -7 -7h-173c-97 0 -170 22 -217 73c-59 63 -62 152 -62 236v61
c0 86 3 175 62 237c47 51 120 74 217 74h173c4 0 7 -3 7 -7v-29c0 -3 -3 -7 -7 -7zM362 968h31c8 0 7 -7 4 -12l-106 -174c-3 -5 -6 -7 -11 -7h-21c-9 0 -6 7 -3 13l97 173c2 4 4 7 9 7z" />
    <glyph glyph-name="Eacute.2" unicode="&#xe05a;" horiz-adv-x="623" 
d="M85 681h497c4 0 7 -3 7 -7v-29c0 -3 -3 -7 -7 -7h-456v-331h405c3 0 7 -4 7 -7v-29c0 -4 -4 -7 -7 -7h-405v-222h456c4 0 7 -3 7 -7v-28c0 -4 -3 -7 -7 -7h-497c-4 0 -7 3 -7 7v667c0 4 3 7 7 7zM374 968h31c8 0 7 -7 4 -12l-106 -174c-3 -5 -6 -7 -11 -7h-21
c-9 0 -6 7 -3 13l97 173c2 4 4 7 9 7z" />
    <glyph glyph-name="Eacute.3" unicode="&#xe05b;" horiz-adv-x="719" 
d="M103 376h522c-5 152 -102 271 -254 271c-160 0 -258 -115 -268 -271zM50 349c0 91 26 177 89 246c53 57 130 95 231 95c104 0 185 -44 238 -114c37 -50 59 -111 65 -186c1 -15 2 -29 1 -45c-1 -9 -4 -10 -10 -10h-561c2 -81 25 -158 77 -213c52 -57 124 -89 211 -89
c84 0 163 23 232 71c5 4 9 3 11 -1l13 -28c2 -5 1 -7 -3 -10c-76 -49 -152 -74 -254 -74c-108 0 -191 36 -251 101c-60 66 -89 159 -89 257zM412 968h31c8 0 7 -7 4 -12l-106 -174c-3 -5 -6 -7 -11 -7h-21c-9 0 -6 7 -3 13l97 173c2 4 4 7 9 7z" />
    <glyph glyph-name="Ecaron" unicode="&#x11a;" horiz-adv-x="587" 
d="M85 681h461c4 0 7 -3 7 -7v-29c0 -3 -3 -7 -7 -7h-420v-276h369c3 0 7 -4 7 -7v-29c0 -4 -4 -7 -7 -7h-369v-277h420c4 0 7 -3 7 -7v-28c0 -4 -3 -7 -7 -7h-461c-4 0 -7 3 -7 7v667c0 4 3 7 7 7zM327 774h-16c-5 0 -7 3 -10 6l-162 177c-4 5 -3 10 4 10h26
c6 0 8 -2 12 -6l138 -149l137 149c4 4 7 6 13 6h26c6 0 7 -5 3 -10l-161 -177c-3 -3 -5 -6 -10 -6z" />
    <glyph glyph-name="Ecaron.1" unicode="&#xe05c;" horiz-adv-x="562" 
d="M521 638h-170c-83 0 -147 -19 -186 -63c-45 -50 -48 -122 -48 -189v-22h351c4 0 7 -3 7 -7v-29c0 -3 -3 -6 -7 -6h-351v-28c0 -67 3 -138 48 -188c39 -45 103 -64 186 -64h170c4 0 7 -3 7 -7v-28c0 -4 -3 -7 -7 -7h-173c-97 0 -170 22 -217 73c-59 63 -62 152 -62 236v61
c0 86 3 175 62 237c47 51 120 74 217 74h173c4 0 7 -3 7 -7v-29c0 -3 -3 -7 -7 -7zM352 774h-16c-5 0 -7 3 -10 6l-162 177c-4 5 -3 10 4 10h26c6 0 8 -2 12 -6l138 -149l137 149c4 4 7 6 13 6h26c6 0 7 -5 3 -10l-161 -177c-3 -3 -5 -6 -10 -6z" />
    <glyph glyph-name="Ecaron.2" unicode="&#xe05d;" horiz-adv-x="623" 
d="M85 681h497c4 0 7 -3 7 -7v-29c0 -3 -3 -7 -7 -7h-456v-331h405c3 0 7 -4 7 -7v-29c0 -4 -4 -7 -7 -7h-405v-222h456c4 0 7 -3 7 -7v-28c0 -4 -3 -7 -7 -7h-497c-4 0 -7 3 -7 7v667c0 4 3 7 7 7zM348 774h-16c-5 0 -7 3 -10 6l-162 177c-4 5 -3 10 4 10h26
c6 0 8 -2 12 -6l138 -149l137 149c4 4 7 6 13 6h26c6 0 7 -5 3 -10l-161 -177c-3 -3 -5 -6 -10 -6z" />
    <glyph glyph-name="Ecaron.3" unicode="&#xe05e;" horiz-adv-x="719" 
d="M103 376h522c-5 152 -102 271 -254 271c-160 0 -258 -115 -268 -271zM50 349c0 91 26 177 89 246c53 57 130 95 231 95c104 0 185 -44 238 -114c37 -50 59 -111 65 -186c1 -15 2 -29 1 -45c-1 -9 -4 -10 -10 -10h-561c2 -81 25 -158 77 -213c52 -57 124 -89 211 -89
c84 0 163 23 232 71c5 4 9 3 11 -1l13 -28c2 -5 1 -7 -3 -10c-76 -49 -152 -74 -254 -74c-108 0 -191 36 -251 101c-60 66 -89 159 -89 257zM383 774h-16c-5 0 -7 3 -10 6l-162 177c-4 5 -3 10 4 10h26c6 0 8 -2 12 -6l138 -149l137 149c4 4 7 6 13 6h26c6 0 7 -5 3 -10
l-161 -177c-3 -3 -5 -6 -10 -6z" />
    <glyph glyph-name="Ecircumflex" unicode="&#xca;" horiz-adv-x="587" 
d="M85 681h461c4 0 7 -3 7 -7v-29c0 -3 -3 -7 -7 -7h-420v-276h369c3 0 7 -4 7 -7v-29c0 -4 -4 -7 -7 -7h-369v-277h420c4 0 7 -3 7 -7v-28c0 -4 -3 -7 -7 -7h-461c-4 0 -7 3 -7 7v667c0 4 3 7 7 7zM295 967h16c5 0 7 -2 10 -6l161 -178c4 -5 3 -9 -3 -9h-26
c-6 0 -9 1 -13 6l-137 150l-138 -150c-4 -5 -6 -6 -12 -6h-26c-7 0 -8 4 -4 9l162 178c3 4 5 6 10 6z" />
    <glyph glyph-name="Ecircumflex.1" unicode="&#xe05f;" horiz-adv-x="562" 
d="M521 638h-170c-83 0 -147 -19 -186 -63c-45 -50 -48 -122 -48 -189v-22h351c4 0 7 -3 7 -7v-29c0 -3 -3 -6 -7 -6h-351v-28c0 -67 3 -138 48 -188c39 -45 103 -64 186 -64h170c4 0 7 -3 7 -7v-28c0 -4 -3 -7 -7 -7h-173c-97 0 -170 22 -217 73c-59 63 -62 152 -62 236v61
c0 86 3 175 62 237c47 51 120 74 217 74h173c4 0 7 -3 7 -7v-29c0 -3 -3 -7 -7 -7zM315 967h16c5 0 7 -2 10 -6l161 -178c4 -5 3 -9 -3 -9h-26c-6 0 -9 1 -13 6l-137 150l-138 -150c-4 -5 -6 -6 -12 -6h-26c-7 0 -8 4 -4 9l162 178c3 4 5 6 10 6z" />
    <glyph glyph-name="Ecircumflex.2" unicode="&#xe060;" horiz-adv-x="623" 
d="M85 681h497c4 0 7 -3 7 -7v-29c0 -3 -3 -7 -7 -7h-456v-331h405c3 0 7 -4 7 -7v-29c0 -4 -4 -7 -7 -7h-405v-222h456c4 0 7 -3 7 -7v-28c0 -4 -3 -7 -7 -7h-497c-4 0 -7 3 -7 7v667c0 4 3 7 7 7zM322 967h16c5 0 7 -2 10 -6l161 -178c4 -5 3 -9 -3 -9h-26
c-6 0 -9 1 -13 6l-137 150l-138 -150c-4 -5 -6 -6 -12 -6h-26c-7 0 -8 4 -4 9l162 178c3 4 5 6 10 6z" />
    <glyph glyph-name="Ecircumflex.3" unicode="&#xe061;" horiz-adv-x="719" 
d="M103 376h522c-5 152 -102 271 -254 271c-160 0 -258 -115 -268 -271zM50 349c0 91 26 177 89 246c53 57 130 95 231 95c104 0 185 -44 238 -114c37 -50 59 -111 65 -186c1 -15 2 -29 1 -45c-1 -9 -4 -10 -10 -10h-561c2 -81 25 -158 77 -213c52 -57 124 -89 211 -89
c84 0 163 23 232 71c5 4 9 3 11 -1l13 -28c2 -5 1 -7 -3 -10c-76 -49 -152 -74 -254 -74c-108 0 -191 36 -251 101c-60 66 -89 159 -89 257zM366 967h16c5 0 7 -2 10 -6l161 -178c4 -5 3 -9 -3 -9h-26c-6 0 -9 1 -13 6l-137 150l-138 -150c-4 -5 -6 -6 -12 -6h-26
c-7 0 -8 4 -4 9l162 178c3 4 5 6 10 6z" />
    <glyph glyph-name="Edieresis" unicode="&#xcb;" horiz-adv-x="587" 
d="M85 681h461c4 0 7 -3 7 -7v-29c0 -3 -3 -7 -7 -7h-420v-276h369c3 0 7 -4 7 -7v-29c0 -4 -4 -7 -7 -7h-369v-277h420c4 0 7 -3 7 -7v-28c0 -4 -3 -7 -7 -7h-461c-4 0 -7 3 -7 7v667c0 4 3 7 7 7zM227 845c-16 0 -28 13 -28 29c0 15 12 27 28 27c15 0 27 -12 27 -27
c0 -16 -12 -29 -27 -29zM393 845c-16 0 -28 13 -28 29c0 15 12 27 28 27c15 0 27 -12 27 -27c0 -16 -12 -29 -27 -29z" />
    <glyph glyph-name="Edieresis.1" unicode="&#xe062;" horiz-adv-x="562" 
d="M521 638h-170c-83 0 -147 -19 -186 -63c-45 -50 -48 -122 -48 -189v-22h351c4 0 7 -3 7 -7v-29c0 -3 -3 -6 -7 -6h-351v-28c0 -67 3 -138 48 -188c39 -45 103 -64 186 -64h170c4 0 7 -3 7 -7v-28c0 -4 -3 -7 -7 -7h-173c-97 0 -170 22 -217 73c-59 63 -62 152 -62 236v61
c0 86 3 175 62 237c47 51 120 74 217 74h173c4 0 7 -3 7 -7v-29c0 -3 -3 -7 -7 -7zM241 845c-16 0 -28 13 -28 29c0 15 12 27 28 27c15 0 27 -12 27 -27c0 -16 -12 -29 -27 -29zM407 845c-16 0 -28 13 -28 29c0 15 12 27 28 27c15 0 27 -12 27 -27c0 -16 -12 -29 -27 -29z
" />
    <glyph glyph-name="Edieresis.2" unicode="&#xe063;" horiz-adv-x="623" 
d="M85 681h497c4 0 7 -3 7 -7v-29c0 -3 -3 -7 -7 -7h-456v-331h405c3 0 7 -4 7 -7v-29c0 -4 -4 -7 -7 -7h-405v-222h456c4 0 7 -3 7 -7v-28c0 -4 -3 -7 -7 -7h-497c-4 0 -7 3 -7 7v667c0 4 3 7 7 7zM254 845c-16 0 -28 13 -28 29c0 15 12 27 28 27c15 0 27 -12 27 -27
c0 -16 -12 -29 -27 -29zM420 845c-16 0 -28 13 -28 29c0 15 12 27 28 27c15 0 27 -12 27 -27c0 -16 -12 -29 -27 -29z" />
    <glyph glyph-name="Edieresis.3" unicode="&#xe064;" horiz-adv-x="719" 
d="M103 376h522c-5 152 -102 271 -254 271c-160 0 -258 -115 -268 -271zM50 349c0 91 26 177 89 246c53 57 130 95 231 95c104 0 185 -44 238 -114c37 -50 59 -111 65 -186c1 -15 2 -29 1 -45c-1 -9 -4 -10 -10 -10h-561c2 -81 25 -158 77 -213c52 -57 124 -89 211 -89
c84 0 163 23 232 71c5 4 9 3 11 -1l13 -28c2 -5 1 -7 -3 -10c-76 -49 -152 -74 -254 -74c-108 0 -191 36 -251 101c-60 66 -89 159 -89 257zM287 845c-16 0 -28 13 -28 29c0 15 12 27 28 27c15 0 27 -12 27 -27c0 -16 -12 -29 -27 -29zM453 845c-16 0 -28 13 -28 29
c0 15 12 27 28 27c15 0 27 -12 27 -27c0 -16 -12 -29 -27 -29z" />
    <glyph glyph-name="Edotaccent" unicode="&#x116;" horiz-adv-x="587" 
d="M85 681h461c4 0 7 -3 7 -7v-29c0 -3 -3 -7 -7 -7h-420v-276h369c3 0 7 -4 7 -7v-29c0 -4 -4 -7 -7 -7h-369v-277h420c4 0 7 -3 7 -7v-28c0 -4 -3 -7 -7 -7h-461c-4 0 -7 3 -7 7v667c0 4 3 7 7 7zM310 851c-16 0 -28 12 -28 28c0 15 12 27 28 27c15 0 27 -12 27 -27
c0 -16 -12 -28 -27 -28z" />
    <glyph glyph-name="Edotaccent.1" unicode="&#xe065;" horiz-adv-x="562" 
d="M521 638h-170c-83 0 -147 -19 -186 -63c-45 -50 -48 -122 -48 -189v-22h351c4 0 7 -3 7 -7v-29c0 -3 -3 -6 -7 -6h-351v-28c0 -67 3 -138 48 -188c39 -45 103 -64 186 -64h170c4 0 7 -3 7 -7v-28c0 -4 -3 -7 -7 -7h-173c-97 0 -170 22 -217 73c-59 63 -62 152 -62 236v61
c0 86 3 175 62 237c47 51 120 74 217 74h173c4 0 7 -3 7 -7v-29c0 -3 -3 -7 -7 -7zM327 851c-16 0 -28 12 -28 28c0 15 12 27 28 27c15 0 27 -12 27 -27c0 -16 -12 -28 -27 -28z" />
    <glyph glyph-name="Edotaccent.2" unicode="&#xe066;" horiz-adv-x="623" 
d="M85 681h497c4 0 7 -3 7 -7v-29c0 -3 -3 -7 -7 -7h-456v-331h405c3 0 7 -4 7 -7v-29c0 -4 -4 -7 -7 -7h-405v-222h456c4 0 7 -3 7 -7v-28c0 -4 -3 -7 -7 -7h-497c-4 0 -7 3 -7 7v667c0 4 3 7 7 7zM339 851c-16 0 -28 12 -28 28c0 15 12 27 28 27c15 0 27 -12 27 -27
c0 -16 -12 -28 -27 -28z" />
    <glyph glyph-name="Edotaccent.3" unicode="&#xe067;" horiz-adv-x="719" 
d="M103 376h522c-5 152 -102 271 -254 271c-160 0 -258 -115 -268 -271zM50 349c0 91 26 177 89 246c53 57 130 95 231 95c104 0 185 -44 238 -114c37 -50 59 -111 65 -186c1 -15 2 -29 1 -45c-1 -9 -4 -10 -10 -10h-561c2 -81 25 -158 77 -213c52 -57 124 -89 211 -89
c84 0 163 23 232 71c5 4 9 3 11 -1l13 -28c2 -5 1 -7 -3 -10c-76 -49 -152 -74 -254 -74c-108 0 -191 36 -251 101c-60 66 -89 159 -89 257zM374 851c-16 0 -28 12 -28 28c0 15 12 27 28 27c15 0 27 -12 27 -27c0 -16 -12 -28 -27 -28z" />
    <glyph glyph-name="Egrave" unicode="&#xc8;" horiz-adv-x="587" 
d="M85 681h461c4 0 7 -3 7 -7v-29c0 -3 -3 -7 -7 -7h-420v-276h369c3 0 7 -4 7 -7v-29c0 -4 -4 -7 -7 -7h-369v-277h420c4 0 7 -3 7 -7v-28c0 -4 -3 -7 -7 -7h-461c-4 0 -7 3 -7 7v667c0 4 3 7 7 7zM223 968h31c5 0 7 -3 9 -7l97 -173c2 -4 6 -13 -3 -13h-22
c-5 0 -7 2 -10 7l-106 174c-3 5 -3 11 4 12z" />
    <glyph glyph-name="Egrave.1" unicode="&#xe068;" horiz-adv-x="562" 
d="M521 638h-170c-83 0 -147 -19 -186 -63c-45 -50 -48 -122 -48 -189v-22h351c4 0 7 -3 7 -7v-29c0 -3 -3 -6 -7 -6h-351v-28c0 -67 3 -138 48 -188c39 -45 103 -64 186 -64h170c4 0 7 -3 7 -7v-28c0 -4 -3 -7 -7 -7h-173c-97 0 -170 22 -217 73c-59 63 -62 152 -62 236v61
c0 86 3 175 62 237c47 51 120 74 217 74h173c4 0 7 -3 7 -7v-29c0 -3 -3 -7 -7 -7zM251 968h31c5 0 7 -3 9 -7l97 -173c2 -4 6 -13 -3 -13h-22c-5 0 -7 2 -10 7l-106 174c-3 5 -3 11 4 12z" />
    <glyph glyph-name="Egrave.2" unicode="&#xe069;" horiz-adv-x="623" 
d="M85 681h497c4 0 7 -3 7 -7v-29c0 -3 -3 -7 -7 -7h-456v-331h405c3 0 7 -4 7 -7v-29c0 -4 -4 -7 -7 -7h-405v-222h456c4 0 7 -3 7 -7v-28c0 -4 -3 -7 -7 -7h-497c-4 0 -7 3 -7 7v667c0 4 3 7 7 7zM267 968h31c5 0 7 -3 9 -7l97 -173c2 -4 6 -13 -3 -13h-22
c-5 0 -7 2 -10 7l-106 174c-3 5 -3 11 4 12z" />
    <glyph glyph-name="Egrave.3" unicode="&#xe06a;" horiz-adv-x="719" 
d="M103 376h522c-5 152 -102 271 -254 271c-160 0 -258 -115 -268 -271zM50 349c0 91 26 177 89 246c53 57 130 95 231 95c104 0 185 -44 238 -114c37 -50 59 -111 65 -186c1 -15 2 -29 1 -45c-1 -9 -4 -10 -10 -10h-561c2 -81 25 -158 77 -213c52 -57 124 -89 211 -89
c84 0 163 23 232 71c5 4 9 3 11 -1l13 -28c2 -5 1 -7 -3 -10c-76 -49 -152 -74 -254 -74c-108 0 -191 36 -251 101c-60 66 -89 159 -89 257zM309 968h31c5 0 7 -3 9 -7l97 -173c2 -4 6 -13 -3 -13h-22c-5 0 -7 2 -10 7l-106 174c-3 5 -3 11 4 12z" />
    <glyph glyph-name="Emacron" unicode="&#x112;" horiz-adv-x="587" 
d="M85 681h461c4 0 7 -3 7 -7v-29c0 -3 -3 -7 -7 -7h-420v-276h369c3 0 7 -4 7 -7v-29c0 -4 -4 -7 -7 -7h-369v-277h420c4 0 7 -3 7 -7v-28c0 -4 -3 -7 -7 -7h-461c-4 0 -7 3 -7 7v667c0 4 3 7 7 7zM191 904h233c4 0 7 -4 7 -7v-24c0 -4 -3 -7 -7 -7h-233c-4 0 -7 3 -7 7v24
c0 3 3 7 7 7z" />
    <glyph glyph-name="Emacron.1" unicode="&#xe06b;" horiz-adv-x="562" 
d="M521 638h-170c-83 0 -147 -19 -186 -63c-45 -50 -48 -122 -48 -189v-22h351c4 0 7 -3 7 -7v-29c0 -3 -3 -6 -7 -6h-351v-28c0 -67 3 -138 48 -188c39 -45 103 -64 186 -64h170c4 0 7 -3 7 -7v-28c0 -4 -3 -7 -7 -7h-173c-97 0 -170 22 -217 73c-59 63 -62 152 -62 236v61
c0 86 3 175 62 237c47 51 120 74 217 74h173c4 0 7 -3 7 -7v-29c0 -3 -3 -7 -7 -7zM203 904h233c4 0 7 -4 7 -7v-24c0 -4 -3 -7 -7 -7h-233c-4 0 -7 3 -7 7v24c0 3 3 7 7 7z" />
    <glyph glyph-name="Emacron.2" unicode="&#xe06c;" horiz-adv-x="623" 
d="M85 681h497c4 0 7 -3 7 -7v-29c0 -3 -3 -7 -7 -7h-456v-331h405c3 0 7 -4 7 -7v-29c0 -4 -4 -7 -7 -7h-405v-222h456c4 0 7 -3 7 -7v-28c0 -4 -3 -7 -7 -7h-497c-4 0 -7 3 -7 7v667c0 4 3 7 7 7zM215 904h233c4 0 7 -4 7 -7v-24c0 -4 -3 -7 -7 -7h-233c-4 0 -7 3 -7 7v24
c0 3 3 7 7 7z" />
    <glyph glyph-name="Emacron.3" unicode="&#xe06d;" horiz-adv-x="719" 
d="M103 376h522c-5 152 -102 271 -254 271c-160 0 -258 -115 -268 -271zM50 349c0 91 26 177 89 246c53 57 130 95 231 95c104 0 185 -44 238 -114c37 -50 59 -111 65 -186c1 -15 2 -29 1 -45c-1 -9 -4 -10 -10 -10h-561c2 -81 25 -158 77 -213c52 -57 124 -89 211 -89
c84 0 163 23 232 71c5 4 9 3 11 -1l13 -28c2 -5 1 -7 -3 -10c-76 -49 -152 -74 -254 -74c-108 0 -191 36 -251 101c-60 66 -89 159 -89 257zM257 904h233c4 0 7 -4 7 -7v-24c0 -4 -3 -7 -7 -7h-233c-4 0 -7 3 -7 7v24c0 3 3 7 7 7z" />
    <glyph glyph-name="Eogonek" unicode="&#x118;" horiz-adv-x="587" 
d="M415 -111c0 46 40 87 80 111h-410c-4 0 -7 3 -7 7v667c0 4 3 7 7 7h461c4 0 7 -3 7 -7v-29c0 -3 -3 -7 -7 -7h-420v-276h369c3 0 7 -4 7 -7v-29c0 -4 -4 -7 -7 -7h-369v-277h420c4 0 7 -3 7 -7v-28c0 -4 -3 -7 -7 -7h-20c-35 -21 -76 -58 -76 -100c0 -29 20 -43 48 -43
s42 9 50 9c4 0 5 -2 5 -5v-17c0 -5 -2 -6 -5 -8c-13 -6 -37 -11 -58 -11c-42 0 -75 19 -75 64z" />
    <glyph glyph-name="Eogonek.1" unicode="&#xe06e;" horiz-adv-x="562" 
d="M390 -111c0 46 40 87 80 111h-122c-97 0 -170 22 -217 73c-59 63 -62 152 -62 236v61c0 86 3 175 62 237c47 51 120 74 217 74h173c4 0 7 -3 7 -7v-29c0 -3 -3 -7 -7 -7h-170c-83 0 -147 -19 -186 -63c-45 -50 -48 -122 -48 -189v-22h351c4 0 7 -3 7 -7v-29
c0 -3 -3 -6 -7 -6h-351v-28c0 -67 3 -138 48 -188c39 -45 103 -64 186 -64h170c4 0 7 -3 7 -7v-28c0 -4 -3 -7 -7 -7h-20c-35 -21 -76 -58 -76 -100c0 -29 20 -43 48 -43s42 9 50 9c4 0 5 -2 5 -5v-17c0 -5 -2 -6 -5 -8c-13 -6 -37 -11 -58 -11c-42 0 -75 19 -75 64z" />
    <glyph glyph-name="Eogonek.2" unicode="&#xe06f;" horiz-adv-x="623" 
d="M451 -111c0 46 40 87 80 111h-446c-4 0 -7 3 -7 7v667c0 4 3 7 7 7h497c4 0 7 -3 7 -7v-29c0 -3 -3 -7 -7 -7h-456v-331h405c3 0 7 -4 7 -7v-29c0 -4 -4 -7 -7 -7h-405v-222h456c4 0 7 -3 7 -7v-28c0 -4 -3 -7 -7 -7h-20c-35 -21 -76 -58 -76 -100c0 -29 20 -43 48 -43
s42 9 50 9c4 0 5 -2 5 -5v-17c0 -5 -2 -6 -5 -8c-13 -6 -37 -11 -58 -11c-42 0 -75 19 -75 64z" />
    <glyph glyph-name="Eogonek.3" unicode="&#xe070;" horiz-adv-x="719" 
d="M490 -70c0 30 17 58 40 80c-42 -12 -88 -19 -140 -19c-108 0 -191 36 -251 101c-60 66 -89 159 -89 257c0 91 26 177 89 246c53 57 130 95 231 95c104 0 185 -44 238 -114c37 -50 59 -111 65 -186c1 -15 2 -29 1 -45c-1 -9 -4 -10 -10 -10h-561c2 -81 25 -158 77 -213
c52 -57 124 -89 211 -89c84 0 163 23 232 71c5 4 9 3 11 -1l13 -28c2 -5 1 -7 -3 -10c-18 -11 -35 -22 -53 -30c-32 -22 -66 -56 -66 -94c0 -29 20 -43 48 -43s42 9 50 9c4 0 5 -2 5 -5v-17c0 -5 -2 -6 -5 -8c-13 -6 -37 -11 -58 -11c-42 0 -75 19 -75 64zM103 376h522
c-5 152 -102 271 -254 271c-160 0 -258 -115 -268 -271z" />
    <glyph glyph-name="Esmall" unicode="&#xf765;" horiz-adv-x="478" 
d="M83 544h370c3 0 7 -3 7 -7v-25c0 -3 -4 -7 -7 -7h-333v-214h293c3 0 6 -3 6 -6v-25c0 -4 -3 -7 -6 -7h-293v-215h333c3 0 7 -3 7 -7v-24c0 -4 -4 -7 -7 -7h-370c-4 0 -7 3 -7 7v530c0 4 3 7 7 7z" />
    <glyph glyph-name="Esmall.1" unicode="&#xe071;" horiz-adv-x="476" 
d="M451 505h-169c-75 0 -123 -19 -151 -57c-19 -29 -29 -67 -29 -118v-37h309c4 0 7 -3 7 -6v-25c0 -4 -3 -7 -7 -7h-309v-40c0 -51 10 -89 29 -117c28 -39 76 -59 151 -59h169c4 0 7 -4 7 -7v-25c0 -4 -3 -7 -7 -7h-168c-87 0 -150 24 -187 75c-25 37 -38 87 -38 151v92
c0 65 13 116 40 152c36 51 99 74 185 74h168c4 0 7 -3 7 -7v-25c0 -3 -3 -7 -7 -7z" />
    <glyph glyph-name="Esmall.2" unicode="&#xe072;" horiz-adv-x="508" 
d="M83 544h400c3 0 7 -3 7 -7v-25c0 -3 -4 -7 -7 -7h-363v-253h319c3 0 6 -3 6 -7v-25c0 -3 -3 -7 -6 -7h-319v-175h363c3 0 7 -3 7 -7v-24c0 -4 -4 -7 -7 -7h-400c-4 0 -7 3 -7 7v530c0 4 3 7 7 7z" />
    <glyph glyph-name="Esmall.3" unicode="&#xe073;" horiz-adv-x="596" 
d="M305 552c77 0 141 -33 180 -77c45 -49 65 -118 64 -201c-1 -6 -4 -9 -10 -9h-443c3 -59 20 -114 50 -153c40 -51 102 -80 175 -80c75 0 135 24 181 57c5 3 9 4 12 -1l11 -24c2 -5 1 -8 -3 -11c-47 -30 -115 -61 -202 -61c-91 0 -161 33 -209 91c-40 49 -63 115 -63 196
c0 76 22 141 66 192c43 49 106 81 191 81zM96 301h407c-2 60 -20 113 -52 148c-33 35 -86 62 -145 62c-71 0 -123 -27 -159 -71c-30 -37 -47 -88 -51 -139z" />
    <glyph glyph-name="Esmallacute" unicode="&#xe074;" horiz-adv-x="478" 
d="M83 544h370c3 0 7 -3 7 -7v-25c0 -3 -4 -7 -7 -7h-333v-214h293c3 0 6 -3 6 -6v-25c0 -4 -3 -7 -6 -7h-293v-215h333c3 0 7 -3 7 -7v-24c0 -4 -4 -7 -7 -7h-370c-4 0 -7 3 -7 7v530c0 4 3 7 7 7zM315 825h31c8 0 7 -7 4 -12l-106 -174c-3 -5 -6 -7 -11 -7h-21
c-9 0 -6 7 -3 13l97 173c2 4 4 7 9 7z" />
    <glyph glyph-name="Esmallacute.1" unicode="&#xe075;" horiz-adv-x="476" 
d="M451 505h-169c-75 0 -123 -19 -151 -57c-19 -29 -29 -67 -29 -118v-37h309c4 0 7 -3 7 -6v-25c0 -4 -3 -7 -7 -7h-309v-40c0 -51 10 -89 29 -117c28 -39 76 -59 151 -59h169c4 0 7 -4 7 -7v-25c0 -4 -3 -7 -7 -7h-168c-87 0 -150 24 -187 75c-25 37 -38 87 -38 151v92
c0 65 13 116 40 152c36 51 99 74 185 74h168c4 0 7 -3 7 -7v-25c0 -3 -3 -7 -7 -7zM338 825h31c8 0 7 -7 4 -12l-106 -174c-3 -5 -6 -7 -11 -7h-21c-9 0 -6 7 -3 13l97 173c2 4 4 7 9 7z" />
    <glyph glyph-name="Esmallacute.2" unicode="&#xe076;" horiz-adv-x="508" 
d="M83 544h400c3 0 7 -3 7 -7v-25c0 -3 -4 -7 -7 -7h-363v-253h319c3 0 6 -3 6 -7v-25c0 -3 -3 -7 -6 -7h-319v-175h363c3 0 7 -3 7 -7v-24c0 -4 -4 -7 -7 -7h-400c-4 0 -7 3 -7 7v530c0 4 3 7 7 7zM335 825h31c8 0 7 -7 4 -12l-106 -174c-3 -5 -6 -7 -11 -7h-21
c-9 0 -6 7 -3 13l97 173c2 4 4 7 9 7z" />
    <glyph glyph-name="Esmallacute.3" unicode="&#xe077;" horiz-adv-x="596" 
d="M305 552c77 0 141 -33 180 -77c45 -49 65 -118 64 -201c-1 -6 -4 -9 -10 -9h-443c3 -59 20 -114 50 -153c40 -51 102 -80 175 -80c75 0 135 24 181 57c5 3 9 4 12 -1l11 -24c2 -5 1 -8 -3 -11c-47 -30 -115 -61 -202 -61c-91 0 -161 33 -209 91c-40 49 -63 115 -63 196
c0 76 22 141 66 192c43 49 106 81 191 81zM96 301h407c-2 60 -20 113 -52 148c-33 35 -86 62 -145 62c-71 0 -123 -27 -159 -71c-30 -37 -47 -88 -51 -139zM342 825h31c8 0 7 -7 4 -12l-106 -174c-3 -5 -6 -7 -11 -7h-21c-9 0 -6 7 -3 13l97 173c2 4 4 7 9 7z" />
    <glyph glyph-name="Esmallcaron" unicode="&#xe078;" horiz-adv-x="478" 
d="M83 544h370c3 0 7 -3 7 -7v-25c0 -3 -4 -7 -7 -7h-333v-214h293c3 0 6 -3 6 -6v-25c0 -4 -3 -7 -6 -7h-293v-215h333c3 0 7 -3 7 -7v-24c0 -4 -4 -7 -7 -7h-370c-4 0 -7 3 -7 7v530c0 4 3 7 7 7zM276 632h-16c-5 0 -7 3 -10 6l-162 177c-4 5 -3 10 4 10h26
c6 0 8 -2 12 -6l138 -149l137 149c4 4 7 6 13 6h26c6 0 7 -5 3 -10l-161 -177c-3 -3 -5 -6 -10 -6z" />
    <glyph glyph-name="Esmallcaron.1" unicode="&#xe079;" horiz-adv-x="476" 
d="M451 505h-169c-75 0 -123 -19 -151 -57c-19 -29 -29 -67 -29 -118v-37h309c4 0 7 -3 7 -6v-25c0 -4 -3 -7 -7 -7h-309v-40c0 -51 10 -89 29 -117c28 -39 76 -59 151 -59h169c4 0 7 -4 7 -7v-25c0 -4 -3 -7 -7 -7h-168c-87 0 -150 24 -187 75c-25 37 -38 87 -38 151v92
c0 65 13 116 40 152c36 51 99 74 185 74h168c4 0 7 -3 7 -7v-25c0 -3 -3 -7 -7 -7zM287 632h-16c-5 0 -7 3 -10 6l-162 177c-4 5 -3 10 4 10h26c6 0 8 -2 12 -6l138 -149l137 149c4 4 7 6 13 6h26c6 0 7 -5 3 -10l-161 -177c-3 -3 -5 -6 -10 -6z" />
    <glyph glyph-name="Esmallcaron.2" unicode="&#xe07a;" horiz-adv-x="508" 
d="M83 544h400c3 0 7 -3 7 -7v-25c0 -3 -4 -7 -7 -7h-363v-253h319c3 0 6 -3 6 -7v-25c0 -3 -3 -7 -6 -7h-319v-175h363c3 0 7 -3 7 -7v-24c0 -4 -4 -7 -7 -7h-400c-4 0 -7 3 -7 7v530c0 4 3 7 7 7zM293 632h-16c-5 0 -7 3 -10 6l-162 177c-4 5 -3 10 4 10h26
c6 0 8 -2 12 -6l138 -149l137 149c4 4 7 6 13 6h26c6 0 7 -5 3 -10l-161 -177c-3 -3 -5 -6 -10 -6z" />
    <glyph glyph-name="Esmallcaron.3" unicode="&#xe07b;" horiz-adv-x="596" 
d="M305 552c77 0 141 -33 180 -77c45 -49 65 -118 64 -201c-1 -6 -4 -9 -10 -9h-443c3 -59 20 -114 50 -153c40 -51 102 -80 175 -80c75 0 135 24 181 57c5 3 9 4 12 -1l11 -24c2 -5 1 -8 -3 -11c-47 -30 -115 -61 -202 -61c-91 0 -161 33 -209 91c-40 49 -63 115 -63 196
c0 76 22 141 66 192c43 49 106 81 191 81zM96 301h407c-2 60 -20 113 -52 148c-33 35 -86 62 -145 62c-71 0 -123 -27 -159 -71c-30 -37 -47 -88 -51 -139zM315 632h-16c-5 0 -7 3 -10 6l-162 177c-4 5 -3 10 4 10h26c6 0 8 -2 12 -6l138 -149l137 149c4 4 7 6 13 6h26
c6 0 7 -5 3 -10l-161 -177c-3 -3 -5 -6 -10 -6z" />
    <glyph glyph-name="Esmallcircumflex" unicode="&#xe07c;" horiz-adv-x="478" 
d="M83 544h370c3 0 7 -3 7 -7v-25c0 -3 -4 -7 -7 -7h-333v-214h293c3 0 6 -3 6 -6v-25c0 -4 -3 -7 -6 -7h-293v-215h333c3 0 7 -3 7 -7v-24c0 -4 -4 -7 -7 -7h-370c-4 0 -7 3 -7 7v530c0 4 3 7 7 7zM255 825h16c5 0 7 -2 10 -6l161 -178c4 -5 3 -9 -3 -9h-26
c-6 0 -9 1 -13 6l-137 150l-138 -150c-4 -5 -6 -6 -12 -6h-26c-7 0 -8 4 -4 9l162 178c3 4 5 6 10 6z" />
    <glyph glyph-name="Esmallcircumflex.1" unicode="&#xe07d;" horiz-adv-x="476" 
d="M451 505h-169c-75 0 -123 -19 -151 -57c-19 -29 -29 -67 -29 -118v-37h309c4 0 7 -3 7 -6v-25c0 -4 -3 -7 -7 -7h-309v-40c0 -51 10 -89 29 -117c28 -39 76 -59 151 -59h169c4 0 7 -4 7 -7v-25c0 -4 -3 -7 -7 -7h-168c-87 0 -150 24 -187 75c-25 37 -38 87 -38 151v92
c0 65 13 116 40 152c36 51 99 74 185 74h168c4 0 7 -3 7 -7v-25c0 -3 -3 -7 -7 -7zM270 825h16c5 0 7 -2 10 -6l161 -178c4 -5 3 -9 -3 -9h-26c-6 0 -9 1 -13 6l-137 150l-138 -150c-4 -5 -6 -6 -12 -6h-26c-7 0 -8 4 -4 9l162 178c3 4 5 6 10 6z" />
    <glyph glyph-name="Esmallcircumflex.2" unicode="&#xe07e;" horiz-adv-x="508" 
d="M83 544h400c3 0 7 -3 7 -7v-25c0 -3 -4 -7 -7 -7h-363v-253h319c3 0 6 -3 6 -7v-25c0 -3 -3 -7 -6 -7h-319v-175h363c3 0 7 -3 7 -7v-24c0 -4 -4 -7 -7 -7h-400c-4 0 -7 3 -7 7v530c0 4 3 7 7 7zM273 825h16c5 0 7 -2 10 -6l161 -178c4 -5 3 -9 -3 -9h-26
c-6 0 -9 1 -13 6l-137 150l-138 -150c-4 -5 -6 -6 -12 -6h-26c-7 0 -8 4 -4 9l162 178c3 4 5 6 10 6z" />
    <glyph glyph-name="Esmallcircumflex.3" unicode="&#xe07f;" horiz-adv-x="596" 
d="M305 552c77 0 141 -33 180 -77c45 -49 65 -118 64 -201c-1 -6 -4 -9 -10 -9h-443c3 -59 20 -114 50 -153c40 -51 102 -80 175 -80c75 0 135 24 181 57c5 3 9 4 12 -1l11 -24c2 -5 1 -8 -3 -11c-47 -30 -115 -61 -202 -61c-91 0 -161 33 -209 91c-40 49 -63 115 -63 196
c0 76 22 141 66 192c43 49 106 81 191 81zM96 301h407c-2 60 -20 113 -52 148c-33 35 -86 62 -145 62c-71 0 -123 -27 -159 -71c-30 -37 -47 -88 -51 -139zM296 825h16c5 0 7 -2 10 -6l161 -178c4 -5 3 -9 -3 -9h-26c-6 0 -9 1 -13 6l-137 150l-138 -150c-4 -5 -6 -6 -12 -6
h-26c-7 0 -8 4 -4 9l162 178c3 4 5 6 10 6z" />
    <glyph glyph-name="Esmalldieresis" unicode="&#xe080;" horiz-adv-x="478" 
d="M83 544h370c3 0 7 -3 7 -7v-25c0 -3 -4 -7 -7 -7h-333v-214h293c3 0 6 -3 6 -6v-25c0 -4 -3 -7 -6 -7h-293v-215h333c3 0 7 -3 7 -7v-24c0 -4 -4 -7 -7 -7h-370c-4 0 -7 3 -7 7v530c0 4 3 7 7 7zM184 702c-16 0 -28 13 -28 29c0 15 12 27 28 27c15 0 27 -12 27 -27
c0 -16 -12 -29 -27 -29zM350 702c-16 0 -28 13 -28 29c0 15 12 27 28 27c15 0 27 -12 27 -27c0 -16 -12 -29 -27 -29z" />
    <glyph glyph-name="Esmalldieresis.1" unicode="&#xe081;" horiz-adv-x="476" 
d="M451 505h-169c-75 0 -123 -19 -151 -57c-19 -29 -29 -67 -29 -118v-37h309c4 0 7 -3 7 -6v-25c0 -4 -3 -7 -7 -7h-309v-40c0 -51 10 -89 29 -117c28 -39 76 -59 151 -59h169c4 0 7 -4 7 -7v-25c0 -4 -3 -7 -7 -7h-168c-87 0 -150 24 -187 75c-25 37 -38 87 -38 151v92
c0 65 13 116 40 152c36 51 99 74 185 74h168c4 0 7 -3 7 -7v-25c0 -3 -3 -7 -7 -7zM208 702c-16 0 -28 13 -28 29c0 15 12 27 28 27c15 0 27 -12 27 -27c0 -16 -12 -29 -27 -29zM374 702c-16 0 -28 13 -28 29c0 15 12 27 28 27c15 0 27 -12 27 -27c0 -16 -12 -29 -27 -29z
" />
    <glyph glyph-name="Esmalldieresis.2" unicode="&#xe082;" horiz-adv-x="508" 
d="M83 544h400c3 0 7 -3 7 -7v-25c0 -3 -4 -7 -7 -7h-363v-253h319c3 0 6 -3 6 -7v-25c0 -3 -3 -7 -6 -7h-319v-175h363c3 0 7 -3 7 -7v-24c0 -4 -4 -7 -7 -7h-400c-4 0 -7 3 -7 7v530c0 4 3 7 7 7zM199 702c-16 0 -28 13 -28 29c0 15 12 27 28 27c15 0 27 -12 27 -27
c0 -16 -12 -29 -27 -29zM365 702c-16 0 -28 13 -28 29c0 15 12 27 28 27c15 0 27 -12 27 -27c0 -16 -12 -29 -27 -29z" />
    <glyph glyph-name="Esmalldieresis.3" unicode="&#xe083;" horiz-adv-x="596" 
d="M305 552c77 0 141 -33 180 -77c45 -49 65 -118 64 -201c-1 -6 -4 -9 -10 -9h-443c3 -59 20 -114 50 -153c40 -51 102 -80 175 -80c75 0 135 24 181 57c5 3 9 4 12 -1l11 -24c2 -5 1 -8 -3 -11c-47 -30 -115 -61 -202 -61c-91 0 -161 33 -209 91c-40 49 -63 115 -63 196
c0 76 22 141 66 192c43 49 106 81 191 81zM96 301h407c-2 60 -20 113 -52 148c-33 35 -86 62 -145 62c-71 0 -123 -27 -159 -71c-30 -37 -47 -88 -51 -139zM218 702c-16 0 -28 13 -28 29c0 15 12 27 28 27c15 0 27 -12 27 -27c0 -16 -12 -29 -27 -29zM384 702
c-16 0 -28 13 -28 29c0 15 12 27 28 27c15 0 27 -12 27 -27c0 -16 -12 -29 -27 -29z" />
    <glyph glyph-name="Esmalldotaccent" unicode="&#xe084;" horiz-adv-x="478" 
d="M83 544h370c3 0 7 -3 7 -7v-25c0 -3 -4 -7 -7 -7h-333v-214h293c3 0 6 -3 6 -6v-25c0 -4 -3 -7 -6 -7h-293v-215h333c3 0 7 -3 7 -7v-24c0 -4 -4 -7 -7 -7h-370c-4 0 -7 3 -7 7v530c0 4 3 7 7 7zM275 703c-16 0 -28 12 -28 28c0 15 12 27 28 27c15 0 27 -12 27 -27
c0 -16 -12 -28 -27 -28z" />
    <glyph glyph-name="Esmalldotaccent.1" unicode="&#xe085;" horiz-adv-x="476" 
d="M451 505h-169c-75 0 -123 -19 -151 -57c-19 -29 -29 -67 -29 -118v-37h309c4 0 7 -3 7 -6v-25c0 -4 -3 -7 -7 -7h-309v-40c0 -51 10 -89 29 -117c28 -39 76 -59 151 -59h169c4 0 7 -4 7 -7v-25c0 -4 -3 -7 -7 -7h-168c-87 0 -150 24 -187 75c-25 37 -38 87 -38 151v92
c0 65 13 116 40 152c36 51 99 74 185 74h168c4 0 7 -3 7 -7v-25c0 -3 -3 -7 -7 -7zM291 703c-16 0 -28 12 -28 28c0 15 12 27 28 27c15 0 27 -12 27 -27c0 -16 -12 -28 -27 -28z" />
    <glyph glyph-name="Esmalldotaccent.2" unicode="&#xe086;" horiz-adv-x="508" 
d="M83 544h400c3 0 7 -3 7 -7v-25c0 -3 -4 -7 -7 -7h-363v-253h319c3 0 6 -3 6 -7v-25c0 -3 -3 -7 -6 -7h-319v-175h363c3 0 7 -3 7 -7v-24c0 -4 -4 -7 -7 -7h-400c-4 0 -7 3 -7 7v530c0 4 3 7 7 7zM285 703c-16 0 -28 12 -28 28c0 15 12 27 28 27c15 0 27 -12 27 -27
c0 -16 -12 -28 -27 -28z" />
    <glyph glyph-name="Esmalldotaccent.3" unicode="&#xe087;" horiz-adv-x="596" 
d="M305 552c77 0 141 -33 180 -77c45 -49 65 -118 64 -201c-1 -6 -4 -9 -10 -9h-443c3 -59 20 -114 50 -153c40 -51 102 -80 175 -80c75 0 135 24 181 57c5 3 9 4 12 -1l11 -24c2 -5 1 -8 -3 -11c-47 -30 -115 -61 -202 -61c-91 0 -161 33 -209 91c-40 49 -63 115 -63 196
c0 76 22 141 66 192c43 49 106 81 191 81zM96 301h407c-2 60 -20 113 -52 148c-33 35 -86 62 -145 62c-71 0 -123 -27 -159 -71c-30 -37 -47 -88 -51 -139zM300 703c-16 0 -28 12 -28 28c0 15 12 27 28 27c15 0 27 -12 27 -27c0 -16 -12 -28 -27 -28z" />
    <glyph glyph-name="Esmallgrave" unicode="&#xe088;" horiz-adv-x="478" 
d="M83 544h370c3 0 7 -3 7 -7v-25c0 -3 -4 -7 -7 -7h-333v-214h293c3 0 6 -3 6 -6v-25c0 -4 -3 -7 -6 -7h-293v-215h333c3 0 7 -3 7 -7v-24c0 -4 -4 -7 -7 -7h-370c-4 0 -7 3 -7 7v530c0 4 3 7 7 7zM205 825h31c5 0 7 -3 9 -7l97 -173c2 -4 6 -13 -3 -13h-22
c-5 0 -7 2 -10 7l-106 174c-3 5 -3 11 4 12z" />
    <glyph glyph-name="Esmallgrave.1" unicode="&#xe089;" horiz-adv-x="476" 
d="M451 505h-169c-75 0 -123 -19 -151 -57c-19 -29 -29 -67 -29 -118v-37h309c4 0 7 -3 7 -6v-25c0 -4 -3 -7 -7 -7h-309v-40c0 -51 10 -89 29 -117c28 -39 76 -59 151 -59h169c4 0 7 -4 7 -7v-25c0 -4 -3 -7 -7 -7h-168c-87 0 -150 24 -187 75c-25 37 -38 87 -38 151v92
c0 65 13 116 40 152c36 51 99 74 185 74h168c4 0 7 -3 7 -7v-25c0 -3 -3 -7 -7 -7zM216 825h31c5 0 7 -3 9 -7l97 -173c2 -4 6 -13 -3 -13h-22c-5 0 -7 2 -10 7l-106 174c-3 5 -3 11 4 12z" />
    <glyph glyph-name="Esmallgrave.2" unicode="&#xe08a;" horiz-adv-x="508" 
d="M83 544h400c3 0 7 -3 7 -7v-25c0 -3 -4 -7 -7 -7h-363v-253h319c3 0 6 -3 6 -7v-25c0 -3 -3 -7 -6 -7h-319v-175h363c3 0 7 -3 7 -7v-24c0 -4 -4 -7 -7 -7h-400c-4 0 -7 3 -7 7v530c0 4 3 7 7 7zM220 825h31c5 0 7 -3 9 -7l97 -173c2 -4 6 -13 -3 -13h-22
c-5 0 -7 2 -10 7l-106 174c-3 5 -3 11 4 12z" />
    <glyph glyph-name="Esmallgrave.3" unicode="&#xe08b;" horiz-adv-x="596" 
d="M305 552c77 0 141 -33 180 -77c45 -49 65 -118 64 -201c-1 -6 -4 -9 -10 -9h-443c3 -59 20 -114 50 -153c40 -51 102 -80 175 -80c75 0 135 24 181 57c5 3 9 4 12 -1l11 -24c2 -5 1 -8 -3 -11c-47 -30 -115 -61 -202 -61c-91 0 -161 33 -209 91c-40 49 -63 115 -63 196
c0 76 22 141 66 192c43 49 106 81 191 81zM96 301h407c-2 60 -20 113 -52 148c-33 35 -86 62 -145 62c-71 0 -123 -27 -159 -71c-30 -37 -47 -88 -51 -139zM235 825h31c5 0 7 -3 9 -7l97 -173c2 -4 6 -13 -3 -13h-22c-5 0 -7 2 -10 7l-106 174c-3 5 -3 11 4 12z" />
    <glyph glyph-name="Esmallmacron" unicode="&#xe08c;" horiz-adv-x="478" 
d="M83 544h370c3 0 7 -3 7 -7v-25c0 -3 -4 -7 -7 -7h-333v-214h293c3 0 6 -3 6 -6v-25c0 -4 -3 -7 -6 -7h-293v-215h333c3 0 7 -3 7 -7v-24c0 -4 -4 -7 -7 -7h-370c-4 0 -7 3 -7 7v530c0 4 3 7 7 7zM152 741h233c4 0 7 -4 7 -7v-24c0 -4 -3 -7 -7 -7h-233c-4 0 -7 3 -7 7v24
c0 3 3 7 7 7z" />
    <glyph glyph-name="Esmallmacron.1" unicode="&#xe08d;" horiz-adv-x="476" 
d="M451 505h-169c-75 0 -123 -19 -151 -57c-19 -29 -29 -67 -29 -118v-37h309c4 0 7 -3 7 -6v-25c0 -4 -3 -7 -7 -7h-309v-40c0 -51 10 -89 29 -117c28 -39 76 -59 151 -59h169c4 0 7 -4 7 -7v-25c0 -4 -3 -7 -7 -7h-168c-87 0 -150 24 -187 75c-25 37 -38 87 -38 151v92
c0 65 13 116 40 152c36 51 99 74 185 74h168c4 0 7 -3 7 -7v-25c0 -3 -3 -7 -7 -7zM165 741h233c4 0 7 -4 7 -7v-24c0 -4 -3 -7 -7 -7h-233c-4 0 -7 3 -7 7v24c0 3 3 7 7 7z" />
    <glyph glyph-name="Esmallmacron.2" unicode="&#xe08e;" horiz-adv-x="508" 
d="M83 544h400c3 0 7 -3 7 -7v-25c0 -3 -4 -7 -7 -7h-363v-253h319c3 0 6 -3 6 -7v-25c0 -3 -3 -7 -6 -7h-319v-175h363c3 0 7 -3 7 -7v-24c0 -4 -4 -7 -7 -7h-400c-4 0 -7 3 -7 7v530c0 4 3 7 7 7zM167 741h233c4 0 7 -4 7 -7v-24c0 -4 -3 -7 -7 -7h-233c-4 0 -7 3 -7 7v24
c0 3 3 7 7 7z" />
    <glyph glyph-name="Esmallmacron.3" unicode="&#xe08f;" horiz-adv-x="596" 
d="M305 552c77 0 141 -33 180 -77c45 -49 65 -118 64 -201c-1 -6 -4 -9 -10 -9h-443c3 -59 20 -114 50 -153c40 -51 102 -80 175 -80c75 0 135 24 181 57c5 3 9 4 12 -1l11 -24c2 -5 1 -8 -3 -11c-47 -30 -115 -61 -202 -61c-91 0 -161 33 -209 91c-40 49 -63 115 -63 196
c0 76 22 141 66 192c43 49 106 81 191 81zM96 301h407c-2 60 -20 113 -52 148c-33 35 -86 62 -145 62c-71 0 -123 -27 -159 -71c-30 -37 -47 -88 -51 -139zM195 741h233c4 0 7 -4 7 -7v-24c0 -4 -3 -7 -7 -7h-233c-4 0 -7 3 -7 7v24c0 3 3 7 7 7z" />
    <glyph glyph-name="Esmallogonek" unicode="&#xe090;" horiz-adv-x="478" 
d="M321 -111c0 46 40 87 80 111h-318c-4 0 -7 3 -7 7v530c0 4 3 7 7 7h370c3 0 7 -3 7 -7v-25c0 -3 -4 -7 -7 -7h-333v-214h293c3 0 6 -3 6 -6v-25c0 -4 -3 -7 -6 -7h-293v-215h333c3 0 7 -3 7 -7v-24c0 -4 -4 -7 -7 -7h-21c-35 -21 -76 -58 -76 -100c0 -29 20 -43 48 -43
s42 9 50 9c4 0 5 -2 5 -5v-17c0 -5 -2 -6 -5 -8c-13 -6 -37 -11 -58 -11c-42 0 -75 19 -75 64z" />
    <glyph glyph-name="Esmallogonek.1" unicode="&#xe091;" horiz-adv-x="476" 
d="M320 -111c0 46 40 87 80 111h-117c-87 0 -150 24 -187 75c-25 37 -38 87 -38 151v92c0 65 13 116 40 152c36 51 99 74 185 74h168c4 0 7 -3 7 -7v-25c0 -3 -3 -7 -7 -7h-169c-75 0 -123 -19 -151 -57c-19 -29 -29 -67 -29 -118v-37h309c4 0 7 -3 7 -6v-25
c0 -4 -3 -7 -7 -7h-309v-40c0 -51 10 -89 29 -117c28 -39 76 -59 151 -59h169c4 0 7 -4 7 -7v-25c0 -4 -3 -7 -7 -7h-20c-35 -21 -76 -58 -76 -100c0 -29 20 -43 48 -43s42 9 50 9c4 0 5 -2 5 -5v-17c0 -5 -2 -6 -5 -8c-13 -6 -37 -11 -58 -11c-42 0 -75 19 -75 64z" />
    <glyph glyph-name="Esmallogonek.2" unicode="&#xe092;" horiz-adv-x="508" 
d="M351 -111c0 46 40 87 80 111h-348c-4 0 -7 3 -7 7v530c0 4 3 7 7 7h400c3 0 7 -3 7 -7v-25c0 -3 -4 -7 -7 -7h-363v-253h319c3 0 6 -3 6 -7v-25c0 -3 -3 -7 -6 -7h-319v-175h363c3 0 7 -3 7 -7v-24c0 -4 -4 -7 -7 -7h-21c-35 -21 -76 -58 -76 -100c0 -29 20 -43 48 -43
s42 9 50 9c4 0 5 -2 5 -5v-17c0 -5 -2 -6 -5 -8c-13 -6 -37 -11 -58 -11c-42 0 -75 19 -75 64z" />
    <glyph glyph-name="Esmallogonek.3" unicode="&#xe093;" horiz-adv-x="596" 
d="M365 -84c0 34 21 65 49 88c-28 -7 -60 -12 -94 -12c-91 0 -161 33 -209 91c-40 49 -63 115 -63 196c0 76 22 141 66 192c43 49 106 81 191 81c77 0 141 -33 180 -77c45 -49 65 -118 64 -201c-1 -6 -4 -9 -10 -9h-443c3 -59 20 -114 50 -153c40 -51 102 -80 175 -80
c75 0 135 24 181 57c5 3 9 4 12 -1l11 -24c2 -5 1 -8 -3 -11c-13 -9 -28 -17 -44 -25c-35 -20 -78 -58 -78 -101c0 -29 20 -43 48 -43s42 9 50 9c4 0 5 -2 5 -5v-17c0 -5 -2 -6 -5 -8c-13 -6 -37 -11 -58 -11c-42 0 -75 19 -75 64zM96 301h407c-2 60 -20 113 -52 148
c-33 35 -86 62 -145 62c-71 0 -123 -27 -159 -71c-30 -37 -47 -88 -51 -139z" />
    <glyph glyph-name="Eth" unicode="&#xd0;" horiz-adv-x="739" 
d="M688 340c0 -136 -56 -236 -155 -291c-66 -36 -143 -49 -224 -49h-221c-4 0 -7 3 -7 7v313h-93c-3 0 -7 3 -7 7v26c0 4 4 7 7 7h93v314c0 4 3 7 7 7h237c118 0 217 -33 285 -109c49 -56 78 -132 78 -232zM129 640v-280h179c3 0 6 -3 6 -7v-26c0 -4 -3 -7 -6 -7h-179v-279
h176c73 0 142 12 197 42c87 46 137 133 137 257c0 89 -25 156 -67 205c-55 63 -145 95 -255 95h-188z" />
    <glyph glyph-name="Euro" unicode="&#x20ac;" 
d="M-2 421h62c16 66 52 126 100 172c61 60 145 97 235 97c99 0 163 -29 210 -57c5 -3 8 -7 5 -12l-12 -28c-3 -5 -8 -4 -12 -2c-39 25 -99 56 -191 56c-76 0 -145 -31 -197 -81c-41 -39 -71 -90 -85 -145h398c4 0 7 -4 7 -7v-15c0 -4 -3 -7 -7 -7h-407c-3 -17 -4 -34 -4 -51
c0 -19 1 -36 3 -53h350c4 0 7 -3 7 -7v-15c0 -3 -3 -7 -7 -7h-342c14 -61 45 -113 86 -150c53 -49 123 -76 199 -76c91 0 152 31 192 56c4 3 9 3 11 -2l13 -28c2 -4 1 -8 -4 -11c-48 -29 -112 -58 -212 -58c-89 0 -169 30 -231 85c-52 45 -90 108 -106 184h-61
c-4 0 -7 4 -7 7v15c0 4 3 7 7 7h57c-3 17 -4 34 -4 53c0 17 1 34 4 51h-57c-4 0 -7 3 -7 7v15c0 3 3 7 7 7z" />
    <glyph glyph-name="F" unicode="F" horiz-adv-x="552" 
d="M126 319v-312c0 -4 -3 -7 -7 -7h-34c-4 0 -7 3 -7 7v667c0 4 3 7 7 7h430c3 0 7 -3 7 -7v-29c0 -3 -4 -7 -7 -7h-389v-276h338c3 0 7 -4 7 -7v-29c0 -4 -4 -7 -7 -7h-338z" />
    <glyph glyph-name="F.1" unicode="&#xe094;" horiz-adv-x="538" 
d="M502 638h-151c-83 0 -147 -19 -186 -63c-45 -50 -48 -122 -48 -189v-22h332c3 0 7 -3 7 -7v-29c0 -3 -4 -6 -7 -6h-332v-315c0 -4 -4 -7 -7 -7h-35c-3 0 -6 3 -6 7v363c0 86 3 175 62 237c47 51 120 74 217 74h154c3 0 7 -3 7 -7v-29c0 -3 -4 -7 -7 -7z" />
    <glyph glyph-name="F.2" unicode="&#xe095;" horiz-adv-x="590" 
d="M126 264v-257c0 -4 -3 -7 -7 -7h-34c-4 0 -7 3 -7 7v667c0 4 3 7 7 7h468c3 0 7 -3 7 -7v-29c0 -3 -4 -7 -7 -7h-427v-331h374c3 0 7 -4 7 -7v-29c0 -4 -4 -7 -7 -7h-374z" />
    <glyph glyph-name="Fsmall" unicode="&#xf766;" horiz-adv-x="452" 
d="M120 253v-246c0 -4 -4 -7 -7 -7h-30c-4 0 -7 3 -7 7v530c0 4 3 7 7 7h343c4 0 7 -3 7 -7v-25c0 -3 -3 -7 -7 -7h-306v-214h263c4 0 7 -3 7 -6v-25c0 -4 -3 -7 -7 -7h-263z" />
    <glyph glyph-name="Fsmall.1" unicode="&#xe096;" horiz-adv-x="442" 
d="M425 505h-144c-64 0 -109 -13 -137 -42c-30 -29 -42 -75 -42 -139v-32h285c4 0 7 -3 7 -7v-25c0 -4 -3 -7 -7 -7h-285v-246c0 -4 -3 -7 -7 -7h-30c-3 0 -7 3 -7 7v289c0 71 4 141 53 192c38 39 96 56 172 56h142c4 0 7 -3 7 -7v-25c0 -3 -3 -7 -7 -7z" />
    <glyph glyph-name="Fsmall.2" unicode="&#xe097;" horiz-adv-x="482" 
d="M120 213v-206c0 -4 -4 -7 -7 -7h-30c-4 0 -7 3 -7 7v530c0 4 3 7 7 7h373c4 0 7 -3 7 -7v-25c0 -3 -3 -7 -7 -7h-336v-253h293c4 0 7 -3 7 -7v-25c0 -3 -3 -7 -7 -7h-293z" />
    <glyph glyph-name="G" unicode="G" horiz-adv-x="733" 
d="M401 690c99 0 164 -29 211 -57c5 -4 7 -7 5 -13l-13 -27c-3 -5 -7 -4 -12 -2c-40 24 -100 56 -191 56c-165 0 -301 -141 -301 -306c0 -191 136 -309 301 -309c87 0 168 33 216 78v170h-240c-3 0 -6 4 -6 7v29c0 4 3 7 6 7h277c4 0 7 -3 7 -7v-309c0 -4 -3 -7 -7 -7h-31
c-3 0 -6 3 -6 7v56c-49 -41 -127 -73 -218 -73c-188 0 -349 126 -349 351c0 189 157 349 351 349z" />
    <glyph glyph-name="G.2" unicode="&#xe098;" horiz-adv-x="789" 
d="M743 299c0 -103 -37 -184 -107 -239c-58 -46 -136 -70 -223 -70c-107 0 -204 36 -271 106c-57 59 -92 141 -92 245c0 98 39 184 102 245c65 65 158 104 260 104c107 0 176 -30 221 -59c4 -2 5 -5 4 -9l-15 -29c-1 -5 -5 -5 -9 -3c-40 25 -105 57 -200 57
c-88 0 -168 -34 -225 -91c-55 -54 -88 -129 -88 -215c0 -89 30 -161 79 -213c58 -62 142 -95 235 -95c67 0 131 16 181 51c54 38 92 98 98 180h-274c-4 0 -7 3 -7 6v29c0 4 3 7 7 7h317c4 0 7 -2 7 -7z" />
    <glyph glyph-name="Gbreve" unicode="&#x11e;" horiz-adv-x="733" 
d="M401 690c99 0 164 -29 211 -57c5 -4 7 -7 5 -13l-13 -27c-3 -5 -7 -4 -12 -2c-40 24 -100 56 -191 56c-165 0 -301 -141 -301 -306c0 -191 136 -309 301 -309c87 0 168 33 216 78v170h-240c-3 0 -6 4 -6 7v29c0 4 3 7 6 7h277c4 0 7 -3 7 -7v-309c0 -4 -3 -7 -7 -7h-31
c-3 0 -6 3 -6 7v56c-49 -41 -127 -73 -218 -73c-188 0 -349 126 -349 351c0 189 157 349 351 349zM370 844c54 0 84 32 87 79c0 5 3 8 8 8h15c6 0 9 -4 9 -8c0 -63 -45 -113 -119 -113c-75 0 -119 50 -119 113c0 4 3 8 9 8h15c4 0 7 -3 8 -8c3 -47 32 -79 87 -79z" />
    <glyph glyph-name="Gbreve.2" unicode="&#xe099;" horiz-adv-x="788" 
d="M743 299c0 -103 -37 -184 -107 -239c-58 -46 -136 -70 -223 -70c-107 0 -204 36 -271 106c-57 59 -92 141 -92 245c0 98 39 184 102 245c65 65 158 104 260 104c107 0 176 -30 221 -59c4 -2 5 -5 4 -9l-15 -29c-1 -5 -5 -5 -9 -3c-40 25 -105 57 -200 57
c-88 0 -168 -34 -225 -91c-55 -54 -88 -129 -88 -215c0 -89 30 -161 79 -213c58 -62 142 -95 235 -95c67 0 131 16 181 51c54 38 92 98 98 180h-274c-4 0 -7 3 -7 6v29c0 4 3 7 7 7h317c4 0 7 -2 7 -7zM404 844c54 0 84 32 87 79c0 5 3 8 8 8h15c6 0 9 -4 9 -8
c0 -63 -45 -113 -119 -113c-75 0 -119 50 -119 113c0 4 3 8 9 8h15c4 0 7 -3 8 -8c3 -47 32 -79 87 -79z" />
    <glyph glyph-name="Gcommaaccent" unicode="&#x122;" horiz-adv-x="733" 
d="M401 690c99 0 164 -29 211 -57c5 -4 7 -7 5 -13l-13 -27c-3 -5 -7 -4 -12 -2c-40 24 -100 56 -191 56c-165 0 -301 -141 -301 -306c0 -191 136 -309 301 -309c87 0 168 33 216 78v170h-240c-3 0 -6 4 -6 7v29c0 4 3 7 6 7h277c4 0 7 -3 7 -7v-309c0 -4 -3 -7 -7 -7h-31
c-3 0 -6 3 -6 7v56c-49 -41 -127 -73 -218 -73c-188 0 -349 126 -349 351c0 189 157 349 351 349zM431 -107c0 -31 -21 -64 -49 -78c-5 -2 -8 -1 -11 3l-4 7c-3 4 -1 7 2 10c10 9 19 17 19 29c0 20 -23 20 -23 45c0 17 12 29 30 29c24 0 36 -20 36 -45z" />
    <glyph glyph-name="Gcommaaccent.2" unicode="&#xe09a;" horiz-adv-x="788" 
d="M743 299c0 -103 -37 -184 -107 -239c-58 -46 -136 -70 -223 -70c-107 0 -204 36 -271 106c-57 59 -92 141 -92 245c0 98 39 184 102 245c65 65 158 104 260 104c107 0 176 -30 221 -59c4 -2 5 -5 4 -9l-15 -29c-1 -5 -5 -5 -9 -3c-40 25 -105 57 -200 57
c-88 0 -168 -34 -225 -91c-55 -54 -88 -129 -88 -215c0 -89 30 -161 79 -213c58 -62 142 -95 235 -95c67 0 131 16 181 51c54 38 92 98 98 180h-274c-4 0 -7 3 -7 6v29c0 4 3 7 7 7h317c4 0 7 -2 7 -7zM448 -107c0 -31 -21 -64 -49 -78c-5 -2 -8 -1 -11 3l-4 7
c-3 4 -1 7 2 10c10 9 19 17 19 29c0 20 -23 20 -23 45c0 17 12 29 30 29c24 0 36 -20 36 -45z" />
    <glyph glyph-name="Gsmall" unicode="&#xf767;" horiz-adv-x="612" 
d="M496 89v135h-188c-3 0 -7 3 -7 7v24c0 4 4 7 7 7h224c4 0 7 -3 7 -7v-248c0 -4 -3 -7 -7 -7h-29c-4 0 -7 3 -7 7v35c-36 -25 -95 -50 -168 -50c-76 0 -149 27 -201 78c-50 49 -79 120 -79 203c0 67 25 128 66 176c52 62 130 103 216 103c78 0 130 -21 171 -48
c5 -3 6 -7 4 -11l-12 -24c-2 -4 -6 -5 -10 -2c-43 29 -93 44 -154 44c-73 0 -140 -35 -183 -90c-33 -42 -53 -93 -53 -148c0 -70 24 -129 65 -171c44 -45 108 -69 173 -69c79 0 134 30 165 56z" />
    <glyph glyph-name="Gsmall.2" unicode="&#xe09b;" horiz-adv-x="646" 
d="M338 512c-71 1 -136 -27 -181 -75c-40 -42 -64 -100 -64 -164c0 -75 27 -135 72 -177c46 -42 107 -65 175 -65c57 0 108 17 146 45c43 32 69 78 71 133h-193c-4 0 -7 3 -7 7v25c0 3 3 6 7 6h233c3 0 7 -3 7 -7c0 -85 -29 -146 -84 -191c-48 -37 -112 -58 -182 -58
c-80 0 -154 26 -207 76c-51 47 -83 117 -83 206c0 75 29 142 75 191c53 54 129 88 215 88c80 0 136 -22 177 -48c5 -4 6 -7 4 -11l-12 -24c-2 -4 -5 -5 -10 -2c-43 29 -98 44 -159 45z" />
    <glyph glyph-name="Gsmallbreve" unicode="&#xe09c;" horiz-adv-x="612" 
d="M496 89v135h-188c-3 0 -7 3 -7 7v24c0 4 4 7 7 7h224c4 0 7 -3 7 -7v-248c0 -4 -3 -7 -7 -7h-29c-4 0 -7 3 -7 7v35c-36 -25 -95 -50 -168 -50c-76 0 -149 27 -201 78c-50 49 -79 120 -79 203c0 67 25 128 66 176c52 62 130 103 216 103c78 0 130 -21 171 -48
c5 -3 6 -7 4 -11l-12 -24c-2 -4 -6 -5 -10 -2c-43 29 -93 44 -154 44c-73 0 -140 -35 -183 -90c-33 -42 -53 -93 -53 -148c0 -70 24 -129 65 -171c44 -45 108 -69 173 -69c79 0 134 30 165 56zM328 687c54 0 84 32 87 79c0 5 3 8 8 8h15c6 0 9 -4 9 -8
c0 -63 -45 -113 -119 -113c-75 0 -119 50 -119 113c0 4 3 8 9 8h15c4 0 7 -3 8 -8c3 -47 32 -79 87 -79z" />
    <glyph glyph-name="Gsmallbreve.2" unicode="&#xe09d;" horiz-adv-x="645" 
d="M338 512c-71 1 -136 -27 -181 -75c-40 -42 -64 -100 -64 -164c0 -75 27 -135 72 -177c46 -42 107 -65 175 -65c57 0 108 17 146 45c43 32 69 78 71 133h-193c-4 0 -7 3 -7 7v25c0 3 3 6 7 6h233c3 0 7 -3 7 -7c0 -85 -29 -146 -84 -191c-48 -37 -112 -58 -182 -58
c-80 0 -154 26 -207 76c-51 47 -83 117 -83 206c0 75 29 142 75 191c53 54 129 88 215 88c80 0 136 -22 177 -48c5 -4 6 -7 4 -11l-12 -24c-2 -4 -5 -5 -10 -2c-43 29 -98 44 -159 45zM341 687c54 0 84 32 87 79c0 5 3 8 8 8h15c6 0 9 -4 9 -8c0 -63 -45 -113 -119 -113
c-75 0 -119 50 -119 113c0 4 3 8 9 8h15c4 0 7 -3 8 -8c3 -47 32 -79 87 -79z" />
    <glyph glyph-name="Gsmallcommaaccent" unicode="&#xe09e;" horiz-adv-x="612" 
d="M496 89v135h-188c-3 0 -7 3 -7 7v24c0 4 4 7 7 7h224c4 0 7 -3 7 -7v-248c0 -4 -3 -7 -7 -7h-29c-4 0 -7 3 -7 7v35c-36 -25 -95 -50 -168 -50c-76 0 -149 27 -201 78c-50 49 -79 120 -79 203c0 67 25 128 66 176c52 62 130 103 216 103c78 0 130 -21 171 -48
c5 -3 6 -7 4 -11l-12 -24c-2 -4 -6 -5 -10 -2c-43 29 -93 44 -154 44c-73 0 -140 -35 -183 -90c-33 -42 -53 -93 -53 -148c0 -70 24 -129 65 -171c44 -45 108 -69 173 -69c79 0 134 30 165 56zM363 -107c0 -31 -21 -64 -49 -78c-5 -2 -8 -1 -11 3l-4 7c-3 4 -1 7 2 10
c10 9 19 17 19 29c0 20 -23 20 -23 45c0 17 12 29 30 29c24 0 36 -20 36 -45z" />
    <glyph glyph-name="Gsmallcommaaccent.2" unicode="&#xe09f;" horiz-adv-x="645" 
d="M338 512c-71 1 -136 -27 -181 -75c-40 -42 -64 -100 -64 -164c0 -75 27 -135 72 -177c46 -42 107 -65 175 -65c57 0 108 17 146 45c43 32 69 78 71 133h-193c-4 0 -7 3 -7 7v25c0 3 3 6 7 6h233c3 0 7 -3 7 -7c0 -85 -29 -146 -84 -191c-48 -37 -112 -58 -182 -58
c-80 0 -154 26 -207 76c-51 47 -83 117 -83 206c0 75 29 142 75 191c53 54 129 88 215 88c80 0 136 -22 177 -48c5 -4 6 -7 4 -11l-12 -24c-2 -4 -5 -5 -10 -2c-43 29 -98 44 -159 45zM374 -107c0 -31 -21 -64 -49 -78c-5 -2 -8 -1 -11 3l-4 7c-3 4 -1 7 2 10
c10 9 19 17 19 29c0 20 -23 20 -23 45c0 17 12 29 30 29c24 0 36 -20 36 -45z" />
    <glyph glyph-name="H" unicode="H" horiz-adv-x="711" 
d="M591 681h35c3 0 7 -3 7 -7v-667c0 -4 -4 -7 -7 -7h-35c-3 0 -6 3 -6 7v313h-459v-313c0 -4 -3 -7 -7 -7h-34c-4 0 -7 3 -7 7v667c0 4 3 7 7 7h34c4 0 7 -3 7 -7v-312h459v312c0 4 3 7 6 7z" />
    <glyph glyph-name="H.2" unicode="&#xe0a0;" horiz-adv-x="751" 
d="M631 681h35c3 0 7 -3 7 -7v-667c0 -4 -4 -7 -7 -7h-35c-3 0 -6 3 -6 7v257h-499v-257c0 -4 -3 -7 -7 -7h-34c-4 0 -7 3 -7 7v667c0 4 3 7 7 7h34c4 0 7 -3 7 -7v-367h499v367c0 4 3 7 6 7z" />
    <glyph glyph-name="Hsmall" unicode="&#xf768;" horiz-adv-x="599" 
d="M485 544h30c4 0 7 -3 7 -7v-530c0 -4 -3 -7 -7 -7h-30c-4 0 -7 3 -7 7v246h-358v-246c0 -4 -4 -7 -7 -7h-30c-4 0 -7 3 -7 7v530c0 4 3 7 7 7h30c3 0 7 -3 7 -7v-245h358v245c0 4 3 7 7 7z" />
    <glyph glyph-name="Hsmall.2" unicode="&#xe0a1;" horiz-adv-x="631" 
d="M517 544h30c4 0 7 -3 7 -7v-530c0 -4 -3 -7 -7 -7h-30c-4 0 -7 3 -7 7v206h-390v-206c0 -4 -4 -7 -7 -7h-30c-4 0 -7 3 -7 7v530c0 4 3 7 7 7h30c3 0 7 -3 7 -7v-285h390v285c0 4 3 7 7 7z" />
    <glyph glyph-name="I" unicode="I" horiz-adv-x="204" 
d="M85 681h34c4 0 7 -3 7 -7v-667c0 -4 -3 -7 -7 -7h-34c-4 0 -7 3 -7 7v667c0 4 3 7 7 7z" />
    <glyph glyph-name="Iacute" unicode="&#xcd;" horiz-adv-x="205" 
d="M85 681h34c4 0 7 -3 7 -7v-667c0 -4 -3 -7 -7 -7h-34c-4 0 -7 3 -7 7v667c0 4 3 7 7 7zM140 968h31c8 0 7 -7 4 -12l-106 -174c-3 -5 -6 -7 -11 -7h-21c-9 0 -6 7 -3 13l97 173c2 4 4 7 9 7z" />
    <glyph glyph-name="Icircumflex" unicode="&#xce;" horiz-adv-x="205" 
d="M85 681h34c4 0 7 -3 7 -7v-667c0 -4 -3 -7 -7 -7h-34c-4 0 -7 3 -7 7v667c0 4 3 7 7 7zM94 967h16c5 0 7 -2 10 -6l161 -178c4 -5 3 -9 -3 -9h-26c-6 0 -9 1 -13 6l-137 150l-138 -150c-4 -5 -6 -6 -12 -6h-26c-7 0 -8 4 -4 9l162 178c3 4 5 6 10 6z" />
    <glyph glyph-name="Idieresis" unicode="&#xcf;" horiz-adv-x="205" 
d="M85 681h34c4 0 7 -3 7 -7v-667c0 -4 -3 -7 -7 -7h-34c-4 0 -7 3 -7 7v667c0 4 3 7 7 7zM20 845c-16 0 -28 13 -28 29c0 15 12 27 28 27c15 0 27 -12 27 -27c0 -16 -12 -29 -27 -29zM186 845c-16 0 -28 13 -28 29c0 15 12 27 28 27c15 0 27 -12 27 -27
c0 -16 -12 -29 -27 -29z" />
    <glyph glyph-name="Idotaccent" unicode="&#x130;" horiz-adv-x="205" 
d="M85 681h34c4 0 7 -3 7 -7v-667c0 -4 -3 -7 -7 -7h-34c-4 0 -7 3 -7 7v667c0 4 3 7 7 7zM103 851c-16 0 -28 12 -28 28c0 15 12 27 28 27c15 0 27 -12 27 -27c0 -16 -12 -28 -27 -28z" />
    <glyph glyph-name="Igrave" unicode="&#xcc;" horiz-adv-x="205" 
d="M85 681h34c4 0 7 -3 7 -7v-667c0 -4 -3 -7 -7 -7h-34c-4 0 -7 3 -7 7v667c0 4 3 7 7 7zM34 968h31c5 0 7 -3 9 -7l97 -173c2 -4 6 -13 -3 -13h-22c-5 0 -7 2 -10 7l-106 174c-3 5 -3 11 4 12z" />
    <glyph glyph-name="Imacron" unicode="&#x12a;" horiz-adv-x="205" 
d="M85 681h34c4 0 7 -3 7 -7v-667c0 -4 -3 -7 -7 -7h-34c-4 0 -7 3 -7 7v667c0 4 3 7 7 7zM-14 904h233c4 0 7 -4 7 -7v-24c0 -4 -3 -7 -7 -7h-233c-4 0 -7 3 -7 7v24c0 3 3 7 7 7z" />
    <glyph glyph-name="Iogonek" unicode="&#x12e;" horiz-adv-x="205" 
d="M-10 -111c0 49 45 92 88 116v2v667c0 4 3 7 7 7h34c4 0 7 -3 7 -7v-667c0 -4 -3 -7 -7 -7h-18c-35 -21 -76 -58 -76 -100c0 -29 20 -43 48 -43s42 9 50 9c4 0 5 -2 5 -5v-17c0 -5 -2 -6 -5 -8c-13 -6 -37 -11 -58 -11c-42 0 -75 19 -75 64z" />
    <glyph glyph-name="Ismall" unicode="&#xf769;" horiz-adv-x="197" 
d="M76 537c0 4 3 7 7 7h30c3 0 7 -3 7 -7v-530c0 -4 -4 -7 -7 -7h-30c-4 0 -7 3 -7 7v530z" />
    <glyph glyph-name="Ismallacute" unicode="&#xe0a2;" horiz-adv-x="196" 
d="M76 537c0 4 3 7 7 7h30c3 0 7 -3 7 -7v-530c0 -4 -4 -7 -7 -7h-30c-4 0 -7 3 -7 7v530zM138 825h31c8 0 7 -7 4 -12l-106 -174c-3 -5 -6 -7 -11 -7h-21c-9 0 -6 7 -3 13l97 173c2 4 4 7 9 7z" />
    <glyph glyph-name="Ismallcircumflex" unicode="&#xe0a3;" horiz-adv-x="196" 
d="M76 537c0 4 3 7 7 7h30c3 0 7 -3 7 -7v-530c0 -4 -4 -7 -7 -7h-30c-4 0 -7 3 -7 7v530zM93 825h16c5 0 7 -2 10 -6l161 -178c4 -5 3 -9 -3 -9h-26c-6 0 -9 1 -13 6l-137 150l-138 -150c-4 -5 -6 -6 -12 -6h-26c-7 0 -8 4 -4 9l162 178c3 4 5 6 10 6z" />
    <glyph glyph-name="Ismalldieresis" unicode="&#xe0a4;" horiz-adv-x="196" 
d="M76 537c0 4 3 7 7 7h30c3 0 7 -3 7 -7v-530c0 -4 -4 -7 -7 -7h-30c-4 0 -7 3 -7 7v530zM19 702c-16 0 -28 13 -28 29c0 15 12 27 28 27c15 0 27 -12 27 -27c0 -16 -12 -29 -27 -29zM185 702c-16 0 -28 13 -28 29c0 15 12 27 28 27c15 0 27 -12 27 -27
c0 -16 -12 -29 -27 -29z" />
    <glyph glyph-name="Ismallgrave" unicode="&#xe0a5;" horiz-adv-x="196" 
d="M76 537c0 4 3 7 7 7h30c3 0 7 -3 7 -7v-530c0 -4 -4 -7 -7 -7h-30c-4 0 -7 3 -7 7v530zM33 825h31c5 0 7 -3 9 -7l97 -173c2 -4 6 -13 -3 -13h-22c-5 0 -7 2 -10 7l-106 174c-3 5 -3 11 4 12z" />
    <glyph glyph-name="Ismallmacron" unicode="&#xe0a6;" horiz-adv-x="196" 
d="M76 537c0 4 3 7 7 7h30c3 0 7 -3 7 -7v-530c0 -4 -4 -7 -7 -7h-30c-4 0 -7 3 -7 7v530zM-18 741h233c4 0 7 -4 7 -7v-24c0 -4 -3 -7 -7 -7h-233c-4 0 -7 3 -7 7v24c0 3 3 7 7 7z" />
    <glyph glyph-name="Ismallogonek" unicode="&#xe0a7;" horiz-adv-x="196" 
d="M-14 -111c0 50 46 93 90 117v1v530c0 4 3 7 7 7h30c3 0 7 -3 7 -7v-530c0 -4 -4 -7 -7 -7h-16c-35 -21 -76 -58 -76 -100c0 -29 20 -43 48 -43s42 9 50 9c4 0 5 -2 5 -5v-17c0 -5 -2 -6 -5 -8c-13 -6 -37 -11 -58 -11c-42 0 -75 19 -75 64z" />
    <glyph glyph-name="J" unicode="J" horiz-adv-x="503" 
d="M181 -10c-65 0 -126 28 -167 62c-4 3 -4 6 -2 11l16 26c1 4 5 6 10 2c43 -38 90 -59 142 -59c54 0 109 18 148 60c32 34 52 85 52 155v427c0 4 3 7 7 7h34c4 0 7 -3 7 -7v-429c0 -87 -27 -147 -70 -188c-47 -46 -113 -67 -177 -67z" />
    <glyph glyph-name="Jsmall" unicode="&#xf76a;" horiz-adv-x="429" 
d="M156 -8c-45 0 -94 13 -135 46c-4 3 -4 7 -2 11l13 22c3 4 7 7 11 3c31 -26 64 -42 113 -42c44 0 89 15 119 50c22 27 36 65 36 118v337c0 4 3 7 6 7h30c4 0 7 -3 7 -7v-339c0 -62 -16 -108 -43 -141c-38 -46 -96 -65 -155 -65z" />
    <glyph glyph-name="K" unicode="K" horiz-adv-x="589" 
d="M501 7l-292 339l-83 -81v-258c0 -4 -3 -7 -7 -7h-34c-4 0 -7 3 -7 7v667c0 4 3 7 7 7h34c4 0 7 -3 7 -7v-349l351 349c4 4 8 7 14 7h43c7 0 9 -6 3 -11l-295 -289l318 -370c4 -5 4 -11 -5 -11h-41c-6 0 -9 1 -13 7z" />
    <glyph glyph-name="K.2" unicode="&#xe0a8;" horiz-adv-x="662" 
d="M537 681h43c6 0 8 -6 3 -12l-310 -311c204 -18 332 -137 332 -351c0 -4 -3 -7 -7 -7h-35c-3 0 -6 3 -6 7c0 198 -126 303 -320 313l-111 -112v-201c0 -4 -3 -7 -7 -7h-34c-4 0 -7 3 -7 7v667c0 4 3 7 7 7h34c4 0 7 -3 7 -7v-403l396 402c5 5 8 8 15 8z" />
    <glyph glyph-name="Kcommaaccent" unicode="&#x136;" horiz-adv-x="589" 
d="M501 7l-292 339l-83 -81v-258c0 -4 -3 -7 -7 -7h-34c-4 0 -7 3 -7 7v667c0 4 3 7 7 7h34c4 0 7 -3 7 -7v-349l351 349c4 4 8 7 14 7h43c7 0 9 -6 3 -11l-295 -289l318 -370c4 -5 4 -11 -5 -11h-41c-6 0 -9 1 -13 7zM332 -107c0 -31 -21 -64 -49 -78c-5 -2 -8 -1 -11 3
l-4 7c-3 4 -1 7 2 10c10 9 19 17 19 29c0 20 -23 20 -23 45c0 17 12 29 30 29c24 0 36 -20 36 -45z" />
    <glyph glyph-name="Kcommaaccent.2" unicode="&#xe0a9;" horiz-adv-x="655" 
d="M537 681h43c6 0 8 -6 3 -12l-310 -311c204 -18 332 -137 332 -351c0 -4 -3 -7 -7 -7h-35c-3 0 -6 3 -6 7c0 198 -126 303 -320 313l-111 -112v-201c0 -4 -3 -7 -7 -7h-34c-4 0 -7 3 -7 7v667c0 4 3 7 7 7h34c4 0 7 -3 7 -7v-403l396 402c5 5 8 8 15 8zM372 -107
c0 -31 -21 -64 -49 -78c-5 -2 -8 -1 -11 3l-4 7c-3 4 -1 7 2 10c10 9 19 17 19 29c0 20 -23 20 -23 45c0 17 12 29 30 29c24 0 36 -20 36 -45z" />
    <glyph glyph-name="Ksmall" unicode="&#xf76b;" horiz-adv-x="502" 
d="M418 7l-234 266l-64 -63v-203c0 -4 -4 -7 -7 -7h-30c-4 0 -7 3 -7 7v530c0 4 3 7 7 7h30c3 0 7 -3 7 -7v-271l271 271c4 4 7 7 13 7h38c7 0 9 -5 4 -11l-232 -229l257 -293c4 -5 4 -11 -5 -11h-34c-7 0 -10 1 -14 7z" />
    <glyph glyph-name="Ksmall.2" unicode="&#xe0aa;" horiz-adv-x="548" 
d="M480 533l-243 -245c162 -18 259 -109 259 -281c0 -4 -4 -7 -7 -7h-31c-3 0 -6 3 -6 7c0 158 -101 239 -248 247l-84 -85v-162c0 -4 -4 -7 -7 -7h-30c-4 0 -7 3 -7 7v530c0 4 3 7 7 7h30c3 0 7 -3 7 -7v-312l306 312c4 4 7 7 14 7h37c7 0 9 -5 3 -11z" />
    <glyph glyph-name="Ksmallcommaaccent" unicode="&#xe0ab;" horiz-adv-x="502" 
d="M418 7l-234 266l-64 -63v-203c0 -4 -4 -7 -7 -7h-30c-4 0 -7 3 -7 7v530c0 4 3 7 7 7h30c3 0 7 -3 7 -7v-271l271 271c4 4 7 7 13 7h38c7 0 9 -5 4 -11l-232 -229l257 -293c4 -5 4 -11 -5 -11h-34c-7 0 -10 1 -14 7zM293 -107c0 -31 -21 -64 -49 -78c-5 -2 -8 -1 -11 3
l-4 7c-3 4 -1 7 2 10c10 9 19 17 19 29c0 20 -23 20 -23 45c0 17 12 29 30 29c24 0 36 -20 36 -45z" />
    <glyph glyph-name="Ksmallcommaaccent.2" unicode="&#xe0ac;" horiz-adv-x="539" 
d="M480 533l-243 -245c162 -18 259 -109 259 -281c0 -4 -4 -7 -7 -7h-31c-3 0 -6 3 -6 7c0 158 -101 239 -248 247l-84 -85v-162c0 -4 -4 -7 -7 -7h-30c-4 0 -7 3 -7 7v530c0 4 3 7 7 7h30c3 0 7 -3 7 -7v-312l306 312c4 4 7 7 14 7h37c7 0 9 -5 3 -11zM312 -107
c0 -31 -21 -64 -49 -78c-5 -2 -8 -1 -11 3l-4 7c-3 4 -1 7 2 10c10 9 19 17 19 29c0 20 -23 20 -23 45c0 17 12 29 30 29c24 0 36 -20 36 -45z" />
    <glyph glyph-name="L" unicode="L" horiz-adv-x="528" 
d="M85 681h34c4 0 7 -3 7 -7v-632h375c4 0 7 -3 7 -7v-28c0 -4 -3 -7 -7 -7h-416c-4 0 -7 3 -7 7v667c0 4 3 7 7 7z" />
    <glyph glyph-name="L.1" unicode="&#xe0ad;" horiz-adv-x="519" 
d="M349 42h143c3 0 7 -3 7 -7v-28c0 -4 -4 -7 -7 -7h-144c-102 0 -177 24 -223 80c-39 46 -56 112 -56 201v393c0 4 3 7 6 7h35c3 0 7 -3 7 -7v-399c0 -74 14 -131 49 -170c37 -43 98 -63 183 -63z" />
    <glyph glyph-name="Lacute" unicode="&#x139;" horiz-adv-x="528" 
d="M85 681h34c4 0 7 -3 7 -7v-632h375c4 0 7 -3 7 -7v-28c0 -4 -3 -7 -7 -7h-416c-4 0 -7 3 -7 7v667c0 4 3 7 7 7zM187 968h31c8 0 7 -7 4 -12l-106 -174c-3 -5 -6 -7 -11 -7h-21c-9 0 -6 7 -3 13l97 173c2 4 4 7 9 7z" />
    <glyph glyph-name="Lacute.1" unicode="&#xe0ae;" horiz-adv-x="519" 
d="M349 42h143c3 0 7 -3 7 -7v-28c0 -4 -4 -7 -7 -7h-144c-102 0 -177 24 -223 80c-39 46 -56 112 -56 201v393c0 4 3 7 6 7h35c3 0 7 -3 7 -7v-399c0 -74 14 -131 49 -170c37 -43 98 -63 183 -63zM175 968h31c8 0 7 -7 4 -12l-106 -174c-3 -5 -6 -7 -11 -7h-21
c-9 0 -6 7 -3 13l97 173c2 4 4 7 9 7z" />
    <glyph glyph-name="Lcaron" unicode="&#x13d;" horiz-adv-x="528" 
d="M85 681h34c4 0 7 -3 7 -7v-632h375c4 0 7 -3 7 -7v-28c0 -4 -3 -7 -7 -7h-416c-4 0 -7 3 -7 7v667c0 4 3 7 7 7zM345 645c0 -31 -21 -64 -49 -78c-5 -2 -8 -1 -11 3l-4 7c-3 4 -1 7 2 10c10 9 19 17 19 29c0 20 -23 20 -23 45c0 17 12 29 30 29c24 0 36 -20 36 -45z" />
    <glyph glyph-name="Lcaron.1" unicode="&#xe0af;" horiz-adv-x="519" 
d="M349 42h143c3 0 7 -3 7 -7v-28c0 -4 -4 -7 -7 -7h-144c-102 0 -177 24 -223 80c-39 46 -56 112 -56 201v393c0 4 3 7 6 7h35c3 0 7 -3 7 -7v-399c0 -74 14 -131 49 -170c37 -43 98 -63 183 -63zM336 645c0 -31 -21 -64 -49 -78c-5 -2 -8 -1 -11 3l-4 7c-3 4 -1 7 2 10
c10 9 19 17 19 29c0 20 -23 20 -23 45c0 17 12 29 30 29c24 0 36 -20 36 -45z" />
    <glyph glyph-name="Lcommaaccent" unicode="&#x13b;" horiz-adv-x="528" 
d="M85 681h34c4 0 7 -3 7 -7v-632h375c4 0 7 -3 7 -7v-28c0 -4 -3 -7 -7 -7h-416c-4 0 -7 3 -7 7v667c0 4 3 7 7 7zM328 -107c0 -31 -21 -64 -49 -78c-5 -2 -8 -1 -11 3l-4 7c-3 4 -1 7 2 10c10 9 19 17 19 29c0 20 -23 20 -23 45c0 17 12 29 30 29c24 0 36 -20 36 -45z" />
    <glyph glyph-name="Lcommaaccent.1" unicode="&#xe0b0;" horiz-adv-x="519" 
d="M349 42h143c3 0 7 -3 7 -7v-28c0 -4 -4 -7 -7 -7h-144c-102 0 -177 24 -223 80c-39 46 -56 112 -56 201v393c0 4 3 7 6 7h35c3 0 7 -3 7 -7v-399c0 -74 14 -131 49 -170c37 -43 98 -63 183 -63zM318 -107c0 -31 -21 -64 -49 -78c-5 -2 -8 -1 -11 3l-4 7c-3 4 -1 7 2 10
c10 9 19 17 19 29c0 20 -23 20 -23 45c0 17 12 29 30 29c24 0 36 -20 36 -45z" />
    <glyph glyph-name="Lslash" unicode="&#x141;" horiz-adv-x="532" 
d="M89 681h35c3 0 6 -3 6 -7v-326l115 74c4 2 7 1 9 -2l14 -21c2 -3 1 -7 -2 -9l-136 -87v-261h375c4 0 7 -3 7 -7v-28c0 -4 -3 -7 -7 -7h-416c-3 0 -7 3 -7 7v265l-89 -56c-4 -2 -8 -1 -10 2l-12 21c-2 3 -2 7 1 9l110 70v356c0 4 4 7 7 7z" />
    <glyph glyph-name="Lsmall" unicode="&#xf76c;" horiz-adv-x="441" 
d="M83 544h30c3 0 7 -3 7 -7v-499h293c4 0 7 -3 7 -7v-24c0 -4 -3 -7 -7 -7h-330c-4 0 -7 3 -7 7v530c0 4 3 7 7 7z" />
    <glyph glyph-name="Lsmall.1" unicode="&#xe0b1;" horiz-adv-x="429" 
d="M401 0h-118c-87 0 -150 23 -187 75c-27 37 -38 88 -38 151v311c0 4 4 7 7 7h30c4 0 7 -3 7 -7v-320c0 -51 10 -91 29 -120c27 -39 75 -59 150 -59h120c4 0 7 -3 7 -7v-24c0 -4 -3 -7 -7 -7z" />
    <glyph glyph-name="Lsmallacute" unicode="&#xe0b2;" horiz-adv-x="448" 
d="M185 826h31c3 0 6 -2 6 -6c0 -1 -1 -4 -2 -6l-106 -175c-3 -5 -6 -6 -11 -6h-21c-3 0 -6 1 -6 4c0 2 2 4 3 8l97 174c2 3 4 7 9 7zM88 544h30c3 0 6 -3 6 -7v-499h294c4 0 7 -3 7 -7v-24c0 -4 -3 -7 -7 -7h-330c-4 0 -7 3 -7 7v530c0 4 3 7 7 7z" />
    <glyph glyph-name="Lsmallacute.1" unicode="&#xe0b3;" horiz-adv-x="429" 
d="M401 0h-118c-87 0 -150 23 -187 75c-27 37 -38 88 -38 151v311c0 4 4 7 7 7h30c4 0 7 -3 7 -7v-320c0 -51 10 -91 29 -120c27 -39 75 -59 150 -59h120c4 0 7 -3 7 -7v-24c0 -4 -3 -7 -7 -7zM162 825h31c8 0 7 -7 4 -12l-106 -174c-3 -5 -6 -7 -11 -7h-21c-9 0 -6 7 -3 13
l97 173c2 4 4 7 9 7z" />
    <glyph glyph-name="Lsmallcaron" unicode="&#xe0b4;" horiz-adv-x="441" 
d="M83 544h30c3 0 7 -3 7 -7v-499h293c4 0 7 -3 7 -7v-24c0 -4 -3 -7 -7 -7h-330c-4 0 -7 3 -7 7v530c0 4 3 7 7 7zM313 507c0 -31 -21 -64 -49 -78c-5 -2 -8 -1 -11 3l-4 7c-3 4 -1 7 2 10c10 9 19 17 19 29c0 20 -23 20 -23 45c0 17 12 29 30 29c24 0 36 -20 36 -45z" />
    <glyph glyph-name="Lsmallcaron.1" unicode="&#xe0b5;" horiz-adv-x="429" 
d="M401 0h-118c-87 0 -150 23 -187 75c-27 37 -38 88 -38 151v311c0 4 4 7 7 7h30c4 0 7 -3 7 -7v-320c0 -51 10 -91 29 -120c27 -39 75 -59 150 -59h120c4 0 7 -3 7 -7v-24c0 -4 -3 -7 -7 -7zM296 507c0 -31 -21 -64 -49 -78c-5 -2 -8 -1 -11 3l-4 7c-3 4 -1 7 2 10
c10 9 19 17 19 29c0 20 -23 20 -23 45c0 17 12 29 30 29c24 0 36 -20 36 -45z" />
    <glyph glyph-name="Lsmallcommaaccent" unicode="&#xe0b6;" horiz-adv-x="441" 
d="M83 544h30c3 0 7 -3 7 -7v-499h293c4 0 7 -3 7 -7v-24c0 -4 -3 -7 -7 -7h-330c-4 0 -7 3 -7 7v530c0 4 3 7 7 7zM281 -107c0 -31 -21 -64 -49 -78c-5 -2 -8 -1 -11 3l-4 7c-3 4 -1 7 2 10c10 9 19 17 19 29c0 20 -23 20 -23 45c0 17 12 29 30 29c24 0 36 -20 36 -45z" />
    <glyph glyph-name="Lsmallcommaaccent.1" unicode="&#xe0b7;" horiz-adv-x="429" 
d="M401 0h-118c-87 0 -150 23 -187 75c-27 37 -38 88 -38 151v311c0 4 4 7 7 7h30c4 0 7 -3 7 -7v-320c0 -51 10 -91 29 -120c27 -39 75 -59 150 -59h120c4 0 7 -3 7 -7v-24c0 -4 -3 -7 -7 -7zM275 -107c0 -31 -21 -64 -49 -78c-5 -2 -8 -1 -11 3l-4 7c-3 4 -1 7 2 10
c10 9 19 17 19 29c0 20 -23 20 -23 45c0 17 12 29 30 29c24 0 36 -20 36 -45z" />
    <glyph glyph-name="M" unicode="M" horiz-adv-x="828" 
d="M750 674v-667c0 -4 -3 -7 -7 -7h-33c-4 0 -7 3 -7 7v591l-265 -427c-4 -6 -6 -8 -12 -8h-24c-5 0 -8 2 -12 8l-265 427v-591c0 -4 -3 -7 -7 -7h-33c-4 0 -7 3 -7 7v667c0 4 3 7 7 7h36c6 0 9 -1 13 -8l280 -455l280 455c4 7 7 8 13 8h36c4 0 7 -3 7 -7z" />
    <glyph glyph-name="M.2" unicode="&#xe0b8;" horiz-adv-x="965" 
d="M482 56l349 617c5 7 7 8 13 8h37c3 0 6 -3 6 -7v-667c0 -4 -3 -7 -6 -7h-34c-3 0 -6 3 -6 7v589l-336 -591c-4 -6 -7 -8 -12 -8h-21c-5 0 -8 2 -12 8l-335 591v-589c0 -4 -3 -7 -7 -7h-33c-4 0 -7 3 -7 7v667c0 4 3 7 7 7h36c6 0 8 0 12 -8z" />
    <glyph glyph-name="M.3" unicode="&#xe0b9;" horiz-adv-x="1179" 
d="M85 681h31c4 0 7 -3 7 -7v-128h4c14 34 30 59 55 81c44 43 104 63 168 63c67 0 120 -17 159 -48c43 -33 70 -82 85 -141c12 52 34 92 64 121c47 47 111 68 181 68c86 0 150 -27 192 -75c49 -55 71 -136 71 -233v-375c0 -4 -3 -7 -7 -7h-34c-4 0 -7 3 -7 7v375
c0 82 -17 153 -59 202c-34 39 -87 63 -160 63c-63 0 -118 -19 -159 -62c-37 -39 -62 -104 -62 -199v-379c0 -4 -3 -7 -7 -7h-34c-4 0 -7 3 -7 7v381c0 81 -23 166 -78 212c-33 30 -80 47 -142 47c-63 0 -119 -20 -159 -63c-38 -41 -61 -106 -61 -205v-372c0 -4 -3 -7 -7 -7
h-34c-4 0 -7 3 -7 7v667c0 4 3 7 7 7z" />
    <glyph glyph-name="Msmall" unicode="&#xf76d;" horiz-adv-x="685" 
d="M342 180l216 356c4 7 6 8 12 8h31c4 0 7 -3 7 -7v-530c0 -4 -3 -7 -7 -7h-29c-3 0 -7 3 -7 7v462l-204 -333c-3 -5 -5 -7 -10 -7h-18c-5 0 -7 2 -10 7l-204 333v-462c0 -4 -3 -7 -7 -7h-29c-4 0 -7 3 -7 7v530c0 4 3 7 7 7h30c6 0 9 -1 13 -8z" />
    <glyph glyph-name="Msmall.2" unicode="&#xe0ba;" horiz-adv-x="827" 
d="M413 46l286 490c4 7 7 8 13 8h31c3 0 7 -3 7 -7v-530c0 -4 -4 -7 -7 -7h-29c-4 0 -7 3 -7 7v462l-275 -467c-3 -5 -5 -7 -10 -7h-18c-5 0 -7 2 -10 7l-275 467v-462c0 -4 -3 -7 -7 -7h-29c-4 0 -7 3 -7 7v530c0 4 3 7 7 7h30c6 0 9 -1 13 -8z" />
    <glyph glyph-name="Msmall.3" unicode="&#xe0bb;" horiz-adv-x="949" 
d="M118 449h4c15 33 36 56 60 71c37 24 77 32 115 32c53 0 101 -13 136 -44c26 -21 43 -50 53 -87c11 34 32 71 72 98c35 25 79 33 119 33c56 0 109 -16 147 -52c35 -34 56 -86 56 -165v-328c0 -4 -3 -7 -6 -7h-30c-4 0 -7 3 -7 7v320c0 65 -16 113 -47 143
c-29 28 -71 42 -119 42c-50 0 -101 -17 -133 -61c-26 -37 -37 -86 -37 -148v-296c0 -4 -3 -7 -7 -7h-30c-4 0 -7 3 -7 7v320c0 65 -17 113 -47 143c-28 29 -71 42 -120 42c-50 0 -101 -18 -132 -61c-22 -31 -38 -78 -38 -134v-310c0 -4 -4 -7 -7 -7h-30c-4 0 -7 3 -7 7v530
c0 4 3 7 7 7h28c3 0 7 -3 7 -7v-88z" />
    <glyph glyph-name="N" unicode="N" horiz-adv-x="738" 
d="M613 75v599c0 4 4 7 7 7h33c4 0 7 -3 7 -7v-667c0 -4 -3 -7 -7 -7h-34c-6 0 -9 1 -14 7l-480 597v-597c0 -4 -4 -7 -7 -7h-33c-4 0 -7 3 -7 7v667c0 4 3 7 7 7h33c6 0 9 -2 13 -8z" />
    <glyph glyph-name="N.2" unicode="&#xe0bc;" horiz-adv-x="771" 
d="M85 681h33c3 0 7 -3 7 -7v-23c0 -71 131 -179 265 -284c63 -49 125 -99 182 -155c30 -31 57 -60 74 -88v550c0 4 4 7 7 7h33c4 0 7 -3 7 -7v-667c0 -4 -3 -7 -7 -7h-33c-3 0 -7 3 -7 7v23c0 71 -152 193 -253 273c-64 51 -131 102 -194 164c-31 30 -58 59 -74 88v-548
c0 -4 -4 -7 -7 -7h-33c-4 0 -7 3 -7 7v667c0 4 3 7 7 7z" />
    <glyph glyph-name="N.3" unicode="&#xe0bd;" horiz-adv-x="723" 
d="M124 525h5c16 40 43 82 83 113c41 31 99 52 169 52c81 0 142 -19 187 -59c53 -47 80 -126 80 -233v-391c0 -4 -3 -7 -7 -7h-34c-4 0 -7 3 -7 7v385c0 93 -19 160 -66 203c-36 33 -87 51 -158 51c-89 0 -160 -34 -206 -107c-31 -50 -44 -111 -44 -170v-362
c0 -4 -3 -7 -7 -7h-34c-4 0 -7 3 -7 7v667c0 4 3 7 7 7h32c4 0 7 -3 7 -7v-149z" />
    <glyph glyph-name="Nacute" unicode="&#x143;" horiz-adv-x="738" 
d="M613 75v599c0 4 4 7 7 7h33c4 0 7 -3 7 -7v-667c0 -4 -3 -7 -7 -7h-34c-6 0 -9 1 -14 7l-480 597v-597c0 -4 -4 -7 -7 -7h-33c-4 0 -7 3 -7 7v667c0 4 3 7 7 7h33c6 0 9 -2 13 -8zM405 968h31c8 0 7 -7 4 -12l-106 -174c-3 -5 -6 -7 -11 -7h-21c-9 0 -6 7 -3 13l97 173
c2 4 4 7 9 7z" />
    <glyph glyph-name="Nacute.2" unicode="&#xe0be;" horiz-adv-x="771" 
d="M85 681h33c3 0 7 -3 7 -7v-23c0 -71 131 -179 265 -284c63 -49 125 -99 182 -155c30 -31 57 -60 74 -88v550c0 4 4 7 7 7h33c4 0 7 -3 7 -7v-667c0 -4 -3 -7 -7 -7h-33c-3 0 -7 3 -7 7v23c0 71 -152 193 -253 273c-64 51 -131 102 -194 164c-31 30 -58 59 -74 88v-548
c0 -4 -4 -7 -7 -7h-33c-4 0 -7 3 -7 7v667c0 4 3 7 7 7zM438 968h31c8 0 7 -7 4 -12l-106 -174c-3 -5 -6 -7 -11 -7h-21c-9 0 -6 7 -3 13l97 173c2 4 4 7 9 7z" />
    <glyph glyph-name="Nacute.3" unicode="&#xe0bf;" horiz-adv-x="723" 
d="M124 525h5c16 40 43 82 83 113c41 31 99 52 169 52c81 0 142 -19 187 -59c53 -47 80 -126 80 -233v-391c0 -4 -3 -7 -7 -7h-34c-4 0 -7 3 -7 7v385c0 93 -19 160 -66 203c-36 33 -87 51 -158 51c-89 0 -160 -34 -206 -107c-31 -50 -44 -111 -44 -170v-362
c0 -4 -3 -7 -7 -7h-34c-4 0 -7 3 -7 7v667c0 4 3 7 7 7h32c4 0 7 -3 7 -7v-149zM407 968h31c8 0 7 -7 4 -12l-106 -174c-3 -5 -6 -7 -11 -7h-21c-9 0 -6 7 -3 13l97 173c2 4 4 7 9 7z" />
    <glyph glyph-name="Ncaron" unicode="&#x147;" horiz-adv-x="738" 
d="M613 75v599c0 4 4 7 7 7h33c4 0 7 -3 7 -7v-667c0 -4 -3 -7 -7 -7h-34c-6 0 -9 1 -14 7l-480 597v-597c0 -4 -4 -7 -7 -7h-33c-4 0 -7 3 -7 7v667c0 4 3 7 7 7h33c6 0 9 -2 13 -8zM379 774h-16c-5 0 -7 3 -10 6l-162 177c-4 5 -3 10 4 10h26c6 0 8 -2 12 -6l138 -149
l137 149c4 4 7 6 13 6h26c6 0 7 -5 3 -10l-161 -177c-3 -3 -5 -6 -10 -6z" />
    <glyph glyph-name="Ncaron.2" unicode="&#xe0c0;" horiz-adv-x="771" 
d="M85 681h33c3 0 7 -3 7 -7v-23c0 -71 131 -179 265 -284c63 -49 125 -99 182 -155c30 -31 57 -60 74 -88v550c0 4 4 7 7 7h33c4 0 7 -3 7 -7v-667c0 -4 -3 -7 -7 -7h-33c-3 0 -7 3 -7 7v23c0 71 -152 193 -253 273c-64 51 -131 102 -194 164c-31 30 -58 59 -74 88v-548
c0 -4 -4 -7 -7 -7h-33c-4 0 -7 3 -7 7v667c0 4 3 7 7 7zM405 774h-16c-5 0 -7 3 -10 6l-162 177c-4 5 -3 10 4 10h26c6 0 8 -2 12 -6l138 -149l137 149c4 4 7 6 13 6h26c6 0 7 -5 3 -10l-161 -177c-3 -3 -5 -6 -10 -6z" />
    <glyph glyph-name="Ncaron.3" unicode="&#xe0c1;" horiz-adv-x="723" 
d="M124 525h5c16 40 43 82 83 113c41 31 99 52 169 52c81 0 142 -19 187 -59c53 -47 80 -126 80 -233v-391c0 -4 -3 -7 -7 -7h-34c-4 0 -7 3 -7 7v385c0 93 -19 160 -66 203c-36 33 -87 51 -158 51c-89 0 -160 -34 -206 -107c-31 -50 -44 -111 -44 -170v-362
c0 -4 -3 -7 -7 -7h-34c-4 0 -7 3 -7 7v667c0 4 3 7 7 7h32c4 0 7 -3 7 -7v-149zM395 774h-16c-5 0 -7 3 -10 6l-162 177c-4 5 -3 10 4 10h26c6 0 8 -2 12 -6l138 -149l137 149c4 4 7 6 13 6h26c6 0 7 -5 3 -10l-161 -177c-3 -3 -5 -6 -10 -6z" />
    <glyph glyph-name="Ncommaaccent" unicode="&#x145;" horiz-adv-x="738" 
d="M613 75v599c0 4 4 7 7 7h33c4 0 7 -3 7 -7v-667c0 -4 -3 -7 -7 -7h-34c-6 0 -9 1 -14 7l-480 597v-597c0 -4 -4 -7 -7 -7h-33c-4 0 -7 3 -7 7v667c0 4 3 7 7 7h33c6 0 9 -2 13 -8zM404 -107c0 -31 -21 -64 -49 -78c-5 -2 -8 -1 -11 3l-4 7c-3 4 -1 7 2 10
c10 9 19 17 19 29c0 20 -23 20 -23 45c0 17 12 29 30 29c24 0 36 -20 36 -45z" />
    <glyph glyph-name="Ncommaaccent.2" unicode="&#xe0c2;" horiz-adv-x="771" 
d="M85 681h33c3 0 7 -3 7 -7v-23c0 -71 131 -179 265 -284c63 -49 125 -99 182 -155c30 -31 57 -60 74 -88v550c0 4 4 7 7 7h33c4 0 7 -3 7 -7v-667c0 -4 -3 -7 -7 -7h-33c-3 0 -7 3 -7 7v23c0 71 -152 193 -253 273c-64 51 -131 102 -194 164c-31 30 -58 59 -74 88v-548
c0 -4 -4 -7 -7 -7h-33c-4 0 -7 3 -7 7v667c0 4 3 7 7 7zM423 -107c0 -31 -21 -64 -49 -78c-5 -2 -8 -1 -11 3l-4 7c-3 4 -1 7 2 10c10 9 19 17 19 29c0 20 -23 20 -23 45c0 17 12 29 30 29c24 0 36 -20 36 -45z" />
    <glyph glyph-name="Ncommaaccent.3" unicode="&#xe0c3;" horiz-adv-x="723" 
d="M124 525h5c16 40 43 82 83 113c41 31 99 52 169 52c81 0 142 -19 187 -59c53 -47 80 -126 80 -233v-391c0 -4 -3 -7 -7 -7h-34c-4 0 -7 3 -7 7v385c0 93 -19 160 -66 203c-36 33 -87 51 -158 51c-89 0 -160 -34 -206 -107c-31 -50 -44 -111 -44 -170v-362
c0 -4 -3 -7 -7 -7h-34c-4 0 -7 3 -7 7v667c0 4 3 7 7 7h32c4 0 7 -3 7 -7v-149zM407 -107c0 -31 -21 -64 -49 -78c-5 -2 -8 -1 -11 3l-4 7c-3 4 -1 7 2 10c10 9 19 17 19 29c0 20 -23 20 -23 45c0 17 12 29 30 29c24 0 36 -20 36 -45z" />
    <glyph glyph-name="Nsmall" unicode="&#xf76e;" horiz-adv-x="624" 
d="M540 0h-25c-6 0 -8 2 -12 7l-385 467v-467c0 -4 -3 -7 -7 -7h-28c-4 0 -7 3 -7 7v530c0 4 3 7 7 7h24c6 0 9 -2 13 -8l385 -467v468c0 4 3 7 6 7h29c3 0 7 -3 7 -7v-530c0 -4 -4 -7 -7 -7z" />
    <glyph glyph-name="Nsmall.2" unicode="&#xe0c4;" horiz-adv-x="652" 
d="M533 537c0 4 3 7 7 7h28c4 0 7 -3 7 -7v-530c0 -4 -3 -7 -7 -7h-28c-4 0 -7 3 -7 7v19c0 71 -153 180 -226 234c-68 52 -149 113 -189 174v-427c0 -4 -3 -7 -7 -7h-28c-4 0 -7 3 -7 7v530c0 4 3 7 7 7h28c4 0 7 -3 7 -7v-21c0 -59 106 -145 211 -222
c77 -58 159 -117 204 -185v428z" />
    <glyph glyph-name="Nsmall.3" unicode="&#xe0c5;" horiz-adv-x="609" 
d="M118 424h4c14 31 35 61 67 86c34 25 81 42 136 42c64 0 115 -16 151 -48c43 -38 64 -100 64 -186v-311c0 -4 -3 -7 -7 -7h-30c-3 0 -7 3 -7 7v304c0 72 -15 126 -52 161c-29 25 -70 40 -126 40c-71 0 -127 -28 -163 -85c-25 -40 -35 -88 -35 -133v-287c0 -4 -4 -7 -7 -7
h-30c-4 0 -7 3 -7 7v530c0 4 3 7 7 7h28c3 0 7 -3 7 -7v-113z" />
    <glyph glyph-name="Nsmallacute" unicode="&#xe0c6;" horiz-adv-x="624" 
d="M540 0h-25c-6 0 -8 2 -12 7l-385 467v-467c0 -4 -3 -7 -7 -7h-28c-4 0 -7 3 -7 7v530c0 4 3 7 7 7h24c6 0 9 -2 13 -8l385 -467v468c0 4 3 7 6 7h29c3 0 7 -3 7 -7v-530c0 -4 -4 -7 -7 -7zM356 825h31c8 0 7 -7 4 -12l-106 -174c-3 -5 -6 -7 -11 -7h-21c-9 0 -6 7 -3 13
l97 173c2 4 4 7 9 7z" />
    <glyph glyph-name="Nsmallacute.2" unicode="&#xe0c7;" horiz-adv-x="652" 
d="M533 537c0 4 3 7 7 7h28c4 0 7 -3 7 -7v-530c0 -4 -3 -7 -7 -7h-28c-4 0 -7 3 -7 7v19c0 71 -153 180 -226 234c-68 52 -149 113 -189 174v-427c0 -4 -3 -7 -7 -7h-28c-4 0 -7 3 -7 7v530c0 4 3 7 7 7h28c4 0 7 -3 7 -7v-21c0 -59 106 -145 211 -222
c77 -58 159 -117 204 -185v428zM377 825h31c8 0 7 -7 4 -12l-106 -174c-3 -5 -6 -7 -11 -7h-21c-9 0 -6 7 -3 13l97 173c2 4 4 7 9 7z" />
    <glyph glyph-name="Nsmallacute.3" unicode="&#xe0c8;" horiz-adv-x="609" 
d="M118 424h4c14 31 35 61 67 86c34 25 81 42 136 42c64 0 115 -16 151 -48c43 -38 64 -100 64 -186v-311c0 -4 -3 -7 -7 -7h-30c-3 0 -7 3 -7 7v304c0 72 -15 126 -52 161c-29 25 -70 40 -126 40c-71 0 -127 -28 -163 -85c-25 -40 -35 -88 -35 -133v-287c0 -4 -4 -7 -7 -7
h-30c-4 0 -7 3 -7 7v530c0 4 3 7 7 7h28c3 0 7 -3 7 -7v-113zM361 825h31c8 0 7 -7 4 -12l-106 -174c-3 -5 -6 -7 -11 -7h-21c-9 0 -6 7 -3 13l97 173c2 4 4 7 9 7z" />
    <glyph glyph-name="Nsmallcaron" unicode="&#xe0c9;" horiz-adv-x="624" 
d="M540 0h-25c-6 0 -8 2 -12 7l-385 467v-467c0 -4 -3 -7 -7 -7h-28c-4 0 -7 3 -7 7v530c0 4 3 7 7 7h24c6 0 9 -2 13 -8l385 -467v468c0 4 3 7 6 7h29c3 0 7 -3 7 -7v-530c0 -4 -4 -7 -7 -7zM319 632h-16c-5 0 -7 3 -10 6l-162 177c-4 5 -3 10 4 10h26c6 0 8 -2 12 -6
l138 -149l137 149c4 4 7 6 13 6h26c6 0 7 -5 3 -10l-161 -177c-3 -3 -5 -6 -10 -6z" />
    <glyph glyph-name="Nsmallcaron.2" unicode="&#xe0ca;" horiz-adv-x="652" 
d="M533 537c0 4 3 7 7 7h28c4 0 7 -3 7 -7v-530c0 -4 -3 -7 -7 -7h-28c-4 0 -7 3 -7 7v19c0 71 -153 180 -226 234c-68 52 -149 113 -189 174v-427c0 -4 -3 -7 -7 -7h-28c-4 0 -7 3 -7 7v530c0 4 3 7 7 7h28c4 0 7 -3 7 -7v-21c0 -59 106 -145 211 -222
c77 -58 159 -117 204 -185v428zM333 632h-16c-5 0 -7 3 -10 6l-162 177c-4 5 -3 10 4 10h26c6 0 8 -2 12 -6l138 -149l137 149c4 4 7 6 13 6h26c6 0 7 -5 3 -10l-161 -177c-3 -3 -5 -6 -10 -6z" />
    <glyph glyph-name="Nsmallcaron.3" unicode="&#xe0cb;" horiz-adv-x="609" 
d="M118 424h4c14 31 35 61 67 86c34 25 81 42 136 42c64 0 115 -16 151 -48c43 -38 64 -100 64 -186v-311c0 -4 -3 -7 -7 -7h-30c-3 0 -7 3 -7 7v304c0 72 -15 126 -52 161c-29 25 -70 40 -126 40c-71 0 -127 -28 -163 -85c-25 -40 -35 -88 -35 -133v-287c0 -4 -4 -7 -7 -7
h-30c-4 0 -7 3 -7 7v530c0 4 3 7 7 7h28c3 0 7 -3 7 -7v-113zM324 632h-16c-5 0 -7 3 -10 6l-162 177c-4 5 -3 10 4 10h26c6 0 8 -2 12 -6l138 -149l137 149c4 4 7 6 13 6h26c6 0 7 -5 3 -10l-161 -177c-3 -3 -5 -6 -10 -6z" />
    <glyph glyph-name="Nsmallcommaaccent" unicode="&#xe0cc;" horiz-adv-x="624" 
d="M540 0h-25c-6 0 -8 2 -12 7l-385 467v-467c0 -4 -3 -7 -7 -7h-28c-4 0 -7 3 -7 7v530c0 4 3 7 7 7h24c6 0 9 -2 13 -8l385 -467v468c0 4 3 7 6 7h29c3 0 7 -3 7 -7v-530c0 -4 -4 -7 -7 -7zM346 -107c0 -31 -21 -64 -49 -78c-5 -2 -8 -1 -11 3l-4 7c-3 4 -1 7 2 10
c10 9 19 17 19 29c0 20 -23 20 -23 45c0 17 12 29 30 29c24 0 36 -20 36 -45z" />
    <glyph glyph-name="Nsmallcommaaccent.2" unicode="&#xe0cd;" horiz-adv-x="652" 
d="M533 537c0 4 3 7 7 7h28c4 0 7 -3 7 -7v-530c0 -4 -3 -7 -7 -7h-28c-4 0 -7 3 -7 7v19c0 71 -153 180 -226 234c-68 52 -149 113 -189 174v-427c0 -4 -3 -7 -7 -7h-28c-4 0 -7 3 -7 7v530c0 4 3 7 7 7h28c4 0 7 -3 7 -7v-21c0 -59 106 -145 211 -222
c77 -58 159 -117 204 -185v428zM367 -107c0 -31 -21 -64 -49 -78c-5 -2 -8 -1 -11 3l-4 7c-3 4 -1 7 2 10c10 9 19 17 19 29c0 20 -23 20 -23 45c0 17 12 29 30 29c24 0 36 -20 36 -45z" />
    <glyph glyph-name="Nsmallcommaaccent.3" unicode="&#xe0ce;" horiz-adv-x="609" 
d="M118 424h4c14 31 35 61 67 86c34 25 81 42 136 42c64 0 115 -16 151 -48c43 -38 64 -100 64 -186v-311c0 -4 -3 -7 -7 -7h-30c-3 0 -7 3 -7 7v304c0 72 -15 126 -52 161c-29 25 -70 40 -126 40c-71 0 -127 -28 -163 -85c-25 -40 -35 -88 -35 -133v-287c0 -4 -4 -7 -7 -7
h-30c-4 0 -7 3 -7 7v530c0 4 3 7 7 7h28c3 0 7 -3 7 -7v-113zM347 -107c0 -31 -21 -64 -49 -78c-5 -2 -8 -1 -11 3l-4 7c-3 4 -1 7 2 10c10 9 19 17 19 29c0 20 -23 20 -23 45c0 17 12 29 30 29c24 0 36 -20 36 -45z" />
    <glyph glyph-name="Nsmalltilde" unicode="&#xe0cf;" horiz-adv-x="624" 
d="M540 0h-25c-6 0 -8 2 -12 7l-385 467v-467c0 -4 -3 -7 -7 -7h-28c-4 0 -7 3 -7 7v530c0 4 3 7 7 7h24c6 0 9 -2 13 -8l385 -467v468c0 4 3 7 6 7h29c3 0 7 -3 7 -7v-530c0 -4 -4 -7 -7 -7zM379 718c38 0 46 22 48 38c0 6 3 8 7 8h14c6 0 9 -4 9 -8c0 -43 -28 -72 -75 -72
c-27 0 -49 12 -73 27c-20 13 -40 25 -64 25c-39 0 -47 -23 -49 -39c0 -5 -3 -8 -7 -8h-14c-6 0 -9 4 -9 9c0 42 28 72 76 72c29 0 52 -12 75 -26c21 -14 39 -26 62 -26z" />
    <glyph glyph-name="Nsmalltilde.2" unicode="&#xe0d0;" horiz-adv-x="652" 
d="M533 537c0 4 3 7 7 7h28c4 0 7 -3 7 -7v-530c0 -4 -3 -7 -7 -7h-28c-4 0 -7 3 -7 7v19c0 71 -153 180 -226 234c-68 52 -149 113 -189 174v-427c0 -4 -3 -7 -7 -7h-28c-4 0 -7 3 -7 7v530c0 4 3 7 7 7h28c4 0 7 -3 7 -7v-21c0 -59 106 -145 211 -222
c77 -58 159 -117 204 -185v428zM393 718c38 0 46 22 48 38c0 6 3 8 7 8h14c6 0 9 -4 9 -8c0 -43 -28 -72 -75 -72c-27 0 -49 12 -73 27c-20 13 -40 25 -64 25c-39 0 -47 -23 -49 -39c0 -5 -3 -8 -7 -8h-14c-6 0 -9 4 -9 9c0 42 28 72 76 72c29 0 52 -12 75 -26
c21 -14 39 -26 62 -26z" />
    <glyph glyph-name="Nsmalltilde.3" unicode="&#xe0d1;" horiz-adv-x="609" 
d="M118 424h4c14 31 35 61 67 86c34 25 81 42 136 42c64 0 115 -16 151 -48c43 -38 64 -100 64 -186v-311c0 -4 -3 -7 -7 -7h-30c-3 0 -7 3 -7 7v304c0 72 -15 126 -52 161c-29 25 -70 40 -126 40c-71 0 -127 -28 -163 -85c-25 -40 -35 -88 -35 -133v-287c0 -4 -4 -7 -7 -7
h-30c-4 0 -7 3 -7 7v530c0 4 3 7 7 7h28c3 0 7 -3 7 -7v-113zM384 718c38 0 46 22 48 38c0 6 3 8 7 8h14c6 0 9 -4 9 -8c0 -43 -28 -72 -75 -72c-27 0 -49 12 -73 27c-20 13 -40 25 -64 25c-39 0 -47 -23 -49 -39c0 -5 -3 -8 -7 -8h-14c-6 0 -9 4 -9 9c0 42 28 72 76 72
c29 0 52 -12 75 -26c21 -14 39 -26 62 -26z" />
    <glyph glyph-name="Ntilde" unicode="&#xd1;" horiz-adv-x="738" 
d="M613 75v599c0 4 4 7 7 7h33c4 0 7 -3 7 -7v-667c0 -4 -3 -7 -7 -7h-34c-6 0 -9 1 -14 7l-480 597v-597c0 -4 -4 -7 -7 -7h-33c-4 0 -7 3 -7 7v667c0 4 3 7 7 7h33c6 0 9 -2 13 -8zM436 893c38 0 46 22 48 38c0 6 3 8 7 8h14c6 0 9 -4 9 -8c0 -43 -28 -72 -75 -72
c-27 0 -49 12 -73 27c-20 13 -40 25 -64 25c-39 0 -47 -23 -49 -39c0 -5 -3 -8 -7 -8h-14c-6 0 -9 4 -9 9c0 42 28 72 76 72c29 0 52 -12 75 -26c21 -14 39 -26 62 -26z" />
    <glyph glyph-name="Ntilde.2" unicode="&#xe0d2;" horiz-adv-x="771" 
d="M85 681h33c3 0 7 -3 7 -7v-23c0 -71 131 -179 265 -284c63 -49 125 -99 182 -155c30 -31 57 -60 74 -88v550c0 4 4 7 7 7h33c4 0 7 -3 7 -7v-667c0 -4 -3 -7 -7 -7h-33c-3 0 -7 3 -7 7v23c0 71 -152 193 -253 273c-64 51 -131 102 -194 164c-31 30 -58 59 -74 88v-548
c0 -4 -4 -7 -7 -7h-33c-4 0 -7 3 -7 7v667c0 4 3 7 7 7zM453 893c38 0 46 22 48 38c0 6 3 8 7 8h14c6 0 9 -4 9 -8c0 -43 -28 -72 -75 -72c-27 0 -49 12 -73 27c-20 13 -40 25 -64 25c-39 0 -47 -23 -49 -39c0 -5 -3 -8 -7 -8h-14c-6 0 -9 4 -9 9c0 42 28 72 76 72
c29 0 52 -12 75 -26c21 -14 39 -26 62 -26z" />
    <glyph glyph-name="Ntilde.3" unicode="&#xe0d3;" horiz-adv-x="723" 
d="M124 525h5c16 40 43 82 83 113c41 31 99 52 169 52c81 0 142 -19 187 -59c53 -47 80 -126 80 -233v-391c0 -4 -3 -7 -7 -7h-34c-4 0 -7 3 -7 7v385c0 93 -19 160 -66 203c-36 33 -87 51 -158 51c-89 0 -160 -34 -206 -107c-31 -50 -44 -111 -44 -170v-362
c0 -4 -3 -7 -7 -7h-34c-4 0 -7 3 -7 7v667c0 4 3 7 7 7h32c4 0 7 -3 7 -7v-149zM441 893c38 0 46 22 48 38c0 6 3 8 7 8h14c6 0 9 -4 9 -8c0 -43 -28 -72 -75 -72c-27 0 -49 12 -73 27c-20 13 -40 25 -64 25c-39 0 -47 -23 -49 -39c0 -5 -3 -8 -7 -8h-14c-6 0 -9 4 -9 9
c0 42 28 72 76 72c29 0 52 -12 75 -26c21 -14 39 -26 62 -26z" />
    <glyph glyph-name="O" unicode="O" horiz-adv-x="805" 
d="M754 339c0 -193 -158 -349 -352 -349s-352 156 -352 349s158 351 352 351s352 -158 352 -351zM704 339c0 165 -133 306 -302 306s-301 -141 -301 -306c0 -167 132 -305 301 -305s302 139 302 305z" />
    <glyph glyph-name="OE" unicode="&#x152;" horiz-adv-x="1214" 
d="M712 681h461c4 0 7 -3 7 -7v-29c0 -3 -3 -7 -7 -7h-420v-271v-5h369c3 0 7 -4 7 -7v-29c0 -4 -4 -7 -7 -7h-369v-9v-268h420c4 0 7 -3 7 -7v-28c0 -4 -3 -7 -7 -7h-461c-4 0 -7 3 -7 7v154c-62 -103 -174 -171 -303 -171c-194 0 -352 156 -352 349s158 351 352 351
c129 0 241 -70 303 -173v157c0 4 3 7 7 7zM704 339c0 165 -133 306 -302 306s-301 -141 -301 -306c0 -167 132 -305 301 -305s302 139 302 305z" />
    <glyph glyph-name="OE.1" unicode="&#xe0d4;" horiz-adv-x="1198" 
d="M1157 638h-170c-83 0 -147 -19 -186 -63c-45 -50 -48 -122 -48 -189v-19v-3h351c4 0 7 -3 7 -7v-29c0 -3 -3 -6 -7 -6h-351v-12v-16c0 -67 3 -138 48 -188c39 -45 103 -64 186 -64h170c4 0 7 -3 7 -7v-28c0 -4 -3 -7 -7 -7h-173c-97 0 -170 22 -217 73
c-29 30 -44 66 -53 105c-58 -112 -176 -188 -312 -188c-194 0 -352 156 -352 349s158 351 352 351c135 0 254 -77 312 -190c9 40 24 77 53 107c47 51 120 74 217 74h173c4 0 7 -3 7 -7v-29c0 -3 -3 -7 -7 -7zM704 339c0 165 -133 306 -302 306s-301 -141 -301 -306
c0 -167 132 -305 301 -305s302 139 302 305z" />
    <glyph glyph-name="OE.2" unicode="&#xe0d5;" horiz-adv-x="1251" 
d="M713 681h497c4 0 7 -3 7 -7v-29c0 -3 -3 -7 -7 -7h-456v-331h405c3 0 7 -4 7 -7v-29c0 -4 -4 -7 -7 -7h-405v-222h456c4 0 7 -3 7 -7v-28c0 -4 -3 -7 -7 -7h-497c-4 0 -7 3 -7 7v156c-61 -104 -175 -173 -304 -173c-194 0 -352 156 -352 349s158 351 352 351
c129 0 243 -71 304 -175v159c0 4 3 7 7 7zM704 339c0 165 -133 306 -302 306s-301 -141 -301 -306c0 -167 132 -305 301 -305s302 139 302 305z" />
    <glyph glyph-name="OE.3" unicode="&#xe0d6;" horiz-adv-x="1373" 
d="M402 690c143 0 267 -87 322 -210c14 42 36 80 68 115c53 57 130 95 231 95c104 0 185 -44 238 -114c37 -50 59 -111 65 -186c1 -15 2 -29 1 -45c-1 -9 -4 -10 -10 -10h-561c2 -81 25 -158 77 -213c52 -57 124 -89 211 -89c84 0 163 23 232 71c5 4 9 3 11 -1l13 -28
c2 -5 1 -7 -3 -10c-76 -49 -152 -74 -254 -74c-108 0 -191 36 -251 101c-29 31 -51 69 -66 111c-53 -125 -179 -213 -324 -213c-194 0 -352 156 -352 349s158 351 352 351zM703 349v14c-12 154 -141 282 -301 282c-169 0 -301 -141 -301 -306c0 -167 132 -305 301 -305
c163 0 293 130 301 289v26zM756 376h522c-5 152 -102 271 -254 271c-160 0 -258 -115 -268 -271z" />
    <glyph glyph-name="OEsmall" unicode="&#xf6fa;" horiz-adv-x="970" 
d="M574 544h370c3 0 7 -3 7 -7v-25c0 -3 -4 -7 -7 -7h-333v-197l1 -17h292c3 0 6 -3 6 -6v-25c0 -4 -3 -7 -6 -7h-292l-1 -17v-198h333c3 0 7 -3 7 -7v-24c0 -4 -4 -7 -7 -7h-370c-4 0 -7 3 -7 7v108c-6 -9 -12 -17 -19 -25c-51 -61 -128 -98 -218 -98
c-89 0 -167 37 -218 98c-40 48 -64 112 -64 182s24 133 64 181c51 62 129 99 218 99c90 0 167 -37 218 -99c7 -8 13 -17 19 -25v109c0 4 3 7 7 7zM93 272c0 -62 21 -116 57 -158c43 -50 107 -81 180 -81c74 0 138 31 181 81c31 36 51 82 56 135v45c-5 52 -25 99 -56 136
c-43 50 -107 81 -181 81c-73 0 -137 -31 -180 -81c-36 -42 -57 -97 -57 -158z" />
    <glyph glyph-name="OEsmall.2" unicode="&#xe0d7;" horiz-adv-x="1000" 
d="M574 544h400c3 0 7 -3 7 -7v-25c0 -3 -4 -7 -7 -7h-363v-197c1 -12 2 -24 2 -36c0 -7 0 -14 -1 -20h318c3 0 6 -3 6 -7v-25c0 -3 -3 -7 -6 -7h-319v-175h363c3 0 7 -3 7 -7v-24c0 -4 -4 -7 -7 -7h-400c-4 0 -7 3 -7 7v108c-6 -9 -12 -17 -19 -25
c-51 -61 -128 -98 -218 -98c-89 0 -167 37 -218 98c-40 48 -64 112 -64 182s24 133 64 181c51 62 129 99 218 99c90 0 167 -37 218 -99c7 -8 13 -17 19 -25v109c0 4 3 7 7 7zM93 272c0 -62 21 -116 57 -158c43 -50 107 -81 180 -81c74 0 138 31 181 81c31 36 51 82 56 135
v45c-5 52 -25 99 -56 136c-43 50 -107 81 -181 81c-73 0 -137 -31 -180 -81c-36 -42 -57 -97 -57 -158z" />
    <glyph glyph-name="OEsmall.3" unicode="&#xe0d8;" horiz-adv-x="1115" 
d="M824 552c77 0 141 -33 180 -77c45 -49 65 -118 64 -201c-1 -6 -4 -9 -10 -9h-443c3 -59 20 -114 50 -153c40 -51 102 -80 175 -80c75 0 135 24 181 57c5 3 9 4 12 -1l11 -24c2 -5 1 -8 -3 -11c-47 -30 -115 -61 -202 -61c-91 0 -161 33 -209 91c-17 21 -31 44 -42 71
c-10 -23 -24 -45 -40 -64c-51 -61 -128 -98 -218 -98c-89 0 -167 37 -218 98c-40 48 -64 112 -64 182s24 133 64 181c51 62 129 99 218 99c90 0 167 -37 218 -99c15 -18 28 -38 38 -60c11 28 27 55 47 78c43 49 106 81 191 81zM93 272c0 -62 21 -116 57 -158
c43 -50 107 -81 180 -81c74 0 138 31 181 81c32 38 53 86 56 140v25v14c-5 53 -25 100 -56 137c-43 50 -107 81 -181 81c-73 0 -137 -31 -180 -81c-36 -42 -57 -97 -57 -158zM615 301h407c-2 60 -20 113 -52 148c-33 35 -86 62 -145 62c-71 0 -123 -27 -159 -71
c-30 -37 -47 -88 -51 -139z" />
    <glyph glyph-name="Oacute" unicode="&#xd3;" horiz-adv-x="805" 
d="M754 339c0 -193 -158 -349 -352 -349s-352 156 -352 349s158 351 352 351s352 -158 352 -351zM704 339c0 165 -133 306 -302 306s-301 -141 -301 -306c0 -167 132 -305 301 -305s302 139 302 305zM439 968h31c8 0 7 -7 4 -12l-106 -174c-3 -5 -6 -7 -11 -7h-21
c-9 0 -6 7 -3 13l97 173c2 4 4 7 9 7z" />
    <glyph glyph-name="Ocircumflex" unicode="&#xd4;" horiz-adv-x="805" 
d="M754 339c0 -193 -158 -349 -352 -349s-352 156 -352 349s158 351 352 351s352 -158 352 -351zM704 339c0 165 -133 306 -302 306s-301 -141 -301 -306c0 -167 132 -305 301 -305s302 139 302 305zM393 967h16c5 0 7 -2 10 -6l161 -178c4 -5 3 -9 -3 -9h-26
c-6 0 -9 1 -13 6l-137 150l-138 -150c-4 -5 -6 -6 -12 -6h-26c-7 0 -8 4 -4 9l162 178c3 4 5 6 10 6z" />
    <glyph glyph-name="Odieresis" unicode="&#xd6;" horiz-adv-x="805" 
d="M754 339c0 -193 -158 -349 -352 -349s-352 156 -352 349s158 351 352 351s352 -158 352 -351zM704 339c0 165 -133 306 -302 306s-301 -141 -301 -306c0 -167 132 -305 301 -305s302 139 302 305zM319 845c-16 0 -28 13 -28 29c0 15 12 27 28 27c15 0 27 -12 27 -27
c0 -16 -12 -29 -27 -29zM485 845c-16 0 -28 13 -28 29c0 15 12 27 28 27c15 0 27 -12 27 -27c0 -16 -12 -29 -27 -29z" />
    <glyph glyph-name="Ograve" unicode="&#xd2;" horiz-adv-x="805" 
d="M754 339c0 -193 -158 -349 -352 -349s-352 156 -352 349s158 351 352 351s352 -158 352 -351zM704 339c0 165 -133 306 -302 306s-301 -141 -301 -306c0 -167 132 -305 301 -305s302 139 302 305zM333 968h31c5 0 7 -3 9 -7l97 -173c2 -4 6 -13 -3 -13h-22
c-5 0 -7 2 -10 7l-106 174c-3 5 -3 11 4 12z" />
    <glyph glyph-name="Ohungarumlaut" unicode="&#x150;" horiz-adv-x="805" 
d="M754 339c0 -193 -158 -349 -352 -349s-352 156 -352 349s158 351 352 351s352 -158 352 -351zM704 339c0 165 -133 306 -302 306s-301 -141 -301 -306c0 -167 132 -305 301 -305s302 139 302 305zM525 968h31c3 0 6 -2 6 -5c0 -1 -1 -4 -3 -7l-115 -175
c-4 -5 -5 -6 -10 -6h-22c-3 0 -6 1 -6 4c0 2 1 4 3 7l106 175c2 4 5 7 10 7zM385 968h30c4 0 7 -2 7 -5c0 -1 -2 -4 -4 -7l-116 -175c-3 -5 -4 -6 -9 -6h-23c-2 0 -5 1 -5 4c0 2 1 4 3 7l107 175c2 4 5 7 10 7z" />
    <glyph glyph-name="Omacron" unicode="&#x14c;" horiz-adv-x="805" 
d="M754 339c0 -193 -158 -349 -352 -349s-352 156 -352 349s158 351 352 351s352 -158 352 -351zM704 339c0 165 -133 306 -302 306s-301 -141 -301 -306c0 -167 132 -305 301 -305s302 139 302 305zM285 904h233c4 0 7 -4 7 -7v-24c0 -4 -3 -7 -7 -7h-233c-4 0 -7 3 -7 7
v24c0 3 3 7 7 7z" />
    <glyph glyph-name="Omega" unicode="&#x2126;" horiz-adv-x="756" 
d="M378 690c168 0 283 -94 283 -282c0 -109 -46 -187 -96 -246c-52 -61 -86 -92 -97 -124h197c4 0 7 -3 7 -7v-24c0 -4 -3 -7 -7 -7h-232c-3 0 -6 3 -6 7v20c0 37 38 66 96 141c43 54 90 130 90 234c0 164 -90 246 -235 246s-235 -82 -235 -246c0 -103 46 -179 89 -234
c58 -75 97 -104 97 -141v-20c0 -4 -3 -7 -6 -7h-232c-4 0 -7 3 -7 7v24c0 4 3 7 7 7h197c-11 32 -45 63 -97 124c-50 59 -97 137 -97 246c0 188 115 282 284 282z" />
    <glyph glyph-name="Oslash" unicode="&#xd8;" horiz-adv-x="805" 
d="M754 339c0 -193 -158 -349 -352 -349c-81 0 -156 27 -216 73l-48 -56c-3 -4 -5 -7 -10 -7h-29c-5 0 -9 3 -4 8l66 77c-68 63 -111 153 -111 254c0 193 158 351 352 351c81 0 156 -28 215 -74l50 58c3 3 6 7 11 7h27c5 0 8 -6 4 -10l-66 -77c68 -64 111 -155 111 -255z
M704 339c0 84 -35 163 -92 219l-396 -460c51 -40 115 -64 186 -64c169 0 302 139 302 305zM101 339c0 -85 34 -163 90 -219l396 460c-51 40 -115 65 -185 65c-169 0 -301 -141 -301 -306z" />
    <glyph glyph-name="Osmall" unicode="&#xf76f;" horiz-adv-x="662" 
d="M93 272c0 -62 21 -116 57 -158c43 -50 107 -81 180 -81c74 0 138 31 181 81c36 42 57 96 57 158c0 61 -21 116 -57 158c-43 50 -107 81 -181 81c-73 0 -137 -31 -180 -81c-36 -42 -57 -97 -57 -158zM48 272c0 70 24 133 64 181c51 62 129 99 218 99c90 0 167 -37 218 -99
c41 -48 65 -111 65 -181s-24 -134 -65 -182c-51 -61 -128 -98 -218 -98c-89 0 -167 37 -218 98c-40 48 -64 112 -64 182z" />
    <glyph glyph-name="Osmallacute" unicode="&#xe0d9;" horiz-adv-x="662" 
d="M93 272c0 -62 21 -116 57 -158c43 -50 107 -81 180 -81c74 0 138 31 181 81c36 42 57 96 57 158c0 61 -21 116 -57 158c-43 50 -107 81 -181 81c-73 0 -137 -31 -180 -81c-36 -42 -57 -97 -57 -158zM48 272c0 70 24 133 64 181c51 62 129 99 218 99c90 0 167 -37 218 -99
c41 -48 65 -111 65 -181s-24 -134 -65 -182c-51 -61 -128 -98 -218 -98c-89 0 -167 37 -218 98c-40 48 -64 112 -64 182zM368 825h31c8 0 7 -7 4 -12l-106 -174c-3 -5 -6 -7 -11 -7h-21c-9 0 -6 7 -3 13l97 173c2 4 4 7 9 7z" />
    <glyph glyph-name="Osmallcircumflex" unicode="&#xe0da;" horiz-adv-x="662" 
d="M93 272c0 -62 21 -116 57 -158c43 -50 107 -81 180 -81c74 0 138 31 181 81c36 42 57 96 57 158c0 61 -21 116 -57 158c-43 50 -107 81 -181 81c-73 0 -137 -31 -180 -81c-36 -42 -57 -97 -57 -158zM48 272c0 70 24 133 64 181c51 62 129 99 218 99c90 0 167 -37 218 -99
c41 -48 65 -111 65 -181s-24 -134 -65 -182c-51 -61 -128 -98 -218 -98c-89 0 -167 37 -218 98c-40 48 -64 112 -64 182zM322 825h16c5 0 7 -2 10 -6l161 -178c4 -5 3 -9 -3 -9h-26c-6 0 -9 1 -13 6l-137 150l-138 -150c-4 -5 -6 -6 -12 -6h-26c-7 0 -8 4 -4 9l162 178
c3 4 5 6 10 6z" />
    <glyph glyph-name="Osmalldieresis" unicode="&#xe0db;" horiz-adv-x="662" 
d="M93 272c0 -62 21 -116 57 -158c43 -50 107 -81 180 -81c74 0 138 31 181 81c36 42 57 96 57 158c0 61 -21 116 -57 158c-43 50 -107 81 -181 81c-73 0 -137 -31 -180 -81c-36 -42 -57 -97 -57 -158zM48 272c0 70 24 133 64 181c51 62 129 99 218 99c90 0 167 -37 218 -99
c41 -48 65 -111 65 -181s-24 -134 -65 -182c-51 -61 -128 -98 -218 -98c-89 0 -167 37 -218 98c-40 48 -64 112 -64 182zM248 702c-16 0 -28 13 -28 29c0 15 12 27 28 27c15 0 27 -12 27 -27c0 -16 -12 -29 -27 -29zM414 702c-16 0 -28 13 -28 29c0 15 12 27 28 27
c15 0 27 -12 27 -27c0 -16 -12 -29 -27 -29z" />
    <glyph glyph-name="Osmallgrave" unicode="&#xe0dc;" horiz-adv-x="662" 
d="M93 272c0 -62 21 -116 57 -158c43 -50 107 -81 180 -81c74 0 138 31 181 81c36 42 57 96 57 158c0 61 -21 116 -57 158c-43 50 -107 81 -181 81c-73 0 -137 -31 -180 -81c-36 -42 -57 -97 -57 -158zM48 272c0 70 24 133 64 181c51 62 129 99 218 99c90 0 167 -37 218 -99
c41 -48 65 -111 65 -181s-24 -134 -65 -182c-51 -61 -128 -98 -218 -98c-89 0 -167 37 -218 98c-40 48 -64 112 -64 182zM262 825h31c5 0 7 -3 9 -7l97 -173c2 -4 6 -13 -3 -13h-22c-5 0 -7 2 -10 7l-106 174c-3 5 -3 11 4 12z" />
    <glyph glyph-name="Osmallhungarumlaut" unicode="&#xe0dd;" horiz-adv-x="662" 
d="M93 272c0 -62 21 -116 57 -158c43 -50 107 -81 180 -81c74 0 138 31 181 81c36 42 57 96 57 158c0 61 -21 116 -57 158c-43 50 -107 81 -181 81c-73 0 -137 -31 -180 -81c-36 -42 -57 -97 -57 -158zM48 272c0 70 24 133 64 181c51 62 129 99 218 99c90 0 167 -37 218 -99
c41 -48 65 -111 65 -181s-24 -134 -65 -182c-51 -61 -128 -98 -218 -98c-89 0 -167 37 -218 98c-40 48 -64 112 -64 182zM460 825h31c3 0 6 -2 6 -5c0 -1 -1 -4 -3 -7l-115 -175c-4 -5 -5 -6 -10 -6h-22c-3 0 -6 1 -6 4c0 2 1 4 3 7l106 175c2 4 5 7 10 7zM320 825h30
c4 0 7 -2 7 -5c0 -1 -2 -4 -4 -7l-116 -175c-3 -5 -4 -6 -9 -6h-23c-2 0 -5 1 -5 4c0 2 1 4 3 7l107 175c2 4 5 7 10 7z" />
    <glyph glyph-name="Osmallmacron" unicode="&#xe0de;" horiz-adv-x="662" 
d="M93 272c0 -62 21 -116 57 -158c43 -50 107 -81 180 -81c74 0 138 31 181 81c36 42 57 96 57 158c0 61 -21 116 -57 158c-43 50 -107 81 -181 81c-73 0 -137 -31 -180 -81c-36 -42 -57 -97 -57 -158zM48 272c0 70 24 133 64 181c51 62 129 99 218 99c90 0 167 -37 218 -99
c41 -48 65 -111 65 -181s-24 -134 -65 -182c-51 -61 -128 -98 -218 -98c-89 0 -167 37 -218 98c-40 48 -64 112 -64 182zM214 741h233c4 0 7 -4 7 -7v-24c0 -4 -3 -7 -7 -7h-233c-4 0 -7 3 -7 7v24c0 3 3 7 7 7z" />
    <glyph glyph-name="Osmallslash" unicode="&#xe15a;" horiz-adv-x="661" 
d="M48 272c0 70 24 133 64 181c51 62 129 99 218 99c68 0 129 -21 177 -59l39 46c3 4 5 6 10 6h21c6 0 8 -5 3 -10l-52 -61l20 -21c41 -48 65 -111 65 -181s-24 -134 -65 -182c-51 -61 -128 -98 -218 -98c-65 0 -123 19 -170 53l-34 -39c-4 -4 -6 -6 -11 -6h-21
c-6 0 -8 4 -3 10l46 53c-9 8 -17 17 -25 27c-40 48 -64 112 -64 182zM93 272c0 -62 21 -116 57 -158c5 -6 10 -12 16 -17l313 364c-40 31 -92 50 -149 50c-73 0 -137 -31 -180 -81c-36 -42 -57 -97 -57 -158zM511 430l-11 12l-312 -364c39 -28 88 -45 142 -45
c74 0 138 31 181 81c36 42 57 96 57 158c0 61 -21 116 -57 158z" />
    <glyph glyph-name="Osmalltilde" unicode="&#xe0df;" horiz-adv-x="662" 
d="M93 272c0 -62 21 -116 57 -158c43 -50 107 -81 180 -81c74 0 138 31 181 81c36 42 57 96 57 158c0 61 -21 116 -57 158c-43 50 -107 81 -181 81c-73 0 -137 -31 -180 -81c-36 -42 -57 -97 -57 -158zM48 272c0 70 24 133 64 181c51 62 129 99 218 99c90 0 167 -37 218 -99
c41 -48 65 -111 65 -181s-24 -134 -65 -182c-51 -61 -128 -98 -218 -98c-89 0 -167 37 -218 98c-40 48 -64 112 -64 182zM398 718c38 0 46 22 48 38c0 6 3 8 7 8h14c6 0 9 -4 9 -8c0 -43 -28 -72 -75 -72c-27 0 -49 12 -73 27c-20 13 -40 25 -64 25c-39 0 -47 -23 -49 -39
c0 -5 -3 -8 -7 -8h-14c-6 0 -9 4 -9 9c0 42 28 72 76 72c29 0 52 -12 75 -26c21 -14 39 -26 62 -26z" />
    <glyph glyph-name="Otilde" unicode="&#xd5;" horiz-adv-x="805" 
d="M754 339c0 -193 -158 -349 -352 -349s-352 156 -352 349s158 351 352 351s352 -158 352 -351zM704 339c0 165 -133 306 -302 306s-301 -141 -301 -306c0 -167 132 -305 301 -305s302 139 302 305zM468 893c38 0 46 22 48 38c0 6 3 8 7 8h14c6 0 9 -4 9 -8
c0 -43 -28 -72 -75 -72c-27 0 -49 12 -73 27c-20 13 -40 25 -64 25c-39 0 -47 -23 -49 -39c0 -5 -3 -8 -7 -8h-14c-6 0 -9 4 -9 9c0 42 28 72 76 72c29 0 52 -12 75 -26c21 -14 39 -26 62 -26z" />
    <glyph glyph-name="P" unicode="P" horiz-adv-x="615" 
d="M529 464c0 64 -25 110 -66 139c-36 26 -76 36 -127 36h-210v-350h196c49 0 98 5 136 31c44 30 71 82 71 144zM85 681h260c60 0 109 -11 154 -46c49 -37 78 -95 78 -171c0 -75 -32 -138 -84 -176c-48 -34 -105 -41 -163 -41h-204v-240c0 -4 -3 -7 -7 -7h-34
c-4 0 -7 3 -7 7v667c0 4 3 7 7 7z" />
    <glyph glyph-name="P.2" unicode="&#xe0e0;" horiz-adv-x="647" 
d="M561 464c0 64 -25 110 -66 139c-36 26 -76 36 -127 36h-242v-350h228c49 0 98 5 136 31c44 30 71 82 71 144zM85 681h292c60 0 109 -11 154 -46c49 -37 78 -95 78 -171c0 -75 -32 -138 -84 -176c-48 -34 -105 -41 -163 -41h-236v-240c0 -4 -3 -7 -7 -7h-34
c-4 0 -7 3 -7 7v667c0 4 3 7 7 7z" />
    <glyph glyph-name="Psmall" unicode="&#xf770;" horiz-adv-x="511" 
d="M433 371c0 48 -19 82 -48 106c-30 23 -66 29 -107 29h-158v-272h152c42 0 81 8 110 29c32 21 51 57 51 108zM83 544h199c54 0 98 -10 136 -41c37 -30 60 -74 60 -132c0 -61 -24 -105 -60 -133c-37 -29 -88 -42 -143 -42h-155v-189c0 -4 -4 -7 -7 -7h-30c-4 0 -7 3 -7 7
v530c0 4 3 7 7 7z" />
    <glyph glyph-name="Psmall.2" unicode="&#xe0e1;" horiz-adv-x="541" 
d="M463 371c0 48 -19 82 -48 106c-30 23 -66 29 -107 29h-188v-272h182c42 0 81 8 110 29c32 21 51 57 51 108zM83 544h229c54 0 98 -10 136 -41c37 -30 60 -74 60 -132c0 -61 -24 -105 -60 -133c-37 -29 -88 -42 -143 -42h-185v-189c0 -4 -4 -7 -7 -7h-30c-4 0 -7 3 -7 7
v530c0 4 3 7 7 7z" />
    <glyph glyph-name="Q" unicode="Q" horiz-adv-x="804" 
d="M772 -108c8 -2 10 -5 7 -10l-16 -29c-2 -3 -3 -5 -10 -5c-35 0 -210 62 -381 118c-7 2 -10 6 -10 13v15c-175 16 -312 166 -312 345c0 193 158 351 352 351s352 -158 352 -351c0 -179 -139 -330 -315 -345c0 -4 2 -7 10 -10c73 -26 251 -80 323 -92zM704 339
c0 165 -133 306 -302 306s-301 -141 -301 -306c0 -167 132 -305 301 -305s302 139 302 305z" />
    <glyph glyph-name="Qsmall" unicode="&#xf771;" horiz-adv-x="661" 
d="M370 -15c41 -14 97 -32 152 -47c59 -17 115 -31 149 -37c8 -1 10 -4 7 -9l-15 -25c-2 -3 -3 -6 -10 -6c-21 0 -85 20 -170 47c-54 17 -114 38 -178 59c-7 3 -9 6 -9 13v15c-75 7 -139 41 -184 95c-40 48 -64 112 -64 182s24 133 64 181c51 62 129 99 218 99
c90 0 167 -37 218 -99c41 -48 65 -111 65 -181s-24 -134 -65 -182c-46 -54 -111 -89 -187 -96c0 -3 2 -6 9 -9zM93 272c0 -62 21 -116 57 -158c43 -50 107 -81 180 -81c74 0 138 31 181 81c36 42 57 96 57 158c0 61 -21 116 -57 158c-43 50 -107 81 -181 81
c-73 0 -137 -31 -180 -81c-36 -42 -57 -97 -57 -158z" />
    <glyph glyph-name="R" unicode="R" horiz-adv-x="626" 
d="M507 318c-39 -26 -77 -35 -130 -37l214 -269c4 -6 4 -12 -4 -12h-38c-8 0 -10 1 -14 7l-215 273h-194v-273c0 -4 -3 -7 -7 -7h-34c-4 0 -7 3 -7 7v667c0 4 3 7 7 7h259c65 0 116 -6 163 -36c49 -30 81 -83 81 -165c0 -79 -33 -130 -81 -162zM335 640h-209v-319h205
c56 0 101 3 139 25c40 24 69 65 69 134c0 68 -28 111 -67 134c-39 22 -83 26 -137 26z" />
    <glyph glyph-name="R.2" unicode="&#xe0e2;" horiz-adv-x="710" 
d="M711 21c-28 -21 -62 -31 -102 -31c-72 0 -131 42 -179 99c-43 53 -77 118 -100 174h-204v-256c0 -4 -3 -7 -7 -7h-34c-4 0 -7 3 -7 7v667c0 4 3 7 7 7h265c71 0 130 -6 182 -37c54 -33 90 -86 90 -172c0 -83 -35 -135 -89 -170c-46 -28 -94 -35 -151 -37
c19 -45 48 -99 83 -144c40 -49 90 -87 145 -87c39 0 57 9 79 26c4 2 8 3 11 -1l14 -27c3 -4 2 -7 -3 -11zM347 640h-221v-337h221c62 0 110 5 153 29s73 67 73 140c0 72 -30 115 -72 139c-44 25 -91 29 -154 29z" />
    <glyph glyph-name="Racute" unicode="&#x154;" horiz-adv-x="626" 
d="M507 318c-39 -26 -77 -35 -130 -37l214 -269c4 -6 4 -12 -4 -12h-38c-8 0 -10 1 -14 7l-215 273h-194v-273c0 -4 -3 -7 -7 -7h-34c-4 0 -7 3 -7 7v667c0 4 3 7 7 7h259c65 0 116 -6 163 -36c49 -30 81 -83 81 -165c0 -79 -33 -130 -81 -162zM335 640h-209v-319h205
c56 0 101 3 139 25c40 24 69 65 69 134c0 68 -28 111 -67 134c-39 22 -83 26 -137 26zM354 968h31c8 0 7 -7 4 -12l-106 -174c-3 -5 -6 -7 -11 -7h-21c-9 0 -6 7 -3 13l97 173c2 4 4 7 9 7z" />
    <glyph glyph-name="Racute.2" unicode="&#xe0e3;" horiz-adv-x="710" 
d="M711 21c-28 -21 -62 -31 -102 -31c-72 0 -131 42 -179 99c-43 53 -77 118 -100 174h-204v-256c0 -4 -3 -7 -7 -7h-34c-4 0 -7 3 -7 7v667c0 4 3 7 7 7h265c71 0 130 -6 182 -37c54 -33 90 -86 90 -172c0 -83 -35 -135 -89 -170c-46 -28 -94 -35 -151 -37
c19 -45 48 -99 83 -144c40 -49 90 -87 145 -87c39 0 57 9 79 26c4 2 8 3 11 -1l14 -27c3 -4 2 -7 -3 -11zM347 640h-221v-337h221c62 0 110 5 153 29s73 67 73 140c0 72 -30 115 -72 139c-44 25 -91 29 -154 29zM375 968h31c8 0 7 -7 4 -12l-106 -174c-3 -5 -6 -7 -11 -7
h-21c-9 0 -6 7 -3 13l97 173c2 4 4 7 9 7z" />
    <glyph glyph-name="Rcaron" unicode="&#x158;" horiz-adv-x="626" 
d="M507 318c-39 -26 -77 -35 -130 -37l214 -269c4 -6 4 -12 -4 -12h-38c-8 0 -10 1 -14 7l-215 273h-194v-273c0 -4 -3 -7 -7 -7h-34c-4 0 -7 3 -7 7v667c0 4 3 7 7 7h259c65 0 116 -6 163 -36c49 -30 81 -83 81 -165c0 -79 -33 -130 -81 -162zM335 640h-209v-319h205
c56 0 101 3 139 25c40 24 69 65 69 134c0 68 -28 111 -67 134c-39 22 -83 26 -137 26zM323 774h-16c-5 0 -7 3 -10 6l-162 177c-4 5 -3 10 4 10h26c6 0 8 -2 12 -6l138 -149l137 149c4 4 7 6 13 6h26c6 0 7 -5 3 -10l-161 -177c-3 -3 -5 -6 -10 -6z" />
    <glyph glyph-name="Rcaron.2" unicode="&#xe0e4;" horiz-adv-x="710" 
d="M711 21c-28 -21 -62 -31 -102 -31c-72 0 -131 42 -179 99c-43 53 -77 118 -100 174h-204v-256c0 -4 -3 -7 -7 -7h-34c-4 0 -7 3 -7 7v667c0 4 3 7 7 7h265c71 0 130 -6 182 -37c54 -33 90 -86 90 -172c0 -83 -35 -135 -89 -170c-46 -28 -94 -35 -151 -37
c19 -45 48 -99 83 -144c40 -49 90 -87 145 -87c39 0 57 9 79 26c4 2 8 3 11 -1l14 -27c3 -4 2 -7 -3 -11zM347 640h-221v-337h221c62 0 110 5 153 29s73 67 73 140c0 72 -30 115 -72 139c-44 25 -91 29 -154 29zM346 774h-16c-5 0 -7 3 -10 6l-162 177c-4 5 -3 10 4 10h26
c6 0 8 -2 12 -6l138 -149l137 149c4 4 7 6 13 6h26c6 0 7 -5 3 -10l-161 -177c-3 -3 -5 -6 -10 -6z" />
    <glyph glyph-name="Rcommaaccent" unicode="&#x156;" horiz-adv-x="626" 
d="M507 318c-39 -26 -77 -35 -130 -37l214 -269c4 -6 4 -12 -4 -12h-38c-8 0 -10 1 -14 7l-215 273h-194v-273c0 -4 -3 -7 -7 -7h-34c-4 0 -7 3 -7 7v667c0 4 3 7 7 7h259c65 0 116 -6 163 -36c49 -30 81 -83 81 -165c0 -79 -33 -130 -81 -162zM335 640h-209v-319h205
c56 0 101 3 139 25c40 24 69 65 69 134c0 68 -28 111 -67 134c-39 22 -83 26 -137 26zM347 -107c0 -31 -21 -64 -49 -78c-5 -2 -8 -1 -11 3l-4 7c-3 4 -1 7 2 10c10 9 19 17 19 29c0 20 -23 20 -23 45c0 17 12 29 30 29c24 0 36 -20 36 -45z" />
    <glyph glyph-name="Rcommaaccent.2" unicode="&#xe0e5;" horiz-adv-x="710" 
d="M711 21c-28 -21 -62 -31 -102 -31c-72 0 -131 42 -179 99c-43 53 -77 118 -100 174h-204v-256c0 -4 -3 -7 -7 -7h-34c-4 0 -7 3 -7 7v667c0 4 3 7 7 7h265c71 0 130 -6 182 -37c54 -33 90 -86 90 -172c0 -83 -35 -135 -89 -170c-46 -28 -94 -35 -151 -37
c19 -45 48 -99 83 -144c40 -49 90 -87 145 -87c39 0 57 9 79 26c4 2 8 3 11 -1l14 -27c3 -4 2 -7 -3 -11zM347 640h-221v-337h221c62 0 110 5 153 29s73 67 73 140c0 72 -30 115 -72 139c-44 25 -91 29 -154 29zM384 -107c0 -31 -21 -64 -49 -78c-5 -2 -8 -1 -11 3l-4 7
c-3 4 -1 7 2 10c10 9 19 17 19 29c0 20 -23 20 -23 45c0 17 12 29 30 29c24 0 36 -20 36 -45z" />
    <glyph glyph-name="Rsmall" unicode="&#xf772;" horiz-adv-x="540" 
d="M485 382c0 -57 -20 -94 -52 -118c-31 -24 -75 -34 -121 -37l174 -216c4 -6 3 -11 -4 -11h-33c-7 0 -10 0 -13 6l-170 215h-146v-214c0 -4 -4 -7 -7 -7h-30c-4 0 -7 3 -7 7v530c0 4 3 7 7 7h210c42 0 83 -7 117 -24c45 -23 75 -67 75 -138zM291 506h-171v-248h166
c41 0 84 6 113 28c25 18 42 49 42 96c0 43 -14 72 -35 91c-29 25 -71 33 -115 33z" />
    <glyph glyph-name="Rsmall.2" unicode="&#xe0e6;" horiz-adv-x="568" 
d="M83 544h215c54 0 99 -11 136 -41s60 -74 60 -132s-21 -99 -54 -127c-33 -27 -80 -41 -130 -44c20 -51 43 -91 68 -119c30 -36 64 -54 103 -54c27 0 46 7 63 22c3 4 6 4 9 0l10 -19c2 -4 3 -6 -1 -10c-20 -19 -51 -29 -85 -29c-56 0 -99 27 -132 66c-36 41 -60 94 -79 139
h-146v-189c0 -4 -4 -7 -7 -7h-30c-4 0 -7 3 -7 7v530c0 4 3 7 7 7zM450 371c0 48 -20 82 -49 106c-30 23 -66 29 -107 29h-175v-272h170c42 0 80 8 110 29c31 21 51 57 51 108z" />
    <glyph glyph-name="Rsmallacute" unicode="&#xe0e7;" horiz-adv-x="540" 
d="M485 382c0 -57 -20 -94 -52 -118c-31 -24 -75 -34 -121 -37l174 -216c4 -6 3 -11 -4 -11h-33c-7 0 -10 0 -13 6l-170 215h-146v-214c0 -4 -4 -7 -7 -7h-30c-4 0 -7 3 -7 7v530c0 4 3 7 7 7h210c42 0 83 -7 117 -24c45 -23 75 -67 75 -138zM291 506h-171v-248h166
c41 0 84 6 113 28c25 18 42 49 42 96c0 43 -14 72 -35 91c-29 25 -71 33 -115 33zM306 825h31c8 0 7 -7 4 -12l-106 -174c-3 -5 -6 -7 -11 -7h-21c-9 0 -6 7 -3 13l97 173c2 4 4 7 9 7z" />
    <glyph glyph-name="Rsmallacute.2" unicode="&#xe0e8;" horiz-adv-x="568" 
d="M83 544h215c54 0 99 -11 136 -41s60 -74 60 -132s-21 -99 -54 -127c-33 -27 -80 -41 -130 -44c20 -51 43 -91 68 -119c30 -36 64 -54 103 -54c27 0 46 7 63 22c3 4 6 4 9 0l10 -19c2 -4 3 -6 -1 -10c-20 -19 -51 -29 -85 -29c-56 0 -99 27 -132 66c-36 41 -60 94 -79 139
h-146v-189c0 -4 -4 -7 -7 -7h-30c-4 0 -7 3 -7 7v530c0 4 3 7 7 7zM450 371c0 48 -20 82 -49 106c-30 23 -66 29 -107 29h-175v-272h170c42 0 80 8 110 29c31 21 51 57 51 108zM328 825h31c8 0 7 -7 4 -12l-106 -174c-3 -5 -6 -7 -11 -7h-21c-9 0 -6 7 -3 13l97 173
c2 4 4 7 9 7z" />
    <glyph glyph-name="Rsmallcaron" unicode="&#xe0e9;" horiz-adv-x="540" 
d="M485 382c0 -57 -20 -94 -52 -118c-31 -24 -75 -34 -121 -37l174 -216c4 -6 3 -11 -4 -11h-33c-7 0 -10 0 -13 6l-170 215h-146v-214c0 -4 -4 -7 -7 -7h-30c-4 0 -7 3 -7 7v530c0 4 3 7 7 7h210c42 0 83 -7 117 -24c45 -23 75 -67 75 -138zM291 506h-171v-248h166
c41 0 84 6 113 28c25 18 42 49 42 96c0 43 -14 72 -35 91c-29 25 -71 33 -115 33zM280 632h-16c-5 0 -7 3 -10 6l-162 177c-4 5 -3 10 4 10h26c6 0 8 -2 12 -6l138 -149l137 149c4 4 7 6 13 6h26c6 0 7 -5 3 -10l-161 -177c-3 -3 -5 -6 -10 -6z" />
    <glyph glyph-name="Rsmallcaron.2" unicode="&#xe0ea;" horiz-adv-x="568" 
d="M83 544h215c54 0 99 -11 136 -41s60 -74 60 -132s-21 -99 -54 -127c-33 -27 -80 -41 -130 -44c20 -51 43 -91 68 -119c30 -36 64 -54 103 -54c27 0 46 7 63 22c3 4 6 4 9 0l10 -19c2 -4 3 -6 -1 -10c-20 -19 -51 -29 -85 -29c-56 0 -99 27 -132 66c-36 41 -60 94 -79 139
h-146v-189c0 -4 -4 -7 -7 -7h-30c-4 0 -7 3 -7 7v530c0 4 3 7 7 7zM450 371c0 48 -20 82 -49 106c-30 23 -66 29 -107 29h-175v-272h170c42 0 80 8 110 29c31 21 51 57 51 108zM302 632h-16c-5 0 -7 3 -10 6l-162 177c-4 5 -3 10 4 10h26c6 0 8 -2 12 -6l138 -149l137 149
c4 4 7 6 13 6h26c6 0 7 -5 3 -10l-161 -177c-3 -3 -5 -6 -10 -6z" />
    <glyph glyph-name="Rsmallcommaaccent" unicode="&#xe0eb;" horiz-adv-x="540" 
d="M485 382c0 -57 -20 -94 -52 -118c-31 -24 -75 -34 -121 -37l174 -216c4 -6 3 -11 -4 -11h-33c-7 0 -10 0 -13 6l-170 215h-146v-214c0 -4 -4 -7 -7 -7h-30c-4 0 -7 3 -7 7v530c0 4 3 7 7 7h210c42 0 83 -7 117 -24c45 -23 75 -67 75 -138zM291 506h-171v-248h166
c41 0 84 6 113 28c25 18 42 49 42 96c0 43 -14 72 -35 91c-29 25 -71 33 -115 33zM296 -107c0 -31 -21 -64 -49 -78c-5 -2 -8 -1 -11 3l-4 7c-3 4 -1 7 2 10c10 9 19 17 19 29c0 20 -23 20 -23 45c0 17 12 29 30 29c24 0 36 -20 36 -45z" />
    <glyph glyph-name="Rsmallcommaaccent.2" unicode="&#xe0ec;" horiz-adv-x="568" 
d="M83 544h215c54 0 99 -11 136 -41s60 -74 60 -132s-21 -99 -54 -127c-33 -27 -80 -41 -130 -44c20 -51 43 -91 68 -119c30 -36 64 -54 103 -54c27 0 46 7 63 22c3 4 6 4 9 0l10 -19c2 -4 3 -6 -1 -10c-20 -19 -51 -29 -85 -29c-56 0 -99 27 -132 66c-36 41 -60 94 -79 139
h-146v-189c0 -4 -4 -7 -7 -7h-30c-4 0 -7 3 -7 7v530c0 4 3 7 7 7zM450 371c0 48 -20 82 -49 106c-30 23 -66 29 -107 29h-175v-272h170c42 0 80 8 110 29c31 21 51 57 51 108zM322 -107c0 -31 -21 -64 -49 -78c-5 -2 -8 -1 -11 3l-4 7c-3 4 -1 7 2 10c10 9 19 17 19 29
c0 20 -23 20 -23 45c0 17 12 29 30 29c24 0 36 -20 36 -45z" />
    <glyph glyph-name="S" unicode="S" horiz-adv-x="545" 
d="M272 -10c-103 0 -175 35 -223 66c-4 3 -6 6 -4 10l14 29c2 4 5 6 10 2c41 -27 104 -66 203 -66c54 0 97 13 127 35c36 27 54 67 54 115c0 58 -37 94 -87 117c-62 29 -128 36 -207 70c-63 27 -109 71 -109 145c0 52 18 95 53 124c39 35 99 53 179 53c72 0 141 -18 188 -47
c5 -2 6 -6 3 -10l-13 -28c-1 -4 -5 -5 -11 -2c-51 30 -115 45 -169 45c-67 0 -116 -16 -146 -44c-23 -22 -34 -53 -34 -89c0 -57 40 -90 104 -115c72 -27 140 -34 207 -69c48 -26 93 -72 93 -145c0 -66 -25 -116 -69 -149c-40 -31 -96 -47 -163 -47z" />
    <glyph glyph-name="Sacute" unicode="&#x15a;" horiz-adv-x="545" 
d="M272 -10c-103 0 -175 35 -223 66c-4 3 -6 6 -4 10l14 29c2 4 5 6 10 2c41 -27 104 -66 203 -66c54 0 97 13 127 35c36 27 54 67 54 115c0 58 -37 94 -87 117c-62 29 -128 36 -207 70c-63 27 -109 71 -109 145c0 52 18 95 53 124c39 35 99 53 179 53c72 0 141 -18 188 -47
c5 -2 6 -6 3 -10l-13 -28c-1 -4 -5 -5 -11 -2c-51 30 -115 45 -169 45c-67 0 -116 -16 -146 -44c-23 -22 -34 -53 -34 -89c0 -57 40 -90 104 -115c72 -27 140 -34 207 -69c48 -26 93 -72 93 -145c0 -66 -25 -116 -69 -149c-40 -31 -96 -47 -163 -47zM309 968h31
c8 0 7 -7 4 -12l-106 -174c-3 -5 -6 -7 -11 -7h-21c-9 0 -6 7 -3 13l97 173c2 4 4 7 9 7z" />
    <glyph glyph-name="Scaron" unicode="&#x160;" horiz-adv-x="545" 
d="M272 -10c-103 0 -175 35 -223 66c-4 3 -6 6 -4 10l14 29c2 4 5 6 10 2c41 -27 104 -66 203 -66c54 0 97 13 127 35c36 27 54 67 54 115c0 58 -37 94 -87 117c-62 29 -128 36 -207 70c-63 27 -109 71 -109 145c0 52 18 95 53 124c39 35 99 53 179 53c72 0 141 -18 188 -47
c5 -2 6 -6 3 -10l-13 -28c-1 -4 -5 -5 -11 -2c-51 30 -115 45 -169 45c-67 0 -116 -16 -146 -44c-23 -22 -34 -53 -34 -89c0 -57 40 -90 104 -115c72 -27 140 -34 207 -69c48 -26 93 -72 93 -145c0 -66 -25 -116 -69 -149c-40 -31 -96 -47 -163 -47zM278 779h-16
c-5 0 -7 3 -10 6l-162 177c-4 5 -3 10 4 10h26c6 0 8 -2 12 -6l138 -149l137 149c4 4 7 6 13 6h26c6 0 7 -5 3 -10l-161 -177c-3 -3 -5 -6 -10 -6z" />
    <glyph glyph-name="Scedilla" unicode="&#x15e;" horiz-adv-x="545" 
d="M370 -108c0 -64 -66 -82 -113 -82c-14 0 -25 1 -34 4c-4 0 -7 2 -7 6v14c0 3 2 6 7 6c6 0 13 -3 34 -3c37 0 81 15 81 56c0 34 -35 46 -67 46c-12 0 -10 0 -19 -1l4 53c-95 3 -162 35 -207 65c-4 3 -6 6 -4 10l14 29c2 4 5 6 10 2c41 -27 104 -66 203 -66
c54 0 97 13 127 35c36 27 54 67 54 115c0 58 -37 94 -87 117c-62 29 -128 36 -207 70c-63 27 -109 71 -109 145c0 52 18 95 53 124c39 35 99 53 179 53c72 0 141 -18 188 -47c5 -2 6 -6 3 -10l-13 -28c-1 -4 -5 -5 -11 -2c-51 30 -115 45 -169 45c-67 0 -116 -16 -146 -44
c-23 -22 -34 -53 -34 -89c0 -57 40 -90 104 -115c72 -27 140 -34 207 -69c48 -26 93 -72 93 -145c0 -66 -25 -116 -69 -149c-38 -30 -91 -45 -153 -47v-29c46 -1 88 -22 88 -69z" />
    <glyph glyph-name="Scommaaccent" unicode="&#x218;" horiz-adv-x="545" 
d="M272 -10c-103 0 -175 35 -223 66c-4 3 -6 6 -4 10l14 29c2 4 5 6 10 2c41 -27 104 -66 203 -66c54 0 97 13 127 35c36 27 54 67 54 115c0 58 -37 94 -87 117c-62 29 -128 36 -207 70c-63 27 -109 71 -109 145c0 52 18 95 53 124c39 35 99 53 179 53c72 0 141 -18 188 -47
c5 -2 6 -6 3 -10l-13 -28c-1 -4 -5 -5 -11 -2c-51 30 -115 45 -169 45c-67 0 -116 -16 -146 -44c-23 -22 -34 -53 -34 -89c0 -57 40 -90 104 -115c72 -27 140 -34 207 -69c48 -26 93 -72 93 -145c0 -66 -25 -116 -69 -149c-40 -31 -96 -47 -163 -47zM306 -107
c0 -31 -21 -64 -49 -78c-5 -2 -8 -1 -11 3l-4 7c-3 4 -1 7 2 10c10 9 19 17 19 29c0 20 -23 20 -23 45c0 17 12 29 30 29c24 0 36 -20 36 -45z" />
    <glyph glyph-name="Ssmall" unicode="&#xf773;" horiz-adv-x="452" 
d="M224 28c41 0 75 9 99 26c28 20 43 52 43 91c0 58 -44 85 -99 103c-55 19 -119 30 -165 60c-35 22 -58 54 -58 105c0 45 17 79 47 102c32 24 80 37 140 37c68 0 122 -23 150 -40c5 -2 5 -4 2 -9l-10 -23c-2 -4 -5 -5 -11 -2c-37 21 -79 38 -133 38c-47 0 -83 -9 -107 -27
c-23 -17 -35 -41 -35 -76c0 -53 37 -77 86 -95c58 -20 129 -32 179 -64c34 -22 58 -55 58 -107s-22 -93 -58 -120c-32 -23 -76 -35 -129 -35c-69 0 -131 19 -176 48c-4 3 -5 5 -2 9l10 23c3 4 6 6 11 2c46 -32 103 -46 158 -46z" />
    <glyph glyph-name="Ssmallacute" unicode="&#xe0ed;" horiz-adv-x="452" 
d="M224 28c41 0 75 9 99 26c28 20 43 52 43 91c0 58 -44 85 -99 103c-55 19 -119 30 -165 60c-35 22 -58 54 -58 105c0 45 17 79 47 102c32 24 80 37 140 37c68 0 122 -23 150 -40c5 -2 5 -4 2 -9l-10 -23c-2 -4 -5 -5 -11 -2c-37 21 -79 38 -133 38c-47 0 -83 -9 -107 -27
c-23 -17 -35 -41 -35 -76c0 -53 37 -77 86 -95c58 -20 129 -32 179 -64c34 -22 58 -55 58 -107s-22 -93 -58 -120c-32 -23 -76 -35 -129 -35c-69 0 -131 19 -176 48c-4 3 -5 5 -2 9l10 23c3 4 6 6 11 2c46 -32 103 -46 158 -46zM261 825h31c8 0 7 -7 4 -12l-106 -174
c-3 -5 -6 -7 -11 -7h-21c-9 0 -6 7 -3 13l97 173c2 4 4 7 9 7z" />
    <glyph glyph-name="Ssmallcaron" unicode="&#xe0ee;" horiz-adv-x="452" 
d="M224 28c41 0 75 9 99 26c28 20 43 52 43 91c0 58 -44 85 -99 103c-55 19 -119 30 -165 60c-35 22 -58 54 -58 105c0 45 17 79 47 102c32 24 80 37 140 37c68 0 122 -23 150 -40c5 -2 5 -4 2 -9l-10 -23c-2 -4 -5 -5 -11 -2c-37 21 -79 38 -133 38c-47 0 -83 -9 -107 -27
c-23 -17 -35 -41 -35 -76c0 -53 37 -77 86 -95c58 -20 129 -32 179 -64c34 -22 58 -55 58 -107s-22 -93 -58 -120c-32 -23 -76 -35 -129 -35c-69 0 -131 19 -176 48c-4 3 -5 5 -2 9l10 23c3 4 6 6 11 2c46 -32 103 -46 158 -46zM235 632h-16c-5 0 -7 3 -10 6l-162 177
c-4 5 -3 10 4 10h26c6 0 8 -1 12 -6l138 -149l137 149c4 5 7 6 13 6h26c6 0 7 -5 3 -10l-161 -177c-3 -3 -5 -6 -10 -6z" />
    <glyph glyph-name="Ssmallcedilla" unicode="&#xe0ef;" horiz-adv-x="452" 
d="M321 -108c0 -64 -66 -82 -113 -82c-14 0 -25 1 -34 4c-4 0 -7 2 -7 6v14c0 3 2 6 7 6c6 0 13 -3 34 -3c37 0 81 15 81 56c0 34 -35 46 -67 46c-12 0 -10 0 -19 -1l4 55c-63 2 -119 20 -160 47c-4 3 -5 5 -2 9l10 23c3 4 6 6 11 2c46 -32 103 -46 158 -46c41 0 75 9 99 26
c28 20 43 52 43 91c0 58 -44 85 -99 103c-55 19 -119 30 -165 60c-35 22 -58 54 -58 105c0 45 17 79 47 102c32 24 80 37 140 37c68 0 122 -23 150 -40c5 -2 5 -4 2 -9l-10 -23c-2 -4 -5 -5 -11 -2c-37 21 -79 38 -133 38c-47 0 -83 -9 -107 -27c-23 -17 -35 -41 -35 -76
c0 -53 37 -77 86 -95c58 -20 129 -32 179 -64c34 -22 58 -55 58 -107s-22 -93 -58 -120c-30 -22 -71 -33 -119 -35v-31c46 -1 88 -22 88 -69z" />
    <glyph glyph-name="Ssmallcommaaccent" unicode="&#xe0f0;" horiz-adv-x="452" 
d="M224 28c41 0 75 9 99 26c28 20 43 52 43 91c0 58 -44 85 -99 103c-55 19 -119 30 -165 60c-35 22 -58 54 -58 105c0 45 17 79 47 102c32 24 80 37 140 37c68 0 122 -23 150 -40c5 -2 5 -4 2 -9l-10 -23c-2 -4 -5 -5 -11 -2c-37 21 -79 38 -133 38c-47 0 -83 -9 -107 -27
c-23 -17 -35 -41 -35 -76c0 -53 37 -77 86 -95c58 -20 129 -32 179 -64c34 -22 58 -55 58 -107s-22 -93 -58 -120c-32 -23 -76 -35 -129 -35c-69 0 -131 19 -176 48c-4 3 -5 5 -2 9l10 23c3 4 6 6 11 2c46 -32 103 -46 158 -46zM268 -107c0 -31 -21 -64 -49 -78
c-5 -2 -8 -1 -11 3l-4 7c-3 4 -1 7 2 10c10 9 19 17 19 29c0 20 -23 20 -23 45c0 17 12 29 30 29c24 0 36 -20 36 -45z" />
    <glyph glyph-name="T" unicode="T" horiz-adv-x="547" 
d="M9 681h529c4 0 7 -3 7 -7v-29c0 -3 -3 -7 -7 -7h-241v-631c0 -4 -3 -7 -6 -7h-35c-3 0 -7 3 -7 7v631h-240c-4 0 -7 4 -7 7v29c0 4 3 7 7 7z" />
    <glyph glyph-name="T.2" unicode="&#xe0f1;" horiz-adv-x="670" 
d="M661 638h-269v-631c0 -4 -3 -7 -6 -7h-35c-3 0 -7 3 -7 7v631h-102c-120 0 -183 -16 -183 -65c0 -23 16 -43 53 -44c7 -1 8 -5 6 -9l-10 -20c-1 -3 -3 -5 -7 -5c-55 0 -90 35 -90 78c0 87 102 108 232 108h418c4 0 7 -3 7 -7v-29c0 -3 -3 -7 -7 -7z" />
    <glyph glyph-name="Tcaron" unicode="&#x164;" horiz-adv-x="547" 
d="M9 681h529c4 0 7 -3 7 -7v-29c0 -3 -3 -7 -7 -7h-241v-631c0 -4 -3 -7 -6 -7h-35c-3 0 -7 3 -7 7v631h-240c-4 0 -7 4 -7 7v29c0 4 3 7 7 7zM281 774h-16c-5 0 -7 3 -10 6l-162 177c-4 5 -3 10 4 10h26c6 0 8 -2 12 -6l138 -149l137 149c4 4 7 6 13 6h26c6 0 7 -5 3 -10
l-161 -177c-3 -3 -5 -6 -10 -6z" />
    <glyph glyph-name="Tcaron.2" unicode="&#xe0f2;" horiz-adv-x="670" 
d="M661 638h-269v-631c0 -4 -3 -7 -6 -7h-35c-3 0 -7 3 -7 7v631h-102c-120 0 -183 -16 -183 -65c0 -23 16 -43 53 -44c7 -1 8 -5 6 -9l-10 -20c-1 -3 -3 -5 -7 -5c-55 0 -90 35 -90 78c0 87 102 108 232 108h418c4 0 7 -3 7 -7v-29c0 -3 -3 -7 -7 -7zM377 774h-16
c-5 0 -7 3 -10 6l-162 177c-4 5 -3 10 4 10h26c6 0 8 -2 12 -6l138 -149l137 149c4 4 7 6 13 6h26c6 0 7 -5 3 -10l-161 -177c-3 -3 -5 -6 -10 -6z" />
    <glyph glyph-name="Tcommaaccent" unicode="&#x162;" horiz-adv-x="547" 
d="M9 681h529c4 0 7 -3 7 -7v-29c0 -3 -3 -7 -7 -7h-241v-631c0 -4 -3 -7 -6 -7h-35c-3 0 -7 3 -7 7v631h-240c-4 0 -7 4 -7 7v29c0 4 3 7 7 7zM307 -107c0 -31 -21 -64 -49 -78c-5 -2 -8 -1 -11 3l-4 7c-3 4 -1 7 2 10c10 9 19 17 19 29c0 20 -23 20 -23 45
c0 17 12 29 30 29c24 0 36 -20 36 -45z" />
    <glyph glyph-name="Tcommaaccent.2" unicode="&#xe0f3;" horiz-adv-x="670" 
d="M661 638h-269v-631c0 -4 -3 -7 -6 -7h-35c-3 0 -7 3 -7 7v631h-102c-120 0 -183 -16 -183 -65c0 -23 16 -43 53 -44c7 -1 8 -5 6 -9l-10 -20c-1 -3 -3 -5 -7 -5c-55 0 -90 35 -90 78c0 87 102 108 232 108h418c4 0 7 -3 7 -7v-29c0 -3 -3 -7 -7 -7zM402 -107
c0 -31 -21 -64 -49 -78c-5 -2 -8 -1 -11 3l-4 7c-3 4 -1 7 2 10c10 9 19 17 19 29c0 20 -23 20 -23 45c0 17 12 29 30 29c24 0 36 -20 36 -45z" />
    <glyph glyph-name="Thorn" unicode="&#xde;" horiz-adv-x="616" 
d="M78 -144v818c0 4 3 7 7 7h34c4 0 7 -3 7 -7v-141h219c60 0 109 -11 154 -45c49 -38 78 -95 78 -172c0 -74 -32 -138 -84 -175c-48 -34 -105 -42 -163 -42h-204v-243c0 -3 -3 -6 -7 -6h-34c-4 0 -7 3 -7 6zM529 316c0 62 -23 108 -63 137c-36 28 -78 38 -130 38h-210v-350
h196c50 0 100 6 138 33c43 30 69 82 69 142z" />
    <glyph glyph-name="Tsmall" unicode="&#xf774;" horiz-adv-x="453" 
d="M15 544h423c4 0 7 -3 7 -7v-25c0 -4 -3 -7 -7 -7h-190v-498c0 -4 -3 -7 -6 -7h-31c-3 0 -6 3 -6 7v498h-190c-4 0 -7 3 -7 7v25c0 4 3 7 7 7z" />
    <glyph glyph-name="Tsmall.2" unicode="&#xe0f4;" horiz-adv-x="571" 
d="M206 544h350c3 0 6 -3 6 -7v-25c0 -4 -3 -7 -6 -7h-230v-498c0 -4 -3 -7 -6 -7h-31c-3 0 -6 3 -6 7v498h-78c-101 0 -153 -14 -153 -54c0 -20 15 -33 47 -35c6 0 7 -4 5 -9l-10 -20c-1 -3 -4 -4 -8 -4c-52 3 -78 31 -78 69c0 74 88 92 198 92z" />
    <glyph glyph-name="Tsmallcaron" unicode="&#xe0f5;" horiz-adv-x="453" 
d="M15 544h423c4 0 7 -3 7 -7v-25c0 -4 -3 -7 -7 -7h-190v-498c0 -4 -3 -7 -6 -7h-31c-3 0 -6 3 -6 7v498h-190c-4 0 -7 3 -7 7v25c0 4 3 7 7 7zM234 632h-16c-5 0 -7 3 -10 6l-162 177c-4 5 -3 10 4 10h26c6 0 8 -2 12 -6l138 -149l137 149c4 4 7 6 13 6h26c6 0 7 -5 3 -10
l-161 -177c-3 -3 -5 -6 -10 -6z" />
    <glyph glyph-name="Tsmallcaron.2" unicode="&#xe0f6;" horiz-adv-x="571" 
d="M206 544h350c3 0 6 -3 6 -7v-25c0 -4 -3 -7 -6 -7h-230v-498c0 -4 -3 -7 -6 -7h-31c-3 0 -6 3 -6 7v498h-78c-101 0 -153 -14 -153 -54c0 -20 15 -33 47 -35c6 0 7 -4 5 -9l-10 -20c-1 -3 -4 -4 -8 -4c-52 3 -78 31 -78 69c0 74 88 92 198 92zM312 632h-16
c-5 0 -7 3 -10 6l-162 177c-4 5 -3 10 4 10h26c6 0 8 -2 12 -6l138 -149l137 149c4 4 7 6 13 6h26c6 0 7 -5 3 -10l-161 -177c-3 -3 -5 -6 -10 -6z" />
    <glyph glyph-name="Tsmallcommaaccent" unicode="&#xe0f7;" horiz-adv-x="453" 
d="M15 544h423c4 0 7 -3 7 -7v-25c0 -4 -3 -7 -7 -7h-190v-498c0 -4 -3 -7 -6 -7h-31c-3 0 -6 3 -6 7v498h-190c-4 0 -7 3 -7 7v25c0 4 3 7 7 7zM260 -107c0 -31 -21 -64 -49 -78c-5 -2 -8 -1 -11 3l-4 7c-3 4 -1 7 2 10c10 9 19 17 19 29c0 20 -23 20 -23 45
c0 17 12 29 30 29c24 0 36 -20 36 -45z" />
    <glyph glyph-name="Tsmallcommaaccent.2" unicode="&#xe0f8;" horiz-adv-x="571" 
d="M206 544h350c3 0 6 -3 6 -7v-25c0 -4 -3 -7 -6 -7h-230v-498c0 -4 -3 -7 -6 -7h-31c-3 0 -6 3 -6 7v498h-78c-101 0 -153 -14 -153 -54c0 -20 15 -33 47 -35c6 0 7 -4 5 -9l-10 -20c-1 -3 -4 -4 -8 -4c-52 3 -78 31 -78 69c0 74 88 92 198 92zM338 -107
c0 -31 -21 -64 -49 -78c-5 -2 -8 -1 -11 3l-4 7c-3 4 -1 7 2 10c10 9 19 17 19 29c0 20 -23 20 -23 45c0 17 12 29 30 29c24 0 36 -20 36 -45z" />
    <glyph glyph-name="U" unicode="U" horiz-adv-x="721" 
d="M596 276v398c0 4 3 7 7 7h34c4 0 7 -3 7 -7v-405c0 -81 -23 -149 -67 -196c-49 -53 -123 -83 -217 -83s-168 30 -216 83c-44 47 -68 115 -68 196v405c0 4 4 7 7 7h35c3 0 6 -3 6 -7v-398c0 -74 21 -134 60 -176c41 -44 100 -67 176 -67c77 0 136 23 176 67
c39 42 60 102 60 176z" />
    <glyph glyph-name="Uacute" unicode="&#xda;" horiz-adv-x="721" 
d="M596 276v398c0 4 3 7 7 7h34c4 0 7 -3 7 -7v-405c0 -81 -23 -149 -67 -196c-49 -53 -123 -83 -217 -83s-168 30 -216 83c-44 47 -68 115 -68 196v405c0 4 4 7 7 7h35c3 0 6 -3 6 -7v-398c0 -74 21 -134 60 -176c41 -44 100 -67 176 -67c77 0 136 23 176 67
c39 42 60 102 60 176zM397 968h31c8 0 7 -7 4 -12l-106 -174c-3 -5 -6 -7 -11 -7h-21c-9 0 -6 7 -3 13l97 173c2 4 4 7 9 7z" />
    <glyph glyph-name="Ucircumflex" unicode="&#xdb;" horiz-adv-x="721" 
d="M596 276v398c0 4 3 7 7 7h34c4 0 7 -3 7 -7v-405c0 -81 -23 -149 -67 -196c-49 -53 -123 -83 -217 -83s-168 30 -216 83c-44 47 -68 115 -68 196v405c0 4 4 7 7 7h35c3 0 6 -3 6 -7v-398c0 -74 21 -134 60 -176c41 -44 100 -67 176 -67c77 0 136 23 176 67
c39 42 60 102 60 176zM352 967h16c5 0 7 -2 10 -6l161 -178c4 -5 3 -9 -3 -9h-26c-6 0 -9 1 -13 6l-137 150l-138 -150c-4 -5 -6 -6 -12 -6h-26c-7 0 -8 4 -4 9l162 178c3 4 5 6 10 6z" />
    <glyph glyph-name="Udieresis" unicode="&#xdc;" horiz-adv-x="721" 
d="M596 276v398c0 4 3 7 7 7h34c4 0 7 -3 7 -7v-405c0 -81 -23 -149 -67 -196c-49 -53 -123 -83 -217 -83s-168 30 -216 83c-44 47 -68 115 -68 196v405c0 4 4 7 7 7h35c3 0 6 -3 6 -7v-398c0 -74 21 -134 60 -176c41 -44 100 -67 176 -67c77 0 136 23 176 67
c39 42 60 102 60 176zM278 845c-16 0 -28 13 -28 29c0 15 12 27 28 27c15 0 27 -12 27 -27c0 -16 -12 -29 -27 -29zM444 845c-16 0 -28 13 -28 29c0 15 12 27 28 27c15 0 27 -12 27 -27c0 -16 -12 -29 -27 -29z" />
    <glyph glyph-name="Ugrave" unicode="&#xd9;" horiz-adv-x="721" 
d="M596 276v398c0 4 3 7 7 7h34c4 0 7 -3 7 -7v-405c0 -81 -23 -149 -67 -196c-49 -53 -123 -83 -217 -83s-168 30 -216 83c-44 47 -68 115 -68 196v405c0 4 4 7 7 7h35c3 0 6 -3 6 -7v-398c0 -74 21 -134 60 -176c41 -44 100 -67 176 -67c77 0 136 23 176 67
c39 42 60 102 60 176zM292 968h31c5 0 7 -3 9 -7l97 -173c2 -4 6 -13 -3 -13h-22c-5 0 -7 2 -10 7l-106 174c-3 5 -3 11 4 12z" />
    <glyph glyph-name="Uhungarumlaut" unicode="&#x170;" horiz-adv-x="721" 
d="M596 276v398c0 4 3 7 7 7h34c4 0 7 -3 7 -7v-405c0 -81 -23 -149 -67 -196c-49 -53 -123 -83 -217 -83s-168 30 -216 83c-44 47 -68 115 -68 196v405c0 4 4 7 7 7h35c3 0 6 -3 6 -7v-398c0 -74 21 -134 60 -176c41 -44 100 -67 176 -67c77 0 136 23 176 67
c39 42 60 102 60 176zM492 968h31c3 0 6 -2 6 -5c0 -1 -1 -4 -3 -7l-115 -175c-4 -5 -5 -6 -10 -6h-22c-3 0 -6 1 -6 4c0 2 1 4 3 7l106 175c2 4 5 7 10 7zM352 968h30c4 0 7 -2 7 -5c0 -1 -2 -4 -4 -7l-116 -175c-3 -5 -4 -6 -9 -6h-23c-2 0 -5 1 -5 4c0 2 1 4 3 7l107 175
c2 4 5 7 10 7z" />
    <glyph glyph-name="Umacron" unicode="&#x16a;" horiz-adv-x="721" 
d="M596 276v398c0 4 3 7 7 7h34c4 0 7 -3 7 -7v-405c0 -81 -23 -149 -67 -196c-49 -53 -123 -83 -217 -83s-168 30 -216 83c-44 47 -68 115 -68 196v405c0 4 4 7 7 7h35c3 0 6 -3 6 -7v-398c0 -74 21 -134 60 -176c41 -44 100 -67 176 -67c77 0 136 23 176 67
c39 42 60 102 60 176zM243 904h233c4 0 7 -4 7 -7v-24c0 -4 -3 -7 -7 -7h-233c-4 0 -7 3 -7 7v24c0 3 3 7 7 7z" />
    <glyph glyph-name="Uogonek" unicode="&#x172;" horiz-adv-x="721" 
d="M281 -111c0 40 30 76 65 101c-88 3 -157 32 -202 83c-44 47 -68 115 -68 196v405c0 4 4 7 7 7h35c3 0 6 -3 6 -7v-398c0 -74 21 -134 60 -176c41 -44 100 -67 176 -67c77 0 136 23 176 67c39 42 60 102 60 176v398c0 4 3 7 7 7h34c4 0 7 -3 7 -7v-405
c0 -81 -23 -149 -67 -196c-46 -50 -114 -79 -200 -83c-31 -21 -61 -54 -61 -90c0 -29 20 -43 48 -43s42 9 50 9c4 0 5 -2 5 -5v-17c0 -5 -2 -6 -5 -8c-13 -6 -37 -11 -58 -11c-42 0 -75 19 -75 64z" />
    <glyph glyph-name="Uring" unicode="&#x16e;" horiz-adv-x="721" 
d="M596 276v398c0 4 3 7 7 7h34c4 0 7 -3 7 -7v-405c0 -81 -23 -149 -67 -196c-49 -53 -123 -83 -217 -83s-168 30 -216 83c-44 47 -68 115 -68 196v405c0 4 4 7 7 7h35c3 0 6 -3 6 -7v-398c0 -74 21 -134 60 -176c41 -44 100 -67 176 -67c77 0 136 23 176 67
c39 42 60 102 60 176zM473 864c0 -63 -50 -113 -112 -113c-63 0 -113 50 -113 113s50 113 113 113c62 0 112 -50 112 -113zM448 864c0 49 -39 88 -87 88c-49 0 -88 -39 -88 -88s39 -88 88 -88c48 0 87 38 87 88z" />
    <glyph glyph-name="Usmall" unicode="&#xf775;" horiz-adv-x="609" 
d="M540 537v-322c0 -71 -24 -131 -69 -170c-39 -35 -96 -53 -167 -53s-127 18 -167 53c-45 39 -68 99 -68 170v322c0 4 3 7 7 7h30c3 0 6 -3 7 -7v-320c0 -61 19 -109 56 -141c31 -29 78 -43 135 -43c58 0 104 14 136 43c37 33 56 80 56 141v320c0 4 3 7 7 7h30
c3 0 7 -3 7 -7z" />
    <glyph glyph-name="Usmallacute" unicode="&#xe0f9;" horiz-adv-x="609" 
d="M540 537v-322c0 -71 -24 -131 -69 -170c-39 -35 -96 -53 -167 -53s-127 18 -167 53c-45 39 -68 99 -68 170v322c0 4 3 7 7 7h30c3 0 6 -3 7 -7v-320c0 -61 19 -109 56 -141c31 -29 78 -43 135 -43c58 0 104 14 136 43c37 33 56 80 56 141v320c0 4 3 7 7 7h30
c3 0 7 -3 7 -7zM344 825h31c8 0 7 -7 4 -12l-106 -174c-3 -5 -6 -7 -11 -7h-21c-9 0 -6 7 -3 13l97 173c2 4 4 7 9 7z" />
    <glyph glyph-name="Usmallcircumflex" unicode="&#xe0fa;" horiz-adv-x="609" 
d="M540 537v-322c0 -71 -24 -131 -69 -170c-39 -35 -96 -53 -167 -53s-127 18 -167 53c-45 39 -68 99 -68 170v322c0 4 3 7 7 7h30c3 0 6 -3 7 -7v-320c0 -61 19 -109 56 -141c31 -29 78 -43 135 -43c58 0 104 14 136 43c37 33 56 80 56 141v320c0 4 3 7 7 7h30
c3 0 7 -3 7 -7zM296 825h16c5 0 7 -2 10 -6l161 -178c4 -5 3 -9 -3 -9h-26c-6 0 -9 1 -13 6l-137 150l-138 -150c-4 -5 -6 -6 -12 -6h-26c-7 0 -8 4 -4 9l162 178c3 4 5 6 10 6z" />
    <glyph glyph-name="Usmalldieresis" unicode="&#xe0fb;" horiz-adv-x="609" 
d="M540 537v-322c0 -71 -24 -131 -69 -170c-39 -35 -96 -53 -167 -53s-127 18 -167 53c-45 39 -68 99 -68 170v322c0 4 3 7 7 7h30c3 0 6 -3 7 -7v-320c0 -61 19 -109 56 -141c31 -29 78 -43 135 -43c58 0 104 14 136 43c37 33 56 80 56 141v320c0 4 3 7 7 7h30
c3 0 7 -3 7 -7zM222 702c-16 0 -28 13 -28 29c0 15 12 27 28 27c15 0 27 -12 27 -27c0 -16 -12 -29 -27 -29zM388 702c-16 0 -28 13 -28 29c0 15 12 27 28 27c15 0 27 -12 27 -27c0 -16 -12 -29 -27 -29z" />
    <glyph glyph-name="Usmallgrave" unicode="&#xe0fc;" horiz-adv-x="609" 
d="M540 537v-322c0 -71 -24 -131 -69 -170c-39 -35 -96 -53 -167 -53s-127 18 -167 53c-45 39 -68 99 -68 170v322c0 4 3 7 7 7h30c3 0 6 -3 7 -7v-320c0 -61 19 -109 56 -141c31 -29 78 -43 135 -43c58 0 104 14 136 43c37 33 56 80 56 141v320c0 4 3 7 7 7h30
c3 0 7 -3 7 -7zM233 825h31c5 0 7 -3 9 -7l97 -173c2 -4 6 -13 -3 -13h-22c-5 0 -7 2 -10 7l-106 174c-3 5 -3 11 4 12z" />
    <glyph glyph-name="Usmallhungarumlaut" unicode="&#xe0fd;" horiz-adv-x="609" 
d="M540 537v-322c0 -71 -24 -131 -69 -170c-39 -35 -96 -53 -167 -53s-127 18 -167 53c-45 39 -68 99 -68 170v322c0 4 3 7 7 7h30c3 0 6 -3 7 -7v-320c0 -61 19 -109 56 -141c31 -29 78 -43 135 -43c58 0 104 14 136 43c37 33 56 80 56 141v320c0 4 3 7 7 7h30
c3 0 7 -3 7 -7zM443 825h31c3 0 6 -2 6 -5c0 -1 -1 -4 -3 -7l-115 -175c-4 -5 -5 -6 -10 -6h-22c-3 0 -6 1 -6 4c0 2 1 4 3 7l106 175c2 4 5 7 10 7zM303 825h30c4 0 7 -2 7 -5c0 -1 -2 -4 -4 -7l-116 -175c-3 -5 -4 -6 -9 -6h-23c-2 0 -5 1 -5 4c0 2 1 4 3 7l107 175
c2 4 5 7 10 7z" />
    <glyph glyph-name="Usmallmacron" unicode="&#xe0fe;" horiz-adv-x="609" 
d="M540 537v-322c0 -71 -24 -131 -69 -170c-39 -35 -96 -53 -167 -53s-127 18 -167 53c-45 39 -68 99 -68 170v322c0 4 3 7 7 7h30c3 0 6 -3 7 -7v-320c0 -61 19 -109 56 -141c31 -29 78 -43 135 -43c58 0 104 14 136 43c37 33 56 80 56 141v320c0 4 3 7 7 7h30
c3 0 7 -3 7 -7zM187 741h233c4 0 7 -4 7 -7v-24c0 -4 -3 -7 -7 -7h-233c-4 0 -7 3 -7 7v24c0 3 3 7 7 7z" />
    <glyph glyph-name="Usmallogonek" unicode="&#xe0ff;" horiz-adv-x="609" 
d="M219 -111c0 42 32 79 68 104c-63 2 -113 20 -150 52c-45 39 -68 99 -68 170v322c0 4 3 7 7 7h30c3 0 6 -3 7 -7v-320c0 -61 19 -109 56 -141c31 -29 78 -43 135 -43c58 0 104 14 136 43c37 33 56 80 56 141v320c0 4 3 7 7 7h30c3 0 7 -3 7 -7v-322
c0 -71 -24 -131 -69 -170c-37 -33 -89 -51 -154 -53c-31 -21 -63 -55 -63 -92c0 -29 20 -43 48 -43s42 9 50 9c4 0 5 -2 5 -5v-17c0 -5 -2 -6 -5 -8c-13 -6 -37 -11 -58 -11c-42 0 -75 19 -75 64z" />
    <glyph glyph-name="Usmallring" unicode="&#xe100;" horiz-adv-x="609" 
d="M540 537v-322c0 -71 -24 -131 -69 -170c-39 -35 -96 -53 -167 -53s-127 18 -167 53c-45 39 -68 99 -68 170v322c0 4 3 7 7 7h30c3 0 6 -3 7 -7v-320c0 -61 19 -109 56 -141c31 -29 78 -43 135 -43c58 0 104 14 136 43c37 33 56 80 56 141v320c0 4 3 7 7 7h30
c3 0 7 -3 7 -7zM417 719c0 -63 -50 -113 -112 -113c-63 0 -113 50 -113 113s50 113 113 113c62 0 112 -50 112 -113zM392 719c0 49 -39 88 -87 88c-49 0 -88 -39 -88 -88s39 -88 88 -88c48 0 87 38 87 88z" />
    <glyph glyph-name="V" unicode="V" horiz-adv-x="607" 
d="M603 671l-271 -666c-2 -6 -5 -8 -11 -8h-36c-6 0 -9 2 -11 8l-270 666c-3 6 -1 10 5 10h37c5 0 8 -3 10 -7l246 -617h2l248 617c2 4 4 7 10 7h36c6 0 8 -4 5 -10z" />
    <glyph glyph-name="Vsmall" unicode="&#xf776;" horiz-adv-x="537" 
d="M241 5l-228 529c-2 4 -2 10 5 10h32c6 0 9 -3 10 -7l207 -485h2l206 485c2 4 4 7 10 7h33c6 0 6 -6 5 -10l-228 -529c-3 -6 -5 -8 -11 -8h-32c-6 0 -8 2 -11 8z" />
    <glyph glyph-name="W" unicode="W" horiz-adv-x="1087" 
d="M962 248v426c0 4 3 7 6 7h35c3 0 7 -3 7 -7v-425c0 -84 -23 -144 -59 -185c-46 -53 -116 -74 -186 -74c-45 0 -93 12 -133 41c-39 27 -71 69 -89 130c-18 -61 -50 -103 -89 -130c-40 -29 -88 -41 -133 -41c-70 0 -140 21 -186 74c-36 41 -59 101 -59 185v425c0 4 4 7 7 7
h35c3 0 6 -3 6 -7v-426c0 -72 18 -121 48 -155c39 -43 95 -59 151 -59c47 0 89 16 122 45c44 39 74 103 74 184v411c0 4 3 7 7 7h34c4 0 7 -3 7 -7v-411c0 -81 30 -145 74 -184c33 -29 75 -45 122 -45c56 0 112 16 151 59c30 34 48 83 48 155z" />
    <glyph glyph-name="W.2" unicode="&#xe101;" horiz-adv-x="993" 
d="M690 57l248 617c2 4 4 7 10 7h36c7 0 8 -5 5 -10l-271 -666c-2 -6 -5 -8 -11 -8h-36c-6 0 -8 1 -11 8l-164 402h-2l-164 -402c-2 -6 -5 -8 -11 -8h-36c-6 0 -9 2 -11 8l-270 666c-2 5 -1 10 5 10h36c6 0 9 -3 10 -7l247 -617h2l168 418l-80 196c-2 5 -1 10 6 10h36
c5 0 8 -3 10 -7l246 -617h2z" />
    <glyph glyph-name="W.calt" unicode="&#xe102;" horiz-adv-x="1017" 
d="M752 58l212 616c2 5 4 7 10 7h35c6 0 7 -6 5 -10l-233 -666c-3 -6 -5 -8 -11 -8h-38c-6 0 -9 2 -11 8l-212 592h-2l-210 -592c-3 -6 -5 -8 -12 -8h-37c-7 0 -9 2 -12 8l-234 666c-2 4 -2 10 5 10h36c5 0 8 -3 10 -7l213 -616h2l215 616c2 5 5 7 10 7h30c6 0 8 -3 10 -7
l217 -616h2z" />
    <glyph glyph-name="Wcircumflex" unicode="&#x174;" horiz-adv-x="1087" 
d="M962 248v426c0 4 3 7 6 7h35c3 0 7 -3 7 -7v-425c0 -84 -23 -144 -59 -185c-46 -53 -116 -74 -186 -74c-45 0 -93 12 -133 41c-39 27 -71 69 -89 130c-18 -61 -50 -103 -89 -130c-40 -29 -88 -41 -133 -41c-70 0 -140 21 -186 74c-36 41 -59 101 -59 185v425c0 4 4 7 7 7
h35c3 0 6 -3 6 -7v-426c0 -72 18 -121 48 -155c39 -43 95 -59 151 -59c47 0 89 16 122 45c44 39 74 103 74 184v411c0 4 3 7 7 7h34c4 0 7 -3 7 -7v-411c0 -81 30 -145 74 -184c33 -29 75 -45 122 -45c56 0 112 16 151 59c30 34 48 83 48 155zM534 967h16c5 0 7 -2 10 -6
l161 -178c4 -5 3 -9 -3 -9h-26c-6 0 -9 1 -13 6l-137 150l-138 -150c-4 -5 -6 -6 -12 -6h-26c-7 0 -8 4 -4 9l162 178c3 4 5 6 10 6z" />
    <glyph glyph-name="Wcircumflex.2" unicode="&#xe103;" horiz-adv-x="993" 
d="M690 57l248 617c2 4 4 7 10 7h36c7 0 8 -5 5 -10l-271 -666c-2 -6 -5 -8 -11 -8h-36c-6 0 -8 1 -11 8l-164 402h-2l-164 -402c-2 -6 -5 -8 -11 -8h-36c-6 0 -9 2 -11 8l-270 666c-2 5 -1 10 5 10h36c6 0 9 -3 10 -7l247 -617h2l168 418l-80 196c-2 5 -1 10 6 10h36
c5 0 8 -3 10 -7l246 -617h2zM487 967h16c5 0 7 -2 10 -6l161 -178c4 -5 3 -9 -3 -9h-26c-6 0 -9 1 -13 6l-137 150l-138 -150c-4 -5 -6 -6 -12 -6h-26c-7 0 -8 4 -4 9l162 178c3 4 5 6 10 6z" />
    <glyph glyph-name="Wcircumflex.calt" unicode="&#xe15c;" horiz-adv-x="1015" 
d="M500 967h16c5 0 7 -2 10 -6l161 -178c4 -5 3 -9 -3 -9h-26c-6 0 -9 1 -13 6l-137 150l-138 -150c-4 -5 -6 -6 -12 -6h-26c-7 0 -8 4 -4 9l162 178c3 4 5 6 10 6zM752 58l212 616c2 5 4 7 10 7h35c6 0 7 -6 5 -10l-233 -666c-3 -6 -5 -8 -11 -8h-38c-6 0 -9 2 -11 8
l-212 592h-2l-210 -592c-3 -6 -5 -8 -12 -8h-37c-7 0 -9 2 -12 8l-234 666c-2 4 -2 10 5 10h36c5 0 8 -3 10 -7l213 -616h2l215 616c2 5 5 7 10 7h30c6 0 8 -3 10 -7l217 -616h2z" />
    <glyph glyph-name="Wsmall" unicode="&#xf777;" horiz-adv-x="901" 
d="M429 217v320c0 4 3 7 6 7h31c3 0 6 -3 6 -7v-320c0 -61 17 -108 47 -141c26 -28 64 -43 112 -43c47 0 85 15 111 43c31 33 46 80 46 141v320c0 4 3 7 7 7h30c4 0 7 -3 7 -7v-322c0 -71 -20 -130 -58 -169c-34 -35 -82 -54 -143 -54c-53 0 -96 16 -127 45
c-25 22 -43 51 -53 87c-10 -36 -29 -65 -54 -87c-31 -29 -74 -45 -126 -45c-61 0 -109 19 -143 54c-39 39 -59 98 -59 169v322c0 4 3 7 7 7h30c3 0 7 -3 7 -7v-320c0 -61 16 -108 46 -141c27 -28 65 -43 112 -43s85 15 112 43c30 33 46 80 46 141z" />
    <glyph glyph-name="Wsmall.2" unicode="&#xe104;" horiz-adv-x="872" 
d="M588 5l-153 351l-153 -351c-2 -6 -5 -8 -11 -8h-29c-7 0 -9 2 -12 8l-225 525c-1 2 -3 7 -3 8c0 4 3 6 7 6h31c5 0 8 -3 10 -7l207 -487l155 364l-49 116c-1 2 -3 7 -3 8c0 4 2 6 7 6h31c5 0 8 -3 10 -7l207 -487l207 487c2 4 5 7 10 7h31c5 0 7 -2 7 -6
c0 -1 -1 -4 -3 -8l-227 -525c-2 -6 -5 -8 -11 -8h-29c-7 0 -9 2 -12 8z" />
    <glyph glyph-name="Wsmall.calt" unicode="&#xe105;" horiz-adv-x="833" 
d="M608 56l174 481c1 5 4 7 10 7h33c6 0 6 -6 5 -10l-194 -529c-3 -6 -5 -8 -11 -8h-34c-6 0 -9 2 -11 8l-162 459h-2l-165 -459c-2 -6 -5 -8 -11 -8h-34c-6 0 -9 2 -11 8l-191 529c-3 4 -2 10 5 10h33c5 0 8 -3 10 -7l171 -481h2l168 481c1 5 4 7 10 7h27c6 0 9 -2 10 -7
l166 -481h2z" />
    <glyph glyph-name="Wsmallcircumflex" unicode="&#xe106;" horiz-adv-x="901" 
d="M429 217v320c0 4 3 7 6 7h31c3 0 6 -3 6 -7v-320c0 -61 17 -108 47 -141c26 -28 64 -43 112 -43c47 0 85 15 111 43c31 33 46 80 46 141v320c0 4 3 7 7 7h30c4 0 7 -3 7 -7v-322c0 -71 -20 -130 -58 -169c-34 -35 -82 -54 -143 -54c-53 0 -96 16 -127 45
c-25 22 -43 51 -53 87c-10 -36 -29 -65 -54 -87c-31 -29 -74 -45 -126 -45c-61 0 -109 19 -143 54c-39 39 -59 98 -59 169v322c0 4 3 7 7 7h30c3 0 7 -3 7 -7v-320c0 -61 16 -108 46 -141c27 -28 65 -43 112 -43s85 15 112 43c30 33 46 80 46 141zM442 825h16
c5 0 7 -2 10 -6l161 -178c4 -5 3 -9 -3 -9h-26c-6 0 -9 1 -13 6l-137 150l-138 -150c-4 -5 -6 -6 -12 -6h-26c-7 0 -8 4 -4 9l162 178c3 4 5 6 10 6z" />
    <glyph glyph-name="Wsmallcircumflex.2" unicode="&#xe107;" horiz-adv-x="872" 
d="M588 5l-153 351l-153 -351c-2 -6 -5 -8 -11 -8h-29c-7 0 -9 2 -12 8l-225 525c-1 2 -3 7 -3 8c0 4 3 6 7 6h31c5 0 8 -3 10 -7l207 -487l155 364l-49 116c-1 2 -3 7 -3 8c0 4 2 6 7 6h31c5 0 8 -3 10 -7l207 -487l207 487c2 4 5 7 10 7h31c5 0 7 -2 7 -6
c0 -1 -1 -4 -3 -8l-227 -525c-2 -6 -5 -8 -11 -8h-29c-7 0 -9 2 -12 8zM426 825h16c5 0 7 -2 10 -6l161 -178c4 -5 3 -9 -3 -9h-26c-6 0 -9 1 -13 6l-137 150l-138 -150c-4 -5 -6 -6 -12 -6h-26c-7 0 -8 4 -4 9l162 178c3 4 5 6 10 6z" />
    <glyph glyph-name="Wsmallcircumflex.calt" unicode="&#xe15d;" horiz-adv-x="833" 
d="M409 825h16c5 0 7 -2 10 -6l161 -178c4 -5 3 -9 -3 -9h-26c-6 0 -9 1 -13 6l-137 150l-138 -150c-4 -5 -6 -6 -12 -6h-26c-7 0 -8 4 -4 9l162 178c3 4 5 6 10 6zM608 56l174 481c1 5 4 7 10 7h33c6 0 6 -6 5 -10l-194 -529c-3 -6 -5 -8 -11 -8h-34c-6 0 -9 2 -11 8
l-162 459h-2l-165 -459c-2 -6 -5 -8 -11 -8h-34c-6 0 -9 2 -11 8l-191 529c-3 4 -2 10 5 10h33c5 0 8 -3 10 -7l171 -481h2l168 481c1 5 4 7 10 7h27c6 0 9 -2 10 -7l166 -481h2z" />
    <glyph glyph-name="X" unicode="X" horiz-adv-x="621" 
d="M341 340l278 -330c4 -5 2 -10 -5 -10h-44c-7 0 -9 2 -12 6l-247 298l-248 -298c-3 -4 -5 -6 -11 -6h-45c-7 0 -9 5 -5 10l280 330l-278 330c-4 5 -2 11 5 11h45c6 0 9 -2 12 -7l245 -296l244 296c3 4 6 7 12 7h45c7 0 9 -6 5 -11z" />
    <glyph glyph-name="Xsmall" unicode="&#xf778;" horiz-adv-x="533" 
d="M241 270l-222 264c-3 4 -2 10 5 10h36c7 0 10 -3 13 -7l194 -234l194 234c3 5 6 7 10 7h39c7 0 9 -6 5 -10l-221 -263l225 -261c3 -5 2 -10 -4 -10h-41c-5 0 -8 3 -11 6l-195 232l-197 -232c-3 -3 -5 -6 -10 -6h-42c-7 0 -8 5 -5 10z" />
    <glyph glyph-name="Y" unicode="Y" horiz-adv-x="584" 
d="M291 354l234 320c2 4 5 7 11 7h40c7 0 8 -5 4 -11l-265 -363v-300c0 -4 -3 -7 -6 -7h-35c-3 0 -7 3 -7 7v300l-263 363c-5 6 -3 11 4 11h39c6 0 8 -2 11 -7z" />
    <glyph glyph-name="Y.2" unicode="&#xe108;" horiz-adv-x="637" 
d="M293 7v263l-290 401c-3 4 -2 10 5 10h39c6 0 8 -3 11 -7l259 -357l260 357c4 4 5 7 12 7h39c8 0 9 -6 5 -10l-292 -401v-263c0 -4 -3 -7 -7 -7h-34c-4 0 -7 3 -7 7z" />
    <glyph glyph-name="Y.3" unicode="&#xe109;" horiz-adv-x="559" 
d="M45 41h17c49 0 86 13 117 36c33 26 58 64 84 110l-260 484c-3 5 -2 10 5 10h37c7 0 9 -3 12 -7l230 -439l218 439c2 4 5 7 11 7h34c8 0 8 -5 5 -10l-238 -476c-26 -54 -55 -106 -98 -142c-40 -34 -90 -53 -153 -53h-21c-3 0 -7 3 -7 7v27c0 4 4 7 7 7z" />
    <glyph glyph-name="Yacute" unicode="&#xdd;" horiz-adv-x="584" 
d="M291 354l234 320c2 4 5 7 11 7h40c7 0 8 -5 4 -11l-265 -363v-300c0 -4 -3 -7 -6 -7h-35c-3 0 -7 3 -7 7v300l-263 363c-5 6 -3 11 4 11h39c6 0 8 -2 11 -7zM332 968h31c8 0 7 -7 4 -12l-106 -174c-3 -5 -6 -7 -11 -7h-21c-9 0 -6 7 -3 13l97 173c2 4 4 7 9 7z" />
    <glyph glyph-name="Yacute.2" unicode="&#xe10a;" horiz-adv-x="637" 
d="M293 7v263l-290 401c-3 4 -2 10 5 10h39c6 0 8 -3 11 -7l259 -357l260 357c4 4 5 7 12 7h39c8 0 9 -6 5 -10l-292 -401v-263c0 -4 -3 -7 -7 -7h-34c-4 0 -7 3 -7 7zM357 968h31c8 0 7 -7 4 -12l-106 -174c-3 -5 -6 -7 -11 -7h-21c-9 0 -6 7 -3 13l97 173c2 4 4 7 9 7z
" />
    <glyph glyph-name="Yacute.3" unicode="&#xe10b;" horiz-adv-x="559" 
d="M45 41h17c49 0 86 13 117 36c33 26 58 64 84 110l-260 484c-3 5 -2 10 5 10h37c7 0 9 -3 12 -7l230 -439l218 439c2 4 5 7 11 7h34c8 0 8 -5 5 -10l-238 -476c-26 -54 -55 -106 -98 -142c-40 -34 -90 -53 -153 -53h-21c-3 0 -7 3 -7 7v27c0 4 4 7 7 7zM321 968h31
c8 0 7 -7 4 -12l-106 -174c-3 -5 -6 -7 -11 -7h-21c-9 0 -6 7 -3 13l97 173c2 4 4 7 9 7z" />
    <glyph glyph-name="Ycircumflex" unicode="&#x176;" horiz-adv-x="584" 
d="M291 354l234 320c2 4 5 7 11 7h40c7 0 8 -5 4 -11l-265 -363v-300c0 -4 -3 -7 -6 -7h-35c-3 0 -7 3 -7 7v300l-263 363c-5 6 -3 11 4 11h39c6 0 8 -2 11 -7zM285 967h16c5 0 7 -2 10 -6l161 -178c4 -5 3 -9 -3 -9h-26c-6 0 -9 1 -13 6l-137 150l-138 -150
c-4 -5 -6 -6 -12 -6h-26c-7 0 -8 4 -4 9l162 178c3 4 5 6 10 6z" />
    <glyph glyph-name="Ycircumflex.2" unicode="&#xe10c;" horiz-adv-x="637" 
d="M293 7v263l-290 401c-3 4 -2 10 5 10h39c6 0 8 -3 11 -7l259 -357l260 357c4 4 5 7 12 7h39c8 0 9 -6 5 -10l-292 -401v-263c0 -4 -3 -7 -7 -7h-34c-4 0 -7 3 -7 7zM309 967h16c5 0 7 -2 10 -6l161 -178c4 -5 3 -9 -3 -9h-26c-6 0 -9 1 -13 6l-137 150l-138 -150
c-4 -5 -6 -6 -12 -6h-26c-7 0 -8 4 -4 9l162 178c3 4 5 6 10 6z" />
    <glyph glyph-name="Ycircumflex.3" unicode="&#xe10d;" horiz-adv-x="559" 
d="M45 41h17c49 0 86 13 117 36c33 26 58 64 84 110l-260 484c-3 5 -2 10 5 10h37c7 0 9 -3 12 -7l230 -439l218 439c2 4 5 7 11 7h34c8 0 8 -5 5 -10l-238 -476c-26 -54 -55 -106 -98 -142c-40 -34 -90 -53 -153 -53h-21c-3 0 -7 3 -7 7v27c0 4 4 7 7 7zM273 967h16
c5 0 7 -2 10 -6l161 -178c4 -5 3 -9 -3 -9h-26c-6 0 -9 1 -13 6l-137 150l-138 -150c-4 -5 -6 -6 -12 -6h-26c-7 0 -8 4 -4 9l162 178c3 4 5 6 10 6z" />
    <glyph glyph-name="Ydieresis" unicode="&#x178;" horiz-adv-x="584" 
d="M291 354l234 320c2 4 5 7 11 7h40c7 0 8 -5 4 -11l-265 -363v-300c0 -4 -3 -7 -6 -7h-35c-3 0 -7 3 -7 7v300l-263 363c-5 6 -3 11 4 11h39c6 0 8 -2 11 -7zM209 845c-16 0 -28 13 -28 29c0 15 12 27 28 27c15 0 27 -12 27 -27c0 -16 -12 -29 -27 -29zM375 845
c-16 0 -28 13 -28 29c0 15 12 27 28 27c15 0 27 -12 27 -27c0 -16 -12 -29 -27 -29z" />
    <glyph glyph-name="Ydieresis.2" unicode="&#xe10e;" horiz-adv-x="637" 
d="M293 7v263l-290 401c-3 4 -2 10 5 10h39c6 0 8 -3 11 -7l259 -357l260 357c4 4 5 7 12 7h39c8 0 9 -6 5 -10l-292 -401v-263c0 -4 -3 -7 -7 -7h-34c-4 0 -7 3 -7 7zM235 845c-16 0 -28 13 -28 29c0 15 12 27 28 27c15 0 27 -12 27 -27c0 -16 -12 -29 -27 -29zM401 845
c-16 0 -28 13 -28 29c0 15 12 27 28 27c15 0 27 -12 27 -27c0 -16 -12 -29 -27 -29z" />
    <glyph glyph-name="Ydieresis.3" unicode="&#xe10f;" horiz-adv-x="559" 
d="M45 41h17c49 0 86 13 117 36c33 26 58 64 84 110l-260 484c-3 5 -2 10 5 10h37c7 0 9 -3 12 -7l230 -439l218 439c2 4 5 7 11 7h34c8 0 8 -5 5 -10l-238 -476c-26 -54 -55 -106 -98 -142c-40 -34 -90 -53 -153 -53h-21c-3 0 -7 3 -7 7v27c0 4 4 7 7 7zM194 845
c-16 0 -28 13 -28 29c0 15 12 27 28 27c15 0 27 -12 27 -27c0 -16 -12 -29 -27 -29zM360 845c-16 0 -28 13 -28 29c0 15 12 27 28 27c15 0 27 -12 27 -27c0 -16 -12 -29 -27 -29z" />
    <glyph glyph-name="Ysmall" unicode="&#xf779;" horiz-adv-x="490" 
d="M223 7v238l-211 289c-3 4 -2 10 5 10h34c5 0 8 -2 11 -7l182 -251l183 251c3 4 5 7 11 7h34c7 0 8 -6 6 -10l-211 -289v-238c0 -4 -4 -7 -7 -7h-30c-4 0 -7 3 -7 7z" />
    <glyph glyph-name="Ysmall.2" unicode="&#xe110;" horiz-adv-x="535" 
d="M245 7v208l-232 319c-4 4 -2 10 5 10h33c5 0 8 -2 11 -7l205 -281l204 281c3 4 5 7 11 7h34c7 0 8 -6 5 -10l-232 -319v-208c0 -4 -3 -7 -7 -7h-30c-3 0 -7 3 -7 7z" />
    <glyph glyph-name="Ysmall.3" unicode="&#xe111;" horiz-adv-x="469" 
d="M46 35h17c34 0 62 9 85 26c28 21 51 52 71 88l-208 385c-2 5 -1 10 5 10h31c6 0 9 -2 11 -7l184 -344l170 344c2 4 5 7 11 7h29c7 0 7 -5 5 -10l-190 -380c-23 -45 -51 -89 -89 -118c-32 -24 -70 -38 -113 -38h-19c-4 0 -7 3 -7 7v23c0 4 3 7 7 7z" />
    <glyph glyph-name="Ysmallacute" unicode="&#xe112;" horiz-adv-x="490" 
d="M223 7v238l-211 289c-3 4 -2 10 5 10h34c5 0 8 -2 11 -7l182 -251l183 251c3 4 5 7 11 7h34c7 0 8 -6 6 -10l-211 -289v-238c0 -4 -4 -7 -7 -7h-30c-4 0 -7 3 -7 7zM282 825h31c8 0 7 -7 4 -12l-106 -174c-3 -5 -6 -7 -11 -7h-21c-9 0 -6 7 -3 13l97 173c2 4 4 7 9 7z
" />
    <glyph glyph-name="Ysmallacute.2" unicode="&#xe113;" horiz-adv-x="535" 
d="M245 7v208l-232 319c-4 4 -2 10 5 10h33c5 0 8 -2 11 -7l205 -281l204 281c3 4 5 7 11 7h34c7 0 8 -6 5 -10l-232 -319v-208c0 -4 -3 -7 -7 -7h-30c-3 0 -7 3 -7 7zM304 825h31c8 0 7 -7 4 -12l-106 -174c-3 -5 -6 -7 -11 -7h-21c-9 0 -6 7 -3 13l97 173c2 4 4 7 9 7z
" />
    <glyph glyph-name="Ysmallacute.3" unicode="&#xe114;" horiz-adv-x="469" 
d="M46 35h17c34 0 62 9 85 26c28 21 51 52 71 88l-208 385c-2 5 -1 10 5 10h31c6 0 9 -2 11 -7l184 -344l170 344c2 4 5 7 11 7h29c7 0 7 -5 5 -10l-190 -380c-23 -45 -51 -89 -89 -118c-32 -24 -70 -38 -113 -38h-19c-4 0 -7 3 -7 7v23c0 4 3 7 7 7zM278 825h31
c8 0 7 -7 4 -12l-106 -174c-3 -5 -6 -7 -11 -7h-21c-9 0 -6 7 -3 13l97 173c2 4 4 7 9 7z" />
    <glyph glyph-name="Ysmallcircumflex" unicode="&#xe115;" horiz-adv-x="490" 
d="M223 7v238l-211 289c-3 4 -2 10 5 10h34c5 0 8 -2 11 -7l182 -251l183 251c3 4 5 7 11 7h34c7 0 8 -6 6 -10l-211 -289v-238c0 -4 -4 -7 -7 -7h-30c-4 0 -7 3 -7 7zM236 825h16c5 0 7 -2 10 -6l161 -178c4 -5 3 -9 -3 -9h-26c-6 0 -9 1 -13 6l-137 150l-138 -150
c-4 -5 -6 -6 -12 -6h-26c-7 0 -8 4 -4 9l162 178c3 4 5 6 10 6z" />
    <glyph glyph-name="Ysmallcircumflex.2" unicode="&#xe116;" horiz-adv-x="535" 
d="M245 7v208l-232 319c-4 4 -2 10 5 10h33c5 0 8 -2 11 -7l205 -281l204 281c3 4 5 7 11 7h34c7 0 8 -6 5 -10l-232 -319v-208c0 -4 -3 -7 -7 -7h-30c-3 0 -7 3 -7 7zM259 825h16c5 0 7 -2 10 -6l161 -178c4 -5 3 -9 -3 -9h-26c-6 0 -9 1 -13 6l-137 150l-138 -150
c-4 -5 -6 -6 -12 -6h-26c-7 0 -8 4 -4 9l162 178c3 4 5 6 10 6z" />
    <glyph glyph-name="Ysmallcircumflex.3" unicode="&#xe117;" horiz-adv-x="469" 
d="M46 35h17c34 0 62 9 85 26c28 21 51 52 71 88l-208 385c-2 5 -1 10 5 10h31c6 0 9 -2 11 -7l184 -344l170 344c2 4 5 7 11 7h29c7 0 7 -5 5 -10l-190 -380c-23 -45 -51 -89 -89 -118c-32 -24 -70 -38 -113 -38h-19c-4 0 -7 3 -7 7v23c0 4 3 7 7 7zM227 825h16
c5 0 7 -2 10 -6l161 -178c4 -5 3 -9 -3 -9h-26c-6 0 -9 1 -13 6l-137 150l-138 -150c-4 -5 -6 -6 -12 -6h-26c-7 0 -8 4 -4 9l162 178c3 4 5 6 10 6z" />
    <glyph glyph-name="Ysmalldieresis" unicode="&#xe118;" horiz-adv-x="490" 
d="M223 7v238l-211 289c-3 4 -2 10 5 10h34c5 0 8 -2 11 -7l182 -251l183 251c3 4 5 7 11 7h34c7 0 8 -6 6 -10l-211 -289v-238c0 -4 -4 -7 -7 -7h-30c-4 0 -7 3 -7 7zM162 702c-16 0 -28 13 -28 29c0 15 12 27 28 27c15 0 27 -12 27 -27c0 -16 -12 -29 -27 -29zM328 702
c-16 0 -28 13 -28 29c0 15 12 27 28 27c15 0 27 -12 27 -27c0 -16 -12 -29 -27 -29z" />
    <glyph glyph-name="Ysmalldieresis.2" unicode="&#xe119;" horiz-adv-x="535" 
d="M245 7v208l-232 319c-4 4 -2 10 5 10h33c5 0 8 -2 11 -7l205 -281l204 281c3 4 5 7 11 7h34c7 0 8 -6 5 -10l-232 -319v-208c0 -4 -3 -7 -7 -7h-30c-3 0 -7 3 -7 7zM185 702c-16 0 -28 13 -28 29c0 15 12 27 28 27c15 0 27 -12 27 -27c0 -16 -12 -29 -27 -29zM351 702
c-16 0 -28 13 -28 29c0 15 12 27 28 27c15 0 27 -12 27 -27c0 -16 -12 -29 -27 -29z" />
    <glyph glyph-name="Ysmalldieresis.3" unicode="&#xe11a;" horiz-adv-x="469" 
d="M46 35h17c34 0 62 9 85 26c28 21 51 52 71 88l-208 385c-2 5 -1 10 5 10h31c6 0 9 -2 11 -7l184 -344l170 344c2 4 5 7 11 7h29c7 0 7 -5 5 -10l-190 -380c-23 -45 -51 -89 -89 -118c-32 -24 -70 -38 -113 -38h-19c-4 0 -7 3 -7 7v23c0 4 3 7 7 7zM152 702
c-16 0 -28 13 -28 29c0 15 12 27 28 27c15 0 27 -12 27 -27c0 -16 -12 -29 -27 -29zM318 702c-16 0 -28 13 -28 29c0 15 12 27 28 27c15 0 27 -12 27 -27c0 -16 -12 -29 -27 -29z" />
    <glyph glyph-name="Z" unicode="Z" horiz-adv-x="549" 
d="M14 12l439 626h-438c-4 0 -7 4 -7 7v29c0 4 3 7 7 7h507c5 0 8 -2 8 -6c0 -2 0 -4 -2 -6l-439 -627h445c4 0 7 -3 7 -7v-28c0 -4 -3 -7 -7 -7h-514c-5 0 -8 2 -8 6c0 2 0 4 2 6z" />
    <glyph glyph-name="Zacute" unicode="&#x179;" horiz-adv-x="549" 
d="M14 12l439 626h-438c-4 0 -7 4 -7 7v29c0 4 3 7 7 7h507c5 0 8 -2 8 -6c0 -2 0 -4 -2 -6l-439 -627h445c4 0 7 -3 7 -7v-28c0 -4 -3 -7 -7 -7h-514c-5 0 -8 2 -8 6c0 2 0 4 2 6zM314 968h31c8 0 7 -7 4 -12l-106 -174c-3 -5 -6 -7 -11 -7h-21c-9 0 -6 7 -3 13l97 173
c2 4 4 7 9 7z" />
    <glyph glyph-name="Zcaron" unicode="&#x17d;" horiz-adv-x="549" 
d="M14 12l439 626h-438c-4 0 -7 4 -7 7v29c0 4 3 7 7 7h507c5 0 8 -2 8 -6c0 -2 0 -4 -2 -6l-439 -627h445c4 0 7 -3 7 -7v-28c0 -4 -3 -7 -7 -7h-514c-5 0 -8 2 -8 6c0 2 0 4 2 6zM283 779h-16c-5 0 -7 3 -10 6l-162 177c-4 5 -3 10 4 10h26c6 0 8 -2 12 -6l138 -149
l137 149c4 4 7 6 13 6h26c6 0 7 -5 3 -10l-161 -177c-3 -3 -5 -6 -10 -6z" />
    <glyph glyph-name="Zdotaccent" unicode="&#x17b;" horiz-adv-x="549" 
d="M14 12l439 626h-438c-4 0 -7 4 -7 7v29c0 4 3 7 7 7h507c5 0 8 -2 8 -6c0 -2 0 -4 -2 -6l-439 -627h445c4 0 7 -3 7 -7v-28c0 -4 -3 -7 -7 -7h-514c-5 0 -8 2 -8 6c0 2 0 4 2 6zM271 851c-16 0 -28 12 -28 28c0 15 12 27 28 27c15 0 27 -12 27 -27c0 -16 -12 -28 -27 -28
z" />
    <glyph glyph-name="Zsmall" unicode="&#xf77a;" horiz-adv-x="445" 
d="M425 0h-407c-11 0 -10 7 -6 13l348 492h-338c-4 0 -7 3 -7 7v25c0 4 3 7 7 7h396c8 0 11 -6 6 -13l-348 -493h349c3 0 6 -3 6 -6v-25c0 -4 -3 -7 -6 -7z" />
    <glyph glyph-name="Zsmallacute" unicode="&#xe11b;" horiz-adv-x="445" 
d="M425 0h-407c-11 0 -10 7 -6 13l348 492h-338c-4 0 -7 3 -7 7v25c0 4 3 7 7 7h396c8 0 11 -6 6 -13l-348 -493h349c3 0 6 -3 6 -6v-25c0 -4 -3 -7 -6 -7zM262 825h31c8 0 7 -7 4 -12l-106 -174c-3 -5 -6 -7 -11 -7h-21c-9 0 -6 7 -3 13l97 173c2 4 4 7 9 7z" />
    <glyph glyph-name="Zsmallcaron" unicode="&#xe11c;" horiz-adv-x="445" 
d="M425 0h-407c-11 0 -10 7 -6 13l348 492h-338c-4 0 -7 3 -7 7v25c0 4 3 7 7 7h396c8 0 11 -6 6 -13l-348 -493h349c3 0 6 -3 6 -6v-25c0 -4 -3 -7 -6 -7zM230 632h-16c-5 0 -7 3 -10 6l-162 177c-4 5 -3 10 4 10h26c6 0 8 -2 12 -6l138 -149l137 149c4 4 7 6 13 6h26
c6 0 7 -5 3 -10l-161 -177c-3 -3 -5 -6 -10 -6z" />
    <glyph glyph-name="Zsmalldotaccent" unicode="&#xe11d;" horiz-adv-x="445" 
d="M425 0h-407c-11 0 -10 7 -6 13l348 492h-338c-4 0 -7 3 -7 7v25c0 4 3 7 7 7h396c8 0 11 -6 6 -13l-348 -493h349c3 0 6 -3 6 -6v-25c0 -4 -3 -7 -6 -7zM223 703c-16 0 -28 12 -28 28c0 15 12 27 28 27c15 0 27 -12 27 -27c0 -16 -12 -28 -27 -28z" />
    <glyph glyph-name="a" unicode="a" horiz-adv-x="470" 
d="M234 422c-59 0 -104 -19 -144 -42c-6 -3 -9 -3 -11 2l-10 19c-2 5 0 8 4 11c51 31 108 45 165 45c42 0 93 -8 126 -47c22 -27 37 -65 37 -124v-279c0 -4 -4 -7 -7 -7h-26c-4 0 -7 3 -7 7v19h-4c-48 -27 -89 -36 -143 -36c-39 0 -82 9 -114 30c-32 20 -53 52 -53 99
c0 63 39 98 96 119c66 23 151 28 214 31v17c0 49 -9 78 -28 100c-24 29 -61 36 -95 36zM225 25c49 0 92 11 132 35v176c-48 0 -124 -4 -180 -21c-51 -15 -89 -42 -89 -93c0 -36 18 -60 45 -75c25 -16 59 -22 92 -22z" />
    <glyph glyph-name="a.1" unicode="&#xe11e;" horiz-adv-x="557" 
d="M273 26c79 0 124 26 171 71v114c0 74 -17 125 -43 157c-32 39 -79 51 -126 51c-65 0 -113 -27 -143 -67c-27 -36 -40 -82 -40 -128c0 -59 16 -108 47 -144c31 -34 74 -54 134 -54zM449 57h-3c-47 -45 -100 -67 -177 -67c-67 0 -123 22 -161 63c-39 42 -60 103 -60 172
c0 58 19 115 54 158c38 45 96 74 173 74c62 0 121 -17 161 -65c32 -39 52 -96 52 -180v-205c0 -4 -3 -7 -7 -7h-25c-3 0 -7 3 -7 7v50z" />
    </font>
</defs>
</svg>
