<?xml version="1.0" encoding="utf-8"?>
<!-- Generator: Adobe Illustrator 21.0.0, SVG Export Plug-In . SVG Version: 6.00 Build 0)  -->
<svg version="1.1" id="Layer_1" xmlns="http://www.w3.org/2000/svg" xmlns:xlink="http://www.w3.org/1999/xlink" x="0px" y="0px"
	 viewBox="0 0 595.3 453.2" style="enable-background:new 0 0 595.3 453.2;" xml:space="preserve">
<style type="text/css">
	.st0{fill:#020202;}
	.st1{fill:#CF1A1D;}
	.st2{fill:#FFFFFF;}
	.st3{fill-rule:evenodd;clip-rule:evenodd;fill:#FBB231;}
	.st4{fill-rule:evenodd;clip-rule:evenodd;fill:#EC1B2E;}
	.st5{fill-rule:evenodd;clip-rule:evenodd;fill:#FFFFFF;}
	.st6{fill:none;stroke:#FFFFFF;stroke-width:0.216;stroke-miterlimit:2.6131;}
	.st7{fill:#0066B2;}
	.st8{fill:#F9A533;}
</style>
<g>
	<rect x="175.8" y="140" class="st0" width="54.1" height="12.6"/>
	<g>
		<polygon class="st0" points="201.8,135.1 189.2,135.1 189.2,122.5 		"/>
		<polygon class="st0" points="203.9,135.1 216.4,135.1 216.4,122.5 		"/>
	</g>
	<g>
		<g>
			<polygon class="st0" points="199.9,160.3 199.9,158.5 198.8,158.5 180.8,176.6 180.8,179.5 			"/>
			<polygon class="st0" points="197.4,158.5 194.2,158.5 180.8,171.9 180.8,175.1 			"/>
			<polygon class="st0" points="199.9,161.8 180.8,181 180.8,182.5 182.4,182.5 199.9,165 			"/>
			<polygon class="st0" points="192.7,158.5 189.6,158.5 180.8,167.3 180.8,170.4 			"/>
			<polygon class="st0" points="180.8,162.7 180.8,165.8 188.1,158.5 185,158.5 			"/>
			<polygon class="st0" points="199.9,169.5 199.9,166.4 183.8,182.5 186.9,182.5 			"/>
			<polygon class="st0" points="199.9,173.9 199.9,170.9 188.3,182.5 191.3,182.5 			"/>
			<polygon class="st0" points="183.5,158.5 180.8,158.5 180.8,161.2 			"/>
			<polygon class="st0" points="197.4,182.5 199.9,182.5 199.9,180 			"/>
			<polygon class="st0" points="199.9,178.5 199.9,175.4 192.8,182.5 195.9,182.5 			"/>
		</g>
		<g>
			<polygon class="st0" points="224.9,160.3 224.9,158.5 223.8,158.5 205.7,176.6 205.7,179.5 			"/>
			<polygon class="st0" points="222.3,158.5 219.1,158.5 205.7,171.9 205.7,175.1 			"/>
			<polygon class="st0" points="224.9,161.8 205.7,181 205.7,182.5 207.3,182.5 224.9,165 			"/>
			<polygon class="st0" points="217.7,158.5 214.5,158.5 205.7,167.3 205.7,170.4 			"/>
			<polygon class="st0" points="205.7,162.7 205.7,165.8 213,158.5 209.9,158.5 			"/>
			<polygon class="st0" points="224.9,169.5 224.9,166.4 208.8,182.5 211.8,182.5 			"/>
			<polygon class="st0" points="224.9,173.9 224.9,170.9 213.3,182.5 216.2,182.5 			"/>
			<polygon class="st0" points="208.4,158.5 205.7,158.5 205.7,161.2 			"/>
			<polygon class="st0" points="222.3,182.5 224.9,182.5 224.9,180 			"/>
			<polygon class="st0" points="224.9,178.5 224.9,175.4 217.7,182.5 220.9,182.5 			"/>
		</g>
	</g>
</g>
<g>
	<path class="st0" d="M137.3,122.8c-16.8,0-30.4,13.6-30.4,30.4s13.6,30.4,30.4,30.4s30.4-13.6,30.4-30.4S154.1,122.8,137.3,122.8z
		 M159.9,153.2C159.9,153.2,159.9,153.2,159.9,153.2L159.9,153.2C159.9,153.1,159.9,153.2,159.9,153.2z M137.3,130.5L137.3,130.5
		C137.3,130.5,137.3,130.5,137.3,130.5C137.3,130.5,137.3,130.5,137.3,130.5z M137.3,175.8L137.3,175.8
		C137.3,175.8,137.3,175.8,137.3,175.8C137.3,175.8,137.3,175.8,137.3,175.8z M157.2,164.1l-1.7-1c-0.2,0.3-0.3,0.6-0.5,0.9l1.7,1
		c-1.9,3.1-4.5,5.7-7.6,7.6l-0.9-1.6c-0.3,0.2-0.6,0.4-0.9,0.5l0.9,1.6c-3.1,1.7-6.6,2.7-10.4,2.8v-5.7c-0.2,0-0.3,0-0.5,0
		s-0.3,0-0.5,0v5.7c-3.8-0.1-7.3-1.1-10.4-2.8l0.9-1.6c-0.3-0.2-0.6-0.3-0.9-0.5l-0.9,1.6c-3.1-1.9-5.7-4.5-7.6-7.6l1.8-1
		c-0.2-0.3-0.3-0.6-0.5-0.9l-1.8,1c-1.7-3.1-2.7-6.6-2.8-10.4h6c0-0.1,0-0.2,0-0.3c0-0.3,0-0.5,0-0.7h-6c0.1-3.8,1.1-7.3,2.8-10.4
		l2.2,1.2c0.2-0.3,0.3-0.6,0.5-0.9l-2.2-1.3c1.9-3.1,4.5-5.7,7.6-7.6l1.3,2.3c0.3-0.2,0.6-0.4,0.9-0.5l-1.3-2.3
		c3.1-1.7,6.6-2.7,10.4-2.8v6.2c0.2,0,0.3,0,0.5,0s0.3,0,0.5,0v-6.2c3.8,0.1,7.3,1.1,10.4,2.8l-1.3,2.2c0.3,0.2,0.6,0.3,0.9,0.5
		l1.3-2.2c3.1,1.9,5.7,4.5,7.6,7.6l-2.1,1.2c0.2,0.3,0.4,0.6,0.5,0.9l2.1-1.2c1.7,3.1,2.7,6.6,2.8,10.4h-6c0,0.2,0,0.5,0,0.7
		c0,0.1,0,0.2,0,0.3h6C159.9,157.4,158.9,161,157.2,164.1z"/>
	<g>
		<polygon class="st0" points="138.7,155 126,155 126,152 136.9,152 144,139.5 146.6,141 		"/>
	</g>
</g>
<g>
	<circle class="st0" cx="285.4" cy="159.8" r="2.5"/>
	<circle class="st0" cx="266.6" cy="146.2" r="2.5"/>
	<path class="st0" d="M307.2,158l-7.4-7.9l4.9-9.6l-10.5-2.6l-1.1-10.7l-10.2,3.5l-6.7-8.4l-6.7,8.4l-10.2-3.5l-1.1,10.7l-10.5,2.6
		l4.9,9.6l-7.4,7.9l9.3,5.5l-2,10.6l10.8-0.5l4.1,10l8.8-6.2l8.8,6.2l4.1-10l10.8,0.5l-2-10.6L307.2,158z M261.1,146.2
		c0-3,2.5-5.5,5.5-5.5s5.5,2.5,5.5,5.5s-2.5,5.5-5.5,5.5S261.1,149.3,261.1,146.2z M268.1,166.1l-2.4-1.8l18.7-24.7l2.4,1.8
		L268.1,166.1z M285.4,165.4c-3,0-5.5-2.5-5.5-5.5s2.5-5.5,5.5-5.5s5.5,2.5,5.5,5.5S288.5,165.4,285.4,165.4z"/>
</g>
<path class="st0" d="M81.2,167.1c-3.4,1.9-6.7,3.4-10.1,4.5l0.2-0.4c-3-5.8-2.5-11.8-2.5-11.8l7-1.6c0,0-0.5-4.4-2.1-8.1
	c-1.2-2.7-3-9.4-9.9-9.9c-7.6-0.6-13,1.7-18.9,0c-2.9-0.9-7.1-6.8-8.4-8.3c-2.9-3.4-7.4-5-7.4-5l-3.2-3.8l-0.5,0.1l-0.4,4.3
	c0,0-6,9.7-7.9,13.4c-1.7,3.1,3.2,6.8,5,6c2.3-1.1,5.3-5.4,9-3.5c4.6,2.4-1.1,23.9-2.1,27.4c-6.2-2.2-10-4.5-10.1-4.6l-2.1,3.4
	l-2.1,3.4c1,0.6,16.7,10.1,37.6,10.1c10.1,0,21.4-2.2,32.8-8.7L81.2,167.1z M34.6,172.2c1.5-3.5,6.4-13.6,15.7-13.6
	c11.3,0,15.5,14.5,15.5,14.5l0,0C54.1,175.9,43,174.5,34.6,172.2z"/>
<polygon class="st0" points="20.7,67.7 39.8,79.2 20.7,90.6 "/>
<g>
	<polygon class="st0" points="82.4,248.4 59.1,226.5 50,233.6 40.8,226.5 17.5,248.4 	"/>
	<polygon class="st0" points="81.9,201.9 18,201.9 50,226.7 	"/>
	<polygon class="st0" points="86.4,244.6 86.4,205.4 63.5,223.1 	"/>
	<polygon class="st0" points="13.5,244.6 36.4,223.1 13.5,205.4 	"/>
</g>
<polygon class="st0" points="218.6,71.5 186.8,71.5 155.1,71.5 123.3,71.5 129.7,79.2 123.3,86.8 155.1,86.8 186.8,86.8 218.6,86.8 
	212.2,79.2 "/>
<polygon class="st0" points="587,20.9 537.6,20.9 523.5,20.9 74.1,20.9 10.6,20.9 17,28.5 10.6,36.2 74.1,36.2 523.5,36.2 
	537.6,36.2 587,36.2 580.6,28.5 "/>
<path class="st1" d="M153.2,276h37.6c4.6,0,8.4,3.8,8.4,8.4v37.6c0,4.6-3.8,8.4-8.4,8.4h-37.6c-4.6,0-8.4-3.8-8.4-8.4v-37.6
	C144.9,279.7,148.6,276,153.2,276"/>
<path class="st1" d="M88.1,276h37.6c4.6,0,8.4,3.8,8.4,8.4v37.6c0,4.6-3.8,8.4-8.4,8.4H88.1c-4.6,0-8.4-3.8-8.4-8.4v-37.6
	C79.7,279.7,83.5,276,88.1,276"/>
<path class="st1" d="M22.9,276h37.6c4.6,0,8.4,3.8,8.4,8.4v37.6c0,4.6-3.8,8.4-8.4,8.4H22.9c-4.6,0-8.4-3.8-8.4-8.4v-37.6
	C14.6,279.7,18.3,276,22.9,276"/>
<path class="st2" d="M171.6,314.8h2.4c0,0,0.7-0.1,1.1-0.5c0.3-0.4,0.3-1.1,0.3-1.1s0-3.2,1.5-3.7c1.5-0.5,3.4,3.1,5.4,4.5
	c1.5,1,2.7,0.8,2.7,0.8l5.4-0.1c0,0,2.8-0.2,1.5-2.4c-0.1-0.2-0.8-1.6-4-4.6c-3.4-3.1-2.9-2.6,1.1-8c2.5-3.3,3.5-5.3,3.2-6.2
	c-0.3-0.8-2.1-0.6-2.1-0.6l-6.1,0c0,0-0.4-0.1-0.8,0.1c-0.3,0.2-0.5,0.7-0.5,0.7s-1,2.6-2.2,4.7c-2.7,4.6-3.8,4.8-4.2,4.5
	c-1-0.7-0.8-2.7-0.8-4.1c0-4.4,0.7-6.3-1.3-6.8c-0.7-0.2-1.1-0.3-2.8-0.3c-2.2,0-4,0-5,0.5c-0.7,0.3-1.2,1.1-0.9,1.1
	c0.4,0.1,1.3,0.2,1.8,0.9c0.6,0.8,0.6,2.7,0.6,2.7s0.4,5.2-0.8,5.9c-0.8,0.4-1.9-0.5-4.3-4.6c-1.2-2.1-2.2-4.5-2.2-4.5
	s-0.2-0.4-0.5-0.7c-0.4-0.3-0.9-0.4-0.9-0.4l-5.8,0c0,0-0.9,0-1.2,0.4c-0.3,0.3,0,1,0,1s4.5,10.5,9.6,15.9
	C166.3,315.2,171.6,314.8,171.6,314.8"/>
<g>
	<path class="st2" d="M113.6,286.8h-13.2c-5.8,0-10.6,4.7-10.6,10.6v13.2c0,5.8,4.7,10.6,10.6,10.6h13.2c5.8,0,10.6-4.7,10.6-10.6
		v-13.2C124.2,291.5,119.4,286.8,113.6,286.8z M120.9,309.3c0,4.7-3.8,8.5-8.5,8.5h-10.6c-4.7,0-8.5-3.8-8.5-8.5v-10.6
		c0-4.7,3.8-8.5,8.5-8.5h10.6c4.7,0,8.5,3.8,8.5,8.5V309.3z"/>
	<path class="st2" d="M107.5,295c-5,0-9,4-9,9c0,5,4,9,9,9c5,0,9-4,9-9C116.5,299,112.5,295,107.5,295z M107.5,309.4
		c-3,0-5.4-2.4-5.4-5.4c0-3,2.4-5.4,5.4-5.4c3,0,5.4,2.4,5.4,5.4C112.9,307,110.5,309.4,107.5,309.4z"/>
	<circle class="st2" cx="115.9" cy="294.8" r="2.3"/>
</g>
<path class="st2" d="M55.5,291h5v-7.9h-6.2l0,0H53c0,0-4.7-0.1-7.7,3.8c0,0-2.1,1.9-2.1,7.6h0v5.9h-7.4v8.4h7.4v21.6h8.6v-21.6h7.4
	l1-8.4h-8.4v-5.9h0C51.7,293.9,52,291,55.5,291z"/>
<g>
	<rect x="152.8" y="357.1" class="st2" width="120.4" height="68.5"/>
	<g>
		<polygon class="st3" points="228.5,415.1 229.7,415.1 230.9,415 232,414.8 233.2,414.6 234.3,414.4 235.4,414.1 236.5,413.7 
			237.5,413.3 238.5,412.8 239.5,412.3 240.5,411.8 241.4,411.2 242.3,410.5 243.2,409.8 244.1,409.1 244.9,408.3 245.6,407.5 
			246.4,406.7 247,405.8 247.7,404.9 248.3,404 248.9,403 249.4,402 249.8,401 250.2,399.9 250.6,398.9 250.9,397.8 251.2,396.6 
			251.4,395.5 251.5,394.4 251.6,393.2 251.6,392 251.6,390.8 251.5,389.6 251.4,388.5 251.2,387.3 250.9,386.2 250.6,385.1 
			250.2,384.1 249.8,383 249.4,382 248.9,381 248.3,380.1 247.7,379.1 247,378.2 246.4,377.3 245.6,376.5 244.9,375.7 244.1,374.9 
			243.2,374.2 242.3,373.5 241.4,372.9 240.5,372.3 239.5,371.7 238.5,371.2 237.5,370.8 236.5,370.3 235.4,370 234.3,369.7 
			233.2,369.4 232,369.2 230.9,369.1 229.7,369 228.5,368.9 227.3,369 226.1,369.1 225,369.2 223.9,369.4 222.7,369.7 221.6,370 
			220.6,370.3 219.5,370.8 218.5,371.2 217.5,371.7 216.6,372.3 215.6,372.9 214.7,373.5 213.8,374.2 213,374.9 212.2,375.7 
			211.4,376.5 210.7,377.3 210,378.2 209.4,379.1 208.8,380.1 208.2,381 207.7,382 207.3,383 206.9,384.1 206.5,385.1 206.2,386.2 
			205.9,387.3 205.7,388.5 205.6,389.6 205.5,390.8 205.5,392 205.5,393.2 205.6,394.4 205.7,395.5 205.9,396.6 206.2,397.8 
			206.5,398.9 206.9,399.9 207.3,401 207.7,402 208.2,403 208.8,404 209.4,404.9 210,405.8 210.7,406.7 211.4,407.5 212.2,408.3 
			213,409.1 213.8,409.8 214.7,410.5 215.6,411.2 216.6,411.8 217.5,412.3 218.5,412.8 219.5,413.3 220.6,413.7 221.6,414.1 
			222.7,414.4 223.9,414.6 225,414.8 226.1,415 227.3,415.1 228.5,415.1 228.5,415.1 		"/>
		<polygon class="st4" points="197.6,415.1 198.8,415.1 200,415 201.1,414.8 202.3,414.6 203.4,414.4 204.5,414.1 205.5,413.7 
			206.6,413.3 207.6,412.8 208.6,412.3 209.6,411.8 210.5,411.2 211.4,410.5 212.3,409.8 213.1,409.1 213.9,408.3 214.7,407.5 
			215.4,406.7 216.1,405.8 216.7,404.9 217.3,404 217.9,403 218.4,402 218.9,401 219.3,399.9 219.6,398.9 219.9,397.8 220.2,396.6 
			220.4,395.5 220.5,394.4 220.6,393.2 220.7,392 220.6,390.8 220.5,389.6 220.4,388.5 220.2,387.3 219.9,386.2 219.6,385.1 
			219.3,384.1 218.9,383 218.4,382 217.9,381 217.3,380.1 216.7,379.1 216.1,378.2 215.4,377.3 214.7,376.5 213.9,375.7 
			213.1,374.9 212.3,374.2 211.4,373.5 210.5,372.9 209.6,372.3 208.6,371.7 207.6,371.2 206.6,370.8 205.5,370.3 204.5,370 
			203.4,369.7 202.3,369.4 201.1,369.2 200,369.1 198.8,369 197.6,368.9 196.4,369 195.3,369.1 194.1,369.2 193,369.4 191.8,369.7 
			190.7,370 189.7,370.3 188.6,370.8 187.6,371.2 186.6,371.7 185.6,372.3 184.7,372.9 183.8,373.5 182.9,374.2 182.1,374.9 
			181.3,375.7 180.5,376.5 179.8,377.3 179.1,378.2 178.4,379.1 177.8,380.1 177.3,381 176.8,382 176.3,383 175.9,384.1 
			175.5,385.1 175.2,386.2 175,387.3 174.8,388.5 174.6,389.6 174.5,390.8 174.5,392 174.5,393.2 174.6,394.4 174.8,395.5 
			175,396.6 175.2,397.8 175.5,398.9 175.9,399.9 176.3,401 176.8,402 177.3,403 177.8,404 178.4,404.9 179.1,405.8 179.8,406.7 
			180.5,407.5 181.3,408.3 182.1,409.1 182.9,409.8 183.8,410.5 184.7,411.2 185.6,411.8 186.6,412.3 187.6,412.8 188.6,413.3 
			189.7,413.7 190.7,414.1 191.8,414.4 193,414.6 194.1,414.8 195.3,415 196.4,415.1 197.6,415.1 197.6,415.1 		"/>
		<polygon class="st3" points="210.4,377.8 222.6,377.8 222.6,376.5 211.4,376.5 210.4,377.8 210.4,377.8 		"/>
		<polygon class="st3" points="208.5,380.6 222.6,380.6 222.6,379.3 209.3,379.3 208.5,380.6 208.5,380.6 		"/>
		<polygon class="st3" points="207.2,383.4 222.6,383.4 222.6,382.1 207.7,382.1 207.2,383.4 207.2,383.4 		"/>
		<polygon class="st3" points="206.2,386.1 222.6,386.1 222.6,384.9 206.6,384.9 206.2,386.1 206.2,386.1 		"/>
		<polygon class="st3" points="206.8,399.6 222.7,399.6 222.7,398.4 206.4,398.4 206.8,399.6 206.8,399.6 		"/>
		<polygon class="st3" points="207.9,402.4 222.7,402.4 222.7,401.2 207.3,401.2 207.9,402.4 207.9,402.4 		"/>
		<polygon class="st3" points="209.6,405.2 222.7,405.2 222.7,403.9 208.8,403.9 209.6,405.2 209.6,405.2 		"/>
		<polygon class="st3" points="211.9,408 222.7,408 222.7,406.7 210.8,406.7 211.9,408 211.9,408 		"/>
		<polygon class="st3" points="205.7,388.9 222.6,388.9 222.6,387.7 205.9,387.7 205.7,388.9 205.7,388.9 		"/>
		<polygon class="st3" points="216,396.8 222.5,396.8 222.5,395.6 216.2,395.6 216,396.8 216,396.8 		"/>
		<polygon class="st3" points="216.5,394.1 222.5,394.1 222.5,392.8 216.7,392.8 216.5,394.1 216.5,394.1 		"/>
		<polygon class="st3" points="205.2,392.8 206.9,392.8 206.9,394.1 205.3,394.1 205.2,392.8 205.2,392.8 		"/>
		<polygon class="st5" points="202.1,391.3 202,391.3 201.9,391.3 201.8,391.2 201.7,391.2 201.6,391.2 201.5,391.2 201.4,391.2 
			201.3,391.2 201.2,391.1 201,391.1 200.9,391.1 200.7,391.1 200.6,391.1 200.4,391.1 200.2,391.1 200,391.2 199.8,391.2 
			199.7,391.2 199.5,391.3 199.4,391.3 199.3,391.4 199.2,391.4 199.1,391.5 199.1,391.6 199,391.7 199,391.7 199,391.8 199,391.9 
			199,392 199,392.1 199.1,392.2 199.2,392.3 199.3,392.5 199.5,392.6 199.7,392.7 199.9,392.8 200.2,392.9 200.5,392.9 200.7,393 
			201,393.1 201.2,393.3 201.4,393.4 201.6,393.6 201.8,393.9 201.9,394.2 202,394.5 202,394.9 202,395.4 201.9,395.8 201.8,396.1 
			201.7,396.4 201.5,396.7 201.4,396.9 201.2,397.1 200.9,397.3 200.7,397.4 200.5,397.5 200.2,397.6 199.9,397.7 199.7,397.8 
			199.4,397.8 199.1,397.8 198.9,397.9 198.6,397.9 198.3,397.9 198,397.9 197.7,397.9 197.5,397.8 197.2,397.8 197,397.8 
			196.8,397.8 196.7,397.8 196.5,397.8 196.3,397.7 196.2,397.7 196.1,397.7 195.9,397.6 195.8,397.6 195.7,397.6 195.5,397.5 
			195.9,395.8 196,395.8 196.1,395.8 196.2,395.9 196.3,395.9 196.4,395.9 196.6,395.9 196.8,396 197,396 197.1,396 197.3,396.1 
			197.6,396.1 197.8,396.1 198,396.1 198.2,396.1 198.5,396.1 198.7,396.1 198.9,396.1 199.1,396 199.2,395.9 199.3,395.8 
			199.4,395.7 199.5,395.6 199.5,395.5 199.5,395.4 199.6,395.1 199.5,394.9 199.4,394.8 199.2,394.6 198.9,394.5 198.7,394.4 
			198.4,394.3 198,394.2 197.7,394 197.4,393.9 197.2,393.7 196.9,393.4 196.7,393.1 196.6,392.8 196.5,392.4 196.5,391.9 
			196.6,391.6 196.6,391.3 196.7,391 196.8,390.8 196.9,390.5 197.1,390.3 197.2,390.1 197.4,390 197.6,389.8 197.9,389.7 
			198.2,389.6 198.5,389.5 198.8,389.4 199.2,389.4 199.6,389.3 200.1,389.3 200.4,389.3 200.6,389.3 200.9,389.3 201.1,389.3 
			201.3,389.4 201.5,389.4 201.6,389.4 201.8,389.4 201.9,389.4 202,389.4 202.1,389.5 202.2,389.5 202.3,389.5 202.4,389.5 
			202.4,389.5 202.5,389.5 202.1,391.3 202.1,391.3 		"/>
		<polyline class="st6" points="202.1,391.3 202.1,391.3 202,391.3 201.9,391.3 201.8,391.2 201.7,391.2 201.6,391.2 201.5,391.2 
			201.4,391.2 201.3,391.2 201.2,391.1 201,391.1 200.9,391.1 200.7,391.1 200.6,391.1 200.4,391.1 200.2,391.1 200,391.2 
			200,391.2 199.8,391.2 199.7,391.2 199.5,391.3 199.4,391.3 199.3,391.4 199.2,391.4 199.1,391.5 199.1,391.6 199,391.7 
			199,391.7 199,391.8 199,391.9 199,392 199,392.1 199.1,392.2 199.2,392.3 199.2,392.3 199.3,392.5 199.5,392.6 199.7,392.7 
			199.9,392.8 200.2,392.9 200.5,392.9 200.7,393 201,393.1 201.2,393.3 201.4,393.4 201.6,393.6 201.8,393.9 201.9,394.2 
			202,394.5 202,394.9 202,395.4 202,395.4 201.9,395.8 201.8,396.1 201.7,396.4 201.5,396.7 201.4,396.9 201.2,397.1 200.9,397.3 
			200.7,397.4 200.5,397.5 200.2,397.6 199.9,397.7 199.7,397.8 199.4,397.8 199.1,397.8 198.9,397.9 198.6,397.9 198.6,397.9 
			198.3,397.9 198,397.9 197.7,397.9 197.5,397.8 197.2,397.8 197,397.8 196.8,397.8 196.7,397.8 196.5,397.8 196.3,397.7 
			196.2,397.7 196.1,397.7 195.9,397.6 195.8,397.6 195.7,397.6 195.5,397.5 195.9,395.8 195.9,395.8 196,395.8 196.1,395.8 
			196.2,395.9 196.3,395.9 196.4,395.9 196.6,395.9 196.8,396 197,396 197.1,396 197.3,396.1 197.6,396.1 197.8,396.1 198,396.1 
			198.2,396.1 198.5,396.1 198.7,396.1 198.7,396.1 198.9,396.1 199.1,396 199.2,395.9 199.3,395.8 199.4,395.7 199.5,395.6 
			199.5,395.5 199.5,395.4 199.5,395.4 199.6,395.1 199.5,394.9 199.4,394.8 199.2,394.6 198.9,394.5 198.7,394.4 198.4,394.3 
			198,394.2 197.7,394 197.4,393.9 197.2,393.7 196.9,393.4 196.7,393.1 196.6,392.8 196.5,392.4 196.5,391.9 196.5,391.9 
			196.6,391.6 196.6,391.3 196.7,391 196.8,390.8 196.9,390.5 197.1,390.3 197.2,390.1 197.4,390 197.6,389.8 197.9,389.7 
			198.2,389.6 198.5,389.5 198.8,389.4 199.2,389.4 199.6,389.3 200.1,389.3 200.1,389.3 200.4,389.3 200.6,389.3 200.9,389.3 
			201.1,389.3 201.3,389.4 201.5,389.4 201.6,389.4 201.8,389.4 201.9,389.4 202,389.4 202.1,389.5 202.2,389.5 202.3,389.5 
			202.4,389.5 202.4,389.5 202.5,389.5 202.1,391.3 		"/>
		<polygon class="st5" points="203.9,387.6 206.1,387.6 205.8,389.5 207.1,389.5 206.8,391.2 205.4,391.2 204.7,395.6 204.7,395.7 
			204.7,395.8 204.8,395.9 204.9,396 205,396.1 205.2,396.1 205.4,396.2 205.5,396.2 205.7,396.2 205.9,396.1 206,396.1 
			206.1,396.1 206.2,396.1 206.3,396 206.4,396 206.4,396 206.1,397.5 206,397.5 206,397.5 205.9,397.6 205.9,397.6 205.8,397.6 
			205.8,397.6 205.7,397.7 205.6,397.7 205.5,397.7 205.5,397.7 205.4,397.7 205.3,397.8 205.2,397.8 205.1,397.8 204.9,397.8 
			204.8,397.8 204.2,397.8 203.9,397.8 203.6,397.8 203.4,397.7 203.2,397.7 203,397.6 202.8,397.5 202.7,397.4 202.6,397.3 
			202.5,397.2 202.5,397.1 202.4,397 202.4,396.8 202.4,396.6 202.4,396.5 202.4,396.3 202.4,396.1 203.9,387.6 203.9,387.6 		"/>
		<polyline class="st6" points="203.9,387.6 206.1,387.6 205.8,389.5 207.1,389.5 206.8,391.2 205.4,391.2 204.7,395.6 204.7,395.6 
			204.7,395.7 204.7,395.8 204.8,395.9 204.9,396 205,396.1 205.2,396.1 205.4,396.2 205.5,396.2 205.5,396.2 205.7,396.2 
			205.9,396.1 206,396.1 206.1,396.1 206.2,396.1 206.3,396 206.4,396 206.4,396 206.1,397.5 206.1,397.5 206,397.5 206,397.5 
			205.9,397.6 205.9,397.6 205.8,397.6 205.8,397.6 205.7,397.7 205.6,397.7 205.5,397.7 205.5,397.7 205.4,397.7 205.3,397.8 
			205.2,397.8 205.1,397.8 204.9,397.8 204.8,397.8 204.2,397.8 204.2,397.8 203.9,397.8 203.6,397.8 203.4,397.7 203.2,397.7 
			203,397.6 202.8,397.5 202.7,397.4 202.6,397.3 202.5,397.2 202.5,397.1 202.4,397 202.4,396.8 202.4,396.6 202.4,396.5 
			202.4,396.3 202.4,396.1 203.9,387.6 		"/>
		<polygon class="st5" points="208.8,394.2 208.8,394.3 208.8,394.5 208.8,394.6 208.8,394.7 208.9,394.9 208.9,395 209,395.2 
			209.1,395.3 209.2,395.4 209.3,395.6 209.5,395.7 209.6,395.8 209.7,395.9 209.9,395.9 210.1,396 210.2,396 210.4,396 
			210.6,396.1 210.8,396.1 211,396.1 211.2,396.1 211.4,396.1 211.6,396.1 211.8,396.1 212,396.1 212.3,396 212.5,396 212.7,395.9 
			212.9,395.8 213.1,395.7 213.3,395.6 213.6,395.5 213.3,397.4 213.1,397.5 213,397.5 212.9,397.6 212.8,397.6 212.7,397.6 
			212.5,397.7 212.4,397.7 212.3,397.7 212.1,397.8 212,397.8 211.8,397.8 211.6,397.8 211.4,397.8 211.2,397.8 211,397.8 
			210.7,397.8 210.3,397.8 209.9,397.8 209.6,397.7 209.2,397.6 208.8,397.5 208.4,397.4 208.1,397.2 207.7,396.9 207.4,396.7 
			207.2,396.4 207,396 206.8,395.6 206.6,395.1 206.5,394.6 206.5,394 206.6,393.4 206.6,393.1 206.6,392.9 206.7,392.6 
			206.8,392.2 206.9,391.9 207,391.6 207.2,391.2 207.4,390.9 207.7,390.6 208,390.3 208.3,390 208.7,389.8 209.2,389.6 
			209.7,389.4 210.2,389.4 210.9,389.3 211.2,389.3 211.5,389.4 211.8,389.4 212.1,389.5 212.4,389.6 212.8,389.7 213,389.9 
			213.3,390.2 213.5,390.4 213.7,390.7 213.9,391.1 214,391.5 214,392 214.1,392.5 214,393.1 213.9,393.7 213.8,394.2 208.2,394.2 
			208.5,392.7 211.9,392.7 212,392.5 211.9,392.3 211.9,392.1 211.9,392 211.8,391.8 211.8,391.7 211.7,391.6 211.6,391.5 
			211.5,391.4 211.4,391.3 211.3,391.2 211.2,391.2 211.1,391.1 211,391.1 210.8,391.1 210.7,391 210.5,391.1 210.4,391.1 
			210.3,391.1 210.1,391.2 210,391.2 209.9,391.3 209.8,391.4 209.7,391.5 209.6,391.6 209.5,391.7 209.4,391.8 209.3,392 
			209.2,392.1 209.2,392.2 209.1,392.4 209.1,392.6 208.8,394.2 208.8,394.2 		"/>
		<polyline class="st6" points="208.8,394.2 208.8,394.2 208.8,394.3 208.8,394.5 208.8,394.6 208.8,394.7 208.9,394.9 208.9,395 
			209,395.2 209.1,395.3 209.2,395.4 209.3,395.6 209.5,395.7 209.6,395.8 209.7,395.9 209.9,395.9 210.1,396 210.2,396 210.2,396 
			210.4,396 210.6,396.1 210.8,396.1 211,396.1 211.2,396.1 211.4,396.1 211.6,396.1 211.8,396.1 212,396.1 212.3,396 212.5,396 
			212.7,395.9 212.9,395.8 213.1,395.7 213.3,395.6 213.6,395.5 213.3,397.4 213.3,397.4 213.1,397.5 213,397.5 212.9,397.6 
			212.8,397.6 212.7,397.6 212.5,397.7 212.4,397.7 212.3,397.7 212.1,397.8 212,397.8 211.8,397.8 211.6,397.8 211.4,397.8 
			211.2,397.8 211,397.8 210.7,397.8 210.7,397.8 210.3,397.8 209.9,397.8 209.6,397.7 209.2,397.6 208.8,397.5 208.4,397.4 
			208.1,397.2 207.7,396.9 207.4,396.7 207.2,396.4 207,396 206.8,395.6 206.6,395.1 206.5,394.6 206.5,394 206.6,393.4 
			206.6,393.4 206.6,393.1 206.6,392.9 206.7,392.6 206.8,392.2 206.9,391.9 207,391.6 207.2,391.2 207.4,390.9 207.7,390.6 
			208,390.3 208.3,390 208.7,389.8 209.2,389.6 209.7,389.4 210.2,389.4 210.9,389.3 210.9,389.3 211.2,389.3 211.5,389.4 
			211.8,389.4 212.1,389.5 212.4,389.6 212.8,389.7 213,389.9 213.3,390.2 213.5,390.4 213.7,390.7 213.9,391.1 214,391.5 214,392 
			214.1,392.5 214,393.1 213.9,393.7 213.8,394.2 208.2,394.2 208.5,392.7 211.9,392.7 211.9,392.7 212,392.5 211.9,392.3 
			211.9,392.1 211.9,392 211.8,391.8 211.8,391.7 211.7,391.6 211.6,391.5 211.5,391.4 211.4,391.3 211.3,391.2 211.2,391.2 
			211.1,391.1 211,391.1 210.8,391.1 210.7,391 210.7,391 210.5,391.1 210.4,391.1 210.3,391.1 210.1,391.2 210,391.2 209.9,391.3 
			209.8,391.4 209.7,391.5 209.6,391.6 209.5,391.7 209.4,391.8 209.3,392 209.2,392.1 209.2,392.2 209.1,392.4 209.1,392.6 
			208.8,394.2 		"/>
		<polygon class="st5" points="227.4,390 227.3,389.9 227.2,389.8 227.1,389.8 226.9,389.7 226.8,389.7 226.7,389.6 226.6,389.6 
			226.4,389.6 226.3,389.5 226.1,389.5 226,389.5 225.8,389.4 225.6,389.4 225.4,389.4 225.3,389.4 225.1,389.4 224.9,389.4 
			224.7,389.4 224.5,389.4 224.2,389.5 224,389.5 223.8,389.6 223.6,389.7 223.4,389.9 223.2,390 222.9,390.2 222.8,390.5 
			222.6,390.8 222.4,391.1 222.2,391.5 222.1,392 222,392.5 221.9,392.7 221.9,393 221.9,393.3 221.9,393.5 221.9,393.8 222,394.1 
			222,394.3 222.1,394.5 222.2,394.7 222.4,394.9 222.5,395.1 222.7,395.3 222.9,395.4 223.2,395.5 223.4,395.6 223.7,395.7 
			223.8,395.7 223.9,395.8 224.1,395.8 224.2,395.8 224.4,395.8 224.6,395.8 224.8,395.8 225,395.8 225.2,395.8 225.4,395.7 
			225.6,395.7 225.8,395.6 226,395.5 226.1,395.4 226.3,395.3 226.5,395.2 226.1,397.2 226.1,397.3 226,397.3 226,397.4 
			225.9,397.4 225.8,397.5 225.7,397.5 225.6,397.6 225.4,397.6 225.3,397.7 225.1,397.7 224.8,397.8 224.5,397.8 224.2,397.8 
			223.9,397.8 223.5,397.8 223.1,397.8 222.7,397.7 222.3,397.7 222,397.6 221.6,397.4 221.3,397.2 221,397 220.6,396.7 
			220.4,396.4 220.1,396 219.9,395.7 219.7,395.2 219.6,394.7 219.5,394.2 219.4,393.7 219.4,393.1 219.5,392.4 219.6,392.1 
			219.7,391.8 219.7,391.5 219.8,391.2 219.9,390.9 220,390.6 220.1,390.4 220.2,390.1 220.3,389.9 220.4,389.7 220.6,389.5 
			220.7,389.3 220.9,389.1 221,388.9 221.2,388.7 221.3,388.5 221.5,388.4 221.7,388.2 221.9,388.1 222.1,388 222.3,387.9 
			222.5,387.8 222.7,387.7 222.9,387.6 223.2,387.5 223.4,387.4 223.7,387.4 223.9,387.3 224.2,387.3 224.5,387.3 224.8,387.3 
			225.1,387.2 225.3,387.3 225.5,387.3 225.8,387.3 226,387.3 226.2,387.4 226.4,387.4 226.6,387.4 226.8,387.5 227,387.5 
			227.2,387.6 227.3,387.6 227.4,387.7 227.6,387.7 227.6,387.7 227.7,387.8 227.8,387.8 227.4,390 227.4,390 		"/>
		<polyline class="st6" points="227.4,390 227.4,390 227.3,389.9 227.2,389.8 227.1,389.8 226.9,389.7 226.8,389.7 226.7,389.6 
			226.6,389.6 226.4,389.6 226.3,389.5 226.1,389.5 226,389.5 225.8,389.4 225.6,389.4 225.4,389.4 225.3,389.4 225.1,389.4 
			225.1,389.4 224.9,389.4 224.7,389.4 224.5,389.4 224.2,389.5 224,389.5 223.8,389.6 223.6,389.7 223.4,389.9 223.2,390 
			222.9,390.2 222.8,390.5 222.6,390.8 222.4,391.1 222.2,391.5 222.1,392 222,392.5 222,392.5 221.9,392.7 221.9,393 221.9,393.3 
			221.9,393.5 221.9,393.8 222,394.1 222,394.3 222.1,394.5 222.2,394.7 222.4,394.9 222.5,395.1 222.7,395.3 222.9,395.4 
			223.2,395.5 223.4,395.6 223.7,395.7 223.7,395.7 223.8,395.7 223.9,395.8 224.1,395.8 224.2,395.8 224.4,395.8 224.6,395.8 
			224.8,395.8 225,395.8 225.2,395.8 225.4,395.7 225.6,395.7 225.8,395.6 226,395.5 226.1,395.4 226.3,395.3 226.5,395.2 
			226.1,397.2 226.1,397.2 226.1,397.3 226,397.3 226,397.4 225.9,397.4 225.8,397.5 225.7,397.5 225.6,397.6 225.4,397.6 
			225.3,397.7 225.1,397.7 224.8,397.8 224.5,397.8 224.2,397.8 223.9,397.8 223.5,397.8 223.1,397.8 223.1,397.8 222.7,397.7 
			222.3,397.7 222,397.6 221.6,397.4 221.3,397.2 221,397 220.6,396.7 220.4,396.4 220.1,396 219.9,395.7 219.7,395.2 219.6,394.7 
			219.5,394.2 219.4,393.7 219.4,393.1 219.5,392.4 219.5,392.4 219.6,392.1 219.7,391.8 219.7,391.5 219.8,391.2 219.9,390.9 
			220,390.6 220.1,390.4 220.2,390.1 220.3,389.9 220.4,389.7 220.6,389.5 220.7,389.3 220.9,389.1 221,388.9 221.2,388.7 
			221.3,388.5 221.5,388.4 221.7,388.2 221.9,388.1 222.1,388 222.3,387.9 222.5,387.8 222.7,387.7 222.9,387.6 223.2,387.5 
			223.4,387.4 223.7,387.4 223.9,387.3 224.2,387.3 224.5,387.3 224.8,387.3 225.1,387.2 225.1,387.2 225.3,387.3 225.5,387.3 
			225.8,387.3 226,387.3 226.2,387.4 226.4,387.4 226.6,387.4 226.8,387.5 227,387.5 227.2,387.6 227.3,387.6 227.4,387.7 
			227.6,387.7 227.6,387.7 227.7,387.8 227.8,387.8 227.4,390 		"/>
		<polygon class="st5" points="246.5,397.8 244.4,397.8 244.5,397 244.5,396.9 244.4,397 244.3,397.2 244.2,397.3 244,397.4 
			243.9,397.5 243.7,397.6 243.6,397.7 243.4,397.7 243.3,397.8 243.2,397.8 243,397.9 242.8,397.9 242.7,397.9 242.5,397.9 
			242.4,397.9 242.2,397.9 241.8,397.9 241.5,397.8 241.1,397.7 240.8,397.5 240.5,397.3 240.3,397 240.1,396.7 239.9,396.4 
			239.7,396.1 239.6,395.7 239.5,395.3 239.4,394.9 239.4,394.5 239.4,394.1 239.5,393.7 239.5,393.3 239.6,392.9 239.8,392.4 
			239.9,392 240.1,391.6 240.3,391.3 240.6,391 240.8,390.7 241.1,390.4 241.4,390.2 241.6,390 241.9,389.9 242.2,389.7 
			242.5,389.6 242.9,389.5 243.2,389.5 243.5,389.5 243.7,389.5 243.9,389.5 244.1,389.6 244.3,389.6 244.5,389.7 244.7,389.7 
			244.8,389.8 244.9,389.9 245.1,390 245.2,390.1 245.3,390.2 245.4,390.3 245.5,390.4 245.5,390.5 245.6,390.6 245.6,390.7 
			245.6,390.7 246.2,387.6 248.3,387.6 246.5,397.8 246.5,397.8 		"/>
		<polyline class="st6" points="246.5,397.8 244.4,397.8 244.5,397 244.5,396.9 244.5,396.9 244.4,397 244.3,397.2 244.2,397.3 
			244,397.4 243.9,397.5 243.7,397.6 243.6,397.7 243.4,397.7 243.3,397.8 243.2,397.8 243,397.9 242.8,397.9 242.7,397.9 
			242.5,397.9 242.4,397.9 242.2,397.9 242.2,397.9 241.8,397.9 241.5,397.8 241.1,397.7 240.8,397.5 240.5,397.3 240.3,397 
			240.1,396.7 239.9,396.4 239.7,396.1 239.6,395.7 239.5,395.3 239.4,394.9 239.4,394.5 239.4,394.1 239.5,393.7 239.5,393.3 
			239.5,393.3 239.6,392.9 239.8,392.4 239.9,392 240.1,391.6 240.3,391.3 240.6,391 240.8,390.7 241.1,390.4 241.4,390.2 
			241.6,390 241.9,389.9 242.2,389.7 242.5,389.6 242.9,389.5 243.2,389.5 243.5,389.5 243.5,389.5 243.7,389.5 243.9,389.5 
			244.1,389.6 244.3,389.6 244.5,389.7 244.7,389.7 244.8,389.8 244.9,389.9 245.1,390 245.2,390.1 245.3,390.2 245.4,390.3 
			245.5,390.4 245.5,390.5 245.6,390.6 245.6,390.7 245.6,390.7 246.2,387.6 248.3,387.6 246.5,397.8 		"/>
		<polygon class="st3" points="243,395.9 243.2,395.9 243.4,395.9 243.6,395.8 243.8,395.7 244,395.6 244.1,395.5 244.3,395.4 
			244.4,395.3 244.5,395.1 244.6,394.9 244.7,394.7 244.8,394.6 244.9,394.4 245,394.2 245,394 245.1,393.7 245.1,393.5 
			245.1,393.3 245.1,393.1 245.1,392.9 245.1,392.7 245.1,392.5 245,392.3 244.9,392.1 244.9,392 244.8,391.8 244.7,391.7 
			244.5,391.6 244.4,391.5 244.3,391.4 244.1,391.4 244,391.4 243.7,391.4 243.6,391.4 243.4,391.5 243.2,391.5 243,391.6 
			242.9,391.8 242.8,391.9 242.6,392.1 242.5,392.2 242.4,392.4 242.3,392.6 242.2,392.8 242.1,393 242.1,393.2 242,393.4 
			242,393.7 241.9,394 241.9,394.4 242,394.8 242.1,395.1 242.2,395.4 242.4,395.7 242.7,395.9 243,395.9 243,395.9 		"/>
		<polygon class="st5" points="195.2,396.1 194.9,397.8 192.9,397.8 193,397.5 193,397.2 193,397 193.1,396.9 193,397 192.8,397.1 
			192.7,397.2 192.5,397.4 192.3,397.5 192.1,397.6 191.9,397.7 191.7,397.7 191.5,397.8 191.3,397.9 191.1,397.9 190.8,397.9 
			190.6,397.9 190.4,398 190.2,397.9 189.9,397.9 189.7,397.8 189.4,397.8 189.2,397.7 189,397.5 188.8,397.4 188.7,397.3 
			188.6,397.1 188.4,397 188.4,396.8 188.3,396.6 188.2,396.5 188.2,396.3 188.1,396.1 188.1,395.9 188.1,395.8 188.1,395.6 
			188.1,395.3 188.2,395 188.2,394.7 188.3,394.5 188.5,394.2 188.6,394 188.8,393.8 189,393.6 189.2,393.4 189.4,393.2 
			189.6,393.1 189.8,393 190.1,392.8 190.3,392.8 190.6,392.7 190.9,392.6 190.9,392.6 190.9,392.6 191,392.6 191.1,392.6 
			191.2,392.6 191.3,392.6 191.4,392.6 191.5,392.6 191.7,392.6 191.8,392.5 191.9,392.5 192.1,392.5 192.2,392.5 192.3,392.5 
			192.4,392.5 192.5,392.5 192.7,392.5 192.9,392.5 193,392.5 193.2,392.5 193.3,392.5 193.4,392.5 193.5,392.5 193.5,392.5 
			193.6,392.5 193.6,392.3 193.6,392.2 193.7,392 193.6,391.9 193.6,391.7 193.5,391.6 193.3,391.4 193.2,391.3 193,391.3 
			192.8,391.2 192.6,391.2 192.4,391.2 192.2,391.2 192,391.2 191.7,391.2 191.4,391.2 191.2,391.2 190.9,391.3 190.7,391.3 
			190.5,391.3 190.2,391.4 190,391.4 189.9,391.4 189.7,391.5 189.5,391.5 189.4,391.6 189.4,391.6 189.9,389.8 190.1,389.7 
			190.2,389.6 190.4,389.6 190.6,389.5 190.8,389.5 191,389.5 191.2,389.4 191.4,389.4 191.6,389.4 191.9,389.4 192.1,389.4 
			192.3,389.4 192.6,389.4 192.8,389.4 193.1,389.4 193.4,389.4 193.6,389.4 193.8,389.5 194.1,389.5 194.3,389.6 194.6,389.7 
			194.8,389.8 195,389.9 195.3,390.1 195.5,390.2 195.6,390.4 195.8,390.6 195.9,390.9 196,391.1 196,391.4 196,391.7 196,392 
			195.2,396.1 195.2,396.1 		"/>
		<polyline class="st6" points="195.2,396.1 194.9,397.8 192.9,397.8 192.9,397.8 193,397.5 193,397.2 193,397 193.1,396.9 
			193.1,396.9 193,397 192.8,397.1 192.7,397.2 192.5,397.4 192.3,397.5 192.1,397.6 191.9,397.7 191.7,397.7 191.5,397.8 
			191.3,397.9 191.1,397.9 190.8,397.9 190.6,397.9 190.4,398 190.2,397.9 189.9,397.9 189.9,397.9 189.7,397.8 189.4,397.8 
			189.2,397.7 189,397.5 188.8,397.4 188.7,397.3 188.6,397.1 188.4,397 188.4,396.8 188.3,396.6 188.2,396.5 188.2,396.3 
			188.1,396.1 188.1,395.9 188.1,395.8 188.1,395.6 188.1,395.6 188.1,395.3 188.2,395 188.2,394.7 188.3,394.5 188.5,394.2 
			188.6,394 188.8,393.8 189,393.6 189.2,393.4 189.4,393.2 189.6,393.1 189.8,393 190.1,392.8 190.3,392.8 190.6,392.7 
			190.9,392.6 190.9,392.6 190.9,392.6 190.9,392.6 191,392.6 191.1,392.6 191.2,392.6 191.3,392.6 191.4,392.6 191.5,392.6 
			191.7,392.6 191.8,392.5 191.9,392.5 192.1,392.5 192.2,392.5 192.3,392.5 192.4,392.5 192.5,392.5 192.5,392.5 192.7,392.5 
			192.9,392.5 193,392.5 193.2,392.5 193.3,392.5 193.4,392.5 193.5,392.5 193.5,392.5 193.5,392.5 193.6,392.5 193.6,392.3 
			193.6,392.2 193.7,392 193.7,392 193.6,391.9 193.6,391.7 193.5,391.6 193.3,391.4 193.2,391.3 193,391.3 192.8,391.2 
			192.6,391.2 192.6,391.2 192.4,391.2 192.2,391.2 192,391.2 191.7,391.2 191.4,391.2 191.2,391.2 190.9,391.3 190.7,391.3 
			190.5,391.3 190.2,391.4 190,391.4 189.9,391.4 189.7,391.5 189.5,391.5 189.4,391.6 189.4,391.6 189.9,389.8 189.9,389.8 
			190.1,389.7 190.2,389.6 190.4,389.6 190.6,389.5 190.8,389.5 191,389.5 191.2,389.4 191.4,389.4 191.6,389.4 191.9,389.4 
			192.1,389.4 192.3,389.4 192.6,389.4 192.8,389.4 193.1,389.4 193.4,389.4 193.4,389.4 193.6,389.4 193.8,389.5 194.1,389.5 
			194.3,389.6 194.6,389.7 194.8,389.8 195,389.9 195.3,390.1 195.5,390.2 195.6,390.4 195.8,390.6 195.9,390.9 196,391.1 
			196,391.4 196,391.7 196,392 195.2,396.1 		"/>
		<polygon class="st4" points="193.3,394.1 193.3,394 193.3,394 193.2,394 193.2,393.9 193.1,393.9 193,393.9 192.8,393.9 
			192.7,393.9 192.6,393.9 192.5,393.9 192.3,394 192.2,394 192.1,394 192,394 191.9,394 191.8,394.1 191.8,394.1 191.7,394.1 
			191.6,394.1 191.5,394.2 191.4,394.2 191.3,394.3 191.2,394.3 191.1,394.4 191,394.5 190.9,394.5 190.8,394.6 190.7,394.7 
			190.7,394.8 190.6,394.9 190.5,395.1 190.5,395.2 190.5,395.5 190.6,395.7 190.6,395.8 190.7,395.9 190.9,396 191,396.1 
			191.1,396.1 191.2,396.1 191.5,396.1 191.7,396.1 191.9,396 192.1,396 192.2,395.9 192.4,395.9 192.5,395.8 192.6,395.7 
			192.7,395.6 192.8,395.5 192.9,395.4 192.9,395.4 193,395.3 193,395.2 193.1,395.1 193.1,395 193.2,394.8 193.2,394.5 
			193.3,394.3 193.3,394.1 193.3,394.1 		"/>
		<polygon class="st5" points="178.8,397.8 176.7,397.8 178.5,387.6 182.1,387.6 182.5,393.7 185,387.6 188.9,387.6 187.1,397.8 
			185,397.8 186.3,390.2 186.2,390.2 183,397.8 180.7,397.8 180.6,397.5 180.6,396.7 180.5,395.4 180.4,394.1 180.4,392.7 
			180.3,391.4 180.2,390.6 180.2,390.2 180.2,390.2 180.1,390.2 180.1,390.2 180.1,390.2 178.8,397.8 178.8,397.8 		"/>
		<polyline class="st6" points="178.8,397.8 176.7,397.8 178.5,387.6 182.1,387.6 182.5,393.7 185,387.6 188.9,387.6 187.1,397.8 
			185,397.8 186.3,390.2 186.2,390.2 183,397.8 180.7,397.8 180.7,397.8 180.6,397.5 180.6,396.7 180.5,395.4 180.4,394.1 
			180.4,392.7 180.3,391.4 180.2,390.6 180.2,390.2 180.2,390.2 180.2,390.2 180.1,390.2 180.1,390.2 180.1,390.2 178.8,397.8 		"/>
		<polygon class="st5" points="233.8,396.1 233.5,397.8 231.6,397.8 231.6,397.5 231.6,397.2 231.6,397 231.6,396.9 231.5,397 
			231.4,397.2 231.3,397.3 231.1,397.4 230.9,397.5 230.7,397.6 230.5,397.7 230.4,397.7 230.1,397.8 229.9,397.9 229.7,397.9 
			229.5,397.9 229.3,397.9 229,398 228.8,397.9 228.6,397.9 228.3,397.8 228.1,397.8 227.9,397.7 227.7,397.5 227.5,397.4 
			227.4,397.3 227.2,397.1 227.1,397 227,396.8 227,396.6 226.9,396.5 226.9,396.3 226.8,396.1 226.8,395.9 226.8,395.8 
			226.8,395.6 226.8,395.3 226.8,395 226.9,394.7 227,394.5 227.1,394.2 227.3,394 227.4,393.8 227.6,393.6 227.8,393.4 228,393.2 
			228.3,393.1 228.5,393 228.8,392.8 229,392.8 229.3,392.7 229.5,392.6 229.5,392.6 229.6,392.6 229.6,392.6 229.7,392.6 
			229.8,392.6 229.9,392.6 230,392.6 230.2,392.6 230.3,392.6 230.4,392.5 230.6,392.5 230.7,392.5 230.8,392.5 230.9,392.5 
			231,392.5 231.1,392.5 231.3,392.5 231.5,392.5 231.7,392.5 231.9,392.5 232,392.5 232.1,392.5 232.2,392.5 232.2,392.5 
			232.2,392.5 232.3,392.3 232.3,392.2 232.3,392 232.3,391.9 232.2,391.7 232.1,391.6 232,391.4 231.9,391.3 231.7,391.3 
			231.5,391.2 231.3,391.2 231.1,391.2 230.9,391.2 230.6,391.2 230.4,391.2 230.1,391.2 229.9,391.2 229.6,391.3 229.4,391.3 
			229.2,391.3 228.9,391.4 228.7,391.4 228.5,391.4 228.4,391.5 228.2,391.5 228.1,391.6 228,391.6 228.6,389.8 228.8,389.7 
			228.9,389.6 229.1,389.6 229.3,389.5 229.5,389.5 229.7,389.5 229.9,389.4 230.1,389.4 230.3,389.4 230.5,389.4 230.8,389.4 
			231,389.4 231.3,389.4 231.5,389.4 231.8,389.4 232,389.4 232.3,389.4 232.5,389.5 232.7,389.5 233,389.6 233.2,389.7 
			233.5,389.8 233.7,389.9 233.9,390.1 234.1,390.2 234.3,390.4 234.4,390.6 234.6,390.9 234.6,391.1 234.7,391.4 234.7,391.7 
			234.7,392 233.8,396.1 233.8,396.1 		"/>
		<polygon class="st5" points="233.5,397.9 233.6,397.8 233.9,396.1 233.8,396.1 233.5,397.8 233.5,397.8 233.5,397.9 233.6,397.9 
			233.6,397.8 233.5,397.9 233.5,397.9 		"/>
		<polygon class="st5" points="231.5,397.8 231.6,397.9 233.5,397.9 233.5,397.8 231.6,397.8 231.6,397.8 231.5,397.8 231.5,397.9 
			231.6,397.9 231.5,397.8 231.5,397.8 		"/>
		<polygon class="st5" points="231.6,397 231.6,396.9 231.5,397 231.5,397.2 231.5,397.5 231.5,397.8 231.6,397.8 231.6,397.5 
			231.6,397.2 231.6,397 231.6,397 231.6,396.9 231.6,397 231.6,397 		"/>
		<polygon class="st5" points="228.6,397.9 228.6,397.9 228.8,398 229,398 229.3,398 229.5,398 229.7,397.9 229.9,397.9 
			230.2,397.8 230.4,397.8 230.6,397.7 230.8,397.6 231,397.5 231.1,397.4 231.3,397.3 231.4,397.2 231.5,397.1 231.6,397 
			231.6,396.9 231.5,397 231.4,397.1 231.2,397.2 231.1,397.3 230.9,397.4 230.7,397.5 230.5,397.6 230.3,397.7 230.1,397.8 
			229.9,397.8 229.7,397.9 229.5,397.9 229.3,397.9 229,397.9 228.8,397.9 228.6,397.9 228.6,397.9 228.6,397.9 228.6,397.9 		"/>
		<polygon class="st5" points="226.7,395.6 226.7,395.6 226.7,395.8 226.8,395.9 226.8,396.1 226.8,396.3 226.8,396.5 226.9,396.6 
			227,396.8 227.1,397 227.2,397.2 227.3,397.3 227.5,397.5 227.7,397.6 227.9,397.7 228.1,397.8 228.3,397.9 228.6,397.9 
			228.6,397.9 228.4,397.8 228.1,397.7 227.9,397.6 227.7,397.5 227.5,397.4 227.4,397.2 227.3,397.1 227.2,396.9 227.1,396.8 
			227,396.6 226.9,396.5 226.9,396.3 226.9,396.1 226.8,395.9 226.8,395.8 226.8,395.6 226.8,395.6 226.7,395.6 226.7,395.6 		"/>
		<polygon class="st5" points="229.5,392.6 229.5,392.6 229.3,392.6 229,392.7 228.7,392.8 228.5,392.9 228.2,393 228,393.2 
			227.8,393.4 227.6,393.5 227.4,393.7 227.2,394 227.1,394.2 227,394.4 226.9,394.7 226.8,395 226.8,395.3 226.7,395.6 
			226.8,395.6 226.8,395.3 226.9,395 227,394.7 227.1,394.5 227.2,394.2 227.3,394 227.5,393.8 227.7,393.6 227.9,393.4 
			228.1,393.3 228.3,393.1 228.5,393 228.8,392.9 229,392.8 229.3,392.7 229.5,392.7 229.5,392.7 229.5,392.6 229.5,392.6 		"/>
		<polygon class="st5" points="231.1,392.4 231.1,392.4 231,392.4 230.9,392.5 230.8,392.5 230.7,392.5 230.6,392.5 230.4,392.5 
			230.3,392.5 230.2,392.5 230,392.5 229.9,392.6 229.8,392.6 229.7,392.6 229.6,392.6 229.6,392.6 229.5,392.6 229.5,392.6 
			229.5,392.7 229.5,392.7 229.6,392.7 229.6,392.7 229.7,392.7 229.8,392.7 229.9,392.6 230,392.6 230.2,392.6 230.3,392.6 
			230.4,392.6 230.6,392.6 230.7,392.6 230.8,392.6 230.9,392.5 231,392.5 231.1,392.5 231.1,392.5 231.1,392.4 231.1,392.4 		"/>
		<polygon class="st5" points="232.2,392.5 232.2,392.5 232.2,392.5 232.1,392.5 232,392.5 231.9,392.5 231.7,392.5 231.5,392.5 
			231.3,392.4 231.1,392.4 231.1,392.5 231.3,392.5 231.5,392.5 231.7,392.6 231.9,392.6 232,392.6 232.1,392.6 232.2,392.6 
			232.2,392.6 232.3,392.5 232.2,392.6 232.3,392.6 232.3,392.5 232.2,392.5 232.2,392.5 		"/>
		<polygon class="st5" points="232.3,392 232.3,392 232.2,392.2 232.2,392.3 232.2,392.5 232.2,392.5 232.3,392.5 232.3,392.5 
			232.3,392.3 232.3,392.2 232.4,392 232.4,392 232.3,392 232.3,392 		"/>
		<polygon class="st5" points="231.3,391.3 231.3,391.3 231.5,391.3 231.7,391.3 231.8,391.4 232,391.5 232.1,391.6 232.2,391.7 
			232.2,391.9 232.3,392 232.4,392 232.3,391.8 232.3,391.7 232.2,391.5 232,391.4 231.9,391.3 231.7,391.2 231.5,391.2 
			231.3,391.1 231.3,391.2 231.3,391.3 231.3,391.3 		"/>
		<polygon class="st5" points="228,391.6 228.1,391.7 228.2,391.6 228.3,391.6 228.4,391.5 228.6,391.5 228.7,391.4 228.9,391.4 
			229.2,391.4 229.4,391.3 229.6,391.3 229.9,391.3 230.1,391.3 230.4,391.2 230.6,391.2 230.9,391.2 231.1,391.2 231.3,391.3 
			231.3,391.2 231.1,391.1 230.9,391.1 230.6,391.1 230.4,391.1 230.1,391.2 229.9,391.2 229.6,391.2 229.4,391.2 229.2,391.3 
			228.9,391.3 228.7,391.4 228.5,391.4 228.4,391.4 228.2,391.5 228.1,391.5 228,391.6 228.1,391.6 228,391.6 228,391.6 		"/>
		<polygon class="st5" points="228.6,389.7 228.5,389.7 228,391.6 228.1,391.6 228.6,389.8 228.6,389.8 228.6,389.7 228.5,389.7 
			228.5,389.7 228.6,389.7 228.6,389.7 		"/>
		<polygon class="st5" points="232,389.4 232,389.4 231.8,389.3 231.5,389.3 231.3,389.3 231,389.3 230.8,389.3 230.5,389.3 
			230.3,389.4 230.1,389.4 229.9,389.4 229.7,389.4 229.5,389.4 229.3,389.5 229.1,389.5 228.9,389.6 228.7,389.6 228.6,389.7 
			228.6,389.8 228.8,389.7 229,389.7 229.1,389.6 229.3,389.6 229.5,389.5 229.7,389.5 229.9,389.5 230.1,389.5 230.3,389.4 
			230.5,389.4 230.8,389.4 231,389.4 231.3,389.4 231.5,389.4 231.8,389.4 232,389.4 232,389.4 232,389.4 232,389.4 		"/>
		<polygon class="st5" points="234.7,392 234.7,392 234.7,391.7 234.7,391.4 234.7,391.1 234.6,390.8 234.5,390.6 234.3,390.4 
			234.1,390.2 233.9,390 233.7,389.9 233.5,389.7 233.2,389.6 233,389.5 232.7,389.5 232.5,389.4 232.3,389.4 232,389.4 232,389.4 
			232.3,389.5 232.5,389.5 232.7,389.6 233,389.6 233.2,389.7 233.4,389.8 233.7,390 233.9,390.1 234.1,390.3 234.2,390.4 
			234.4,390.7 234.5,390.9 234.6,391.1 234.7,391.4 234.7,391.7 234.6,392 234.6,392 234.7,392 234.7,392 		"/>
		<polygon class="st5" points="233.9,396.1 233.9,396.1 234.7,392 234.6,392 233.8,396.1 233.8,396.1 233.9,396.1 233.9,396.1 		"/>
		<polygon class="st3" points="232,394.1 231.9,394 231.9,394 231.9,394 231.8,393.9 231.7,393.9 231.6,393.9 231.5,393.9 
			231.4,393.9 231.2,393.9 231.1,394 231,394 230.9,394 230.8,394 230.7,394 230.5,394 230.5,394.1 230.4,394.1 230.4,394.1 
			230.3,394.1 230.2,394.1 230.1,394.2 230,394.2 229.9,394.3 229.8,394.4 229.7,394.4 229.6,394.5 229.5,394.6 229.4,394.7 
			229.3,394.8 229.3,394.9 229.2,395.1 229.2,395.2 229.2,395.5 229.2,395.7 229.3,395.8 229.4,395.9 229.5,396 229.7,396.1 
			229.8,396.1 229.9,396.1 230.2,396.1 230.4,396.1 230.6,396 230.8,396 230.9,395.9 231.1,395.8 231.2,395.8 231.3,395.7 
			231.4,395.6 231.5,395.5 231.6,395.4 231.7,395.3 231.7,395.2 231.8,395.1 231.8,395 231.8,394.9 231.9,394.7 231.9,394.5 
			231.9,394.3 232,394.1 232,394.1 		"/>
		<polygon class="st5" points="248,396.8 248,396.6 248.1,396.4 248.2,396.2 248.3,396 248.5,395.9 248.7,395.8 248.9,395.7 
			249.1,395.7 249.3,395.7 249.5,395.8 249.7,395.9 249.9,396 250,396.2 250.1,396.4 250.2,396.6 250.2,396.8 249.9,396.8 
			249.9,396.6 249.9,396.4 249.8,396.3 249.7,396.2 249.6,396 249.4,396 249.3,395.9 249.1,395.9 248.9,395.9 248.7,396 248.6,396 
			248.5,396.2 248.4,396.3 248.3,396.4 248.2,396.6 248.2,396.8 248,396.8 248,396.8 		"/>
		<polygon class="st5" points="248.7,396.8 248.7,396.3 249.1,396.3 249.2,396.3 249.3,396.3 249.4,396.3 249.4,396.4 249.5,396.4 
			249.5,396.5 249.5,396.5 249.5,396.6 249.5,396.6 249.5,396.7 249.5,396.7 249.5,396.8 249.1,396.8 249.2,396.7 249.2,396.7 
			249.3,396.7 249.3,396.7 249.3,396.7 249.3,396.7 249.4,396.6 249.4,396.6 249.4,396.5 249.3,396.5 249.3,396.5 249.3,396.5 
			249.3,396.5 249.2,396.5 249.2,396.5 249.1,396.5 248.9,396.5 248.9,396.8 248.7,396.8 248.7,396.8 		"/>
		<polygon class="st5" points="248,396.8 248,396.8 248,397 248.1,397.2 248.2,397.4 248.3,397.6 248.5,397.7 248.7,397.8 
			248.9,397.9 249.1,397.9 249.3,397.9 249.5,397.8 249.7,397.7 249.9,397.6 250,397.4 250.1,397.2 250.2,397 250.2,396.8 
			250.2,396.8 249.9,396.8 250,396.8 249.9,397 249.9,397.2 249.8,397.3 249.7,397.4 249.6,397.6 249.4,397.6 249.3,397.7 
			249.1,397.7 248.9,397.7 248.7,397.6 248.6,397.6 248.5,397.4 248.4,397.3 248.3,397.2 248.2,397 248.2,396.8 248.2,396.8 
			248,396.8 248,396.8 		"/>
		<polygon class="st5" points="248.7,396.8 248.7,397.2 248.9,397.2 248.9,396.8 249.1,396.8 249.3,397.2 249.5,397.2 249.2,396.8 
			249.3,396.8 249.4,396.8 249.4,396.8 249.4,396.8 249.5,396.8 249.1,396.8 249.1,396.8 248.9,396.8 248.9,396.8 248.7,396.8 
			248.7,396.8 		"/>
		<path class="st6" d="M248,396.8L248,396.8l0-0.2l0.1-0.2l0.1-0.2l0.1-0.2l0.2-0.1l0.2-0.1l0.2-0.1l0.2,0l0,0l0.2,0l0.2,0.1
			l0.2,0.1l0.2,0.1l0.1,0.2l0.1,0.2l0.1,0.2l0,0.2l0,0l0,0.2l-0.1,0.2l-0.1,0.2l-0.1,0.2l-0.2,0.1l-0.2,0.1l-0.2,0.1l-0.2,0l0,0
			l-0.2,0l-0.2-0.1l-0.2-0.1l-0.2-0.1l-0.1-0.2l-0.1-0.2L248,397L248,396.8 M248.9,397.2h-0.2v-0.9h0.4l0,0l0.1,0l0.1,0l0.1,0l0.1,0
			l0,0l0,0l0,0.1l0,0.1l0,0l0,0.1l0,0.1l0,0l0,0l0,0l0,0l-0.1,0h-0.1l0.2,0.4h-0.2l-0.2-0.4h-0.2V397.2 M249.1,396.8L249.1,396.8
			L249.1,396.8l0.1,0l0,0l0,0l0,0l0,0l0,0v-0.1l0,0l0,0l0,0l0,0l0,0l0,0l0,0h0h0h-0.2v0.3H249.1 M249.1,397.7L249.1,397.7l0.2,0
			l0.2-0.1l0.1-0.1l0.1-0.1l0.1-0.1l0.1-0.1l0-0.2l0-0.2l0,0l0-0.2l0-0.2l-0.1-0.2l-0.1-0.1l-0.1-0.1l-0.1-0.1l-0.2-0.1l-0.2,0l0,0
			l-0.2,0l-0.2,0.1l-0.1,0.1l-0.1,0.1l-0.1,0.1l-0.1,0.2l0,0.2l0,0.2l0,0l0,0.2l0,0.2l0.1,0.1l0.1,0.1l0.1,0.1l0.1,0.1l0.2,0.1
			L249.1,397.7"/>
		<polygon class="st5" points="234.4,397.8 236.6,397.8 236.6,397.8 237.4,393.4 237.4,393.2 237.5,393.1 237.5,392.9 237.6,392.7 
			237.7,392.5 237.8,392.4 237.9,392.2 238,392.1 238.1,391.9 238.3,391.8 238.5,391.7 238.7,391.6 238.9,391.5 239.1,391.5 
			239.4,391.4 239.7,391.4 239.8,391.4 239.9,391.4 239.9,391.4 239.9,391.4 240.3,389.4 240.1,389.4 239.8,389.4 239.6,389.5 
			239.5,389.5 239.3,389.6 239.1,389.7 239,389.8 238.8,389.8 238.7,390 238.5,390.1 238.4,390.2 238.3,390.3 238.2,390.4 
			238.1,390.6 237.9,390.7 237.8,390.9 238.1,389.5 235.9,389.5 234.4,397.8 234.4,397.8 234.4,397.8 		"/>
		<polyline class="st6" points="234.4,397.8 236.6,397.8 236.6,397.8 237.4,393.4 237.4,393.4 237.4,393.2 237.5,393.1 237.5,392.9 
			237.6,392.7 237.7,392.5 237.8,392.4 237.9,392.2 238,392.1 238.1,391.9 238.3,391.8 238.5,391.7 238.7,391.6 238.9,391.5 
			239.1,391.5 239.4,391.4 239.7,391.4 239.7,391.4 239.8,391.4 239.9,391.4 239.9,391.4 239.9,391.4 240.3,389.4 240.3,389.4 
			240.1,389.4 239.8,389.4 239.6,389.5 239.5,389.5 239.3,389.6 239.1,389.7 239,389.8 238.8,389.8 238.7,390 238.5,390.1 
			238.4,390.2 238.3,390.3 238.2,390.4 238.1,390.6 237.9,390.7 237.8,390.9 238.1,389.5 235.9,389.5 234.4,397.8 234.4,397.8 		"/>
		<polygon class="st5" points="213.8,397.8 216,397.8 216,397.8 216.8,393.4 216.8,393.2 216.9,393.1 216.9,392.9 217,392.7 
			217,392.6 217.1,392.4 217.2,392.3 217.3,392.2 217.4,392 217.6,391.9 217.7,391.8 217.9,391.7 218.1,391.7 218.4,391.6 
			218.6,391.6 218.9,391.6 219,391.6 219,391.6 219,391.6 219.1,391.6 219.1,391.6 219.1,391.6 219.2,391.6 219.2,391.6 
			219.2,391.6 219.2,391.5 219.2,391.3 219.3,391.2 219.3,391 219.4,390.7 219.5,390.5 219.5,390.3 219.6,390.2 219.7,390 
			219.7,389.9 219.8,389.7 219.9,389.6 219.9,389.5 220,389.5 220,389.4 220,389.4 220,389.4 219.9,389.4 219.9,389.4 219.8,389.4 
			219.8,389.4 219.7,389.4 219.6,389.4 219.4,389.4 219.2,389.4 219,389.5 218.8,389.5 218.6,389.6 218.5,389.7 218.3,389.7 
			218.2,389.8 218,389.9 217.9,390.1 217.8,390.2 217.7,390.3 217.6,390.4 217.4,390.6 217.3,390.7 217.2,390.9 217.5,389.5 
			215.3,389.5 213.8,397.8 213.8,397.8 213.8,397.8 		"/>
		<polyline class="st6" points="213.8,397.8 216,397.8 216,397.8 216.8,393.4 216.8,393.4 216.8,393.2 216.9,393.1 216.9,392.9 
			217,392.7 217,392.6 217.1,392.4 217.2,392.3 217.3,392.2 217.4,392 217.6,391.9 217.7,391.8 217.9,391.7 218.1,391.7 
			218.4,391.6 218.6,391.6 218.9,391.6 218.9,391.6 219,391.6 219,391.6 219,391.6 219.1,391.6 219.1,391.6 219.1,391.6 
			219.2,391.6 219.2,391.6 219.2,391.6 219.2,391.6 219.2,391.5 219.2,391.3 219.3,391.2 219.3,391 219.4,390.7 219.5,390.5 
			219.5,390.3 219.5,390.3 219.6,390.2 219.7,390 219.7,389.9 219.8,389.7 219.9,389.6 219.9,389.5 220,389.5 220,389.4 220,389.4 
			220,389.4 220,389.4 219.9,389.4 219.9,389.4 219.8,389.4 219.8,389.4 219.7,389.4 219.6,389.4 219.6,389.4 219.4,389.4 
			219.2,389.4 219,389.5 218.8,389.5 218.6,389.6 218.5,389.7 218.3,389.7 218.2,389.8 218,389.9 217.9,390.1 217.8,390.2 
			217.7,390.3 217.6,390.4 217.4,390.6 217.3,390.7 217.2,390.9 217.5,389.5 215.3,389.5 213.8,397.8 213.8,397.8 		"/>
		<polygon class="st3" points="248,406 248,406 248.1,405.8 248.2,405.6 248.3,405.4 248.5,405.3 248.7,405.2 248.9,405.2 
			249.1,405.2 249.3,405.2 249.5,405.2 249.7,405.3 249.9,405.4 250,405.6 250.1,405.8 250.2,406 250.2,406 249.9,406 249.9,405.9 
			249.8,405.7 249.7,405.6 249.6,405.5 249.4,405.4 249.3,405.3 249.1,405.3 248.9,405.3 248.7,405.4 248.6,405.5 248.5,405.6 
			248.4,405.7 248.3,405.9 248.2,406 248,406 248,406 		"/>
		<polygon class="st3" points="248.7,406 248.7,405.7 249.1,405.7 249.2,405.7 249.3,405.8 249.4,405.8 249.4,405.8 249.5,405.8 
			249.5,405.9 249.5,405.9 249.5,406 249.4,406 249.4,406 249.4,405.9 249.3,405.9 249.3,405.9 249.3,405.9 249.3,405.9 
			249.2,405.9 249.2,405.9 249.1,405.9 248.9,405.9 248.9,406 248.7,406 248.7,406 		"/>
		<polygon class="st3" points="248,406.2 248,406 248.2,406 248.2,406 248.2,406.2 248,406.2 248,406.2 		"/>
		<polygon class="st3" points="248.7,406.2 248.7,406 248.9,406 248.9,406.2 249.1,406.2 249.2,406.2 249.2,406.1 249.3,406.1 
			249.3,406.1 249.3,406.1 249.3,406.1 249.4,406 249.4,406 249.5,406 249.5,406 249.5,406.1 249.5,406.1 249.5,406.2 249.4,406.2 
			248.7,406.2 248.7,406.2 		"/>
		<polygon class="st3" points="250,406.2 249.9,406 249.9,406 250.2,406 250.2,406.2 250,406.2 250,406.2 		"/>
		<polygon class="st3" points="248,406.2 248,406.2 248,406.4 248.1,406.6 248.2,406.8 248.3,407 248.5,407.1 248.7,407.2 
			248.9,407.3 249.1,407.3 249.3,407.3 249.5,407.2 249.7,407.1 249.9,407 250,406.8 250.1,406.6 250.2,406.4 250.2,406.2 
			250.2,406.2 250,406.2 250,406.2 249.9,406.4 249.9,406.6 249.8,406.7 249.7,406.9 249.6,407 249.4,407 249.3,407.1 249.1,407.1 
			248.9,407.1 248.7,407 248.6,407 248.5,406.9 248.4,406.7 248.3,406.6 248.2,406.4 248.2,406.2 248.2,406.2 248,406.2 248,406.2 
					"/>
		<polygon class="st3" points="248.7,406.2 248.7,406.6 248.9,406.6 248.9,406.3 249.1,406.3 249.3,406.6 249.5,406.6 249.2,406.3 
			249.3,406.3 249.4,406.2 249.4,406.2 249.4,406.2 249.4,406.2 248.7,406.2 248.7,406.2 		"/>
	</g>
</g>
<g>
	<rect x="20" y="357.1" class="st2" width="120.4" height="68.5"/>
	<g>
		<g>
			<polygon class="st7" points="72.5,406.2 65.1,406.2 69.7,377.6 77.2,377.6 			"/>
			<path class="st7" d="M58.8,377.6l-7.1,19.7l-0.8-4.2l0,0l-2.5-12.9c0,0-0.3-2.6-3.5-2.6H33.1l-0.1,0.5c0,0,3.6,0.7,7.8,3.3
				l6.5,24.9H55l11.9-28.6H58.8z"/>
			<path class="st7" d="M117.4,406.2h6.8l-6-28.6h-6c-2.8,0-3.4,2.1-3.4,2.1l-11.1,26.5h7.8l1.6-4.3h9.5L117.4,406.2z M109.2,396.1
				l3.9-10.7l2.2,10.7H109.2z"/>
			<path class="st7" d="M98.3,384.5l1.1-6.1c0,0-3.3-1.2-6.7-1.2c-3.7,0-12.5,1.6-12.5,9.5c0,7.4,10.3,7.5,10.3,11.4
				s-9.2,3.2-12.3,0.7l-1.1,6.4c0,0,3.3,1.6,8.4,1.6c5.1,0,12.8-2.6,12.8-9.8c0-7.4-10.4-8.1-10.4-11.4
				C87.9,382.3,95.2,382.7,98.3,384.5z"/>
		</g>
		<path class="st8" d="M50.9,393l-2.5-12.9c0,0-0.3-2.6-3.5-2.6H33.1l-0.1,0.5c0,0,5.6,1.2,11.1,5.6C49.2,387.8,50.9,393,50.9,393z"
			/>
	</g>
</g>
</svg>
