<svg xmlns="http://www.w3.org/2000/svg" xmlns:xlink="http://www.w3.org/1999/xlink" version="1.1" id="Layer_1" x="0px" y="0px" width="574px" height="88px" viewBox="0 0 574 88" enable-background="new 0 0 574 88" xml:space="preserve"><path fill="#FFFFFF" d="M440.479 31.322c-1.282-2.563-4.066-4.216-7.095-4.216c-1.982 0-3.904 0.74-5.412 2.1 c-1.454 1.296-2.258 2.999-2.791 4.776c-0.936-2.363-4.992-6.744-10.222-6.653c-2.381 0-4.495 0.821-5.951 2.3 c-1.157 1.185-1.804 2.723-1.86 4.365c-0.123 0.019-5.885 0.186-7.02-0.268c0.373-0.841 1.596-2.004 2.774-5.758 c0.284-1.098 1.47-7.861-7.045-7.954c-1.39 0-9.47 0.492-9.826 0.497c-3.653 0.049-8.2 0.109-10.081 3.8 c-0.482 0.935-1.345 3.9 0.7 6.42c1.301 1.7 3.8 2.8 3.8 2.775c0.007 0 0 0 0 0 c0.1 0.3 0.7 4.033-2.31 8.703c0 0-0.853 0.832-1.272 2.693c-2.541 0.421-6.879 0.344-7.962 0.3 c-1.017-0.022-3.159-0.226-4.507 0.014c-0.468-1.752-1.57-3.342-3.1-4.365c0 0-0.956-1.932-0.546-7.361 c2.25-1.028 3.949-3.275 4.225-5.76c0.3-2.697-1.866-5.927-4.302-6.661c-3.755-1.06-17.314-0.453-17.314-0.453 C335.46 8.2 321.7 0.5 306.7 0.5c-6.104 0-12.047 1.269-17.663 3.772c-8.72 3.886-15.762 10.377-20.304 18.6 c-0.024-0.011-0.047-0.026-0.071-0.037c-5.115-2.405-21.092-2.834-23.818-2.777c-2.727 0.058-6.997 0.669-8.021 5.4 c-0.315 1.442-0.081 2.7 0.3 3.616c-0.408-0.131-4.673-0.572-4.848-0.569c-0.07 0.001-0.139 0.002-0.208 0 c0 0-2.451-1.914-4.654-1.962c-2.203-0.048-4.821 2.09-5.243 6.757c-0.992 0.238-7.183 0.265-8.272-0.015 c-4.425-9.464-13.949-15.56-24.423-15.56c-3.787 0-7.473 0.787-10.956 2.339c-4.733 2.109-8.664 5.458-11.463 9.7 c-1.157-1.563-3.225-2.72-5.156-2.477c-1.545 0.247-19.466-1.003-22.272 0.931c-2.008 1.384-3.329 3.431-3.17 6.4 s0.33 9.8 0.4 13.667c-1.426 1.086-2.172 2.672-2.217 4.719c0 0-0.47 5.6 2.2 6.937c1.384 0.8 14.3 1.4 16.366-0.365 c3.469 0.8 11.4 1.5 14.4 0.778c4.998 7 13.1 11.3 22 11.332c3.787 0 7.473-0.787 10.955-2.339 c6.428-2.864 11.557-7.543 14.014-14.52c0.037-0.123 6.676-0.164 6.698-0.059c0.488 2.9 3.3 5.9 3.7 6.3 s2.853 1.7 6.5 1.785c1.743 0 3.359-0.343 4.749-1c-0.335 0.826-0.536 1.791-0.502 2.919c0.034 1.2 0.6 7.1 9.3 7.1 c0.942 0 1.952-0.064 3.088-0.194c0 0 1.156-0.196 1.751-0.196c0.594 0 1.6 0.2 1.6 0.174c1.1 0.2 2.2 0.3 3.2 0.3 c3.223 0 5.681-0.858 7.304-2.551c1.264-1.317 1.917-3.074 1.84-4.947c-0.171-4.211-4.839-6.259-4.869-6.272 c0-1.598-0.037-7.059-0.037-9.17c-0.007-0.171 4.758-0.348 4.769-0.15c0.494 4.4 1.7 8.7 3.5 12.9 C273.998 77.4 289.6 87.5 306.7 87.5c6.104 0 12.046-1.269 17.662-3.772c6.712-2.991 12.429-7.528 16.78-13.202 c1.709 0.9 3.6 1.4 5 1.406c4.004 0 49.132-0.242 51.155-0.242c2.485 0 6.395-2.466 6.763-5.742 c0.134-1.302-0.198-4.165-3.212-6.106c-0.005-0.016-0.01-0.033-0.014-0.049c-0.024-0.271-0.232-2.513-0.288-3.615 c1.816 0.1 5.645-0.212 7.053-0.592c0.669-0.191 1.5 2.9 2.4 4.085c1.888 2.6 6 4.7 10.1 4.8 c5.169 0 8.621-2.213 10.839-6.959c1.496-3.072 6.221-15.868 7.807-18.247C440.364 36.8 441.9 34.2 440.5 31.322z M141.023 51.907c0.05-0.037 0.091-0.047 0.129-0.047L141.023 51.907z"/><g><g><g><path fill="#D10A11" d="M271.187 59.836c8.742 19.6 31.7 28.5 51.4 19.722c19.629-8.747 28.454-31.757 19.712-51.396 c-8.742-19.639-31.74-28.468-51.369-19.722C271.27 17.2 262.4 40.2 271.2 59.836z M327.71 34.6 c5.161 11.595-0.049 25.181-11.638 30.346c-11.589 5.165-25.168-0.049-30.329-11.645c-5.162-11.595 0.049-25.181 11.637-30.346 C308.97 17.8 322.5 23.1 327.7 34.649z"/></g><g><path fill="#D10A11" d="M287.977 36.99c-1.483 4.591-1.344 9.7 0.8 14.479c4.554 10.2 16.5 14.8 26.8 10.3 c9.264-4.772 13.299-16.011 9.006-25.654c-4.448-9.992-16.15-14.484-26.135-10.034C293.406 28.3 289.8 32.3 288 36.99z M309.107 55.755c-0.024 0.011-0.048 0.025-0.073 0.037c-1.993 0.888-4.328-0.009-5.215-2.003 c-0.692-1.555-0.296-3.314 0.855-4.436c0.325-0.318 0.707-0.586 1.147-0.783c1.992-0.888 4.3 0 5.2 2 C311.912 52.5 311 54.8 309.1 55.755z M319.073 41.846c0.887 1.995-0.009 4.33-2.001 5.2 c-0.039 0.018-0.081 0.03-0.12 0.046c-1.966 0.802-4.226-0.093-5.095-2.048c-0.531-1.193-0.42-2.506 0.177-3.56 c0.401-0.708 1.022-1.302 1.823-1.659C315.849 39 318.2 39.9 319.1 41.846z M301.559 46.4 c-0.368 0.425-0.829 0.781-1.377 1.025c-1.993 0.888-4.328-0.008-5.215-2.002c-0.551-1.237-0.413-2.606 0.247-3.681 c0.402-0.654 0.999-1.201 1.755-1.537c1.993-0.888 4.3 0 5.2 2.002C302.829 43.7 302.5 45.3 301.6 46.433z M310.502 33.621c0.677 1.5 0.3 3.24-0.78 4.365c-0.34 0.349-0.748 0.643-1.22 0.854c-1.994 0.888-4.329-0.009-5.216-2.003 c-0.395-0.886-0.434-1.841-0.185-2.705c0.312-1.08 1.079-2.022 2.186-2.515C307.28 30.7 309.6 31.6 310.5 33.621z"/></g><g><g><path fill="#002B2C" d="M313.922 44.568c-0.545 0-1.091-0.196-1.524-0.593l-5.162-4.734c-0.918-0.842-0.981-2.27-0.138-3.188 c0.842-0.919 2.268-0.981 3.187-0.139l5.162 4.734c0.919 0.8 1 2.3 0.1 3.2 C315.141 44.3 314.5 44.6 313.9 44.568z"/></g></g><g><g><path fill="#002B2C" d="M305.606 52.827c-0.545 0-1.091-0.196-1.524-0.593l-5.162-4.734c-0.918-0.843-0.981-2.269-0.138-3.189 c0.842-0.918 2.268-0.98 3.187-0.139l5.162 4.734c0.919 0.8 1 2.3 0.1 3.2 C306.824 52.6 306.2 52.8 305.6 52.827z"/></g></g></g><g><path fill-rule="evenodd" clip-rule="evenodd" fill="#003133" d="M404.492 40.749c0.021 0.479-0.381 3 0.2 3.2 c0.549 0.2 1.153-1.287 1.417-1.771c0.407-0.743 1.028-1.671 1.088-2.277c0.038-0.385-0.36-0.762-0.272-1.046 c0.76-0.622 1.92-0.394 2.977-0.497c1.022-0.099 2.102-0.339 3.034-0.175c0.136 0.281-0.171 0.435-0.266 0.6 c-0.273 0.161-0.612 0.222-0.86 0.421c-0.556 0.123-1.006 0.409-1.39 0.794c-0.347 0.125-0.597 0.401-0.851 0.7 c-1.119 0.951-2.019 3.311-1.561 4.938c0.036 0.3 0.1 0.7 0.3 0.929c-0.081 0.2 0.1 0.1 0.1 0.3 c0.297 0.9 0.7 1.8 1.4 2.46c0.341 0.3 0.7 0.7 1.3 0.855c0.062 0.1 0.6 0.2 0.7 0.2 c1.042 0.2 1.763-0.093 2.122-0.936c-0.038-0.213-0.166-0.37-0.404-0.46c-0.137-0.22-0.332-0.405-0.428-0.65l0.014-0.059 c0.053-0.235 0.104-0.469 0.159-0.703c0.422-0.705 1.488-1.054 2.453-0.43c0.248 0.2 0.4 0.5 0.5 0.8 c-0.082 0.3 0 0.418-0.025 0.672c-0.078 0.351-0.159 0.703-0.237 1.054c-0.968 1.725-2.536 2.534-4.788 2.3 c-0.283-0.064-0.565-0.128-0.848-0.191c-0.899-0.313-1.513-0.799-2.205-1.237c-0.303-0.423-0.686-0.796-1.001-1.21 c-0.705-0.669-1.017-1.839-2.142-2.084c-0.185 0.812-0.434 1.7-0.069 2.569c0.162 0.4 1.3 1 1.2 1.4 c-0.151 0.62-2.063 0.373-2.696 0.374c-1.154 0.003-1.844 0.168-2.934 0.014c-0.262-0.312 0.033-0.863 0.298-1.039 c0.809-0.742 0.452-2.176 0.511-3.392c0.091-1.86 0.019-5.026-0.29-6.341c-0.214-0.424-0.502-0.805-0.818-1.169l-0.06-0.014 c-0.199-0.317-0.609-0.505-0.322-1.118c0.096-0.013 0.17-0.058 0.223-0.135c1.498 0.2 2.861-0.004 4.4 0 c0.414 0 0.989-0.2 1.3 0.229c0.038 0.733-0.741 0.846-0.962 1.444C404.527 40.1 404.4 40.6 404.5 40.749z"/></g><g><path fill-rule="evenodd" clip-rule="evenodd" fill="#003133" d="M214.778 50.102c-1.278 0.288-1.152-0.845-1.145-1.946 c0.006-0.918-0.109-1.787-0.072-2.713c0.069-1.684 0.006-3.44 0.029-5.296c0.009-0.74 0.103-1.985 0.51-2.228 c0.404-0.242 1.022-0.072 1.482-0.054c0.549 0 1.019-0.054 1.4 0.162c0.339 1.125-0.026 2.297-0.024 3.5 c0.002 1.195-0.025 2.4 0.1 3.734c0.626 0.5 1.9 0.1 2.8 0.281c0.35-0.431 0.31-1.089 0.379-1.697 c0.067-0.606 0.101-1.258 0.091-1.914c-0.019-1.331-0.219-2.766 0.126-3.87c0.611-0.242 1.1 0.2 1.791-0.045 c0.185 0.1 0.556-0.06 0.813-0.063c0.167 0 0.3 0.1 0.4 0.196c0.033 3.405-0.385 6.469-0.251 10 c-0.104 0.1 0 0.4 0 0.511c-0.028 0.6 0.1 1.215-0.256 1.474c-0.271 0.181-0.928 0.05-1.173 0.1 c-0.826 0.037-1.536 0.2-1.776-0.214c-0.461-0.795 0.526-1.409 0.015-2.468c-0.267-0.338-0.807-0.293-1.329-0.327 c-0.5-0.031-1.076-0.193-1.539 0.011c-0.885 0.389-0.104 2.006-0.533 2.797c-0.362 0.244-0.87 0.065-1.367 0.1 C215.203 50 214.9 50.1 214.8 50.102z"/></g><g><path fill-rule="evenodd" clip-rule="evenodd" fill="#003133" d="M436.398 33.361c-0.767-1.533-3.438-2.505-5.391-0.763 c-2.93 2.611-1.444 11.72-5.985 12.189c-1.694 0.174-2.191-1.815-2.843-3.142c-1.33-2.705 0.678-7.56-5.455-9.492 c-2.437-0.766-5.071 0.112-5.024 2.122c0.03 1.3 1.4 1.3 3 2.222c1.592 0.9 1.7 3.7 2.6 5.2 c3.056 5.5 3.8 3.8 6.3 9.837c1.142 2.659-1.552 4.956-4.812 4.092c-0.409-0.145-1.353-1.078-1.324-1.17 c3.168 0.8 3.117-2.481 0.93-3.682c-0.174-0.237-1.167-0.591-1.45-0.516c-2.024-0.437-3.888 1.248-4.252 3.1 c-0.459 2.4 2.5 6 5.3 6.317c5.134 0.6 7.34-0.602 9.039-4.381c0.204-0.199 3.173-8.694 5.898-14.737 C434.452 37.2 436.9 34.4 436.4 33.361z"/></g><g><g><path fill-rule="evenodd" clip-rule="evenodd" fill="#003133" d="M161.456 31.852c0.026-0.006 1.518-0.296 2.1 0.8 c0.687 1.3 0.6 6 0.6 6.002c-0.233 0.407-0.278 12 0.5 13.076c0.478 0.3 1 0.3 1.5 0.6 c0.206 0.9-0.015 1.7 0.2 2.566c-0.115 0.419-0.213 0.844-0.478 1.213c-0.435 0.35-0.663 0.06-1.064 0.3 c-0.403-0.081-0.841-0.055-1.259-0.091c-1.118 0.052-2.187-0.045-3.292-0.032c-0.6-0.22-1.334-0.028-1.986-0.087 c-0.98-0.205-2.278 0.559-2.86-0.859c0.064-0.57 0.159-1.13 0.234-1.696c0.011-0.104 0.021-0.208-0.05-0.339l0.096-0.049 c0.004-0.564 0.06-1.109 0.865-1.409l0.096-0.05c0.391 0 0.817-0.033 1.211-0.005c0.514 0 0.94-0.633 0.624-1.165 c0.083-0.564-0.02-10.585-0.588-11.478c-0.631-0.992-2.604-0.615-3.827-0.611c-1.448 0.004-5.533-0.713-6.435 0.1 c-0.844 0.792-0.312 12 0.1 12.929c0.254 0.6 1.8 0.2 2.2 0.715c0.694 0.916-0.277 2.283-0.079 3.7 c-0.174 0.105-0.291 0.227-0.289 0.389c-0.943 0.501-1.59 0.101-2.419 0.254c-0.842-0.297-1.831-0.151-2.761-0.181 c-0.205 0.053-0.347-0.085-0.581 0.053c-0.58-0.113-1.232-0.009-1.839-0.04l-0.097 0.048c-0.476-0.185-1.042-0.098-1.598-0.041 l-0.096 0.049l-0.049-0.096c-1.156 0.211-0.926-1.463-0.93-2.079c-0.052-0.205 0.086-0.349-0.05-0.582 c0.135-0.626-0.135-1.387 0.522-1.843l0.097-0.048c0.442-0.037 0.8 0.2 1.3 0.09c0.143-0.106 0.2 0 0.339-0.05 c0.131-0.333 0.138-0.707 0.043-1.114c0.047-0.764-0.059-13.267-0.369-16.565c0.196-0.661 0.023-1.584 0.717-1.942 C143.183 31.5 160.9 32 161.5 31.852z"/></g></g><g><path fill-rule="evenodd" clip-rule="evenodd" fill="#003133" d="M266.727 26.955c-5.074-2.385-12.377-2.126-18.537-2.365 c-0.968 0-1.937 0-2.908 0c-2.227 0.213-3.704 0.47-3.996 1.819c-0.316 1.4 1.4 1.9 2 3.6 c0.661 2 0.5 3.6 0.7 5.455c0.415 0.3 0.1 1.4 0.2 2.001c0 0.2 0 0.5 0 0.7 c0.422 4.4 0.1 9.6 0.2 14.258c-0.296 0.146-0.483 0.399-0.767 0.557h-0.109c-0.453 0.265-1.412 0.089-1.656-0.221 c-0.346 0.054-0.451-0.138-0.553-0.331c-0.481-0.513-0.647-1.34-0.882-2.099v-0.11c-0.183-0.191-0.183-1.135 0-1.325 c0-0.147 0-0.294 0-0.443c0-2.907 0-5.816 0-8.724c-0.093-0.533-0.151-1.101-0.222-1.657c-0.422-1.456-1.108-2.647-1.986-3.645 c-0.989-0.555-2.057-1.033-3.312-1.325c-0.554-0.072-1.396 0.145-1.766-0.11c-0.826-0.021-1.763 0.072-2.428-0.11 c-0.383-0.132-0.857-0.173-1.104-0.442h-0.109c-1.072-0.278-2.069-2.721-2.76-0.442c-0.044 1 0.2 1.7 0.3 2.5 c0.283 0.5 0.6 0.9 0.9 1.436c-0.515 0.514-0.691 1.371-1.104 1.988c-0.048 0.504-0.169 0.936-0.111 1.5 c1.172 2.9 2.642-2.103 4.525-1.988c0.332-0.124 0.957-0.372 1.325-0.111c1.197 0.3 2.1 0.9 2.5 1.9 c0.929 2.893-1.018 5.156-3.202 6.296c-0.463 0.241-4.777 2.166-5.849 5.08c-1.334 3.6 0.8 6 1.4 6.5 c1.926 1.2 5.3 1.4 7.3 0.111c0.349-0.241 0.683-0.496 1.215-0.553h0.111c2.071-0.489 2.4 1.8 4.2 1.9 c1.094 0.3 2.2 0.2 3.3 0c0.077-0.117 0.462-0.158 0.759-0.124c-0.047 3.096-4.259 3.037-4.17 6 c0.079 2.7 3.6 3 7.3 2.545c1.094-0.302 3.451-0.302 4.5 0c3.416 0.5 7.2 0.1 7.087-2.545 c-0.094-2.322-2.767-1.892-4.179-3.637c-1.318-1.627-0.31-2.859-0.879-4.546c0-1.394 0.035-6.75 0.181-8 c0.386-3.291 1.533-4.134 4.876-4.001c1.455-0.423 3.694-0.06 5.453-0.181c0.177-0.024 0.35-0.059 0.524-0.089 c-0.015-5.084 0.899-10.179 2.774-15.068c0.154-0.4 0.322-0.79 0.487-1.184C267.807 27.5 267.3 27.2 266.7 26.955z M235.77 50.281c-0.763 0.857-1.503 1.735-2.871 1.987c-0.162 0.128-0.277 0.128-0.441 0c-0.468-0.047-0.653-0.377-0.773-0.773 v-0.11c-0.244-0.014-0.047-0.468-0.109-0.662c1.245-1.258 2.798-2.208 3.643-3.866c0.198 0 0.232-0.135 0.441-0.111 c0.111 0 0.2 0 0.3 0c0.317 0.1 0.5 0.8 0.2 1.106C236.24 48.8 236.2 49.7 235.8 50.281z M252.551 33.9 c2.256-0.827 5.7 0.1 5.6 2.365C258.056 40.3 249 39.2 252.6 33.864z"/></g><g><path fill-rule="evenodd" clip-rule="evenodd" fill="#003133" d="M398.158 63.491c-1.257-0.472-1.358-1.733-1.73-2.809 c-0.335-4.097-1.393-10.852 2.195-13.615c0.429-1.215 0.049-1.881-0.339-2.542c-1.502-0.886-2.663-2.002-2.773-3.834 c-0.371-0.616-0.399-1.462-0.376-2.343c-0.108-1.198-0.15-2.439 0.128-3.897c-0.216-0.668 0.162-2.644 0.609-3.185 c0.206-2.724 4.413-4.002 1.818-6.258c-0.73-0.138-1.459-0.278-2.188-0.418c-1.991 0.069-4.868 0.364-8.343 0.5 c-2.987 0.089-9.035-0.234-6.771 3.039c0.429 0.5 1.4 0.7 1.8 1.177c3.181 1.4 3.2 4.9 2.7 8.8 c0.253 0.472-0.087 2.243-0.496 2.589c-0.113 0.94-0.457 1.541-0.818 2.112c-0.323 1.227-1.259 1.549-1.888 2.3 c-0.133 0.655-0.526 0.927-0.543 1.754c0.283 0.9 1.1 1.4 1.9 2.011c0.667-0.049 0.6 0.4 0.9 0.6 c0.6 0.7 1.1 1.6 1.1 2.694c0.67 2.7 1.1 6.5 0.2 9.74c-2.457 0.243-5.745 0.504-8.549-0.607 c-0.753-1.945-0.717-5.772 0.493-7.956c0.23-1.448 1.733-1.018 1.766-2.757c-0.371-1.85-3.419-0.815-5.014-0.756 c-2.846 0.108-6.732-0.116-8.863-0.048c-1.392 0.027-1.921 1.809-0.694 2.55l-0.038 0.2c2.754 1.8 2.5 5.6 2.1 9.5 c-0.841 1.057-2.481 0.94-4.086 0.868c-0.605 0.215-1.393 0.157-2.266-0.02c-0.866-0.162-1.803-0.278-2.35-0.657 c-0.398-3.854-2.592-9.75 0.848-13.049c2.222-0.804 1.658-3.555 0.043-4.531c-1.09-0.472-1.679-1.285-1.806-2.411 c-0.608-0.513-0.432-1.556-0.576-2.382c-0.137-3.015-1.052-9.08 2.184-10.315c1.605-0.366 3.03-2.955 0.96-3.944 c-5.487-0.56-10.465-0.37-15.559-0.351c0.313 0.6 0.6 1.2 0.9 1.883c4.525 10.2 4.8 21.5 0.8 31.9 c-0.914 2.381-2.035 4.641-3.331 6.775c0.953 1 2.8 1.7 4 1.666c16.804-0.067 33.486-0.319 50.386-0.246 c1.075-0.371 2.384-0.399 2.968-1.495C399.683 64.5 399 64 398.2 63.491z M351.675 49.8 c-1.945-0.506-2.428-3.136-1.152-4.759c0.926-1.444 2.5 0.1 2.7 1.128c0.054 0.2 0.1 0.4 0.3 0.5 C353.228 48.2 352.6 49.3 351.7 49.83z M390.498 49.639c-2.49-0.997-2.483-4.562-0.288-6.042 C392.175 44.7 392.6 48.1 390.5 49.639z"/></g><g><path fill="#003133" d="M169.063 53.811c5.033 11.3 18.3 16.4 29.6 11.355c11.301-5.036 16.382-18.284 11.349-29.59 c-5.034-11.308-18.274-16.392-29.575-11.356C169.11 29.3 164 42.5 169.1 53.811z M193.258 43 c0.918 2.062-0.009 4.48-2.071 5.399c-2.062 0.918-4.477-0.009-5.396-2.073c-0.918-2.062 0.008-4.48 2.07-5.397 C189.923 40 192.3 41 193.3 43.03z"/></g></g><polygon fill="#D01317" points="122.4,32.2 2,32.2 9.4,44.2 2,56.3 122.4,56.3"/><polygon fill="#D01317" points="451.6,32.2 572,32.2 564.6,44.2 572,56.3 451.6,56.3"/><g><path fill="#FFFFFF" d="M28.163 46.066c0.115-0.249 0.227-0.507 0.337-0.775c0.11-0.268 0.217-0.526 0.323-0.775l1.534-3.529 l0.817-1.879h2.953v1.104h-0.889v7.617h0.889v1.104h-3.355V47.83h0.874v-6.484h-0.029l-0.573 1.3 c-0.153 0.354-0.304 0.708-0.452 1.061c-0.148 0.354-0.304 0.708-0.466 1.061c-0.22 0.478-0.432 0.954-0.638 1.4 c-0.206 0.473-0.413 0.954-0.624 1.442h-1.491c-0.22-0.488-0.442-0.973-0.667-1.456c-0.225-0.483-0.447-0.968-0.667-1.456 l-0.96-2.166l-0.545-1.262h-0.043c0 1.088-0.002 2.169-0.007 3.242c-0.005 1.074-0.007 2.154-0.007 3.242h0.932v1.104h-3.369V47.83 h0.946v-7.617h-0.946v-1.104h2.996c0.134 0.3 0.3 0.6 0.4 0.94c0.158 0.3 0.3 0.7 0.5 1.1 c0.22 0.5 0.4 1 0.7 1.528c0.229 0.5 0.5 1.1 0.7 1.557c0.153 0.3 0.3 0.7 0.4 1 c0.129 0.3 0.2 0.6 0.4 0.839H28.163z"/><path fill="#FFFFFF" d="M45.316 47.83c-0.077-0.246-0.163-0.519-0.258-0.818c-0.096-0.299-0.182-0.562-0.258-0.789h-3.685 c-0.067 0.199-0.148 0.45-0.244 0.754c-0.095 0.303-0.182 0.588-0.258 0.853h0.975v1.104h-3.297V47.83h0.803l2.968-8.736h1.964 c0.468 1.4 1 2.9 1.4 4.368c0.497 1.5 1 2.9 1.4 4.368h0.803v1.104H44.37V47.83H45.316z M44.47 45.1 c-0.191-0.648-0.387-1.289-0.588-1.924c-0.201-0.634-0.406-1.275-0.616-1.923c-0.039-0.143-0.079-0.286-0.122-0.429 c-0.043-0.143-0.089-0.286-0.136-0.429h-0.029l-0.272 0.872c-0.086 0.258-0.182 0.55-0.287 0.9 c-0.105 0.329-0.215 0.668-0.33 1.015c-0.115 0.348-0.225 0.691-0.33 1.03c-0.105 0.339-0.196 0.642-0.272 0.908H44.47z"/><path fill="#FFFFFF" d="M51.932 48.935v-1.076h0.975V40.17h-0.946v-1.061h7.398v2.481h-1.147v-1.42h-3.728v7.689h1.362v1.076 H51.932z"/><path fill="#FFFFFF" d="M68.97 47.83c-0.077-0.246-0.163-0.519-0.258-0.818c-0.096-0.299-0.182-0.562-0.258-0.789h-3.685 c-0.067 0.199-0.148 0.45-0.244 0.754c-0.095 0.303-0.182 0.588-0.258 0.853h0.975v1.104h-3.297V47.83h0.803l2.968-8.736h1.964 c0.468 1.4 1 2.9 1.4 4.368c0.497 1.5 1 2.9 1.4 4.368h0.803v1.104h-3.355V47.83H68.97z M68.124 45.1 c-0.191-0.648-0.387-1.289-0.588-1.924c-0.201-0.634-0.406-1.275-0.616-1.923c-0.038-0.143-0.079-0.286-0.122-0.429 c-0.043-0.143-0.089-0.286-0.136-0.429h-0.029l-0.272 0.872c-0.086 0.258-0.182 0.55-0.287 0.9 c-0.105 0.329-0.215 0.668-0.33 1.015c-0.115 0.348-0.225 0.691-0.33 1.03c-0.105 0.339-0.196 0.642-0.272 0.908H68.124z"/><path fill="#FFFFFF" d="M77.091 41.892h-1.19v-2.324c0.22-0.105 0.461-0.196 0.724-0.273c0.263-0.076 0.53-0.141 0.803-0.194 c0.272-0.053 0.545-0.093 0.817-0.122s0.533-0.043 0.781-0.043c0.459 0 0.9 0 1.3 0.1 c0.42 0.1 0.8 0.2 1.1 0.409c0.32 0.2 0.6 0.4 0.8 0.753c0.191 0.3 0.3 0.7 0.3 1.2 c0 0.191-0.033 0.392-0.1 0.602c-0.067 0.21-0.17 0.411-0.308 0.602c-0.139 0.191-0.306 0.368-0.502 0.5 c-0.196 0.163-0.423 0.292-0.681 0.387v0.014c0.573 0.2 1 0.5 1.4 0.882c0.33 0.4 0.5 0.9 0.5 1.5 c0 0.526-0.105 0.982-0.315 1.37c-0.21 0.387-0.497 0.71-0.86 0.968c-0.363 0.258-0.787 0.452-1.269 0.6 c-0.483 0.129-0.992 0.194-1.527 0.194c-0.249 0-0.514-0.01-0.796-0.029c-0.282-0.019-0.569-0.05-0.86-0.093 c-0.292-0.043-0.576-0.103-0.853-0.179c-0.277-0.076-0.536-0.167-0.774-0.273l0.344-1.061c0.497 0.1 1 0.2 1.4 0.3 c0.416 0.1 0.8 0.1 1 0.115c1.911 0 2.867-0.636 2.867-1.908c0-0.277-0.055-0.523-0.165-0.739 c-0.11-0.215-0.265-0.397-0.466-0.545c-0.201-0.148-0.44-0.26-0.717-0.337c-0.277-0.076-0.578-0.115-0.903-0.115h-1.219v-1.033 h1.147c0.334 0 0.631-0.045 0.889-0.136c0.258-0.091 0.473-0.213 0.645-0.366c0.172-0.153 0.303-0.325 0.394-0.516 c0.091-0.191 0.136-0.387 0.136-0.588c0-0.268-0.05-0.493-0.151-0.674c-0.101-0.181-0.239-0.33-0.416-0.444 c-0.177-0.115-0.389-0.196-0.638-0.244c-0.249-0.048-0.521-0.072-0.817-0.072c-0.306 0-0.614 0.029-0.925 0.1 c-0.311 0.057-0.59 0.139-0.839 0.244V41.892z"/><path fill="#FFFFFF" d="M92.989 39.123h3.656v1.061h-1.018v7.674h1.018v1.076h-3.527v-1.076h0.989v-5.767h-0.029 c-0.774 0.899-1.541 1.791-2.301 2.675c-0.76 0.885-1.527 1.772-2.301 2.661v0.43h0.961v1.076h-3.527v-1.076h1.018v-7.674h-0.989 v-1.061h3.527v1.061h-0.989v5.709h0.029c0.774-0.889 1.544-1.774 2.308-2.654c0.765-0.88 1.534-1.764 2.308-2.654v-0.401h-1.132 V39.123z"/><path fill="#FFFFFF" d="M106.943 48.935V47.83h0.889v-3.5h-4.315v3.5h0.903v1.104h-3.441V47.83h0.961v-7.617h-0.961v-1.104h3.441 v1.104h-0.903v3.055h4.315v-3.055h-0.889v-1.104h3.441v1.104h-0.961v7.617h0.961v1.104H106.943z"/></g><g><path fill="#FFFFFF" d="M471.367 39.123h3.655v1.061h-1.018v7.674h1.018v1.076h-3.527v-1.076h0.99v-5.767h-0.029 c-0.774 0.899-1.541 1.791-2.301 2.675c-0.76 0.885-1.527 1.772-2.301 2.661v0.43h0.961v1.076h-3.527v-1.076h1.018v-7.674h-0.989 v-1.061h3.527v1.061h-0.99v5.709h0.029c0.774-0.889 1.544-1.774 2.308-2.654c0.765-0.88 1.534-1.764 2.308-2.654v-0.401h-1.132 V39.123z"/><path fill="#FFFFFF" d="M479.364 48.935v-1.076h0.975V40.17h-0.946v-1.061h7.397v2.481h-1.147v-1.42h-3.727v7.689h1.362v1.076 H479.364z"/><path fill="#FFFFFF" d="M498.539 42.006c0 0.325-0.053 0.662-0.158 1.011c-0.106 0.349-0.275 0.67-0.509 1 c-0.234 0.292-0.545 0.533-0.932 0.724c-0.387 0.192-0.863 0.287-1.427 0.287h-2.021v2.84h1.247v1.104h-3.757V47.83h0.932v-7.631 h-0.932v-1.104h4.373c0.994 0 1.8 0.3 2.3 0.753C498.257 40.4 498.5 41.1 498.5 42.006z M493.492 40.199v3.686h1.663 c0.23 0 0.449-0.031 0.659-0.093c0.211-0.062 0.396-0.165 0.559-0.308c0.162-0.144 0.291-0.332 0.387-0.567 s0.143-0.524 0.143-0.868c0-0.641-0.157-1.109-0.473-1.406c-0.316-0.296-0.755-0.445-1.319-0.445H493.492z"/><path fill="#FFFFFF" d="M505.598 39.095v1.104h-0.888l1.204 2.99l0.874 2.303h0.072l0.831-2.318l1.119-2.975h-0.918v-1.104h3.139 v1.104H510.3l-2.896 7.361c-0.22 0.544-0.478 0.931-0.774 1.16c-0.296 0.229-0.684 0.344-1.161 0.3 c-0.172 0-0.399-0.012-0.681-0.036c-0.282-0.024-0.652-0.103-1.111-0.237l0.244-1.033c0.249 0 0.5 0.1 0.7 0.1 c0.191 0 0.4 0 0.5 0.043c0.22 0 0.406-0.06 0.559-0.179c0.153-0.119 0.291-0.332 0.416-0.638l0.244-0.631h-0.487 l-2.681-6.268h-0.745v-1.104H505.598z"/><path fill="#FFFFFF" d="M521.024 40.185h-0.846v-1.076h3.269v1.076h-0.86v7.674h3.326v-7.674h-0.86v-1.076h3.369v1.076h-0.946 v7.674h0.946v1.076h-13.247v-1.076h0.946v-7.674h-0.946v-1.076h3.384v1.076h-0.889v7.674h3.354V40.185z"/><path fill="#FFFFFF" d="M532.784 48.935V47.83h0.975v-7.617h-0.946v-1.104h7.426v2.568h-1.147v-1.463h-3.756v3.084l3.484-0.072 v1.133l-3.484-0.057v3.529h3.942V46.31h1.175v2.625H532.784z"/><path fill="#FFFFFF" d="M547.241 47.859h0.932v1.076h-3.441v-1.076h0.932V40.17h-0.932v-1.061h3.441v1.061h-0.932V47.859z M552.144 47.773l1.319 0.129v0.904c-0.211 0.077-0.444 0.137-0.703 0.18c-0.258 0.043-0.468 0.064-0.631 0.1 c-0.297 0.019-0.545-0.017-0.746-0.107c-0.2-0.091-0.382-0.251-0.545-0.481l-3.125-4.389v-0.473l2.853-3.916 c0.181-0.268 0.363-0.452 0.545-0.552c0.182-0.1 0.392-0.145 0.631-0.136c0.459 0 0.9 0.1 1.3 0.316l-0.1 0.904l-1.247 0.1 l-2.581 3.4L552.144 47.773z"/></g></svg>