<svg xmlns="http://www.w3.org/2000/svg" xmlns:xlink="http://www.w3.org/1999/xlink" version="1.1" id="Layer_1" x="0px" y="0px" width="182px" height="62px" viewBox="0 0 182 62" enable-background="new 0 0 182 62" xml:space="preserve"><g><g><path fill="#937BA6" d="M4.6 1.4L2.7 2.3c0.1-0.4 0.1-0.7 0.2-1C2.9 0.9 3 0.6 3 0.2c-0.1 0-0.2-0.1-0.3-0.1c-0.1 0-0.2 0-0.3 0 c-0.1 0-0.2 0-0.3 0c-0.1 0-0.2 0-0.3 0.1c0.1 0.4 0.1 0.7 0.2 1c0.1 0.3 0.1 0.7 0.2 1l-1.9-1C0.1 1.6 0 2 0 2.4 c0.4 0.1 0.7 0.1 1.1 0.2c0.3 0 0.7 0.1 1.1 0.2L0.6 4.2C0.7 4.4 0.9 4.5 1 4.6c0.1 0.1 0.3 0.2 0.5 0.2l0.9-1.9l1 1.9 c0.4-0.1 0.6-0.3 0.8-0.6L2.8 2.7l2.2-0.3c0-0.2 0-0.3-0.1-0.5C4.8 1.7 4.7 1.6 4.6 1.4z M11.2 1.4L9.2 2.3c0.1-0.4 0.1-0.7 0.2-1 c0.1-0.3 0.1-0.7 0.2-1c-0.1 0-0.2-0.1-0.3-0.1c-0.1 0-0.2 0-0.3 0c-0.1 0-0.2 0-0.3 0c-0.1 0-0.2 0-0.3 0.1 c0.1 0.4 0.1 0.7 0.2 1c0.1 0.3 0.1 0.7 0.2 1l-1.9-1C6.7 1.6 6.6 2 6.6 2.4c0.4 0.1 0.7 0.1 1.1 0.2c0.3 0 0.7 0.1 1.1 0.2 L7.2 4.2c0.1 0.2 0.3 0.3 0.4 0.4C7.7 4.7 7.9 4.8 8 4.9L9 2.9l1 1.9c0.4-0.1 0.6-0.3 0.8-0.6L9.3 2.7l2.2-0.3 c0-0.2 0-0.3-0.1-0.5C11.4 1.7 11.3 1.6 11.2 1.4z M17.7 1.4l-1.9 0.9c0.1-0.4 0.1-0.7 0.2-1c0.1-0.3 0.1-0.7 0.2-1 c-0.1 0-0.2-0.1-0.3-0.1c-0.1 0-0.2 0-0.3 0c-0.1 0-0.2 0-0.3 0c-0.1 0-0.2 0-0.3 0.1c0.1 0.4 0.1 0.7 0.2 1 c0.1 0.3 0.1 0.7 0.2 1l-1.9-1c-0.2 0.3-0.3 0.6-0.3 1c0.4 0.1 0.7 0.1 1.1 0.2c0.3 0 0.7 0.1 1.1 0.2l-1.5 1.5 c0.1 0.2 0.3 0.3 0.4 0.4c0.1 0.1 0.3 0.2 0.5 0.2l0.9-1.9l1 1.9c0.4-0.1 0.6-0.3 0.8-0.6l-1.5-1.5l2.2-0.3c0-0.2 0-0.3-0.1-0.5 C17.9 1.7 17.9 1.6 17.7 1.4z M24.3 1.4l-1.9 0.9c0.1-0.4 0.1-0.7 0.2-1c0.1-0.3 0.1-0.7 0.2-1c-0.1 0-0.2-0.1-0.3-0.1 c-0.1 0-0.2 0-0.3 0c-0.1 0-0.2 0-0.3 0c-0.1 0-0.2 0-0.3 0.1c0.1 0.4 0.1 0.7 0.2 1c0.1 0.3 0.1 0.7 0.2 1l-1.9-1 c-0.2 0.3-0.3 0.6-0.3 1c0.4 0.1 0.7 0.1 1.1 0.2c0.3 0 0.7 0.1 1.1 0.2l-1.5 1.5c0.1 0.2 0.3 0.3 0.4 0.4 c0.1 0.1 0.3 0.2 0.5 0.2l0.9-1.9l1 1.9c0.4-0.1 0.6-0.3 0.8-0.6l-1.5-1.5l2.2-0.3c0-0.2 0-0.3-0.1-0.5 C24.5 1.7 24.4 1.6 24.3 1.4z M30.8 1.4l-1.9 0.9C29 2 29 1.6 29.1 1.3c0.1-0.3 0.1-0.7 0.2-1c-0.1 0-0.2-0.1-0.3-0.1 c-0.1 0-0.2 0-0.3 0c-0.1 0-0.2 0-0.3 0c-0.1 0-0.2 0-0.3 0.1c0.1 0.4 0.1 0.7 0.2 1c0.1 0.3 0.1 0.7 0.2 1l-1.9-1 c-0.2 0.3-0.3 0.6-0.3 1c0.4 0.1 0.7 0.1 1.1 0.2c0.3 0 0.7 0.1 1.1 0.2l-1.5 1.5c0.1 0.2 0.3 0.3 0.4 0.4 c0.1 0.1 0.3 0.2 0.5 0.2l0.9-1.9l1 1.9c0.4-0.1 0.6-0.3 0.8-0.6L29 2.7l2.2-0.3c0-0.2 0-0.3-0.1-0.5C31.1 1.7 31 1.6 30.8 1.4z M152.4 2.7l-1.5 1.5c0.1 0.2 0.3 0.3 0.4 0.4c0.1 0.1 0.3 0.2 0.5 0.2l0.9-1.9l1 1.9c0.4-0.1 0.6-0.3 0.8-0.6l-1.5-1.5l2.2-0.3 c0-0.2 0-0.3-0.1-0.5c0-0.2-0.1-0.4-0.3-0.5L153 2.3c0.1-0.4 0.1-0.7 0.2-1c0.1-0.3 0.1-0.7 0.2-1c-0.1 0-0.2-0.1-0.3-0.1 c-0.1 0-0.2 0-0.3 0c-0.1 0-0.2 0-0.3 0c-0.1 0-0.2 0-0.3 0.1c0.1 0.4 0.1 0.7 0.2 1c0.1 0.3 0.1 0.7 0.2 1l-1.9-1 c-0.2 0.3-0.3 0.6-0.3 1c0.4 0.1 0.7 0.1 1.1 0.2C151.7 2.6 152.1 2.7 152.4 2.7z M159 2.7l-1.5 1.5c0.1 0.2 0.3 0.3 0.4 0.4 c0.1 0.1 0.3 0.2 0.5 0.2l0.9-1.9l1 1.9c0.4-0.1 0.6-0.3 0.8-0.6l-1.5-1.5l2.2-0.3c0-0.2 0-0.3-0.1-0.5c0-0.2-0.1-0.4-0.3-0.5 l-1.9 0.9c0.1-0.4 0.1-0.7 0.2-1c0.1-0.3 0.1-0.7 0.2-1c-0.1 0-0.2-0.1-0.3-0.1c-0.1 0-0.2 0-0.3 0c-0.1 0-0.2 0-0.3 0 c-0.1 0-0.2 0-0.3 0.1c0.1 0.4 0.1 0.7 0.2 1c0.1 0.3 0.1 0.7 0.2 1l-1.9-1c-0.2 0.3-0.3 0.6-0.3 1c0.4 0.1 0.7 0.1 1.1 0.2 C158.3 2.6 158.6 2.7 159 2.7z M165.6 2.7l-1.5 1.5c0.1 0.2 0.3 0.3 0.4 0.4c0.1 0.1 0.3 0.2 0.5 0.2l0.9-1.9l1 1.9 c0.4-0.1 0.6-0.3 0.8-0.6l-1.5-1.5l2.2-0.3c0-0.2 0-0.3-0.1-0.5c0-0.2-0.1-0.4-0.3-0.5l-1.9 0.9c0.1-0.4 0.1-0.7 0.2-1 c0.1-0.3 0.1-0.7 0.2-1c-0.1 0-0.2-0.1-0.3-0.1c-0.1 0-0.2 0-0.3 0c-0.1 0-0.2 0-0.3 0c-0.1 0-0.2 0-0.3 0.1 c0.1 0.4 0.1 0.7 0.2 1c0.1 0.3 0.1 0.7 0.2 1l-1.9-1c-0.2 0.3-0.3 0.6-0.3 1c0.4 0.1 0.7 0.1 1.1 0.2 C164.9 2.6 165.2 2.7 165.6 2.7z M172.1 2.7l-1.5 1.5c0.1 0.2 0.3 0.3 0.4 0.4c0.1 0.1 0.3 0.2 0.5 0.2l0.9-1.9l1 1.9 c0.4-0.1 0.6-0.3 0.8-0.6l-1.5-1.5l2.2-0.3c0-0.2 0-0.3-0.1-0.5c0-0.2-0.1-0.4-0.3-0.5l-1.9 0.9c0.1-0.4 0.1-0.7 0.2-1 c0.1-0.3 0.1-0.7 0.2-1c-0.1 0-0.2-0.1-0.3-0.1c-0.1 0-0.2 0-0.3 0c-0.1 0-0.2 0-0.3 0c-0.1 0-0.2 0-0.3 0.1 c0.1 0.4 0.1 0.7 0.2 1c0.1 0.3 0.1 0.7 0.2 1l-1.9-1c-0.2 0.3-0.3 0.6-0.3 1c0.4 0.1 0.7 0.1 1.1 0.2 C171.4 2.6 171.8 2.7 172.1 2.7z M178.7 2.7l-1.5 1.5c0.1 0.2 0.3 0.3 0.4 0.4c0.1 0.1 0.3 0.2 0.5 0.2l0.9-1.9l1 1.9 c0.4-0.1 0.6-0.3 0.8-0.6l-1.5-1.5l2.2-0.3c0-0.2 0-0.3-0.1-0.5c0-0.2-0.1-0.4-0.3-0.5l-1.9 0.9c0.1-0.4 0.1-0.7 0.2-1 c0.1-0.3 0.1-0.7 0.2-1c-0.1 0-0.2-0.1-0.3-0.1c-0.1 0-0.2 0-0.3 0c-0.1 0-0.2 0-0.3 0c-0.1 0-0.2 0-0.3 0.1 c0.1 0.4 0.1 0.7 0.2 1c0.1 0.3 0.1 0.7 0.2 1l-1.9-1c-0.2 0.3-0.3 0.6-0.3 1c0.4 0.1 0.7 0.1 1.1 0.2 C178 2.6 178.3 2.7 178.7 2.7z M4.6 12.9l-1.9 0.9c0.1-0.4 0.1-0.7 0.2-1C2.9 12.4 3 12 3 11.7c-0.1 0-0.2-0.1-0.3-0.1 c-0.1 0-0.2 0-0.3 0c-0.1 0-0.2 0-0.3 0c-0.1 0-0.2 0-0.3 0.1c0.1 0.4 0.1 0.7 0.2 1c0.1 0.3 0.1 0.7 0.2 1l-1.9-1 c-0.2 0.3-0.3 0.6-0.3 1C0.4 13.9 0.7 14 1.1 14c0.3 0 0.7 0.1 1.1 0.2l-1.5 1.5C0.7 15.9 0.9 16 1 16.1c0.1 0.1 0.3 0.2 0.5 0.2 l0.9-1.9l1 1.9c0.4-0.1 0.6-0.3 0.8-0.6l-1.5-1.5l2.2-0.3c0-0.2 0-0.3-0.1-0.5C4.8 13.2 4.7 13 4.6 12.9z M179.5 13.8 c0.1-0.4 0.1-0.7 0.2-1c0.1-0.3 0.1-0.7 0.2-1c-0.1 0-0.2-0.1-0.3-0.1c-0.1 0-0.2 0-0.3 0c-0.1 0-0.2 0-0.3 0 c-0.1 0-0.2 0-0.3 0.1c0.1 0.4 0.1 0.7 0.2 1c0.1 0.3 0.1 0.7 0.2 1l-1.9-1c-0.2 0.3-0.3 0.6-0.3 1c0.4 0.1 0.7 0.1 1.1 0.2 c0.3 0 0.7 0.1 1.1 0.2l-1.5 1.5c0.1 0.2 0.3 0.3 0.4 0.4c0.1 0.1 0.3 0.2 0.5 0.2l0.9-1.9l1 1.9c0.4-0.1 0.6-0.3 0.8-0.6 l-1.5-1.5l2.2-0.3c0-0.2 0-0.3-0.1-0.5c0-0.2-0.1-0.4-0.3-0.5L179.5 13.8z M4.6 23.4l-1.9 0.9c0.1-0.4 0.1-0.7 0.2-1 c0.1-0.3 0.1-0.7 0.2-1c-0.1 0-0.2-0.1-0.3-0.1c-0.1 0-0.2 0-0.3 0c-0.1 0-0.2 0-0.3 0c-0.1 0-0.2 0-0.3 0.1 c0.1 0.4 0.1 0.7 0.2 1c0.1 0.3 0.1 0.7 0.2 1l-1.9-1c-0.2 0.3-0.3 0.6-0.3 1c0.4 0.1 0.7 0.1 1.1 0.2c0.3 0 0.7 0.1 1.1 0.2 l-1.5 1.5c0.1 0.2 0.3 0.3 0.4 0.4c0.1 0.1 0.3 0.2 0.5 0.2l0.9-1.9l1 1.9c0.4-0.1 0.6-0.3 0.8-0.6l-1.5-1.5l2.2-0.3 c0-0.2 0-0.3-0.1-0.5C4.8 23.7 4.7 23.5 4.6 23.4z M181.7 23.9c0-0.2-0.1-0.4-0.3-0.5l-1.9 0.9c0.1-0.4 0.1-0.7 0.2-1 c0.1-0.3 0.1-0.7 0.2-1c-0.1 0-0.2-0.1-0.3-0.1c-0.1 0-0.2 0-0.3 0c-0.1 0-0.2 0-0.3 0c-0.1 0-0.2 0-0.3 0.1 c0.1 0.4 0.1 0.7 0.2 1c0.1 0.3 0.1 0.7 0.2 1l-1.9-1c-0.2 0.3-0.3 0.6-0.3 1c0.4 0.1 0.7 0.1 1.1 0.2c0.3 0 0.7 0.1 1.1 0.2 l-1.5 1.5c0.1 0.2 0.3 0.3 0.4 0.4c0.1 0.1 0.3 0.2 0.5 0.2l0.9-1.9l1 1.9c0.4-0.1 0.6-0.3 0.8-0.6l-1.5-1.5l2.2-0.3 C181.8 24.2 181.8 24.1 181.7 23.9z M4.6 33.9l-1.9 0.9c0.1-0.4 0.1-0.7 0.2-1S3 33 3 32.7c-0.1 0-0.2-0.1-0.3-0.1 c-0.1 0-0.2 0-0.3 0c-0.1 0-0.2 0-0.3 0c-0.1 0-0.2 0-0.3 0.1c0.1 0.4 0.1 0.7 0.2 1s0.1 0.7 0.2 1l-1.9-1c-0.2 0.3-0.3 0.6-0.3 1 c0.4 0.1 0.7 0.1 1.1 0.2c0.3 0 0.7 0.1 1.1 0.2l-1.5 1.5C0.7 36.8 0.9 37 1 37.1c0.1 0.1 0.3 0.2 0.5 0.2l0.9-1.9l1 1.9 c0.4-0.1 0.6-0.3 0.8-0.6l-1.5-1.5l2.2-0.3c0-0.2 0-0.3-0.1-0.5C4.8 34.2 4.7 34 4.6 33.9z M181.7 34.4c0-0.2-0.1-0.4-0.3-0.5 l-1.9 0.9c0.1-0.4 0.1-0.7 0.2-1s0.1-0.7 0.2-1c-0.1 0-0.2-0.1-0.3-0.1c-0.1 0-0.2 0-0.3 0c-0.1 0-0.2 0-0.3 0 c-0.1 0-0.2 0-0.3 0.1c0.1 0.4 0.1 0.7 0.2 1s0.1 0.7 0.2 1l-1.9-1c-0.2 0.3-0.3 0.6-0.3 1c0.4 0.1 0.7 0.1 1.1 0.2 c0.3 0 0.7 0.1 1.1 0.2l-1.5 1.5c0.1 0.2 0.3 0.3 0.4 0.4c0.1 0.1 0.3 0.2 0.5 0.2l0.9-1.9l1 1.9c0.4-0.1 0.6-0.3 0.8-0.6 l-1.5-1.5l2.2-0.3C181.8 34.7 181.8 34.6 181.7 34.4z M4.6 44.4l-1.9 0.9c0.1-0.4 0.1-0.7 0.2-1c0.1-0.3 0.1-0.7 0.2-1 c-0.1 0-0.2-0.1-0.3-0.1c-0.1 0-0.2 0-0.3 0c-0.1 0-0.2 0-0.3 0c-0.1 0-0.2 0-0.3 0.1c0.1 0.4 0.1 0.7 0.2 1 c0.1 0.3 0.1 0.7 0.2 1l-1.9-1c-0.2 0.3-0.3 0.6-0.3 1c0.4 0.1 0.7 0.1 1.1 0.2c0.3 0 0.7 0.1 1.1 0.2l-1.5 1.5 c0.1 0.2 0.3 0.3 0.4 0.4c0.1 0.1 0.3 0.2 0.5 0.2l0.9-1.9l1 1.9c0.4-0.1 0.6-0.3 0.8-0.6l-1.5-1.5l2.2-0.3c0-0.2 0-0.3-0.1-0.5 C4.8 44.7 4.7 44.5 4.6 44.4z M179 45.7l-1.5 1.5c0.1 0.2 0.3 0.3 0.4 0.4c0.1 0.1 0.3 0.2 0.5 0.2l0.9-1.9l1 1.9 c0.4-0.1 0.6-0.3 0.8-0.6l-1.5-1.5l2.2-0.3c0-0.2 0-0.3-0.1-0.5c0-0.2-0.1-0.4-0.3-0.5l-1.9 0.9c0.1-0.4 0.1-0.7 0.2-1 c0.1-0.3 0.1-0.7 0.2-1c-0.1 0-0.2-0.1-0.3-0.1c-0.1 0-0.2 0-0.3 0c-0.1 0-0.2 0-0.3 0c-0.1 0-0.2 0-0.3 0.1 c0.1 0.4 0.1 0.7 0.2 1c0.1 0.3 0.1 0.7 0.2 1l-1.9-1c-0.2 0.3-0.3 0.6-0.3 1c0.4 0.1 0.7 0.1 1.1 0.2 C178.3 45.5 178.6 45.6 179 45.7z M4.9 58.2c0-0.2-0.1-0.4-0.3-0.5l-1.9 0.9c0.1-0.4 0.1-0.7 0.2-1c0.1-0.3 0.1-0.7 0.2-1 c-0.1 0-0.2-0.1-0.3-0.1c-0.1 0-0.2 0-0.3 0c-0.1 0-0.2 0-0.3 0c-0.1 0-0.2 0-0.3 0.1c0.1 0.4 0.1 0.7 0.2 1 c0.1 0.3 0.1 0.7 0.2 1l-1.9-1c-0.2 0.3-0.3 0.6-0.3 1c0.4 0.1 0.7 0.1 1.1 0.2c0.3 0 0.7 0.1 1.1 0.2l-1.5 1.5 c0.1 0.2 0.3 0.3 0.4 0.4c0.1 0.1 0.3 0.2 0.5 0.2l0.9-1.9l1 1.9c0.4-0.1 0.6-0.3 0.8-0.6L2.8 59l2.2-0.3 C4.9 58.6 4.9 58.4 4.9 58.2z M11.4 58.2c0-0.2-0.1-0.4-0.3-0.5l-1.9 0.9c0.1-0.4 0.1-0.7 0.2-1c0.1-0.3 0.1-0.7 0.2-1 c-0.1 0-0.2-0.1-0.3-0.1c-0.1 0-0.2 0-0.3 0c-0.1 0-0.2 0-0.3 0c-0.1 0-0.2 0-0.3 0.1c0.1 0.4 0.1 0.7 0.2 1 c0.1 0.3 0.1 0.7 0.2 1l-1.9-1c-0.2 0.3-0.3 0.6-0.3 1c0.4 0.1 0.7 0.1 1.1 0.2C8 58.9 8.3 59 8.7 59l-1.5 1.5 c0.1 0.2 0.3 0.3 0.4 0.4C7.7 61 7.9 61.1 8 61.2L9 59.3l1 1.9c0.4-0.1 0.6-0.3 0.8-0.6L9.3 59l2.2-0.3 C11.5 58.6 11.5 58.4 11.4 58.2z M18 58.2c0-0.2-0.1-0.4-0.3-0.5l-1.9 0.9c0.1-0.4 0.1-0.7 0.2-1c0.1-0.3 0.1-0.7 0.2-1 c-0.1 0-0.2-0.1-0.3-0.1c-0.1 0-0.2 0-0.3 0c-0.1 0-0.2 0-0.3 0c-0.1 0-0.2 0-0.3 0.1c0.1 0.4 0.1 0.7 0.2 1 c0.1 0.3 0.1 0.7 0.2 1l-1.9-1c-0.2 0.3-0.3 0.6-0.3 1c0.4 0.1 0.7 0.1 1.1 0.2c0.3 0 0.7 0.1 1.1 0.2l-1.5 1.5 c0.1 0.2 0.3 0.3 0.4 0.4c0.1 0.1 0.3 0.2 0.5 0.2l0.9-1.9l1 1.9c0.4-0.1 0.6-0.3 0.8-0.6L15.9 59l2.2-0.3 C18.1 58.6 18 58.4 18 58.2z M24.5 58.2c0-0.2-0.1-0.4-0.3-0.5l-1.9 0.9c0.1-0.4 0.1-0.7 0.2-1c0.1-0.3 0.1-0.7 0.2-1 c-0.1 0-0.2-0.1-0.3-0.1c-0.1 0-0.2 0-0.3 0c-0.1 0-0.2 0-0.3 0c-0.1 0-0.2 0-0.3 0.1c0.1 0.4 0.1 0.7 0.2 1 c0.1 0.3 0.1 0.7 0.2 1l-1.9-1c-0.2 0.3-0.3 0.6-0.3 1c0.4 0.1 0.7 0.1 1.1 0.2c0.3 0 0.7 0.1 1.1 0.2l-1.5 1.5 c0.1 0.2 0.3 0.3 0.4 0.4c0.1 0.1 0.3 0.2 0.5 0.2l0.9-1.9l1 1.9c0.4-0.1 0.6-0.3 0.8-0.6L22.4 59l2.2-0.3 C24.6 58.6 24.6 58.4 24.5 58.2z M31.1 58.2c0-0.2-0.1-0.4-0.3-0.5l-1.9 0.9c0.1-0.4 0.1-0.7 0.2-1c0.1-0.3 0.1-0.7 0.2-1 c-0.1 0-0.2-0.1-0.3-0.1c-0.1 0-0.2 0-0.3 0c-0.1 0-0.2 0-0.3 0c-0.1 0-0.2 0-0.3 0.1c0.1 0.4 0.1 0.7 0.2 1 c0.1 0.3 0.1 0.7 0.2 1l-1.9-1c-0.2 0.3-0.3 0.6-0.3 1c0.4 0.1 0.7 0.1 1.1 0.2c0.3 0 0.7 0.1 1.1 0.2l-1.5 1.5 c0.1 0.2 0.3 0.3 0.4 0.4c0.1 0.1 0.3 0.2 0.5 0.2l0.9-1.9l1 1.9c0.4-0.1 0.6-0.3 0.8-0.6L29 59l2.2-0.3 C31.2 58.6 31.2 58.4 31.1 58.2z M37.7 58.2c0-0.2-0.1-0.4-0.3-0.5l-1.9 0.9c0.1-0.4 0.1-0.7 0.2-1c0.1-0.3 0.1-0.7 0.2-1 c-0.1 0-0.2-0.1-0.3-0.1c-0.1 0-0.2 0-0.3 0c-0.1 0-0.2 0-0.3 0c-0.1 0-0.2 0-0.3 0.1c0.1 0.4 0.1 0.7 0.2 1 c0.1 0.3 0.1 0.7 0.2 1l-1.9-1c-0.2 0.3-0.3 0.6-0.3 1c0.4 0.1 0.7 0.1 1.1 0.2c0.3 0 0.7 0.1 1.1 0.2l-1.5 1.5 c0.1 0.2 0.3 0.3 0.4 0.4c0.1 0.1 0.3 0.2 0.5 0.2l0.9-1.9l1 1.9c0.4-0.1 0.6-0.3 0.8-0.6L35.6 59l2.2-0.3 C37.7 58.6 37.7 58.4 37.7 58.2z M44.2 58.2c0-0.2-0.1-0.4-0.3-0.5L42 58.6c0.1-0.4 0.1-0.7 0.2-1c0.1-0.3 0.1-0.7 0.2-1 c-0.1 0-0.2-0.1-0.3-0.1c-0.1 0-0.2 0-0.3 0c-0.1 0-0.2 0-0.3 0c-0.1 0-0.2 0-0.3 0.1c0.1 0.4 0.1 0.7 0.2 1 c0.1 0.3 0.1 0.7 0.2 1l-1.9-1c-0.2 0.3-0.3 0.6-0.3 1c0.4 0.1 0.7 0.1 1.1 0.2c0.3 0 0.7 0.1 1.1 0.2L40 60.5 c0.1 0.2 0.3 0.3 0.4 0.4c0.1 0.1 0.3 0.2 0.5 0.2l0.9-1.9l1 1.9c0.4-0.1 0.6-0.3 0.8-0.6L42.1 59l2.2-0.3 C44.3 58.6 44.3 58.4 44.2 58.2z M50.8 58.2c0-0.2-0.1-0.4-0.3-0.5l-1.9 0.9c0.1-0.4 0.1-0.7 0.2-1c0.1-0.3 0.1-0.7 0.2-1 c-0.1 0-0.2-0.1-0.3-0.1c-0.1 0-0.2 0-0.3 0c-0.1 0-0.2 0-0.3 0c-0.1 0-0.2 0-0.3 0.1c0.1 0.4 0.1 0.7 0.2 1 c0.1 0.3 0.1 0.7 0.2 1l-1.9-1c-0.2 0.3-0.3 0.6-0.3 1c0.4 0.1 0.7 0.1 1.1 0.2c0.3 0 0.7 0.1 1.1 0.2l-1.5 1.5 c0.1 0.2 0.3 0.3 0.4 0.4c0.1 0.1 0.3 0.2 0.5 0.2l0.9-1.9l1 1.9c0.4-0.1 0.6-0.3 0.8-0.6L48.7 59l2.2-0.3 C50.8 58.6 50.8 58.4 50.8 58.2z M57.3 58.2c0-0.2-0.1-0.4-0.3-0.5l-1.9 0.9c0.1-0.4 0.1-0.7 0.2-1c0.1-0.3 0.1-0.7 0.2-1 c-0.1 0-0.2-0.1-0.3-0.1c-0.1 0-0.2 0-0.3 0c-0.1 0-0.2 0-0.3 0c-0.1 0-0.2 0-0.3 0.1c0.1 0.4 0.1 0.7 0.2 1 c0.1 0.3 0.1 0.7 0.2 1l-1.9-1c-0.2 0.3-0.3 0.6-0.3 1c0.4 0.1 0.7 0.1 1.1 0.2c0.3 0 0.7 0.1 1.1 0.2l-1.5 1.5 c0.1 0.2 0.3 0.3 0.4 0.4c0.1 0.1 0.3 0.2 0.5 0.2l0.9-1.9l1 1.9c0.4-0.1 0.6-0.3 0.8-0.6L55.2 59l2.2-0.3 C57.4 58.6 57.4 58.4 57.3 58.2z M63.9 58.2c0-0.2-0.1-0.4-0.3-0.5l-1.9 0.9c0.1-0.4 0.1-0.7 0.2-1c0.1-0.3 0.1-0.7 0.2-1 c-0.1 0-0.2-0.1-0.3-0.1c-0.1 0-0.2 0-0.3 0c-0.1 0-0.2 0-0.3 0c-0.1 0-0.2 0-0.3 0.1c0.1 0.4 0.1 0.7 0.2 1 c0.1 0.3 0.1 0.7 0.2 1l-1.9-1c-0.2 0.3-0.3 0.6-0.3 1c0.4 0.1 0.7 0.1 1.1 0.2c0.3 0 0.7 0.1 1.1 0.2l-1.5 1.5 c0.1 0.2 0.3 0.3 0.4 0.4c0.1 0.1 0.3 0.2 0.5 0.2l0.9-1.9l1 1.9c0.4-0.1 0.6-0.3 0.8-0.6L61.8 59l2.2-0.3 C64 58.6 63.9 58.4 63.9 58.2z M70.5 58.2c0-0.2-0.1-0.4-0.3-0.5l-1.9 0.9c0.1-0.4 0.1-0.7 0.2-1c0.1-0.3 0.1-0.7 0.2-1 c-0.1 0-0.2-0.1-0.3-0.1c-0.1 0-0.2 0-0.3 0c-0.1 0-0.2 0-0.3 0c-0.1 0-0.2 0-0.3 0.1c0.1 0.4 0.1 0.7 0.2 1 c0.1 0.3 0.1 0.7 0.2 1l-1.9-1c-0.2 0.3-0.3 0.6-0.3 1c0.4 0.1 0.7 0.1 1.1 0.2c0.3 0 0.7 0.1 1.1 0.2l-1.5 1.5 c0.1 0.2 0.3 0.3 0.4 0.4c0.1 0.1 0.3 0.2 0.5 0.2l0.9-1.9l1 1.9c0.4-0.1 0.6-0.3 0.8-0.6L68.3 59l2.2-0.3 C70.5 58.6 70.5 58.4 70.5 58.2z M77 58.2c0-0.2-0.1-0.4-0.3-0.5l-1.9 0.9c0.1-0.4 0.1-0.7 0.2-1c0.1-0.3 0.1-0.7 0.2-1 c-0.1 0-0.2-0.1-0.3-0.1c-0.1 0-0.2 0-0.3 0c-0.1 0-0.2 0-0.3 0c-0.1 0-0.2 0-0.3 0.1c0.1 0.4 0.1 0.7 0.2 1 c0.1 0.3 0.1 0.7 0.2 1l-1.9-1c-0.2 0.3-0.3 0.6-0.3 1c0.4 0.1 0.7 0.1 1.1 0.2c0.3 0 0.7 0.1 1.1 0.2l-1.5 1.5 c0.1 0.2 0.3 0.3 0.4 0.4c0.1 0.1 0.3 0.2 0.5 0.2l0.9-1.9l1 1.9c0.4-0.1 0.6-0.3 0.8-0.6L74.9 59l2.2-0.3 C77.1 58.6 77.1 58.4 77 58.2z M83.6 58.2c0-0.2-0.1-0.4-0.3-0.5l-1.9 0.9c0.1-0.4 0.1-0.7 0.2-1c0.1-0.3 0.1-0.7 0.2-1 c-0.1 0-0.2-0.1-0.3-0.1c-0.1 0-0.2 0-0.3 0c-0.1 0-0.2 0-0.3 0c-0.1 0-0.2 0-0.3 0.1c0.1 0.4 0.1 0.7 0.2 1 c0.1 0.3 0.1 0.7 0.2 1l-1.9-1c-0.2 0.3-0.3 0.6-0.3 1c0.4 0.1 0.7 0.1 1.1 0.2c0.3 0 0.7 0.1 1.1 0.2l-1.5 1.5 c0.1 0.2 0.3 0.3 0.4 0.4c0.1 0.1 0.3 0.2 0.5 0.2l0.9-1.9l1 1.9c0.4-0.1 0.6-0.3 0.8-0.6L81.5 59l2.2-0.3 C83.6 58.6 83.6 58.4 83.6 58.2z M90.1 58.2c0-0.2-0.1-0.4-0.3-0.5l-1.9 0.9c0.1-0.4 0.1-0.7 0.2-1c0.1-0.3 0.1-0.7 0.2-1 c-0.1 0-0.2-0.1-0.3-0.1c-0.1 0-0.2 0-0.3 0c-0.1 0-0.2 0-0.3 0c-0.1 0-0.2 0-0.3 0.1c0.1 0.4 0.1 0.7 0.2 1 c0.1 0.3 0.1 0.7 0.2 1l-1.9-1c-0.2 0.3-0.3 0.6-0.3 1c0.4 0.1 0.7 0.1 1.1 0.2c0.3 0 0.7 0.1 1.1 0.2l-1.5 1.5 c0.1 0.2 0.3 0.3 0.4 0.4c0.1 0.1 0.3 0.2 0.5 0.2l0.9-1.9l1 1.9c0.4-0.1 0.6-0.3 0.8-0.6L88 59l2.2-0.3 C90.2 58.6 90.2 58.4 90.1 58.2z M96.7 58.2c0-0.2-0.1-0.4-0.3-0.5l-1.9 0.9c0.1-0.4 0.1-0.7 0.2-1c0.1-0.3 0.1-0.7 0.2-1 c-0.1 0-0.2-0.1-0.3-0.1c-0.1 0-0.2 0-0.3 0c-0.1 0-0.2 0-0.3 0c-0.1 0-0.2 0-0.3 0.1c0.1 0.4 0.1 0.7 0.2 1 c0.1 0.3 0.1 0.7 0.2 1l-1.9-1c-0.2 0.3-0.3 0.6-0.3 1c0.4 0.1 0.7 0.1 1.1 0.2c0.3 0 0.7 0.1 1.1 0.2l-1.5 1.5 c0.1 0.2 0.3 0.3 0.4 0.4c0.1 0.1 0.3 0.2 0.5 0.2l0.9-1.9l1 1.9c0.4-0.1 0.6-0.3 0.8-0.6L94.6 59l2.2-0.3 C96.7 58.6 96.7 58.4 96.7 58.2z M103.2 58.2c0-0.2-0.1-0.4-0.3-0.5l-1.9 0.9c0.1-0.4 0.1-0.7 0.2-1c0.1-0.3 0.1-0.7 0.2-1 c-0.1 0-0.2-0.1-0.3-0.1c-0.1 0-0.2 0-0.3 0c-0.1 0-0.2 0-0.3 0c-0.1 0-0.2 0-0.3 0.1c0.1 0.4 0.1 0.7 0.2 1 c0.1 0.3 0.1 0.7 0.2 1l-1.9-1c-0.2 0.3-0.3 0.6-0.3 1c0.4 0.1 0.7 0.1 1.1 0.2c0.3 0 0.7 0.1 1.1 0.2L99 60.5 c0.1 0.2 0.3 0.3 0.4 0.4c0.1 0.1 0.3 0.2 0.5 0.2l0.9-1.9l1 1.9c0.4-0.1 0.6-0.3 0.8-0.6l-1.5-1.5l2.2-0.3 C103.3 58.6 103.3 58.4 103.2 58.2z M109.8 58.2c0-0.2-0.1-0.4-0.3-0.5l-1.9 0.9c0.1-0.4 0.1-0.7 0.2-1c0.1-0.3 0.1-0.7 0.2-1 c-0.1 0-0.2-0.1-0.3-0.1c-0.1 0-0.2 0-0.3 0c-0.1 0-0.2 0-0.3 0c-0.1 0-0.2 0-0.3 0.1c0.1 0.4 0.1 0.7 0.2 1 c0.1 0.3 0.1 0.7 0.2 1l-1.9-1c-0.2 0.3-0.3 0.6-0.3 1c0.4 0.1 0.7 0.1 1.1 0.2c0.3 0 0.7 0.1 1.1 0.2l-1.5 1.5 c0.1 0.2 0.3 0.3 0.4 0.4c0.1 0.1 0.3 0.2 0.5 0.2l0.9-1.9l1 1.9c0.4-0.1 0.6-0.3 0.8-0.6l-1.5-1.5l2.2-0.3 C109.9 58.6 109.8 58.4 109.8 58.2z M116.4 58.2c0-0.2-0.1-0.4-0.3-0.5l-1.9 0.9c0.1-0.4 0.1-0.7 0.2-1c0.1-0.3 0.1-0.7 0.2-1 c-0.1 0-0.2-0.1-0.3-0.1c-0.1 0-0.2 0-0.3 0c-0.1 0-0.2 0-0.3 0c-0.1 0-0.2 0-0.3 0.1c0.1 0.4 0.1 0.7 0.2 1 c0.1 0.3 0.1 0.7 0.2 1l-1.9-1c-0.2 0.3-0.3 0.6-0.3 1c0.4 0.1 0.7 0.1 1.1 0.2c0.3 0 0.7 0.1 1.1 0.2l-1.5 1.5 c0.1 0.2 0.3 0.3 0.4 0.4c0.1 0.1 0.3 0.2 0.5 0.2l0.9-1.9l1 1.9c0.4-0.1 0.6-0.3 0.8-0.6l-1.5-1.5l2.2-0.3 C116.4 58.6 116.4 58.4 116.4 58.2z M122.9 58.2c0-0.2-0.1-0.4-0.3-0.5l-1.9 0.9c0.1-0.4 0.1-0.7 0.2-1c0.1-0.3 0.1-0.7 0.2-1 c-0.1 0-0.2-0.1-0.3-0.1c-0.1 0-0.2 0-0.3 0c-0.1 0-0.2 0-0.3 0c-0.1 0-0.2 0-0.3 0.1c0.1 0.4 0.1 0.7 0.2 1 c0.1 0.3 0.1 0.7 0.2 1l-1.9-1c-0.2 0.3-0.3 0.6-0.3 1c0.4 0.1 0.7 0.1 1.1 0.2c0.3 0 0.7 0.1 1.1 0.2l-1.5 1.5 c0.1 0.2 0.3 0.3 0.4 0.4c0.1 0.1 0.3 0.2 0.5 0.2l0.9-1.9l1 1.9c0.4-0.1 0.6-0.3 0.8-0.6l-1.5-1.5l2.2-0.3 C123 58.6 123 58.4 122.9 58.2z M129.5 58.2c0-0.2-0.1-0.4-0.3-0.5l-1.9 0.9c0.1-0.4 0.1-0.7 0.2-1c0.1-0.3 0.1-0.7 0.2-1 c-0.1 0-0.2-0.1-0.3-0.1c-0.1 0-0.2 0-0.3 0c-0.1 0-0.2 0-0.3 0c-0.1 0-0.2 0-0.3 0.1c0.1 0.4 0.1 0.7 0.2 1 c0.1 0.3 0.1 0.7 0.2 1l-1.9-1c-0.2 0.3-0.3 0.6-0.3 1c0.4 0.1 0.7 0.1 1.1 0.2c0.3 0 0.7 0.1 1.1 0.2l-1.5 1.5 c0.1 0.2 0.3 0.3 0.4 0.4c0.1 0.1 0.3 0.2 0.5 0.2l0.9-1.9l1 1.9c0.4-0.1 0.6-0.3 0.8-0.6l-1.5-1.5l2.2-0.3 C129.5 58.6 129.5 58.4 129.5 58.2z M136 58.2c0-0.2-0.1-0.4-0.3-0.5l-1.9 0.9c0.1-0.4 0.1-0.7 0.2-1c0.1-0.3 0.1-0.7 0.2-1 c-0.1 0-0.2-0.1-0.3-0.1c-0.1 0-0.2 0-0.3 0c-0.1 0-0.2 0-0.3 0c-0.1 0-0.2 0-0.3 0.1c0.1 0.4 0.1 0.7 0.2 1 c0.1 0.3 0.1 0.7 0.2 1l-1.9-1c-0.2 0.3-0.3 0.6-0.3 1c0.4 0.1 0.7 0.1 1.1 0.2c0.3 0 0.7 0.1 1.1 0.2l-1.5 1.5 c0.1 0.2 0.3 0.3 0.4 0.4c0.1 0.1 0.3 0.2 0.5 0.2l0.9-1.9l1 1.9c0.4-0.1 0.6-0.3 0.8-0.6l-1.5-1.5l2.2-0.3 C136.1 58.6 136.1 58.4 136 58.2z M142.6 58.2c0-0.2-0.1-0.4-0.3-0.5l-1.9 0.9c0.1-0.4 0.1-0.7 0.2-1c0.1-0.3 0.1-0.7 0.2-1 c-0.1 0-0.2-0.1-0.3-0.1c-0.1 0-0.2 0-0.3 0c-0.1 0-0.2 0-0.3 0c-0.1 0-0.2 0-0.3 0.1c0.1 0.4 0.1 0.7 0.2 1 c0.1 0.3 0.1 0.7 0.2 1l-1.9-1c-0.2 0.3-0.3 0.6-0.3 1c0.4 0.1 0.7 0.1 1.1 0.2c0.3 0 0.7 0.1 1.1 0.2l-1.5 1.5 c0.1 0.2 0.3 0.3 0.4 0.4c0.1 0.1 0.3 0.2 0.5 0.2l0.9-1.9l1 1.9c0.4-0.1 0.6-0.3 0.8-0.6l-1.5-1.5l2.2-0.3 C142.7 58.6 142.6 58.4 142.6 58.2z M149.1 58.2c0-0.2-0.1-0.4-0.3-0.5l-1.9 0.9c0.1-0.4 0.1-0.7 0.2-1c0.1-0.3 0.1-0.7 0.2-1 c-0.1 0-0.2-0.1-0.3-0.1c-0.1 0-0.2 0-0.3 0c-0.1 0-0.2 0-0.3 0c-0.1 0-0.2 0-0.3 0.1c0.1 0.4 0.1 0.7 0.2 1 c0.1 0.3 0.1 0.7 0.2 1l-1.9-1c-0.2 0.3-0.3 0.6-0.3 1c0.4 0.1 0.7 0.1 1.1 0.2c0.3 0 0.7 0.1 1.1 0.2l-1.5 1.5 c0.1 0.2 0.3 0.3 0.4 0.4c0.1 0.1 0.3 0.2 0.5 0.2l0.9-1.9l1 1.9c0.4-0.1 0.6-0.3 0.8-0.6L147 59l2.2-0.3 C149.2 58.6 149.2 58.4 149.1 58.2z M155.7 58.2c0-0.2-0.1-0.4-0.3-0.5l-1.9 0.9c0.1-0.4 0.1-0.7 0.2-1c0.1-0.3 0.1-0.7 0.2-1 c-0.1 0-0.2-0.1-0.3-0.1c-0.1 0-0.2 0-0.3 0c-0.1 0-0.2 0-0.3 0c-0.1 0-0.2 0-0.3 0.1c0.1 0.4 0.1 0.7 0.2 1 c0.1 0.3 0.1 0.7 0.2 1l-1.9-1c-0.2 0.3-0.3 0.6-0.3 1c0.4 0.1 0.7 0.1 1.1 0.2c0.3 0 0.7 0.1 1.1 0.2l-1.5 1.5 c0.1 0.2 0.3 0.3 0.4 0.4c0.1 0.1 0.3 0.2 0.5 0.2l0.9-1.9l1 1.9c0.4-0.1 0.6-0.3 0.8-0.6l-1.5-1.5l2.2-0.3 C155.8 58.6 155.7 58.4 155.7 58.2z M162.3 58.2c0-0.2-0.1-0.4-0.3-0.5l-1.9 0.9c0.1-0.4 0.1-0.7 0.2-1c0.1-0.3 0.1-0.7 0.2-1 c-0.1 0-0.2-0.1-0.3-0.1c-0.1 0-0.2 0-0.3 0c-0.1 0-0.2 0-0.3 0c-0.1 0-0.2 0-0.3 0.1c0.1 0.4 0.1 0.7 0.2 1 c0.1 0.3 0.1 0.7 0.2 1l-1.9-1c-0.2 0.3-0.3 0.6-0.3 1c0.4 0.1 0.7 0.1 1.1 0.2c0.3 0 0.7 0.1 1.1 0.2l-1.5 1.5 c0.1 0.2 0.3 0.3 0.4 0.4c0.1 0.1 0.3 0.2 0.5 0.2l0.9-1.9l1 1.9c0.4-0.1 0.6-0.3 0.8-0.6l-1.5-1.5l2.2-0.3 C162.3 58.6 162.3 58.4 162.3 58.2z M168.8 58.2c0-0.2-0.1-0.4-0.3-0.5l-1.9 0.9c0.1-0.4 0.1-0.7 0.2-1c0.1-0.3 0.1-0.7 0.2-1 c-0.1 0-0.2-0.1-0.3-0.1c-0.1 0-0.2 0-0.3 0c-0.1 0-0.2 0-0.3 0c-0.1 0-0.2 0-0.3 0.1c0.1 0.4 0.1 0.7 0.2 1 c0.1 0.3 0.1 0.7 0.2 1l-1.9-1c-0.2 0.3-0.3 0.6-0.3 1c0.4 0.1 0.7 0.1 1.1 0.2c0.3 0 0.7 0.1 1.1 0.2l-1.5 1.5 c0.1 0.2 0.3 0.3 0.4 0.4c0.1 0.1 0.3 0.2 0.5 0.2l0.9-1.9l1 1.9c0.4-0.1 0.6-0.3 0.8-0.6l-1.5-1.5l2.2-0.3 C168.9 58.6 168.9 58.4 168.8 58.2z M175.4 58.2c0-0.2-0.1-0.4-0.3-0.5l-1.9 0.9c0.1-0.4 0.1-0.7 0.2-1c0.1-0.3 0.1-0.7 0.2-1 c-0.1 0-0.2-0.1-0.3-0.1c-0.1 0-0.2 0-0.3 0c-0.1 0-0.2 0-0.3 0c-0.1 0-0.2 0-0.3 0.1c0.1 0.4 0.1 0.7 0.2 1 c0.1 0.3 0.1 0.7 0.2 1l-1.9-1c-0.2 0.3-0.3 0.6-0.3 1c0.4 0.1 0.7 0.1 1.1 0.2c0.3 0 0.7 0.1 1.1 0.2l-1.5 1.5 c0.1 0.2 0.3 0.3 0.4 0.4c0.1 0.1 0.3 0.2 0.5 0.2l0.9-1.9l1 1.9c0.4-0.1 0.6-0.3 0.8-0.6l-1.5-1.5l2.2-0.3 C175.4 58.6 175.4 58.4 175.4 58.2z M182 58.7c0-0.2 0-0.3-0.1-0.5c0-0.2-0.1-0.4-0.3-0.5l-1.9 0.9c0.1-0.4 0.1-0.7 0.2-1 c0.1-0.3 0.1-0.7 0.2-1c-0.1 0-0.2-0.1-0.3-0.1c-0.1 0-0.2 0-0.3 0c-0.1 0-0.2 0-0.3 0c-0.1 0-0.2 0-0.3 0.1 c0.1 0.4 0.1 0.7 0.2 1c0.1 0.3 0.1 0.7 0.2 1l-1.9-1c-0.2 0.3-0.3 0.6-0.3 1c0.4 0.1 0.7 0.1 1.1 0.2c0.3 0 0.7 0.1 1.1 0.2 l-1.5 1.5c0.1 0.2 0.3 0.3 0.4 0.4c0.1 0.1 0.3 0.2 0.5 0.2l0.9-1.9l1 1.9c0.4-0.1 0.6-0.3 0.8-0.6l-1.5-1.5L182 58.7z"/></g></g></svg>