<svg xmlns="http://www.w3.org/2000/svg" version="1.1" x="0" y="0" width="2000" height="24" viewBox="-500 0 2000 24" enable-background="new -500 0 2000 24" xml:space="preserve"><rect x="-350.3" y="3.5" fill="#FFFFFF" width="21.5" height="15.8"/><circle fill="#FFFFFF" cx="496.4" cy="10.2" r="7.1"/><circle fill="#FFFFFF" cx="-385.2" cy="18" r="1.9"/><circle fill="#FFFFFF" cx="-396.3" cy="18" r="1.9"/><circle fill="#FFFFFF" cx="-389.7" cy="10.3" r="6.6"/><circle fill="#FFFFFF" cx="-439.1" cy="7.8" r="6.2"/><circle fill="#D10810" cx="-192.7" cy="12" r="11"/><circle fill="#D10810" cx="597.8" cy="12" r="11"/><circle fill="#88D120" cx="253.6" cy="12" r="11"/><path fill="#FFFFFF" d="M-478.3 5.1l2.3-2.2h-3.1c0 0-0.4-2.9-5.4-2.9 -8.1 0-4.8 8.7-9.3 8.7 -1.7 0-6.2 0-6.2 0s0.4 8.1 9.3 9.3v6h1.5v-5.8c0.3 0 0.5 0 0.8 0 0.3 0 0.5 0 0.8 0V24h1.5v-6c9.1-1.4 7.7-10.7 7.7-10.7h2.4L-478.3 5.1zM-488.4 14.5c-2 1.7-6.2 0-6.2 0l6.2-5.8C-488.4 8.7-486.4 12.8-488.4 14.5zM-483 5.1c-0.9 0-1.5-0.7-1.5-1.5s0.7-1.5 1.5-1.5c0.9 0 1.5 0.7 1.5 1.5C-481.4 4.4-482.1 5.1-483 5.1z"/><path fill="#D10810" d="M-447 7.6c0 3.5 3.7 9.8 6 13.6 1 1.8 1.4 2.8 2.1 2.8 0.7 0 1-1.2 2-2.8 2.3-3.9 6-10.1 6-13.6 0-4.2-3.6-7.6-8-7.6S-447 3.4-447 7.6zM-439 2.8c2.7 0 4.9 2.2 4.9 4.9s-2.2 4.9-4.9 4.9 -4.9-2.2-4.9-4.9S-441.7 2.8-439 2.8z"/><path fill="#D10810" d="M-389 2.5h-1.5c-3.9 0-7.1 2.9-7.5 6.8 -2.4 1.3-4 3.7-4 6.5l0 0c-0.6 0.1-1 0.6-1 1.2 0 0.7 0.6 1.2 1.2 1.2h1.8c0.1 2 1.8 3.4 3.7 3.4 2 0 3.6-1.5 3.7-3.4h3.6c0.1 2 1.8 3.4 3.7 3.4 2.1 0 3.8-1.7 3.8-3.7 0-0.1 0-0.3 0-0.4 1.5-0.9 2.5-2.4 2.5-4.2V10c0-0.6-0.5-1.1-1.1-1.1h-1.5C-382.1 5.3-385.2 2.5-389 2.5zM-391 5v4.9h-4.5C-395.5 7.4-393.5 5.2-391 5zM-388.5 9.9V5c2.5 0.2 4.5 2.4 4.5 4.9H-388.5zM-395 18c0 0.7-0.6 1.3-1.2 1.3 -0.7 0-1.3-0.6-1.3-1.3s0.6-1.2 1.3-1.2C-395.6 16.8-395 17.3-395 18zM-384 18c0 0.7-0.6 1.3-1.2 1.3 -0.6 0-1.3-0.6-1.3-1.3s0.6-1.2 1.3-1.2C-384.5 16.8-384 17.3-384 18z"/><path fill="#D10810" d="M-351.4 18.4c0 1.1 0.9 2 2 2h20c1.1 0 2-0.9 2-2v-14c0-1.1-0.9-2-2-2h-20c-1.1 0-2 0.9-2 2V18.4zM-344 11.4l-4.6-4.7c-0.4-0.4-0.4-1 0-1.4s1-0.4 1.4 0l7.3 7.5c0.3 0.3 0.8 0.3 1.1 0l7.3-7.5c0.4-0.4 1-0.4 1.4 0s0.4 1 0 1.4l-4.6 4.7 4.6 4.7c0.4 0.4 0.4 1 0 1.4s-1 0.4-1.4 0l-4.6-4.7c0 0-1.4 1.5-1.7 1.7 -0.4 0.4-1 0.6-1.6 0.6s-1.2-0.2-1.6-0.7c-0.3-0.3-1.7-1.7-1.7-1.7l-4.6 4.7c-0.4 0.4-1 0.4-1.4 0s-0.4-1 0-1.4L-344 11.4z"/><path fill="#D10810" d="M-285.9 22.8L-285.9 22.8 -285.9 22.8C-285.8 22.8-285.8 22.8-285.9 22.8c0.2 0 0.4 0 0.4 0 0.4 0.1 1.3-0.1 1.9-0.3 0.5-0.2 2.1-1.3 2.6-1.6 0.1 0 0.3-0.2 0.4-0.3 0.3-0.2 0.4-0.5 0.4-0.9 0-0.4-0.2-0.6-0.4-0.9l-4.7-3.9c-0.2-0.2-0.4-0.3-0.7-0.3 -0.3 0-0.6 0.1-0.8 0.4 -0.1 0.1-0.8 0.8-0.8 0.8 -0.5 0.5-1.3 0.5-1.8 0l-4.8-4.9c-0.5-0.5-0.5-1.3 0-1.8l0.8-0.8c0.2-0.2 0.4-0.5 0.4-0.8s-0.4-0.5-0.5-0.7l-4.1-4.9c-0.2-0.3-0.5-0.4-0.9-0.4 -0.4 0-0.7 0.2-0.9 0.4l-0.1 0.1c-0.9 1.2-2.1 3.1-2.1 4.9C-301.8 11.6-290.9 22.6-285.9 22.8z"/><path fill="#D10810" d="M496.8 6.3c0-0.5-0.3-0.9-0.9-0.9 -0.8 0-1.7 0.6-2.5 1.4 -0.8 0.8-1.4 1.7-1.4 2.5 0 0.5 0.5 0.9 0.9 0.9s0.8-0.3 0.9-0.8c0.2-0.9 0.9-1.7 2-2C496.3 7.2 496.8 6.9 496.8 6.3zM503.5 14.8c0.8-1.3 1.2-2.8 1.2-4.6 0-4.6-3.8-8.5-8.4-8.5 -4.5 0-8.4 3.8-8.4 8.5 0 4.6 3.8 8.5 8.4 8.5 1.7 0 3.3-0.5 4.5-1.3l5.6 5.7c0.8 0.8 2 0.8 2.8 0 0.8-0.8 0.8-2 0-2.8L503.5 14.8zM496.5 16.2c-3.3 0-6.1-2.8-6.1-6.1s2.8-6.1 6.1-6.1 6.1 2.7 6.1 6.1C502.6 13.5 499.8 16.2 496.5 16.2z"/><path fill="#FFFFFF" d="M-244.1 5.6c0-0.5-0.3-0.9-0.9-0.9 -0.8 0-1.7 0.6-2.5 1.4 -0.8 0.8-1.4 1.7-1.4 2.5 0 0.5 0.5 0.9 0.9 0.9s0.8-0.3 0.9-0.8c0.2-0.9 0.9-1.7 2-2C-244.5 6.5-244.1 6.2-244.1 5.6zM-237.4 14.1c0.8-1.3 1.2-2.8 1.2-4.6 0-4.6-3.8-8.5-8.4-8.5 -4.5 0-8.4 3.8-8.4 8.5 0 4.6 3.8 8.5 8.4 8.5 1.7 0 3.3-0.5 4.5-1.3l5.6 5.7c0.8 0.8 2 0.8 2.8 0 0.8-0.8 0.8-2 0-2.8L-237.4 14.1zM-244.4 15.5c-3.3 0-6.1-2.8-6.1-6.1s2.8-6.1 6.1-6.1 6.1 2.7 6.1 6.1C-238.3 12.8-241.1 15.5-244.4 15.5z"/><path fill="#FFFFFF" d="M-193.8 9.4c-0.1-0.3-0.2-0.6-0.4-0.8 -0.2-0.2-0.5-0.4-0.8-0.6 -0.3-0.1-0.7-0.2-1.2-0.2s-0.9 0-1.2 0.2c-0.3 0.1-0.6 0.3-0.8 0.6 -0.2 0.2-0.4 0.5-0.4 0.8 -0.1 0.3-0.1 0.6-0.1 1 0 0.3 0.1 0.7 0.2 1s0.3 0.6 0.4 0.8c0.2 0.2 0.5 0.4 0.8 0.5s0.7 0.2 1.2 0.2 0.9 0 1.2-0.2 0.6-0.3 0.8-0.6c0.2-0.2 0.4-0.5 0.4-0.8 0.1-0.3 0.2-0.6 0.2-1C-193.7 10.1-193.7 9.8-193.8 9.4zM-195.6 11.5c-0.1 0.3-0.3 0.4-0.6 0.4 -0.4 0-0.6-0.1-0.7-0.4 -0.1-0.2-0.2-0.6-0.2-1 0-0.2 0-0.3 0.1-0.5s0.1-0.3 0.1-0.5 0.2-0.2 0.3-0.3c0.1-0.1 0.3-0.1 0.4-0.1 0.2 0 0.3 0 0.4 0.1s0.2 0.2 0.3 0.3c0.1 0.1 0.1 0.3 0.1 0.5s0.1 0.3 0.1 0.5C-195.4 10.9-195.5 11.2-195.6 11.5zM-189.7 7.2h-1.4l-4.4 9.5h1.4L-189.7 7.2zM-186.8 12.9c-0.1-0.3-0.2-0.6-0.4-0.8 -0.2-0.2-0.5-0.4-0.8-0.6 -0.3-0.1-0.7-0.2-1.2-0.2s-0.9 0-1.2 0.2c-0.3 0.1-0.6 0.3-0.8 0.6 -0.2 0.2-0.4 0.5-0.4 0.8 -0.1 0.3-0.2 0.6-0.2 1 0 0.3 0.1 0.7 0.2 1s0.3 0.6 0.4 0.8c0.2 0.2 0.5 0.4 0.8 0.6 0.3 0.1 0.7 0.2 1.2 0.2s0.9 0 1.2-0.2c0.3-0.1 0.6-0.3 0.8-0.6 0.2-0.2 0.4-0.5 0.4-0.8 0.1-0.3 0.2-0.7 0.2-1C-186.7 13.6-186.7 13.2-186.8 12.9zM-188.4 14.5c0 0.2-0.1 0.3-0.1 0.4 -0.1 0.1-0.2 0.2-0.3 0.3 -0.1 0.1-0.2 0.1-0.4 0.1 -0.4 0-0.6-0.1-0.7-0.4 -0.1-0.2-0.2-0.6-0.2-1 0-0.2 0-0.3 0.1-0.5 0-0.2 0.1-0.3 0.1-0.5 0.1-0.1 0.2-0.2 0.3-0.3 0.1-0.1 0.3-0.1 0.4-0.1s0.3 0 0.4 0.1 0.2 0.2 0.3 0.3c0.1 0.1 0.1 0.3 0.1 0.5s0.1 0.3 0.1 0.5C-188.4 14.2-188.4 14.4-188.4 14.5z"/><path fill="#D10810" d="M-151.8 24l6.9-11.7L-151.8 0h13.3l5.7 12.3 -5.7 11.7H-151.8z"/><path fill="#D10810" d="M-97 24l-5.7-11.7L-97 0h13.3l-6.9 12.3 6.9 11.7H-97z"/><path fill="#FFFFFF" d="M293.6 24l6.9-11.7L293.6 0h13.3l5.7 12.3L306.9 24H293.6z"/><path fill="#FFFFFF" d="M348.1 24l-5.7-11.7L348.1 0h13.3l-6.9 12.3 6.9 11.7H348.1z"/><path fill="#FFFFFF" d="M-53.3 8l10 8 10-8H-53.3z"/><path fill="#FFFFFF" d="M65.2 12l-10-8 -10 8H65.2z"/><path fill="#FFFFFF" d="M6.2 20.3c0-0.4-0.1-0.9-0.2-1.2h2.9c-0.1 0.4-0.2 0.8-0.2 1.2 0 2.1 1.7 3.8 3.8 3.8 2.1 0 3.8-1.7 3.8-3.8s-1.7-3.7-3.8-3.7H4.3c-0.5 0-1-0.5-1-1s0.5-1 1-1h8.6c0.9 0 1.7-0.5 2-1.3 0.1-0.3 2.7-6.2 2.7-6.2 0.1-0.1 0.1-0.2 0.1-0.4 0-0.6-0.4-1-1-1H1L0.6 4.3C0.4 3.6-0.1 3.1-0.9 3.1h-4.2c-0.7 0-1.2 0.6-1.2 1.2 0 0.7 0.6 1.2 1.2 1.2h2.6c0.4 0 0.8 0.3 1 0.7l2.1 10.7c-1.2 0.6-1.9 1.9-1.9 3.3 0 2.1 1.7 3.8 3.8 3.8C4.4 24 6.2 22.3 6.2 20.3zM3.6 20.3c0 0.7-0.6 1.2-1.3 1.2 -0.7 0-1.2-0.6-1.2-1.2 0-0.7 0.6-1.2 1.2-1.2C3 19 3.6 19.6 3.6 20.3zM13.7 20.3c0 0.7-0.6 1.3-1.2 1.3s-1.2-0.6-1.2-1.3c0-0.7 0.6-1.2 1.2-1.2C13.1 19 13.7 19.6 13.7 20.3z"/><path fill="#D10810" d="M204.3 20.3c0-0.4-0.1-0.9-0.2-1.2h2.9c-0.1 0.4-0.2 0.8-0.2 1.2 0 2.1 1.7 3.8 3.8 3.8s3.8-1.7 3.8-3.8 -1.7-3.7-3.8-3.7h-8.2c-0.5 0-1-0.5-1-1s0.5-1 1-1h8.6c0.9 0 1.7-0.5 2-1.3 0.1-0.3 2.7-6.2 2.7-6.2 0.1-0.1 0.1-0.2 0.1-0.4 0-0.6-0.4-1-1-1h-15.7l-0.4-1.4c-0.2-0.7-0.7-1.2-1.5-1.2H193c-0.7 0-1.2 0.6-1.2 1.2 0 0.7 0.6 1.2 1.2 1.2h2.6c0.4 0 0.8 0.3 1 0.7l2.1 10.7c-1.2 0.6-1.9 1.9-1.9 3.3 0 2.1 1.7 3.8 3.8 3.8C202.5 24 204.3 22.3 204.3 20.3zM201.7 20.3c0 0.7-0.6 1.2-1.3 1.2s-1.2-0.6-1.2-1.2c0-0.7 0.6-1.2 1.2-1.2C201.1 19 201.7 19.6 201.7 20.3zM211.8 20.3c0 0.7-0.6 1.3-1.2 1.3 -0.6 0-1.2-0.6-1.2-1.3 0-0.7 0.6-1.2 1.2-1.2C211.2 19 211.8 19.6 211.8 20.3z"/><path fill="#FFFFFF" d="M260.9 8.7l-8.7 8.7 -5.3-5.3 1.6-1.6 3.7 3.7 7.2-7.1L260.9 8.7z"/><path fill="#FFFFFF" d="M408.4 10.8l-9.1 9.1 -5.6-5.6 1.6-1.6 3.9 3.9 7.5-7.4L408.4 10.8z"/><path fill="#FFFFFF" d="M455.9 18.2l-1.4 1.4 -4.2-4.2 -4.2 4.2 -1.4-1.4 4.2-4.2 -4.2-4.2 1.4-1.4 4.2 4.2 4.2-4.2 1.4 1.4 -4.2 4.2L455.9 18.2z"/><path fill="#FFFFFF" d="M157.7 12.2H155v9.8h-3.7v-9.8h-2.4V8.8l2.4 0 0-2c0-2.7 0.7-4.4 4-4.4h2.7v3.4h-1.7c-1.2 0-1.3 0.5-1.3 1.3v1.7h3L157.7 12.2z"/><path fill="#FFFFFF" d="M107.5 13.8l-0.9-0.6c-0.3-0.2-0.6-0.6-0.6-1.1 0-0.6 0.4-1 0.8-1.3 1-0.8 2.1-1.7 2.1-3.4 0-1.7-1-2.6-1.6-3.1h1.4l1-1.1h-5c-3.5 0-5.3 2.2-5.3 4.6 0 1.8 1.4 3.8 4 3.8h0.6c-0.1 0.2-0.3 0.6-0.3 1 0 0.8 0.3 1.1 0.7 1.6 -1.1 0.1-3.2 0.3-4.7 1.3 -1.4 0.9-1.8 2.1-1.8 3 0 1.8 1.7 3.6 5.3 3.6 4.3 0 6.4-2.4 6.4-4.7C109.5 15.6 108.6 14.8 107.5 13.8L107.5 13.8zM101.4 6.5c0-1.8 1-2.6 2.2-2.6 2.1 0 3.2 2.8 3.2 4.4 0 2.1-1.7 2.5-2.3 2.5C102.5 10.8 101.4 8.4 101.4 6.5L101.4 6.5zM104.3 20.9c-2.6 0-4.3-1.2-4.3-3 0-1.8 1.6-2.3 2.1-2.6 1-0.3 2.4-0.4 2.6-0.4h0.6c1.9 1.4 2.7 1.9 2.7 3.2C108 19.7 106.5 20.9 104.3 20.9L104.3 20.9z"/><circle fill="#D11010" stroke="#D10910" stroke-miterlimit="10" cx="549.2" cy="12.1" r="11"/><polygon fill="#D11010" stroke="#FFFFFF" stroke-width="0.5" stroke-linejoin="bevel" stroke-miterlimit="10" points="541.8 4.8 541.8 4.8 547.8 13.2 550.2 10.8 "/><polygon fill="#FFFFFF" stroke="#FFFFFF" stroke-linejoin="bevel" stroke-miterlimit="10" points="550.2 10.8 547.8 13.2 556.6 19.6 556.6 19.5 "/><line fill="none" stroke="#FFFFFF" stroke-width="0.5" stroke-miterlimit="10" x1="549.2" y1="2.7" x2="549.2" y2="4.4"/><line fill="none" stroke="#FFFFFF" stroke-width="0.5" stroke-miterlimit="10" x1="549.2" y1="19.8" x2="549.2" y2="21.5"/><line fill="none" stroke="#FFFFFF" stroke-width="0.5" stroke-miterlimit="10" x1="547.6" y1="2.8" x2="547.9" y2="4.5"/><line fill="none" stroke="#FFFFFF" stroke-width="0.5" stroke-miterlimit="10" x1="550.6" y1="19.7" x2="550.9" y2="21.4"/><line fill="none" stroke="#FFFFFF" stroke-width="0.5" stroke-miterlimit="10" x1="546" y1="3.2" x2="546.6" y2="4.9"/><line fill="none" stroke="#FFFFFF" stroke-width="0.5" stroke-miterlimit="10" x1="551.9" y1="19.4" x2="552.5" y2="21"/><line fill="none" stroke="#FFFFFF" stroke-width="0.5" stroke-miterlimit="10" x1="544.5" y1="3.9" x2="545.4" y2="5.4"/><line fill="none" stroke="#FFFFFF" stroke-width="0.5" stroke-miterlimit="10" x1="553.1" y1="18.8" x2="554" y2="20.3"/><line fill="none" stroke="#FFFFFF" stroke-width="0.5" stroke-miterlimit="10" x1="541.1" y1="7.4" x2="542.6" y2="8.3"/><line fill="none" stroke="#FFFFFF" stroke-width="0.5" stroke-miterlimit="10" x1="555.9" y1="16" x2="557.4" y2="16.8"/><line fill="none" stroke="#FFFFFF" stroke-width="0.5" stroke-miterlimit="10" x1="540.4" y1="8.9" x2="542" y2="9.5"/><line fill="none" stroke="#FFFFFF" stroke-width="0.5" stroke-miterlimit="10" x1="556.5" y1="14.7" x2="558.1" y2="15.3"/><line fill="none" stroke="#FFFFFF" stroke-width="0.5" stroke-miterlimit="10" x1="539.9" y1="10.5" x2="541.6" y2="10.8"/><line fill="none" stroke="#FFFFFF" stroke-width="0.5" stroke-miterlimit="10" x1="556.8" y1="13.4" x2="558.5" y2="13.7"/><line fill="none" stroke="#FFFFFF" stroke-width="0.5" stroke-miterlimit="10" x1="539.8" y1="12.1" x2="541.5" y2="12.1"/><line fill="none" stroke="#FFFFFF" stroke-width="0.5" stroke-miterlimit="10" x1="556.9" y1="12.1" x2="558.7" y2="12.1"/><line fill="none" stroke="#FFFFFF" stroke-width="0.5" stroke-miterlimit="10" x1="539.9" y1="13.8" x2="541.6" y2="13.5"/><line fill="none" stroke="#FFFFFF" stroke-width="0.5" stroke-miterlimit="10" x1="556.8" y1="10.8" x2="558.5" y2="10.5"/><line fill="none" stroke="#FFFFFF" stroke-width="0.5" stroke-miterlimit="10" x1="540.4" y1="15.3" x2="542" y2="14.8"/><line fill="none" stroke="#FFFFFF" stroke-width="0.5" stroke-miterlimit="10" x1="556.5" y1="9.5" x2="558.1" y2="8.9"/><line fill="none" stroke="#FFFFFF" stroke-width="0.5" stroke-miterlimit="10" x1="541.1" y1="16.8" x2="542.6" y2="16"/><line fill="none" stroke="#FFFFFF" stroke-width="0.5" stroke-miterlimit="10" x1="555.9" y1="8.3" x2="557.4" y2="7.4"/><line fill="none" stroke="#FFFFFF" stroke-width="0.5" stroke-miterlimit="10" x1="542" y1="18.2" x2="543.3" y2="17.1"/><line fill="none" stroke="#FFFFFF" stroke-width="0.5" stroke-miterlimit="10" x1="555.1" y1="7.2" x2="556.5" y2="6.1"/><line fill="none" stroke="#FFFFFF" stroke-width="0.5" stroke-miterlimit="10" x1="543.2" y1="19.3" x2="544.3" y2="18"/><line fill="none" stroke="#FFFFFF" stroke-width="0.5" stroke-miterlimit="10" x1="554.2" y1="6.2" x2="555.3" y2="4.9"/><line fill="none" stroke="#FFFFFF" stroke-width="0.5" stroke-miterlimit="10" x1="544.5" y1="20.3" x2="545.4" y2="18.8"/><line fill="none" stroke="#FFFFFF" stroke-width="0.5" stroke-miterlimit="10" x1="553.1" y1="5.4" x2="553.9" y2="3.9"/><line fill="none" stroke="#FFFFFF" stroke-width="0.5" stroke-miterlimit="10" x1="546" y1="21" x2="546.6" y2="19.4"/><line fill="none" stroke="#FFFFFF" stroke-width="0.5" stroke-miterlimit="10" x1="551.9" y1="4.9" x2="552.5" y2="3.3"/><line fill="none" stroke="#FFFFFF" stroke-width="0.5" stroke-miterlimit="10" x1="547.6" y1="21.4" x2="547.9" y2="19.7"/><line fill="none" stroke="#FFFFFF" stroke-width="0.5" stroke-miterlimit="10" x1="550.6" y1="4.5" x2="550.9" y2="2.8"/><path fill="#FFFFFF" d="M596.8 9.8c-0.5 0.1-1 0.2-1.7 0.4l-0.1 1.4 1.3 0.2 -0.6 4.5c0 0.1 0 0.2 0 0.2 0 0.1 0 0.1 0 0.2 0 0.5 0.1 0.8 0.4 1.1 0.2 0.3 0.7 0.4 1.4 0.4 0.2 0 0.4 0 0.7-0.1 0.3 0 0.5-0.1 0.8-0.2 0.3-0.1 0.6-0.2 0.8-0.4 0.3-0.1 0.5-0.3 0.7-0.5l-0.6-1.4c-0.2 0.1-0.4 0.1-0.6 0.2 -0.2 0-0.4 0.1-0.6 0.1 0-0.2 0.1-0.5 0.1-0.8 0-0.3 0.1-0.7 0.1-1 0-0.4 0.1-0.7 0.1-1.1 0-0.4 0.1-0.7 0.1-1 0-0.3 0.1-0.6 0.1-0.8 0-0.2 0-0.4 0-0.5 0-0.4-0.1-0.6-0.3-0.8 -0.2-0.2-0.6-0.3-1.1-0.3C597.7 9.7 597.3 9.7 596.8 9.8zM596.9 6c-0.3 0.4-0.5 0.8-0.5 1.4 0 0.4 0.2 0.8 0.5 1.1 0.3 0.3 0.7 0.4 1.1 0.4 0.6 0 1-0.2 1.3-0.5 0.3-0.4 0.5-0.8 0.5-1.3 0-0.2 0-0.4-0.1-0.6 -0.1-0.2-0.2-0.4-0.3-0.5 -0.1-0.1-0.3-0.3-0.5-0.3 -0.2-0.1-0.4-0.1-0.6-0.1C597.7 5.5 597.2 5.7 596.9 6z"/><path fill="#868686" d="M655.6 3.3H639c-1.1 0-2.1 0.9-2.1 2.1v9.6 0.5c0 1.1 0.9 2.1 2.1 2.1h0.7 0.6l2.6 4.2 2.6-4.2h10.2c1.1 0 2.1-0.9 2.1-2.1v-10C657.7 4.2 656.8 3.3 655.6 3.3z"/><path fill="#868686" d="M708.1 9.9l-0.5-0.5c0 0 0 0 0 0l-5.8-5.8 -1.2-1.2v1.7 1V7h-2.5c-5.3 0-8.6 1.5-9.8 4.5 -0.4 1-0.6 2.3-0.6 3.7 0 1.2 0.5 2.9 1.4 5.1 0 0.1 0.1 0.1 0.1 0.3 0.1 0.1 0.1 0.2 0.2 0.3 0 0.1 0.1 0.2 0.1 0.2 0.1 0.1 0.2 0.2 0.3 0.2 0.1 0 0.2 0 0.3-0.1 0.1-0.1 0.1-0.2 0.1-0.3 0-0.1 0-0.2 0-0.3 0-0.1 0-0.2 0-0.3 0-0.5-0.1-1-0.1-1.4 0-0.8 0.1-1.4 0.2-2 0.1-0.6 0.3-1.1 0.5-1.6 0.2-0.4 0.5-0.8 0.9-1.1 0.4-0.3 0.8-0.6 1.2-0.8 0.4-0.2 0.9-0.4 1.5-0.5 0.6-0.1 1.1-0.2 1.7-0.2 0.6 0 1.2-0.1 2-0.1h2.5v1.9 1 1.7l1.2-1.2c0 0 0 0 0 0l5.2-5.2v0L708.1 9.9z"/><path fill="#FFFFFF" d="M755.7 1.3h-19c-0.7 0-1.2 0.5-1.2 1.2v19c0 0.7 0.5 1.2 1.2 1.2H747v-8.3h-2.8v-3.2h2.8V8.8c0-2.8 1.7-4.3 4.2-4.3 1.2 0 2.2 0.1 2.5 0.1v2.9l-1.7 0c-1.3 0-1.6 0.6-1.6 1.6v2.1h3.2l-0.4 3.2h-2.8v8.3h5.5c0.7 0 1.2-0.5 1.2-1.2v-19C756.9 1.9 756.4 1.3 755.7 1.3z"/><path fill="#FFFFFF" d="M803.2 1.3h-13c-2.3 0-4.2 1.9-4.2 4.2v13c0 2.3 1.9 4.2 4.2 4.2h13c2.3 0 4.2-1.9 4.2-4.2v-13C807.4 3.2 805.5 1.3 803.2 1.3L803.2 1.3zM802.4 13.7c1.2 1.1 1.4 1.6 1.5 1.7 0.5 0.8-0.5 0.9-0.5 0.9l-2 0c0 0-0.4 0.1-1-0.3 -0.7-0.5-1.4-1.8-2-1.6 -0.5 0.2-0.5 1.3-0.5 1.3s0 0.2-0.1 0.3c-0.1 0.1-0.4 0.1-0.4 0.1h-0.9c0 0-1.9 0.2-3.6-1.6 -1.9-1.9-3.5-5.7-3.5-5.7s-0.1-0.2 0-0.4c0.1-0.1 0.4-0.1 0.4-0.1l2.1 0c0 0 0.2 0 0.3 0.1 0.1 0.1 0.2 0.2 0.2 0.2s0.3 0.9 0.8 1.6c0.9 1.5 1.3 1.8 1.6 1.7 0.4-0.2 0.3-2.1 0.3-2.1s0-0.7-0.2-1c-0.2-0.2-0.5-0.3-0.6-0.3 -0.1 0 0.1-0.3 0.3-0.4 0.4-0.2 1-0.2 1.8-0.2 0.6 0 0.8 0 1 0.1 0.7 0.2 0.5 0.8 0.5 2.5 0 0.5-0.1 1.2 0.3 1.5 0.2 0.1 0.6 0 1.5-1.7 0.5-0.8 0.8-1.7 0.8-1.7s0.1-0.2 0.2-0.2c0.1-0.1 0.3 0 0.3 0l2.2 0c0 0 0.7-0.1 0.8 0.2 0.1 0.3-0.3 1-1.2 2.2C801.3 12.8 801.2 12.6 802.4 13.7L802.4 13.7zM802.4 13.7"/></svg>