<?xml version="1.0" encoding="utf-8"?>
<!-- Generator: Adobe Illustrator 22.0.1, SVG Export Plug-In . SVG Version: 6.00 Build 0)  -->
<svg version="1.1" xmlns="http://www.w3.org/2000/svg" xmlns:xlink="http://www.w3.org/1999/xlink" x="0px" y="0px" width="37px"
	 height="22px" viewBox="0 0 37 22" style="enable-background:new 0 0 37 22;" xml:space="preserve">
<style type="text/css">
	.st0{display:none;}
	.st1{display:inline;fill:#7C7C7C;}
	.st2{fill:#FFFFFF;}
	.st3{fill:#919191;}
	.st4{fill-rule:evenodd;clip-rule:evenodd;fill:#FFFFFF;}
	.st5{fill:#BBBBBB;}
	.st6{fill-rule:evenodd;clip-rule:evenodd;}
	.st7{fill:#515151;}
	.st8{fill:#1E1E1E;}
	.st9{fill:#B1B1B1;}
	.st10{fill:#353535;}
	.st11{fill:#CDCDCD;}
	.st12{fill:#C9C9C9;}
	.st13{fill:#ADADAD;}
	.st14{fill:#525252;}
</style>
<g id="Слой_2" class="st0">
</g>
<g id="Слой_1">
	<path d="M25.63106,18.3289l-0.59402-2.90999c5.3048-1.09814,9.01019-3.52507,9.01019-5.90268
		c0-3.09568-6.38518-6.54531-15.54723-6.54531S2.95277,6.42056,2.95277,9.51623c0,1.78961,2.16364,3.68996,5.64506,4.96024
		l-1.0054,2.79297C2.76726,15.50981,0,12.68396,0,9.51623C0,4.17979,8.12589,0,18.5,0S37,4.17979,37,9.51623
		C37,13.50067,32.64389,16.87777,25.63106,18.3289z"/>
	<polygon points="30.1919,22 21.59503,17.39855 26.52593,10.27975 28.94812,11.97894 25.92038,16.34925 31.57793,19.37723 	"/>
</g>
</svg>
