<?xml version="1.0" standalone="no"?>
<!DOCTYPE svg PUBLIC "-//W3C//DTD SVG 1.1//EN" "http://www.w3.org/Graphics/SVG/1.1/DTD/svg11.dtd" >
<svg xmlns="http://www.w3.org/2000/svg" xmlns:xlink="http://www.w3.org/1999/xlink" version="1.1">
<metadata>
Created by FontForge 20161116 at Tue Dec 16 15:57:47 2008
 By Jimmy Wärting
Copyright (c) 2008 by G-Type Designed and digitized by Nick Cooke. All rights reserved.
</metadata>
<defs>
<font id="HouschkaPro-Bold" horiz-adv-x="600" >
  <font-face 
    font-family="Houschka Pro Bold"
    font-weight="700"
    font-stretch="normal"
    units-per-em="1000"
    panose-1="2 0 5 3 0 0 0 2 0 3"
    ascent="760"
    descent="-240"
    x-height="458"
    cap-height="681"
    bbox="-160 -346.35 1277 988"
    underline-thickness="50"
    underline-position="-100"
    stemh="128"
    stemv="132"
    unicode-range="U+0020-FB06"
  />
<missing-glyph horiz-adv-x="500" 
d="M0 690h500v-690h-500v690zM250 301l-181 -249h361zM69 638l181 -249l180 249h-361zM218 345l-166 229v-458zM282 345l166 -229v458z" />
    <glyph glyph-name="ff" unicode="ff" horiz-adv-x="668" 
d="M384 354h-165v-339c0 -8 -7 -15 -15 -15h-102c-8 0 -15 7 -15 15v339h-51c-8 0 -15 7 -15 16v73c0 9 7 15 15 15h51v43c0 51 11 102 43 137c24 25 59 41 106 41c58 0 104 -16 139 -42c7 -5 9 -13 6 -19l-30 -65c-5 -9 -14 -9 -23 -5c-19 13 -36 20 -58 20
c-19 0 -31 -7 -39 -19c-9 -14 -12 -34 -12 -58v-33h165v53c0 51 13 103 47 137c24 25 61 41 112 41c60 0 118 -18 154 -44c6 -5 9 -13 6 -20l-34 -70c-4 -7 -14 -9 -22 -4c-27 17 -49 27 -75 27c-20 0 -33 -7 -41 -18c-10 -13 -14 -33 -14 -59v-43h100c8 0 15 -6 15 -15v-73
c0 -9 -7 -16 -15 -16h-100v-339c0 -8 -7 -15 -15 -15h-102c-9 0 -16 7 -16 15v339z" />
    <glyph glyph-name="ffi" unicode="ffi" horiz-adv-x="854" 
d="M384 354h-165v-339c0 -8 -7 -15 -15 -15h-102c-8 0 -15 7 -15 15v339h-51c-8 0 -15 7 -15 16v73c0 9 7 15 15 15h51v43c0 51 11 102 43 137c24 25 59 41 106 41c58 0 104 -16 139 -42c7 -5 9 -13 6 -19l-30 -65c-5 -9 -14 -9 -23 -5c-19 13 -36 20 -58 20
c-19 0 -31 -7 -39 -19c-9 -14 -12 -34 -12 -58v-33h165v52c0 43 10 87 36 120c27 35 71 59 138 59c61 0 119 -18 154 -44c7 -5 9 -13 6 -20l-34 -70c-4 -7 -13 -9 -22 -4c-27 17 -49 27 -74 27c-24 -1 -41 -8 -53 -21c-13 -14 -18 -35 -18 -62v-37h257c8 0 15 -6 15 -15
v-428c0 -8 -7 -15 -15 -15h-102c-9 0 -16 7 -16 15v339h-139v-339c0 -8 -7 -15 -15 -15h-102c-9 0 -16 7 -16 15v339z" />
    <glyph glyph-name="ffj" unicode="ffj" horiz-adv-x="854" 
d="M656 354h-139v-339c0 -8 -7 -15 -15 -15h-102c-9 0 -16 7 -16 15v339h-165v-339c0 -8 -7 -15 -15 -15h-102c-8 0 -15 7 -15 15v339h-51c-8 0 -15 7 -15 16v73c0 9 7 15 15 15h51v43c0 51 11 102 43 137c24 25 59 41 106 41c59 0 104 -16 139 -42c7 -5 9 -13 6 -19
l-30 -65c-5 -9 -14 -9 -23 -5c-19 13 -36 20 -58 20c-19 0 -31 -7 -39 -19c-10 -14 -12 -34 -12 -58v-33h165v52c0 43 10 87 36 120c27 35 71 59 138 59c61 0 118 -18 154 -44c7 -5 9 -13 6 -20l-34 -70c-4 -8 -13 -9 -22 -4c-27 17 -49 27 -74 27c-24 0 -42 -8 -53 -21
c-13 -14 -18 -35 -18 -62v-37h257c8 0 15 -6 15 -15v-426c0 -136 -45 -215 -111 -253c-11 -6 -20 -5 -30 6l-62 62c-8 7 -9 17 -1 23c48 34 71 74 71 182v317z" />
    <glyph glyph-name="ffl" unicode="ffl" horiz-adv-x="854" 
d="M270 568c-19 0 -31 -7 -39 -19c-9 -14 -12 -34 -12 -58v-33h165v53c0 99 46 178 206 178c74 0 151 -21 184 -36c10 -4 15 -10 15 -21v-617c0 -8 -7 -15 -15 -15h-102c-8 0 -15 7 -15 15v531c0 9 -3 14 -9 18c-16 10 -40 15 -59 15c-52 0 -72 -32 -72 -88v-33h84
c8 0 15 -6 15 -15v-73c0 -9 -7 -16 -15 -16h-84v-339c0 -8 -7 -15 -15 -15h-102c-9 0 -16 7 -16 15v339h-165v-339c0 -8 -7 -15 -15 -15h-102c-8 0 -15 7 -15 15v339h-51c-8 0 -15 7 -15 16v73c0 9 7 15 15 15h51v43c0 51 11 102 43 137c24 25 59 41 106 41
c58 0 104 -16 139 -42c7 -5 9 -13 6 -19l-30 -65c-5 -9 -14 -9 -23 -5c-19 13 -36 20 -58 20z" />
    <glyph glyph-name="fi" unicode="fi" horiz-adv-x="564" 
d="M290 578c-24 -1 -41 -8 -53 -21c-13 -14 -18 -35 -18 -62v-37h265c8 0 15 -6 15 -15v-428c0 -8 -7 -15 -15 -15h-102c-8 0 -15 7 -15 15v339h-148v-339c0 -8 -7 -15 -15 -15h-102c-8 0 -15 7 -15 15v339h-51c-8 0 -15 7 -15 16v73c0 9 7 15 15 15h51v52c0 43 9 87 35 120
c27 35 71 59 138 59c61 0 119 -18 154 -44c7 -5 10 -13 6 -20l-33 -70c-5 -7 -14 -9 -23 -4c-27 17 -48 27 -74 27z" />
    <glyph glyph-name="fj" unicode="fj" horiz-adv-x="556" 
d="M219 354v-339c0 -8 -7 -15 -15 -15h-102c-8 0 -15 7 -15 15v339h-51c-8 0 -15 7 -15 16v73c0 9 7 15 15 15h51v52c0 43 9 87 35 120c27 35 71 59 138 59c61 0 119 -18 154 -44c7 -5 10 -13 6 -20l-33 -70c-5 -7 -14 -9 -23 -4c-27 17 -48 27 -74 27
c-24 -1 -41 -8 -53 -21c-13 -14 -18 -35 -18 -62v-37h257c8 0 15 -6 15 -15v-426c0 -136 -45 -215 -111 -253c-10 -6 -19 -4 -29 6l-63 62c-7 7 -9 17 0 23c48 34 71 74 71 182v317h-140z" />
    <glyph glyph-name="fl" unicode="fl" horiz-adv-x="557" 
d="M476 653c11 -4 16 -10 16 -21v-617c0 -8 -7 -15 -16 -15h-102c-8 0 -15 7 -15 15v531c0 9 -2 14 -9 18c-15 10 -39 15 -59 15c-52 0 -72 -32 -72 -88v-33h84c9 0 16 -6 16 -15v-73c0 -9 -7 -16 -16 -16h-84v-339c0 -8 -7 -15 -15 -15h-102c-8 0 -15 7 -15 15v339h-51
c-8 0 -15 7 -15 16v73c0 9 7 15 15 15h51v53c0 99 46 178 206 178c73 0 151 -21 183 -36z" />
    <glyph glyph-name=".notdef" horiz-adv-x="500" 
d="M0 690h500v-690h-500v690zM250 301l-181 -249h361zM69 638l181 -249l180 249h-361zM218 345l-166 229v-458zM282 345l166 -229v458z" />
    <glyph glyph-name="A" unicode="A" horiz-adv-x="693" 
d="M346 556c-36 0 -69 -11 -94 -36c-26 -27 -42 -66 -42 -120v-64h273v64c0 54 -16 93 -41 120c-25 24 -59 36 -96 36zM627 406v-391c0 -8 -7 -15 -15 -15h-114c-8 0 -15 7 -15 15v193h-273v-193c0 -8 -7 -15 -15 -15h-114c-8 0 -15 7 -15 15v391c0 82 32 167 100 223
c44 37 104 61 180 61c77 0 137 -24 181 -61c69 -56 100 -141 100 -223z" />
    <glyph glyph-name="A.2" unicode="&#xe000;" horiz-adv-x="693" 
d="M346 556c-36 0 -69 -12 -94 -36c-26 -27 -42 -66 -42 -120v-76h273v76c0 54 -16 93 -41 120c-25 24 -59 36 -96 36zM627 406v-391c0 -8 -7 -15 -15 -15h-114c-8 0 -15 7 -15 15v181h-273v-181c0 -8 -7 -15 -15 -15h-114c-8 0 -15 7 -15 15v391c0 82 32 167 100 223
c44 37 104 61 180 61c77 0 137 -24 181 -61c69 -56 100 -141 100 -223z" />
    <glyph glyph-name="A.3" unicode="&#xe001;" horiz-adv-x="658" 
d="M323 564c-76 0 -154 -37 -189 -55c-11 -5 -18 -6 -23 4l-41 91c-4 9 -3 14 6 20c50 31 145 66 259 66c87 0 156 -24 201 -76c37 -43 57 -104 57 -187v-412c0 -8 -7 -15 -15 -15h-103c-9 0 -16 7 -16 15v25h-5c-52 -35 -96 -50 -189 -50c-52 0 -104 14 -144 44
c-45 34 -75 85 -75 152c0 77 35 130 97 166c72 42 181 61 306 66v9c0 39 -7 77 -31 103s-59 34 -95 34zM201 193c0 -32 14 -53 37 -66c21 -12 49 -18 81 -18c46 0 89 14 130 44v154c-66 -4 -134 -11 -179 -30c-42 -19 -69 -45 -69 -84z" />
    <glyph glyph-name="A.calt" unicode="&#xe002;" horiz-adv-x="640" 
d="M195 138l-41 -121c-4 -12 -12 -17 -25 -17h-112c-10 0 -14 5 -14 12c0 3 1 6 2 10l233 646c3 12 11 16 24 16h119c13 0 21 -4 24 -16l230 -646c1 -4 2 -7 2 -10c0 -7 -4 -12 -14 -12h-115c-14 0 -22 5 -25 17l-41 121h-247zM407 253l-87 256l-89 -256h176z" />
    <glyph glyph-name="AE" unicode="&#xc6;" horiz-adv-x="984" 
d="M498 681h433c9 0 16 -7 16 -15v-98c0 -8 -7 -15 -16 -15h-304v-147h252c8 0 15 -7 15 -15v-97c0 -9 -7 -16 -15 -16h-252v-151h304c9 0 16 -6 16 -15v-97c0 -8 -7 -15 -16 -15h-433h-4l-3 2c-3 1 -5 3 -6 6c-1 1 -2 3 -2 5v2v193h-273v-193c0 -8 -7 -15 -15 -15h-114
c-8 0 -15 7 -15 15v391c0 82 32 167 100 223c44 37 104 61 180 61c54 0 99 -12 137 -32v8c0 8 7 15 15 15zM346 556c-36 0 -69 -11 -94 -36c-26 -27 -42 -66 -42 -120v-64h273v64c0 54 -16 93 -41 120c-25 24 -59 36 -96 36z" />
    <glyph glyph-name="AE.3" unicode="&#xe003;" horiz-adv-x="1141" 
d="M318 109c72 0 130 37 166 68c-17 31 -26 69 -31 113c-104 0 -252 -12 -252 -98c0 -59 52 -83 117 -83zM612 414h337c-10 88 -71 144 -165 144c-91 0 -153 -57 -172 -144zM329 689c97 0 177 -27 215 -106c44 66 134 107 240 107c116 0 199 -44 251 -113
c44 -57 66 -134 67 -219c0 -17 -1 -34 -2 -51c-1 -12 -6 -16 -18 -16h-468c7 -50 28 -95 67 -126c35 -29 80 -44 132 -44c66 0 136 18 195 56c10 7 18 4 22 -4l43 -93c4 -10 2 -16 -6 -20c-81 -47 -154 -68 -256 -70c-123 0 -206 35 -266 95c-65 -54 -143 -95 -274 -95
c-117 0 -226 69 -226 196c0 191 241 218 404 224c-3 125 -55 154 -127 154c-76 0 -153 -37 -188 -55c-11 -5 -18 -6 -23 4l-41 91c-4 9 -3 15 6 20c49 26 137 65 253 65z" />
    <glyph glyph-name="AE.calt" unicode="&#xe004;" horiz-adv-x="1018" 
d="M266 138l-93 -121c-9 -12 -19 -17 -33 -17h-129c-14 0 -20 12 -9 26l500 639c9 11 19 16 32 16h432c9 0 15 -7 15 -15v-98c0 -8 -6 -15 -15 -15h-304v-147h252c8 0 15 -7 15 -15v-97c0 -9 -7 -16 -15 -16h-252v-151h304c9 0 15 -6 15 -15v-97c0 -8 -6 -15 -15 -15h-430
c-13 0 -18 5 -18 17v121h-252zM354 253h164v216z" />
    <glyph glyph-name="AEsmall" unicode="&#xf7e6;" horiz-adv-x="848" 
d="M415 544h391c8 0 15 -7 15 -15v-88c0 -8 -7 -15 -15 -15h-274v-81l1 -13h232c8 0 15 -7 15 -15v-87c0 -9 -7 -15 -15 -15h-232v-98h273c8 0 15 -6 15 -15v-87c0 -8 -7 -15 -15 -15h-390h-1c-9 0 -15 7 -15 15v146h-203v-146c0 -8 -7 -15 -15 -15h-102c-9 0 -15 7 -15 15
v308c0 57 21 120 64 163c38 38 94 66 169 66c39 0 73 -7 102 -20c2 7 7 12 15 12zM298 428c-28 0 -56 -10 -75 -31c-16 -19 -26 -45 -26 -79v-43h203v62c-3 25 -12 45 -25 60c-20 22 -47 31 -77 31z" />
    <glyph glyph-name="AEsmall.3" unicode="&#xe005;" horiz-adv-x="920" 
d="M630 552c86 0 148 -31 187 -72c60 -62 74 -148 68 -238c-1 -9 -7 -16 -16 -16h-357c7 -31 19 -56 38 -76c26 -27 63 -39 103 -39c59 0 105 12 151 40c10 6 18 4 22 -4l37 -79c3 -8 1 -16 -6 -20c-65 -37 -126 -56 -207 -56c-97 0 -162 28 -210 75
c-53 -47 -116 -75 -214 -75c-44 0 -87 13 -120 38c-35 28 -57 70 -57 125c0 72 38 115 94 141c63 30 149 36 219 37v14c0 28 -6 50 -20 64c-15 17 -37 24 -66 24c-57 0 -109 -25 -143 -44c-11 -5 -18 -6 -23 4l-37 81c-4 9 -3 14 6 20c50 31 118 56 208 56
c39 0 76 -6 105 -24c22 -12 42 -30 56 -54c17 19 36 33 60 46c33 20 73 32 122 32zM263 105c55 0 96 21 126 41c-12 23 -20 49 -23 80c-41 -1 -94 -4 -129 -15c-31 -10 -52 -26 -52 -51c0 -20 9 -34 23 -42c14 -9 34 -13 55 -13zM512 330h234c-3 30 -14 56 -32 73
c-20 18 -48 29 -82 29s-63 -12 -84 -33c-18 -18 -30 -42 -36 -69z" />
    <glyph glyph-name="Aacute" unicode="&#xc1;" horiz-adv-x="693" 
d="M346 556c-36 0 -69 -11 -94 -36c-26 -27 -42 -66 -42 -120v-64h273v64c0 54 -16 93 -41 120c-25 24 -59 36 -96 36zM627 406v-391c0 -8 -7 -15 -15 -15h-114c-8 0 -15 7 -15 15v193h-273v-193c0 -8 -7 -15 -15 -15h-114c-8 0 -15 7 -15 15v391c0 82 32 167 100 223
c44 37 104 61 180 61c77 0 137 -24 181 -61c69 -56 100 -141 100 -223zM357 968h90c13 0 17 -12 11 -23l-98 -157c-6 -10 -12 -16 -23 -16h-68c-18 0 -14 18 -8 29l75 152c5 10 10 15 21 15z" />
    <glyph glyph-name="Aacute.2" unicode="&#xe006;" horiz-adv-x="693" 
d="M346 556c-36 0 -69 -12 -94 -36c-26 -27 -42 -66 -42 -120v-76h273v76c0 54 -16 93 -41 120c-25 24 -59 36 -96 36zM627 406v-391c0 -8 -7 -15 -15 -15h-114c-8 0 -15 7 -15 15v181h-273v-181c0 -8 -7 -15 -15 -15h-114c-8 0 -15 7 -15 15v391c0 82 32 167 100 223
c44 37 104 61 180 61c77 0 137 -24 181 -61c69 -56 100 -141 100 -223zM350 968h90c13 0 17 -12 11 -23l-98 -157c-6 -10 -12 -16 -23 -16h-68c-18 0 -14 18 -8 29l75 152c5 10 10 15 21 15z" />
    <glyph glyph-name="Aacute.3" unicode="&#xe007;" horiz-adv-x="658" 
d="M323 564c-76 0 -154 -37 -189 -55c-11 -5 -18 -6 -23 4l-41 91c-4 9 -3 14 6 20c50 31 145 66 259 66c87 0 156 -24 201 -76c37 -43 57 -104 57 -187v-412c0 -8 -7 -15 -15 -15h-103c-9 0 -16 7 -16 15v25h-5c-52 -35 -96 -50 -189 -50c-52 0 -104 14 -144 44
c-45 34 -75 85 -75 152c0 77 35 130 97 166c72 42 181 61 306 66v9c0 39 -7 77 -31 103s-59 34 -95 34zM201 193c0 -32 14 -53 37 -66c21 -12 49 -18 81 -18c46 0 89 14 130 44v154c-66 -4 -134 -11 -179 -30c-42 -19 -69 -45 -69 -84zM327 968h90c13 0 17 -12 11 -23
l-98 -157c-6 -10 -12 -16 -23 -16h-68c-18 0 -14 18 -8 29l75 152c5 10 10 15 21 15z" />
    <glyph glyph-name="Aacute.calt" unicode="&#xe008;" horiz-adv-x="640" 
d="M195 138l-41 -121c-4 -12 -12 -17 -25 -17h-112c-10 0 -14 5 -14 12c0 3 1 6 2 10l233 646c3 12 11 16 24 16h119c13 0 21 -4 24 -16l230 -646c1 -4 2 -7 2 -10c0 -7 -4 -12 -14 -12h-115c-14 0 -22 5 -25 17l-41 121h-247zM407 253l-87 256l-89 -256h176zM313 968h90
c13 0 17 -12 11 -23l-98 -157c-6 -10 -12 -16 -23 -16h-68c-18 0 -14 18 -8 29l75 152c5 10 10 15 21 15z" />
    <glyph glyph-name="Abreve" unicode="&#x102;" horiz-adv-x="693" 
d="M346 556c-36 0 -69 -11 -94 -36c-26 -27 -42 -66 -42 -120v-64h273v64c0 54 -16 93 -41 120c-25 24 -59 36 -96 36zM627 406v-391c0 -8 -7 -15 -15 -15h-114c-8 0 -15 7 -15 15v193h-273v-193c0 -8 -7 -15 -15 -15h-114c-8 0 -15 7 -15 15v391c0 82 32 167 100 223
c44 37 104 61 180 61c77 0 137 -24 181 -61c69 -56 100 -141 100 -223zM346 876c44 0 64 24 69 58c1 10 8 16 17 16h47c12 0 18 -8 18 -17c0 -79 -52 -151 -151 -151c-100 0 -151 72 -151 151c0 9 6 17 18 17h47c8 0 15 -6 17 -16c5 -34 24 -58 69 -58z" />
    <glyph glyph-name="Abreve.2" unicode="&#xe009;" horiz-adv-x="693" 
d="M346 556c-36 0 -69 -12 -94 -36c-26 -27 -42 -66 -42 -120v-76h273v76c0 54 -16 93 -41 120c-25 24 -59 36 -96 36zM627 406v-391c0 -8 -7 -15 -15 -15h-114c-8 0 -15 7 -15 15v181h-273v-181c0 -8 -7 -15 -15 -15h-114c-8 0 -15 7 -15 15v391c0 82 32 167 100 223
c44 37 104 61 180 61c77 0 137 -24 181 -61c69 -56 100 -141 100 -223zM346 876c44 0 64 24 69 58c1 10 8 16 17 16h47c12 0 18 -8 18 -17c0 -79 -52 -151 -151 -151c-100 0 -151 72 -151 151c0 9 6 17 18 17h47c8 0 15 -6 17 -16c5 -34 24 -58 69 -58z" />
    <glyph glyph-name="Abreve.3" unicode="&#xe00a;" horiz-adv-x="658" 
d="M323 564c-76 0 -154 -37 -189 -55c-11 -5 -18 -6 -23 4l-41 91c-4 9 -3 14 6 20c50 31 145 66 259 66c87 0 156 -24 201 -76c37 -43 57 -104 57 -187v-412c0 -8 -7 -15 -15 -15h-103c-9 0 -16 7 -16 15v25h-5c-52 -35 -96 -50 -189 -50c-52 0 -104 14 -144 44
c-45 34 -75 85 -75 152c0 77 35 130 97 166c72 42 181 61 306 66v9c0 39 -7 77 -31 103s-59 34 -95 34zM201 193c0 -32 14 -53 37 -66c21 -12 49 -18 81 -18c46 0 89 14 130 44v154c-66 -4 -134 -11 -179 -30c-42 -19 -69 -45 -69 -84zM328 876c44 0 64 24 69 58
c1 10 8 16 17 16h47c12 0 18 -8 18 -17c0 -79 -52 -151 -151 -151c-100 0 -151 72 -151 151c0 9 6 17 18 17h47c8 0 15 -6 17 -16c5 -34 24 -58 69 -58z" />
    <glyph glyph-name="Abreve.calt" unicode="&#xe00b;" horiz-adv-x="640" 
d="M195 138l-41 -121c-4 -12 -12 -17 -25 -17h-112c-10 0 -14 5 -14 12c0 3 1 6 2 10l233 646c3 12 11 16 24 16h119c13 0 21 -4 24 -16l230 -646c1 -4 2 -7 2 -10c0 -7 -4 -12 -14 -12h-115c-14 0 -22 5 -25 17l-41 121h-247zM407 253l-87 256l-89 -256h176zM320 876
c44 0 64 24 69 58c1 10 8 16 17 16h47c12 0 18 -8 18 -17c0 -79 -52 -151 -151 -151c-100 0 -151 72 -151 151c0 9 6 17 18 17h47c8 0 15 -6 17 -16c5 -34 24 -58 69 -58z" />
    <glyph glyph-name="Acircumflex" unicode="&#xc2;" horiz-adv-x="693" 
d="M346 556c-36 0 -69 -11 -94 -36c-26 -27 -42 -66 -42 -120v-64h273v64c0 54 -16 93 -41 120c-25 24 -59 36 -96 36zM627 406v-391c0 -8 -7 -15 -15 -15h-114c-8 0 -15 7 -15 15v193h-273v-193c0 -8 -7 -15 -15 -15h-114c-8 0 -15 7 -15 15v391c0 82 32 167 100 223
c44 37 104 61 180 61c77 0 137 -24 181 -61c69 -56 100 -141 100 -223zM323 968h46c11 0 14 -4 20 -11l144 -163c9 -11 6 -22 -7 -22h-83c-15 0 -19 4 -27 15l-70 79l-71 -79c-8 -11 -12 -15 -27 -15h-83c-13 0 -16 11 -7 22l144 163c6 7 10 11 21 11z" />
    <glyph glyph-name="Acircumflex.2" unicode="&#xe00c;" horiz-adv-x="693" 
d="M346 556c-36 0 -69 -12 -94 -36c-26 -27 -42 -66 -42 -120v-76h273v76c0 54 -16 93 -41 120c-25 24 -59 36 -96 36zM627 406v-391c0 -8 -7 -15 -15 -15h-114c-8 0 -15 7 -15 15v181h-273v-181c0 -8 -7 -15 -15 -15h-114c-8 0 -15 7 -15 15v391c0 82 32 167 100 223
c44 37 104 61 180 61c77 0 137 -24 181 -61c69 -56 100 -141 100 -223zM323 968h46c11 0 14 -4 20 -11l144 -163c9 -11 6 -22 -7 -22h-83c-15 0 -19 4 -27 15l-70 79l-71 -79c-8 -11 -12 -15 -27 -15h-83c-13 0 -16 11 -7 22l144 163c6 7 10 11 21 11z" />
    <glyph glyph-name="Acircumflex.3" unicode="&#xe00d;" horiz-adv-x="658" 
d="M323 564c-76 0 -154 -37 -189 -55c-11 -5 -18 -6 -23 4l-41 91c-4 9 -3 14 6 20c50 31 145 66 259 66c87 0 156 -24 201 -76c37 -43 57 -104 57 -187v-412c0 -8 -7 -15 -15 -15h-103c-9 0 -16 7 -16 15v25h-5c-52 -35 -96 -50 -189 -50c-52 0 -104 14 -144 44
c-45 34 -75 85 -75 152c0 77 35 130 97 166c72 42 181 61 306 66v9c0 39 -7 77 -31 103s-59 34 -95 34zM201 193c0 -32 14 -53 37 -66c21 -12 49 -18 81 -18c46 0 89 14 130 44v154c-66 -4 -134 -11 -179 -30c-42 -19 -69 -45 -69 -84zM313 968h46c11 0 14 -4 20 -11
l144 -163c9 -11 6 -22 -7 -22h-83c-15 0 -19 4 -27 15l-70 79l-71 -79c-8 -11 -12 -15 -27 -15h-83c-13 0 -16 11 -7 22l144 163c6 7 10 11 21 11z" />
    <glyph glyph-name="Acircumflex.calt" unicode="&#xe00e;" horiz-adv-x="640" 
d="M195 138l-41 -121c-4 -12 -12 -17 -25 -17h-112c-10 0 -14 5 -14 12c0 3 1 6 2 10l233 646c3 12 11 16 24 16h119c13 0 21 -4 24 -16l230 -646c1 -4 2 -7 2 -10c0 -7 -4 -12 -14 -12h-115c-14 0 -22 5 -25 17l-41 121h-247zM407 253l-87 256l-89 -256h176zM285 968h46
c11 0 14 -4 20 -11l144 -163c9 -11 6 -22 -7 -22h-83c-15 0 -19 4 -27 15l-70 79l-71 -79c-8 -11 -12 -15 -27 -15h-83c-13 0 -16 11 -7 22l144 163c6 7 10 11 21 11z" />
    <glyph glyph-name="Adieresis" unicode="&#xc4;" horiz-adv-x="693" 
d="M346 556c-36 0 -69 -11 -94 -36c-26 -27 -42 -66 -42 -120v-64h273v64c0 54 -16 93 -41 120c-25 24 -59 36 -96 36zM627 406v-391c0 -8 -7 -15 -15 -15h-114c-8 0 -15 7 -15 15v193h-273v-193c0 -8 -7 -15 -15 -15h-114c-8 0 -15 7 -15 15v391c0 82 32 167 100 223
c44 37 104 61 180 61c77 0 137 -24 181 -61c69 -56 100 -141 100 -223zM230 784c-43 0 -76 35 -76 77s33 76 76 76c42 0 76 -34 76 -76s-34 -77 -76 -77zM462 784c-43 0 -76 35 -76 77s33 76 76 76c42 0 75 -34 75 -76s-33 -77 -75 -77z" />
    <glyph glyph-name="Adieresis.2" unicode="&#xe00f;" horiz-adv-x="693" 
d="M346 556c-36 0 -69 -12 -94 -36c-26 -27 -42 -66 -42 -120v-76h273v76c0 54 -16 93 -41 120c-25 24 -59 36 -96 36zM627 406v-391c0 -8 -7 -15 -15 -15h-114c-8 0 -15 7 -15 15v181h-273v-181c0 -8 -7 -15 -15 -15h-114c-8 0 -15 7 -15 15v391c0 82 32 167 100 223
c44 37 104 61 180 61c77 0 137 -24 181 -61c69 -56 100 -141 100 -223zM230 784c-43 0 -76 35 -76 77s33 76 76 76c42 0 76 -34 76 -76s-34 -77 -76 -77zM462 784c-43 0 -76 35 -76 77s33 76 76 76c42 0 75 -34 75 -76s-33 -77 -75 -77z" />
    <glyph glyph-name="Adieresis.3" unicode="&#xe010;" horiz-adv-x="658" 
d="M323 564c-76 0 -154 -37 -189 -55c-11 -5 -18 -6 -23 4l-41 91c-4 9 -3 14 6 20c50 31 145 66 259 66c87 0 156 -24 201 -76c37 -43 57 -104 57 -187v-412c0 -8 -7 -15 -15 -15h-103c-9 0 -16 7 -16 15v25h-5c-52 -35 -96 -50 -189 -50c-52 0 -104 14 -144 44
c-45 34 -75 85 -75 152c0 77 35 130 97 166c72 42 181 61 306 66v9c0 39 -7 77 -31 103s-59 34 -95 34zM201 193c0 -32 14 -53 37 -66c21 -12 49 -18 81 -18c46 0 89 14 130 44v154c-66 -4 -134 -11 -179 -30c-42 -19 -69 -45 -69 -84zM217 784c-43 0 -76 35 -76 77
s33 76 76 76c42 0 76 -34 76 -76s-34 -77 -76 -77zM449 784c-43 0 -76 35 -76 77s33 76 76 76c42 0 75 -34 75 -76s-33 -77 -75 -77z" />
    <glyph glyph-name="Adieresis.calt" unicode="&#xe011;" horiz-adv-x="640" 
d="M195 138l-41 -121c-4 -12 -12 -17 -25 -17h-112c-10 0 -14 5 -14 12c0 3 1 6 2 10l233 646c3 12 11 16 24 16h119c13 0 21 -4 24 -16l230 -646c1 -4 2 -7 2 -10c0 -7 -4 -12 -14 -12h-115c-14 0 -22 5 -25 17l-41 121h-247zM407 253l-87 256l-89 -256h176zM204 784
c-43 0 -76 35 -76 77s33 76 76 76c42 0 76 -34 76 -76s-34 -77 -76 -77zM436 784c-43 0 -76 35 -76 77s33 76 76 76c42 0 75 -34 75 -76s-33 -77 -75 -77z" />
    <glyph glyph-name="Agrave" unicode="&#xc0;" horiz-adv-x="693" 
d="M346 556c-36 0 -69 -11 -94 -36c-26 -27 -42 -66 -42 -120v-64h273v64c0 54 -16 93 -41 120c-25 24 -59 36 -96 36zM627 406v-391c0 -8 -7 -15 -15 -15h-114c-8 0 -15 7 -15 15v193h-273v-193c0 -8 -7 -15 -15 -15h-114c-8 0 -15 7 -15 15v391c0 82 32 167 100 223
c44 37 104 61 180 61c77 0 137 -24 181 -61c69 -56 100 -141 100 -223zM252 968h91c11 0 16 -5 21 -15l76 -154c4 -9 9 -27 -9 -27h-69c-11 0 -17 6 -23 16l-97 157c-7 11 -4 23 10 23z" />
    <glyph glyph-name="Agrave.2" unicode="&#xe012;" horiz-adv-x="693" 
d="M346 556c-36 0 -69 -12 -94 -36c-26 -27 -42 -66 -42 -120v-76h273v76c0 54 -16 93 -41 120c-25 24 -59 36 -96 36zM627 406v-391c0 -8 -7 -15 -15 -15h-114c-8 0 -15 7 -15 15v181h-273v-181c0 -8 -7 -15 -15 -15h-114c-8 0 -15 7 -15 15v391c0 82 32 167 100 223
c44 37 104 61 180 61c77 0 137 -24 181 -61c69 -56 100 -141 100 -223zM251 968h91c11 0 16 -5 21 -15l76 -154c4 -9 9 -27 -9 -27h-69c-11 0 -17 6 -23 16l-97 157c-7 11 -4 23 10 23z" />
    <glyph glyph-name="Agrave.3" unicode="&#xe013;" horiz-adv-x="658" 
d="M323 564c-76 0 -154 -37 -189 -55c-11 -5 -18 -6 -23 4l-41 91c-4 9 -3 14 6 20c50 31 145 66 259 66c87 0 156 -24 201 -76c37 -43 57 -104 57 -187v-412c0 -8 -7 -15 -15 -15h-103c-9 0 -16 7 -16 15v25h-5c-52 -35 -96 -50 -189 -50c-52 0 -104 14 -144 44
c-45 34 -75 85 -75 152c0 77 35 130 97 166c72 42 181 61 306 66v9c0 39 -7 77 -31 103s-59 34 -95 34zM201 193c0 -32 14 -53 37 -66c21 -12 49 -18 81 -18c46 0 89 14 130 44v154c-66 -4 -134 -11 -179 -30c-42 -19 -69 -45 -69 -84zM232 968h91c11 0 16 -5 21 -15
l76 -154c4 -9 9 -27 -9 -27h-69c-11 0 -17 6 -23 16l-97 157c-7 11 -4 23 10 23z" />
    <glyph glyph-name="Agrave.calt" unicode="&#xe014;" horiz-adv-x="640" 
d="M195 138l-41 -121c-4 -12 -12 -17 -25 -17h-112c-10 0 -14 5 -14 12c0 3 1 6 2 10l233 646c3 12 11 16 24 16h119c13 0 21 -4 24 -16l230 -646c1 -4 2 -7 2 -10c0 -7 -4 -12 -14 -12h-115c-14 0 -22 5 -25 17l-41 121h-247zM407 253l-87 256l-89 -256h176zM212 968h91
c11 0 16 -5 21 -15l76 -154c4 -9 9 -27 -9 -27h-69c-11 0 -17 6 -23 16l-97 157c-7 11 -4 23 10 23z" />
    <glyph glyph-name="Amacron" unicode="&#x100;" horiz-adv-x="693" 
d="M346 556c-36 0 -69 -11 -94 -36c-26 -27 -42 -66 -42 -120v-64h273v64c0 54 -16 93 -41 120c-25 24 -59 36 -96 36zM627 406v-391c0 -8 -7 -15 -15 -15h-114c-8 0 -15 7 -15 15v193h-273v-193c0 -8 -7 -15 -15 -15h-114c-8 0 -15 7 -15 15v391c0 82 32 167 100 223
c44 37 104 61 180 61c77 0 137 -24 181 -61c69 -56 100 -141 100 -223zM225 924h241c9 0 15 -7 15 -15v-77c0 -9 -6 -16 -15 -16h-241c-9 0 -15 7 -15 16v77c0 8 6 15 15 15z" />
    <glyph glyph-name="Amacron.2" unicode="&#xe015;" horiz-adv-x="693" 
d="M346 556c-36 0 -69 -12 -94 -36c-26 -27 -42 -66 -42 -120v-76h273v76c0 54 -16 93 -41 120c-25 24 -59 36 -96 36zM627 406v-391c0 -8 -7 -15 -15 -15h-114c-8 0 -15 7 -15 15v181h-273v-181c0 -8 -7 -15 -15 -15h-114c-8 0 -15 7 -15 15v391c0 82 32 167 100 223
c44 37 104 61 180 61c77 0 137 -24 181 -61c69 -56 100 -141 100 -223zM225 924h241c9 0 15 -7 15 -15v-77c0 -9 -6 -16 -15 -16h-241c-9 0 -15 7 -15 16v77c0 8 6 15 15 15z" />
    <glyph glyph-name="Amacron.3" unicode="&#xe016;" horiz-adv-x="658" 
d="M323 564c-76 0 -154 -37 -189 -55c-11 -5 -18 -6 -23 4l-41 91c-4 9 -3 14 6 20c50 31 145 66 259 66c87 0 156 -24 201 -76c37 -43 57 -104 57 -187v-412c0 -8 -7 -15 -15 -15h-103c-9 0 -16 7 -16 15v25h-5c-52 -35 -96 -50 -189 -50c-52 0 -104 14 -144 44
c-45 34 -75 85 -75 152c0 77 35 130 97 166c72 42 181 61 306 66v9c0 39 -7 77 -31 103s-59 34 -95 34zM201 193c0 -32 14 -53 37 -66c21 -12 49 -18 81 -18c46 0 89 14 130 44v154c-66 -4 -134 -11 -179 -30c-42 -19 -69 -45 -69 -84zM214 924h241c9 0 15 -7 15 -15v-77
c0 -9 -6 -16 -15 -16h-241c-9 0 -15 7 -15 16v77c0 8 6 15 15 15z" />
    <glyph glyph-name="Amacron.calt" unicode="&#xe017;" horiz-adv-x="640" 
d="M195 138l-41 -121c-4 -12 -12 -17 -25 -17h-112c-10 0 -14 5 -14 12c0 3 1 6 2 10l233 646c3 12 11 16 24 16h119c13 0 21 -4 24 -16l230 -646c1 -4 2 -7 2 -10c0 -7 -4 -12 -14 -12h-115c-14 0 -22 5 -25 17l-41 121h-247zM407 253l-87 256l-89 -256h176zM199 924h241
c9 0 15 -7 15 -15v-77c0 -9 -6 -16 -15 -16h-241c-9 0 -15 7 -15 16v77c0 8 6 15 15 15z" />
    <glyph glyph-name="Aogonek" unicode="&#x104;" horiz-adv-x="693" 
d="M403 -119c0 50 41 97 83 125c-2 3 -3 6 -3 9v193h-273v-193c0 -8 -7 -15 -15 -15h-114c-8 0 -15 7 -15 15v391c0 82 32 167 100 223c44 37 104 61 180 61c77 0 137 -24 181 -61c69 -56 100 -141 100 -223v-391c0 -8 -7 -15 -15 -15h-59c-27 -19 -59 -50 -59 -82
c0 -25 18 -35 41 -35c28 0 39 9 53 9c7 0 9 -5 9 -11v-53c0 -9 -3 -12 -9 -14c-24 -11 -52 -17 -80 -17c-53 0 -105 21 -105 84zM346 556c-36 0 -69 -11 -94 -36c-26 -27 -42 -66 -42 -120v-64h273v64c0 54 -16 93 -41 120c-25 24 -59 36 -96 36z" />
    <glyph glyph-name="Aogonek.2" unicode="&#xe018;" horiz-adv-x="693" 
d="M403 -119c0 50 41 97 83 125c-2 3 -3 6 -3 9v181h-273v-181c0 -8 -7 -15 -15 -15h-114c-8 0 -15 7 -15 15v391c0 82 32 167 100 223c44 37 104 61 180 61c77 0 137 -24 181 -61c69 -56 100 -141 100 -223v-391c0 -8 -7 -15 -15 -15h-59c-27 -19 -59 -50 -59 -82
c0 -25 18 -35 41 -35c28 0 39 9 53 9c7 0 9 -5 9 -11v-53c0 -9 -3 -12 -9 -14c-24 -11 -52 -17 -80 -17c-53 0 -105 21 -105 84zM346 556c-36 0 -69 -12 -94 -36c-26 -27 -42 -66 -42 -120v-76h273v76c0 54 -16 93 -41 120c-25 24 -59 36 -96 36z" />
    <glyph glyph-name="Aogonek.3" unicode="&#xe019;" horiz-adv-x="658" 
d="M372 -119c0 52 44 101 88 129c-1 1 -1 3 -1 5v25h-5c-52 -35 -96 -50 -189 -50c-52 0 -104 14 -144 44c-45 34 -75 85 -75 152c0 77 35 130 97 166c72 42 181 61 306 66v9c0 39 -7 77 -31 103s-59 34 -95 34c-76 0 -154 -37 -189 -55c-11 -5 -18 -6 -23 4l-41 91
c-4 9 -3 14 6 20c50 31 145 66 259 66c87 0 156 -24 201 -76c37 -43 57 -104 57 -187v-412c0 -8 -7 -15 -15 -15h-56c-27 -19 -59 -50 -59 -82c0 -25 18 -35 41 -35c28 0 39 9 53 9c7 0 9 -5 9 -11v-53c0 -9 -3 -12 -9 -14c-24 -11 -52 -17 -80 -17c-53 0 -105 21 -105 84z
M201 193c0 -32 14 -53 37 -66c21 -12 49 -18 81 -18c46 0 89 14 130 44v154c-66 -4 -134 -11 -179 -30c-42 -19 -69 -45 -69 -84z" />
    <glyph glyph-name="Aogonek.calt" unicode="&#xe01a;" horiz-adv-x="640" 
d="M403 -119c0 50 42 98 84 126c-2 3 -3 6 -4 10l-41 121h-247l-41 -121c-4 -12 -12 -17 -25 -17h-112c-10 0 -14 5 -14 12c0 3 1 6 2 10l233 646c3 12 11 16 24 16h119c13 0 21 -4 24 -16l230 -646c1 -4 2 -7 2 -10c0 -7 -4 -12 -14 -12h-70c-27 -19 -59 -50 -59 -82
c0 -25 18 -35 41 -35c28 0 39 9 53 9c7 0 9 -5 9 -11v-53c0 -9 -3 -12 -9 -14c-24 -11 -52 -17 -80 -17c-53 0 -105 21 -105 84zM407 253l-87 256l-89 -256h176z" />
    <glyph glyph-name="Aring" unicode="&#xc5;" horiz-adv-x="693" 
d="M346 556c-36 0 -69 -11 -94 -36c-26 -27 -42 -66 -42 -120v-64h273v64c0 54 -16 93 -41 120c-25 24 -59 36 -96 36zM627 406v-391c0 -8 -7 -15 -15 -15h-114c-8 0 -15 7 -15 15v193h-273v-193c0 -8 -7 -15 -15 -15h-114c-8 0 -15 7 -15 15v391c0 82 32 167 100 223
c44 37 104 61 180 61c77 0 137 -24 181 -61c69 -56 100 -141 100 -223zM468 857c0 -66 -55 -120 -121 -120c-68 0 -122 54 -122 120c0 69 54 122 122 122c66 0 121 -53 121 -122zM410 857c0 37 -29 65 -63 65c-36 0 -64 -28 -64 -65c0 -34 28 -63 64 -63c34 0 63 28 63 63z
" />
    <glyph glyph-name="Aring.2" unicode="&#xe01b;" horiz-adv-x="693" 
d="M346 556c-36 0 -69 -12 -94 -36c-26 -27 -42 -66 -42 -120v-76h273v76c0 54 -16 93 -41 120c-25 24 -59 36 -96 36zM627 406v-391c0 -8 -7 -15 -15 -15h-114c-8 0 -15 7 -15 15v181h-273v-181c0 -8 -7 -15 -15 -15h-114c-8 0 -15 7 -15 15v391c0 82 32 167 100 223
c44 37 104 61 180 61c77 0 137 -24 181 -61c69 -56 100 -141 100 -223zM468 857c0 -66 -55 -120 -121 -120c-68 0 -122 54 -122 120c0 69 54 122 122 122c66 0 121 -53 121 -122zM410 857c0 37 -29 65 -63 65c-36 0 -64 -28 -64 -65c0 -34 28 -63 64 -63c34 0 63 28 63 63z
" />
    <glyph glyph-name="Aring.3" unicode="&#xe01c;" horiz-adv-x="658" 
d="M323 564c-76 0 -154 -37 -189 -55c-11 -5 -18 -6 -23 4l-41 91c-4 9 -3 14 6 20c50 31 145 66 259 66c87 0 156 -24 201 -76c37 -43 57 -104 57 -187v-412c0 -8 -7 -15 -15 -15h-103c-9 0 -16 7 -16 15v25h-5c-52 -35 -96 -50 -189 -50c-52 0 -104 14 -144 44
c-45 34 -75 85 -75 152c0 77 35 130 97 166c72 42 181 61 306 66v9c0 39 -7 77 -31 103s-59 34 -95 34zM201 193c0 -32 14 -53 37 -66c21 -12 49 -18 81 -18c46 0 89 14 130 44v154c-66 -4 -134 -11 -179 -30c-42 -19 -69 -45 -69 -84zM455 857c0 -66 -55 -120 -121 -120
c-68 0 -122 54 -122 120c0 69 54 122 122 122c66 0 121 -53 121 -122zM397 857c0 37 -29 65 -63 65c-36 0 -64 -28 -64 -65c0 -34 28 -63 64 -63c34 0 63 28 63 63z" />
    <glyph glyph-name="Aring.calt" unicode="&#xe01d;" horiz-adv-x="640" 
d="M195 138l-41 -121c-4 -12 -12 -17 -25 -17h-112c-10 0 -14 5 -14 12c0 3 1 6 2 10l233 646c3 12 11 16 24 16h119c13 0 21 -4 24 -16l230 -646c1 -4 2 -7 2 -10c0 -7 -4 -12 -14 -12h-115c-14 0 -22 5 -25 17l-41 121h-247zM407 253l-87 256l-89 -256h176zM442 857
c0 -66 -55 -120 -121 -120c-68 0 -122 54 -122 120c0 69 54 122 122 122c66 0 121 -53 121 -122zM384 857c0 37 -29 65 -63 65c-36 0 -64 -28 -64 -65c0 -34 28 -63 64 -63c34 0 63 28 63 63z" />
    <glyph glyph-name="Asmall" unicode="&#xf761;" horiz-adv-x="598" 
d="M298 428c-28 0 -56 -10 -75 -31c-16 -19 -26 -45 -26 -79v-43h204v43c0 34 -10 60 -26 79c-20 22 -47 31 -77 31zM533 323v-308c0 -8 -6 -15 -15 -15h-102c-8 0 -15 7 -15 15v146h-204v-146c0 -8 -7 -15 -15 -15h-102c-9 0 -15 7 -15 15v308c0 57 21 120 64 163
c38 38 94 66 169 66c77 0 133 -28 171 -66c43 -43 64 -106 64 -163z" />
    <glyph glyph-name="Asmall.2" unicode="&#xe01e;" horiz-adv-x="598" 
d="M298 428c-28 0 -56 -10 -75 -31c-16 -19 -26 -45 -26 -79v-54h204v54c0 34 -10 60 -26 79c-20 22 -47 31 -77 31zM533 323v-308c0 -8 -6 -15 -15 -15h-102c-8 0 -15 7 -15 15v135h-204v-135c0 -8 -7 -15 -15 -15h-102c-9 0 -15 7 -15 15v308c0 57 21 120 64 163
c38 38 94 66 169 66c77 0 133 -28 171 -66c43 -43 64 -106 64 -163z" />
    <glyph glyph-name="Asmall.3" unicode="&#xe01f;" horiz-adv-x="560" 
d="M263 105c38 0 70 10 100 29v98c-41 -1 -91 -4 -127 -18c-31 -10 -51 -27 -51 -54c0 -21 9 -35 24 -43c14 -9 34 -12 54 -12zM496 338v-323c0 -8 -7 -15 -16 -15h-87c-8 0 -15 7 -15 15v15h-6c-47 -29 -86 -38 -146 -38c-44 0 -86 13 -118 38c-36 28 -59 70 -59 125
c0 75 39 119 95 146c64 30 149 36 218 38v8c0 29 -6 50 -20 64c-15 17 -37 24 -66 24c-57 0 -109 -25 -143 -44c-11 -5 -18 -6 -23 4l-37 81c-4 9 -3 14 6 20c50 31 118 56 208 56c70 0 126 -19 163 -63c30 -34 46 -84 46 -151z" />
    <glyph glyph-name="Asmall.calt" unicode="&#xe020;" horiz-adv-x="533" 
d="M173 107l-32 -90c-3 -12 -11 -17 -25 -17h-100c-10 0 -14 5 -14 12c0 3 1 6 2 10l193 507c3 11 11 16 24 16h98c13 0 20 -5 24 -16l186 -507c1 -4 2 -7 2 -10c0 -7 -4 -12 -14 -12h-99c-13 0 -21 5 -25 17l-32 90h-188zM330 209l-62 172l-62 -172h124z" />
    <glyph glyph-name="Asmallacute" unicode="&#xe021;" horiz-adv-x="598" 
d="M298 428c-28 0 -56 -10 -75 -31c-16 -19 -26 -45 -26 -79v-43h204v43c0 34 -10 60 -26 79c-20 22 -47 31 -77 31zM533 323v-308c0 -8 -6 -15 -15 -15h-102c-8 0 -15 7 -15 15v146h-204v-146c0 -8 -7 -15 -15 -15h-102c-9 0 -15 7 -15 15v308c0 57 21 120 64 163
c38 38 94 66 169 66c77 0 133 -28 171 -66c43 -43 64 -106 64 -163zM304 827h90c13 0 17 -12 11 -23l-98 -157c-6 -10 -12 -16 -23 -16h-68c-18 0 -14 18 -8 29l75 152c5 10 10 15 21 15z" />
    <glyph glyph-name="Asmallacute.2" unicode="&#xe022;" horiz-adv-x="598" 
d="M298 428c-28 0 -56 -10 -75 -31c-16 -19 -26 -45 -26 -79v-54h204v54c0 34 -10 60 -26 79c-20 22 -47 31 -77 31zM533 323v-308c0 -8 -6 -15 -15 -15h-102c-8 0 -15 7 -15 15v135h-204v-135c0 -8 -7 -15 -15 -15h-102c-9 0 -15 7 -15 15v308c0 57 21 120 64 163
c38 38 94 66 169 66c77 0 133 -28 171 -66c43 -43 64 -106 64 -163zM312 827h90c13 0 17 -12 11 -23l-98 -157c-6 -10 -12 -16 -23 -16h-68c-18 0 -14 18 -8 29l75 152c5 10 10 15 21 15z" />
    <glyph glyph-name="Asmallacute.3" unicode="&#xe023;" horiz-adv-x="560" 
d="M263 105c38 0 70 10 100 29v98c-41 -1 -91 -4 -127 -18c-31 -10 -51 -27 -51 -54c0 -21 9 -35 24 -43c14 -9 34 -12 54 -12zM496 338v-323c0 -8 -7 -15 -16 -15h-87c-8 0 -15 7 -15 15v15h-6c-47 -29 -86 -38 -146 -38c-44 0 -86 13 -118 38c-36 28 -59 70 -59 125
c0 75 39 119 95 146c64 30 149 36 218 38v8c0 29 -6 50 -20 64c-15 17 -37 24 -66 24c-57 0 -109 -25 -143 -44c-11 -5 -18 -6 -23 4l-37 81c-4 9 -3 14 6 20c50 31 118 56 208 56c70 0 126 -19 163 -63c30 -34 46 -84 46 -151zM284 827h90c13 0 17 -12 11 -23l-98 -157
c-6 -10 -12 -16 -23 -16h-68c-18 0 -14 18 -8 29l75 152c5 10 10 15 21 15z" />
    <glyph glyph-name="Asmallacute.calt" unicode="&#xe024;" horiz-adv-x="533" 
d="M173 107l-32 -90c-3 -12 -11 -17 -25 -17h-100c-10 0 -14 5 -14 12c0 3 1 6 2 10l193 507c3 11 11 16 24 16h98c13 0 20 -5 24 -16l186 -507c1 -4 2 -7 2 -10c0 -7 -4 -12 -14 -12h-99c-13 0 -21 5 -25 17l-32 90h-188zM330 209l-62 172l-62 -172h124zM266 827h90
c13 0 17 -12 11 -23l-98 -157c-6 -10 -12 -16 -23 -16h-68c-18 0 -14 18 -8 29l75 152c5 10 10 15 21 15z" />
    <glyph glyph-name="Asmallbreve" unicode="&#xe025;" horiz-adv-x="598" 
d="M298 428c-28 0 -56 -10 -75 -31c-16 -19 -26 -45 -26 -79v-43h204v43c0 34 -10 60 -26 79c-20 22 -47 31 -77 31zM533 323v-308c0 -8 -6 -15 -15 -15h-102c-8 0 -15 7 -15 15v146h-204v-146c0 -8 -7 -15 -15 -15h-102c-9 0 -15 7 -15 15v308c0 57 21 120 64 163
c38 38 94 66 169 66c77 0 133 -28 171 -66c43 -43 64 -106 64 -163zM297 725c44 0 64 24 69 58c1 10 8 16 17 16h47c12 0 18 -8 18 -17c0 -79 -52 -151 -151 -151c-100 0 -151 72 -151 151c0 9 6 17 18 17h47c8 0 15 -6 17 -16c5 -34 24 -58 69 -58z" />
    <glyph glyph-name="Asmallbreve.2" unicode="&#xe026;" horiz-adv-x="598" 
d="M298 428c-28 0 -56 -10 -75 -31c-16 -19 -26 -45 -26 -79v-54h204v54c0 34 -10 60 -26 79c-20 22 -47 31 -77 31zM533 323v-308c0 -8 -6 -15 -15 -15h-102c-8 0 -15 7 -15 15v135h-204v-135c0 -8 -7 -15 -15 -15h-102c-9 0 -15 7 -15 15v308c0 57 21 120 64 163
c38 38 94 66 169 66c77 0 133 -28 171 -66c43 -43 64 -106 64 -163zM297 725c44 0 64 24 69 58c1 10 8 16 17 16h47c12 0 18 -8 18 -17c0 -79 -52 -151 -151 -151c-100 0 -151 72 -151 151c0 9 6 17 18 17h47c8 0 15 -6 17 -16c5 -34 24 -58 69 -58z" />
    <glyph glyph-name="Asmallbreve.3" unicode="&#xe027;" horiz-adv-x="560" 
d="M263 105c38 0 70 10 100 29v98c-41 -1 -91 -4 -127 -18c-31 -10 -51 -27 -51 -54c0 -21 9 -35 24 -43c14 -9 34 -12 54 -12zM496 338v-323c0 -8 -7 -15 -16 -15h-87c-8 0 -15 7 -15 15v15h-6c-47 -29 -86 -38 -146 -38c-44 0 -86 13 -118 38c-36 28 -59 70 -59 125
c0 75 39 119 95 146c64 30 149 36 218 38v8c0 29 -6 50 -20 64c-15 17 -37 24 -66 24c-57 0 -109 -25 -143 -44c-11 -5 -18 -6 -23 4l-37 81c-4 9 -3 14 6 20c50 31 118 56 208 56c70 0 126 -19 163 -63c30 -34 46 -84 46 -151zM281 725c44 0 64 24 69 58c1 10 8 16 17 16
h47c12 0 18 -8 18 -17c0 -79 -52 -151 -151 -151c-100 0 -151 72 -151 151c0 9 6 17 18 17h47c8 0 15 -6 17 -16c5 -34 24 -58 69 -58z" />
    <glyph glyph-name="Asmallbreve.calt" unicode="&#xe028;" horiz-adv-x="533" 
d="M173 107l-32 -90c-3 -12 -11 -17 -25 -17h-100c-10 0 -14 5 -14 12c0 3 1 6 2 10l193 507c3 11 11 16 24 16h98c13 0 20 -5 24 -16l186 -507c1 -4 2 -7 2 -10c0 -7 -4 -12 -14 -12h-99c-13 0 -21 5 -25 17l-32 90h-188zM330 209l-62 172l-62 -172h124zM266 725
c44 0 64 24 69 58c1 10 8 16 17 16h47c12 0 18 -8 18 -17c0 -79 -52 -151 -151 -151c-100 0 -151 72 -151 151c0 9 6 17 18 17h47c8 0 15 -6 17 -16c5 -34 24 -58 69 -58z" />
    <glyph glyph-name="Asmallcircumflex" unicode="&#xe029;" horiz-adv-x="598" 
d="M298 428c-28 0 -56 -10 -75 -31c-16 -19 -26 -45 -26 -79v-43h204v43c0 34 -10 60 -26 79c-20 22 -47 31 -77 31zM533 323v-308c0 -8 -6 -15 -15 -15h-102c-8 0 -15 7 -15 15v146h-204v-146c0 -8 -7 -15 -15 -15h-102c-9 0 -15 7 -15 15v308c0 57 21 120 64 163
c38 38 94 66 169 66c77 0 133 -28 171 -66c43 -43 64 -106 64 -163zM276 826h46c11 0 14 -4 20 -11l144 -163c9 -11 6 -22 -7 -22h-83c-15 0 -19 4 -27 15l-70 79l-71 -79c-8 -11 -12 -15 -27 -15h-83c-13 0 -16 11 -7 22l144 163c6 7 10 11 21 11z" />
    <glyph glyph-name="Asmallcircumflex.2" unicode="&#xe02a;" horiz-adv-x="598" 
d="M298 428c-28 0 -56 -10 -75 -31c-16 -19 -26 -45 -26 -79v-54h204v54c0 34 -10 60 -26 79c-20 22 -47 31 -77 31zM533 323v-308c0 -8 -6 -15 -15 -15h-102c-8 0 -15 7 -15 15v135h-204v-135c0 -8 -7 -15 -15 -15h-102c-9 0 -15 7 -15 15v308c0 57 21 120 64 163
c38 38 94 66 169 66c77 0 133 -28 171 -66c43 -43 64 -106 64 -163zM276 826h46c11 0 14 -4 20 -11l144 -163c9 -11 6 -22 -7 -22h-83c-15 0 -19 4 -27 15l-70 79l-71 -79c-8 -11 -12 -15 -27 -15h-83c-13 0 -16 11 -7 22l144 163c6 7 10 11 21 11z" />
    <glyph glyph-name="Asmallcircumflex.3" unicode="&#xe02b;" horiz-adv-x="560" 
d="M263 105c38 0 70 10 100 29v98c-41 -1 -91 -4 -127 -18c-31 -10 -51 -27 -51 -54c0 -21 9 -35 24 -43c14 -9 34 -12 54 -12zM496 338v-323c0 -8 -7 -15 -16 -15h-87c-8 0 -15 7 -15 15v15h-6c-47 -29 -86 -38 -146 -38c-44 0 -86 13 -118 38c-36 28 -59 70 -59 125
c0 75 39 119 95 146c64 30 149 36 218 38v8c0 29 -6 50 -20 64c-15 17 -37 24 -66 24c-57 0 -109 -25 -143 -44c-11 -5 -18 -6 -23 4l-37 81c-4 9 -3 14 6 20c50 31 118 56 208 56c70 0 126 -19 163 -63c30 -34 46 -84 46 -151zM253 826h46c11 0 14 -4 20 -11l144 -163
c9 -11 6 -22 -7 -22h-83c-15 0 -19 4 -27 15l-70 79l-71 -79c-8 -11 -12 -15 -27 -15h-83c-13 0 -16 11 -7 22l144 163c6 7 10 11 21 11z" />
    <glyph glyph-name="Asmallcircumflex.calt" unicode="&#xe02c;" horiz-adv-x="533" 
d="M173 107l-32 -90c-3 -12 -11 -17 -25 -17h-100c-10 0 -14 5 -14 12c0 3 1 6 2 10l193 507c3 11 11 16 24 16h98c13 0 20 -5 24 -16l186 -507c1 -4 2 -7 2 -10c0 -7 -4 -12 -14 -12h-99c-13 0 -21 5 -25 17l-32 90h-188zM330 209l-62 172l-62 -172h124zM244 826h46
c11 0 14 -4 20 -11l144 -163c9 -11 6 -22 -7 -22h-83c-15 0 -19 4 -27 15l-70 79l-71 -79c-8 -11 -12 -15 -27 -15h-83c-13 0 -16 11 -7 22l144 163c6 7 10 11 21 11z" />
    <glyph glyph-name="Asmalldieresis" unicode="&#xe02d;" horiz-adv-x="598" 
d="M298 428c-28 0 -56 -10 -75 -31c-16 -19 -26 -45 -26 -79v-43h204v43c0 34 -10 60 -26 79c-20 22 -47 31 -77 31zM533 323v-308c0 -8 -6 -15 -15 -15h-102c-8 0 -15 7 -15 15v146h-204v-146c0 -8 -7 -15 -15 -15h-102c-9 0 -15 7 -15 15v308c0 57 21 120 64 163
c38 38 94 66 169 66c77 0 133 -28 171 -66c43 -43 64 -106 64 -163zM183 644c-43 0 -76 35 -76 77s33 76 76 76c42 0 76 -34 76 -76s-34 -77 -76 -77zM415 644c-43 0 -76 35 -76 77s33 76 76 76c42 0 75 -34 75 -76s-33 -77 -75 -77z" />
    <glyph glyph-name="Asmalldieresis.2" unicode="&#xe02e;" horiz-adv-x="598" 
d="M298 428c-28 0 -56 -10 -75 -31c-16 -19 -26 -45 -26 -79v-54h204v54c0 34 -10 60 -26 79c-20 22 -47 31 -77 31zM533 323v-308c0 -8 -6 -15 -15 -15h-102c-8 0 -15 7 -15 15v135h-204v-135c0 -8 -7 -15 -15 -15h-102c-9 0 -15 7 -15 15v308c0 57 21 120 64 163
c38 38 94 66 169 66c77 0 133 -28 171 -66c43 -43 64 -106 64 -163zM183 644c-43 0 -76 35 -76 77s33 76 76 76c42 0 76 -34 76 -76s-34 -77 -76 -77zM415 644c-43 0 -76 35 -76 77s33 76 76 76c42 0 75 -34 75 -76s-33 -77 -75 -77z" />
    <glyph glyph-name="Asmalldieresis.3" unicode="&#xe02f;" horiz-adv-x="560" 
d="M263 105c38 0 70 10 100 29v98c-41 -1 -91 -4 -127 -18c-31 -10 -51 -27 -51 -54c0 -21 9 -35 24 -43c14 -9 34 -12 54 -12zM496 338v-323c0 -8 -7 -15 -16 -15h-87c-8 0 -15 7 -15 15v15h-6c-47 -29 -86 -38 -146 -38c-44 0 -86 13 -118 38c-36 28 -59 70 -59 125
c0 75 39 119 95 146c64 30 149 36 218 38v8c0 29 -6 50 -20 64c-15 17 -37 24 -66 24c-57 0 -109 -25 -143 -44c-11 -5 -18 -6 -23 4l-37 81c-4 9 -3 14 6 20c50 31 118 56 208 56c70 0 126 -19 163 -63c30 -34 46 -84 46 -151zM158 644c-43 0 -76 35 -76 77s33 76 76 76
c42 0 76 -34 76 -76s-34 -77 -76 -77zM390 644c-43 0 -76 35 -76 77s33 76 76 76c42 0 75 -34 75 -76s-33 -77 -75 -77z" />
    <glyph glyph-name="Asmalldieresis.calt" unicode="&#xe030;" horiz-adv-x="533" 
d="M173 107l-32 -90c-3 -12 -11 -17 -25 -17h-100c-10 0 -14 5 -14 12c0 3 1 6 2 10l193 507c3 11 11 16 24 16h98c13 0 20 -5 24 -16l186 -507c1 -4 2 -7 2 -10c0 -7 -4 -12 -14 -12h-99c-13 0 -21 5 -25 17l-32 90h-188zM330 209l-62 172l-62 -172h124zM152 644
c-43 0 -76 35 -76 77s33 76 76 76c42 0 76 -34 76 -76s-34 -77 -76 -77zM384 644c-43 0 -76 35 -76 77s33 76 76 76c42 0 75 -34 75 -76s-33 -77 -75 -77z" />
    <glyph glyph-name="Asmallgrave" unicode="&#xe031;" horiz-adv-x="598" 
d="M298 428c-28 0 -56 -10 -75 -31c-16 -19 -26 -45 -26 -79v-43h204v43c0 34 -10 60 -26 79c-20 22 -47 31 -77 31zM533 323v-308c0 -8 -6 -15 -15 -15h-102c-8 0 -15 7 -15 15v146h-204v-146c0 -8 -7 -15 -15 -15h-102c-9 0 -15 7 -15 15v308c0 57 21 120 64 163
c38 38 94 66 169 66c77 0 133 -28 171 -66c43 -43 64 -106 64 -163zM203 827h91c11 0 16 -5 21 -15l76 -154c4 -9 9 -27 -9 -27h-69c-11 0 -17 6 -23 16l-97 157c-7 11 -4 23 10 23z" />
    <glyph glyph-name="Asmallgrave.2" unicode="&#xe032;" horiz-adv-x="598" 
d="M298 428c-28 0 -56 -10 -75 -31c-16 -19 -26 -45 -26 -79v-54h204v54c0 34 -10 60 -26 79c-20 22 -47 31 -77 31zM533 323v-308c0 -8 -6 -15 -15 -15h-102c-8 0 -15 7 -15 15v135h-204v-135c0 -8 -7 -15 -15 -15h-102c-9 0 -15 7 -15 15v308c0 57 21 120 64 163
c38 38 94 66 169 66c77 0 133 -28 171 -66c43 -43 64 -106 64 -163zM204 827h91c11 0 16 -5 21 -15l76 -154c4 -9 9 -27 -9 -27h-69c-11 0 -17 6 -23 16l-97 157c-7 11 -4 23 10 23z" />
    <glyph glyph-name="Asmallgrave.3" unicode="&#xe033;" horiz-adv-x="560" 
d="M263 105c38 0 70 10 100 29v98c-41 -1 -91 -4 -127 -18c-31 -10 -51 -27 -51 -54c0 -21 9 -35 24 -43c14 -9 34 -12 54 -12zM496 338v-323c0 -8 -7 -15 -16 -15h-87c-8 0 -15 7 -15 15v15h-6c-47 -29 -86 -38 -146 -38c-44 0 -86 13 -118 38c-36 28 -59 70 -59 125
c0 75 39 119 95 146c64 30 149 36 218 38v8c0 29 -6 50 -20 64c-15 17 -37 24 -66 24c-57 0 -109 -25 -143 -44c-11 -5 -18 -6 -23 4l-37 81c-4 9 -3 14 6 20c50 31 118 56 208 56c70 0 126 -19 163 -63c30 -34 46 -84 46 -151zM182 827h91c11 0 16 -5 21 -15l76 -154
c4 -9 9 -27 -9 -27h-69c-11 0 -17 6 -23 16l-97 157c-7 11 -4 23 10 23z" />
    <glyph glyph-name="Asmallgrave.calt" unicode="&#xe034;" horiz-adv-x="533" 
d="M173 107l-32 -90c-3 -12 -11 -17 -25 -17h-100c-10 0 -14 5 -14 12c0 3 1 6 2 10l193 507c3 11 11 16 24 16h98c13 0 20 -5 24 -16l186 -507c1 -4 2 -7 2 -10c0 -7 -4 -12 -14 -12h-99c-13 0 -21 5 -25 17l-32 90h-188zM330 209l-62 172l-62 -172h124zM172 827h91
c11 0 16 -5 21 -15l76 -154c4 -9 9 -27 -9 -27h-69c-11 0 -17 6 -23 16l-97 157c-7 11 -4 23 10 23z" />
    <glyph glyph-name="Asmallmacron" unicode="&#xe035;" horiz-adv-x="598" 
d="M298 428c-28 0 -56 -10 -75 -31c-16 -19 -26 -45 -26 -79v-43h204v43c0 34 -10 60 -26 79c-20 22 -47 31 -77 31zM533 323v-308c0 -8 -6 -15 -15 -15h-102c-8 0 -15 7 -15 15v146h-204v-146c0 -8 -7 -15 -15 -15h-102c-9 0 -15 7 -15 15v308c0 57 21 120 64 163
c38 38 94 66 169 66c77 0 133 -28 171 -66c43 -43 64 -106 64 -163zM178 761h241c9 0 15 -7 15 -15v-77c0 -9 -6 -16 -15 -16h-241c-9 0 -15 7 -15 16v77c0 8 6 15 15 15z" />
    <glyph glyph-name="Asmallmacron.2" unicode="&#xe036;" horiz-adv-x="598" 
d="M298 428c-28 0 -56 -10 -75 -31c-16 -19 -26 -45 -26 -79v-54h204v54c0 34 -10 60 -26 79c-20 22 -47 31 -77 31zM533 323v-308c0 -8 -6 -15 -15 -15h-102c-8 0 -15 7 -15 15v135h-204v-135c0 -8 -7 -15 -15 -15h-102c-9 0 -15 7 -15 15v308c0 57 21 120 64 163
c38 38 94 66 169 66c77 0 133 -28 171 -66c43 -43 64 -106 64 -163zM178 761h241c9 0 15 -7 15 -15v-77c0 -9 -6 -16 -15 -16h-241c-9 0 -15 7 -15 16v77c0 8 6 15 15 15z" />
    <glyph glyph-name="Asmallmacron.3" unicode="&#xe037;" horiz-adv-x="560" 
d="M263 105c38 0 70 10 100 29v98c-41 -1 -91 -4 -127 -18c-31 -10 -51 -27 -51 -54c0 -21 9 -35 24 -43c14 -9 34 -12 54 -12zM496 338v-323c0 -8 -7 -15 -16 -15h-87c-8 0 -15 7 -15 15v15h-6c-47 -29 -86 -38 -146 -38c-44 0 -86 13 -118 38c-36 28 -59 70 -59 125
c0 75 39 119 95 146c64 30 149 36 218 38v8c0 29 -6 50 -20 64c-15 17 -37 24 -66 24c-57 0 -109 -25 -143 -44c-11 -5 -18 -6 -23 4l-37 81c-4 9 -3 14 6 20c50 31 118 56 208 56c70 0 126 -19 163 -63c30 -34 46 -84 46 -151zM155 761h241c9 0 15 -7 15 -15v-77
c0 -9 -6 -16 -15 -16h-241c-9 0 -15 7 -15 16v77c0 8 6 15 15 15z" />
    <glyph glyph-name="Asmallmacron.calt" unicode="&#xe038;" horiz-adv-x="533" 
d="M173 107l-32 -90c-3 -12 -11 -17 -25 -17h-100c-10 0 -14 5 -14 12c0 3 1 6 2 10l193 507c3 11 11 16 24 16h98c13 0 20 -5 24 -16l186 -507c1 -4 2 -7 2 -10c0 -7 -4 -12 -14 -12h-99c-13 0 -21 5 -25 17l-32 90h-188zM330 209l-62 172l-62 -172h124zM146 761h241
c9 0 15 -7 15 -15v-77c0 -9 -6 -16 -15 -16h-241c-9 0 -15 7 -15 16v77c0 8 6 15 15 15z" />
    <glyph glyph-name="Asmallogonek" unicode="&#xe039;" horiz-adv-x="598" 
d="M317 -119c0 51 42 99 85 127c-1 2 -1 5 -1 7v146h-204v-146c0 -8 -7 -15 -15 -15h-102c-9 0 -15 7 -15 15v308c0 57 21 120 64 163c38 38 94 66 169 66c77 0 133 -28 171 -66c43 -43 64 -106 64 -163v-308c0 -8 -6 -15 -15 -15h-51c-27 -19 -59 -50 -59 -82
c0 -25 18 -35 41 -35c28 0 39 9 53 9c7 0 9 -5 9 -11v-53c0 -9 -3 -12 -9 -14c-24 -11 -52 -17 -80 -17c-53 0 -105 21 -105 84zM298 428c-28 0 -56 -10 -75 -31c-16 -19 -26 -45 -26 -79v-43h204v43c0 34 -10 60 -26 79c-20 22 -47 31 -77 31z" />
    <glyph glyph-name="Asmallogonek.2" unicode="&#xe03a;" horiz-adv-x="598" 
d="M317 -119c0 51 42 99 85 127c-1 2 -1 5 -1 7v135h-204v-135c0 -8 -7 -15 -15 -15h-102c-9 0 -15 7 -15 15v308c0 57 21 120 64 163c38 38 94 66 169 66c77 0 133 -28 171 -66c43 -43 64 -106 64 -163v-308c0 -8 -6 -15 -15 -15h-51c-27 -19 -59 -50 -59 -82
c0 -25 18 -35 41 -35c28 0 39 9 53 9c7 0 9 -5 9 -11v-53c0 -9 -3 -12 -9 -14c-24 -11 -52 -17 -80 -17c-53 0 -105 21 -105 84zM298 428c-28 0 -56 -10 -75 -31c-16 -19 -26 -45 -26 -79v-54h204v54c0 34 -10 60 -26 79c-20 22 -47 31 -77 31z" />
    <glyph glyph-name="Asmallogonek.3" unicode="&#xe03b;" horiz-adv-x="560" 
d="M289 -119c0 52 45 102 89 130v4v15h-6c-47 -29 -86 -38 -146 -38c-44 0 -86 13 -118 38c-36 28 -59 70 -59 125c0 75 39 119 95 146c64 30 149 36 218 38v8c0 29 -6 50 -20 64c-15 17 -37 24 -66 24c-57 0 -109 -25 -143 -44c-11 -5 -18 -6 -23 4l-37 81c-4 9 -3 14 6 20
c50 31 118 56 208 56c70 0 126 -19 163 -63c30 -34 46 -84 46 -151v-323c0 -8 -7 -15 -16 -15h-41c-27 -19 -59 -50 -59 -82c0 -25 18 -35 41 -35c28 0 39 9 53 9c7 0 9 -5 9 -11v-53c0 -9 -3 -12 -9 -14c-24 -11 -52 -17 -80 -17c-53 0 -105 21 -105 84zM263 105
c38 0 70 10 100 29v98c-41 -1 -91 -4 -127 -18c-31 -10 -51 -27 -51 -54c0 -21 9 -35 24 -43c14 -9 34 -12 54 -12z" />
    <glyph glyph-name="Asmallogonek.calt" unicode="&#xe03c;" horiz-adv-x="533" 
d="M313 -119c0 51 42 98 84 127c-2 2 -3 5 -4 9l-32 90h-188l-32 -90c-3 -12 -11 -17 -25 -17h-100c-10 0 -14 5 -14 12c0 3 1 6 2 10l193 507c3 11 11 16 24 16h98c13 0 20 -5 24 -16l186 -507c1 -4 2 -7 2 -10c0 -7 -4 -12 -14 -12h-54c-27 -19 -59 -50 -59 -82
c0 -25 18 -35 41 -35c28 0 39 9 53 9c7 0 9 -5 9 -11v-53c0 -9 -3 -12 -9 -14c-24 -11 -52 -17 -80 -17c-53 0 -105 21 -105 84zM330 209l-62 172l-62 -172h124z" />
    <glyph glyph-name="Asmallring" unicode="&#xe03d;" horiz-adv-x="598" 
d="M298 428c-28 0 -56 -10 -75 -31c-16 -19 -26 -45 -26 -79v-43h204v43c0 34 -10 60 -26 79c-20 22 -47 31 -77 31zM533 323v-308c0 -8 -6 -15 -15 -15h-102c-8 0 -15 7 -15 15v146h-204v-146c0 -8 -7 -15 -15 -15h-102c-9 0 -15 7 -15 15v308c0 57 21 120 64 163
c38 38 94 66 169 66c77 0 133 -28 171 -66c43 -43 64 -106 64 -163zM421 726c0 -66 -55 -120 -121 -120c-68 0 -122 54 -122 120c0 69 54 122 122 122c66 0 121 -53 121 -122zM363 726c0 37 -29 65 -63 65c-36 0 -64 -28 -64 -65c0 -34 28 -63 64 -63c34 0 63 28 63 63z" />
    <glyph glyph-name="Asmallring.2" unicode="&#xe03e;" horiz-adv-x="598" 
d="M298 428c-28 0 -56 -10 -75 -31c-16 -19 -26 -45 -26 -79v-54h204v54c0 34 -10 60 -26 79c-20 22 -47 31 -77 31zM533 323v-308c0 -8 -6 -15 -15 -15h-102c-8 0 -15 7 -15 15v135h-204v-135c0 -8 -7 -15 -15 -15h-102c-9 0 -15 7 -15 15v308c0 57 21 120 64 163
c38 38 94 66 169 66c77 0 133 -28 171 -66c43 -43 64 -106 64 -163zM421 726c0 -66 -55 -120 -121 -120c-68 0 -122 54 -122 120c0 69 54 122 122 122c66 0 121 -53 121 -122zM363 726c0 37 -29 65 -63 65c-36 0 -64 -28 -64 -65c0 -34 28 -63 64 -63c34 0 63 28 63 63z" />
    <glyph glyph-name="Asmallring.3" unicode="&#xe03f;" horiz-adv-x="560" 
d="M263 105c38 0 70 10 100 29v98c-41 -1 -91 -4 -127 -18c-31 -10 -51 -27 -51 -54c0 -21 9 -35 24 -43c14 -9 34 -12 54 -12zM496 338v-323c0 -8 -7 -15 -16 -15h-87c-8 0 -15 7 -15 15v15h-6c-47 -29 -86 -38 -146 -38c-44 0 -86 13 -118 38c-36 28 -59 70 -59 125
c0 75 39 119 95 146c64 30 149 36 218 38v8c0 29 -6 50 -20 64c-15 17 -37 24 -66 24c-57 0 -109 -25 -143 -44c-11 -5 -18 -6 -23 4l-37 81c-4 9 -3 14 6 20c50 31 118 56 208 56c70 0 126 -19 163 -63c30 -34 46 -84 46 -151zM399 726c0 -66 -55 -120 -121 -120
c-68 0 -122 54 -122 120c0 69 54 122 122 122c66 0 121 -53 121 -122zM341 726c0 37 -29 65 -63 65c-36 0 -64 -28 -64 -65c0 -34 28 -63 64 -63c34 0 63 28 63 63z" />
    <glyph glyph-name="Asmallring.calt" unicode="&#xe040;" horiz-adv-x="533" 
d="M173 107l-32 -90c-3 -12 -11 -17 -25 -17h-100c-10 0 -14 5 -14 12c0 3 1 6 2 10l193 507c3 11 11 16 24 16h98c13 0 20 -5 24 -16l186 -507c1 -4 2 -7 2 -10c0 -7 -4 -12 -14 -12h-99c-13 0 -21 5 -25 17l-32 90h-188zM330 209l-62 172l-62 -172h124zM389 726
c0 -66 -55 -120 -121 -120c-68 0 -122 54 -122 120c0 69 54 122 122 122c66 0 121 -53 121 -122zM331 726c0 37 -29 65 -63 65c-36 0 -64 -28 -64 -65c0 -34 28 -63 64 -63c34 0 63 28 63 63z" />
    <glyph glyph-name="Asmalltilde" unicode="&#xe041;" horiz-adv-x="598" 
d="M298 428c-28 0 -56 -10 -75 -31c-16 -19 -26 -45 -26 -79v-43h204v43c0 34 -10 60 -26 79c-20 22 -47 31 -77 31zM533 323v-308c0 -8 -6 -15 -15 -15h-102c-8 0 -15 7 -15 15v146h-204v-146c0 -8 -7 -15 -15 -15h-102c-9 0 -15 7 -15 15v308c0 57 21 120 64 163
c38 38 94 66 169 66c77 0 133 -28 171 -66c43 -43 64 -106 64 -163zM364 744c25 0 34 16 38 37c2 10 7 15 15 15h42c12 0 18 -8 18 -16c0 -74 -33 -127 -101 -127c-29 0 -54 9 -82 30c-20 15 -39 27 -59 27c-26 0 -35 -16 -39 -36c-2 -11 -6 -16 -15 -16h-42
c-12 0 -18 8 -18 17c0 73 34 126 102 126c30 0 54 -10 83 -31c21 -15 38 -26 58 -26z" />
    <glyph glyph-name="Asmalltilde.2" unicode="&#xe042;" horiz-adv-x="598" 
d="M298 428c-28 0 -56 -10 -75 -31c-16 -19 -26 -45 -26 -79v-54h204v54c0 34 -10 60 -26 79c-20 22 -47 31 -77 31zM533 323v-308c0 -8 -6 -15 -15 -15h-102c-8 0 -15 7 -15 15v135h-204v-135c0 -8 -7 -15 -15 -15h-102c-9 0 -15 7 -15 15v308c0 57 21 120 64 163
c38 38 94 66 169 66c77 0 133 -28 171 -66c43 -43 64 -106 64 -163zM364 744c25 0 34 16 38 37c2 10 7 15 15 15h42c12 0 18 -8 18 -16c0 -74 -33 -127 -101 -127c-29 0 -54 9 -82 30c-20 15 -39 27 -59 27c-26 0 -35 -16 -39 -36c-2 -11 -6 -16 -15 -16h-42
c-12 0 -18 8 -18 17c0 73 34 126 102 126c30 0 54 -10 83 -31c21 -15 38 -26 58 -26z" />
    <glyph glyph-name="Asmalltilde.3" unicode="&#xe043;" horiz-adv-x="560" 
d="M263 105c38 0 70 10 100 29v98c-41 -1 -91 -4 -127 -18c-31 -10 -51 -27 -51 -54c0 -21 9 -35 24 -43c14 -9 34 -12 54 -12zM496 338v-323c0 -8 -7 -15 -16 -15h-87c-8 0 -15 7 -15 15v15h-6c-47 -29 -86 -38 -146 -38c-44 0 -86 13 -118 38c-36 28 -59 70 -59 125
c0 75 39 119 95 146c64 30 149 36 218 38v8c0 29 -6 50 -20 64c-15 17 -37 24 -66 24c-57 0 -109 -25 -143 -44c-11 -5 -18 -6 -23 4l-37 81c-4 9 -3 14 6 20c50 31 118 56 208 56c70 0 126 -19 163 -63c30 -34 46 -84 46 -151zM340 744c25 0 34 16 38 37c2 10 7 15 15 15
h42c12 0 18 -8 18 -16c0 -74 -33 -127 -101 -127c-29 0 -54 9 -82 30c-20 15 -39 27 -59 27c-26 0 -35 -16 -39 -36c-2 -11 -6 -16 -15 -16h-42c-12 0 -18 8 -18 17c0 73 34 126 102 126c30 0 54 -10 83 -31c21 -15 38 -26 58 -26z" />
    <glyph glyph-name="Asmalltilde.calt" unicode="&#xe044;" horiz-adv-x="533" 
d="M173 107l-32 -90c-3 -12 -11 -17 -25 -17h-100c-10 0 -14 5 -14 12c0 3 1 6 2 10l193 507c3 11 11 16 24 16h98c13 0 20 -5 24 -16l186 -507c1 -4 2 -7 2 -10c0 -7 -4 -12 -14 -12h-99c-13 0 -21 5 -25 17l-32 90h-188zM330 209l-62 172l-62 -172h124zM332 744
c25 0 34 16 38 37c2 10 7 15 15 15h42c12 0 18 -8 18 -16c0 -74 -33 -127 -101 -127c-29 0 -54 9 -82 30c-20 15 -39 27 -59 27c-26 0 -35 -16 -39 -36c-2 -11 -6 -16 -15 -16h-42c-12 0 -18 8 -18 17c0 73 34 126 102 126c30 0 54 -10 83 -31c21 -15 38 -26 58 -26z" />
    <glyph glyph-name="Atilde" unicode="&#xc3;" horiz-adv-x="693" 
d="M346 556c-36 0 -69 -11 -94 -36c-26 -27 -42 -66 -42 -120v-64h273v64c0 54 -16 93 -41 120c-25 24 -59 36 -96 36zM627 406v-391c0 -8 -7 -15 -15 -15h-114c-8 0 -15 7 -15 15v193h-273v-193c0 -8 -7 -15 -15 -15h-114c-8 0 -15 7 -15 15v391c0 82 32 167 100 223
c44 37 104 61 180 61c77 0 137 -24 181 -61c69 -56 100 -141 100 -223zM411 893c25 0 34 16 38 37c2 10 7 15 15 15h42c12 0 18 -8 18 -16c0 -74 -33 -127 -101 -127c-29 0 -54 9 -82 30c-20 15 -39 27 -59 27c-26 0 -35 -16 -39 -36c-2 -11 -6 -16 -15 -16h-42
c-12 0 -18 8 -18 17c0 73 34 126 102 126c30 0 54 -10 83 -31c21 -15 38 -26 58 -26z" />
    <glyph glyph-name="Atilde.2" unicode="&#xe045;" horiz-adv-x="693" 
d="M346 556c-36 0 -69 -12 -94 -36c-26 -27 -42 -66 -42 -120v-76h273v76c0 54 -16 93 -41 120c-25 24 -59 36 -96 36zM627 406v-391c0 -8 -7 -15 -15 -15h-114c-8 0 -15 7 -15 15v181h-273v-181c0 -8 -7 -15 -15 -15h-114c-8 0 -15 7 -15 15v391c0 82 32 167 100 223
c44 37 104 61 180 61c77 0 137 -24 181 -61c69 -56 100 -141 100 -223zM411 892c25 0 34 16 38 37c2 10 7 15 15 15h42c12 0 18 -8 18 -16c0 -74 -33 -127 -101 -127c-29 0 -54 9 -82 30c-20 15 -39 27 -59 27c-26 0 -35 -16 -39 -36c-2 -11 -6 -16 -15 -16h-42
c-12 0 -18 8 -18 17c0 73 34 126 102 126c30 0 54 -10 83 -31c21 -15 38 -26 58 -26z" />
    <glyph glyph-name="Atilde.3" unicode="&#xe046;" horiz-adv-x="658" 
d="M323 564c-76 0 -154 -37 -189 -55c-11 -5 -18 -6 -23 4l-41 91c-4 9 -3 14 6 20c50 31 145 66 259 66c87 0 156 -24 201 -76c37 -43 57 -104 57 -187v-412c0 -8 -7 -15 -15 -15h-103c-9 0 -16 7 -16 15v25h-5c-52 -35 -96 -50 -189 -50c-52 0 -104 14 -144 44
c-45 34 -75 85 -75 152c0 77 35 130 97 166c72 42 181 61 306 66v9c0 39 -7 77 -31 103s-59 34 -95 34zM201 193c0 -32 14 -53 37 -66c21 -12 49 -18 81 -18c46 0 89 14 130 44v154c-66 -4 -134 -11 -179 -30c-42 -19 -69 -45 -69 -84zM388 893c25 0 34 16 38 37
c2 10 7 15 15 15h42c12 0 18 -8 18 -16c0 -74 -33 -127 -101 -127c-29 0 -54 9 -82 30c-20 15 -39 27 -59 27c-26 0 -35 -16 -39 -36c-2 -11 -6 -16 -15 -16h-42c-12 0 -18 8 -18 17c0 73 34 126 102 126c30 0 54 -10 83 -31c21 -15 38 -26 58 -26z" />
    <glyph glyph-name="Atilde.calt" unicode="&#xe047;" horiz-adv-x="640" 
d="M195 138l-41 -121c-4 -12 -12 -17 -25 -17h-112c-10 0 -14 5 -14 12c0 3 1 6 2 10l233 646c3 12 11 16 24 16h119c13 0 21 -4 24 -16l230 -646c1 -4 2 -7 2 -10c0 -7 -4 -12 -14 -12h-115c-14 0 -22 5 -25 17l-41 121h-247zM407 253l-87 256l-89 -256h176zM385 893
c25 0 34 16 38 37c2 10 7 15 15 15h42c12 0 18 -8 18 -16c0 -74 -33 -127 -101 -127c-29 0 -54 9 -82 30c-20 15 -39 27 -59 27c-26 0 -35 -16 -39 -36c-2 -11 -6 -16 -15 -16h-42c-12 0 -18 8 -18 17c0 73 34 126 102 126c30 0 54 -10 83 -31c21 -15 38 -26 58 -26z" />
    <glyph glyph-name="B" unicode="B" horiz-adv-x="619" 
d="M577 184c0 -127 -114 -184 -228 -184h-266c-9 0 -16 7 -16 15v651c0 8 7 15 16 15h206c57 0 116 -7 166 -43c39 -29 66 -72 66 -130c0 -69 -30 -120 -85 -145v-4c97 -23 141 -85 141 -175zM376 483c0 31 -12 52 -31 65c-16 11 -36 16 -57 16h-77v-160h68c18 0 40 1 59 10
c22 11 38 33 38 69zM430 203c0 31 -14 58 -47 73c-20 10 -46 12 -85 12h-87v-171h107c23 0 46 2 64 10c28 12 48 34 48 76z" />
    <glyph glyph-name="B.2" unicode="&#xe048;" horiz-adv-x="665" 
d="M623 184c0 -127 -114 -184 -228 -184h-312c-9 0 -16 7 -16 15v651c0 8 7 15 16 15h252c57 0 117 -7 166 -43c40 -29 66 -72 66 -130c0 -69 -30 -120 -85 -145v-4c97 -23 141 -85 141 -175zM422 483c0 31 -12 52 -31 65c-16 11 -36 16 -57 16h-123v-160h114
c18 0 40 1 59 10c22 11 38 33 38 69zM476 203c0 31 -14 58 -47 73c-20 10 -46 12 -85 12h-133v-171h153c23 0 46 2 64 10c28 12 48 34 48 76z" />
    <glyph glyph-name="Bsmall" unicode="&#xf762;" horiz-adv-x="539" 
d="M322 0h-242c-9 0 -15 7 -15 15v514c0 8 6 15 15 15h194c45 0 93 -5 132 -35c31 -23 53 -57 53 -104c0 -55 -24 -96 -69 -116v-3c79 -18 114 -66 114 -138c0 -104 -92 -148 -182 -148zM328 380c0 21 -9 35 -24 45c-12 7 -28 10 -44 10h-63v-108h56c14 0 32 0 46 6
c16 8 29 22 29 47zM369 168c0 23 -11 42 -38 54c-15 7 -36 8 -68 8h-66v-123h82c19 0 37 2 52 7c22 9 38 25 38 54z" />
    <glyph glyph-name="Bsmall.2" unicode="&#xe049;" horiz-adv-x="567" 
d="M350 0h-270c-9 0 -15 7 -15 15v514c0 8 6 15 15 15h222c45 0 93 -6 132 -35c31 -23 53 -57 53 -104c0 -55 -24 -96 -69 -116v-3c79 -18 114 -66 114 -138c0 -104 -92 -148 -182 -148zM356 380c0 21 -9 35 -24 45c-12 7 -28 10 -44 10h-91v-108h84c14 0 32 0 46 6
c16 8 29 22 29 47zM397 168c0 23 -11 42 -38 54c-15 7 -36 8 -68 8h-94v-123h110c19 0 37 2 52 7c22 9 38 25 38 54z" />
    <glyph glyph-name="C" unicode="C" horiz-adv-x="654" 
d="M402 -10c-220 0 -362 136 -362 351c0 199 161 349 365 349c96 0 159 -23 206 -47c10 -6 11 -13 7 -21l-46 -96c-4 -9 -12 -10 -20 -6c-42 21 -88 40 -150 40c-115 0 -211 -94 -211 -219c0 -130 92 -220 212 -220c62 0 112 17 155 40c9 4 14 4 18 -5l46 -98
c4 -9 2 -15 -7 -19c-53 -27 -118 -49 -213 -49z" />
    <glyph glyph-name="C.2" unicode="&#xe04a;" horiz-adv-x="695" 
d="M666 513c0 -75 -50 -130 -137 -141c-7 -1 -16 1 -19 8l-34 68c-4 8 1 15 8 18c30 8 38 23 38 40c0 16 -10 30 -27 40c-17 11 -45 17 -78 17c-72 0 -132 -27 -173 -73c-34 -39 -53 -90 -53 -149c0 -66 22 -122 61 -160c40 -38 96 -60 164 -60s135 22 178 44
c7 4 16 3 19 -5l45 -95c3 -7 1 -16 -6 -20c-53 -29 -131 -55 -232 -55c-119 0 -215 34 -281 97c-64 61 -99 147 -99 254c0 94 34 175 91 235c68 71 169 114 283 114c69 0 147 -15 198 -58c32 -28 54 -66 54 -119z" />
    <glyph glyph-name="Cacute" unicode="&#x106;" horiz-adv-x="654" 
d="M402 -10c-220 0 -362 136 -362 351c0 199 161 349 365 349c96 0 159 -23 206 -47c10 -6 11 -13 7 -21l-46 -96c-4 -9 -12 -10 -20 -6c-42 21 -88 40 -150 40c-115 0 -211 -94 -211 -219c0 -130 92 -220 212 -220c62 0 112 17 155 40c9 4 14 4 18 -5l46 -98
c4 -9 2 -15 -7 -19c-53 -27 -118 -49 -213 -49zM372 968h90c13 0 17 -12 11 -23l-98 -157c-6 -10 -12 -16 -23 -16h-68c-18 0 -14 18 -8 29l75 152c5 10 10 15 21 15z" />
    <glyph glyph-name="Cacute.2" unicode="&#xe04b;" horiz-adv-x="695" 
d="M666 513c0 -75 -50 -130 -137 -141c-7 -1 -16 1 -19 8l-34 68c-4 8 1 15 8 18c30 8 38 23 38 40c0 16 -10 30 -27 40c-17 11 -45 17 -78 17c-72 0 -132 -27 -173 -73c-34 -39 -53 -90 -53 -149c0 -66 22 -122 61 -160c40 -38 96 -60 164 -60s135 22 178 44
c7 4 16 3 19 -5l45 -95c3 -7 1 -16 -6 -20c-53 -29 -131 -55 -232 -55c-119 0 -215 34 -281 97c-64 61 -99 147 -99 254c0 94 34 175 91 235c68 71 169 114 283 114c69 0 147 -15 198 -58c32 -28 54 -66 54 -119zM402 968h90c13 0 17 -12 11 -23l-98 -157
c-6 -10 -12 -16 -23 -16h-68c-18 0 -14 18 -8 29l75 152c5 10 10 15 21 15z" />
    <glyph glyph-name="Ccaron" unicode="&#x10c;" horiz-adv-x="654" 
d="M402 -10c-220 0 -362 136 -362 351c0 199 161 349 365 349c96 0 159 -23 206 -47c10 -6 11 -13 7 -21l-46 -96c-4 -9 -12 -10 -20 -6c-42 21 -88 40 -150 40c-115 0 -211 -94 -211 -219c0 -130 92 -220 212 -220c62 0 112 17 155 40c9 4 14 4 18 -5l46 -98
c4 -9 2 -15 -7 -19c-53 -27 -118 -49 -213 -49zM407 772h-46c-11 0 -15 5 -21 12l-144 162c-9 11 -6 22 7 22h83c15 0 19 -4 27 -14l71 -79l70 79c8 10 12 14 27 14h83c13 0 16 -11 7 -22l-144 -162c-6 -7 -9 -12 -20 -12z" />
    <glyph glyph-name="Ccaron.2" unicode="&#xe04c;" horiz-adv-x="695" 
d="M666 513c0 -75 -50 -130 -137 -141c-7 -1 -16 1 -19 8l-34 68c-4 8 1 15 8 18c30 8 38 23 38 40c0 16 -10 30 -27 40c-17 11 -45 17 -78 17c-72 0 -132 -27 -173 -73c-34 -39 -53 -90 -53 -149c0 -66 22 -122 61 -160c40 -38 96 -60 164 -60s135 22 178 44
c7 4 16 3 19 -5l45 -95c3 -7 1 -16 -6 -20c-53 -29 -131 -55 -232 -55c-119 0 -215 34 -281 97c-64 61 -99 147 -99 254c0 94 34 175 91 235c68 71 169 114 283 114c69 0 147 -15 198 -58c32 -28 54 -66 54 -119zM416 772h-46c-11 0 -15 5 -21 12l-144 162c-9 11 -6 22 7 22
h83c15 0 19 -4 27 -14l71 -79l70 79c8 10 12 14 27 14h83c13 0 16 -11 7 -22l-144 -162c-6 -7 -9 -12 -20 -12z" />
    <glyph glyph-name="Ccedilla" unicode="&#xc7;" horiz-adv-x="654" 
d="M523 -114c0 -80 -81 -101 -147 -101c-17 0 -31 1 -45 4c-6 1 -12 5 -12 12v40c0 7 5 12 12 12c9 0 22 -3 39 -3c31 0 66 8 66 40c0 22 -22 32 -55 32c-9 0 -16 0 -25 -1l6 71c-197 15 -322 147 -322 349c0 199 161 349 365 349c96 0 159 -23 206 -47c10 -6 11 -13 7 -21
l-46 -96c-4 -9 -12 -10 -20 -6c-42 21 -88 40 -150 40c-115 0 -211 -94 -211 -219c0 -130 92 -220 212 -220c62 0 112 17 155 40c9 4 14 4 18 -5l46 -98c4 -9 2 -15 -7 -19c-48 -24 -105 -44 -184 -48v-20c59 -6 92 -41 92 -85z" />
    <glyph glyph-name="Ccedilla.2" unicode="&#xe04d;" horiz-adv-x="695" 
d="M539 -114c0 -80 -81 -101 -147 -101c-17 0 -31 1 -45 4c-6 1 -12 5 -12 12v40c0 7 5 12 12 12c9 0 22 -3 39 -3c31 0 66 8 66 40c0 22 -22 32 -55 32c-9 0 -16 0 -25 -1l5 71c-99 7 -180 39 -238 95c-64 61 -99 147 -99 254c0 94 34 175 91 235c68 71 169 114 283 114
c69 0 147 -15 198 -58c32 -28 54 -66 54 -119c0 -75 -50 -130 -137 -141c-7 -1 -16 1 -19 8l-34 68c-4 8 1 15 8 18c30 8 38 23 38 40c0 16 -10 30 -27 40c-17 11 -45 17 -78 17c-72 0 -132 -27 -173 -73c-34 -39 -53 -90 -53 -149c0 -66 22 -122 61 -160
c40 -38 96 -60 164 -60s135 22 178 44c7 4 16 3 19 -5l45 -95c3 -7 1 -16 -6 -20c-48 -27 -117 -50 -205 -54v-20c59 -6 92 -41 92 -85z" />
    <glyph glyph-name="Csmall" unicode="&#xf763;" horiz-adv-x="528" 
d="M335 114c44 0 82 14 116 32c7 4 16 2 19 -6l41 -84c3 -7 1 -16 -6 -20c-46 -25 -100 -44 -176 -44c-83 0 -156 26 -208 75s-84 119 -84 206c0 72 28 135 74 184c54 58 134 95 220 95c76 0 126 -17 169 -41c7 -3 10 -13 6 -19l-40 -84c-4 -8 -12 -10 -19 -6
c-38 19 -68 29 -110 29c-54 0 -97 -21 -125 -55c-23 -28 -37 -63 -37 -103c0 -48 17 -88 46 -115c27 -28 68 -44 114 -44z" />
    <glyph glyph-name="Csmall.2" unicode="&#xe04e;" horiz-adv-x="546" 
d="M336 432c-48 0 -95 -21 -124 -55c-23 -28 -37 -63 -37 -103c0 -49 17 -89 46 -117c30 -27 70 -43 115 -43c50 0 98 16 133 35c7 3 15 1 19 -6l40 -85c4 -7 1 -16 -6 -20c-45 -26 -102 -46 -184 -46c-85 0 -163 26 -216 75c-54 49 -85 119 -85 207c0 70 27 134 71 182
c54 60 136 97 225 97c51 0 112 -15 151 -50c26 -23 44 -55 44 -97c0 -67 -40 -106 -106 -115c-8 -1 -16 0 -19 7l-25 48c-4 8 0 14 8 18c16 5 24 13 24 27c0 11 -6 20 -17 27c-12 9 -31 14 -57 14z" />
    <glyph glyph-name="Csmallacute" unicode="&#xe04f;" horiz-adv-x="528" 
d="M335 114c44 0 82 14 116 32c7 4 16 2 19 -6l41 -84c3 -7 1 -16 -6 -20c-46 -25 -100 -44 -176 -44c-83 0 -156 26 -208 75s-84 119 -84 206c0 72 28 135 74 184c54 58 134 95 220 95c76 0 126 -17 169 -41c7 -3 10 -13 6 -19l-40 -84c-4 -8 -12 -10 -19 -6
c-38 19 -68 29 -110 29c-54 0 -97 -21 -125 -55c-23 -28 -37 -63 -37 -103c0 -48 17 -88 46 -115c27 -28 68 -44 114 -44zM310 827h90c13 0 17 -12 11 -23l-98 -157c-6 -10 -12 -16 -23 -16h-68c-18 0 -14 18 -8 29l75 152c5 10 10 15 21 15z" />
    <glyph glyph-name="Csmallacute.2" unicode="&#xe050;" horiz-adv-x="546" 
d="M336 432c-48 0 -95 -21 -124 -55c-23 -28 -37 -63 -37 -103c0 -49 17 -89 46 -117c30 -27 70 -43 115 -43c50 0 98 16 133 35c7 3 15 1 19 -6l40 -85c4 -7 1 -16 -6 -20c-45 -26 -102 -46 -184 -46c-85 0 -163 26 -216 75c-54 49 -85 119 -85 207c0 70 27 134 71 182
c54 60 136 97 225 97c51 0 112 -15 151 -50c26 -23 44 -55 44 -97c0 -67 -40 -106 -106 -115c-8 -1 -16 0 -19 7l-25 48c-4 8 0 14 8 18c16 5 24 13 24 27c0 11 -6 20 -17 27c-12 9 -31 14 -57 14zM329 827h90c13 0 17 -12 11 -23l-98 -157c-6 -10 -12 -16 -23 -16h-68
c-18 0 -14 18 -8 29l75 152c5 10 10 15 21 15z" />
    <glyph glyph-name="Csmallcaron" unicode="&#xe051;" horiz-adv-x="528" 
d="M335 114c44 0 82 14 116 32c7 4 16 2 19 -6l41 -84c3 -7 1 -16 -6 -20c-46 -25 -100 -44 -176 -44c-83 0 -156 26 -208 75s-84 119 -84 206c0 72 28 135 74 184c54 58 134 95 220 95c76 0 126 -17 169 -41c7 -3 10 -13 6 -19l-40 -84c-4 -8 -12 -10 -19 -6
c-38 19 -68 29 -110 29c-54 0 -97 -21 -125 -55c-23 -28 -37 -63 -37 -103c0 -48 17 -88 46 -115c27 -28 68 -44 114 -44zM334 630h-46c-11 0 -15 5 -21 12l-144 162c-9 11 -6 22 7 22h83c15 0 19 -4 27 -14l71 -79l70 79c8 10 12 14 27 14h83c13 0 16 -11 7 -22l-144 -162
c-6 -7 -9 -12 -20 -12z" />
    <glyph glyph-name="Csmallcaron.2" unicode="&#xe052;" horiz-adv-x="546" 
d="M336 432c-48 0 -95 -21 -124 -55c-23 -28 -37 -63 -37 -103c0 -49 17 -89 46 -117c30 -27 70 -43 115 -43c50 0 98 16 133 35c7 3 15 1 19 -6l40 -85c4 -7 1 -16 -6 -20c-45 -26 -102 -46 -184 -46c-85 0 -163 26 -216 75c-54 49 -85 119 -85 207c0 70 27 134 71 182
c54 60 136 97 225 97c51 0 112 -15 151 -50c26 -23 44 -55 44 -97c0 -67 -40 -106 -106 -115c-8 -1 -16 0 -19 7l-25 48c-4 8 0 14 8 18c16 5 24 13 24 27c0 11 -6 20 -17 27c-12 9 -31 14 -57 14zM344 630h-46c-11 0 -15 5 -21 12l-144 162c-9 11 -6 22 7 22h83
c15 0 19 -4 27 -14l71 -79l70 79c8 10 12 14 27 14h83c13 0 16 -11 7 -22l-144 -162c-6 -7 -9 -12 -20 -12z" />
    <glyph glyph-name="Csmallcedilla" unicode="&#xe053;" horiz-adv-x="528" 
d="M439 -114c0 -80 -81 -101 -147 -101c-17 0 -31 1 -45 4c-6 1 -12 5 -12 12v40c0 7 5 12 12 12c9 0 22 -3 39 -3c31 0 66 8 66 40c0 22 -22 32 -55 32c-9 0 -16 0 -25 -1l6 75c-62 8 -116 32 -157 71c-52 49 -84 119 -84 206c0 72 28 135 74 184c54 58 134 95 220 95
c76 0 126 -17 169 -41c7 -3 10 -13 6 -19l-40 -84c-4 -8 -12 -10 -19 -6c-38 19 -68 29 -110 29c-54 0 -97 -21 -125 -55c-23 -28 -37 -63 -37 -103c0 -48 17 -88 46 -115c27 -28 68 -44 114 -44c44 0 82 14 116 32c7 4 16 2 19 -6l41 -84c3 -7 1 -16 -6 -20
c-42 -23 -92 -40 -158 -43v-22c59 -6 92 -41 92 -85z" />
    <glyph glyph-name="Csmallcedilla.2" unicode="&#xe054;" horiz-adv-x="546" 
d="M453 -114c0 -80 -81 -101 -147 -101c-17 0 -31 1 -45 4c-6 1 -12 5 -12 12v40c0 7 5 12 12 12c9 0 22 -3 39 -3c31 0 66 8 66 40c0 22 -22 32 -55 32c-9 0 -16 0 -25 -1l6 74c-67 7 -127 32 -170 72c-54 49 -85 119 -85 207c0 70 27 134 71 182c54 60 136 97 225 97
c51 0 112 -15 151 -50c26 -23 44 -55 44 -97c0 -67 -40 -106 -106 -115c-8 -1 -16 0 -19 7l-25 48c-4 8 0 14 8 18c16 5 24 13 24 27c0 11 -6 20 -17 27c-12 9 -31 14 -57 14c-48 0 -95 -21 -124 -55c-23 -28 -37 -63 -37 -103c0 -49 17 -89 46 -117c30 -27 70 -43 115 -43
c50 0 98 16 133 35c7 3 15 1 19 -6l40 -85c4 -7 1 -16 -6 -20c-41 -24 -91 -42 -161 -45v-22c59 -6 92 -41 92 -85z" />
    <glyph glyph-name="D" unicode="D" horiz-adv-x="742" 
d="M701 341c0 -123 -44 -231 -152 -292c-70 -39 -149 -49 -224 -49h-242c-9 0 -16 7 -16 15v651c0 8 7 15 16 15h255c105 0 202 -20 281 -104c50 -53 82 -130 82 -236zM211 560v-439h104c51 0 98 8 137 27c72 36 102 106 102 193c0 70 -19 120 -52 155
c-41 44 -106 64 -184 64h-107z" />
    <glyph glyph-name="Dcaron" unicode="&#x10e;" horiz-adv-x="742" 
d="M701 341c0 -123 -44 -231 -152 -292c-70 -39 -149 -49 -224 -49h-242c-9 0 -16 7 -16 15v651c0 8 7 15 16 15h255c105 0 202 -20 281 -104c50 -53 82 -130 82 -236zM211 560v-439h104c51 0 98 8 137 27c72 36 102 106 102 193c0 70 -19 120 -52 155
c-41 44 -106 64 -184 64h-107zM389 772h-46c-11 0 -15 5 -21 12l-144 162c-9 11 -6 22 7 22h83c15 0 19 -4 27 -14l71 -79l70 79c8 10 12 14 27 14h83c13 0 16 -11 7 -22l-144 -162c-6 -7 -9 -12 -20 -12z" />
    <glyph glyph-name="Dcroat" unicode="&#x110;" horiz-adv-x="753" 
d="M712 341c0 -123 -45 -231 -152 -292c-70 -39 -149 -49 -225 -49h-242c-8 0 -15 7 -15 15v264h-68c-8 0 -15 6 -15 15v93c0 9 7 16 15 16h68v263c0 8 7 15 15 15h256c104 0 201 -20 280 -104c50 -53 83 -130 83 -236zM222 560v-157h118c8 0 15 -7 15 -16v-93
c0 -9 -7 -15 -15 -15h-118v-158h103c52 0 99 8 137 27c74 36 103 106 103 193c0 70 -19 120 -52 155c-42 44 -106 64 -185 64h-106z" />
    <glyph glyph-name="Delta" unicode="&#x2206;" horiz-adv-x="630" 
d="M315 476l-122 -351h245zM579 0h-528c-9 0 -16 6 -16 15v49c0 8 1 15 4 22l200 581c3 10 12 14 20 14h111c9 0 17 -4 20 -14l201 -581c2 -7 3 -14 3 -22v-49c0 -9 -6 -15 -15 -15z" />
    <glyph glyph-name="Dsmall" unicode="&#xf764;" horiz-adv-x="613" 
d="M274 0h-194c-9 0 -15 7 -15 15v514c0 8 6 15 15 15h205c84 0 160 -17 224 -84c40 -41 66 -103 66 -188c0 -98 -36 -185 -122 -233c-56 -31 -118 -39 -179 -39zM197 429v-316h69c38 0 71 6 99 19c52 26 74 77 74 139c0 50 -14 87 -38 112c-30 32 -76 46 -132 46h-72z" />
    <glyph glyph-name="Dsmallcaron" unicode="&#xe055;" horiz-adv-x="614" 
d="M274 0h-194c-9 0 -15 7 -15 15v514c0 8 6 15 15 15h205c84 0 160 -17 224 -84c40 -41 66 -103 66 -188c0 -98 -36 -185 -122 -233c-56 -31 -118 -39 -179 -39zM197 429v-316h69c38 0 71 6 99 19c52 26 74 77 74 139c0 50 -14 87 -38 112c-30 32 -76 46 -132 46h-72z
M319 630h-46c-11 0 -15 5 -21 12l-144 162c-9 11 -6 22 7 22h83c15 0 19 -4 27 -14l71 -79l70 79c8 10 12 14 27 14h83c13 0 16 -11 7 -22l-144 -162c-6 -7 -9 -12 -20 -12z" />
    <glyph glyph-name="E" unicode="E" horiz-adv-x="618" 
d="M83 681h482c9 0 16 -7 16 -15v-98c0 -8 -7 -15 -16 -15h-354v-147h302c8 0 15 -7 15 -15v-97c0 -9 -7 -16 -15 -16h-302v-151h354c9 0 16 -6 16 -15v-97c0 -8 -7 -15 -16 -15h-482c-9 0 -16 7 -16 15v651c0 8 7 15 16 15z" />
    <glyph glyph-name="E.1" unicode="&#xe056;" horiz-adv-x="578" 
d="M526 553h-188c-50 0 -88 -13 -111 -37c-25 -27 -28 -62 -28 -98v-11h274c9 0 15 -7 15 -16v-97c0 -8 -6 -15 -15 -15h-274v-17c0 -35 3 -70 28 -97c23 -25 61 -38 111 -38h188c9 0 15 -6 15 -15v-97c0 -8 -6 -15 -15 -15h-190c-87 0 -160 17 -212 71
c-56 58 -71 134 -71 234v70c0 101 15 176 71 234c52 54 125 72 212 72h190c9 0 15 -7 15 -15v-98c0 -8 -6 -15 -15 -15z" />
    <glyph glyph-name="E.2" unicode="&#xe057;" horiz-adv-x="642" 
d="M83 681h506c9 0 16 -7 16 -15v-98c0 -8 -7 -15 -16 -15h-378v-187h326c8 0 15 -7 15 -15v-97c0 -9 -7 -16 -15 -16h-326v-111h378c9 0 16 -6 16 -15v-97c0 -8 -7 -15 -16 -15h-506c-9 0 -16 7 -16 15v651c0 8 7 15 16 15z" />
    <glyph glyph-name="E.3" unicode="&#xe058;" horiz-adv-x="727" 
d="M202 414h337c-10 88 -71 144 -165 144c-91 0 -153 -57 -172 -144zM40 348c0 91 29 181 95 248c54 56 136 94 237 94c118 0 201 -44 253 -113c44 -57 66 -134 67 -219c0 -17 -1 -34 -2 -51c-1 -12 -6 -16 -18 -16h-468c7 -50 28 -95 67 -126c35 -29 80 -44 132 -44
c66 0 136 18 195 56c10 7 18 4 22 -4l43 -93c4 -10 2 -16 -6 -20c-81 -47 -154 -68 -259 -68c-121 0 -203 35 -262 94c-64 63 -96 155 -96 262z" />
    <glyph glyph-name="Eacute" unicode="&#xc9;" horiz-adv-x="618" 
d="M83 681h482c9 0 16 -7 16 -15v-98c0 -8 -7 -15 -16 -15h-354v-147h302c8 0 15 -7 15 -15v-97c0 -9 -7 -16 -15 -16h-302v-151h354c9 0 16 -6 16 -15v-97c0 -8 -7 -15 -16 -15h-482c-9 0 -16 7 -16 15v651c0 8 7 15 16 15zM339 968h90c13 0 17 -12 11 -23l-98 -157
c-6 -10 -12 -16 -23 -16h-68c-18 0 -14 18 -8 29l75 152c5 10 10 15 21 15z" />
    <glyph glyph-name="Eacute.1" unicode="&#xe059;" horiz-adv-x="578" 
d="M526 553h-188c-50 0 -88 -13 -111 -37c-25 -27 -28 -62 -28 -98v-11h274c9 0 15 -7 15 -16v-97c0 -8 -6 -15 -15 -15h-274v-17c0 -35 3 -70 28 -97c23 -25 61 -38 111 -38h188c9 0 15 -6 15 -15v-97c0 -8 -6 -15 -15 -15h-190c-87 0 -160 17 -212 71
c-56 58 -71 134 -71 234v70c0 101 15 176 71 234c52 54 125 72 212 72h190c9 0 15 -7 15 -15v-98c0 -8 -6 -15 -15 -15zM328 968h90c13 0 17 -12 11 -23l-98 -157c-6 -10 -12 -16 -23 -16h-68c-18 0 -14 18 -8 29l75 152c5 10 10 15 21 15z" />
    <glyph glyph-name="Eacute.2" unicode="&#xe05a;" horiz-adv-x="642" 
d="M83 681h506c9 0 16 -7 16 -15v-98c0 -8 -7 -15 -16 -15h-378v-187h326c8 0 15 -7 15 -15v-97c0 -9 -7 -16 -15 -16h-326v-111h378c9 0 16 -6 16 -15v-97c0 -8 -7 -15 -16 -15h-506c-9 0 -16 7 -16 15v651c0 8 7 15 16 15zM362 968h90c13 0 17 -12 11 -23l-98 -157
c-6 -10 -12 -16 -23 -16h-68c-18 0 -14 18 -8 29l75 152c5 10 10 15 21 15z" />
    <glyph glyph-name="Eacute.3" unicode="&#xe05b;" horiz-adv-x="727" 
d="M202 414h337c-10 88 -71 144 -165 144c-91 0 -153 -57 -172 -144zM40 348c0 91 29 181 95 248c54 56 136 94 237 94c118 0 201 -44 253 -113c44 -57 66 -134 67 -219c0 -17 -1 -34 -2 -51c-1 -12 -6 -16 -18 -16h-468c7 -50 28 -95 67 -126c35 -29 80 -44 132 -44
c66 0 136 18 195 56c10 7 18 4 22 -4l43 -93c4 -10 2 -16 -6 -20c-81 -47 -154 -68 -259 -68c-121 0 -203 35 -262 94c-64 63 -96 155 -96 262zM384 968h90c13 0 17 -12 11 -23l-98 -157c-6 -10 -12 -16 -23 -16h-68c-18 0 -14 18 -8 29l75 152c5 10 10 15 21 15z" />
    <glyph glyph-name="Ecaron" unicode="&#x11a;" horiz-adv-x="618" 
d="M83 681h482c9 0 16 -7 16 -15v-98c0 -8 -7 -15 -16 -15h-354v-147h302c8 0 15 -7 15 -15v-97c0 -9 -7 -16 -15 -16h-302v-151h354c9 0 16 -6 16 -15v-97c0 -8 -7 -15 -16 -15h-482c-9 0 -16 7 -16 15v651c0 8 7 15 16 15zM352 772h-46c-11 0 -15 5 -21 12l-144 162
c-9 11 -6 22 7 22h83c15 0 19 -4 27 -14l71 -79l70 79c8 10 12 14 27 14h83c13 0 16 -11 7 -22l-144 -162c-6 -7 -9 -12 -20 -12z" />
    <glyph glyph-name="Ecaron.1" unicode="&#xe05c;" horiz-adv-x="578" 
d="M526 553h-188c-50 0 -88 -13 -111 -37c-25 -27 -28 -62 -28 -98v-11h274c9 0 15 -7 15 -16v-97c0 -8 -6 -15 -15 -15h-274v-17c0 -35 3 -70 28 -97c23 -25 61 -38 111 -38h188c9 0 15 -6 15 -15v-97c0 -8 -6 -15 -15 -15h-190c-87 0 -160 17 -212 71
c-56 58 -71 134 -71 234v70c0 101 15 176 71 234c52 54 125 72 212 72h190c9 0 15 -7 15 -15v-98c0 -8 -6 -15 -15 -15zM362 772h-46c-11 0 -15 5 -21 12l-144 162c-9 11 -6 22 7 22h83c15 0 19 -4 27 -14l71 -79l70 79c8 10 12 14 27 14h83c13 0 16 -11 7 -22l-144 -162
c-6 -7 -9 -12 -20 -12z" />
    <glyph glyph-name="Ecaron.2" unicode="&#xe05d;" horiz-adv-x="642" 
d="M83 681h506c9 0 16 -7 16 -15v-98c0 -8 -7 -15 -16 -15h-378v-187h326c8 0 15 -7 15 -15v-97c0 -9 -7 -16 -15 -16h-326v-111h378c9 0 16 -6 16 -15v-97c0 -8 -7 -15 -16 -15h-506c-9 0 -16 7 -16 15v651c0 8 7 15 16 15zM379 772h-46c-11 0 -15 5 -21 12l-144 162
c-9 11 -6 22 7 22h83c15 0 19 -4 27 -14l71 -79l70 79c8 10 12 14 27 14h83c13 0 16 -11 7 -22l-144 -162c-6 -7 -9 -12 -20 -12z" />
    <glyph glyph-name="Ecaron.3" unicode="&#xe05e;" horiz-adv-x="727" 
d="M202 414h337c-10 88 -71 144 -165 144c-91 0 -153 -57 -172 -144zM40 348c0 91 29 181 95 248c54 56 136 94 237 94c118 0 201 -44 253 -113c44 -57 66 -134 67 -219c0 -17 -1 -34 -2 -51c-1 -12 -6 -16 -18 -16h-468c7 -50 28 -95 67 -126c35 -29 80 -44 132 -44
c66 0 136 18 195 56c10 7 18 4 22 -4l43 -93c4 -10 2 -16 -6 -20c-81 -47 -154 -68 -259 -68c-121 0 -203 35 -262 94c-64 63 -96 155 -96 262zM402 772h-46c-11 0 -15 5 -21 12l-144 162c-9 11 -6 22 7 22h83c15 0 19 -4 27 -14l71 -79l70 79c8 10 12 14 27 14h83
c13 0 16 -11 7 -22l-144 -162c-6 -7 -9 -12 -20 -12z" />
    <glyph glyph-name="Ecircumflex" unicode="&#xca;" horiz-adv-x="618" 
d="M83 681h482c9 0 16 -7 16 -15v-98c0 -8 -7 -15 -16 -15h-354v-147h302c8 0 15 -7 15 -15v-97c0 -9 -7 -16 -15 -16h-302v-151h354c9 0 16 -6 16 -15v-97c0 -8 -7 -15 -16 -15h-482c-9 0 -16 7 -16 15v651c0 8 7 15 16 15zM293 968h46c11 0 14 -4 20 -11l144 -163
c9 -11 6 -22 -7 -22h-83c-15 0 -19 4 -27 15l-70 79l-71 -79c-8 -11 -12 -15 -27 -15h-83c-13 0 -16 11 -7 22l144 163c6 7 10 11 21 11z" />
    <glyph glyph-name="Ecircumflex.1" unicode="&#xe05f;" horiz-adv-x="578" 
d="M526 553h-188c-50 0 -88 -13 -111 -37c-25 -27 -28 -62 -28 -98v-11h274c9 0 15 -7 15 -16v-97c0 -8 -6 -15 -15 -15h-274v-17c0 -35 3 -70 28 -97c23 -25 61 -38 111 -38h188c9 0 15 -6 15 -15v-97c0 -8 -6 -15 -15 -15h-190c-87 0 -160 17 -212 71
c-56 58 -71 134 -71 234v70c0 101 15 176 71 234c52 54 125 72 212 72h190c9 0 15 -7 15 -15v-98c0 -8 -6 -15 -15 -15zM298 968h46c11 0 14 -4 20 -11l144 -163c9 -11 6 -22 -7 -22h-83c-15 0 -19 4 -27 15l-70 79l-71 -79c-8 -11 -12 -15 -27 -15h-83c-13 0 -16 11 -7 22
l144 163c6 7 10 11 21 11z" />
    <glyph glyph-name="Ecircumflex.2" unicode="&#xe060;" horiz-adv-x="642" 
d="M83 681h506c9 0 16 -7 16 -15v-98c0 -8 -7 -15 -16 -15h-378v-187h326c8 0 15 -7 15 -15v-97c0 -9 -7 -16 -15 -16h-326v-111h378c9 0 16 -6 16 -15v-97c0 -8 -7 -15 -16 -15h-506c-9 0 -16 7 -16 15v651c0 8 7 15 16 15zM321 968h46c11 0 14 -4 20 -11l144 -163
c9 -11 6 -22 -7 -22h-83c-15 0 -19 4 -27 15l-70 79l-71 -79c-8 -11 -12 -15 -27 -15h-83c-13 0 -16 11 -7 22l144 163c6 7 10 11 21 11z" />
    <glyph glyph-name="Ecircumflex.3" unicode="&#xe061;" horiz-adv-x="727" 
d="M202 414h337c-10 88 -71 144 -165 144c-91 0 -153 -57 -172 -144zM40 348c0 91 29 181 95 248c54 56 136 94 237 94c118 0 201 -44 253 -113c44 -57 66 -134 67 -219c0 -17 -1 -34 -2 -51c-1 -12 -6 -16 -18 -16h-468c7 -50 28 -95 67 -126c35 -29 80 -44 132 -44
c66 0 136 18 195 56c10 7 18 4 22 -4l43 -93c4 -10 2 -16 -6 -20c-81 -47 -154 -68 -259 -68c-121 0 -203 35 -262 94c-64 63 -96 155 -96 262zM358 968h46c11 0 14 -4 20 -11l144 -163c9 -11 6 -22 -7 -22h-83c-15 0 -19 4 -27 15l-70 79l-71 -79c-8 -11 -12 -15 -27 -15
h-83c-13 0 -16 11 -7 22l144 163c6 7 10 11 21 11z" />
    <glyph glyph-name="Edieresis" unicode="&#xcb;" horiz-adv-x="618" 
d="M83 681h482c9 0 16 -7 16 -15v-98c0 -8 -7 -15 -16 -15h-354v-147h302c8 0 15 -7 15 -15v-97c0 -9 -7 -16 -15 -16h-302v-151h354c9 0 16 -6 16 -15v-97c0 -8 -7 -15 -16 -15h-482c-9 0 -16 7 -16 15v651c0 8 7 15 16 15zM209 784c-43 0 -76 35 -76 77s33 76 76 76
c42 0 76 -34 76 -76s-34 -77 -76 -77zM441 784c-43 0 -76 35 -76 77s33 76 76 76c42 0 75 -34 75 -76s-33 -77 -75 -77z" />
    <glyph glyph-name="Edieresis.1" unicode="&#xe062;" horiz-adv-x="578" 
d="M526 553h-188c-50 0 -88 -13 -111 -37c-25 -27 -28 -62 -28 -98v-11h274c9 0 15 -7 15 -16v-97c0 -8 -6 -15 -15 -15h-274v-17c0 -35 3 -70 28 -97c23 -25 61 -38 111 -38h188c9 0 15 -6 15 -15v-97c0 -8 -6 -15 -15 -15h-190c-87 0 -160 17 -212 71
c-56 58 -71 134 -71 234v70c0 101 15 176 71 234c52 54 125 72 212 72h190c9 0 15 -7 15 -15v-98c0 -8 -6 -15 -15 -15zM195 784c-43 0 -76 35 -76 77s33 76 76 76c42 0 76 -34 76 -76s-34 -77 -76 -77zM427 784c-43 0 -76 35 -76 77s33 76 76 76c42 0 75 -34 75 -76
s-33 -77 -75 -77z" />
    <glyph glyph-name="Edieresis.2" unicode="&#xe063;" horiz-adv-x="642" 
d="M83 681h506c9 0 16 -7 16 -15v-98c0 -8 -7 -15 -16 -15h-378v-187h326c8 0 15 -7 15 -15v-97c0 -9 -7 -16 -15 -16h-326v-111h378c9 0 16 -6 16 -15v-97c0 -8 -7 -15 -16 -15h-506c-9 0 -16 7 -16 15v651c0 8 7 15 16 15zM231 784c-43 0 -76 35 -76 77s33 76 76 76
c42 0 76 -34 76 -76s-34 -77 -76 -77zM463 784c-43 0 -76 35 -76 77s33 76 76 76c42 0 75 -34 75 -76s-33 -77 -75 -77z" />
    <glyph glyph-name="Edieresis.3" unicode="&#xe064;" horiz-adv-x="727" 
d="M202 414h337c-10 88 -71 144 -165 144c-91 0 -153 -57 -172 -144zM40 348c0 91 29 181 95 248c54 56 136 94 237 94c118 0 201 -44 253 -113c44 -57 66 -134 67 -219c0 -17 -1 -34 -2 -51c-1 -12 -6 -16 -18 -16h-468c7 -50 28 -95 67 -126c35 -29 80 -44 132 -44
c66 0 136 18 195 56c10 7 18 4 22 -4l43 -93c4 -10 2 -16 -6 -20c-81 -47 -154 -68 -259 -68c-121 0 -203 35 -262 94c-64 63 -96 155 -96 262zM261 784c-43 0 -76 35 -76 77s33 76 76 76c42 0 76 -34 76 -76s-34 -77 -76 -77zM493 784c-43 0 -76 35 -76 77s33 76 76 76
c42 0 75 -34 75 -76s-33 -77 -75 -77z" />
    <glyph glyph-name="Edotaccent" unicode="&#x116;" horiz-adv-x="618" 
d="M83 681h482c9 0 16 -7 16 -15v-98c0 -8 -7 -15 -16 -15h-354v-147h302c8 0 15 -7 15 -15v-97c0 -9 -7 -16 -15 -16h-302v-151h354c9 0 16 -6 16 -15v-97c0 -8 -7 -15 -16 -15h-482c-9 0 -16 7 -16 15v651c0 8 7 15 16 15zM328 790c-43 0 -76 34 -76 76s33 76 76 76
c42 0 75 -34 75 -76s-33 -76 -75 -76z" />
    <glyph glyph-name="Edotaccent.1" unicode="&#xe065;" horiz-adv-x="578" 
d="M526 553h-188c-50 0 -88 -13 -111 -37c-25 -27 -28 -62 -28 -98v-11h274c9 0 15 -7 15 -16v-97c0 -8 -6 -15 -15 -15h-274v-17c0 -35 3 -70 28 -97c23 -25 61 -38 111 -38h188c9 0 15 -6 15 -15v-97c0 -8 -6 -15 -15 -15h-190c-87 0 -160 17 -212 71
c-56 58 -71 134 -71 234v70c0 101 15 176 71 234c52 54 125 72 212 72h190c9 0 15 -7 15 -15v-98c0 -8 -6 -15 -15 -15zM340 790c-43 0 -76 34 -76 76s33 76 76 76c42 0 75 -34 75 -76s-33 -76 -75 -76z" />
    <glyph glyph-name="Edotaccent.2" unicode="&#xe066;" horiz-adv-x="642" 
d="M83 681h506c9 0 16 -7 16 -15v-98c0 -8 -7 -15 -16 -15h-378v-187h326c8 0 15 -7 15 -15v-97c0 -9 -7 -16 -15 -16h-326v-111h378c9 0 16 -6 16 -15v-97c0 -8 -7 -15 -16 -15h-506c-9 0 -16 7 -16 15v651c0 8 7 15 16 15zM341 790c-43 0 -76 34 -76 76s33 76 76 76
c42 0 75 -34 75 -76s-33 -76 -75 -76z" />
    <glyph glyph-name="Edotaccent.3" unicode="&#xe067;" horiz-adv-x="727" 
d="M202 414h337c-10 88 -71 144 -165 144c-91 0 -153 -57 -172 -144zM40 348c0 91 29 181 95 248c54 56 136 94 237 94c118 0 201 -44 253 -113c44 -57 66 -134 67 -219c0 -17 -1 -34 -2 -51c-1 -12 -6 -16 -18 -16h-468c7 -50 28 -95 67 -126c35 -29 80 -44 132 -44
c66 0 136 18 195 56c10 7 18 4 22 -4l43 -93c4 -10 2 -16 -6 -20c-81 -47 -154 -68 -259 -68c-121 0 -203 35 -262 94c-64 63 -96 155 -96 262zM375 790c-43 0 -76 34 -76 76s33 76 76 76c42 0 75 -34 75 -76s-33 -76 -75 -76z" />
    <glyph glyph-name="Egrave" unicode="&#xc8;" horiz-adv-x="618" 
d="M83 681h482c9 0 16 -7 16 -15v-98c0 -8 -7 -15 -16 -15h-354v-147h302c8 0 15 -7 15 -15v-97c0 -9 -7 -16 -15 -16h-302v-151h354c9 0 16 -6 16 -15v-97c0 -8 -7 -15 -16 -15h-482c-9 0 -16 7 -16 15v651c0 8 7 15 16 15zM211 968h91c11 0 16 -5 21 -15l76 -154
c4 -9 9 -27 -9 -27h-69c-11 0 -17 6 -23 16l-97 157c-7 11 -4 23 10 23z" />
    <glyph glyph-name="Egrave.1" unicode="&#xe068;" horiz-adv-x="578" 
d="M526 553h-188c-50 0 -88 -13 -111 -37c-25 -27 -28 -62 -28 -98v-11h274c9 0 15 -7 15 -16v-97c0 -8 -6 -15 -15 -15h-274v-17c0 -35 3 -70 28 -97c23 -25 61 -38 111 -38h188c9 0 15 -6 15 -15v-97c0 -8 -6 -15 -15 -15h-190c-87 0 -160 17 -212 71
c-56 58 -71 134 -71 234v70c0 101 15 176 71 234c52 54 125 72 212 72h190c9 0 15 -7 15 -15v-98c0 -8 -6 -15 -15 -15zM222 968h91c11 0 16 -5 21 -15l76 -154c4 -9 9 -27 -9 -27h-69c-11 0 -17 6 -23 16l-97 157c-7 11 -4 23 10 23z" />
    <glyph glyph-name="Egrave.2" unicode="&#xe069;" horiz-adv-x="642" 
d="M83 681h506c9 0 16 -7 16 -15v-98c0 -8 -7 -15 -16 -15h-378v-187h326c8 0 15 -7 15 -15v-97c0 -9 -7 -16 -15 -16h-326v-111h378c9 0 16 -6 16 -15v-97c0 -8 -7 -15 -16 -15h-506c-9 0 -16 7 -16 15v651c0 8 7 15 16 15zM241 968h91c11 0 16 -5 21 -15l76 -154
c4 -9 9 -27 -9 -27h-69c-11 0 -17 6 -23 16l-97 157c-7 11 -4 23 10 23z" />
    <glyph glyph-name="Egrave.3" unicode="&#xe06a;" horiz-adv-x="727" 
d="M202 414h337c-10 88 -71 144 -165 144c-91 0 -153 -57 -172 -144zM40 348c0 91 29 181 95 248c54 56 136 94 237 94c118 0 201 -44 253 -113c44 -57 66 -134 67 -219c0 -17 -1 -34 -2 -51c-1 -12 -6 -16 -18 -16h-468c7 -50 28 -95 67 -126c35 -29 80 -44 132 -44
c66 0 136 18 195 56c10 7 18 4 22 -4l43 -93c4 -10 2 -16 -6 -20c-81 -47 -154 -68 -259 -68c-121 0 -203 35 -262 94c-64 63 -96 155 -96 262zM285 968h91c11 0 16 -5 21 -15l76 -154c4 -9 9 -27 -9 -27h-69c-11 0 -17 6 -23 16l-97 157c-7 11 -4 23 10 23z" />
    <glyph glyph-name="Emacron" unicode="&#x112;" horiz-adv-x="618" 
d="M83 681h482c9 0 16 -7 16 -15v-98c0 -8 -7 -15 -16 -15h-354v-147h302c8 0 15 -7 15 -15v-97c0 -9 -7 -16 -15 -16h-302v-151h354c9 0 16 -6 16 -15v-97c0 -8 -7 -15 -16 -15h-482c-9 0 -16 7 -16 15v651c0 8 7 15 16 15zM191 924h241c9 0 15 -7 15 -15v-77
c0 -9 -6 -16 -15 -16h-241c-9 0 -15 7 -15 16v77c0 8 6 15 15 15z" />
    <glyph glyph-name="Emacron.1" unicode="&#xe06b;" horiz-adv-x="578" 
d="M526 553h-188c-50 0 -88 -13 -111 -37c-25 -27 -28 -62 -28 -98v-11h274c9 0 15 -7 15 -16v-97c0 -8 -6 -15 -15 -15h-274v-17c0 -35 3 -70 28 -97c23 -25 61 -38 111 -38h188c9 0 15 -6 15 -15v-97c0 -8 -6 -15 -15 -15h-190c-87 0 -160 17 -212 71
c-56 58 -71 134 -71 234v70c0 101 15 176 71 234c52 54 125 72 212 72h190c9 0 15 -7 15 -15v-98c0 -8 -6 -15 -15 -15zM207 924h241c9 0 15 -7 15 -15v-77c0 -9 -6 -16 -15 -16h-241c-9 0 -15 7 -15 16v77c0 8 6 15 15 15z" />
    <glyph glyph-name="Emacron.2" unicode="&#xe06c;" horiz-adv-x="642" 
d="M83 681h506c9 0 16 -7 16 -15v-98c0 -8 -7 -15 -16 -15h-378v-187h326c8 0 15 -7 15 -15v-97c0 -9 -7 -16 -15 -16h-326v-111h378c9 0 16 -6 16 -15v-97c0 -8 -7 -15 -16 -15h-506c-9 0 -16 7 -16 15v651c0 8 7 15 16 15zM228 924h241c9 0 15 -7 15 -15v-77
c0 -9 -6 -16 -15 -16h-241c-9 0 -15 7 -15 16v77c0 8 6 15 15 15z" />
    <glyph glyph-name="Emacron.3" unicode="&#xe06d;" horiz-adv-x="727" 
d="M202 414h337c-10 88 -71 144 -165 144c-91 0 -153 -57 -172 -144zM40 348c0 91 29 181 95 248c54 56 136 94 237 94c118 0 201 -44 253 -113c44 -57 66 -134 67 -219c0 -17 -1 -34 -2 -51c-1 -12 -6 -16 -18 -16h-468c7 -50 28 -95 67 -126c35 -29 80 -44 132 -44
c66 0 136 18 195 56c10 7 18 4 22 -4l43 -93c4 -10 2 -16 -6 -20c-81 -47 -154 -68 -259 -68c-121 0 -203 35 -262 94c-64 63 -96 155 -96 262zM260 924h241c9 0 15 -7 15 -15v-77c0 -9 -6 -16 -15 -16h-241c-9 0 -15 7 -15 16v77c0 8 6 15 15 15z" />
    <glyph glyph-name="Eogonek" unicode="&#x118;" horiz-adv-x="618" 
d="M385 -119c0 46 35 90 73 119h-375c-9 0 -16 7 -16 15v651c0 8 7 15 16 15h482c9 0 16 -7 16 -15v-98c0 -8 -7 -15 -16 -15h-354v-147h302c8 0 15 -7 15 -15v-97c0 -9 -7 -16 -15 -16h-302v-151h354c9 0 16 -6 16 -15v-97c0 -8 -7 -15 -16 -15h-30
c-27 -19 -59 -50 -59 -82c0 -25 18 -35 41 -35c28 0 39 9 53 9c7 0 9 -5 9 -11v-53c0 -9 -3 -12 -9 -14c-24 -11 -52 -17 -80 -17c-53 0 -105 21 -105 84z" />
    <glyph glyph-name="Eogonek.1" unicode="&#xe06e;" horiz-adv-x="578" 
d="M346 -119c0 46 35 90 73 119h-83c-87 0 -160 17 -212 71c-56 58 -71 134 -71 234v70c0 101 15 176 71 234c52 54 125 72 212 72h190c9 0 15 -7 15 -15v-98c0 -8 -6 -15 -15 -15h-188c-50 0 -88 -13 -111 -37c-25 -27 -28 -62 -28 -98v-11h274c9 0 15 -7 15 -16v-97
c0 -8 -6 -15 -15 -15h-274v-17c0 -35 3 -70 28 -97c23 -25 61 -38 111 -38h188c9 0 15 -6 15 -15v-97c0 -8 -6 -15 -15 -15h-30c-27 -19 -59 -50 -59 -82c0 -25 18 -35 41 -35c28 0 39 9 53 9c7 0 9 -5 9 -11v-53c0 -9 -3 -12 -9 -14c-24 -11 -52 -17 -80 -17
c-53 0 -105 21 -105 84z" />
    <glyph glyph-name="Eogonek.2" unicode="&#xe06f;" horiz-adv-x="642" 
d="M409 -119c0 46 35 90 73 119h-399c-9 0 -16 7 -16 15v651c0 8 7 15 16 15h506c9 0 16 -7 16 -15v-98c0 -8 -7 -15 -16 -15h-378v-187h326c8 0 15 -7 15 -15v-97c0 -9 -7 -16 -15 -16h-326v-111h378c9 0 16 -6 16 -15v-97c0 -8 -7 -15 -16 -15h-30
c-27 -19 -59 -50 -59 -82c0 -25 18 -35 41 -35c28 0 39 9 53 9c7 0 9 -5 9 -11v-53c0 -9 -3 -12 -9 -14c-24 -11 -52 -17 -80 -17c-53 0 -105 21 -105 84z" />
    <glyph glyph-name="Eogonek.3" unicode="&#xe070;" horiz-adv-x="727" 
d="M448 -90c0 32 16 63 39 89c-27 -4 -57 -7 -89 -7c-121 0 -203 35 -262 94c-64 63 -96 155 -96 262c0 91 29 181 95 248c54 56 136 94 237 94c118 0 201 -44 253 -113c44 -57 66 -134 67 -219c0 -17 -1 -34 -2 -51c-1 -12 -6 -16 -18 -16h-468c7 -50 28 -95 67 -126
c35 -29 80 -44 132 -44c66 0 136 18 195 56c10 7 18 4 22 -4l43 -93c4 -10 2 -16 -6 -20c-18 -11 -36 -20 -54 -28c-29 -20 -64 -51 -64 -85c0 -25 18 -35 41 -35c28 0 39 9 53 9c7 0 9 -5 9 -11v-53c0 -9 -3 -12 -9 -14c-24 -11 -52 -17 -80 -17c-53 0 -105 21 -105 84z
M202 414h337c-10 88 -71 144 -165 144c-91 0 -153 -57 -172 -144z" />
    <glyph glyph-name="Esmall" unicode="&#xf765;" horiz-adv-x="511" 
d="M80 544h391c8 0 15 -7 15 -15v-88c0 -8 -7 -15 -15 -15h-274v-94h233c8 0 15 -7 15 -15v-87c0 -9 -7 -15 -15 -15h-233v-98h274c8 0 15 -6 15 -15v-87c0 -8 -7 -15 -15 -15h-391c-9 0 -15 7 -15 15v514c0 8 6 15 15 15z" />
    <glyph glyph-name="Esmall.1" unicode="&#xe071;" horiz-adv-x="498" 
d="M458 426h-188c-34 0 -58 -7 -72 -24c-12 -14 -16 -30 -16 -53v-15h236c8 0 15 -7 15 -15v-88c0 -8 -7 -15 -15 -15l-237 -1v-17c0 -24 6 -40 17 -53c15 -17 38 -26 73 -26h187c9 0 16 -7 16 -15v-89c0 -8 -7 -15 -16 -15h-183c-78 0 -143 24 -183 77
c-28 39 -44 92 -44 160v71c0 74 18 129 51 167c39 49 102 70 176 70h183c9 0 16 -6 16 -15v-89c0 -8 -7 -15 -16 -15z" />
    <glyph glyph-name="Esmall.2" unicode="&#xe072;" horiz-adv-x="540" 
d="M80 544h421c8 0 15 -7 15 -15v-88c0 -8 -7 -15 -15 -15h-304v-108h247c8 0 15 -7 15 -15v-88c0 -8 -7 -15 -15 -15h-247v-83h304c8 0 15 -6 15 -15v-87c0 -8 -7 -15 -15 -15h-421c-9 0 -15 7 -15 15v514c0 8 6 15 15 15z" />
    <glyph glyph-name="Esmall.3" unicode="&#xe073;" horiz-adv-x="594" 
d="M305 552c86 0 148 -31 187 -72c60 -62 72 -148 68 -238c-1 -9 -7 -16 -16 -16h-357c7 -31 19 -56 38 -76c26 -27 63 -39 103 -39c59 0 105 12 151 40c10 6 18 4 22 -4l37 -79c3 -8 1 -16 -6 -20c-65 -37 -126 -56 -207 -56c-98 0 -164 29 -212 78c-49 50 -76 121 -76 208
c0 82 28 149 75 197c44 46 110 77 193 77zM187 330h234c-3 30 -14 56 -32 73c-20 18 -48 29 -82 29s-63 -12 -84 -33c-18 -18 -30 -42 -36 -69z" />
    <glyph glyph-name="Esmallacute" unicode="&#xe074;" horiz-adv-x="511" 
d="M80 544h391c8 0 15 -7 15 -15v-88c0 -8 -7 -15 -15 -15h-274v-94h233c8 0 15 -7 15 -15v-87c0 -9 -7 -15 -15 -15h-233v-98h274c8 0 15 -6 15 -15v-87c0 -8 -7 -15 -15 -15h-391c-9 0 -15 7 -15 15v514c0 8 6 15 15 15zM292 827h90c13 0 17 -12 11 -23l-98 -157
c-6 -10 -12 -16 -23 -16h-68c-18 0 -14 18 -8 29l75 152c5 10 10 15 21 15z" />
    <glyph glyph-name="Esmallacute.1" unicode="&#xe075;" horiz-adv-x="498" 
d="M458 426h-188c-34 0 -58 -7 -72 -24c-12 -14 -16 -30 -16 -53v-15h236c8 0 15 -7 15 -15v-88c0 -8 -7 -15 -15 -15l-237 -1v-17c0 -24 6 -40 17 -53c15 -17 38 -26 73 -26h187c9 0 16 -7 16 -15v-89c0 -8 -7 -15 -16 -15h-183c-78 0 -143 24 -183 77
c-28 39 -44 92 -44 160v71c0 74 18 129 51 167c39 49 102 70 176 70h183c9 0 16 -6 16 -15v-89c0 -8 -7 -15 -16 -15zM308 827h90c13 0 17 -12 11 -23l-98 -157c-6 -10 -12 -16 -23 -16h-68c-18 0 -14 18 -8 29l75 152c5 10 10 15 21 15z" />
    <glyph glyph-name="Esmallacute.2" unicode="&#xe076;" horiz-adv-x="540" 
d="M80 544h421c8 0 15 -7 15 -15v-88c0 -8 -7 -15 -15 -15h-304v-108h247c8 0 15 -7 15 -15v-88c0 -8 -7 -15 -15 -15h-247v-83h304c8 0 15 -6 15 -15v-87c0 -8 -7 -15 -15 -15h-421c-9 0 -15 7 -15 15v514c0 8 6 15 15 15zM320 827h90c13 0 17 -12 11 -23l-98 -157
c-6 -10 -12 -16 -23 -16h-68c-18 0 -14 18 -8 29l75 152c5 10 10 15 21 15z" />
    <glyph glyph-name="Esmallacute.3" unicode="&#xe077;" horiz-adv-x="594" 
d="M305 552c86 0 148 -31 187 -72c60 -62 72 -148 68 -238c-1 -9 -7 -16 -16 -16h-357c7 -31 19 -56 38 -76c26 -27 63 -39 103 -39c59 0 105 12 151 40c10 6 18 4 22 -4l37 -79c3 -8 1 -16 -6 -20c-65 -37 -126 -56 -207 -56c-98 0 -164 29 -212 78c-49 50 -76 121 -76 208
c0 82 28 149 75 197c44 46 110 77 193 77zM187 330h234c-3 30 -14 56 -32 73c-20 18 -48 29 -82 29s-63 -12 -84 -33c-18 -18 -30 -42 -36 -69zM307 827h90c13 0 17 -12 11 -23l-98 -157c-6 -10 -12 -16 -23 -16h-68c-18 0 -14 18 -8 29l75 152c5 10 10 15 21 15z" />
    <glyph glyph-name="Esmallcaron" unicode="&#xe078;" horiz-adv-x="511" 
d="M80 544h391c8 0 15 -7 15 -15v-88c0 -8 -7 -15 -15 -15h-274v-94h233c8 0 15 -7 15 -15v-87c0 -9 -7 -15 -15 -15h-233v-98h274c8 0 15 -6 15 -15v-87c0 -8 -7 -15 -15 -15h-391c-9 0 -15 7 -15 15v514c0 8 6 15 15 15zM301 630h-46c-11 0 -15 5 -21 12l-144 162
c-9 11 -6 22 7 22h83c15 0 19 -4 27 -14l71 -79l70 79c8 10 12 14 27 14h83c13 0 16 -11 7 -22l-144 -162c-6 -7 -9 -12 -20 -12z" />
    <glyph glyph-name="Esmallcaron.1" unicode="&#xe079;" horiz-adv-x="498" 
d="M458 426h-188c-34 0 -58 -7 -72 -24c-12 -14 -16 -30 -16 -53v-15h236c8 0 15 -7 15 -15v-88c0 -8 -7 -15 -15 -15l-237 -1v-17c0 -24 6 -40 17 -53c15 -17 38 -26 73 -26h187c9 0 16 -7 16 -15v-89c0 -8 -7 -15 -16 -15h-183c-78 0 -143 24 -183 77
c-28 39 -44 92 -44 160v71c0 74 18 129 51 167c39 49 102 70 176 70h183c9 0 16 -6 16 -15v-89c0 -8 -7 -15 -16 -15zM306 630h-46c-11 0 -15 5 -21 12l-144 162c-9 11 -6 22 7 22h83c15 0 19 -4 27 -14l71 -79l70 79c8 10 12 14 27 14h83c13 0 16 -11 7 -22l-144 -162
c-6 -7 -9 -12 -20 -12z" />
    <glyph glyph-name="Esmallcaron.2" unicode="&#xe07a;" horiz-adv-x="540" 
d="M80 544h421c8 0 15 -7 15 -15v-88c0 -8 -7 -15 -15 -15h-304v-108h247c8 0 15 -7 15 -15v-88c0 -8 -7 -15 -15 -15h-247v-83h304c8 0 15 -6 15 -15v-87c0 -8 -7 -15 -15 -15h-421c-9 0 -15 7 -15 15v514c0 8 6 15 15 15zM315 630h-46c-11 0 -15 5 -21 12l-144 162
c-9 11 -6 22 7 22h83c15 0 19 -4 27 -14l71 -79l70 79c8 10 12 14 27 14h83c13 0 16 -11 7 -22l-144 -162c-6 -7 -9 -12 -20 -12z" />
    <glyph glyph-name="Esmallcaron.3" unicode="&#xe07b;" horiz-adv-x="594" 
d="M305 552c86 0 148 -31 187 -72c60 -62 72 -148 68 -238c-1 -9 -7 -16 -16 -16h-357c7 -31 19 -56 38 -76c26 -27 63 -39 103 -39c59 0 105 12 151 40c10 6 18 4 22 -4l37 -79c3 -8 1 -16 -6 -20c-65 -37 -126 -56 -207 -56c-98 0 -164 29 -212 78c-49 50 -76 121 -76 208
c0 82 28 149 75 197c44 46 110 77 193 77zM187 330h234c-3 30 -14 56 -32 73c-20 18 -48 29 -82 29s-63 -12 -84 -33c-18 -18 -30 -42 -36 -69zM328 630h-46c-11 0 -15 5 -21 12l-144 162c-9 11 -6 22 7 22h83c15 0 19 -4 27 -14l71 -79l70 79c8 10 12 14 27 14h83
c13 0 16 -11 7 -22l-144 -162c-6 -7 -9 -12 -20 -12z" />
    <glyph glyph-name="Esmallcircumflex" unicode="&#xe07c;" horiz-adv-x="511" 
d="M80 544h391c8 0 15 -7 15 -15v-88c0 -8 -7 -15 -15 -15h-274v-94h233c8 0 15 -7 15 -15v-87c0 -9 -7 -15 -15 -15h-233v-98h274c8 0 15 -6 15 -15v-87c0 -8 -7 -15 -15 -15h-391c-9 0 -15 7 -15 15v514c0 8 6 15 15 15zM256 826h46c11 0 14 -4 20 -11l144 -163
c9 -11 6 -22 -7 -22h-83c-15 0 -19 4 -27 15l-70 79l-71 -79c-8 -11 -12 -15 -27 -15h-83c-13 0 -16 11 -7 22l144 163c6 7 10 11 21 11z" />
    <glyph glyph-name="Esmallcircumflex.1" unicode="&#xe07d;" horiz-adv-x="498" 
d="M458 426h-188c-34 0 -58 -7 -72 -24c-12 -14 -16 -30 -16 -53v-15h236c8 0 15 -7 15 -15v-88c0 -8 -7 -15 -15 -15l-237 -1v-17c0 -24 6 -40 17 -53c15 -17 38 -26 73 -26h187c9 0 16 -7 16 -15v-89c0 -8 -7 -15 -16 -15h-183c-78 0 -143 24 -183 77
c-28 39 -44 92 -44 160v71c0 74 18 129 51 167c39 49 102 70 176 70h183c9 0 16 -6 16 -15v-89c0 -8 -7 -15 -16 -15zM259 826h46c11 0 14 -4 20 -11l144 -163c9 -11 6 -22 -7 -22h-83c-15 0 -19 4 -27 15l-70 79l-71 -79c-8 -11 -12 -15 -27 -15h-83c-13 0 -16 11 -7 22
l144 163c6 7 10 11 21 11z" />
    <glyph glyph-name="Esmallcircumflex.2" unicode="&#xe07e;" horiz-adv-x="540" 
d="M80 544h421c8 0 15 -7 15 -15v-88c0 -8 -7 -15 -15 -15h-304v-108h247c8 0 15 -7 15 -15v-88c0 -8 -7 -15 -15 -15h-247v-83h304c8 0 15 -6 15 -15v-87c0 -8 -7 -15 -15 -15h-421c-9 0 -15 7 -15 15v514c0 8 6 15 15 15zM274 826h46c11 0 14 -4 20 -11l144 -163
c9 -11 6 -22 -7 -22h-83c-15 0 -19 4 -27 15l-70 79l-71 -79c-8 -11 -12 -15 -27 -15h-83c-13 0 -16 11 -7 22l144 163c6 7 10 11 21 11z" />
    <glyph glyph-name="Esmallcircumflex.3" unicode="&#xe07f;" horiz-adv-x="594" 
d="M305 552c86 0 148 -31 187 -72c60 -62 72 -148 68 -238c-1 -9 -7 -16 -16 -16h-357c7 -31 19 -56 38 -76c26 -27 63 -39 103 -39c59 0 105 12 151 40c10 6 18 4 22 -4l37 -79c3 -8 1 -16 -6 -20c-65 -37 -126 -56 -207 -56c-98 0 -164 29 -212 78c-49 50 -76 121 -76 208
c0 82 28 149 75 197c44 46 110 77 193 77zM187 330h234c-3 30 -14 56 -32 73c-20 18 -48 29 -82 29s-63 -12 -84 -33c-18 -18 -30 -42 -36 -69zM288 826h46c11 0 14 -4 20 -11l144 -163c9 -11 6 -22 -7 -22h-83c-15 0 -19 4 -27 15l-70 79l-71 -79c-8 -11 -12 -15 -27 -15
h-83c-13 0 -16 11 -7 22l144 163c6 7 10 11 21 11z" />
    <glyph glyph-name="Esmalldieresis" unicode="&#xe080;" horiz-adv-x="512" 
d="M80 544h391c8 0 15 -7 15 -15v-88c0 -8 -7 -15 -15 -15h-274v-94h233c8 0 15 -7 15 -15v-87c0 -9 -7 -15 -15 -15h-233v-98h274c8 0 15 -6 15 -15v-87c0 -8 -7 -15 -15 -15h-391c-9 0 -15 7 -15 15v514c0 8 6 15 15 15zM161 644c-43 0 -76 35 -76 77s33 76 76 76
c42 0 76 -34 76 -76s-34 -77 -76 -77zM393 644c-43 0 -76 35 -76 77s33 76 76 76c42 0 75 -34 75 -76s-33 -77 -75 -77z" />
    <glyph glyph-name="Esmalldieresis.1" unicode="&#xe081;" horiz-adv-x="498" 
d="M458 426h-188c-34 0 -58 -7 -72 -24c-12 -14 -16 -30 -16 -53v-15h236c8 0 15 -7 15 -15v-88c0 -8 -7 -15 -15 -15l-237 -1v-17c0 -24 6 -40 17 -53c15 -17 38 -26 73 -26h187c9 0 16 -7 16 -15v-89c0 -8 -7 -15 -16 -15h-183c-78 0 -143 24 -183 77
c-28 39 -44 92 -44 160v71c0 74 18 129 51 167c39 49 102 70 176 70h183c9 0 16 -6 16 -15v-89c0 -8 -7 -15 -16 -15zM156 644c-43 0 -76 35 -76 77s33 76 76 76c42 0 76 -34 76 -76s-34 -77 -76 -77zM388 644c-43 0 -76 35 -76 77s33 76 76 76c42 0 75 -34 75 -76
s-33 -77 -75 -77z" />
    <glyph glyph-name="Esmalldieresis.2" unicode="&#xe082;" horiz-adv-x="540" 
d="M80 544h421c8 0 15 -7 15 -15v-88c0 -8 -7 -15 -15 -15h-304v-108h247c8 0 15 -7 15 -15v-88c0 -8 -7 -15 -15 -15h-247v-83h304c8 0 15 -6 15 -15v-87c0 -8 -7 -15 -15 -15h-421c-9 0 -15 7 -15 15v514c0 8 6 15 15 15zM173 644c-43 0 -76 35 -76 77s33 76 76 76
c42 0 76 -34 76 -76s-34 -77 -76 -77zM405 644c-43 0 -76 35 -76 77s33 76 76 76c42 0 75 -34 75 -76s-33 -77 -75 -77z" />
    <glyph glyph-name="Esmalldieresis.3" unicode="&#xe083;" horiz-adv-x="594" 
d="M305 552c86 0 148 -31 187 -72c60 -62 72 -148 68 -238c-1 -9 -7 -16 -16 -16h-357c7 -31 19 -56 38 -76c26 -27 63 -39 103 -39c59 0 105 12 151 40c10 6 18 4 22 -4l37 -79c3 -8 1 -16 -6 -20c-65 -37 -126 -56 -207 -56c-98 0 -164 29 -212 78c-49 50 -76 121 -76 208
c0 82 28 149 75 197c44 46 110 77 193 77zM187 330h234c-3 30 -14 56 -32 73c-20 18 -48 29 -82 29s-63 -12 -84 -33c-18 -18 -30 -42 -36 -69zM188 644c-43 0 -76 35 -76 77s33 76 76 76c42 0 76 -34 76 -76s-34 -77 -76 -77zM420 644c-43 0 -76 35 -76 77s33 76 76 76
c42 0 75 -34 75 -76s-33 -77 -75 -77z" />
    <glyph glyph-name="Esmalldotaccent" unicode="&#xe084;" horiz-adv-x="511" 
d="M80 544h391c8 0 15 -7 15 -15v-88c0 -8 -7 -15 -15 -15h-274v-94h233c8 0 15 -7 15 -15v-87c0 -9 -7 -15 -15 -15h-233v-98h274c8 0 15 -6 15 -15v-87c0 -8 -7 -15 -15 -15h-391c-9 0 -15 7 -15 15v514c0 8 6 15 15 15zM285 645c-43 0 -76 34 -76 76s33 76 76 76
c42 0 75 -34 75 -76s-33 -76 -75 -76z" />
    <glyph glyph-name="Esmalldotaccent.1" unicode="&#xe085;" horiz-adv-x="498" 
d="M458 426h-188c-34 0 -58 -7 -72 -24c-12 -14 -16 -30 -16 -53v-15h236c8 0 15 -7 15 -15v-88c0 -8 -7 -15 -15 -15l-237 -1v-17c0 -24 6 -40 17 -53c15 -17 38 -26 73 -26h187c9 0 16 -7 16 -15v-89c0 -8 -7 -15 -16 -15h-183c-78 0 -143 24 -183 77
c-28 39 -44 92 -44 160v71c0 74 18 129 51 167c39 49 102 70 176 70h183c9 0 16 -6 16 -15v-89c0 -8 -7 -15 -16 -15zM289 645c-43 0 -76 34 -76 76s33 76 76 76c42 0 75 -34 75 -76s-33 -76 -75 -76z" />
    <glyph glyph-name="Esmalldotaccent.2" unicode="&#xe086;" horiz-adv-x="540" 
d="M80 544h421c8 0 15 -7 15 -15v-88c0 -8 -7 -15 -15 -15h-304v-108h247c8 0 15 -7 15 -15v-88c0 -8 -7 -15 -15 -15h-247v-83h304c8 0 15 -6 15 -15v-87c0 -8 -7 -15 -15 -15h-421c-9 0 -15 7 -15 15v514c0 8 6 15 15 15zM292 645c-43 0 -76 34 -76 76s33 76 76 76
c42 0 75 -34 75 -76s-33 -76 -75 -76z" />
    <glyph glyph-name="Esmalldotaccent.3" unicode="&#xe087;" horiz-adv-x="594" 
d="M305 552c86 0 148 -31 187 -72c60 -62 72 -148 68 -238c-1 -9 -7 -16 -16 -16h-357c7 -31 19 -56 38 -76c26 -27 63 -39 103 -39c59 0 105 12 151 40c10 6 18 4 22 -4l37 -79c3 -8 1 -16 -6 -20c-65 -37 -126 -56 -207 -56c-98 0 -164 29 -212 78c-49 50 -76 121 -76 208
c0 82 28 149 75 197c44 46 110 77 193 77zM187 330h234c-3 30 -14 56 -32 73c-20 18 -48 29 -82 29s-63 -12 -84 -33c-18 -18 -30 -42 -36 -69zM307 645c-43 0 -76 34 -76 76s33 76 76 76c42 0 75 -34 75 -76s-33 -76 -75 -76z" />
    <glyph glyph-name="Esmallgrave" unicode="&#xe088;" horiz-adv-x="511" 
d="M80 544h391c8 0 15 -7 15 -15v-88c0 -8 -7 -15 -15 -15h-274v-94h233c8 0 15 -7 15 -15v-87c0 -9 -7 -15 -15 -15h-233v-98h274c8 0 15 -6 15 -15v-87c0 -8 -7 -15 -15 -15h-391c-9 0 -15 7 -15 15v514c0 8 6 15 15 15zM176 827h91c11 0 16 -5 21 -15l76 -154
c4 -9 9 -27 -9 -27h-69c-11 0 -17 6 -23 16l-97 157c-7 11 -4 23 10 23z" />
    <glyph glyph-name="Esmallgrave.1" unicode="&#xe089;" horiz-adv-x="498" 
d="M458 426h-188c-34 0 -58 -7 -72 -24c-12 -14 -16 -30 -16 -53v-15h236c8 0 15 -7 15 -15v-88c0 -8 -7 -15 -15 -15l-237 -1v-17c0 -24 6 -40 17 -53c15 -17 38 -26 73 -26h187c9 0 16 -7 16 -15v-89c0 -8 -7 -15 -16 -15h-183c-78 0 -143 24 -183 77
c-28 39 -44 92 -44 160v71c0 74 18 129 51 167c39 49 102 70 176 70h183c9 0 16 -6 16 -15v-89c0 -8 -7 -15 -16 -15zM184 827h91c11 0 16 -5 21 -15l76 -154c4 -9 9 -27 -9 -27h-69c-11 0 -17 6 -23 16l-97 157c-7 11 -4 23 10 23z" />
    <glyph glyph-name="Esmallgrave.2" unicode="&#xe08a;" horiz-adv-x="540" 
d="M80 544h421c8 0 15 -7 15 -15v-88c0 -8 -7 -15 -15 -15h-304v-108h247c8 0 15 -7 15 -15v-88c0 -8 -7 -15 -15 -15h-247v-83h304c8 0 15 -6 15 -15v-87c0 -8 -7 -15 -15 -15h-421c-9 0 -15 7 -15 15v514c0 8 6 15 15 15zM196 827h91c11 0 16 -5 21 -15l76 -154
c4 -9 9 -27 -9 -27h-69c-11 0 -17 6 -23 16l-97 157c-7 11 -4 23 10 23z" />
    <glyph glyph-name="Esmallgrave.3" unicode="&#xe08b;" horiz-adv-x="594" 
d="M305 552c86 0 148 -31 187 -72c60 -62 72 -148 68 -238c-1 -9 -7 -16 -16 -16h-357c7 -31 19 -56 38 -76c26 -27 63 -39 103 -39c59 0 105 12 151 40c10 6 18 4 22 -4l37 -79c3 -8 1 -16 -6 -20c-65 -37 -126 -56 -207 -56c-98 0 -164 29 -212 78c-49 50 -76 121 -76 208
c0 82 28 149 75 197c44 46 110 77 193 77zM187 330h234c-3 30 -14 56 -32 73c-20 18 -48 29 -82 29s-63 -12 -84 -33c-18 -18 -30 -42 -36 -69zM215 827h91c11 0 16 -5 21 -15l76 -154c4 -9 9 -27 -9 -27h-69c-11 0 -17 6 -23 16l-97 157c-7 11 -4 23 10 23z" />
    <glyph glyph-name="Esmallmacron" unicode="&#xe08c;" horiz-adv-x="511" 
d="M80 544h391c8 0 15 -7 15 -15v-88c0 -8 -7 -15 -15 -15h-274v-94h233c8 0 15 -7 15 -15v-87c0 -9 -7 -15 -15 -15h-233v-98h274c8 0 15 -6 15 -15v-87c0 -8 -7 -15 -15 -15h-391c-9 0 -15 7 -15 15v514c0 8 6 15 15 15zM158 761h241c9 0 15 -7 15 -15v-77
c0 -9 -6 -16 -15 -16h-241c-9 0 -15 7 -15 16v77c0 8 6 15 15 15z" />
    <glyph glyph-name="Esmallmacron.1" unicode="&#xe08d;" horiz-adv-x="498" 
d="M458 426h-188c-34 0 -58 -7 -72 -24c-12 -14 -16 -30 -16 -53v-15h236c8 0 15 -7 15 -15v-88c0 -8 -7 -15 -15 -15l-237 -1v-17c0 -24 6 -40 17 -53c15 -17 38 -26 73 -26h187c9 0 16 -7 16 -15v-89c0 -8 -7 -15 -16 -15h-183c-78 0 -143 24 -183 77
c-28 39 -44 92 -44 160v71c0 74 18 129 51 167c39 49 102 70 176 70h183c9 0 16 -6 16 -15v-89c0 -8 -7 -15 -16 -15zM162 761h241c9 0 15 -7 15 -15v-77c0 -9 -6 -16 -15 -16h-241c-9 0 -15 7 -15 16v77c0 8 6 15 15 15z" />
    <glyph glyph-name="Esmallmacron.2" unicode="&#xe08e;" horiz-adv-x="540" 
d="M80 544h421c8 0 15 -7 15 -15v-88c0 -8 -7 -15 -15 -15h-304v-108h247c8 0 15 -7 15 -15v-88c0 -8 -7 -15 -15 -15h-247v-83h304c8 0 15 -6 15 -15v-87c0 -8 -7 -15 -15 -15h-421c-9 0 -15 7 -15 15v514c0 8 6 15 15 15zM170 761h241c9 0 15 -7 15 -15v-77
c0 -9 -6 -16 -15 -16h-241c-9 0 -15 7 -15 16v77c0 8 6 15 15 15z" />
    <glyph glyph-name="Esmallmacron.3" unicode="&#xe08f;" horiz-adv-x="594" 
d="M305 552c86 0 148 -31 187 -72c60 -62 72 -148 68 -238c-1 -9 -7 -16 -16 -16h-357c7 -31 19 -56 38 -76c26 -27 63 -39 103 -39c59 0 105 12 151 40c10 6 18 4 22 -4l37 -79c3 -8 1 -16 -6 -20c-65 -37 -126 -56 -207 -56c-98 0 -164 29 -212 78c-49 50 -76 121 -76 208
c0 82 28 149 75 197c44 46 110 77 193 77zM187 330h234c-3 30 -14 56 -32 73c-20 18 -48 29 -82 29s-63 -12 -84 -33c-18 -18 -30 -42 -36 -69zM189 761h241c9 0 15 -7 15 -15v-77c0 -9 -6 -16 -15 -16h-241c-9 0 -15 7 -15 16v77c0 8 6 15 15 15z" />
    <glyph glyph-name="Esmallogonek" unicode="&#xe090;" horiz-adv-x="511" 
d="M290 -119c0 46 35 90 73 119h-283c-9 0 -15 7 -15 15v514c0 8 6 15 15 15h391c8 0 15 -7 15 -15v-88c0 -8 -7 -15 -15 -15h-274v-94h233c8 0 15 -7 15 -15v-87c0 -9 -7 -15 -15 -15h-233v-98h274c8 0 15 -6 15 -15v-87c0 -8 -7 -15 -15 -15h-31c-27 -19 -59 -50 -59 -82
c0 -25 18 -35 41 -35c28 0 39 9 53 9c7 0 9 -5 9 -11v-53c0 -9 -3 -12 -9 -14c-24 -11 -52 -17 -80 -17c-53 0 -105 21 -105 84z" />
    <glyph glyph-name="Esmallogonek.1" unicode="&#xe091;" horiz-adv-x="498" 
d="M278 -119c0 46 35 90 73 119h-76c-78 0 -143 24 -183 77c-28 39 -44 92 -44 160v71c0 74 18 129 51 167c39 49 102 70 176 70h183c9 0 16 -6 16 -15v-89c0 -8 -7 -15 -16 -15h-188c-34 0 -58 -7 -72 -24c-12 -14 -16 -30 -16 -53v-15h236c8 0 15 -7 15 -15v-88
c0 -8 -7 -15 -15 -15l-237 -1v-17c0 -24 6 -40 17 -53c15 -17 38 -26 73 -26h187c9 0 16 -7 16 -15v-89c0 -8 -7 -15 -16 -15h-30c-27 -19 -59 -50 -59 -82c0 -25 18 -35 41 -35c28 0 39 9 53 9c7 0 9 -5 9 -11v-53c0 -9 -3 -12 -9 -14c-24 -11 -52 -17 -80 -17
c-53 0 -105 21 -105 84z" />
    <glyph glyph-name="Esmallogonek.2" unicode="&#xe092;" horiz-adv-x="540" 
d="M320 -119c0 46 35 90 73 119h-313c-9 0 -15 7 -15 15v514c0 8 6 15 15 15h421c8 0 15 -7 15 -15v-88c0 -8 -7 -15 -15 -15h-304v-108h247c8 0 15 -7 15 -15v-88c0 -8 -7 -15 -15 -15h-247v-83h304c8 0 15 -6 15 -15v-87c0 -8 -7 -15 -15 -15h-31c-27 -19 -59 -50 -59 -82
c0 -25 18 -35 41 -35c28 0 39 9 53 9c7 0 9 -5 9 -11v-53c0 -9 -3 -12 -9 -14c-24 -11 -52 -17 -80 -17c-53 0 -105 21 -105 84z" />
    <glyph glyph-name="Esmallogonek.3" unicode="&#xe093;" horiz-adv-x="594" 
d="M334 -96c0 33 17 65 41 91c-16 -2 -33 -3 -50 -3c-98 0 -164 29 -212 78c-49 50 -76 121 -76 208c0 82 28 149 75 197c44 46 110 77 193 77c86 0 148 -31 187 -72c60 -62 72 -148 68 -238c-1 -9 -7 -16 -16 -16h-357c7 -31 19 -56 38 -76c26 -27 63 -39 103 -39
c59 0 105 12 151 40c10 6 18 4 22 -4l37 -79c3 -8 1 -16 -6 -20c-15 -8 -29 -16 -43 -22c-29 -20 -64 -51 -64 -85c0 -25 18 -35 41 -35c28 0 39 9 53 9c7 0 9 -5 9 -11v-53c0 -9 -3 -12 -9 -14c-24 -11 -52 -17 -80 -17c-53 0 -105 21 -105 84zM187 330h234
c-3 30 -14 56 -32 73c-20 18 -48 29 -82 29s-63 -12 -84 -33c-18 -18 -30 -42 -36 -69z" />
    <glyph glyph-name="Eth" unicode="&#xd0;" horiz-adv-x="753" 
d="M712 341c0 -123 -45 -231 -152 -292c-70 -39 -149 -49 -225 -49h-242c-8 0 -15 7 -15 15v264h-68c-8 0 -15 6 -15 15v93c0 9 7 16 15 16h68v263c0 8 7 15 15 15h256c104 0 201 -20 280 -104c50 -53 83 -130 83 -236zM222 560v-157h118c8 0 15 -7 15 -16v-93
c0 -9 -7 -15 -15 -15h-118v-158h103c52 0 99 8 137 27c74 36 103 106 103 193c0 70 -19 120 -52 155c-42 44 -106 64 -185 64h-106z" />
    <glyph glyph-name="Euro" unicode="&#x20ac;" 
d="M-1 444h60c19 62 56 116 103 157c63 56 148 90 238 90c95 0 156 -23 203 -48c7 -3 10 -13 6 -20l-45 -97c-4 -8 -12 -9 -19 -6c-41 22 -86 41 -148 41c-42 0 -82 -15 -114 -39c-28 -20 -50 -47 -66 -78h274c9 0 16 -7 16 -15v-43c0 -8 -7 -15 -16 -15h-299
c-1 -10 -1 -20 -1 -30c0 -12 0 -23 1 -34h247c9 0 16 -6 16 -15v-43c0 -8 -7 -15 -16 -15h-221c13 -30 34 -56 59 -75c34 -25 75 -38 121 -38c62 0 111 17 153 41c7 3 15 2 19 -6l44 -97c4 -7 1 -16 -6 -20c-51 -27 -114 -49 -208 -49c-85 0 -159 22 -218 63
c-61 41 -105 104 -125 181h-58c-9 0 -16 7 -16 15v43c0 9 7 15 16 15h46c-1 11 -2 22 -2 34c0 10 1 20 2 30h-46c-9 0 -16 7 -16 15v43c0 8 7 15 16 15z" />
    <glyph glyph-name="F" unicode="F" horiz-adv-x="581" 
d="M211 278v-263c0 -8 -6 -15 -15 -15h-113c-9 0 -16 7 -16 15v651c0 8 7 15 16 15h453c8 0 15 -7 15 -15v-98c0 -8 -7 -15 -15 -15h-325v-147h280c8 0 15 -7 15 -15v-97c0 -9 -7 -16 -15 -16h-280z" />
    <glyph glyph-name="F.1" unicode="&#xe094;" horiz-adv-x="541" 
d="M499 553h-161c-50 0 -88 -13 -111 -37c-25 -27 -28 -62 -28 -98v-11h247c8 0 15 -7 15 -16v-97c0 -8 -7 -15 -15 -15h-249v-264c0 -8 -7 -15 -15 -15h-114c-8 0 -15 7 -15 15v360c0 101 15 176 71 234c52 54 125 72 212 72h163c8 0 15 -7 15 -15v-98c0 -8 -7 -15 -15 -15
z" />
    <glyph glyph-name="F.2" unicode="&#xe095;" horiz-adv-x="613" 
d="M211 238v-223c0 -8 -6 -15 -15 -15h-113c-9 0 -16 7 -16 15v651c0 8 7 15 16 15h485c8 0 15 -7 15 -15v-98c0 -8 -7 -15 -15 -15h-357v-187h304c8 0 15 -7 15 -15v-97c0 -9 -7 -16 -15 -16h-304z" />
    <glyph glyph-name="Fsmall" unicode="&#xf766;" horiz-adv-x="480" 
d="M197 215v-200c0 -8 -7 -15 -15 -15h-102c-9 0 -15 7 -15 15v514c0 8 6 15 15 15h359c9 0 16 -7 16 -15v-88c0 -8 -7 -15 -16 -15h-242v-94h199c9 0 16 -7 16 -15v-87c0 -9 -7 -15 -16 -15h-199z" />
    <glyph glyph-name="Fsmall.1" unicode="&#xe096;" horiz-adv-x="465" 
d="M427 426h-162c-28 0 -50 -5 -65 -19c-13 -13 -19 -32 -19 -59v-14h213c8 0 15 -7 15 -15v-89c0 -9 -7 -15 -15 -15h-213v-200c0 -8 -7 -15 -16 -15h-102c-8 0 -15 7 -15 15v288c0 75 12 132 52 177c40 46 103 66 175 65h152c9 0 15 -6 15 -15v-89c0 -8 -6 -15 -15 -15z
" />
    <glyph glyph-name="Fsmall.2" unicode="&#xe097;" horiz-adv-x="510" 
d="M197 200v-185c0 -8 -7 -15 -15 -15h-102c-9 0 -15 7 -15 15v514c0 8 6 15 15 15h389c9 0 16 -7 16 -15v-88c0 -8 -7 -15 -16 -15h-272v-108h229c9 0 16 -7 16 -15v-88c0 -8 -7 -15 -16 -15h-229z" />
    <glyph glyph-name="G" unicode="G" horiz-adv-x="746" 
d="M405 690c96 0 159 -23 206 -47c10 -6 11 -13 7 -21l-46 -96c-4 -9 -12 -9 -20 -6c-43 19 -88 40 -150 40c-118 0 -212 -96 -212 -219c0 -130 86 -223 212 -223c57 0 111 17 145 39v83h-138c-8 0 -15 7 -15 15v98c0 8 7 15 15 15h259c9 0 15 -7 15 -15v-338
c0 -8 -6 -15 -15 -15h-106c-8 0 -15 7 -15 15v12c-40 -22 -95 -37 -160 -37c-194 0 -347 123 -347 351c0 198 163 349 365 349z" />
    <glyph glyph-name="G.2" unicode="&#xe098;" horiz-adv-x="780" 
d="M746 348c0 -108 -18 -202 -94 -272c-58 -55 -142 -86 -245 -86c-111 0 -207 34 -273 100c-59 59 -94 143 -94 251c0 99 38 183 101 244c68 66 166 105 275 105c105 0 174 -24 221 -49c7 -4 9 -13 6 -20l-46 -95c-3 -8 -12 -9 -19 -6c-42 21 -101 40 -164 40
c-67 0 -126 -26 -166 -69c-36 -39 -57 -90 -57 -150c0 -63 20 -117 56 -156c39 -42 96 -66 165 -66c40 0 78 9 110 27c32 19 57 49 68 90h-172c-8 0 -15 7 -15 15v97c0 9 7 16 15 16h313c9 0 15 -4 15 -16z" />
    <glyph glyph-name="Gbreve" unicode="&#x11e;" horiz-adv-x="746" 
d="M405 690c96 0 159 -23 206 -47c10 -6 11 -13 7 -21l-46 -96c-4 -9 -12 -9 -20 -6c-43 19 -88 40 -150 40c-118 0 -212 -96 -212 -219c0 -130 86 -223 212 -223c57 0 111 17 145 39v83h-138c-8 0 -15 7 -15 15v98c0 8 7 15 15 15h259c9 0 15 -7 15 -15v-338
c0 -8 -6 -15 -15 -15h-106c-8 0 -15 7 -15 15v12c-40 -22 -95 -37 -160 -37c-194 0 -347 123 -347 351c0 198 163 349 365 349zM373 876c44 0 64 24 69 58c1 10 8 16 17 16h47c12 0 18 -8 18 -17c0 -79 -52 -151 -151 -151c-100 0 -151 72 -151 151c0 9 6 17 18 17h47
c8 0 15 -6 17 -16c5 -34 24 -58 69 -58z" />
    <glyph glyph-name="Gbreve.2" unicode="&#xe099;" horiz-adv-x="778" 
d="M746 348c0 -108 -18 -202 -94 -272c-58 -55 -142 -86 -245 -86c-111 0 -207 34 -273 100c-59 59 -94 143 -94 251c0 99 38 183 101 244c68 66 166 105 275 105c105 0 174 -24 221 -49c7 -4 9 -13 6 -20l-46 -95c-3 -8 -12 -9 -19 -6c-42 21 -101 40 -164 40
c-67 0 -126 -26 -166 -69c-36 -39 -57 -90 -57 -150c0 -63 20 -117 56 -156c39 -42 96 -66 165 -66c40 0 78 9 110 27c32 19 57 49 68 90h-172c-8 0 -15 7 -15 15v97c0 9 7 16 15 16h313c9 0 15 -4 15 -16zM398 876c44 0 64 24 69 58c1 10 8 16 17 16h47c12 0 18 -8 18 -17
c0 -79 -52 -151 -151 -151c-100 0 -151 72 -151 151c0 9 6 17 18 17h47c8 0 15 -6 17 -16c5 -34 24 -58 69 -58z" />
    <glyph glyph-name="Gcommaaccent" unicode="&#x122;" horiz-adv-x="746" 
d="M405 690c96 0 159 -23 206 -47c10 -6 11 -13 7 -21l-46 -96c-4 -9 -12 -9 -20 -6c-43 19 -88 40 -150 40c-118 0 -212 -96 -212 -219c0 -130 86 -223 212 -223c57 0 111 17 145 39v83h-138c-8 0 -15 7 -15 15v98c0 8 7 15 15 15h259c9 0 15 -7 15 -15v-338
c0 -8 -6 -15 -15 -15h-106c-8 0 -15 7 -15 15v12c-40 -22 -95 -37 -160 -37c-194 0 -347 123 -347 351c0 198 163 349 365 349zM489 -169c1 -77 -65 -154 -139 -176c-11 -3 -17 -1 -22 6l-13 21c-6 9 -3 16 4 21c21 14 53 34 53 63c0 41 -61 32 -61 99c0 46 32 77 82 77
c63 0 94 -44 96 -111z" />
    <glyph glyph-name="Gcommaaccent.2" unicode="&#xe09a;" horiz-adv-x="778" 
d="M746 348c0 -108 -18 -202 -94 -272c-58 -55 -142 -86 -245 -86c-111 0 -207 34 -273 100c-59 59 -94 143 -94 251c0 99 38 183 101 244c68 66 166 105 275 105c105 0 174 -24 221 -49c7 -4 9 -13 6 -20l-46 -95c-3 -8 -12 -9 -19 -6c-42 21 -101 40 -164 40
c-67 0 -126 -26 -166 -69c-36 -39 -57 -90 -57 -150c0 -63 20 -117 56 -156c39 -42 96 -66 165 -66c40 0 78 9 110 27c32 19 57 49 68 90h-172c-8 0 -15 7 -15 15v97c0 9 7 16 15 16h313c9 0 15 -4 15 -16zM500 -169c1 -77 -65 -154 -139 -176c-11 -3 -17 -1 -22 6l-13 21
c-6 9 -3 16 4 21c21 14 53 34 53 63c0 41 -61 32 -61 99c0 46 32 77 82 77c63 0 94 -44 96 -111z" />
    <glyph glyph-name="Gsmall" unicode="&#xf767;" horiz-adv-x="610" 
d="M424 138v51h-97c-8 0 -15 7 -15 16v84c0 8 7 15 15 15h212c9 0 16 -7 16 -15v-274c0 -8 -7 -15 -16 -15h-100c-8 0 -14 6 -15 13c-31 -12 -68 -21 -108 -21c-77 0 -145 24 -197 73c-53 49 -82 121 -82 208c0 72 28 135 74 184c54 58 134 95 220 95c78 0 128 -20 171 -43
c8 -4 10 -13 7 -20l-41 -84c-3 -8 -12 -9 -19 -6c-34 19 -72 32 -121 32c-46 0 -89 -21 -117 -55c-22 -28 -36 -63 -36 -103c0 -48 16 -90 44 -118s67 -42 110 -42c37 0 72 12 95 25z" />
    <glyph glyph-name="Gsmall.2" unicode="&#xe09b;" horiz-adv-x="638" 
d="M336 432c-50 0 -94 -20 -124 -54c-24 -27 -38 -64 -38 -106c0 -49 16 -90 46 -118c29 -28 68 -44 116 -44c29 0 56 7 76 18c24 14 38 32 45 55h-116c-9 0 -16 6 -16 15v87c0 8 7 15 16 15h246c8 0 17 -6 17 -17c0 -101 -15 -167 -83 -230c-45 -39 -114 -63 -190 -63
c-86 0 -161 26 -214 76c-50 47 -80 117 -80 206c0 75 28 140 73 188c55 57 137 92 229 92c84 0 137 -20 180 -43c8 -4 10 -13 7 -20l-40 -83c-4 -8 -12 -9 -19 -6c-34 17 -78 31 -131 32z" />
    <glyph glyph-name="Gsmallbreve" unicode="&#xe09c;" horiz-adv-x="610" 
d="M424 138v51h-97c-8 0 -15 7 -15 16v84c0 8 7 15 15 15h212c9 0 16 -7 16 -15v-274c0 -8 -7 -15 -16 -15h-100c-8 0 -14 6 -15 13c-31 -12 -68 -21 -108 -21c-77 0 -145 24 -197 73c-53 49 -82 121 -82 208c0 72 28 135 74 184c54 58 134 95 220 95c78 0 128 -20 171 -43
c8 -4 10 -13 7 -20l-41 -84c-3 -8 -12 -9 -19 -6c-34 19 -72 32 -121 32c-46 0 -89 -21 -117 -55c-22 -28 -36 -63 -36 -103c0 -48 16 -90 44 -118s67 -42 110 -42c37 0 72 12 95 25zM328 725c44 0 64 24 69 58c1 10 8 16 17 16h47c12 0 18 -8 18 -17
c0 -79 -52 -151 -151 -151c-100 0 -151 72 -151 151c0 9 6 17 18 17h47c8 0 15 -6 17 -16c5 -34 24 -58 69 -58z" />
    <glyph glyph-name="Gsmallbreve.2" unicode="&#xe09d;" horiz-adv-x="634" 
d="M336 432c-50 0 -94 -20 -124 -54c-24 -27 -38 -64 -38 -106c0 -49 16 -90 46 -118c29 -28 68 -44 116 -44c29 0 56 7 76 18c24 14 38 32 45 55h-116c-9 0 -16 6 -16 15v87c0 8 7 15 16 15h246c8 0 17 -6 17 -17c0 -101 -15 -167 -83 -230c-45 -39 -114 -63 -190 -63
c-86 0 -161 26 -214 76c-50 47 -80 117 -80 206c0 75 28 140 73 188c55 57 137 92 229 92c84 0 137 -20 180 -43c8 -4 10 -13 7 -20l-40 -83c-4 -8 -12 -9 -19 -6c-34 17 -78 31 -131 32zM332 725c44 0 64 24 69 58c1 10 8 16 17 16h47c12 0 18 -8 18 -17
c0 -79 -52 -151 -151 -151c-100 0 -151 72 -151 151c0 9 6 17 18 17h47c8 0 15 -6 17 -16c5 -34 24 -58 69 -58z" />
    <glyph glyph-name="Gsmallcommaaccent" unicode="&#xe09e;" horiz-adv-x="610" 
d="M424 138v51h-97c-8 0 -15 7 -15 16v84c0 8 7 15 15 15h212c9 0 16 -7 16 -15v-274c0 -8 -7 -15 -16 -15h-100c-8 0 -14 6 -15 13c-31 -12 -68 -21 -108 -21c-77 0 -145 24 -197 73c-53 49 -82 121 -82 208c0 72 28 135 74 184c54 58 134 95 220 95c78 0 128 -20 171 -43
c8 -4 10 -13 7 -20l-41 -84c-3 -8 -12 -9 -19 -6c-34 19 -72 32 -121 32c-46 0 -89 -21 -117 -55c-22 -28 -36 -63 -36 -103c0 -48 16 -90 44 -118s67 -42 110 -42c37 0 72 12 95 25zM406 -169c1 -77 -65 -154 -139 -176c-11 -3 -17 -1 -22 6l-13 21c-6 9 -3 16 4 21
c21 14 53 34 53 63c0 41 -61 32 -61 99c0 46 32 77 82 77c63 0 94 -44 96 -111z" />
    <glyph glyph-name="Gsmallcommaaccent.2" unicode="&#xe09f;" horiz-adv-x="634" 
d="M336 432c-50 0 -94 -20 -124 -54c-24 -27 -38 -64 -38 -106c0 -49 16 -90 46 -118c29 -28 68 -44 116 -44c29 0 56 7 76 18c24 14 38 32 45 55h-116c-9 0 -16 6 -16 15v87c0 8 7 15 16 15h246c8 0 17 -6 17 -17c0 -101 -15 -167 -83 -230c-45 -39 -114 -63 -190 -63
c-86 0 -161 26 -214 76c-50 47 -80 117 -80 206c0 75 28 140 73 188c55 57 137 92 229 92c84 0 137 -20 180 -43c8 -4 10 -13 7 -20l-40 -83c-4 -8 -12 -9 -19 -6c-34 17 -78 31 -131 32zM420 -169c1 -77 -65 -154 -139 -176c-11 -3 -17 -1 -22 6l-13 21c-6 9 -3 16 4 21
c21 14 53 34 53 63c0 41 -61 32 -61 99c0 46 32 77 82 77c63 0 94 -44 96 -111z" />
    <glyph glyph-name="H" unicode="H" horiz-adv-x="733" 
d="M536 681h114c8 0 15 -7 15 -15v-651c0 -8 -7 -15 -15 -15h-114c-8 0 -15 7 -15 15v264h-310v-264c0 -8 -6 -15 -15 -15h-113c-9 0 -16 7 -16 15v651c0 8 7 15 16 15h113c9 0 15 -7 15 -15v-260h310v260c0 8 7 15 15 15z" />
    <glyph glyph-name="H.2" unicode="&#xe0a0;" horiz-adv-x="773" 
d="M576 681h114c8 0 15 -7 15 -15v-651c0 -8 -7 -15 -15 -15h-114c-8 0 -15 7 -15 15v224h-350v-224c0 -8 -6 -15 -15 -15h-113c-9 0 -16 7 -16 15v651c0 8 7 15 16 15h113c9 0 15 -7 15 -15v-299h350v299c0 8 7 15 15 15z" />
    <glyph glyph-name="Hsmall" unicode="&#xf768;" horiz-adv-x="611" 
d="M429 544h102c8 0 15 -7 15 -15v-514c0 -8 -7 -15 -15 -15h-102c-9 0 -16 7 -16 15v200h-216v-200c0 -8 -7 -15 -15 -15h-102c-9 0 -15 7 -15 15v514c0 8 6 15 15 15h102c8 0 15 -7 15 -15v-195h216v195c0 8 7 15 16 15z" />
    <glyph glyph-name="Hsmall.2" unicode="&#xe0a1;" horiz-adv-x="649" 
d="M467 544h102c8 0 15 -7 15 -15v-514c0 -8 -7 -15 -15 -15h-102c-9 0 -16 7 -16 15v185h-254v-185c0 -8 -7 -15 -15 -15h-102c-9 0 -15 7 -15 15v514c0 8 6 15 15 15h102c8 0 15 -7 15 -15v-210h254v210c0 8 7 15 16 15z" />
    <glyph glyph-name="I" unicode="I" horiz-adv-x="279" 
d="M83 681h113c9 0 15 -7 15 -15v-651c0 -8 -6 -15 -15 -15h-113c-9 0 -16 7 -16 15v651c0 8 7 15 16 15z" />
    <glyph glyph-name="Iacute" unicode="&#xcd;" horiz-adv-x="279" 
d="M83 681h113c9 0 15 -7 15 -15v-651c0 -8 -6 -15 -15 -15h-113c-9 0 -16 7 -16 15v651c0 8 7 15 16 15zM145 968h90c13 0 17 -12 11 -23l-98 -157c-6 -10 -12 -16 -23 -16h-68c-18 0 -14 18 -8 29l75 152c5 10 10 15 21 15z" />
    <glyph glyph-name="Icircumflex" unicode="&#xce;" horiz-adv-x="279" 
d="M83 681h113c9 0 15 -7 15 -15v-651c0 -8 -6 -15 -15 -15h-113c-9 0 -16 7 -16 15v651c0 8 7 15 16 15zM117 968h46c11 0 14 -4 20 -11l144 -163c9 -11 6 -22 -7 -22h-83c-15 0 -19 4 -27 15l-70 79l-71 -79c-8 -11 -12 -15 -27 -15h-83c-13 0 -16 11 -7 22l144 163
c6 7 10 11 21 11z" />
    <glyph glyph-name="Idieresis" unicode="&#xcf;" horiz-adv-x="279" 
d="M83 681h113c9 0 15 -7 15 -15v-651c0 -8 -6 -15 -15 -15h-113c-9 0 -16 7 -16 15v651c0 8 7 15 16 15zM24 784c-43 0 -76 35 -76 77s33 76 76 76c42 0 76 -34 76 -76s-34 -77 -76 -77zM256 784c-43 0 -76 35 -76 77s33 76 76 76c42 0 75 -34 75 -76s-33 -77 -75 -77z" />
    <glyph glyph-name="Idotaccent" unicode="&#x130;" horiz-adv-x="279" 
d="M83 681h113c9 0 15 -7 15 -15v-651c0 -8 -6 -15 -15 -15h-113c-9 0 -16 7 -16 15v651c0 8 7 15 16 15zM140 790c-43 0 -76 34 -76 76s33 76 76 76c42 0 75 -34 75 -76s-33 -76 -75 -76z" />
    <glyph glyph-name="Igrave" unicode="&#xcc;" horiz-adv-x="279" 
d="M83 681h113c9 0 15 -7 15 -15v-651c0 -8 -6 -15 -15 -15h-113c-9 0 -16 7 -16 15v651c0 8 7 15 16 15zM45 968h91c11 0 16 -5 21 -15l76 -154c4 -9 9 -27 -9 -27h-69c-11 0 -17 6 -23 16l-97 157c-7 11 -4 23 10 23z" />
    <glyph glyph-name="Imacron" unicode="&#x12a;" horiz-adv-x="279" 
d="M83 681h113c9 0 15 -7 15 -15v-651c0 -8 -6 -15 -15 -15h-113c-9 0 -16 7 -16 15v651c0 8 7 15 16 15zM19 924h241c9 0 15 -7 15 -15v-77c0 -9 -6 -16 -15 -16h-241c-9 0 -15 7 -15 16v77c0 8 6 15 15 15z" />
    <glyph glyph-name="Iogonek" unicode="&#x12e;" horiz-adv-x="279" 
d="M-20 -119c0 52 44 101 88 129c-1 1 -1 3 -1 5v651c0 8 7 15 16 15h113c9 0 15 -7 15 -15v-651c0 -8 -6 -15 -15 -15h-66c-27 -19 -59 -50 -59 -82c0 -25 18 -35 41 -35c28 0 39 9 53 9c7 0 9 -5 9 -11v-53c0 -9 -3 -12 -9 -14c-24 -11 -52 -17 -80 -17
c-53 0 -105 21 -105 84z" />
    <glyph glyph-name="Ismall" unicode="&#xf769;" horiz-adv-x="262" 
d="M65 529c0 8 6 15 15 15h102c8 0 15 -7 15 -15v-514c0 -8 -7 -15 -15 -15h-102c-9 0 -15 7 -15 15v514z" />
    <glyph glyph-name="Ismallacute" unicode="&#xe0a2;" horiz-adv-x="262" 
d="M65 529c0 8 6 15 15 15h102c8 0 15 -7 15 -15v-514c0 -8 -7 -15 -15 -15h-102c-9 0 -15 7 -15 15v514zM137 827h90c13 0 17 -12 11 -23l-98 -157c-6 -10 -12 -16 -23 -16h-68c-18 0 -14 18 -8 29l75 152c5 10 10 15 21 15z" />
    <glyph glyph-name="Ismallcircumflex" unicode="&#xe0a3;" horiz-adv-x="262" 
d="M65 529c0 8 6 15 15 15h102c8 0 15 -7 15 -15v-514c0 -8 -7 -15 -15 -15h-102c-9 0 -15 7 -15 15v514zM109 826h46c11 0 14 -4 20 -11l144 -163c9 -11 6 -22 -7 -22h-83c-15 0 -19 4 -27 15l-70 79l-71 -79c-8 -11 -12 -15 -27 -15h-83c-13 0 -16 11 -7 22l144 163
c6 7 10 11 21 11z" />
    <glyph glyph-name="Ismalldieresis" unicode="&#xe0a4;" horiz-adv-x="262" 
d="M65 529c0 8 6 15 15 15h102c8 0 15 -7 15 -15v-514c0 -8 -7 -15 -15 -15h-102c-9 0 -15 7 -15 15v514zM16 644c-43 0 -76 35 -76 77s33 76 76 76c42 0 76 -34 76 -76s-34 -77 -76 -77zM248 644c-43 0 -76 35 -76 77s33 76 76 76c42 0 75 -34 75 -76s-33 -77 -75 -77z" />
    <glyph glyph-name="Ismallgrave" unicode="&#xe0a5;" horiz-adv-x="262" 
d="M65 529c0 8 6 15 15 15h102c8 0 15 -7 15 -15v-514c0 -8 -7 -15 -15 -15h-102c-9 0 -15 7 -15 15v514zM36 827h91c11 0 16 -5 21 -15l76 -154c4 -9 9 -27 -9 -27h-69c-11 0 -17 6 -23 16l-97 157c-7 11 -4 23 10 23z" />
    <glyph glyph-name="Ismallmacron" unicode="&#xe0a6;" horiz-adv-x="262" 
d="M65 529c0 8 6 15 15 15h102c8 0 15 -7 15 -15v-514c0 -8 -7 -15 -15 -15h-102c-9 0 -15 7 -15 15v514zM10 761h241c9 0 15 -7 15 -15v-77c0 -9 -6 -16 -15 -16h-241c-9 0 -15 7 -15 16v77c0 8 6 15 15 15z" />
    <glyph glyph-name="Ismallogonek" unicode="&#xe0a7;" horiz-adv-x="262" 
d="M-21 -119c0 52 43 100 87 128c-1 2 -1 4 -1 6v514c0 8 6 15 15 15h102c8 0 15 -7 15 -15v-514c0 -8 -7 -15 -15 -15h-53c-27 -19 -59 -50 -59 -82c0 -25 18 -35 41 -35c28 0 39 9 53 9c7 0 9 -5 9 -11v-53c0 -9 -3 -12 -9 -14c-24 -11 -52 -17 -80 -17
c-53 0 -105 21 -105 84z" />
    <glyph glyph-name="J" unicode="J" horiz-adv-x="533" 
d="M207 -10c-75 0 -143 28 -191 67c-7 5 -8 13 -3 21l53 90c4 6 12 9 20 2c36 -32 76 -53 119 -53c34 0 64 9 84 28c24 24 34 60 34 115v406c0 8 7 15 15 15h114c8 0 15 -7 15 -15v-419c0 -97 -31 -162 -82 -203c-46 -37 -109 -54 -178 -54z" />
    <glyph glyph-name="Jsmall" unicode="&#xf76a;" horiz-adv-x="452" 
d="M178 -8c-56 0 -113 18 -162 56c-6 5 -7 15 -3 21l47 79c5 7 14 9 20 4c34 -29 62 -41 97 -41c27 0 48 9 62 26c11 16 17 40 17 73v319c0 8 7 15 15 15h102c9 0 15 -7 15 -15v-328c0 -68 -17 -117 -49 -151c-38 -41 -95 -58 -161 -58z" />
    <glyph glyph-name="K" unicode="K" horiz-adv-x="654" 
d="M466 15l-200 265l-55 -56v-209c0 -8 -6 -15 -15 -15h-113c-9 0 -16 7 -16 15v651c0 8 7 15 16 15h113c9 0 15 -7 15 -15v-259l235 259c9 10 19 15 31 15h145c13 0 18 -12 7 -23l-262 -272l270 -360c9 -11 10 -26 -8 -26h-134c-13 0 -21 4 -29 15z" />
    <glyph glyph-name="K.2" unicode="&#xe0a8;" horiz-adv-x="726" 
d="M503 681h147c11 0 17 -12 7 -22l-253 -267c195 -36 274 -180 274 -377c0 -8 -6 -15 -15 -15h-116c-8 0 -15 7 -15 15c0 155 -63 248 -228 268l-93 -98v-170c0 -8 -6 -15 -15 -15h-113c-9 0 -16 7 -16 15v651c0 8 7 15 16 15h113c9 0 15 -7 15 -15v-290l261 289
c9 11 18 16 31 16z" />
    <glyph glyph-name="Kcommaaccent" unicode="&#x136;" horiz-adv-x="654" 
d="M466 15l-200 265l-55 -56v-209c0 -8 -6 -15 -15 -15h-113c-9 0 -16 7 -16 15v651c0 8 7 15 16 15h113c9 0 15 -7 15 -15v-259l235 259c9 10 19 15 31 15h145c13 0 18 -12 7 -23l-262 -272l270 -360c9 -11 10 -26 -8 -26h-134c-13 0 -21 4 -29 15zM416 -169
c1 -77 -65 -154 -139 -176c-11 -3 -17 -1 -22 6l-13 21c-6 9 -3 16 4 21c21 14 53 34 53 63c0 41 -61 32 -61 99c0 46 32 77 82 77c63 0 94 -44 96 -111z" />
    <glyph glyph-name="Kcommaaccent.2" unicode="&#xe0a9;" horiz-adv-x="696" 
d="M503 681h147c11 0 17 -12 7 -22l-253 -267c195 -36 274 -180 274 -377c0 -8 -6 -15 -15 -15h-116c-8 0 -15 7 -15 15c0 155 -63 248 -228 268l-93 -98v-170c0 -8 -6 -15 -15 -15h-113c-9 0 -16 7 -16 15v651c0 8 7 15 16 15h113c9 0 15 -7 15 -15v-290l261 289
c9 11 18 16 31 16zM445 -169c1 -77 -65 -154 -139 -176c-11 -3 -17 -1 -22 6l-13 21c-6 9 -3 16 4 21c21 14 53 34 53 63c0 41 -61 32 -61 99c0 46 32 77 82 77c63 0 94 -44 96 -111z" />
    <glyph glyph-name="Ksmall" unicode="&#xf76b;" horiz-adv-x="548" 
d="M379 15l-148 196l-34 -36v-160c0 -8 -7 -15 -15 -15h-102c-9 0 -15 7 -15 15v514c0 8 6 15 15 15h102c8 0 15 -7 15 -15v-179l163 179c9 10 18 15 31 15h127c14 0 18 -12 8 -23l-205 -216l213 -279c8 -11 9 -26 -9 -26h-117c-14 0 -21 4 -29 15z" />
    <glyph glyph-name="Ksmall.2" unicode="&#xe0aa;" horiz-adv-x="610" 
d="M538 521l-188 -199c164 -48 208 -139 208 -307c0 -8 -7 -15 -15 -15h-104c-8 0 -15 7 -15 15c0 129 -46 188 -166 208l-61 -64v-144c0 -8 -7 -15 -15 -15h-102c-9 0 -15 7 -15 15v514c0 8 6 15 15 15h102c8 0 15 -7 15 -15v-198l175 198c9 10 18 15 31 15h127
c14 0 18 -12 8 -23z" />
    <glyph glyph-name="Ksmallcommaaccent" unicode="&#xe0ab;" horiz-adv-x="548" 
d="M379 15l-148 196l-34 -36v-160c0 -8 -7 -15 -15 -15h-102c-9 0 -15 7 -15 15v514c0 8 6 15 15 15h102c8 0 15 -7 15 -15v-179l163 179c9 10 18 15 31 15h127c14 0 18 -12 8 -23l-205 -216l213 -279c8 -11 9 -26 -9 -26h-117c-14 0 -21 4 -29 15zM378 -169
c1 -77 -65 -154 -139 -176c-11 -3 -17 -1 -22 6l-13 21c-6 9 -3 16 4 21c21 14 53 34 53 63c0 41 -61 32 -61 99c0 46 32 77 82 77c63 0 94 -44 96 -111z" />
    <glyph glyph-name="Ksmallcommaaccent.2" unicode="&#xe0ac;" horiz-adv-x="576" 
d="M538 521l-188 -199c164 -48 208 -139 208 -307c0 -8 -7 -15 -15 -15h-104c-8 0 -15 7 -15 15c0 129 -46 188 -166 208l-61 -64v-144c0 -8 -7 -15 -15 -15h-102c-9 0 -15 7 -15 15v514c0 8 6 15 15 15h102c8 0 15 -7 15 -15v-198l175 198c9 10 18 15 31 15h127
c14 0 18 -12 8 -23zM391 -169c1 -77 -65 -154 -139 -176c-11 -3 -17 -1 -22 6l-13 21c-6 9 -3 16 4 21c21 14 53 34 53 63c0 41 -61 32 -61 99c0 46 32 77 82 77c63 0 94 -44 96 -111z" />
    <glyph glyph-name="L" unicode="L" horiz-adv-x="542" 
d="M83 681h113c9 0 15 -7 15 -15v-539h291c9 0 16 -6 16 -15v-97c0 -8 -7 -15 -16 -15h-419c-9 0 -16 7 -16 15v651c0 8 7 15 16 15z" />
    <glyph glyph-name="L.1" unicode="&#xe0ad;" horiz-adv-x="528" 
d="M335 127h154c8 0 15 -6 15 -15v-97c0 -8 -7 -15 -15 -15h-157c-102 0 -181 25 -229 90c-33 46 -50 110 -50 199v377c0 8 7 15 15 15h114c8 0 15 -7 15 -15v-398c0 -41 8 -75 28 -99c22 -28 58 -42 110 -42z" />
    <glyph glyph-name="Lacute" unicode="&#x139;" horiz-adv-x="543" 
d="M84 681h113c9 0 15 -7 15 -15v-539h291c9 0 16 -6 16 -15v-97c0 -8 -7 -15 -16 -15h-419c-9 0 -16 7 -16 15v651c0 8 7 15 16 15zM169 968h90c13 0 17 -12 11 -23l-98 -157c-6 -10 -12 -16 -23 -16h-68c-18 0 -14 18 -8 29l75 152c5 10 10 15 21 15z" />
    <glyph glyph-name="Lacute.1" unicode="&#xe0ae;" horiz-adv-x="528" 
d="M335 127h154c8 0 15 -6 15 -15v-97c0 -8 -7 -15 -15 -15h-157c-102 0 -181 25 -229 90c-33 46 -50 110 -50 199v377c0 8 7 15 15 15h114c8 0 15 -7 15 -15v-398c0 -41 8 -75 28 -99c22 -28 58 -42 110 -42zM154 968h90c13 0 17 -12 11 -23l-98 -157
c-6 -10 -12 -16 -23 -16h-68c-18 0 -14 18 -8 29l75 152c5 10 10 15 21 15z" />
    <glyph glyph-name="Lcaron" unicode="&#x13d;" horiz-adv-x="542" 
d="M83 681h113c9 0 15 -7 15 -15v-539h291c9 0 16 -6 16 -15v-97c0 -8 -7 -15 -16 -15h-419c-9 0 -16 7 -16 15v651c0 8 7 15 16 15zM480 580c1 -77 -65 -154 -139 -176c-11 -3 -17 -1 -22 6l-13 21c-6 9 -3 16 4 21c21 14 53 34 53 63c0 41 -61 32 -61 99c0 46 32 77 82 77
c63 0 94 -44 96 -111z" />
    <glyph glyph-name="Lcaron.1" unicode="&#xe0af;" horiz-adv-x="528" 
d="M335 127h154c8 0 15 -6 15 -15v-97c0 -8 -7 -15 -15 -15h-157c-102 0 -181 25 -229 90c-33 46 -50 110 -50 199v377c0 8 7 15 15 15h114c8 0 15 -7 15 -15v-398c0 -41 8 -75 28 -99c22 -28 58 -42 110 -42zM466 580c1 -77 -65 -154 -139 -176c-11 -3 -17 -1 -22 6l-13 21
c-6 9 -3 16 4 21c21 14 53 34 53 63c0 41 -61 32 -61 99c0 46 32 77 82 77c63 0 94 -44 96 -111z" />
    <glyph glyph-name="Lcommaaccent" unicode="&#x13b;" horiz-adv-x="542" 
d="M83 681h113c9 0 15 -7 15 -15v-539h291c9 0 16 -6 16 -15v-97c0 -8 -7 -15 -16 -15h-419c-9 0 -16 7 -16 15v651c0 8 7 15 16 15zM383 -169c1 -77 -65 -154 -139 -176c-11 -3 -17 -1 -22 6l-13 21c-6 9 -3 16 4 21c21 14 53 34 53 63c0 41 -61 32 -61 99
c0 46 32 77 82 77c63 0 94 -44 96 -111z" />
    <glyph glyph-name="Lcommaaccent.1" unicode="&#xe0b0;" horiz-adv-x="528" 
d="M335 127h154c8 0 15 -6 15 -15v-97c0 -8 -7 -15 -15 -15h-157c-102 0 -181 25 -229 90c-33 46 -50 110 -50 199v377c0 8 7 15 15 15h114c8 0 15 -7 15 -15v-398c0 -41 8 -75 28 -99c22 -28 58 -42 110 -42zM369 -169c1 -77 -65 -154 -139 -176c-11 -3 -17 -1 -22 6
l-13 21c-6 9 -3 16 4 21c21 14 53 34 53 63c0 41 -61 32 -61 99c0 46 32 77 82 77c63 0 94 -44 96 -111z" />
    <glyph glyph-name="Lslash" unicode="&#x141;" horiz-adv-x="552" 
d="M93 681h114c8 0 15 -7 15 -15v-220l70 45c7 4 16 2 21 -4l46 -71c5 -7 2 -17 -5 -21l-132 -85v-183h291c9 0 15 -6 15 -15v-97c0 -8 -6 -15 -15 -15h-420c-8 0 -15 7 -15 15v203l-48 -30c-7 -5 -16 -2 -21 4l-45 71c-5 7 -3 16 4 21l110 70v312c0 8 7 15 15 15z" />
    <glyph glyph-name="Lsmall" unicode="&#xf76c;" horiz-adv-x="447" 
d="M80 544h102c8 0 15 -7 15 -15v-412h211c9 0 16 -6 16 -15v-87c0 -8 -7 -15 -16 -15h-328c-9 0 -15 7 -15 15v514c0 8 6 15 15 15z" />
    <glyph glyph-name="Lsmall.1" unicode="&#xe0b1;" horiz-adv-x="456" 
d="M417 0h-142c-78 0 -143 19 -186 76c-30 40 -41 93 -41 161v292c0 8 7 15 15 15h102c9 0 16 -7 16 -15v-327c0 -23 5 -44 15 -58c14 -18 35 -27 70 -27h151c9 0 16 -6 16 -15v-87c0 -8 -7 -15 -16 -15z" />
    <glyph glyph-name="Lsmallacute" unicode="&#xe0b2;" horiz-adv-x="467" 
d="M167 828h90c8 0 14 -5 14 -13c0 -2 -1 -7 -3 -10l-98 -158c-6 -9 -12 -15 -23 -15h-68c-8 0 -14 5 -14 12c0 5 3 10 6 17l75 152c5 10 10 15 21 15zM99 544h102c8 0 15 -7 15 -15v-412h212c8 0 15 -6 15 -15v-87c0 -8 -7 -15 -15 -15h-329c-8 0 -15 7 -15 15v514
c0 8 7 15 15 15z" />
    <glyph glyph-name="Lsmallacute.1" unicode="&#xe0b3;" horiz-adv-x="458" 
d="M417 0h-142c-78 0 -143 19 -186 76c-30 40 -41 93 -41 161v292c0 8 7 15 15 15h102c9 0 16 -7 16 -15v-327c0 -23 5 -44 15 -58c14 -18 35 -27 70 -27h151c9 0 16 -6 16 -15v-87c0 -8 -7 -15 -16 -15zM133 827h90c13 0 17 -12 11 -23l-98 -157c-6 -10 -12 -16 -23 -16
h-68c-18 0 -14 18 -8 29l75 152c5 10 10 15 21 15z" />
    <glyph glyph-name="Lsmallcaron" unicode="&#xe0b4;" horiz-adv-x="447" 
d="M80 544h102c8 0 15 -7 15 -15v-412h211c9 0 16 -6 16 -15v-87c0 -8 -7 -15 -16 -15h-328c-9 0 -15 7 -15 15v514c0 8 6 15 15 15zM430 440c1 -77 -65 -154 -139 -176c-11 -3 -17 -1 -22 6l-13 21c-6 9 -3 16 4 21c21 14 53 34 53 63c0 41 -61 32 -61 99c0 46 32 77 82 77
c63 0 94 -44 96 -111z" />
    <glyph glyph-name="Lsmallcaron.1" unicode="&#xe0b5;" horiz-adv-x="456" 
d="M417 0h-142c-78 0 -143 19 -186 76c-30 40 -41 93 -41 161v292c0 8 7 15 15 15h102c9 0 16 -7 16 -15v-327c0 -23 5 -44 15 -58c14 -18 35 -27 70 -27h151c9 0 16 -6 16 -15v-87c0 -8 -7 -15 -16 -15zM414 440c1 -77 -65 -154 -139 -176c-11 -3 -17 -1 -22 6l-13 21
c-6 9 -3 16 4 21c21 14 53 34 53 63c0 41 -61 32 -61 99c0 46 32 77 82 77c63 0 94 -44 96 -111z" />
    <glyph glyph-name="Lsmallcommaaccent" unicode="&#xe0b6;" horiz-adv-x="447" 
d="M80 544h102c8 0 15 -7 15 -15v-412h211c9 0 16 -6 16 -15v-87c0 -8 -7 -15 -16 -15h-328c-9 0 -15 7 -15 15v514c0 8 6 15 15 15zM340 -169c1 -77 -65 -154 -139 -176c-11 -3 -17 -1 -22 6l-13 21c-6 9 -3 16 4 21c21 14 53 34 53 63c0 41 -61 32 -61 99
c0 46 32 77 82 77c63 0 94 -44 96 -111z" />
    <glyph glyph-name="Lsmallcommaaccent.1" unicode="&#xe0b7;" horiz-adv-x="456" 
d="M417 0h-142c-78 0 -143 19 -186 76c-30 40 -41 93 -41 161v292c0 8 7 15 15 15h102c9 0 16 -7 16 -15v-327c0 -23 5 -44 15 -58c14 -18 35 -27 70 -27h151c9 0 16 -6 16 -15v-87c0 -8 -7 -15 -16 -15zM337 -169c1 -77 -65 -154 -139 -176c-11 -3 -17 -1 -22 6l-13 21
c-6 9 -3 16 4 21c21 14 53 34 53 63c0 41 -61 32 -61 99c0 46 32 77 82 77c63 0 94 -44 96 -111z" />
    <glyph glyph-name="M" unicode="M" horiz-adv-x="840" 
d="M772 666v-651c0 -8 -7 -15 -16 -15h-108c-9 0 -16 7 -16 15v416l-145 -253c-6 -11 -11 -16 -24 -16h-83c-12 0 -18 5 -24 16l-149 253v-416c0 -8 -7 -15 -16 -15h-108c-9 0 -16 7 -16 15v651c0 8 7 15 16 15h114c12 0 20 -2 28 -16l194 -337l195 337c7 14 15 16 27 16
h115c9 0 16 -7 16 -15z" />
    <glyph glyph-name="M.2" unicode="&#xe0b8;" horiz-adv-x="987" 
d="M492 181l269 484c8 14 15 16 27 16h116c8 0 15 -7 15 -15v-651c0 -8 -7 -15 -15 -15h-109c-8 0 -15 7 -15 15v408l-227 -408c-6 -11 -12 -16 -24 -16h-71c-13 0 -18 5 -24 16l-227 408v-408c0 -8 -7 -15 -16 -15h-108c-9 0 -16 7 -16 15v651c0 8 7 15 16 15h115
c12 0 19 -1 27 -16z" />
    <glyph glyph-name="M.3" unicode="&#xe0b9;" horiz-adv-x="1167" 
d="M83 681h103c9 0 16 -7 16 -15v-44h4c17 17 36 31 61 42c31 17 69 26 112 26c51 0 96 -10 135 -32c34 -20 62 -49 85 -87c17 29 39 54 66 73c42 30 96 46 159 46c86 0 155 -25 202 -75c49 -51 74 -129 74 -232v-368c0 -8 -6 -15 -15 -15h-113c-9 0 -16 7 -16 15v365
c0 54 -10 103 -38 137c-23 28 -59 45 -111 45c-43 0 -78 -12 -105 -39c-29 -30 -46 -79 -46 -150v-358c0 -8 -7 -15 -15 -15h-114c-8 0 -15 7 -15 15v366c0 53 -12 105 -41 137c-23 27 -58 44 -109 44c-45 0 -83 -14 -110 -45c-25 -29 -41 -81 -41 -144v-358
c0 -8 -6 -15 -15 -15h-113c-9 0 -16 7 -16 15v651c0 8 7 15 16 15z" />
    <glyph glyph-name="Msmall" unicode="&#xf76d;" horiz-adv-x="692" 
d="M346 286l139 242c8 14 15 16 27 16h100c9 0 15 -7 15 -15v-514c0 -8 -6 -15 -15 -15h-99c-8 0 -15 7 -15 15v300l-98 -165c-6 -10 -11 -15 -24 -15h-62c-12 0 -17 4 -23 15l-97 165v-300c0 -8 -7 -15 -15 -15h-99c-9 0 -15 7 -15 15v514c0 8 6 15 15 15h98
c12 0 20 -3 27 -16z" />
    <glyph glyph-name="Msmall.2" unicode="&#xe0ba;" horiz-adv-x="829" 
d="M414 149l208 379c7 14 15 16 27 16h100c8 0 15 -7 15 -15v-514c0 -8 -7 -15 -15 -15h-99c-8 0 -15 7 -15 15v300l-166 -301c-6 -10 -11 -15 -24 -15h-63c-12 0 -18 5 -23 15l-165 301v-300c0 -8 -7 -15 -15 -15h-99c-9 0 -15 7 -15 15v514c0 8 6 15 15 15h98
c12 0 20 -3 27 -16z" />
    <glyph glyph-name="Msmall.3" unicode="&#xe0bb;" horiz-adv-x="945" 
d="M189 496h4c16 17 34 29 54 37c28 13 58 19 87 19c37 0 71 -7 101 -22c29 -15 51 -34 65 -57c16 20 41 42 73 57c29 15 64 22 103 22c58 0 114 -17 153 -55c35 -35 59 -87 59 -166v-316c0 -8 -7 -15 -15 -15h-102c-8 0 -15 7 -15 15v284c0 38 -7 78 -27 102
c-15 17 -39 32 -78 32c-40 0 -68 -19 -84 -45c-18 -31 -24 -73 -24 -120v-253c0 -8 -7 -15 -15 -15h-102c-9 0 -16 7 -16 15v284c0 38 -7 78 -26 102c-15 18 -39 32 -79 32s-67 -19 -83 -45c-16 -27 -25 -64 -25 -105v-268c0 -8 -7 -15 -15 -15h-102c-9 0 -15 7 -15 15v514
c0 8 6 15 15 15h94c8 0 15 -7 15 -15v-33z" />
    <glyph glyph-name="N" unicode="N" horiz-adv-x="743" 
d="M537 239v427c0 8 7 15 15 15h108c8 0 15 -7 15 -15v-651c0 -8 -7 -15 -15 -15h-100c-12 0 -19 2 -28 15l-327 426v-426c0 -8 -7 -15 -15 -15h-107c-9 0 -16 7 -16 15v651c0 8 7 15 16 15h100c12 0 18 -4 27 -16z" />
    <glyph glyph-name="N.2" unicode="&#xe0bc;" horiz-adv-x="785" 
d="M83 681h107c8 0 15 -7 15 -15v-46c0 -61 89 -125 189 -194c40 -28 81 -57 120 -89c24 -19 46 -38 65 -58v387c0 8 7 15 15 15h108c8 0 15 -7 15 -15v-651c0 -8 -7 -15 -15 -15h-108c-8 0 -15 7 -15 15v46c0 60 -95 127 -187 190c-40 29 -82 57 -122 89
c-24 19 -46 38 -65 58v-383c0 -8 -7 -15 -15 -15h-107c-9 0 -16 7 -16 15v651c0 8 7 15 16 15z" />
    <glyph glyph-name="N.3" unicode="&#xe0bd;" horiz-adv-x="725" 
d="M206 599h6c16 21 39 43 64 58c35 20 78 33 128 33c72 0 139 -19 188 -65c45 -43 75 -113 75 -213v-397c0 -8 -7 -15 -16 -15h-113c-9 0 -15 7 -15 15v367c0 55 -8 105 -37 136c-22 23 -54 39 -100 39c-66 0 -111 -27 -139 -71c-25 -40 -36 -87 -36 -139v-332
c0 -8 -6 -15 -15 -15h-113c-9 0 -16 7 -16 15v651c0 8 7 15 16 15h108c9 0 15 -7 15 -15v-67z" />
    <glyph glyph-name="Nacute" unicode="&#x143;" horiz-adv-x="743" 
d="M537 239v427c0 8 7 15 15 15h108c8 0 15 -7 15 -15v-651c0 -8 -7 -15 -15 -15h-100c-12 0 -19 2 -28 15l-327 426v-426c0 -8 -7 -15 -15 -15h-107c-9 0 -16 7 -16 15v651c0 8 7 15 16 15h100c12 0 18 -4 27 -16zM375 968h90c13 0 17 -12 11 -23l-98 -157
c-6 -10 -12 -16 -23 -16h-68c-18 0 -14 18 -8 29l75 152c5 10 10 15 21 15z" />
    <glyph glyph-name="Nacute.2" unicode="&#xe0be;" horiz-adv-x="785" 
d="M83 681h107c8 0 15 -7 15 -15v-46c0 -61 89 -125 189 -194c40 -28 81 -57 120 -89c24 -19 46 -38 65 -58v387c0 8 7 15 15 15h108c8 0 15 -7 15 -15v-651c0 -8 -7 -15 -15 -15h-108c-8 0 -15 7 -15 15v46c0 60 -95 127 -187 190c-40 29 -82 57 -122 89
c-24 19 -46 38 -65 58v-383c0 -8 -7 -15 -15 -15h-107c-9 0 -16 7 -16 15v651c0 8 7 15 16 15zM417 968h90c13 0 17 -12 11 -23l-98 -157c-6 -10 -12 -16 -23 -16h-68c-18 0 -14 18 -8 29l75 152c5 10 10 15 21 15z" />
    <glyph glyph-name="Nacute.3" unicode="&#xe0bf;" horiz-adv-x="725" 
d="M206 599h6c16 21 39 43 64 58c35 20 78 33 128 33c72 0 139 -19 188 -65c45 -43 75 -113 75 -213v-397c0 -8 -7 -15 -16 -15h-113c-9 0 -15 7 -15 15v367c0 55 -8 105 -37 136c-22 23 -54 39 -100 39c-66 0 -111 -27 -139 -71c-25 -40 -36 -87 -36 -139v-332
c0 -8 -6 -15 -15 -15h-113c-9 0 -16 7 -16 15v651c0 8 7 15 16 15h108c9 0 15 -7 15 -15v-67zM402 968h90c13 0 17 -12 11 -23l-98 -157c-6 -10 -12 -16 -23 -16h-68c-18 0 -14 18 -8 29l75 152c5 10 10 15 21 15z" />
    <glyph glyph-name="Ncaron" unicode="&#x147;" horiz-adv-x="743" 
d="M537 239v427c0 8 7 15 15 15h108c8 0 15 -7 15 -15v-651c0 -8 -7 -15 -15 -15h-100c-12 0 -19 2 -28 15l-327 426v-426c0 -8 -7 -15 -15 -15h-107c-9 0 -16 7 -16 15v651c0 8 7 15 16 15h100c12 0 18 -4 27 -16zM395 772h-46c-11 0 -15 5 -21 12l-144 162
c-9 11 -6 22 7 22h83c15 0 19 -4 27 -14l71 -79l70 79c8 10 12 14 27 14h83c13 0 16 -11 7 -22l-144 -162c-6 -7 -9 -12 -20 -12z" />
    <glyph glyph-name="Ncaron.2" unicode="&#xe0c0;" horiz-adv-x="785" 
d="M83 681h107c8 0 15 -7 15 -15v-46c0 -61 89 -125 189 -194c40 -28 81 -57 120 -89c24 -19 46 -38 65 -58v387c0 8 7 15 15 15h108c8 0 15 -7 15 -15v-651c0 -8 -7 -15 -15 -15h-108c-8 0 -15 7 -15 15v46c0 60 -95 127 -187 190c-40 29 -82 57 -122 89
c-24 19 -46 38 -65 58v-383c0 -8 -7 -15 -15 -15h-107c-9 0 -16 7 -16 15v651c0 8 7 15 16 15zM418 772h-46c-11 0 -15 5 -21 12l-144 162c-9 11 -6 22 7 22h83c15 0 19 -4 27 -14l71 -79l70 79c8 10 12 14 27 14h83c13 0 16 -11 7 -22l-144 -162c-6 -7 -9 -12 -20 -12z" />
    <glyph glyph-name="Ncaron.3" unicode="&#xe0c1;" horiz-adv-x="725" 
d="M206 599h6c16 21 39 43 64 58c35 20 78 33 128 33c72 0 139 -19 188 -65c45 -43 75 -113 75 -213v-397c0 -8 -7 -15 -16 -15h-113c-9 0 -15 7 -15 15v367c0 55 -8 105 -37 136c-22 23 -54 39 -100 39c-66 0 -111 -27 -139 -71c-25 -40 -36 -87 -36 -139v-332
c0 -8 -6 -15 -15 -15h-113c-9 0 -16 7 -16 15v651c0 8 7 15 16 15h108c9 0 15 -7 15 -15v-67zM420 772h-46c-11 0 -15 5 -21 12l-144 162c-9 11 -6 22 7 22h83c15 0 19 -4 27 -14l71 -79l70 79c8 10 12 14 27 14h83c13 0 16 -11 7 -22l-144 -162c-6 -7 -9 -12 -20 -12z" />
    <glyph glyph-name="Ncommaaccent" unicode="&#x145;" horiz-adv-x="743" 
d="M537 239v427c0 8 7 15 15 15h108c8 0 15 -7 15 -15v-651c0 -8 -7 -15 -15 -15h-100c-12 0 -19 2 -28 15l-327 426v-426c0 -8 -7 -15 -15 -15h-107c-9 0 -16 7 -16 15v651c0 8 7 15 16 15h100c12 0 18 -4 27 -16zM461 -169c1 -77 -65 -154 -139 -176c-11 -3 -17 -1 -22 6
l-13 21c-6 9 -3 16 4 21c21 14 53 34 53 63c0 41 -61 32 -61 99c0 46 32 77 82 77c63 0 94 -44 96 -111z" />
    <glyph glyph-name="Ncommaaccent.2" unicode="&#xe0c2;" horiz-adv-x="785" 
d="M83 681h107c8 0 15 -7 15 -15v-46c0 -61 89 -125 189 -194c40 -28 81 -57 120 -89c24 -19 46 -38 65 -58v387c0 8 7 15 15 15h108c8 0 15 -7 15 -15v-651c0 -8 -7 -15 -15 -15h-108c-8 0 -15 7 -15 15v46c0 60 -95 127 -187 190c-40 29 -82 57 -122 89
c-24 19 -46 38 -65 58v-383c0 -8 -7 -15 -15 -15h-107c-9 0 -16 7 -16 15v651c0 8 7 15 16 15zM491 -169c1 -77 -65 -154 -139 -176c-11 -3 -17 -1 -22 6l-13 21c-6 9 -3 16 4 21c21 14 53 34 53 63c0 41 -61 32 -61 99c0 46 32 77 82 77c63 0 94 -44 96 -111z" />
    <glyph glyph-name="Ncommaaccent.3" unicode="&#xe0c3;" horiz-adv-x="725" 
d="M206 599h6c16 21 39 43 64 58c35 20 78 33 128 33c72 0 139 -19 188 -65c45 -43 75 -113 75 -213v-397c0 -8 -7 -15 -16 -15h-113c-9 0 -15 7 -15 15v367c0 55 -8 105 -37 136c-22 23 -54 39 -100 39c-66 0 -111 -27 -139 -71c-25 -40 -36 -87 -36 -139v-332
c0 -8 -6 -15 -15 -15h-113c-9 0 -16 7 -16 15v651c0 8 7 15 16 15h108c9 0 15 -7 15 -15v-67zM459 -169c1 -77 -65 -154 -139 -176c-11 -3 -17 -1 -22 6l-13 21c-6 9 -3 16 4 21c21 14 53 34 53 63c0 41 -61 32 -61 99c0 46 32 77 82 77c63 0 94 -44 96 -111z" />
    <glyph glyph-name="Nsmall" unicode="&#xf76e;" horiz-adv-x="620" 
d="M540 0h-71c-12 0 -18 4 -27 15l-251 305v-305c0 -8 -7 -15 -16 -15h-95c-9 0 -15 7 -15 15v514c0 8 6 15 15 15h71c12 0 19 -4 27 -16l251 -305v306c0 8 7 15 15 15h96c8 0 15 -7 15 -15v-514c0 -8 -7 -15 -15 -15z" />
    <glyph glyph-name="Nsmall.2" unicode="&#xe0c4;" horiz-adv-x="671" 
d="M480 529c0 8 7 15 16 15h95c9 0 15 -7 15 -15v-514c0 -8 -6 -15 -15 -15h-95c-9 0 -16 7 -16 15v40c0 54 -81 106 -150 146c-48 29 -100 62 -139 100v-286c0 -8 -7 -15 -16 -15h-95c-9 0 -15 7 -15 15v514c0 8 6 15 15 15h95c9 0 16 -7 16 -15v-41c0 -50 68 -97 145 -143
c51 -32 104 -63 144 -103v287z" />
    <glyph glyph-name="Nsmall.3" unicode="&#xe0c5;" horiz-adv-x="622" 
d="M189 477h6c14 18 34 36 56 49c29 16 67 26 106 26c57 0 111 -15 150 -53c36 -35 58 -90 58 -170v-314c0 -8 -7 -15 -16 -15h-102c-8 0 -15 7 -15 15v286c0 39 -7 79 -31 104c-15 16 -40 28 -74 28c-50 0 -82 -20 -103 -54c-18 -29 -27 -64 -27 -99v-265
c0 -8 -7 -15 -15 -15h-102c-9 0 -15 7 -15 15v514c0 8 6 15 15 15h94c8 0 15 -7 15 -15v-52z" />
    <glyph glyph-name="Nsmallacute" unicode="&#xe0c6;" horiz-adv-x="620" 
d="M540 0h-71c-12 0 -18 4 -27 15l-251 305v-305c0 -8 -7 -15 -16 -15h-95c-9 0 -15 7 -15 15v514c0 8 6 15 15 15h71c12 0 19 -4 27 -16l251 -305v306c0 8 7 15 15 15h96c8 0 15 -7 15 -15v-514c0 -8 -7 -15 -15 -15zM316 827h90c13 0 17 -12 11 -23l-98 -157
c-6 -10 -12 -16 -23 -16h-68c-18 0 -14 18 -8 29l75 152c5 10 10 15 21 15z" />
    <glyph glyph-name="Nsmallacute.2" unicode="&#xe0c7;" horiz-adv-x="671" 
d="M480 529c0 8 7 15 16 15h95c9 0 15 -7 15 -15v-514c0 -8 -6 -15 -15 -15h-95c-9 0 -16 7 -16 15v40c0 54 -81 106 -150 146c-48 29 -100 62 -139 100v-286c0 -8 -7 -15 -16 -15h-95c-9 0 -15 7 -15 15v514c0 8 6 15 15 15h95c9 0 16 -7 16 -15v-41c0 -50 68 -97 145 -143
c51 -32 104 -63 144 -103v287zM356 827h90c13 0 17 -12 11 -23l-98 -157c-6 -10 -12 -16 -23 -16h-68c-18 0 -14 18 -8 29l75 152c5 10 10 15 21 15z" />
    <glyph glyph-name="Nsmallacute.3" unicode="&#xe0c8;" horiz-adv-x="622" 
d="M189 477h6c14 18 34 36 56 49c29 16 67 26 106 26c57 0 111 -15 150 -53c36 -35 58 -90 58 -170v-314c0 -8 -7 -15 -16 -15h-102c-8 0 -15 7 -15 15v286c0 39 -7 79 -31 104c-15 16 -40 28 -74 28c-50 0 -82 -20 -103 -54c-18 -29 -27 -64 -27 -99v-265
c0 -8 -7 -15 -15 -15h-102c-9 0 -15 7 -15 15v514c0 8 6 15 15 15h94c8 0 15 -7 15 -15v-52zM355 827h90c13 0 17 -12 11 -23l-98 -157c-6 -10 -12 -16 -23 -16h-68c-18 0 -14 18 -8 29l75 152c5 10 10 15 21 15z" />
    <glyph glyph-name="Nsmallcaron" unicode="&#xe0c9;" horiz-adv-x="620" 
d="M540 0h-71c-12 0 -18 4 -27 15l-251 305v-305c0 -8 -7 -15 -16 -15h-95c-9 0 -15 7 -15 15v514c0 8 6 15 15 15h71c12 0 19 -4 27 -16l251 -305v306c0 8 7 15 15 15h96c8 0 15 -7 15 -15v-514c0 -8 -7 -15 -15 -15zM332 630h-46c-11 0 -15 5 -21 12l-144 162
c-9 11 -6 22 7 22h83c15 0 19 -4 27 -14l71 -79l70 79c8 10 12 14 27 14h83c13 0 16 -11 7 -22l-144 -162c-6 -7 -9 -12 -20 -12z" />
    <glyph glyph-name="Nsmallcaron.2" unicode="&#xe0ca;" horiz-adv-x="671" 
d="M480 529c0 8 7 15 16 15h95c9 0 15 -7 15 -15v-514c0 -8 -6 -15 -15 -15h-95c-9 0 -16 7 -16 15v40c0 54 -81 106 -150 146c-48 29 -100 62 -139 100v-286c0 -8 -7 -15 -16 -15h-95c-9 0 -15 7 -15 15v514c0 8 6 15 15 15h95c9 0 16 -7 16 -15v-41c0 -50 68 -97 145 -143
c51 -32 104 -63 144 -103v287zM358 630h-46c-11 0 -15 5 -21 12l-144 162c-9 11 -6 22 7 22h83c15 0 19 -4 27 -14l71 -79l70 79c8 10 12 14 27 14h83c13 0 16 -11 7 -22l-144 -162c-6 -7 -9 -12 -20 -12z" />
    <glyph glyph-name="Nsmallcaron.3" unicode="&#xe0cb;" horiz-adv-x="622" 
d="M189 477h6c14 18 34 36 56 49c29 16 67 26 106 26c57 0 111 -15 150 -53c36 -35 58 -90 58 -170v-314c0 -8 -7 -15 -16 -15h-102c-8 0 -15 7 -15 15v286c0 39 -7 79 -31 104c-15 16 -40 28 -74 28c-50 0 -82 -20 -103 -54c-18 -29 -27 -64 -27 -99v-265
c0 -8 -7 -15 -15 -15h-102c-9 0 -15 7 -15 15v514c0 8 6 15 15 15h94c8 0 15 -7 15 -15v-52zM344 630h-46c-11 0 -15 5 -21 12l-144 162c-9 11 -6 22 7 22h83c15 0 19 -4 27 -14l71 -79l70 79c8 10 12 14 27 14h83c13 0 16 -11 7 -22l-144 -162c-6 -7 -9 -12 -20 -12z" />
    <glyph glyph-name="Nsmallcommaaccent" unicode="&#xe0cc;" horiz-adv-x="620" 
d="M540 0h-71c-12 0 -18 4 -27 15l-251 305v-305c0 -8 -7 -15 -16 -15h-95c-9 0 -15 7 -15 15v514c0 8 6 15 15 15h71c12 0 19 -4 27 -16l251 -305v306c0 8 7 15 15 15h96c8 0 15 -7 15 -15v-514c0 -8 -7 -15 -15 -15zM406 -169c1 -77 -65 -154 -139 -176
c-11 -3 -17 -1 -22 6l-13 21c-6 9 -3 16 4 21c21 14 53 34 53 63c0 41 -61 32 -61 99c0 46 32 77 82 77c63 0 94 -44 96 -111z" />
    <glyph glyph-name="Nsmallcommaaccent.2" unicode="&#xe0cd;" horiz-adv-x="671" 
d="M480 529c0 8 7 15 16 15h95c9 0 15 -7 15 -15v-514c0 -8 -6 -15 -15 -15h-95c-9 0 -16 7 -16 15v40c0 54 -81 106 -150 146c-48 29 -100 62 -139 100v-286c0 -8 -7 -15 -16 -15h-95c-9 0 -15 7 -15 15v514c0 8 6 15 15 15h95c9 0 16 -7 16 -15v-41c0 -50 68 -97 145 -143
c51 -32 104 -63 144 -103v287zM434 -169c1 -77 -65 -154 -139 -176c-11 -3 -17 -1 -22 6l-13 21c-6 9 -3 16 4 21c21 14 53 34 53 63c0 41 -61 32 -61 99c0 46 32 77 82 77c63 0 94 -44 96 -111z" />
    <glyph glyph-name="Nsmallcommaaccent.3" unicode="&#xe0ce;" horiz-adv-x="622" 
d="M189 477h6c14 18 34 36 56 49c29 16 67 26 106 26c57 0 111 -15 150 -53c36 -35 58 -90 58 -170v-314c0 -8 -7 -15 -16 -15h-102c-8 0 -15 7 -15 15v286c0 39 -7 79 -31 104c-15 16 -40 28 -74 28c-50 0 -82 -20 -103 -54c-18 -29 -27 -64 -27 -99v-265
c0 -8 -7 -15 -15 -15h-102c-9 0 -15 7 -15 15v514c0 8 6 15 15 15h94c8 0 15 -7 15 -15v-52zM404 -169c1 -77 -65 -154 -139 -176c-11 -3 -17 -1 -22 6l-13 21c-6 9 -3 16 4 21c21 14 53 34 53 63c0 41 -61 32 -61 99c0 46 32 77 82 77c63 0 94 -44 96 -111z" />
    <glyph glyph-name="Nsmalltilde" unicode="&#xe0cf;" horiz-adv-x="620" 
d="M540 0h-71c-12 0 -18 4 -27 15l-251 305v-305c0 -8 -7 -15 -16 -15h-95c-9 0 -15 7 -15 15v514c0 8 6 15 15 15h71c12 0 19 -4 27 -16l251 -305v306c0 8 7 15 15 15h96c8 0 15 -7 15 -15v-514c0 -8 -7 -15 -15 -15zM374 744c25 0 34 16 38 37c2 10 7 15 15 15h42
c12 0 18 -8 18 -16c0 -74 -33 -127 -101 -127c-29 0 -54 9 -82 30c-20 15 -39 27 -59 27c-26 0 -35 -16 -39 -36c-2 -11 -6 -16 -15 -16h-42c-12 0 -18 8 -18 17c0 73 34 126 102 126c30 0 54 -10 83 -31c21 -15 38 -26 58 -26z" />
    <glyph glyph-name="Nsmalltilde.2" unicode="&#xe0d0;" horiz-adv-x="671" 
d="M480 529c0 8 7 15 16 15h95c9 0 15 -7 15 -15v-514c0 -8 -6 -15 -15 -15h-95c-9 0 -16 7 -16 15v40c0 54 -81 106 -150 146c-48 29 -100 62 -139 100v-286c0 -8 -7 -15 -16 -15h-95c-9 0 -15 7 -15 15v514c0 8 6 15 15 15h95c9 0 16 -7 16 -15v-41c0 -50 68 -97 145 -143
c51 -32 104 -63 144 -103v287zM400 744c25 0 34 16 38 37c2 10 7 15 15 15h42c12 0 18 -8 18 -16c0 -74 -33 -127 -101 -127c-29 0 -54 9 -82 30c-20 15 -39 27 -59 27c-26 0 -35 -16 -39 -36c-2 -11 -6 -16 -15 -16h-42c-12 0 -18 8 -18 17c0 73 34 126 102 126
c30 0 54 -10 83 -31c21 -15 38 -26 58 -26z" />
    <glyph glyph-name="Nsmalltilde.3" unicode="&#xe0d1;" horiz-adv-x="622" 
d="M189 477h6c14 18 34 36 56 49c29 16 67 26 106 26c57 0 111 -15 150 -53c36 -35 58 -90 58 -170v-314c0 -8 -7 -15 -16 -15h-102c-8 0 -15 7 -15 15v286c0 39 -7 79 -31 104c-15 16 -40 28 -74 28c-50 0 -82 -20 -103 -54c-18 -29 -27 -64 -27 -99v-265
c0 -8 -7 -15 -15 -15h-102c-9 0 -15 7 -15 15v514c0 8 6 15 15 15h94c8 0 15 -7 15 -15v-52zM386 744c25 0 34 16 38 37c2 10 7 15 15 15h42c12 0 18 -8 18 -16c0 -74 -33 -127 -101 -127c-29 0 -54 9 -82 30c-20 15 -39 27 -59 27c-26 0 -35 -16 -39 -36
c-2 -11 -6 -16 -15 -16h-42c-12 0 -18 8 -18 17c0 73 34 126 102 126c30 0 54 -10 83 -31c21 -15 38 -26 58 -26z" />
    <glyph glyph-name="Ntilde" unicode="&#xd1;" horiz-adv-x="743" 
d="M537 239v427c0 8 7 15 15 15h108c8 0 15 -7 15 -15v-651c0 -8 -7 -15 -15 -15h-100c-12 0 -19 2 -28 15l-327 426v-426c0 -8 -7 -15 -15 -15h-107c-9 0 -16 7 -16 15v651c0 8 7 15 16 15h100c12 0 18 -4 27 -16zM436 893c25 0 34 16 38 37c2 10 7 15 15 15h42
c12 0 18 -8 18 -16c0 -74 -33 -127 -101 -127c-29 0 -54 9 -82 30c-20 15 -39 27 -59 27c-26 0 -35 -16 -39 -36c-2 -11 -6 -16 -15 -16h-42c-12 0 -18 8 -18 17c0 73 34 126 102 126c30 0 54 -10 83 -31c21 -15 38 -26 58 -26z" />
    <glyph glyph-name="Ntilde.2" unicode="&#xe0d2;" horiz-adv-x="785" 
d="M83 681h107c8 0 15 -7 15 -15v-46c0 -61 89 -125 189 -194c40 -28 81 -57 120 -89c24 -19 46 -38 65 -58v387c0 8 7 15 15 15h108c8 0 15 -7 15 -15v-651c0 -8 -7 -15 -15 -15h-108c-8 0 -15 7 -15 15v46c0 60 -95 127 -187 190c-40 29 -82 57 -122 89
c-24 19 -46 38 -65 58v-383c0 -8 -7 -15 -15 -15h-107c-9 0 -16 7 -16 15v651c0 8 7 15 16 15zM457 893c25 0 34 16 38 37c2 10 7 15 15 15h42c12 0 18 -8 18 -16c0 -74 -33 -127 -101 -127c-29 0 -54 9 -82 30c-20 15 -39 27 -59 27c-26 0 -35 -16 -39 -36
c-2 -11 -6 -16 -15 -16h-42c-12 0 -18 8 -18 17c0 73 34 126 102 126c30 0 54 -10 83 -31c21 -15 38 -26 58 -26z" />
    <glyph glyph-name="Ntilde.3" unicode="&#xe0d3;" horiz-adv-x="725" 
d="M206 599h6c16 21 39 43 64 58c35 20 78 33 128 33c72 0 139 -19 188 -65c45 -43 75 -113 75 -213v-397c0 -8 -7 -15 -16 -15h-113c-9 0 -15 7 -15 15v367c0 55 -8 105 -37 136c-22 23 -54 39 -100 39c-66 0 -111 -27 -139 -71c-25 -40 -36 -87 -36 -139v-332
c0 -8 -6 -15 -15 -15h-113c-9 0 -16 7 -16 15v651c0 8 7 15 16 15h108c9 0 15 -7 15 -15v-67zM456 893c25 0 34 16 38 37c2 10 7 15 15 15h42c12 0 18 -8 18 -16c0 -74 -33 -127 -101 -127c-29 0 -54 9 -82 30c-20 15 -39 27 -59 27c-26 0 -35 -16 -39 -36
c-2 -11 -6 -16 -15 -16h-42c-12 0 -18 8 -18 17c0 73 34 126 102 126c30 0 54 -10 83 -31c21 -15 38 -26 58 -26z" />
    <glyph glyph-name="O" unicode="O" horiz-adv-x="810" 
d="M769 339c0 -210 -160 -349 -364 -349s-365 138 -365 349s161 351 365 351s364 -141 364 -351zM616 339c0 122 -89 216 -211 216s-212 -94 -212 -216c0 -123 90 -215 212 -215s211 93 211 215z" />
    <glyph glyph-name="OE" unicode="&#x152;" horiz-adv-x="1170" 
d="M635 681h482c9 0 16 -7 16 -15v-98c0 -8 -7 -15 -16 -15h-354v-145v-2h302c8 0 15 -7 15 -15v-97c0 -9 -7 -16 -15 -16h-301l-1 -8v-143h354c9 0 16 -6 16 -15v-97c0 -8 -7 -15 -16 -15h-482c-9 0 -16 7 -16 15v36c-60 -39 -134 -61 -214 -61c-204 0 -365 138 -365 349
s161 351 365 351c80 0 154 -22 214 -62v38c0 8 7 15 16 15zM616 339c0 122 -89 216 -211 216s-212 -94 -212 -216c0 -123 90 -215 212 -215s211 93 211 215z" />
    <glyph glyph-name="OE.1" unicode="&#xe0d4;" horiz-adv-x="1145" 
d="M1093 553h-188c-50 0 -88 -13 -111 -37c-25 -27 -28 -62 -28 -98v-11h274c9 0 15 -7 15 -16v-97c0 -8 -6 -15 -15 -15h-274v-17c0 -35 3 -70 28 -97c23 -25 61 -38 111 -38h188c9 0 15 -6 15 -15v-97c0 -8 -6 -15 -15 -15h-190c-87 0 -160 17 -212 71c-7 7 -13 15 -19 23
c-66 -66 -161 -104 -267 -104c-204 0 -365 138 -365 349s161 351 365 351c106 0 200 -38 266 -105c6 8 12 16 20 24c52 54 125 72 212 72h190c9 0 15 -7 15 -15v-98c0 -8 -6 -15 -15 -15zM616 339c0 122 -89 216 -211 216s-212 -94 -212 -216c0 -123 90 -215 212 -215
s211 93 211 215z" />
    <glyph glyph-name="OE.2" unicode="&#xe0d5;" horiz-adv-x="1198" 
d="M639 681h506c9 0 16 -7 16 -15v-98c0 -8 -7 -15 -16 -15h-378v-173c0 -5 0 -10 1 -14h325c8 0 15 -7 15 -15v-97c0 -9 -7 -16 -15 -16h-326v-111h378c9 0 16 -6 16 -15v-97c0 -8 -7 -15 -16 -15h-506c-9 0 -16 7 -16 15v38c-61 -41 -136 -63 -218 -63
c-204 0 -365 138 -365 349s161 351 365 351c82 0 157 -23 218 -64v40c0 8 7 15 16 15zM616 339c0 122 -89 216 -211 216s-212 -94 -212 -216c0 -123 90 -215 212 -215s211 93 211 215z" />
    <glyph glyph-name="OE.3" unicode="&#xe0d6;" horiz-adv-x="1304" 
d="M405 690c115 0 215 -45 282 -122c7 10 15 19 24 28c54 56 136 94 237 94c118 0 201 -44 253 -113c44 -57 66 -134 67 -219c0 -17 -1 -34 -2 -51c-1 -12 -6 -16 -18 -16h-468c7 -50 28 -95 67 -126c35 -29 80 -44 132 -44c66 0 136 18 195 56c10 7 18 4 22 -4l43 -93
c4 -10 2 -16 -6 -20c-81 -47 -154 -68 -259 -68c-121 0 -203 35 -262 94c-9 8 -16 17 -24 26c-66 -77 -167 -122 -283 -122c-204 0 -365 138 -365 349s161 351 365 351zM616 339c0 122 -89 216 -211 216s-212 -94 -212 -216c0 -123 90 -215 212 -215c119 0 207 89 211 208v7
zM778 414h337c-10 88 -71 144 -165 144c-91 0 -153 -57 -172 -144z" />
    <glyph glyph-name="OEsmall" unicode="&#xf6fa;" horiz-adv-x="930" 
d="M499 544h391c8 0 15 -7 15 -15v-88c0 -8 -7 -15 -15 -15h-274v-94h233c8 0 15 -7 15 -15v-87c0 -9 -7 -15 -15 -15h-233v-1v-97h274c8 0 15 -6 15 -15v-87c0 -8 -7 -15 -15 -15h-391c-9 0 -15 7 -15 15v14c-44 -24 -97 -37 -155 -37c-104 0 -191 42 -242 114
c-32 45 -50 101 -50 166s18 120 50 165c51 73 138 115 242 115c58 0 111 -13 155 -38v15c0 8 6 15 15 15zM175 272c0 -40 12 -74 33 -101c28 -35 71 -57 121 -57c51 0 94 22 121 57c21 27 33 61 33 101c0 39 -12 74 -33 101c-27 35 -70 57 -121 57c-50 0 -93 -22 -121 -57
c-21 -27 -33 -62 -33 -101z" />
    <glyph glyph-name="OEsmall.2" unicode="&#xe0d7;" horiz-adv-x="960" 
d="M499 544h421c8 0 15 -7 15 -15v-88c0 -8 -7 -15 -15 -15h-304v-97c0 -4 1 -7 2 -11h245c8 0 15 -7 15 -15v-88c0 -8 -7 -15 -15 -15h-247v-83h304c8 0 15 -6 15 -15v-87c0 -8 -7 -15 -15 -15h-421c-9 0 -15 7 -15 15v14c-44 -24 -97 -37 -155 -37
c-104 0 -191 42 -242 114c-32 45 -50 101 -50 166s18 120 50 165c51 73 138 115 242 115c58 0 111 -13 155 -38v15c0 8 6 15 15 15zM175 272c0 -40 12 -74 33 -101c28 -35 71 -57 121 -57c51 0 94 22 121 57c21 27 33 61 33 101c0 39 -12 74 -33 101c-27 35 -70 57 -121 57
c-50 0 -93 -22 -121 -57c-21 -27 -33 -62 -33 -101z" />
    <glyph glyph-name="OEsmall.3" unicode="&#xe0d8;" horiz-adv-x="1039" 
d="M750 552c86 0 148 -31 187 -72c60 -62 72 -148 68 -238c-1 -9 -7 -16 -16 -16h-357c7 -31 19 -56 38 -76c26 -27 63 -39 103 -39c59 0 105 12 151 40c10 6 18 4 22 -4l37 -79c3 -8 1 -16 -6 -20c-65 -37 -126 -56 -207 -56c-98 0 -164 29 -212 78l-9 9
c-52 -55 -130 -87 -220 -87c-104 0 -191 42 -242 114c-32 45 -50 101 -50 166s18 120 50 165c51 73 138 115 242 115c89 0 167 -31 219 -87c3 4 6 7 9 10c44 46 110 77 193 77zM175 272c0 -40 12 -74 33 -101c28 -35 71 -57 121 -57c51 0 94 22 121 57c18 23 30 53 32 87v20
v13c-4 31 -15 59 -32 82c-27 35 -70 57 -121 57c-50 0 -93 -22 -121 -57c-21 -27 -33 -62 -33 -101zM632 330h234c-3 30 -14 56 -32 73c-20 18 -48 29 -82 29s-63 -12 -84 -33c-18 -18 -30 -42 -36 -69z" />
    <glyph glyph-name="Oacute" unicode="&#xd3;" horiz-adv-x="810" 
d="M769 339c0 -210 -160 -349 -364 -349s-365 138 -365 349s161 351 365 351s364 -141 364 -351zM616 339c0 122 -89 216 -211 216s-212 -94 -212 -216c0 -123 90 -215 212 -215s211 93 211 215zM409 968h90c13 0 17 -12 11 -23l-98 -157c-6 -10 -12 -16 -23 -16h-68
c-18 0 -14 18 -8 29l75 152c5 10 10 15 21 15z" />
    <glyph glyph-name="Ocircumflex" unicode="&#xd4;" horiz-adv-x="810" 
d="M769 339c0 -210 -160 -349 -364 -349s-365 138 -365 349s161 351 365 351s364 -141 364 -351zM616 339c0 122 -89 216 -211 216s-212 -94 -212 -216c0 -123 90 -215 212 -215s211 93 211 215zM381 968h46c11 0 14 -4 20 -11l144 -163c9 -11 6 -22 -7 -22h-83
c-15 0 -19 4 -27 15l-70 79l-71 -79c-8 -11 -12 -15 -27 -15h-83c-13 0 -16 11 -7 22l144 163c6 7 10 11 21 11z" />
    <glyph glyph-name="Odieresis" unicode="&#xd6;" horiz-adv-x="810" 
d="M769 339c0 -210 -160 -349 -364 -349s-365 138 -365 349s161 351 365 351s364 -141 364 -351zM616 339c0 122 -89 216 -211 216s-212 -94 -212 -216c0 -123 90 -215 212 -215s211 93 211 215zM288 784c-43 0 -76 35 -76 77s33 76 76 76c42 0 76 -34 76 -76
s-34 -77 -76 -77zM520 784c-43 0 -76 35 -76 77s33 76 76 76c42 0 75 -34 75 -76s-33 -77 -75 -77z" />
    <glyph glyph-name="Ograve" unicode="&#xd2;" horiz-adv-x="810" 
d="M769 339c0 -210 -160 -349 -364 -349s-365 138 -365 349s161 351 365 351s364 -141 364 -351zM616 339c0 122 -89 216 -211 216s-212 -94 -212 -216c0 -123 90 -215 212 -215s211 93 211 215zM308 968h91c11 0 16 -5 21 -15l76 -154c4 -9 9 -27 -9 -27h-69
c-11 0 -17 6 -23 16l-97 157c-7 11 -4 23 10 23z" />
    <glyph glyph-name="Ohungarumlaut" unicode="&#x150;" horiz-adv-x="810" 
d="M769 339c0 -210 -160 -349 -364 -349s-365 138 -365 349s161 351 365 351s364 -141 364 -351zM616 339c0 122 -89 216 -211 216s-212 -94 -212 -216c0 -123 90 -215 212 -215s211 93 211 215zM517 968h89c8 0 14 -4 14 -10c0 -3 -2 -8 -6 -13l-117 -161
c-7 -8 -9 -12 -20 -12h-72c-7 0 -13 4 -13 10c0 4 2 8 5 13l95 158c6 10 14 15 25 15zM327 968h89c9 0 14 -4 14 -10c0 -3 -2 -8 -5 -13l-118 -161c-7 -8 -9 -12 -20 -12h-72c-6 0 -12 4 -12 10c0 4 1 8 4 13l96 158c6 10 13 15 24 15z" />
    <glyph glyph-name="Omacron" unicode="&#x14c;" horiz-adv-x="810" 
d="M769 339c0 -210 -160 -349 -364 -349s-365 138 -365 349s161 351 365 351s364 -141 364 -351zM616 339c0 122 -89 216 -211 216s-212 -94 -212 -216c0 -123 90 -215 212 -215s211 93 211 215zM285 924h241c9 0 15 -7 15 -15v-77c0 -9 -6 -16 -15 -16h-241
c-9 0 -15 7 -15 16v77c0 8 6 15 15 15z" />
    <glyph glyph-name="Omega" unicode="&#x2126;" horiz-adv-x="748" 
d="M374 690c186 0 306 -102 306 -290c0 -76 -24 -138 -54 -188c-28 -43 -54 -75 -76 -101h113c9 0 16 -6 16 -15v-81c0 -8 -7 -15 -16 -15h-225c-8 0 -15 7 -15 15v65c0 34 33 57 68 134c21 45 37 97 37 160c0 118 -56 186 -154 186s-154 -68 -154 -186
c0 -59 15 -112 37 -160c35 -77 68 -100 68 -134v-65c0 -8 -7 -15 -15 -15h-225c-9 0 -15 7 -15 15v81c0 9 6 15 15 15h114c-23 26 -49 58 -76 101c-31 50 -55 112 -55 188c0 188 120 290 306 290z" />
    <glyph glyph-name="Oslash" unicode="&#xd8;" horiz-adv-x="810" 
d="M769 339c0 -210 -160 -349 -364 -349c-74 0 -142 18 -198 50l-22 -25c-7 -9 -13 -15 -24 -15h-84c-15 0 -22 11 -11 22l66 76c-57 60 -92 143 -92 241c0 211 161 351 365 351c73 0 140 -18 197 -51l23 27c7 7 13 15 24 15h84c14 0 20 -14 11 -23l-68 -78
c58 -60 93 -143 93 -241zM616 339c0 48 -14 92 -39 127l-276 -317c30 -16 66 -25 104 -25c122 0 211 93 211 215zM193 339c0 -49 14 -92 38 -127l276 318c-30 16 -65 25 -102 25c-122 0 -212 -94 -212 -216z" />
    <glyph glyph-name="Osmall" unicode="&#xf76f;" horiz-adv-x="659" 
d="M175 272c0 -40 12 -74 33 -101c28 -35 71 -57 121 -57c51 0 94 22 121 57c21 27 33 61 33 101c0 39 -12 74 -33 101c-27 35 -70 57 -121 57c-50 0 -93 -22 -121 -57c-21 -27 -33 -62 -33 -101zM37 272c0 65 18 120 50 165c51 73 138 115 242 115s191 -42 242 -115
c32 -45 50 -100 50 -165s-18 -121 -50 -166c-51 -72 -138 -114 -242 -114s-191 42 -242 114c-32 45 -50 101 -50 166z" />
    <glyph glyph-name="Osmallacute" unicode="&#xe0d9;" horiz-adv-x="659" 
d="M175 272c0 -40 12 -74 33 -101c28 -35 71 -57 121 -57c51 0 94 22 121 57c21 27 33 61 33 101c0 39 -12 74 -33 101c-27 35 -70 57 -121 57c-50 0 -93 -22 -121 -57c-21 -27 -33 -62 -33 -101zM37 272c0 65 18 120 50 165c51 73 138 115 242 115s191 -42 242 -115
c32 -45 50 -100 50 -165s-18 -121 -50 -166c-51 -72 -138 -114 -242 -114s-191 42 -242 114c-32 45 -50 101 -50 166zM334 827h90c13 0 17 -12 11 -23l-98 -157c-6 -10 -12 -16 -23 -16h-68c-18 0 -14 18 -8 29l75 152c5 10 10 15 21 15z" />
    <glyph glyph-name="Osmallcircumflex" unicode="&#xe0da;" horiz-adv-x="659" 
d="M175 272c0 -40 12 -74 33 -101c28 -35 71 -57 121 -57c51 0 94 22 121 57c21 27 33 61 33 101c0 39 -12 74 -33 101c-27 35 -70 57 -121 57c-50 0 -93 -22 -121 -57c-21 -27 -33 -62 -33 -101zM37 272c0 65 18 120 50 165c51 73 138 115 242 115s191 -42 242 -115
c32 -45 50 -100 50 -165s-18 -121 -50 -166c-51 -72 -138 -114 -242 -114s-191 42 -242 114c-32 45 -50 101 -50 166zM306 826h46c11 0 14 -4 20 -11l144 -163c9 -11 6 -22 -7 -22h-83c-15 0 -19 4 -27 15l-70 79l-71 -79c-8 -11 -12 -15 -27 -15h-83c-13 0 -16 11 -7 22
l144 163c6 7 10 11 21 11z" />
    <glyph glyph-name="Osmalldieresis" unicode="&#xe0db;" horiz-adv-x="659" 
d="M175 272c0 -40 12 -74 33 -101c28 -35 71 -57 121 -57c51 0 94 22 121 57c21 27 33 61 33 101c0 39 -12 74 -33 101c-27 35 -70 57 -121 57c-50 0 -93 -22 -121 -57c-21 -27 -33 -62 -33 -101zM37 272c0 65 18 120 50 165c51 73 138 115 242 115s191 -42 242 -115
c32 -45 50 -100 50 -165s-18 -121 -50 -166c-51 -72 -138 -114 -242 -114s-191 42 -242 114c-32 45 -50 101 -50 166zM213 644c-43 0 -76 35 -76 77s33 76 76 76c42 0 76 -34 76 -76s-34 -77 -76 -77zM445 644c-43 0 -76 35 -76 77s33 76 76 76c42 0 75 -34 75 -76
s-33 -77 -75 -77z" />
    <glyph glyph-name="Osmallgrave" unicode="&#xe0dc;" horiz-adv-x="659" 
d="M175 272c0 -40 12 -74 33 -101c28 -35 71 -57 121 -57c51 0 94 22 121 57c21 27 33 61 33 101c0 39 -12 74 -33 101c-27 35 -70 57 -121 57c-50 0 -93 -22 -121 -57c-21 -27 -33 -62 -33 -101zM37 272c0 65 18 120 50 165c51 73 138 115 242 115s191 -42 242 -115
c32 -45 50 -100 50 -165s-18 -121 -50 -166c-51 -72 -138 -114 -242 -114s-191 42 -242 114c-32 45 -50 101 -50 166zM233 827h91c11 0 16 -5 21 -15l76 -154c4 -9 9 -27 -9 -27h-69c-11 0 -17 6 -23 16l-97 157c-7 11 -4 23 10 23z" />
    <glyph glyph-name="Osmallhungarumlaut" unicode="&#xe0dd;" horiz-adv-x="659" 
d="M175 272c0 -40 12 -74 33 -101c28 -35 71 -57 121 -57c51 0 94 22 121 57c21 27 33 61 33 101c0 39 -12 74 -33 101c-27 35 -70 57 -121 57c-50 0 -93 -22 -121 -57c-21 -27 -33 -62 -33 -101zM37 272c0 65 18 120 50 165c51 73 138 115 242 115s191 -42 242 -115
c32 -45 50 -100 50 -165s-18 -121 -50 -166c-51 -72 -138 -114 -242 -114s-191 42 -242 114c-32 45 -50 101 -50 166zM452 826h89c8 0 14 -4 14 -10c0 -3 -2 -8 -6 -13l-117 -161c-7 -8 -9 -12 -20 -12h-72c-7 0 -13 4 -13 10c0 4 2 8 5 13l95 158c6 10 14 15 25 15z
M262 826h89c9 0 14 -4 14 -10c0 -3 -2 -8 -5 -13l-118 -161c-7 -8 -9 -12 -20 -12h-72c-6 0 -12 4 -12 10c0 4 1 8 4 13l96 158c6 10 13 15 24 15z" />
    <glyph glyph-name="Osmallmacron" unicode="&#xe0de;" horiz-adv-x="659" 
d="M175 272c0 -40 12 -74 33 -101c28 -35 71 -57 121 -57c51 0 94 22 121 57c21 27 33 61 33 101c0 39 -12 74 -33 101c-27 35 -70 57 -121 57c-50 0 -93 -22 -121 -57c-21 -27 -33 -62 -33 -101zM37 272c0 65 18 120 50 165c51 73 138 115 242 115s191 -42 242 -115
c32 -45 50 -100 50 -165s-18 -121 -50 -166c-51 -72 -138 -114 -242 -114s-191 42 -242 114c-32 45 -50 101 -50 166zM208 761h241c9 0 15 -7 15 -15v-77c0 -9 -6 -16 -15 -16h-241c-9 0 -15 7 -15 16v77c0 8 6 15 15 15z" />
    <glyph glyph-name="Osmallslash" unicode="&#xe15a;" horiz-adv-x="659" 
d="M37 272c0 65 18 120 50 165c51 73 138 115 242 115c60 0 115 -14 160 -41l18 21c8 9 12 14 24 14h54c18 0 22 -13 10 -27l-47 -54c8 -9 16 -18 23 -28c32 -45 50 -100 50 -165s-18 -121 -50 -166c-51 -72 -138 -114 -242 -114c-59 0 -113 13 -157 38l-14 -16
c-8 -10 -12 -14 -24 -14h-55c-17 0 -21 13 -10 26l43 50c-9 9 -18 19 -25 30c-32 45 -50 101 -50 166zM175 272c0 -36 9 -67 26 -93l202 233c-22 11 -47 18 -74 18c-50 0 -93 -22 -121 -57c-21 -27 -33 -62 -33 -101zM483 272c0 33 -9 64 -25 89l-200 -231
c21 -10 45 -16 71 -16c51 0 94 22 121 57c21 27 33 61 33 101z" />
    <glyph glyph-name="Osmalltilde" unicode="&#xe0df;" horiz-adv-x="659" 
d="M175 272c0 -40 12 -74 33 -101c28 -35 71 -57 121 -57c51 0 94 22 121 57c21 27 33 61 33 101c0 39 -12 74 -33 101c-27 35 -70 57 -121 57c-50 0 -93 -22 -121 -57c-21 -27 -33 -62 -33 -101zM37 272c0 65 18 120 50 165c51 73 138 115 242 115s191 -42 242 -115
c32 -45 50 -100 50 -165s-18 -121 -50 -166c-51 -72 -138 -114 -242 -114s-191 42 -242 114c-32 45 -50 101 -50 166zM394 744c25 0 34 16 38 37c2 10 7 15 15 15h42c12 0 18 -8 18 -16c0 -74 -33 -127 -101 -127c-29 0 -54 9 -82 30c-20 15 -39 27 -59 27
c-26 0 -35 -16 -39 -36c-2 -11 -6 -16 -15 -16h-42c-12 0 -18 8 -18 17c0 73 34 126 102 126c30 0 54 -10 83 -31c21 -15 38 -26 58 -26z" />
    <glyph glyph-name="Otilde" unicode="&#xd5;" horiz-adv-x="810" 
d="M769 339c0 -210 -160 -349 -364 -349s-365 138 -365 349s161 351 365 351s364 -141 364 -351zM616 339c0 122 -89 216 -211 216s-212 -94 -212 -216c0 -123 90 -215 212 -215s211 93 211 215zM469 893c25 0 34 16 38 37c2 10 7 15 15 15h42c12 0 18 -8 18 -16
c0 -74 -33 -127 -101 -127c-29 0 -54 9 -82 30c-20 15 -39 27 -59 27c-26 0 -35 -16 -39 -36c-2 -11 -6 -16 -15 -16h-42c-12 0 -18 8 -18 17c0 73 34 126 102 126c30 0 54 -10 83 -31c21 -15 38 -26 58 -26z" />
    <glyph glyph-name="P" unicode="P" horiz-adv-x="646" 
d="M466 443c0 45 -17 75 -43 92c-22 14 -47 20 -76 20h-136v-224h133c28 0 56 4 77 18c28 17 45 48 45 94zM83 681h283c57 0 114 -11 163 -51c51 -42 83 -107 83 -187c0 -82 -35 -150 -90 -192c-48 -37 -102 -46 -156 -46h-155v-190c0 -8 -6 -15 -15 -15h-113
c-9 0 -16 7 -16 15v651c0 8 7 15 16 15z" />
    <glyph glyph-name="P.2" unicode="&#xe0e0;" horiz-adv-x="684" 
d="M504 443c0 45 -17 75 -43 92c-22 14 -47 20 -76 20h-174v-224h171c28 0 56 4 77 18c28 17 45 48 45 94zM83 681h321c57 0 114 -11 163 -51c51 -42 83 -107 83 -187c0 -82 -35 -150 -90 -192c-48 -37 -102 -46 -156 -46h-193v-190c0 -8 -6 -15 -15 -15h-113
c-9 0 -16 7 -16 15v651c0 8 7 15 16 15z" />
    <glyph glyph-name="Psmall" unicode="&#xf770;" horiz-adv-x="530" 
d="M372 352c0 26 -9 45 -23 58c-17 16 -43 19 -64 19h-88v-157h86c20 0 42 4 59 15c19 11 30 33 30 65zM80 544h221c69 0 120 -20 156 -56c33 -34 50 -81 50 -136c0 -62 -21 -112 -58 -145s-90 -49 -155 -49h-97v-143c0 -8 -7 -15 -15 -15h-102c-9 0 -15 7 -15 15v514
c0 8 6 15 15 15z" />
    <glyph glyph-name="Psmall.2" unicode="&#xe0e1;" horiz-adv-x="560" 
d="M402 352c0 26 -9 45 -23 58c-17 16 -43 19 -64 19h-118v-157h116c20 0 42 4 59 15c19 11 30 33 30 65zM80 544h251c69 0 120 -20 156 -56c33 -34 50 -81 50 -136c0 -62 -21 -112 -58 -145s-90 -49 -155 -49h-127v-143c0 -8 -7 -15 -15 -15h-102c-9 0 -15 7 -15 15v514
c0 8 6 15 15 15z" />
    <glyph glyph-name="Q" unicode="Q" horiz-adv-x="809" 
d="M786 -73c13 -2 18 -9 12 -20l-52 -93c-3 -6 -7 -13 -24 -13c-63 0 -231 71 -396 131c-9 3 -16 10 -16 26v44c-153 36 -270 165 -270 337c0 208 168 351 365 351c196 0 364 -143 364 -351c0 -171 -114 -298 -263 -335c0 -6 4 -10 11 -12c64 -20 196 -55 269 -65zM616 339
c0 122 -89 216 -211 216s-212 -94 -212 -216c0 -123 90 -215 212 -215s211 92 211 215z" />
    <glyph glyph-name="Qsmall" unicode="&#xf771;" horiz-adv-x="659" 
d="M408 -11c32 -10 78 -22 125 -33c50 -12 102 -22 139 -27c13 -1 19 -9 12 -20l-46 -79c-3 -6 -7 -13 -24 -13c-38 0 -97 19 -175 46c-50 18 -107 39 -172 63c-10 4 -15 10 -15 26v49c-70 15 -127 51 -165 105c-32 45 -50 101 -50 166s18 120 50 165c51 73 138 115 242 115
s191 -42 242 -115c32 -45 50 -100 50 -165s-18 -121 -50 -166c-40 -55 -100 -93 -173 -108c0 -3 3 -7 10 -9zM175 272c0 -40 12 -74 33 -101c28 -35 71 -57 121 -57c51 0 94 22 121 57c21 27 33 61 33 101c0 39 -12 74 -33 101c-27 35 -70 57 -121 57
c-50 0 -93 -22 -121 -57c-21 -27 -33 -62 -33 -101z" />
    <glyph glyph-name="R" unicode="R" horiz-adv-x="665" 
d="M550 293c-20 -17 -40 -28 -61 -37l148 -230c7 -12 8 -26 -9 -26h-125c-14 0 -22 2 -29 15l-134 221h-129v-221c0 -8 -6 -15 -15 -15h-113c-9 0 -16 7 -16 15v651c0 8 7 15 16 15h292c66 0 126 -12 172 -46c50 -37 79 -101 79 -175c0 -65 -24 -123 -76 -167zM363 559h-152
v-201h140c37 0 67 3 88 17c24 15 41 43 41 83s-15 66 -38 82c-22 14 -49 19 -79 19z" />
    <glyph glyph-name="R.2" unicode="&#xe0e2;" horiz-adv-x="762" 
d="M752 37c-41 -33 -93 -47 -147 -47c-78 0 -134 30 -177 76c-41 45 -71 105 -96 166h-121v-217c0 -8 -6 -15 -15 -15h-113c-9 0 -16 7 -16 15v651c0 8 7 15 16 15h329c68 0 130 -12 177 -46c52 -38 82 -102 82 -177c0 -66 -26 -124 -79 -169c-35 -28 -70 -41 -108 -48
c11 -27 26 -54 44 -76c22 -28 50 -46 83 -46c37 0 55 9 80 27c7 5 15 6 20 -2l46 -86c5 -8 3 -14 -5 -21zM402 559h-191v-206h190c31 0 59 5 82 19c25 15 41 43 41 84s-15 67 -39 83c-23 15 -51 20 -83 20z" />
    <glyph glyph-name="Racute" unicode="&#x154;" horiz-adv-x="665" 
d="M550 293c-20 -17 -40 -28 -61 -37l148 -230c7 -12 8 -26 -9 -26h-125c-14 0 -22 2 -29 15l-134 221h-129v-221c0 -8 -6 -15 -15 -15h-113c-9 0 -16 7 -16 15v651c0 8 7 15 16 15h292c66 0 126 -12 172 -46c50 -37 79 -101 79 -175c0 -65 -24 -123 -76 -167zM363 559h-152
v-201h140c37 0 67 3 88 17c24 15 41 43 41 83s-15 66 -38 82c-22 14 -49 19 -79 19zM338 968h90c13 0 17 -12 11 -23l-98 -157c-6 -10 -12 -16 -23 -16h-68c-18 0 -14 18 -8 29l75 152c5 10 10 15 21 15z" />
    <glyph glyph-name="Racute.2" unicode="&#xe0e3;" horiz-adv-x="762" 
d="M752 37c-41 -33 -93 -47 -147 -47c-78 0 -134 30 -177 76c-41 45 -71 105 -96 166h-121v-217c0 -8 -6 -15 -15 -15h-113c-9 0 -16 7 -16 15v651c0 8 7 15 16 15h329c68 0 130 -12 177 -46c52 -38 82 -102 82 -177c0 -66 -26 -124 -79 -169c-35 -28 -70 -41 -108 -48
c11 -27 26 -54 44 -76c22 -28 50 -46 83 -46c37 0 55 9 80 27c7 5 15 6 20 -2l46 -86c5 -8 3 -14 -5 -21zM402 559h-191v-206h190c31 0 59 5 82 19c25 15 41 43 41 84s-15 67 -39 83c-23 15 -51 20 -83 20zM375 968h90c13 0 17 -12 11 -23l-98 -157c-6 -10 -12 -16 -23 -16
h-68c-18 0 -14 18 -8 29l75 152c5 10 10 15 21 15z" />
    <glyph glyph-name="Rcaron" unicode="&#x158;" horiz-adv-x="665" 
d="M550 293c-20 -17 -40 -28 -61 -37l148 -230c7 -12 8 -26 -9 -26h-125c-14 0 -22 2 -29 15l-134 221h-129v-221c0 -8 -6 -15 -15 -15h-113c-9 0 -16 7 -16 15v651c0 8 7 15 16 15h292c66 0 126 -12 172 -46c50 -37 79 -101 79 -175c0 -65 -24 -123 -76 -167zM363 559h-152
v-201h140c37 0 67 3 88 17c24 15 41 43 41 83s-15 66 -38 82c-22 14 -49 19 -79 19zM354 772h-46c-11 0 -15 5 -21 12l-144 162c-9 11 -6 22 7 22h83c15 0 19 -4 27 -14l71 -79l70 79c8 10 12 14 27 14h83c13 0 16 -11 7 -22l-144 -162c-6 -7 -9 -12 -20 -12z" />
    <glyph glyph-name="Rcaron.2" unicode="&#xe0e4;" horiz-adv-x="762" 
d="M752 37c-41 -33 -93 -47 -147 -47c-78 0 -134 30 -177 76c-41 45 -71 105 -96 166h-121v-217c0 -8 -6 -15 -15 -15h-113c-9 0 -16 7 -16 15v651c0 8 7 15 16 15h329c68 0 130 -12 177 -46c52 -38 82 -102 82 -177c0 -66 -26 -124 -79 -169c-35 -28 -70 -41 -108 -48
c11 -27 26 -54 44 -76c22 -28 50 -46 83 -46c37 0 55 9 80 27c7 5 15 6 20 -2l46 -86c5 -8 3 -14 -5 -21zM402 559h-191v-206h190c31 0 59 5 82 19c25 15 41 43 41 84s-15 67 -39 83c-23 15 -51 20 -83 20zM386 772h-46c-11 0 -15 5 -21 12l-144 162c-9 11 -6 22 7 22h83
c15 0 19 -4 27 -14l71 -79l70 79c8 10 12 14 27 14h83c13 0 16 -11 7 -22l-144 -162c-6 -7 -9 -12 -20 -12z" />
    <glyph glyph-name="Rcommaaccent" unicode="&#x156;" horiz-adv-x="665" 
d="M550 293c-20 -17 -40 -28 -61 -37l148 -230c7 -12 8 -26 -9 -26h-125c-14 0 -22 2 -29 15l-134 221h-129v-221c0 -8 -6 -15 -15 -15h-113c-9 0 -16 7 -16 15v651c0 8 7 15 16 15h292c66 0 126 -12 172 -46c50 -37 79 -101 79 -175c0 -65 -24 -123 -76 -167zM363 559h-152
v-201h140c37 0 67 3 88 17c24 15 41 43 41 83s-15 66 -38 82c-22 14 -49 19 -79 19zM433 -169c1 -77 -65 -154 -139 -176c-11 -3 -17 -1 -22 6l-13 21c-6 9 -3 16 4 21c21 14 53 34 53 63c0 41 -61 32 -61 99c0 46 32 77 82 77c63 0 94 -44 96 -111z" />
    <glyph glyph-name="Rcommaaccent.2" unicode="&#xe0e5;" horiz-adv-x="762" 
d="M752 37c-41 -33 -93 -47 -147 -47c-78 0 -134 30 -177 76c-41 45 -71 105 -96 166h-121v-217c0 -8 -6 -15 -15 -15h-113c-9 0 -16 7 -16 15v651c0 8 7 15 16 15h329c68 0 130 -12 177 -46c52 -38 82 -102 82 -177c0 -66 -26 -124 -79 -169c-35 -28 -70 -41 -108 -48
c11 -27 26 -54 44 -76c22 -28 50 -46 83 -46c37 0 55 9 80 27c7 5 15 6 20 -2l46 -86c5 -8 3 -14 -5 -21zM402 559h-191v-206h190c31 0 59 5 82 19c25 15 41 43 41 84s-15 67 -39 83c-23 15 -51 20 -83 20zM490 -169c1 -77 -65 -154 -139 -176c-11 -3 -17 -1 -22 6l-13 21
c-6 9 -3 16 4 21c21 14 53 34 53 63c0 41 -61 32 -61 99c0 46 32 77 82 77c63 0 94 -44 96 -111z" />
    <glyph glyph-name="Rsmall" unicode="&#xf772;" horiz-adv-x="552" 
d="M517 363c0 -46 -13 -80 -35 -106c-21 -25 -48 -40 -78 -50l125 -181c8 -13 6 -26 -10 -26h-112c-14 0 -22 2 -29 15l-106 167h-75v-167c0 -8 -7 -15 -15 -15h-102c-9 0 -15 7 -15 15v514c0 8 6 15 15 15h233c46 0 86 -9 119 -26c54 -29 85 -82 85 -155zM306 429h-109
v-134h106c23 0 44 4 59 17c12 10 20 27 20 50s-8 39 -18 49c-15 13 -37 18 -58 18z" />
    <glyph glyph-name="Rsmall.2" unicode="&#xe0e6;" horiz-adv-x="604" 
d="M80 544h247c69 0 121 -20 156 -56c34 -34 51 -81 51 -136c0 -49 -14 -88 -37 -119c-22 -29 -54 -49 -91 -60c10 -23 21 -41 33 -53c16 -17 34 -25 54 -25c23 0 40 7 59 22c7 6 14 6 20 -2l31 -58c5 -9 6 -14 -2 -23c-36 -33 -77 -44 -123 -44c-55 0 -96 18 -128 49
c-31 30 -54 71 -74 119h-79v-143c0 -8 -7 -15 -15 -15h-102c-9 0 -15 7 -15 15v514c0 8 6 15 15 15zM399 352c0 26 -10 45 -24 58c-17 16 -42 19 -64 19h-115v-157h114c20 0 42 4 59 15c18 11 30 33 30 65z" />
    <glyph glyph-name="Rsmallacute" unicode="&#xe0e7;" horiz-adv-x="552" 
d="M517 363c0 -46 -13 -80 -35 -106c-21 -25 -48 -40 -78 -50l125 -181c8 -13 6 -26 -10 -26h-112c-14 0 -22 2 -29 15l-106 167h-75v-167c0 -8 -7 -15 -15 -15h-102c-9 0 -15 7 -15 15v514c0 8 6 15 15 15h233c46 0 86 -9 119 -26c54 -29 85 -82 85 -155zM306 429h-109
v-134h106c23 0 44 4 59 17c12 10 20 27 20 50s-8 39 -18 49c-15 13 -37 18 -58 18zM293 827h90c13 0 17 -12 11 -23l-98 -157c-6 -10 -12 -16 -23 -16h-68c-18 0 -14 18 -8 29l75 152c5 10 10 15 21 15z" />
    <glyph glyph-name="Rsmallacute.2" unicode="&#xe0e8;" horiz-adv-x="604" 
d="M80 544h247c69 0 121 -20 156 -56c34 -34 51 -81 51 -136c0 -49 -14 -88 -37 -119c-22 -29 -54 -49 -91 -60c10 -23 21 -41 33 -53c16 -17 34 -25 54 -25c23 0 40 7 59 22c7 6 14 6 20 -2l31 -58c5 -9 6 -14 -2 -23c-36 -33 -77 -44 -123 -44c-55 0 -96 18 -128 49
c-31 30 -54 71 -74 119h-79v-143c0 -8 -7 -15 -15 -15h-102c-9 0 -15 7 -15 15v514c0 8 6 15 15 15zM399 352c0 26 -10 45 -24 58c-17 16 -42 19 -64 19h-115v-157h114c20 0 42 4 59 15c18 11 30 33 30 65zM313 827h90c13 0 17 -12 11 -23l-98 -157c-6 -10 -12 -16 -23 -16
h-68c-18 0 -14 18 -8 29l75 152c5 10 10 15 21 15z" />
    <glyph glyph-name="Rsmallcaron" unicode="&#xe0e9;" horiz-adv-x="552" 
d="M517 363c0 -46 -13 -80 -35 -106c-21 -25 -48 -40 -78 -50l125 -181c8 -13 6 -26 -10 -26h-112c-14 0 -22 2 -29 15l-106 167h-75v-167c0 -8 -7 -15 -15 -15h-102c-9 0 -15 7 -15 15v514c0 8 6 15 15 15h233c46 0 86 -9 119 -26c54 -29 85 -82 85 -155zM306 429h-109
v-134h106c23 0 44 4 59 17c12 10 20 27 20 50s-8 39 -18 49c-15 13 -37 18 -58 18zM302 630h-46c-11 0 -15 5 -21 12l-144 162c-9 11 -6 22 7 22h83c15 0 19 -4 27 -14l71 -79l70 79c8 10 12 14 27 14h83c13 0 16 -11 7 -22l-144 -162c-6 -7 -9 -12 -20 -12z" />
    <glyph glyph-name="Rsmallcaron.2" unicode="&#xe0ea;" horiz-adv-x="604" 
d="M80 544h247c69 0 121 -20 156 -56c34 -34 51 -81 51 -136c0 -49 -14 -88 -37 -119c-22 -29 -54 -49 -91 -60c10 -23 21 -41 33 -53c16 -17 34 -25 54 -25c23 0 40 7 59 22c7 6 14 6 20 -2l31 -58c5 -9 6 -14 -2 -23c-36 -33 -77 -44 -123 -44c-55 0 -96 18 -128 49
c-31 30 -54 71 -74 119h-79v-143c0 -8 -7 -15 -15 -15h-102c-9 0 -15 7 -15 15v514c0 8 6 15 15 15zM399 352c0 26 -10 45 -24 58c-17 16 -42 19 -64 19h-115v-157h114c20 0 42 4 59 15c18 11 30 33 30 65zM325 630h-46c-11 0 -15 5 -21 12l-144 162c-9 11 -6 22 7 22h83
c15 0 19 -4 27 -14l71 -79l70 79c8 10 12 14 27 14h83c13 0 16 -11 7 -22l-144 -162c-6 -7 -9 -12 -20 -12z" />
    <glyph glyph-name="Rsmallcommaaccent" unicode="&#xe0eb;" horiz-adv-x="552" 
d="M517 363c0 -46 -13 -80 -35 -106c-21 -25 -48 -40 -78 -50l125 -181c8 -13 6 -26 -10 -26h-112c-14 0 -22 2 -29 15l-106 167h-75v-167c0 -8 -7 -15 -15 -15h-102c-9 0 -15 7 -15 15v514c0 8 6 15 15 15h233c46 0 86 -9 119 -26c54 -29 85 -82 85 -155zM306 429h-109
v-134h106c23 0 44 4 59 17c12 10 20 27 20 50s-8 39 -18 49c-15 13 -37 18 -58 18zM374 -169c1 -77 -65 -154 -139 -176c-11 -3 -17 -1 -22 6l-13 21c-6 9 -3 16 4 21c21 14 53 34 53 63c0 41 -61 32 -61 99c0 46 32 77 82 77c63 0 94 -44 96 -111z" />
    <glyph glyph-name="Rsmallcommaaccent.2" unicode="&#xe0ec;" horiz-adv-x="604" 
d="M80 544h247c69 0 121 -20 156 -56c34 -34 51 -81 51 -136c0 -49 -14 -88 -37 -119c-22 -29 -54 -49 -91 -60c10 -23 21 -41 33 -53c16 -17 34 -25 54 -25c23 0 40 7 59 22c7 6 14 6 20 -2l31 -58c5 -9 6 -14 -2 -23c-36 -33 -77 -44 -123 -44c-55 0 -96 18 -128 49
c-31 30 -54 71 -74 119h-79v-143c0 -8 -7 -15 -15 -15h-102c-9 0 -15 7 -15 15v514c0 8 6 15 15 15zM399 352c0 26 -10 45 -24 58c-17 16 -42 19 -64 19h-115v-157h114c20 0 42 4 59 15c18 11 30 33 30 65zM404 -169c1 -77 -65 -154 -139 -176c-11 -3 -17 -1 -22 6l-13 21
c-6 9 -3 16 4 21c21 14 53 34 53 63c0 41 -61 32 -61 99c0 46 32 77 82 77c63 0 94 -44 96 -111z" />
    <glyph glyph-name="S" unicode="S" horiz-adv-x="579" 
d="M282 -10c-111 0 -192 33 -244 64c-7 4 -10 11 -6 19l46 97c4 8 11 11 19 6c46 -29 104 -62 183 -62c36 0 62 8 78 20c22 16 29 39 29 58c0 41 -36 63 -85 80c-54 20 -122 33 -180 69c-49 32 -85 76 -85 155c0 58 24 108 71 143c43 32 107 51 188 51
c105 0 174 -28 218 -52c8 -4 10 -12 6 -19l-46 -97c-4 -7 -11 -10 -19 -5c-46 25 -103 48 -167 48c-33 0 -58 -7 -74 -17c-17 -12 -25 -28 -25 -46c0 -37 36 -56 87 -73c60 -19 133 -32 190 -72c45 -31 78 -79 78 -153c0 -68 -28 -121 -75 -157c-47 -37 -113 -57 -187 -57z
" />
    <glyph glyph-name="Sacute" unicode="&#x15a;" horiz-adv-x="579" 
d="M282 -10c-111 0 -192 33 -244 64c-7 4 -10 11 -6 19l46 97c4 8 11 11 19 6c46 -29 104 -62 183 -62c36 0 62 8 78 20c22 16 29 39 29 58c0 41 -36 63 -85 80c-54 20 -122 33 -180 69c-49 32 -85 76 -85 155c0 58 24 108 71 143c43 32 107 51 188 51
c105 0 174 -28 218 -52c8 -4 10 -12 6 -19l-46 -97c-4 -7 -11 -10 -19 -5c-46 25 -103 48 -167 48c-33 0 -58 -7 -74 -17c-17 -12 -25 -28 -25 -46c0 -37 36 -56 87 -73c60 -19 133 -32 190 -72c45 -31 78 -79 78 -153c0 -68 -28 -121 -75 -157c-47 -37 -113 -57 -187 -57z
M290 968h90c13 0 17 -12 11 -23l-98 -157c-6 -10 -12 -16 -23 -16h-68c-18 0 -14 18 -8 29l75 152c5 10 10 15 21 15z" />
    <glyph glyph-name="Scaron" unicode="&#x160;" horiz-adv-x="579" 
d="M282 -10c-111 0 -192 33 -244 64c-7 4 -10 11 -6 19l46 97c4 8 11 11 19 6c46 -29 104 -62 183 -62c36 0 62 8 78 20c22 16 29 39 29 58c0 41 -36 63 -85 80c-54 20 -122 33 -180 69c-49 32 -85 76 -85 155c0 58 24 108 71 143c43 32 107 51 188 51
c105 0 174 -28 218 -52c8 -4 10 -12 6 -19l-46 -97c-4 -7 -11 -10 -19 -5c-46 25 -103 48 -167 48c-33 0 -58 -7 -74 -17c-17 -12 -25 -28 -25 -46c0 -37 36 -56 87 -73c60 -19 133 -32 190 -72c45 -31 78 -79 78 -153c0 -68 -28 -121 -75 -157c-47 -37 -113 -57 -187 -57z
M312 792h-46c-11 0 -15 5 -21 12l-144 162c-9 11 -6 22 7 22h83c15 0 19 -4 27 -14l71 -79l70 79c8 10 12 14 27 14h83c13 0 16 -11 7 -22l-144 -162c-6 -7 -9 -12 -20 -12z" />
    <glyph glyph-name="Scedilla" unicode="&#x15e;" horiz-adv-x="579" 
d="M401 -114c0 -80 -81 -101 -147 -101c-17 0 -31 1 -45 4c-6 1 -12 5 -12 12v40c0 7 5 12 12 12c9 0 22 -3 39 -3c31 0 66 8 66 40c0 22 -22 32 -55 32c-9 0 -16 0 -25 -1l6 71c-90 7 -157 35 -202 62c-7 4 -10 11 -6 19l46 97c4 8 11 11 19 6c46 -29 104 -62 183 -62
c36 0 62 8 78 20c22 16 29 39 29 58c0 41 -36 63 -85 80c-54 20 -122 33 -180 69c-49 32 -85 76 -85 155c0 58 24 108 71 143c43 32 107 51 188 51c105 0 174 -28 218 -52c8 -4 10 -12 6 -19l-46 -97c-4 -7 -11 -10 -19 -5c-46 25 -103 48 -167 48c-33 0 -58 -7 -74 -17
c-17 -12 -25 -28 -25 -46c0 -37 36 -56 87 -73c60 -19 133 -32 190 -72c45 -31 78 -79 78 -153c0 -68 -28 -121 -75 -157c-41 -33 -97 -51 -160 -56v-20c59 -6 92 -41 92 -85z" />
    <glyph glyph-name="Scommaaccent" unicode="&#x218;" horiz-adv-x="579" 
d="M282 -10c-111 0 -192 33 -244 64c-7 4 -10 11 -6 19l46 97c4 8 11 11 19 6c46 -29 104 -62 183 -62c36 0 62 8 78 20c22 16 29 39 29 58c0 41 -36 63 -85 80c-54 20 -122 33 -180 69c-49 32 -85 76 -85 155c0 58 24 108 71 143c43 32 107 51 188 51
c105 0 174 -28 218 -52c8 -4 10 -12 6 -19l-46 -97c-4 -7 -11 -10 -19 -5c-46 25 -103 48 -167 48c-33 0 -58 -7 -74 -17c-17 -12 -25 -28 -25 -46c0 -37 36 -56 87 -73c60 -19 133 -32 190 -72c45 -31 78 -79 78 -153c0 -68 -28 -121 -75 -157c-47 -37 -113 -57 -187 -57z
M390 -169c1 -77 -65 -154 -139 -176c-11 -3 -17 -1 -22 6l-13 21c-6 9 -3 16 4 21c21 14 53 34 53 63c0 41 -61 32 -61 99c0 46 32 77 82 77c63 0 94 -44 96 -111z" />
    <glyph glyph-name="Ssmall" unicode="&#xf773;" horiz-adv-x="478" 
d="M232 97c25 0 44 5 58 15c14 9 21 25 21 43c0 35 -35 51 -76 64c-51 15 -104 28 -149 62c-33 25 -53 61 -53 118c0 44 18 82 53 109s87 44 156 44c79 0 139 -25 174 -47c8 -4 9 -10 5 -19l-35 -74c-4 -7 -10 -10 -19 -5c-38 21 -80 39 -133 39c-24 0 -42 -4 -55 -13
c-12 -8 -18 -19 -18 -34c0 -31 30 -44 67 -56c50 -14 105 -25 151 -55c36 -24 63 -63 63 -125c0 -53 -22 -96 -59 -125c-38 -30 -91 -46 -153 -46c-83 0 -146 23 -191 49c-8 4 -10 11 -5 19l34 74c4 7 11 11 20 5c40 -26 90 -42 144 -42z" />
    <glyph glyph-name="Ssmallacute" unicode="&#xe0ed;" horiz-adv-x="478" 
d="M232 97c25 0 44 5 58 15c14 9 21 25 21 43c0 35 -35 51 -76 64c-51 15 -104 28 -149 62c-33 25 -53 61 -53 118c0 44 18 82 53 109s87 44 156 44c79 0 139 -25 174 -47c8 -4 9 -10 5 -19l-35 -74c-4 -7 -10 -10 -19 -5c-38 21 -80 39 -133 39c-24 0 -42 -4 -55 -13
c-12 -8 -18 -19 -18 -34c0 -31 30 -44 67 -56c50 -14 105 -25 151 -55c36 -24 63 -63 63 -125c0 -53 -22 -96 -59 -125c-38 -30 -91 -46 -153 -46c-83 0 -146 23 -191 49c-8 4 -10 11 -5 19l34 74c4 7 11 11 20 5c40 -26 90 -42 144 -42zM237 827h90c13 0 17 -12 11 -23
l-98 -157c-6 -10 -12 -16 -23 -16h-68c-18 0 -14 18 -8 29l75 152c5 10 10 15 21 15z" />
    <glyph glyph-name="Ssmallcaron" unicode="&#xe0ee;" horiz-adv-x="478" 
d="M232 97c25 0 45 5 58 15c14 9 22 25 22 43c0 35 -36 51 -77 64c-51 15 -104 28 -149 62c-32 25 -52 61 -52 118c0 44 17 82 52 109s87 44 157 44c78 0 138 -25 174 -47c7 -4 8 -10 5 -19l-36 -74c-4 -7 -10 -10 -18 -5c-38 21 -81 39 -133 39c-25 0 -43 -4 -56 -13
c-12 -8 -18 -19 -18 -34c0 -31 30 -44 68 -56c49 -14 104 -25 150 -55c36 -24 63 -63 63 -125c0 -53 -21 -96 -58 -125c-38 -30 -92 -46 -153 -46c-84 0 -147 23 -192 49c-8 4 -9 11 -5 19l35 74c3 7 10 11 19 5c41 -26 90 -42 144 -42zM260 631h-46c-11 0 -15 5 -21 11
l-143 163c-10 10 -6 22 6 22h84c15 0 18 -4 27 -14l70 -79l70 79c9 10 12 14 27 14h84c12 0 16 -12 6 -22l-143 -163c-6 -6 -10 -11 -21 -11z" />
    <glyph glyph-name="Ssmallcedilla" unicode="&#xe0ef;" horiz-adv-x="478" 
d="M353 -114c0 -80 -81 -101 -147 -101c-17 0 -31 1 -45 4c-6 1 -12 5 -12 12v40c0 7 5 12 12 12c9 0 22 -3 39 -3c31 0 66 8 66 40c0 22 -22 32 -55 32c-9 0 -16 0 -25 -1l6 73c-65 5 -115 25 -153 47c-8 4 -10 11 -5 19l34 74c4 7 11 11 20 5c40 -26 90 -42 144 -42
c25 0 44 5 58 15c14 9 21 25 21 43c0 35 -35 51 -76 64c-51 15 -104 28 -149 62c-33 25 -53 61 -53 118c0 44 18 82 53 109s87 44 156 44c79 0 139 -25 174 -47c8 -4 9 -10 5 -19l-35 -74c-4 -7 -10 -10 -19 -5c-38 21 -80 39 -133 39c-24 0 -42 -4 -55 -13
c-12 -8 -18 -19 -18 -34c0 -31 30 -44 67 -56c50 -14 105 -25 151 -55c36 -24 63 -63 63 -125c0 -53 -22 -96 -59 -125c-32 -25 -73 -40 -122 -44v-23c59 -6 92 -41 92 -85z" />
    <glyph glyph-name="Ssmallcommaaccent" unicode="&#xe0f0;" horiz-adv-x="478" 
d="M232 97c25 0 44 5 58 15c14 9 21 25 21 43c0 35 -35 51 -76 64c-51 15 -104 28 -149 62c-33 25 -53 61 -53 118c0 44 18 82 53 109s87 44 156 44c79 0 139 -25 174 -47c8 -4 9 -10 5 -19l-35 -74c-4 -7 -10 -10 -19 -5c-38 21 -80 39 -133 39c-24 0 -42 -4 -55 -13
c-12 -8 -18 -19 -18 -34c0 -31 30 -44 67 -56c50 -14 105 -25 151 -55c36 -24 63 -63 63 -125c0 -53 -22 -96 -59 -125c-38 -30 -91 -46 -153 -46c-83 0 -146 23 -191 49c-8 4 -10 11 -5 19l34 74c4 7 11 11 20 5c40 -26 90 -42 144 -42zM335 -169c1 -77 -65 -154 -139 -176
c-11 -3 -17 -1 -22 6l-13 21c-6 9 -3 16 4 21c21 14 53 34 53 63c0 41 -61 32 -61 99c0 46 32 77 82 77c63 0 94 -44 96 -111z" />
    <glyph glyph-name="T" unicode="T" horiz-adv-x="599" 
d="M23 681h552c9 0 16 -7 16 -15v-98c0 -8 -7 -15 -16 -15h-204v-538c0 -8 -7 -15 -15 -15h-114c-8 0 -15 7 -15 15v538h-204c-8 0 -15 7 -15 15v98c0 8 7 15 15 15z" />
    <glyph glyph-name="T.2" unicode="&#xe0f1;" horiz-adv-x="755" 
d="M731 553h-226v-538c0 -8 -7 -15 -15 -15h-114c-8 0 -15 7 -15 15v538h-104c-65 0 -103 -14 -103 -48c0 -17 9 -33 38 -40c9 -2 13 -9 8 -18l-34 -68c-2 -6 -7 -8 -13 -8c-76 0 -143 59 -143 140c0 135 139 170 251 170h470c9 0 16 -7 16 -15v-98c0 -8 -7 -15 -16 -15z
" />
    <glyph glyph-name="Tcaron" unicode="&#x164;" horiz-adv-x="599" 
d="M23 681h552c9 0 16 -7 16 -15v-98c0 -8 -7 -15 -16 -15h-204v-538c0 -8 -7 -15 -15 -15h-114c-8 0 -15 7 -15 15v538h-204c-8 0 -15 7 -15 15v98c0 8 7 15 15 15zM322 772h-46c-11 0 -15 5 -21 12l-144 162c-9 11 -6 22 7 22h83c15 0 19 -4 27 -14l71 -79l70 79
c8 10 12 14 27 14h83c13 0 16 -11 7 -22l-144 -162c-6 -7 -9 -12 -20 -12z" />
    <glyph glyph-name="Tcaron.2" unicode="&#xe0f2;" horiz-adv-x="755" 
d="M731 553h-226v-538c0 -8 -7 -15 -15 -15h-114c-8 0 -15 7 -15 15v538h-104c-65 0 -103 -14 -103 -48c0 -17 9 -33 38 -40c9 -2 13 -9 8 -18l-34 -68c-2 -6 -7 -8 -13 -8c-76 0 -143 59 -143 140c0 135 139 170 251 170h470c9 0 16 -7 16 -15v-98c0 -8 -7 -15 -16 -15z
M457 772h-46c-11 0 -15 5 -21 12l-144 162c-9 11 -6 22 7 22h83c15 0 19 -4 27 -14l71 -79l70 79c8 10 12 14 27 14h83c13 0 16 -11 7 -22l-144 -162c-6 -7 -9 -12 -20 -12z" />
    <glyph glyph-name="Tcommaaccent" unicode="&#x162;" horiz-adv-x="599" 
d="M23 681h552c9 0 16 -7 16 -15v-98c0 -8 -7 -15 -16 -15h-204v-538c0 -8 -7 -15 -15 -15h-114c-8 0 -15 7 -15 15v538h-204c-8 0 -15 7 -15 15v98c0 8 7 15 15 15zM390 -169c1 -77 -65 -154 -139 -176c-11 -3 -17 -1 -22 6l-13 21c-6 9 -3 16 4 21c21 14 53 34 53 63
c0 41 -61 32 -61 99c0 46 32 77 82 77c63 0 94 -44 96 -111z" />
    <glyph glyph-name="Tcommaaccent.2" unicode="&#xe0f3;" horiz-adv-x="755" 
d="M731 553h-226v-538c0 -8 -7 -15 -15 -15h-114c-8 0 -15 7 -15 15v538h-104c-65 0 -103 -14 -103 -48c0 -17 9 -33 38 -40c9 -2 13 -9 8 -18l-34 -68c-2 -6 -7 -8 -13 -8c-76 0 -143 59 -143 140c0 135 139 170 251 170h470c9 0 16 -7 16 -15v-98c0 -8 -7 -15 -16 -15z
M521 -169c1 -77 -65 -154 -139 -176c-11 -3 -17 -1 -22 6l-13 21c-6 9 -3 16 4 21c21 14 53 34 53 63c0 41 -61 32 -61 99c0 46 32 77 82 77c63 0 94 -44 96 -111z" />
    <glyph glyph-name="Thorn" unicode="&#xde;" horiz-adv-x="647" 
d="M67 -121v787c0 8 7 15 16 15h113c9 0 15 -7 15 -15v-113h155c57 0 114 -11 163 -51c51 -42 83 -107 83 -187c0 -81 -35 -150 -90 -191c-48 -37 -102 -47 -156 -47h-155v-198c0 -8 -6 -15 -15 -15h-113c-9 0 -16 7 -16 15zM466 315c0 38 -12 65 -32 83
c-22 22 -53 29 -87 29h-136v-224h133c31 0 62 5 85 23s37 49 37 89z" />
    <glyph glyph-name="Tsmall" unicode="&#xf774;" horiz-adv-x="487" 
d="M23 544h441c9 0 15 -7 15 -15v-88c0 -9 -6 -16 -15 -16h-154v-410c0 -8 -7 -15 -15 -15h-103c-8 0 -15 7 -15 15v410h-154c-8 0 -15 7 -15 16v88c0 8 7 15 15 15z" />
    <glyph glyph-name="Tsmall.2" unicode="&#xe0f4;" horiz-adv-x="661" 
d="M239 544h397c8 0 15 -7 15 -15v-88c0 -9 -7 -16 -15 -16h-203v-410c0 -8 -7 -15 -15 -15h-103c-8 0 -15 7 -15 15v410h-65c-60 0 -91 -14 -91 -40c0 -16 11 -26 35 -33c8 -2 12 -10 8 -18l-34 -68c-3 -7 -11 -8 -18 -8c-82 13 -126 59 -126 130c0 124 130 156 230 156z
" />
    <glyph glyph-name="Tsmallcaron" unicode="&#xe0f5;" horiz-adv-x="487" 
d="M23 544h441c9 0 15 -7 15 -15v-88c0 -9 -6 -16 -15 -16h-154v-410c0 -8 -7 -15 -15 -15h-103c-8 0 -15 7 -15 15v410h-154c-8 0 -15 7 -15 16v88c0 8 7 15 15 15zM266 630h-46c-11 0 -15 5 -21 12l-144 162c-9 11 -6 22 7 22h83c15 0 19 -4 27 -14l71 -79l70 79
c8 10 12 14 27 14h83c13 0 16 -11 7 -22l-144 -162c-6 -7 -9 -12 -20 -12z" />
    <glyph glyph-name="Tsmallcaron.2" unicode="&#xe0f6;" horiz-adv-x="661" 
d="M239 544h397c8 0 15 -7 15 -15v-88c0 -9 -7 -16 -15 -16h-203v-410c0 -8 -7 -15 -15 -15h-103c-8 0 -15 7 -15 15v410h-65c-60 0 -91 -14 -91 -40c0 -16 11 -26 35 -33c8 -2 12 -10 8 -18l-34 -68c-3 -7 -11 -8 -18 -8c-82 13 -126 59 -126 130c0 124 130 156 230 156z
M390 630h-46c-11 0 -15 5 -21 12l-144 162c-9 11 -6 22 7 22h83c15 0 19 -4 27 -14l71 -79l70 79c8 10 12 14 27 14h83c13 0 16 -11 7 -22l-144 -162c-6 -7 -9 -12 -20 -12z" />
    <glyph glyph-name="Tsmallcommaaccent" unicode="&#xe0f7;" horiz-adv-x="487" 
d="M23 544h441c9 0 15 -7 15 -15v-88c0 -9 -6 -16 -15 -16h-154v-410c0 -8 -7 -15 -15 -15h-103c-8 0 -15 7 -15 15v410h-154c-8 0 -15 7 -15 16v88c0 8 7 15 15 15zM333 -169c1 -77 -65 -154 -139 -176c-11 -3 -17 -1 -22 6l-13 21c-6 9 -3 16 4 21c21 14 53 34 53 63
c0 41 -61 32 -61 99c0 46 32 77 82 77c63 0 94 -44 96 -111z" />
    <glyph glyph-name="Tsmallcommaaccent.2" unicode="&#xe0f8;" horiz-adv-x="661" 
d="M239 544h397c8 0 15 -7 15 -15v-88c0 -9 -7 -16 -15 -16h-203v-410c0 -8 -7 -15 -15 -15h-103c-8 0 -15 7 -15 15v410h-65c-60 0 -91 -14 -91 -40c0 -16 11 -26 35 -33c8 -2 12 -10 8 -18l-34 -68c-3 -7 -11 -8 -18 -8c-82 13 -126 59 -126 130c0 124 130 156 230 156z
M456 -169c1 -77 -65 -154 -139 -176c-11 -3 -17 -1 -22 6l-13 21c-6 9 -3 16 4 21c21 14 53 34 53 63c0 41 -61 32 -61 99c0 46 32 77 82 77c63 0 94 -44 96 -111z" />
    <glyph glyph-name="U" unicode="U" horiz-adv-x="724" 
d="M513 286v380c0 8 7 15 16 15h113c9 0 15 -7 15 -15v-397c0 -77 -21 -141 -62 -188c-51 -58 -131 -91 -234 -91c-102 0 -182 33 -232 91c-41 47 -63 111 -63 188v397c0 8 7 15 15 15h114c8 0 15 -7 15 -15v-380c0 -51 11 -90 34 -117c28 -34 68 -47 117 -47
c51 0 91 13 119 47c22 27 33 66 33 117z" />
    <glyph glyph-name="Uacute" unicode="&#xda;" horiz-adv-x="724" 
d="M513 286v380c0 8 7 15 16 15h113c9 0 15 -7 15 -15v-397c0 -77 -21 -141 -62 -188c-51 -58 -131 -91 -234 -91c-102 0 -182 33 -232 91c-41 47 -63 111 -63 188v397c0 8 7 15 15 15h114c8 0 15 -7 15 -15v-380c0 -51 11 -90 34 -117c28 -34 68 -47 117 -47
c51 0 91 13 119 47c22 27 33 66 33 117zM367 968h90c13 0 17 -12 11 -23l-98 -157c-6 -10 -12 -16 -23 -16h-68c-18 0 -14 18 -8 29l75 152c5 10 10 15 21 15z" />
    <glyph glyph-name="Ucircumflex" unicode="&#xdb;" horiz-adv-x="724" 
d="M513 286v380c0 8 7 15 16 15h113c9 0 15 -7 15 -15v-397c0 -77 -21 -141 -62 -188c-51 -58 -131 -91 -234 -91c-102 0 -182 33 -232 91c-41 47 -63 111 -63 188v397c0 8 7 15 15 15h114c8 0 15 -7 15 -15v-380c0 -51 11 -90 34 -117c28 -34 68 -47 117 -47
c51 0 91 13 119 47c22 27 33 66 33 117zM338 968h46c11 0 14 -4 20 -11l144 -163c9 -11 6 -22 -7 -22h-83c-15 0 -19 4 -27 15l-70 79l-71 -79c-8 -11 -12 -15 -27 -15h-83c-13 0 -16 11 -7 22l144 163c6 7 10 11 21 11z" />
    <glyph glyph-name="Udieresis" unicode="&#xdc;" horiz-adv-x="724" 
d="M513 286v380c0 8 7 15 16 15h113c9 0 15 -7 15 -15v-397c0 -77 -21 -141 -62 -188c-51 -58 -131 -91 -234 -91c-102 0 -182 33 -232 91c-41 47 -63 111 -63 188v397c0 8 7 15 15 15h114c8 0 15 -7 15 -15v-380c0 -51 11 -90 34 -117c28 -34 68 -47 117 -47
c51 0 91 13 119 47c22 27 33 66 33 117zM246 784c-43 0 -76 35 -76 77s33 76 76 76c42 0 76 -34 76 -76s-34 -77 -76 -77zM478 784c-43 0 -76 35 -76 77s33 76 76 76c42 0 75 -34 75 -76s-33 -77 -75 -77z" />
    <glyph glyph-name="Ugrave" unicode="&#xd9;" horiz-adv-x="724" 
d="M513 286v380c0 8 7 15 16 15h113c9 0 15 -7 15 -15v-397c0 -77 -21 -141 -62 -188c-51 -58 -131 -91 -234 -91c-102 0 -182 33 -232 91c-41 47 -63 111 -63 188v397c0 8 7 15 15 15h114c8 0 15 -7 15 -15v-380c0 -51 11 -90 34 -117c28 -34 68 -47 117 -47
c51 0 91 13 119 47c22 27 33 66 33 117zM266 968h91c11 0 16 -5 21 -15l76 -154c4 -9 9 -27 -9 -27h-69c-11 0 -17 6 -23 16l-97 157c-7 11 -4 23 10 23z" />
    <glyph glyph-name="Uhungarumlaut" unicode="&#x170;" horiz-adv-x="724" 
d="M513 286v380c0 8 7 15 16 15h113c9 0 15 -7 15 -15v-397c0 -77 -21 -141 -62 -188c-51 -58 -131 -91 -234 -91c-102 0 -182 33 -232 91c-41 47 -63 111 -63 188v397c0 8 7 15 15 15h114c8 0 15 -7 15 -15v-380c0 -51 11 -90 34 -117c28 -34 68 -47 117 -47
c51 0 91 13 119 47c22 27 33 66 33 117zM484 968h89c8 0 14 -4 14 -10c0 -3 -2 -8 -6 -13l-117 -161c-7 -8 -9 -12 -20 -12h-72c-7 0 -13 4 -13 10c0 4 2 8 5 13l95 158c6 10 14 15 25 15zM294 968h89c9 0 14 -4 14 -10c0 -3 -2 -8 -5 -13l-118 -161c-7 -8 -9 -12 -20 -12
h-72c-6 0 -12 4 -12 10c0 4 1 8 4 13l96 158c6 10 13 15 24 15z" />
    <glyph glyph-name="Umacron" unicode="&#x16a;" horiz-adv-x="724" 
d="M513 286v380c0 8 7 15 16 15h113c9 0 15 -7 15 -15v-397c0 -77 -21 -141 -62 -188c-51 -58 -131 -91 -234 -91c-102 0 -182 33 -232 91c-41 47 -63 111 -63 188v397c0 8 7 15 15 15h114c8 0 15 -7 15 -15v-380c0 -51 11 -90 34 -117c28 -34 68 -47 117 -47
c51 0 91 13 119 47c22 27 33 66 33 117zM240 924h241c9 0 15 -7 15 -15v-77c0 -9 -6 -16 -15 -16h-241c-9 0 -15 7 -15 16v77c0 8 6 15 15 15z" />
    <glyph glyph-name="Uogonek" unicode="&#x172;" horiz-adv-x="724" 
d="M257 -119c0 42 29 82 63 111c-83 7 -148 39 -191 89c-41 47 -63 111 -63 188v397c0 8 7 15 15 15h114c8 0 15 -7 15 -15v-380c0 -51 11 -90 34 -117c28 -34 68 -47 117 -47c51 0 91 13 119 47c22 27 33 66 33 117v380c0 8 7 15 16 15h113c9 0 15 -7 15 -15v-397
c0 -77 -21 -141 -62 -188c-45 -52 -113 -83 -199 -89c-25 -20 -48 -46 -48 -74c0 -25 18 -35 41 -35c28 0 39 9 53 9c7 0 9 -5 9 -11v-53c0 -9 -3 -12 -9 -14c-24 -11 -52 -17 -80 -17c-53 0 -105 21 -105 84z" />
    <glyph glyph-name="Uring" unicode="&#x16e;" horiz-adv-x="724" 
d="M513 286v380c0 8 7 15 16 15h113c9 0 15 -7 15 -15v-397c0 -77 -21 -141 -62 -188c-51 -58 -131 -91 -234 -91c-102 0 -182 33 -232 91c-41 47 -63 111 -63 188v397c0 8 7 15 15 15h114c8 0 15 -7 15 -15v-380c0 -51 11 -90 34 -117c28 -34 68 -47 117 -47
c51 0 91 13 119 47c22 27 33 66 33 117zM483 857c0 -66 -55 -120 -121 -120c-68 0 -122 54 -122 120c0 69 54 122 122 122c66 0 121 -53 121 -122zM425 857c0 37 -29 65 -63 65c-36 0 -64 -28 -64 -65c0 -34 28 -63 64 -63c34 0 63 28 63 63z" />
    <glyph glyph-name="Usmall" unicode="&#xf775;" horiz-adv-x="605" 
d="M548 529v-312c0 -71 -22 -129 -66 -168c-42 -37 -102 -57 -180 -57c-77 0 -137 20 -179 57c-44 39 -66 97 -66 168v312c0 8 7 15 15 15h102c8 0 15 -7 16 -15v-305c0 -40 10 -66 32 -86c18 -18 49 -25 80 -25c32 0 62 7 81 25c23 21 32 46 32 86v305c0 8 7 15 15 15h103
c8 0 15 -7 15 -15z" />
    <glyph glyph-name="Usmallacute" unicode="&#xe0f9;" horiz-adv-x="605" 
d="M548 529v-312c0 -71 -22 -129 -66 -168c-42 -37 -102 -57 -180 -57c-77 0 -137 20 -179 57c-44 39 -66 97 -66 168v312c0 8 7 15 15 15h102c8 0 15 -7 16 -15v-305c0 -40 10 -66 32 -86c18 -18 49 -25 80 -25c32 0 62 7 81 25c23 21 32 46 32 86v305c0 8 7 15 15 15h103
c8 0 15 -7 15 -15zM319 827h90c13 0 17 -12 11 -23l-98 -157c-6 -10 -12 -16 -23 -16h-68c-18 0 -14 18 -8 29l75 152c5 10 10 15 21 15z" />
    <glyph glyph-name="Usmallcircumflex" unicode="&#xe0fa;" horiz-adv-x="605" 
d="M548 529v-312c0 -71 -22 -129 -66 -168c-42 -37 -102 -57 -180 -57c-77 0 -137 20 -179 57c-44 39 -66 97 -66 168v312c0 8 7 15 15 15h102c8 0 15 -7 16 -15v-305c0 -40 10 -66 32 -86c18 -18 49 -25 80 -25c32 0 62 7 81 25c23 21 32 46 32 86v305c0 8 7 15 15 15h103
c8 0 15 -7 15 -15zM279 826h46c11 0 14 -4 20 -11l144 -163c9 -11 6 -22 -7 -22h-83c-15 0 -19 4 -27 15l-70 79l-71 -79c-8 -11 -12 -15 -27 -15h-83c-13 0 -16 11 -7 22l144 163c6 7 10 11 21 11z" />
    <glyph glyph-name="Usmalldieresis" unicode="&#xe0fb;" horiz-adv-x="605" 
d="M548 529v-312c0 -71 -22 -129 -66 -168c-42 -37 -102 -57 -180 -57c-77 0 -137 20 -179 57c-44 39 -66 97 -66 168v312c0 8 7 15 15 15h102c8 0 15 -7 16 -15v-305c0 -40 10 -66 32 -86c18 -18 49 -25 80 -25c32 0 62 7 81 25c23 21 32 46 32 86v305c0 8 7 15 15 15h103
c8 0 15 -7 15 -15zM187 644c-43 0 -76 35 -76 77s33 76 76 76c42 0 76 -34 76 -76s-34 -77 -76 -77zM419 644c-43 0 -76 35 -76 77s33 76 76 76c42 0 75 -34 75 -76s-33 -77 -75 -77z" />
    <glyph glyph-name="Usmallgrave" unicode="&#xe0fc;" horiz-adv-x="605" 
d="M548 529v-312c0 -71 -22 -129 -66 -168c-42 -37 -102 -57 -180 -57c-77 0 -137 20 -179 57c-44 39 -66 97 -66 168v312c0 8 7 15 15 15h102c8 0 15 -7 16 -15v-305c0 -40 10 -66 32 -86c18 -18 49 -25 80 -25c32 0 62 7 81 25c23 21 32 46 32 86v305c0 8 7 15 15 15h103
c8 0 15 -7 15 -15zM198 827h91c11 0 16 -5 21 -15l76 -154c4 -9 9 -27 -9 -27h-69c-11 0 -17 6 -23 16l-97 157c-7 11 -4 23 10 23z" />
    <glyph glyph-name="Usmallhungarumlaut" unicode="&#xe0fd;" horiz-adv-x="605" 
d="M548 529v-312c0 -71 -22 -129 -66 -168c-42 -37 -102 -57 -180 -57c-77 0 -137 20 -179 57c-44 39 -66 97 -66 168v312c0 8 7 15 15 15h102c8 0 15 -7 16 -15v-305c0 -40 10 -66 32 -86c18 -18 49 -25 80 -25c32 0 62 7 81 25c23 21 32 46 32 86v305c0 8 7 15 15 15h103
c8 0 15 -7 15 -15zM428 826h89c8 0 14 -4 14 -10c0 -3 -2 -8 -6 -13l-117 -161c-7 -8 -9 -12 -20 -12h-72c-7 0 -13 4 -13 10c0 4 2 8 5 13l95 158c6 10 14 15 25 15zM238 826h89c9 0 14 -4 14 -10c0 -3 -2 -8 -5 -13l-118 -161c-7 -8 -9 -12 -20 -12h-72c-6 0 -12 4 -12 10
c0 4 1 8 4 13l96 158c6 10 13 15 24 15z" />
    <glyph glyph-name="Usmallmacron" unicode="&#xe0fe;" horiz-adv-x="605" 
d="M548 529v-312c0 -71 -22 -129 -66 -168c-42 -37 -102 -57 -180 -57c-77 0 -137 20 -179 57c-44 39 -66 97 -66 168v312c0 8 7 15 15 15h102c8 0 15 -7 16 -15v-305c0 -40 10 -66 32 -86c18 -18 49 -25 80 -25c32 0 62 7 81 25c23 21 32 46 32 86v305c0 8 7 15 15 15h103
c8 0 15 -7 15 -15zM181 761h241c9 0 15 -7 15 -15v-77c0 -9 -6 -16 -15 -16h-241c-9 0 -15 7 -15 16v77c0 8 6 15 15 15z" />
    <glyph glyph-name="Usmallogonek" unicode="&#xe0ff;" horiz-adv-x="605" 
d="M198 -119c0 43 30 84 65 113c-59 6 -106 24 -140 55c-44 39 -66 97 -66 168v312c0 8 7 15 15 15h102c8 0 15 -7 16 -15v-305c0 -40 10 -66 32 -86c18 -18 49 -25 80 -25c32 0 62 7 81 25c23 21 32 46 32 86v305c0 8 7 15 15 15h103c8 0 15 -7 15 -15v-312
c0 -71 -22 -129 -66 -168c-35 -31 -82 -49 -142 -55c-25 -19 -51 -47 -51 -76c0 -25 18 -35 41 -35c28 0 39 9 53 9c7 0 9 -5 9 -11v-53c0 -9 -3 -12 -9 -14c-24 -11 -52 -17 -80 -17c-53 0 -105 21 -105 84z" />
    <glyph glyph-name="Usmallring" unicode="&#xe100;" horiz-adv-x="605" 
d="M548 529v-312c0 -71 -22 -129 -66 -168c-42 -37 -102 -57 -180 -57c-77 0 -137 20 -179 57c-44 39 -66 97 -66 168v312c0 8 7 15 15 15h102c8 0 15 -7 16 -15v-305c0 -40 10 -66 32 -86c18 -18 49 -25 80 -25c32 0 62 7 81 25c23 21 32 46 32 86v305c0 8 7 15 15 15h103
c8 0 15 -7 15 -15zM424 726c0 -66 -55 -120 -121 -120c-68 0 -122 54 -122 120c0 69 54 122 122 122c66 0 121 -53 121 -122zM366 726c0 37 -29 65 -63 65c-36 0 -64 -28 -64 -65c0 -34 28 -63 64 -63c34 0 63 28 63 63z" />
    <glyph glyph-name="V" unicode="V" horiz-adv-x="678" 
d="M674 660l-254 -648c-4 -11 -11 -15 -23 -15h-120c-13 0 -20 4 -24 15l-248 648c-5 12 -1 21 12 21h121c13 0 21 -5 25 -17l173 -486h2l179 486c4 12 11 17 25 17h120c12 0 17 -9 12 -21z" />
    <glyph glyph-name="Vsmall" unicode="&#xf776;" horiz-adv-x="570" 
d="M209 12l-201 511c-4 8 -4 21 11 21h108c14 0 22 -5 25 -17l131 -357h2l134 357c4 12 11 17 25 17h106c15 0 15 -13 12 -21l-204 -511c-5 -11 -11 -15 -24 -15h-102c-12 0 -19 4 -23 15z" />
    <glyph glyph-name="W" unicode="W" horiz-adv-x="1046" 
d="M835 248v418c0 8 7 15 15 15h114c8 0 15 -7 15 -15v-420c0 -86 -27 -147 -69 -187c-50 -49 -122 -68 -195 -68c-36 0 -75 6 -110 21c-31 14 -59 35 -82 67c-24 -32 -52 -53 -83 -67c-35 -15 -74 -21 -110 -21c-72 0 -145 19 -195 68c-42 40 -69 101 -69 187v420
c0 8 7 15 15 15h114c8 0 15 -7 15 -15v-418c0 -44 12 -73 32 -93c23 -23 56 -32 88 -32c41 0 69 12 88 33c21 24 33 62 33 111v399c0 8 6 15 15 15h113c9 0 16 -7 16 -15v-399c0 -49 11 -87 32 -111c19 -21 48 -33 88 -33c33 0 66 8 89 32c19 20 31 49 31 93z" />
    <glyph glyph-name="W.2" unicode="&#xe101;" horiz-adv-x="1058" 
d="M719 178l178 486c4 12 11 17 25 17h120c16 0 16 -13 12 -21l-253 -648c-4 -11 -11 -15 -24 -15h-120c-12 0 -19 3 -23 15l-107 274h-2l-107 -274c-4 -11 -11 -15 -23 -15h-120c-13 0 -20 4 -24 15l-248 648c-3 8 -3 21 12 21h120c14 0 21 -5 25 -17l174 -486h2l115 313
l-65 169c-3 8 -3 21 12 21h120c13 0 21 -5 25 -17l174 -486h2z" />
    <glyph glyph-name="W.calt" unicode="&#xe102;" horiz-adv-x="1035" 
d="M743 179l135 485c3 12 11 17 25 17h117c15 0 15 -13 12 -21l-203 -648c-4 -11 -11 -15 -24 -15h-126c-13 0 -21 4 -24 15l-137 401h-2l-130 -401c-4 -11 -11 -15 -24 -15h-127c-13 0 -20 4 -24 15l-208 648c-3 8 -4 21 11 21h118c13 0 22 -5 25 -17l141 -485h2l148 485
c4 12 12 17 25 17h87c14 0 21 -5 25 -17l156 -485h2z" />
    <glyph glyph-name="Wcircumflex" unicode="&#x174;" horiz-adv-x="1046" 
d="M835 248v418c0 8 7 15 15 15h114c8 0 15 -7 15 -15v-420c0 -86 -27 -147 -69 -187c-50 -49 -122 -68 -195 -68c-36 0 -75 6 -110 21c-31 14 -59 35 -82 67c-24 -32 -52 -53 -83 -67c-35 -15 -74 -21 -110 -21c-72 0 -145 19 -195 68c-42 40 -69 101 -69 187v420
c0 8 7 15 15 15h114c8 0 15 -7 15 -15v-418c0 -44 12 -73 32 -93c23 -23 56 -32 88 -32c41 0 69 12 88 33c21 24 33 62 33 111v399c0 8 6 15 15 15h113c9 0 16 -7 16 -15v-399c0 -49 11 -87 32 -111c19 -21 48 -33 88 -33c33 0 66 8 89 32c19 20 31 49 31 93zM499 968h46
c11 0 14 -4 20 -11l144 -163c9 -11 6 -22 -7 -22h-83c-15 0 -19 4 -27 15l-70 79l-71 -79c-8 -11 -12 -15 -27 -15h-83c-13 0 -16 11 -7 22l144 163c6 7 10 11 21 11z" />
    <glyph glyph-name="Wcircumflex.2" unicode="&#xe103;" horiz-adv-x="1058" 
d="M719 178l178 486c4 12 11 17 25 17h120c16 0 16 -13 12 -21l-253 -648c-4 -11 -11 -15 -24 -15h-120c-12 0 -19 3 -23 15l-107 274h-2l-107 -274c-4 -11 -11 -15 -23 -15h-120c-13 0 -20 4 -24 15l-248 648c-3 8 -3 21 12 21h120c14 0 21 -5 25 -17l174 -486h2l115 313
l-65 169c-3 8 -3 21 12 21h120c13 0 21 -5 25 -17l174 -486h2zM503 968h46c11 0 14 -4 20 -11l144 -163c9 -11 6 -22 -7 -22h-83c-15 0 -19 4 -27 15l-70 79l-71 -79c-8 -11 -12 -15 -27 -15h-83c-13 0 -16 11 -7 22l144 163c6 7 10 11 21 11z" />
    <glyph glyph-name="Wcircumflex.calt" unicode="&#xe15c;" horiz-adv-x="1035" 
d="M494 968h46c11 0 14 -4 20 -11l144 -163c9 -11 6 -22 -7 -22h-83c-15 0 -19 4 -27 15l-70 79l-71 -79c-8 -11 -12 -15 -27 -15h-83c-13 0 -16 11 -7 22l144 163c6 7 10 11 21 11zM743 179l135 485c3 12 11 17 25 17h117c15 0 15 -13 12 -21l-203 -648
c-4 -11 -11 -15 -24 -15h-126c-13 0 -21 4 -24 15l-137 401h-2l-130 -401c-4 -11 -11 -15 -24 -15h-127c-13 0 -20 4 -24 15l-208 648c-3 8 -4 21 11 21h118c13 0 22 -5 25 -17l141 -485h2l148 485c4 12 12 17 25 17h87c14 0 21 -5 25 -17l156 -485h2z" />
    <glyph glyph-name="Wsmall" unicode="&#xf777;" horiz-adv-x="863" 
d="M365 224v305c0 8 7 15 15 15h103c8 0 15 -7 15 -15v-305c0 -40 9 -68 25 -86c15 -17 38 -25 62 -25c25 0 47 8 62 25c17 18 25 46 25 86v305c0 8 7 15 16 15h102c9 0 16 -7 16 -15v-312c0 -71 -20 -128 -59 -167c-38 -38 -92 -58 -161 -58c-38 0 -71 8 -98 22
c-22 10 -40 25 -55 43c-16 -19 -37 -34 -62 -45c-26 -13 -58 -20 -93 -20c-70 0 -124 20 -161 58c-40 39 -60 96 -60 167v312c0 8 7 15 15 15h103c8 0 15 -7 15 -15v-305c0 -40 9 -68 25 -86c16 -17 38 -25 63 -25c23 0 46 8 62 25c16 18 25 46 25 86z" />
    <glyph glyph-name="Wsmall.2" unicode="&#xe104;" horiz-adv-x="899" 
d="M541 12l-94 233l-95 -233c-4 -11 -11 -15 -24 -15h-100c-13 0 -19 4 -24 15l-199 510c-1 2 -3 6 -3 9c0 7 4 13 14 13h107c13 0 21 -5 25 -17l132 -357l96 258l-36 94c-1 2 -2 6 -2 9c0 7 3 13 14 13h108c13 0 21 -5 25 -17l132 -357l134 357c4 12 12 17 25 17h108
c10 0 13 -6 13 -13c0 -3 -1 -6 -2 -9l-206 -510c-4 -11 -11 -15 -24 -15h-100c-13 0 -19 4 -24 15z" />
    <glyph glyph-name="Wsmall.calt" unicode="&#xe105;" horiz-adv-x="847" 
d="M593 168l103 359c2 11 11 17 25 17h110c15 0 14 -13 12 -21l-167 -511c-4 -11 -11 -15 -24 -15h-116c-13 0 -21 4 -24 15l-88 282h-2l-88 -282c-3 -11 -11 -15 -23 -15h-118c-12 0 -20 4 -23 15l-166 511c-3 8 -3 21 12 21h110c13 0 22 -5 25 -17l102 -359h2l103 359
c3 12 11 17 25 17h80c14 0 22 -5 25 -17l103 -359h2z" />
    <glyph glyph-name="Wsmallcircumflex" unicode="&#xe106;" horiz-adv-x="863" 
d="M365 224v305c0 8 7 15 15 15h103c8 0 15 -7 15 -15v-305c0 -40 9 -68 25 -86c15 -17 38 -25 62 -25c25 0 47 8 62 25c17 18 25 46 25 86v305c0 8 7 15 16 15h102c9 0 16 -7 16 -15v-312c0 -71 -20 -128 -59 -167c-38 -38 -92 -58 -161 -58c-38 0 -71 8 -98 22
c-22 10 -40 25 -55 43c-16 -19 -37 -34 -62 -45c-26 -13 -58 -20 -93 -20c-70 0 -124 20 -161 58c-40 39 -60 96 -60 167v312c0 8 7 15 15 15h103c8 0 15 -7 15 -15v-305c0 -40 9 -68 25 -86c16 -17 38 -25 63 -25c23 0 46 8 62 25c16 18 25 46 25 86zM408 826h46
c11 0 14 -4 20 -11l144 -163c9 -11 6 -22 -7 -22h-83c-15 0 -19 4 -27 15l-70 79l-71 -79c-8 -11 -12 -15 -27 -15h-83c-13 0 -16 11 -7 22l144 163c6 7 10 11 21 11z" />
    <glyph glyph-name="Wsmallcircumflex.2" unicode="&#xe107;" horiz-adv-x="899" 
d="M541 12l-94 233l-95 -233c-4 -11 -11 -15 -24 -15h-100c-13 0 -19 4 -24 15l-199 510c-1 2 -3 6 -3 9c0 7 4 13 14 13h107c13 0 21 -5 25 -17l132 -357l96 258l-36 94c-1 2 -2 6 -2 9c0 7 3 13 14 13h108c13 0 21 -5 25 -17l132 -357l134 357c4 12 12 17 25 17h108
c10 0 13 -6 13 -13c0 -3 -1 -6 -2 -9l-206 -510c-4 -11 -11 -15 -24 -15h-100c-13 0 -19 4 -24 15zM422 826h46c11 0 14 -4 20 -11l144 -163c9 -11 6 -22 -7 -22h-83c-15 0 -19 4 -27 15l-70 79l-71 -79c-8 -11 -12 -15 -27 -15h-83c-13 0 -16 11 -7 22l144 163
c6 7 10 11 21 11z" />
    <glyph glyph-name="Wsmallcircumflex.calt" unicode="&#xe15d;" horiz-adv-x="847" 
d="M400 826h46c11 0 14 -4 20 -11l144 -163c9 -11 6 -22 -7 -22h-83c-15 0 -18 5 -27 15l-70 79l-71 -79c-9 -10 -12 -15 -27 -15h-83c-13 0 -16 11 -7 22l144 163c6 7 10 11 21 11zM593 168l103 359c2 11 11 17 25 17h110c15 0 14 -13 12 -21l-167 -511
c-4 -11 -11 -15 -24 -15h-116c-13 0 -21 4 -24 15l-88 282h-2l-88 -282c-3 -11 -11 -15 -23 -15h-118c-12 0 -20 4 -23 15l-166 511c-3 8 -3 21 12 21h110c13 0 22 -5 25 -17l102 -359h2l103 359c3 12 11 17 25 17h80c14 0 22 -5 25 -17l103 -359h2z" />
    <glyph glyph-name="X" unicode="X" horiz-adv-x="701" 
d="M442 342l253 -318c10 -12 6 -24 -10 -24h-149c-14 0 -19 5 -26 14l-159 217l-160 -217c-6 -9 -12 -14 -25 -14h-150c-16 0 -20 12 -10 24l257 315l-252 317c-9 12 -5 25 11 25h150c13 0 19 -6 25 -15l155 -210l150 210c7 9 13 15 27 15h151c16 0 20 -13 10 -25z" />
    <glyph glyph-name="Xsmall" unicode="&#xf778;" horiz-adv-x="587" 
d="M215 271l-200 252c-5 7 -3 21 11 21h128c18 0 27 -7 33 -17l109 -148l109 148c7 11 13 17 23 17h138c12 0 16 -14 10 -21l-197 -250l202 -252c5 -8 3 -21 -10 -21h-137c-11 0 -18 9 -24 16l-113 152l-114 -152c-6 -8 -13 -16 -24 -16h-142c-13 0 -17 13 -11 21z" />
    <glyph glyph-name="Y" unicode="Y" horiz-adv-x="660" 
d="M329 426l158 240c6 10 12 15 26 15h131c16 0 19 -12 10 -25l-253 -373v-268c0 -8 -7 -15 -15 -15h-114c-8 0 -15 7 -15 15v269l-251 372c-9 13 -6 25 10 25h131c13 0 19 -4 25 -15z" />
    <glyph glyph-name="Y.2" unicode="&#xe108;" horiz-adv-x="704" 
d="M278 15v235l-275 410c-5 8 -3 21 12 21h132c14 0 19 -7 25 -17l178 -271l179 271c8 12 12 17 26 17h133c16 0 18 -14 12 -21l-278 -411v-234c0 -8 -6 -15 -15 -15h-113c-9 0 -16 7 -16 15z" />
    <glyph glyph-name="Y.3" unicode="&#xe109;" horiz-adv-x="621" 
d="M76 123h36c35 0 61 5 84 17c20 11 36 27 53 48l-245 472c-5 8 -4 21 11 21h127c14 0 21 -8 26 -17l154 -329l138 329c4 10 12 17 25 17h120c16 0 17 -13 12 -21l-205 -457c-25 -57 -55 -101 -92 -134c-55 -50 -122 -69 -192 -69h-52c-8 0 -15 7 -15 15v93c0 9 7 15 15 15
z" />
    <glyph glyph-name="Yacute" unicode="&#xdd;" horiz-adv-x="660" 
d="M329 426l158 240c6 10 12 15 26 15h131c16 0 19 -12 10 -25l-253 -373v-268c0 -8 -7 -15 -15 -15h-114c-8 0 -15 7 -15 15v269l-251 372c-9 13 -6 25 10 25h131c13 0 19 -4 25 -15zM344 968h90c13 0 17 -12 11 -23l-98 -157c-6 -10 -12 -16 -23 -16h-68
c-18 0 -14 18 -8 29l75 152c5 10 10 15 21 15z" />
    <glyph glyph-name="Yacute.2" unicode="&#xe10a;" horiz-adv-x="704" 
d="M278 15v235l-275 410c-5 8 -3 21 12 21h132c14 0 19 -7 25 -17l178 -271l179 271c8 12 12 17 26 17h133c16 0 18 -14 12 -21l-278 -411v-234c0 -8 -6 -15 -15 -15h-113c-9 0 -16 7 -16 15zM365 968h90c13 0 17 -12 11 -23l-98 -157c-6 -10 -12 -16 -23 -16h-68
c-18 0 -14 18 -8 29l75 152c5 10 10 15 21 15z" />
    <glyph glyph-name="Yacute.3" unicode="&#xe10b;" horiz-adv-x="621" 
d="M76 123h36c35 0 61 5 84 17c20 11 36 27 53 48l-245 472c-5 8 -4 21 11 21h127c14 0 21 -8 26 -17l154 -329l138 329c4 10 12 17 25 17h120c16 0 17 -13 12 -21l-205 -457c-25 -57 -55 -101 -92 -134c-55 -50 -122 -69 -192 -69h-52c-8 0 -15 7 -15 15v93c0 9 7 15 15 15
zM321 968h90c13 0 17 -12 11 -23l-98 -157c-6 -10 -12 -16 -23 -16h-68c-18 0 -14 18 -8 29l75 152c5 10 10 15 21 15z" />
    <glyph glyph-name="Ycircumflex" unicode="&#x176;" horiz-adv-x="660" 
d="M329 426l158 240c6 10 12 15 26 15h131c16 0 19 -12 10 -25l-253 -373v-268c0 -8 -7 -15 -15 -15h-114c-8 0 -15 7 -15 15v269l-251 372c-9 13 -6 25 10 25h131c13 0 19 -4 25 -15zM307 968h46c11 0 14 -4 20 -11l144 -163c9 -11 6 -22 -7 -22h-83c-15 0 -19 4 -27 15
l-70 79l-71 -79c-8 -11 -12 -15 -27 -15h-83c-13 0 -16 11 -7 22l144 163c6 7 10 11 21 11z" />
    <glyph glyph-name="Ycircumflex.2" unicode="&#xe10c;" horiz-adv-x="704" 
d="M278 15v235l-275 410c-5 8 -3 21 12 21h132c14 0 19 -7 25 -17l178 -271l179 271c8 12 12 17 26 17h133c16 0 18 -14 12 -21l-278 -411v-234c0 -8 -6 -15 -15 -15h-113c-9 0 -16 7 -16 15zM328 968h46c11 0 14 -4 20 -11l144 -163c9 -11 6 -22 -7 -22h-83
c-15 0 -19 4 -27 15l-70 79l-71 -79c-8 -11 -12 -15 -27 -15h-83c-13 0 -16 11 -7 22l144 163c6 7 10 11 21 11z" />
    <glyph glyph-name="Ycircumflex.3" unicode="&#xe10d;" horiz-adv-x="621" 
d="M76 123h36c35 0 61 5 84 17c20 11 36 27 53 48l-245 472c-5 8 -4 21 11 21h127c14 0 21 -8 26 -17l154 -329l138 329c4 10 12 17 25 17h120c16 0 17 -13 12 -21l-205 -457c-25 -57 -55 -101 -92 -134c-55 -50 -122 -69 -192 -69h-52c-8 0 -15 7 -15 15v93c0 9 7 15 15 15
zM289 968h46c11 0 14 -4 20 -11l144 -163c9 -11 6 -22 -7 -22h-83c-15 0 -19 4 -27 15l-70 79l-71 -79c-8 -11 -12 -15 -27 -15h-83c-13 0 -16 11 -7 22l144 163c6 7 10 11 21 11z" />
    <glyph glyph-name="Ydieresis" unicode="&#x178;" horiz-adv-x="660" 
d="M329 426l158 240c6 10 12 15 26 15h131c16 0 19 -12 10 -25l-253 -373v-268c0 -8 -7 -15 -15 -15h-114c-8 0 -15 7 -15 15v269l-251 372c-9 13 -6 25 10 25h131c13 0 19 -4 25 -15zM214 784c-43 0 -76 35 -76 77s33 76 76 76c42 0 76 -34 76 -76s-34 -77 -76 -77z
M446 784c-43 0 -76 35 -76 77s33 76 76 76c42 0 75 -34 75 -76s-33 -77 -75 -77z" />
    <glyph glyph-name="Ydieresis.2" unicode="&#xe10e;" horiz-adv-x="704" 
d="M278 15v235l-275 410c-5 8 -3 21 12 21h132c14 0 19 -7 25 -17l178 -271l179 271c8 12 12 17 26 17h133c16 0 18 -14 12 -21l-278 -411v-234c0 -8 -6 -15 -15 -15h-113c-9 0 -16 7 -16 15zM235 784c-43 0 -76 35 -76 77s33 76 76 76c42 0 76 -34 76 -76s-34 -77 -76 -77z
M467 784c-43 0 -76 35 -76 77s33 76 76 76c42 0 75 -34 75 -76s-33 -77 -75 -77z" />
    <glyph glyph-name="Ydieresis.3" unicode="&#xe10f;" horiz-adv-x="621" 
d="M76 123h36c35 0 61 5 84 17c20 11 36 27 53 48l-245 472c-5 8 -4 21 11 21h127c14 0 21 -8 26 -17l154 -329l138 329c4 10 12 17 25 17h120c16 0 17 -13 12 -21l-205 -457c-25 -57 -55 -101 -92 -134c-55 -50 -122 -69 -192 -69h-52c-8 0 -15 7 -15 15v93c0 9 7 15 15 15
zM192 784c-43 0 -76 35 -76 77s33 76 76 76c42 0 76 -34 76 -76s-34 -77 -76 -77zM424 784c-43 0 -76 35 -76 77s33 76 76 76c42 0 75 -34 75 -76s-33 -77 -75 -77z" />
    </font>
</defs>
</svg>
