<?xml version="1.0" standalone="no"?>
<!DOCTYPE svg PUBLIC "-//W3C//DTD SVG 1.1//EN" "http://www.w3.org/Graphics/SVG/1.1/DTD/svg11.dtd" >
<svg xmlns="http://www.w3.org/2000/svg" xmlns:xlink="http://www.w3.org/1999/xlink" version="1.1">
<metadata>
Created by FontForge 20170104 at Sun Oct 27 14:54:42 2013
 By myTaste
Copyright (c) 2013 by Eimantas Paskonis. All rights reserved.
</metadata>
<defs>
<font id="Neris-SemiBoldItalic" horiz-adv-x="556" >
  <font-face 
    font-family="Neris"
    font-weight="600"
    font-style="italic"
    font-stretch="normal"
    units-per-em="1000"
    panose-1="0 0 7 0 0 0 0 0 0 0"
    ascent="755"
    descent="-245"
    x-height="485"
    cap-height="699"
    bbox="-150.122 -231 1325 1043"
    underline-thickness="54"
    underline-position="-116"
    slope="-9.60001"
    stemh="99"
    stemv="109"
    unicode-range="U+000D-F6D0"
  />
<missing-glyph horiz-adv-x="440" 
 />
    <glyph glyph-name="Idieresis_Idieresis.liga" unicode="&#xcf;&#xcf;" horiz-adv-x="536" 
d="M197 900c37 0 58 -17 58 -48c0 -33 -19 -75 -77 -75c-39 0 -58 16 -58 48c0 35 17 75 77 75zM382 900c37 0 58 -17 58 -48c0 -33 -19 -75 -77 -75c-39 0 -58 16 -58 48c0 35 17 75 77 75zM571 900c37 0 58 -17 58 -48c0 -33 -19 -75 -77 -75c-39 0 -58 16 -58 48
c0 35 17 75 77 75zM140 0h-92c-8 0 -11 4 -10 12l114 677c1 7 5 10 12 10h92c8 0 11 -4 10 -12l-114 -677c-1 -7 -5 -10 -12 -10zM408 0h-92c-8 0 -11 4 -10 12l114 677c1 7 5 10 12 10h92c8 0 11 -4 10 -12l-114 -677c-1 -7 -5 -10 -12 -10z" />
    <glyph glyph-name="idieresis_idieresis.liga" unicode="&#xef;&#xef;" horiz-adv-x="545" 
d="M176 727c36 0 56 -21 56 -56c0 -36 -17 -72 -65 -72c-37 0 -58 21 -58 56c0 46 25 72 67 72zM346 727c35 0 56 -21 56 -56c0 -36 -18 -72 -66 -72c-36 0 -57 20 -57 55c0 46 24 73 67 73zM517 727c36 0 56 -21 56 -56c0 -36 -17 -72 -65 -72c-37 0 -58 21 -58 56
c0 46 25 72 67 72zM167 0h-90c-8 0 -11 4 -10 12l63 374h-48c-8 0 -11 4 -10 12l13 77c1 7 5 10 12 10h150c8 0 11 -4 10 -12l-78 -463c-1 -7 -5 -10 -12 -10zM436 0h-90c-8 0 -11 4 -10 12l63 374h-48c-8 0 -11 4 -10 12l13 77c1 7 5 10 12 10h150c8 0 11 -4 10 -12
l-78 -463c-1 -7 -5 -10 -12 -10z" />
    <glyph glyph-name="uni021B_i.liga" unicode="&#x21b;i" horiz-adv-x="642" 
d="M583 725c40 0 62 -21 62 -58c0 -50 -27 -77 -71 -77c-40 0 -62 22 -62 59c0 49 27 76 71 76zM255 485h350c8 0 11 -4 10 -12l-78 -463c-1 -7 -5 -10 -12 -10h-90c-8 0 -11 4 -10 12l63 374h-250l-41 -243c-6 -34 5 -53 30 -53c10 0 18 1 27 4c7 2 12 0 14 -7l20 -67
c2 -6 0 -11 -6 -14c-20 -10 -47 -17 -71 -17c-95 0 -142 57 -126 154l41 243h-48c-8 0 -11 4 -10 12l13 77c1 7 5 10 12 10h50l19 115c1 6 4 10 10 12l96 30c8 2 13 -2 12 -10zM114 -217l24 34c10 14 8 22 -2 25c-15 5 -25 20 -25 38c0 30 20 57 61 57c28 0 46 -15 46 -42
c0 -34 -24 -66 -41 -89l-20 -29c-4 -5 -8 -7 -13 -7h-23c-10 0 -13 6 -7 13z" />
    <glyph glyph-name="t_icircumflex.liga" unicode="t&#xee;" horiz-adv-x="686" 
d="M576 637l-57 -64c-3 -4 -7 -6 -13 -6h-62c-10 0 -13 6 -7 13l94 130c4 5 8 7 13 7h88c6 0 10 -3 12 -9l51 -128c3 -8 0 -13 -9 -13h-63c-6 0 -10 2 -13 8zM255 485h350c8 0 11 -4 10 -12l-78 -463c-1 -7 -5 -10 -12 -10h-90c-8 0 -11 4 -10 12l63 374h-250l-41 -243
c-6 -34 5 -53 30 -53c10 0 18 1 27 4c7 2 12 0 14 -7l20 -67c2 -6 0 -11 -6 -14c-20 -10 -47 -17 -71 -17c-95 0 -142 57 -126 154l41 243h-48c-8 0 -11 4 -10 12l13 77c1 7 5 10 12 10h50l19 115c1 6 4 10 10 12l96 30c8 2 13 -2 12 -10z" />
    <glyph glyph-name="f_f_thorn.liga" unicode="ff&#xfe;" horiz-adv-x="1260" 
d="M950 705l-25 -149c-8 -48 -18 -78 -35 -109c-5 -12 2 -17 13 -9c37 34 81 57 136 57c118 0 182 -73 182 -194c0 -133 -71 -312 -274 -312c-33 0 -62 7 -87 19l-26 12l-38 -225c-1 -7 -5 -10 -12 -10h-90c-8 0 -11 4 -10 12l139 821h-151c-39 0 -71 -28 -79 -76l-10 -57
h111c8 0 11 -4 10 -12l-13 -77c-1 -7 -5 -10 -12 -10h-113l-63 -376c-1 -7 -5 -10 -12 -10h-89c-8 0 -11 4 -10 12l63 374h-218l-63 -376c-1 -7 -5 -10 -12 -10h-89c-8 0 -11 4 -10 12l63 374h-48c-8 0 -11 4 -10 12l13 77c1 7 5 10 12 10h50l12 73c18 109 89 170 192 170
c20 0 38 -3 60 -10l10 -4c7 -3 9 -8 6 -14l-34 -72c-3 -7 -8 -9 -15 -6l-2 1c-9 3 -20 4 -29 4c-40 0 -71 -31 -78 -77l-11 -65h218l11 65c18 111 90 167 199 167h258c8 0 11 -4 10 -12zM850 117l26 -12c20 -9 48 -15 74 -15c118 0 161 125 161 205c0 64 -31 100 -89 100
c-82 0 -138 -70 -155 -174z" />
    <glyph glyph-name="f_imacron.liga" unicode="f&#x12b;" horiz-adv-x="609" 
d="M143 485l13 73c18 108 87 170 189 170c17 0 32 -2 55 -10l19 -7c7 -3 9 -8 7 -14l-31 -73c-3 -7 -7 -9 -14 -7l-11 4c-10 4 -20 6 -29 6c-38 0 -68 -31 -75 -76l-11 -66h317c8 0 11 -4 10 -12l-78 -463c-1 -7 -5 -10 -12 -10h-90c-8 0 -11 4 -10 12l63 374h-217l-63 -376
c-1 -7 -5 -10 -12 -10h-90c-8 0 -11 4 -10 12l63 374h-48c-8 0 -11 4 -10 12l13 77c1 7 5 10 12 10h50zM470 679h169c8 0 11 -4 10 -12l-10 -56c-1 -7 -5 -10 -12 -10h-169c-8 0 -11 4 -10 12l10 56c1 7 5 10 12 10z" />
    <glyph glyph-name="t_imacron.liga" unicode="t&#x12b;" horiz-adv-x="661" 
d="M474 679h201c8 0 11 -4 10 -12l-10 -56c-1 -7 -5 -10 -12 -10h-201c-8 0 -11 4 -10 12l10 56c1 7 5 10 12 10zM255 485h350c8 0 11 -4 10 -12l-78 -463c-1 -7 -5 -10 -12 -10h-90c-8 0 -11 4 -10 12l63 374h-250l-41 -243c-6 -34 5 -53 30 -53c10 0 18 1 27 4
c7 2 12 0 14 -7l20 -67c2 -6 0 -11 -6 -14c-20 -10 -47 -17 -71 -17c-95 0 -142 57 -126 154l41 243h-48c-8 0 -11 4 -10 12l13 77c1 7 5 10 12 10h50l19 115c1 6 4 10 10 12l96 30c8 2 13 -2 12 -10z" />
    <glyph glyph-name="t_iogonek.liga" unicode="t&#x12f;" horiz-adv-x="642" 
d="M583 725c40 0 62 -21 62 -58c0 -50 -27 -77 -71 -77c-40 0 -62 22 -62 59c0 49 27 76 71 76zM255 485h350c8 0 11 -4 10 -12l-80 -473c-3 -19 -11 -31 -41 -55l-54 -44c-12 -11 -17 -18 -17 -31c0 -10 6 -16 19 -16c8 0 18 2 30 6l9 3c7 3 12 0 13 -8l10 -54
c1 -6 -1 -11 -8 -13l-18 -5c-16 -6 -33 -9 -51 -9c-57 0 -93 26 -93 72c0 32 15 59 47 85l42 34c22 18 23 31 9 35c-6 0 -8 4 -7 12l63 374h-250l-41 -243c-6 -34 5 -53 30 -53c10 0 18 1 27 4c7 2 12 0 14 -7l20 -67c2 -6 0 -11 -6 -14c-20 -10 -47 -17 -71 -17
c-95 0 -142 57 -126 154l41 243h-48c-8 0 -11 4 -10 12l13 77c1 7 5 10 12 10h50l19 115c1 6 4 10 10 12l96 30c8 2 13 -2 12 -10z" />
    <glyph glyph-name="f_iacute.liga" unicode="f&#xed;" horiz-adv-x="609" 
d="M143 485l13 73c18 108 87 170 189 170c17 0 32 -2 55 -10l19 -7c7 -3 9 -8 7 -14l-31 -73c-3 -7 -7 -9 -14 -7l-11 4c-10 4 -20 6 -29 6c-38 0 -68 -31 -75 -76l-11 -66h317c8 0 11 -4 10 -12l-78 -463c-1 -7 -5 -10 -12 -10h-90c-8 0 -11 4 -10 12l63 374h-217l-63 -376
c-1 -7 -5 -10 -12 -10h-90c-8 0 -11 4 -10 12l63 374h-48c-8 0 -11 4 -10 12l13 77c1 7 5 10 12 10h50zM662 704l-88 -130c-4 -5 -8 -7 -14 -7h-67c-8 0 -11 5 -8 13l63 129c3 5 7 8 13 8h94c9 0 12 -6 7 -13z" />
    <glyph glyph-name="f_lcaron.liga" unicode="f&#x13e;" horiz-adv-x="662" 
d="M485 618h-142c-39 0 -71 -28 -79 -76l-10 -57h111c8 0 11 -4 10 -12l-13 -77c-1 -7 -5 -10 -12 -10h-113l-63 -376c-1 -7 -5 -10 -12 -10h-89c-8 0 -11 4 -10 12l63 374h-48c-8 0 -11 4 -10 12l13 77c1 7 5 10 12 10h50l11 65c18 111 90 167 199 167h147
c8 0 11 -4 10 -12l-13 -77c-1 -7 -5 -10 -12 -10zM622 705l-99 -589c-3 -16 2 -26 14 -26c3 0 7 0 9 1c7 0 12 -2 13 -9l17 -70c1 -7 -1 -12 -7 -14c-15 -6 -33 -9 -48 -9c-83 0 -124 48 -110 128l99 590c1 7 5 10 12 10h90c8 0 11 -4 10 -12zM700 717h64c7 0 11 -4 10 -12
l-6 -31c-3 -23 -15 -54 -36 -86l-8 -14c-4 -5 -8 -7 -14 -7h-50c-8 0 -12 5 -8 13l8 19c11 23 17 46 22 71l6 37c1 7 5 10 12 10z" />
    <glyph glyph-name="t_iacute.liga" unicode="t&#xed;" horiz-adv-x="675" 
d="M695 704l-88 -130c-4 -5 -8 -7 -14 -7h-67c-8 0 -11 5 -8 13l63 129c3 5 7 8 13 8h94c9 0 12 -6 7 -13zM255 485h350c8 0 11 -4 10 -12l-78 -463c-1 -7 -5 -10 -12 -10h-90c-8 0 -11 4 -10 12l63 374h-250l-41 -243c-6 -34 5 -53 30 -53c10 0 18 1 27 4c7 2 12 0 14 -7
l20 -67c2 -6 0 -11 -6 -14c-20 -10 -47 -17 -71 -17c-95 0 -142 57 -126 154l41 243h-48c-8 0 -11 4 -10 12l13 77c1 7 5 10 12 10h50l19 115c1 6 4 10 10 12l96 30c8 2 13 -2 12 -10z" />
    <glyph glyph-name="t_igrave.liga" unicode="t&#xec;" horiz-adv-x="642" 
d="M605 567h-69c-6 0 -10 3 -12 9l-45 128c-2 8 1 13 9 13h97c7 0 10 -3 11 -10l19 -128c1 -8 -2 -12 -10 -12zM255 485h350c8 0 11 -4 10 -12l-78 -463c-1 -7 -5 -10 -12 -10h-90c-8 0 -11 4 -10 12l63 374h-250l-41 -243c-6 -34 5 -53 30 -53c10 0 18 1 27 4
c7 2 12 0 14 -7l20 -67c2 -6 0 -11 -6 -14c-20 -10 -47 -17 -71 -17c-95 0 -142 57 -126 154l41 243h-48c-8 0 -11 4 -10 12l13 77c1 7 5 10 12 10h50l19 115c1 6 4 10 10 12l96 30c8 2 13 -2 12 -10z" />
    <glyph glyph-name="tcaron_j.liga" unicode="&#x165;j" horiz-adv-x="643" 
d="M584 726c40 0 62 -22 62 -59c0 -50 -27 -78 -71 -78c-39 0 -62 22 -62 59c0 50 28 78 71 78zM399 588l-8 -14c-4 -5 -8 -7 -14 -7h-50c-8 0 -12 5 -8 13l8 19c11 23 17 46 22 71l6 37c1 7 5 10 12 10h64c7 0 11 -4 10 -12l-6 -31c-3 -23 -15 -54 -36 -86zM255 485h351
c8 0 11 -4 10 -12l-84 -498c-14 -80 -53 -142 -140 -183l-31 -16c-6 -3 -12 -1 -14 6l-31 74c-3 7 -1 12 5 15l25 14c43 20 68 55 75 98l68 403h-251l-41 -243c-6 -34 5 -53 30 -53c10 0 18 1 27 4c7 2 12 0 14 -7l20 -67c2 -6 0 -11 -6 -14c-20 -10 -47 -17 -71 -17
c-95 0 -142 57 -126 154l41 243h-48c-8 0 -11 4 -10 12l13 77c1 7 5 10 12 10h50l19 115c1 6 4 10 10 12l96 30c8 2 13 -2 12 -10z" />
    <glyph glyph-name="tcaron_t.liga" unicode="&#x165;t" horiz-adv-x="732" 
d="M367 717h64c7 0 11 -4 10 -12l-6 -31c-3 -23 -15 -54 -36 -86l-8 -14c-4 -5 -8 -7 -14 -7h-50c-8 0 -12 5 -8 13l8 19c11 23 17 46 22 71l6 37c1 7 5 10 12 10zM592 386l-41 -243c-6 -34 5 -53 30 -53c10 0 18 1 27 4c7 2 12 0 14 -7l20 -67c2 -6 0 -11 -6 -14
c-20 -10 -47 -17 -71 -17c-95 0 -142 57 -126 154l41 243h-242l-41 -243c-6 -34 5 -53 30 -53c10 0 18 1 27 4c7 2 12 0 14 -7l20 -67c2 -6 0 -11 -6 -14c-20 -10 -47 -17 -71 -17c-95 0 -142 57 -126 154l41 243h-48c-8 0 -11 4 -10 12l13 77c1 7 5 10 12 10h50l19 115
c1 6 4 10 10 12l96 30c8 2 13 -2 12 -10l-25 -147h242l19 115c1 6 4 10 10 12l96 30c8 2 13 -2 12 -10l-25 -147h111c8 0 11 -4 10 -12l-13 -77c-1 -7 -5 -10 -12 -10h-113z" />
    <glyph glyph-name="f_f_t_i.liga" unicode="ffti" horiz-adv-x="1296" 
d="M909 485h350c8 0 11 -4 10 -12l-78 -463c-1 -7 -5 -10 -12 -10h-90c-8 0 -11 4 -10 12l63 374h-250l-41 -243c-6 -34 5 -53 30 -53c10 0 18 1 27 4c7 2 12 0 14 -7l20 -67c2 -6 0 -11 -6 -14c-20 -10 -47 -17 -71 -17c-95 0 -142 57 -126 154l41 243h-214l-63 -376
c-1 -7 -5 -10 -12 -10h-89c-8 0 -11 4 -10 12l63 374h-218l-63 -376c-1 -7 -5 -10 -12 -10h-89c-8 0 -11 4 -10 12l63 374h-48c-8 0 -11 4 -10 12l13 77c1 7 5 10 12 10h50l12 73c18 109 89 170 192 170c20 0 38 -3 60 -10l10 -4c7 -3 9 -8 6 -14l-34 -72
c-3 -7 -8 -9 -15 -6l-2 1c-9 3 -20 4 -29 4c-40 0 -71 -31 -78 -77l-11 -65h218l12 73c18 109 89 170 192 170c20 0 38 -3 60 -10l10 -4c7 -3 9 -8 6 -14l-34 -72c-3 -7 -8 -9 -15 -6l-2 1c-9 3 -20 4 -29 4c-40 0 -71 -31 -78 -77l-11 -65h214l19 115c1 6 4 10 10 12l96 30
c8 2 13 -2 12 -10zM1237 725c40 0 62 -21 62 -58c0 -50 -27 -77 -71 -77c-40 0 -62 22 -62 59c0 49 27 76 71 76z" />
    <glyph glyph-name="f_t_t_i.liga" unicode="ftti" horiz-adv-x="1322" 
d="M935 485h350c8 0 11 -4 10 -12l-78 -463c-1 -7 -5 -10 -12 -10h-90c-8 0 -11 4 -10 12l63 374h-250l-41 -243c-6 -34 5 -53 30 -53c10 0 18 1 27 4c7 2 12 0 14 -7l20 -67c2 -6 0 -11 -6 -14c-20 -10 -47 -17 -71 -17c-95 0 -142 57 -126 154l41 243h-242l-41 -243
c-6 -34 5 -53 30 -53c10 0 18 1 27 4c7 2 12 0 14 -7l20 -67c2 -6 0 -11 -6 -14c-20 -10 -47 -17 -71 -17c-95 0 -142 57 -126 154l41 243h-215l-63 -376c-1 -7 -5 -10 -12 -10h-89c-8 0 -11 4 -10 12l63 374h-48c-8 0 -11 4 -10 12l13 77c1 7 5 10 12 10h50l12 73
c18 109 89 170 192 170c20 0 38 -3 60 -10l10 -4c7 -3 9 -8 6 -14l-34 -72c-3 -7 -8 -9 -15 -6l-2 1c-9 3 -20 4 -29 4c-40 0 -71 -31 -78 -77l-11 -65h215l19 115c1 6 4 10 10 12l96 30c8 2 13 -2 12 -10l-25 -147h242l19 115c1 6 4 10 10 12l96 30c8 2 13 -2 12 -10z
M1263 725c40 0 62 -21 62 -58c0 -50 -27 -77 -71 -77c-40 0 -62 22 -62 59c0 49 27 76 71 76z" />
    <glyph glyph-name="f_thorn.liga" unicode="f&#xfe;" horiz-adv-x="931" 
d="M510 705l-13 -77c-1 -7 -5 -10 -12 -10h-142c-39 0 -71 -28 -79 -76l-10 -57h111c8 0 11 -4 10 -12l-13 -77c-1 -7 -5 -10 -12 -10h-113l-63 -376c-1 -7 -5 -10 -12 -10h-89c-8 0 -11 4 -10 12l63 374h-48c-8 0 -11 4 -10 12l13 77c1 7 5 10 12 10h50l11 65
c18 111 90 167 199 167h147c8 0 11 -4 10 -12zM622 705l-25 -149c-8 -48 -18 -78 -35 -109c-5 -12 2 -17 13 -9c37 34 81 57 136 57c118 0 182 -73 182 -194c0 -133 -71 -312 -274 -312c-33 0 -62 7 -87 19l-26 12l-38 -225c-1 -7 -5 -10 -12 -10h-90c-8 0 -11 4 -10 12
l154 910c1 7 5 10 12 10h90c8 0 11 -4 10 -12zM522 117l26 -12c20 -9 48 -15 74 -15c118 0 161 125 161 205c0 64 -31 100 -89 100c-82 0 -138 -70 -155 -174z" />
    <glyph glyph-name="f_f_b.liga" unicode="ffb" horiz-adv-x="1260" 
d="M950 705l-25 -149c-8 -48 -18 -78 -35 -108c-5 -12 1 -18 12 -11c36 34 82 58 137 58c118 0 182 -73 182 -194c0 -133 -71 -312 -275 -312c-52 0 -95 10 -135 28l-74 33c-6 3 -8 7 -7 14l93 554h-151c-39 0 -71 -28 -79 -76l-10 -57h111c8 0 11 -4 10 -12l-13 -77
c-1 -7 -5 -10 -12 -10h-113l-63 -376c-1 -7 -5 -10 -12 -10h-89c-8 0 -11 4 -10 12l63 374h-218l-63 -376c-1 -7 -5 -10 -12 -10h-89c-8 0 -11 4 -10 12l63 374h-48c-8 0 -11 4 -10 12l13 77c1 7 5 10 12 10h50l12 73c18 109 89 170 192 170c20 0 38 -3 60 -10l10 -4
c7 -3 9 -8 6 -14l-34 -72c-3 -7 -8 -9 -15 -6l-2 1c-9 3 -20 4 -29 4c-40 0 -71 -31 -78 -77l-11 -65h218l11 65c18 111 90 167 199 167h258c8 0 11 -4 10 -12zM850 116l24 -10c22 -10 48 -16 75 -16c119 0 162 125 162 205c0 64 -31 100 -89 100c-82 0 -138 -71 -155 -175z
" />
    <glyph glyph-name="f_f_h.liga" unicode="ffh" horiz-adv-x="1250" 
d="M472 485l11 65c18 111 90 167 199 167h147c8 0 11 -4 10 -12l-13 -77c-1 -7 -5 -10 -12 -10h-142c-39 0 -71 -28 -79 -76l-10 -57h111c8 0 11 -4 10 -12l-13 -77c-1 -7 -5 -10 -12 -10h-113l-63 -376c-1 -7 -5 -10 -12 -10h-89c-8 0 -11 4 -10 12l63 374h-218l-63 -376
c-1 -7 -5 -10 -12 -10h-89c-8 0 -11 4 -10 12l63 374h-48c-8 0 -11 4 -10 12l13 77c1 7 5 10 12 10h50l12 73c18 109 89 170 192 170c20 0 38 -3 60 -10l10 -4c7 -3 9 -8 6 -14l-34 -72c-3 -7 -8 -9 -15 -6l-2 1c-9 3 -20 4 -29 4c-40 0 -71 -31 -78 -77l-11 -65h218z
M951 705l-25 -149c-8 -48 -17 -76 -36 -112c-4 -9 3 -17 13 -8c39 37 84 59 138 59c117 0 178 -75 158 -193l-50 -292c-1 -7 -5 -10 -12 -10h-90c-8 0 -11 4 -10 12l48 286c11 64 -13 97 -63 97c-85 0 -134 -68 -149 -155l-39 -230c-1 -7 -5 -10 -12 -10h-90
c-8 0 -11 4 -10 12l117 695c1 7 5 10 12 10h90c8 0 11 -4 10 -12z" />
    <glyph glyph-name="f_f_i.liga" unicode="ffi" horiz-adv-x="942" 
d="M584 485h318c8 0 11 -4 10 -12l-78 -463c-1 -7 -5 -10 -12 -10h-90c-8 0 -11 4 -10 12l63 374h-218l-63 -376c-1 -7 -5 -10 -12 -10h-90c-8 0 -11 4 -10 12l63 374h-218l-63 -376c-1 -7 -5 -10 -12 -10h-89c-8 0 -11 4 -10 12l63 374h-48c-8 0 -11 4 -10 12l13 77
c1 7 5 10 12 10h50l12 73c18 109 89 170 192 170c20 0 38 -3 60 -10l10 -4c7 -3 9 -8 6 -14l-34 -72c-3 -7 -8 -9 -15 -6l-2 1c-9 3 -20 4 -29 4c-40 0 -71 -31 -78 -77l-11 -65h218l13 73c18 108 88 170 190 170c18 0 35 -4 56 -11l18 -6c7 -3 9 -8 6 -15l-32 -72
c-3 -7 -7 -9 -14 -6l-9 3c-10 4 -21 6 -29 6c-38 0 -68 -31 -76 -76zM887 726c45 0 67 -28 59 -73c-6 -39 -30 -61 -68 -61c-44 0 -66 29 -58 74c6 39 30 60 67 60z" />
    <glyph glyph-name="f_f_j.liga" unicode="ffj" horiz-adv-x="942" 
d="M584 485h318c8 0 11 -4 10 -12l-84 -497c-14 -81 -53 -143 -140 -184l-31 -16c-6 -3 -12 -1 -14 6l-30 74c-3 7 -1 12 5 15l25 14c42 21 67 54 75 97l67 404h-218l-63 -376c-1 -7 -5 -10 -12 -10h-90c-8 0 -11 4 -10 12l63 374h-218l-63 -376c-1 -7 -5 -10 -12 -10h-89
c-8 0 -11 4 -10 12l63 374h-48c-8 0 -11 4 -10 12l13 77c1 7 5 10 12 10h50l12 73c18 109 89 170 192 170c20 0 38 -3 60 -10l10 -4c7 -3 9 -8 6 -14l-34 -72c-3 -7 -8 -9 -15 -6l-2 1c-9 3 -20 4 -29 4c-40 0 -71 -31 -78 -77l-11 -65h218l13 73c18 108 88 170 189 170
c17 0 33 -3 55 -10l20 -7c7 -3 9 -8 6 -14l-32 -73c-3 -7 -7 -9 -14 -6l-10 3c-10 4 -19 6 -29 6c-38 0 -67 -31 -75 -76zM887 726c45 0 67 -28 59 -73c-6 -39 -30 -61 -68 -61c-44 0 -66 29 -58 74c6 39 30 60 67 60z" />
    <glyph glyph-name="f_f_k.liga" unicode="ffk" horiz-adv-x="1239" 
d="M1222 472l-112 -142c-31 -38 -68 -65 -103 -77c-8 -3 -8 -7 -2 -10c33 -14 59 -42 78 -80l66 -150c4 -8 0 -13 -8 -13h-93c-6 0 -10 3 -13 8l-52 110c-20 42 -47 78 -103 78h-15l-30 -186c-1 -7 -5 -10 -12 -10h-90c-8 0 -11 4 -10 12l75 455l26 151h-152
c-39 0 -71 -28 -79 -76l-10 -57h111c8 0 11 -4 10 -12l-13 -77c-1 -7 -5 -10 -12 -10h-113l-63 -376c-1 -7 -5 -10 -12 -10h-89c-8 0 -11 4 -10 12l63 374h-218l-63 -376c-1 -7 -5 -10 -12 -10h-89c-8 0 -11 4 -10 12l63 374h-48c-8 0 -11 4 -10 12l13 77c1 7 5 10 12 10h50
l12 73c18 109 89 170 192 170c20 0 38 -3 60 -10l10 -4c7 -3 9 -8 6 -14l-34 -72c-3 -7 -8 -9 -15 -6l-2 1c-9 3 -20 4 -29 4c-40 0 -71 -31 -78 -77l-11 -65h218l11 65c18 111 90 167 199 167h259c8 0 11 -4 10 -12l-37 -220l-31 -190h14c44 0 84 42 117 82l83 102
c3 4 7 6 13 6h106c9 0 12 -6 6 -13z" />
    <glyph glyph-name="f_f_l.liga" unicode="ffl" horiz-adv-x="980" 
d="M472 485l11 65c18 111 90 167 199 167h147c8 0 11 -4 10 -12l-13 -77c-1 -7 -5 -10 -12 -10h-142c-39 0 -71 -28 -79 -76l-10 -57h111c8 0 11 -4 10 -12l-13 -77c-1 -7 -5 -10 -12 -10h-113l-63 -376c-1 -7 -5 -10 -12 -10h-89c-8 0 -11 4 -10 12l63 374h-218l-63 -376
c-1 -7 -5 -10 -12 -10h-89c-8 0 -11 4 -10 12l63 374h-48c-8 0 -11 4 -10 12l13 77c1 7 5 10 12 10h50l12 73c18 109 89 170 192 170c20 0 38 -3 60 -10l10 -4c7 -3 9 -8 6 -14l-34 -72c-3 -7 -8 -9 -15 -6l-2 1c-9 3 -20 4 -29 4c-40 0 -71 -31 -78 -77l-11 -65h218z
M951 705l-99 -589c-3 -16 2 -26 14 -26c3 0 7 0 9 1c7 0 12 -2 13 -9l17 -70c1 -7 -1 -12 -7 -14c-15 -6 -33 -9 -48 -9c-83 0 -124 48 -110 128l99 590c1 7 5 10 12 10h90c8 0 11 -4 10 -12z" />
    <glyph glyph-name="f_f_t.liga" unicode="fft" horiz-adv-x="1033" 
d="M893 386l-41 -243c-6 -34 5 -53 30 -53c10 0 18 1 27 4c7 2 12 0 14 -7l20 -67c2 -6 0 -11 -6 -14c-20 -10 -47 -17 -71 -17c-95 0 -142 57 -126 154l41 243h-215l-63 -376c-1 -7 -5 -10 -12 -10h-89c-8 0 -11 4 -10 12l63 374h-218l-63 -376c-1 -7 -5 -10 -12 -10h-89
c-8 0 -11 4 -10 12l63 374h-48c-8 0 -11 4 -10 12l13 77c1 7 5 10 12 10h50l12 73c18 109 89 170 192 170c20 0 38 -3 60 -10l10 -4c7 -3 9 -8 6 -14l-34 -72c-3 -7 -8 -9 -15 -6l-2 1c-9 3 -20 4 -29 4c-40 0 -71 -31 -78 -77l-11 -65h218l12 73c18 109 89 170 192 170
c20 0 38 -3 60 -10l10 -4c7 -3 9 -8 6 -14l-34 -72c-3 -7 -8 -9 -15 -6l-2 1c-9 3 -20 4 -29 4c-40 0 -71 -31 -78 -77l-11 -65h215l19 115c1 6 4 10 10 12l96 30c8 2 13 -2 12 -10l-25 -147h111c8 0 11 -4 10 -12l-13 -77c-1 -7 -5 -10 -12 -10h-113z" />
    <glyph glyph-name="f_t_i.liga" unicode="fti" horiz-adv-x="968" 
d="M581 485h350c8 0 11 -4 10 -12l-78 -463c-1 -7 -5 -10 -12 -10h-90c-8 0 -11 4 -10 12l63 374h-250l-41 -243c-6 -34 5 -53 30 -53c10 0 18 1 27 4c7 2 12 0 14 -7l20 -67c2 -6 0 -11 -6 -14c-20 -10 -47 -17 -71 -17c-95 0 -142 57 -126 154l41 243h-215l-63 -376
c-1 -7 -5 -10 -12 -10h-89c-8 0 -11 4 -10 12l63 374h-48c-8 0 -11 4 -10 12l13 77c1 7 5 10 12 10h50l12 73c18 109 89 170 192 170c20 0 38 -3 60 -10l10 -4c7 -3 9 -8 6 -14l-34 -72c-3 -7 -8 -9 -15 -6l-2 1c-9 3 -20 4 -29 4c-40 0 -71 -31 -78 -77l-11 -65h215l19 115
c1 6 4 10 10 12l96 30c8 2 13 -2 12 -10zM909 725c40 0 62 -21 62 -58c0 -50 -27 -77 -71 -77c-40 0 -62 22 -62 59c0 49 27 76 71 76z" />
    <glyph glyph-name="f_t_t.liga" unicode="ftt" horiz-adv-x="1058" 
d="M918 386l-41 -243c-6 -34 5 -53 30 -53c10 0 18 1 27 4c7 2 12 0 14 -7l20 -67c2 -6 0 -11 -6 -14c-20 -10 -47 -17 -71 -17c-95 0 -142 57 -126 154l41 243h-242l-41 -243c-6 -34 5 -53 30 -53c10 0 18 1 27 4c7 2 12 0 14 -7l20 -67c2 -6 0 -11 -6 -14
c-20 -10 -47 -17 -71 -17c-95 0 -142 57 -126 154l41 243h-215l-63 -376c-1 -7 -5 -10 -12 -10h-89c-8 0 -11 4 -10 12l63 374h-48c-8 0 -11 4 -10 12l13 77c1 7 5 10 12 10h50l12 73c18 109 89 170 192 170c20 0 38 -3 60 -10l10 -4c7 -3 9 -8 6 -14l-34 -72
c-3 -7 -8 -9 -15 -6l-2 1c-9 3 -20 4 -29 4c-40 0 -71 -31 -78 -77l-11 -65h215l19 115c1 6 4 10 10 12l96 30c8 2 13 -2 12 -10l-25 -147h242l19 115c1 6 4 10 10 12l96 30c8 2 13 -2 12 -10l-25 -147h111c8 0 11 -4 10 -12l-13 -77c-1 -7 -5 -10 -12 -10h-113z" />
    <glyph glyph-name="t_t_i.liga" unicode="tti" horiz-adv-x="996" 
d="M937 725c40 0 62 -21 62 -58c0 -50 -27 -77 -71 -77c-40 0 -62 22 -62 59c0 49 27 76 71 76zM609 485h350c8 0 11 -4 10 -12l-78 -463c-1 -7 -5 -10 -12 -10h-90c-8 0 -11 4 -10 12l63 374h-250l-41 -243c-6 -34 5 -53 30 -53c10 0 18 1 27 4c7 2 12 0 14 -7l20 -67
c2 -6 0 -11 -6 -14c-20 -10 -47 -17 -71 -17c-95 0 -142 57 -126 154l41 243h-242l-41 -243c-6 -34 5 -53 30 -53c10 0 18 1 27 4c7 2 12 0 14 -7l20 -67c2 -6 0 -11 -6 -14c-20 -10 -47 -17 -71 -17c-95 0 -142 57 -126 154l41 243h-48c-8 0 -11 4 -10 12l13 77
c1 7 5 10 12 10h50l19 115c1 6 4 10 10 12l96 30c8 2 13 -2 12 -10l-25 -147h242l19 115c1 6 4 10 10 12l96 30c8 2 13 -2 12 -10z" />
    <glyph glyph-name="t_t_j.liga" unicode="ttj" horiz-adv-x="997" 
d="M938 726c40 0 62 -22 62 -59c0 -50 -27 -78 -71 -78c-39 0 -62 22 -62 59c0 50 28 78 71 78zM609 485h351c8 0 11 -4 10 -12l-84 -498c-14 -80 -53 -142 -140 -183l-31 -16c-6 -3 -12 -1 -14 6l-31 74c-3 7 -1 12 5 15l25 14c43 20 68 55 75 98l68 403h-251l-41 -243
c-6 -34 5 -53 30 -53c10 0 18 1 27 4c7 2 12 0 14 -7l20 -67c2 -6 0 -11 -6 -14c-20 -10 -47 -17 -71 -17c-95 0 -142 57 -126 154l41 243h-242l-41 -243c-6 -34 5 -53 30 -53c10 0 18 1 27 4c7 2 12 0 14 -7l20 -67c2 -6 0 -11 -6 -14c-20 -10 -47 -17 -71 -17
c-95 0 -142 57 -126 154l41 243h-48c-8 0 -11 4 -10 12l13 77c1 7 5 10 12 10h50l19 115c1 6 4 10 10 12l96 30c8 2 13 -2 12 -10l-25 -147h242l19 115c1 6 4 10 10 12l96 30c8 2 13 -2 12 -10z" />
    <glyph glyph-name="f_b.liga" unicode="fb" horiz-adv-x="931" 
d="M510 705l-13 -77c-1 -7 -5 -10 -12 -10h-142c-39 0 -71 -28 -79 -76l-10 -57h111c8 0 11 -4 10 -12l-13 -77c-1 -7 -5 -10 -12 -10h-113l-63 -376c-1 -7 -5 -10 -12 -10h-89c-8 0 -11 4 -10 12l63 374h-48c-8 0 -11 4 -10 12l13 77c1 7 5 10 12 10h50l11 65
c18 111 90 167 199 167h147c8 0 11 -4 10 -12zM622 705l-25 -149c-8 -48 -18 -78 -35 -108c-5 -12 1 -18 12 -11c36 34 82 58 137 58c118 0 182 -73 182 -194c0 -133 -71 -312 -275 -312c-52 0 -95 10 -135 28l-74 33c-6 3 -8 7 -7 14l108 643c1 7 5 10 12 10h90
c8 0 11 -4 10 -12zM522 116l24 -10c22 -10 48 -16 75 -16c119 0 162 125 162 205c0 64 -31 100 -89 100c-82 0 -138 -71 -155 -175z" />
    <glyph glyph-name="f_f.liga" unicode="ff" horiz-adv-x="703" 
d="M748 715l18 -6c7 -3 9 -8 6 -15l-35 -72c-3 -6 -8 -8 -15 -5l-12 4c-13 4 -21 6 -33 6c-42 0 -75 -33 -83 -81l-10 -61h111c8 0 11 -4 10 -12l-13 -77c-1 -7 -5 -10 -12 -10h-113l-63 -376c-1 -7 -5 -10 -12 -10h-90c-8 0 -11 4 -10 12l63 374h-218l-63 -376
c-1 -7 -5 -10 -12 -10h-89c-8 0 -11 4 -10 12l63 374h-48c-8 0 -11 4 -10 12l13 77c1 7 5 10 12 10h50l12 73c18 109 89 170 192 170c20 0 38 -3 60 -10l10 -4c7 -3 9 -8 6 -14l-34 -72c-3 -7 -8 -9 -15 -6l-2 1c-9 3 -20 4 -29 4c-40 0 -71 -31 -78 -77l-11 -65h218l11 69
c19 111 92 174 198 174c25 0 41 -4 67 -13z" />
    <glyph glyph-name="f_h.liga" unicode="fh" horiz-adv-x="921" 
d="M510 705l-13 -77c-1 -7 -5 -10 -12 -10h-142c-39 0 -71 -28 -79 -76l-10 -57h111c8 0 11 -4 10 -12l-13 -77c-1 -7 -5 -10 -12 -10h-113l-63 -376c-1 -7 -5 -10 -12 -10h-89c-8 0 -11 4 -10 12l63 374h-48c-8 0 -11 4 -10 12l13 77c1 7 5 10 12 10h50l11 65
c18 111 90 167 199 167h147c8 0 11 -4 10 -12zM622 705l-25 -149c-8 -48 -17 -76 -36 -112c-4 -9 3 -17 13 -8c39 37 84 59 138 59c117 0 178 -75 158 -193l-50 -292c-1 -7 -5 -10 -12 -10h-90c-8 0 -11 4 -10 12l48 286c11 64 -13 97 -63 97c-85 0 -134 -68 -149 -155
l-39 -230c-1 -7 -5 -10 -12 -10h-90c-8 0 -11 4 -10 12l117 695c1 7 5 10 12 10h90c8 0 11 -4 10 -12z" />
    <glyph glyph-name="f_i.liga" unicode="fi" horiz-adv-x="613" 
d="M143 485l13 73c18 108 88 170 190 170c18 0 35 -4 56 -11l18 -6c7 -3 9 -8 6 -15l-32 -72c-3 -7 -7 -9 -14 -6l-9 3c-10 4 -21 6 -29 6c-38 0 -68 -31 -76 -76l-11 -66h318c8 0 11 -4 10 -12l-78 -463c-1 -7 -5 -10 -12 -10h-90c-8 0 -11 4 -10 12l63 374h-218l-63 -376
c-1 -7 -5 -10 -12 -10h-90c-8 0 -11 4 -10 12l63 374h-48c-8 0 -11 4 -10 12l13 77c1 7 5 10 12 10h50zM558 726c45 0 67 -28 59 -73c-6 -39 -30 -61 -68 -61c-44 0 -66 29 -58 74c6 39 30 60 67 60z" />
    <glyph glyph-name="f_j.liga" unicode="fj" horiz-adv-x="613" 
d="M143 485l13 73c18 108 88 170 189 170c17 0 33 -3 55 -10l20 -7c7 -3 9 -8 6 -14l-32 -73c-3 -7 -7 -9 -14 -6l-10 3c-10 4 -19 6 -29 6c-38 0 -67 -31 -75 -76l-11 -66h318c8 0 11 -4 10 -12l-84 -497c-14 -81 -53 -143 -140 -184l-31 -16c-6 -3 -12 -1 -14 6l-30 74
c-3 7 -1 12 5 15l25 14c42 21 67 54 75 97l67 404h-218l-63 -376c-1 -7 -5 -10 -12 -10h-90c-8 0 -11 4 -10 12l63 374h-48c-8 0 -11 4 -10 12l13 77c1 7 5 10 12 10h50zM558 726c45 0 67 -28 59 -73c-6 -39 -30 -61 -68 -61c-44 0 -66 29 -58 74c6 39 30 60 67 60z" />
    <glyph glyph-name="f_k.liga" unicode="fk" horiz-adv-x="910" 
d="M893 472l-112 -142c-31 -38 -68 -65 -103 -77c-8 -3 -8 -7 -2 -10c33 -14 59 -42 78 -80l66 -150c4 -8 0 -13 -8 -13h-93c-6 0 -10 3 -13 8l-52 110c-20 42 -47 78 -103 78h-15l-30 -186c-1 -7 -5 -10 -12 -10h-90c-8 0 -11 4 -10 12l75 455l26 151h-152
c-39 0 -71 -28 -79 -76l-10 -57h111c8 0 11 -4 10 -12l-13 -77c-1 -7 -5 -10 -12 -10h-113l-63 -376c-1 -7 -5 -10 -12 -10h-89c-8 0 -11 4 -10 12l63 374h-48c-8 0 -11 4 -10 12l13 77c1 7 5 10 12 10h50l11 65c18 111 90 167 199 167h259c8 0 11 -4 10 -12l-37 -220
l-31 -190h14c44 0 84 42 117 82l83 102c3 4 7 6 13 6h106c9 0 12 -6 6 -13z" />
    <glyph glyph-name="f_l.liga" unicode="fl" horiz-adv-x="651" 
d="M510 705l-13 -77c-1 -7 -5 -10 -12 -10h-142c-39 0 -71 -28 -79 -76l-10 -57h111c8 0 11 -4 10 -12l-13 -77c-1 -7 -5 -10 -12 -10h-113l-63 -376c-1 -7 -5 -10 -12 -10h-89c-8 0 -11 4 -10 12l63 374h-48c-8 0 -11 4 -10 12l13 77c1 7 5 10 12 10h50l11 65
c18 111 90 167 199 167h147c8 0 11 -4 10 -12zM622 705l-99 -589c-3 -16 2 -26 14 -26c3 0 7 0 9 1c7 0 12 -2 13 -9l17 -70c1 -7 -1 -12 -7 -14c-15 -6 -33 -9 -48 -9c-83 0 -124 48 -110 128l99 590c1 7 5 10 12 10h90c8 0 11 -4 10 -12z" />
    <glyph glyph-name="f_t.liga" unicode="ft" horiz-adv-x="704" 
d="M564 386l-41 -243c-6 -34 5 -53 30 -53c10 0 18 1 27 4c7 2 12 0 14 -7l20 -67c2 -6 0 -11 -6 -14c-20 -10 -47 -17 -71 -17c-95 0 -142 57 -126 154l41 243h-215l-63 -376c-1 -7 -5 -10 -12 -10h-89c-8 0 -11 4 -10 12l63 374h-48c-8 0 -11 4 -10 12l13 77
c1 7 5 10 12 10h50l12 73c18 109 89 170 192 170c20 0 38 -3 60 -10l10 -4c7 -3 9 -8 6 -14l-34 -72c-3 -7 -8 -9 -15 -6l-2 1c-9 3 -20 4 -29 4c-40 0 -71 -31 -78 -77l-11 -65h215l19 115c1 6 4 10 10 12l96 30c8 2 13 -2 12 -10l-25 -147h111c8 0 11 -4 10 -12l-13 -77
c-1 -7 -5 -10 -12 -10h-113z" />
    <glyph glyph-name="t_i.liga" unicode="ti" horiz-adv-x="642" 
d="M583 725c40 0 62 -21 62 -58c0 -50 -27 -77 -71 -77c-40 0 -62 22 -62 59c0 49 27 76 71 76zM255 485h350c8 0 11 -4 10 -12l-78 -463c-1 -7 -5 -10 -12 -10h-90c-8 0 -11 4 -10 12l63 374h-250l-41 -243c-6 -34 5 -53 30 -53c10 0 18 1 27 4c7 2 12 0 14 -7l20 -67
c2 -6 0 -11 -6 -14c-20 -10 -47 -17 -71 -17c-95 0 -142 57 -126 154l41 243h-48c-8 0 -11 4 -10 12l13 77c1 7 5 10 12 10h50l19 115c1 6 4 10 10 12l96 30c8 2 13 -2 12 -10z" />
    <glyph glyph-name="t_j.liga" unicode="tj" horiz-adv-x="643" 
d="M584 726c40 0 62 -22 62 -59c0 -50 -27 -78 -71 -78c-39 0 -62 22 -62 59c0 50 28 78 71 78zM255 485h351c8 0 11 -4 10 -12l-84 -498c-14 -80 -53 -142 -140 -183l-31 -16c-6 -3 -12 -1 -14 6l-31 74c-3 7 -1 12 5 15l25 14c43 20 68 55 75 98l68 403h-251l-41 -243
c-6 -34 5 -53 30 -53c10 0 18 1 27 4c7 2 12 0 14 -7l20 -67c2 -6 0 -11 -6 -14c-20 -10 -47 -17 -71 -17c-95 0 -142 57 -126 154l41 243h-48c-8 0 -11 4 -10 12l13 77c1 7 5 10 12 10h50l19 115c1 6 4 10 10 12l96 30c8 2 13 -2 12 -10z" />
    <glyph glyph-name="t_t.liga" unicode="tt" horiz-adv-x="732" 
d="M592 386l-41 -243c-6 -34 5 -53 30 -53c10 0 18 1 27 4c7 2 12 0 14 -7l20 -67c2 -6 0 -11 -6 -14c-20 -10 -47 -17 -71 -17c-95 0 -142 57 -126 154l41 243h-242l-41 -243c-6 -34 5 -53 30 -53c10 0 18 1 27 4c7 2 12 0 14 -7l20 -67c2 -6 0 -11 -6 -14
c-20 -10 -47 -17 -71 -17c-95 0 -142 57 -126 154l41 243h-48c-8 0 -11 4 -10 12l13 77c1 7 5 10 12 10h50l19 115c1 6 4 10 10 12l96 30c8 2 13 -2 12 -10l-25 -147h242l19 115c1 6 4 10 10 12l96 30c8 2 13 -2 12 -10l-25 -147h111c8 0 11 -4 10 -12l-13 -77
c-1 -7 -5 -10 -12 -10h-113z" />
    <glyph glyph-name="uni04070407.liga" unicode="&#x407;&#x407;" horiz-adv-x="536" 
d="M197 900c37 0 58 -17 58 -48c0 -33 -19 -75 -77 -75c-39 0 -58 16 -58 48c0 35 17 75 77 75zM382 900c37 0 58 -17 58 -48c0 -33 -19 -75 -77 -75c-39 0 -58 16 -58 48c0 35 17 75 77 75zM571 900c37 0 58 -17 58 -48c0 -33 -19 -75 -77 -75c-39 0 -58 16 -58 48
c0 35 17 75 77 75zM38 12l114 677c1 7 5 10 12 10h92c8 0 11 -4 10 -12l-114 -677c-1 -7 -5 -10 -12 -10h-92c-8 0 -11 4 -10 12zM306 12l114 677c1 7 5 10 12 10h92c8 0 11 -4 10 -12l-114 -677c-1 -7 -5 -10 -12 -10h-92c-8 0 -11 4 -10 12z" />
    <glyph glyph-name="uni04570457.liga" unicode="&#x457;&#x457;" horiz-adv-x="545" 
d="M176 727c36 0 56 -21 56 -56c0 -36 -17 -72 -65 -72c-37 0 -58 21 -58 56c0 46 25 72 67 72zM346 727c35 0 56 -21 56 -56c0 -36 -18 -72 -66 -72c-36 0 -57 20 -57 55c0 46 24 73 67 73zM517 727c36 0 56 -21 56 -56c0 -36 -17 -72 -65 -72c-37 0 -58 21 -58 56
c0 46 25 72 67 72zM130 386h-48c-8 0 -11 4 -10 12l13 77c1 7 5 10 12 10h150c8 0 11 -4 10 -12l-78 -463c-1 -7 -5 -10 -12 -10h-90c-8 0 -11 4 -10 12zM399 386h-48c-8 0 -11 4 -10 12l13 77c1 7 5 10 12 10h150c8 0 11 -4 10 -12l-78 -463c-1 -7 -5 -10 -12 -10h-90
c-8 0 -11 4 -10 12z" />
    <glyph glyph-name=".notdef" horiz-adv-x="440" 
 />
    <glyph glyph-name="A" unicode="A" horiz-adv-x="722" 
d="M506 134h-315l-71 -126c-3 -6 -7 -8 -13 -8h-100c-9 0 -12 6 -8 13l250 439c43 80 85 159 118 239c3 5 7 8 13 8h123c7 0 11 -4 12 -11c6 -78 20 -157 35 -236l95 -440c2 -7 -2 -12 -9 -12h-92c-7 0 -11 3 -12 10zM248 235h236l-30 131c-12 62 -23 135 -24 185
c-1 11 -12 11 -16 0c-19 -50 -55 -122 -91 -185z" />
    <glyph glyph-name="Aacute" unicode="&#xc1;" horiz-adv-x="722" 
d="M506 901h119c10 0 13 -7 5 -14l-123 -106c-4 -4 -8 -5 -14 -5h-84c-10 0 -13 6 -6 13l90 106c3 4 7 6 13 6zM191 134l-71 -126c-3 -6 -7 -8 -13 -8h-100c-9 0 -12 6 -8 13l250 439c43 80 85 159 118 239c3 5 7 8 13 8h123c7 0 11 -4 12 -11c6 -78 20 -157 35 -236
l95 -440c2 -7 -2 -12 -9 -12h-92c-7 0 -11 3 -12 10l-26 124h-315zM484 235l-30 131c-12 62 -23 135 -24 185c-1 11 -12 11 -16 0c-19 -50 -55 -122 -91 -185l-75 -131h236z" />
    <glyph glyph-name="Abreve" unicode="&#x102;" horiz-adv-x="722" 
d="M618 889l-2 -11c-13 -76 -63 -112 -157 -112s-132 36 -119 112l2 13c1 7 4 10 11 10h66c8 0 11 -4 10 -12l-1 -5c-4 -26 9 -42 44 -42c34 0 52 16 57 42l1 7c1 7 5 10 12 10h66c8 0 11 -4 10 -12zM191 134l-71 -126c-3 -6 -7 -8 -13 -8h-100c-9 0 -12 6 -8 13l250 439
c43 80 85 159 118 239c3 5 7 8 13 8h123c7 0 11 -4 12 -11c6 -78 20 -157 35 -236l95 -440c2 -7 -2 -12 -9 -12h-92c-7 0 -11 3 -12 10l-26 124h-315zM484 235l-30 131c-12 62 -23 135 -24 185c-1 11 -12 11 -16 0c-19 -50 -55 -122 -91 -185l-75 -131h236z" />
    <glyph glyph-name="Acaron" unicode="&#x1cd;" horiz-adv-x="722" 
d="M517 776h-110c-5 0 -9 2 -13 7l-77 105c-6 7 -3 13 7 13h80c6 0 10 -2 14 -6l53 -53l75 55c4 3 8 4 14 4h76c10 0 13 -7 6 -14l-111 -106c-4 -3 -8 -5 -14 -5zM380 699h123c7 0 11 -4 12 -11c6 -78 20 -157 35 -236l95 -440c2 -7 -2 -12 -9 -12h-92c-7 0 -11 3 -12 10
l-26 124h-315l-71 -126c-3 -6 -7 -8 -13 -8h-100c-9 0 -12 6 -8 13l250 439c43 80 85 159 118 239c3 5 7 8 13 8zM484 235l-30 131c-12 62 -23 135 -24 185c-1 11 -12 11 -16 0c-19 -50 -55 -122 -91 -185l-75 -131h236z" />
    <glyph glyph-name="Acircumflex" unicode="&#xc2;" horiz-adv-x="722" 
d="M472 835l-75 -55c-4 -3 -8 -4 -14 -4h-76c-10 0 -13 7 -6 14l111 106c4 3 8 5 14 5h110c5 0 9 -2 13 -7l77 -105c6 -7 3 -13 -7 -13h-80c-6 0 -10 2 -14 6zM550 452l95 -440c2 -7 -2 -12 -9 -12h-92c-7 0 -11 3 -12 10l-26 124h-315l-71 -126c-3 -6 -7 -8 -13 -8h-100
c-9 0 -12 6 -8 13l250 439c43 80 85 159 118 239c3 5 7 8 13 8h123c7 0 11 -4 12 -11c6 -78 20 -157 35 -236zM484 235l-30 131c-12 62 -23 135 -24 185c-1 11 -12 11 -16 0c-19 -50 -55 -122 -91 -185l-75 -131h236z" />
    <glyph glyph-name="Adblgrave" unicode="&#x200;" horiz-adv-x="722" 
d="M266 901h94c6 0 10 -2 13 -8l52 -104c4 -8 1 -13 -8 -13h-81c-6 0 -10 2 -14 7l-63 105c-5 7 -1 13 7 13zM451 901h93c6 0 10 -3 12 -9l43 -103c3 -8 -1 -13 -9 -13h-77c-6 0 -10 2 -13 8l-57 104c-4 8 -1 13 8 13zM191 134l-71 -126c-3 -6 -7 -8 -13 -8h-100
c-9 0 -12 6 -8 13l250 439c43 80 85 159 118 239c3 5 7 8 13 8h123c7 0 11 -4 12 -11c6 -78 20 -157 35 -236l95 -440c2 -7 -2 -12 -9 -12h-92c-7 0 -11 3 -12 10l-26 124h-315zM484 235l-30 131c-12 62 -23 135 -24 185c-1 11 -12 11 -16 0c-19 -50 -55 -122 -91 -185
l-75 -131h236z" />
    <glyph glyph-name="Adieresis" unicode="&#xc4;" horiz-adv-x="722" 
d="M389 900c37 0 57 -17 57 -48c0 -33 -18 -75 -76 -75c-39 0 -58 16 -58 48c0 35 17 75 77 75zM578 900c37 0 57 -17 57 -48c0 -33 -18 -75 -76 -75c-39 0 -58 16 -58 48c0 35 17 75 77 75zM191 134l-71 -126c-3 -6 -7 -8 -13 -8h-100c-9 0 -12 6 -8 13l250 439
c43 80 85 159 118 239c3 5 7 8 13 8h123c7 0 11 -4 12 -11c6 -78 20 -157 35 -236l95 -440c2 -7 -2 -12 -9 -12h-92c-7 0 -11 3 -12 10l-26 124h-315zM484 235l-30 131c-12 62 -23 135 -24 185c-1 11 -12 11 -16 0c-19 -50 -55 -122 -91 -185l-75 -131h236z" />
    <glyph glyph-name="Agrave" unicode="&#xc0;" horiz-adv-x="722" 
d="M473 892l40 -103c3 -8 0 -13 -9 -13h-87c-5 0 -9 2 -13 7l-73 105c-5 7 -2 13 7 13h123c6 0 10 -3 12 -9zM191 134l-71 -126c-3 -6 -7 -8 -13 -8h-100c-9 0 -12 6 -8 13l250 439c43 80 85 159 118 239c3 5 7 8 13 8h123c7 0 11 -4 12 -11c6 -78 20 -157 35 -236l95 -440
c2 -7 -2 -12 -9 -12h-92c-7 0 -11 3 -12 10l-26 124h-315zM484 235l-30 131c-12 62 -23 135 -24 185c-1 11 -12 11 -16 0c-19 -50 -55 -122 -91 -185l-75 -131h236z" />
    <glyph glyph-name="Ainvertedbreve" unicode="&#x202;" horiz-adv-x="722" 
d="M325 788l2 11c13 76 63 112 157 112s132 -36 119 -112l-2 -13c-1 -7 -4 -10 -11 -10h-66c-8 0 -11 4 -10 12l1 5c4 26 -9 42 -44 42c-34 0 -52 -16 -57 -42l-1 -7c-1 -7 -5 -10 -12 -10h-66c-8 0 -11 4 -10 12zM191 134l-71 -126c-3 -6 -7 -8 -13 -8h-100
c-9 0 -12 6 -8 13l250 439c43 80 85 159 118 239c3 5 7 8 13 8h123c7 0 11 -4 12 -11c6 -78 20 -157 35 -236l95 -440c2 -7 -2 -12 -9 -12h-92c-7 0 -11 3 -12 10l-26 124h-315zM484 235l-30 131c-12 62 -23 135 -24 185c-1 11 -12 11 -16 0c-19 -50 -55 -122 -91 -185
l-75 -131h236z" />
    <glyph glyph-name="Amacron" unicode="&#x100;" horiz-adv-x="722" 
d="M332 876h291c8 0 11 -4 10 -12l-10 -59c-1 -7 -5 -10 -12 -10h-292c-7 0 -11 4 -10 12l11 59c1 7 5 10 12 10zM191 134l-71 -126c-3 -6 -7 -8 -13 -8h-100c-9 0 -12 6 -8 13l250 439c43 80 85 159 118 239c3 5 7 8 13 8h123c7 0 11 -4 12 -11c6 -78 20 -157 35 -236
l95 -440c2 -7 -2 -12 -9 -12h-92c-7 0 -11 3 -12 10l-26 124h-315zM484 235l-30 131c-12 62 -23 135 -24 185c-1 11 -12 11 -16 0c-19 -50 -55 -122 -91 -185l-75 -131h236z" />
    <glyph glyph-name="Aogonek" unicode="&#x104;" horiz-adv-x="722" 
d="M607 -55l-54 -44c-13 -11 -17 -19 -17 -30s5 -17 18 -17c10 0 19 2 30 6l11 3c7 3 12 0 13 -8l9 -54c1 -7 -1 -11 -8 -13l-18 -5c-16 -6 -33 -9 -52 -9c-56 0 -92 27 -92 72c0 32 14 59 47 85l39 34c23 18 24 31 9 35c-5 0 -9 3 -10 10l-26 124h-315l-71 -126
c-3 -6 -7 -8 -13 -8h-100c-9 0 -12 6 -8 13l250 439c43 80 85 159 118 239c3 5 7 8 13 8h123c7 0 11 -4 12 -11c6 -78 20 -157 35 -236l97 -445c1 -5 1 -9 0 -14c-2 -14 -15 -27 -40 -48zM484 235l-30 131c-12 62 -23 135 -24 185c-1 11 -12 11 -16 0
c-19 -50 -55 -122 -91 -185l-75 -131h236z" />
    <glyph glyph-name="Aring" unicode="&#xc5;" horiz-adv-x="722" 
d="M484 917c52 0 82 -25 82 -67c0 -57 -43 -93 -110 -93c-52 0 -81 25 -81 67c0 57 42 93 109 93zM475 870c-26 0 -42 -16 -42 -40c0 -16 11 -27 32 -27c26 0 43 15 43 39c0 18 -12 28 -33 28zM191 134l-71 -126c-3 -6 -7 -8 -13 -8h-100c-9 0 -12 6 -8 13l250 439
c43 80 85 159 118 239c3 5 7 8 13 8h123c7 0 11 -4 12 -11c6 -78 20 -157 35 -236l95 -440c2 -7 -2 -12 -9 -12h-92c-7 0 -11 3 -12 10l-26 124h-315zM484 235l-30 131c-12 62 -23 135 -24 185c-1 11 -12 11 -16 0c-19 -50 -55 -122 -91 -185l-75 -131h236z" />
    <glyph glyph-name="Aringacute" unicode="&#x1fa;" horiz-adv-x="722" 
d="M551 1043h119c10 0 13 -7 5 -14l-123 -106c-4 -4 -8 -5 -14 -5h-84c-10 0 -13 6 -6 13l90 106c3 4 7 6 13 6zM482 890c52 0 82 -25 82 -67c0 -57 -43 -93 -110 -93c-52 0 -81 25 -81 67c0 57 42 93 109 93zM473 843c-26 0 -42 -16 -42 -40c0 -16 11 -27 32 -27
c26 0 43 15 43 39c0 18 -12 28 -33 28zM191 134l-71 -126c-3 -6 -7 -8 -13 -8h-100c-9 0 -12 6 -8 13l250 439c43 80 85 159 118 239c3 5 7 8 13 8h123c7 0 11 -4 12 -11c6 -78 20 -157 35 -236l95 -440c2 -7 -2 -12 -9 -12h-92c-7 0 -11 3 -12 10l-26 124h-315zM484 235
l-30 131c-12 62 -23 135 -24 185c-1 11 -12 11 -16 0c-19 -50 -55 -122 -91 -185l-75 -131h236z" />
    <glyph glyph-name="Atilde" unicode="&#xc3;" horiz-adv-x="722" 
d="M287 798l31 44c24 36 58 51 98 51c20 0 40 -7 57 -16l39 -17c10 -4 19 -7 25 -7c10 0 21 3 30 17l10 13c4 5 7 7 13 7h60c9 0 12 -6 7 -13l-32 -45c-25 -35 -58 -50 -98 -50c-20 0 -38 7 -56 15l-40 18c-9 3 -19 7 -26 7c-10 0 -20 -4 -29 -16l-11 -14
c-3 -5 -7 -7 -13 -7h-58c-9 0 -12 6 -7 13zM191 134l-71 -126c-3 -6 -7 -8 -13 -8h-100c-9 0 -12 6 -8 13l250 439c43 80 85 159 118 239c3 5 7 8 13 8h123c7 0 11 -4 12 -11c6 -78 20 -157 35 -236l95 -440c2 -7 -2 -12 -9 -12h-92c-7 0 -11 3 -12 10l-26 124h-315z
M484 235l-30 131c-12 62 -23 135 -24 185c-1 11 -12 11 -16 0c-19 -50 -55 -122 -91 -185l-75 -131h236z" />
    <glyph glyph-name="AE" unicode="&#xc6;" horiz-adv-x="926" 
d="M907 598h-364c-11 0 -13 -8 -13 -22c0 -21 6 -48 11 -70l20 -97h259c8 0 11 -4 10 -12l-14 -78c-1 -7 -5 -10 -12 -10h-221l45 -208h218c8 0 11 -4 10 -12l-13 -79c-1 -7 -5 -10 -12 -10h-287c-7 0 -11 3 -12 10l-26 124h-315l-72 -126c-3 -6 -7 -8 -13 -8h-99
c-9 0 -12 6 -7 13l236 414c45 80 101 188 133 264c3 5 7 8 13 8h566c8 0 12 -5 8 -13l-36 -80c-3 -5 -7 -8 -13 -8zM484 235l-33 148c-11 58 -19 117 -22 167c-1 13 -11 13 -16 0c-19 -50 -49 -110 -79 -165l-86 -150h236z" />
    <glyph glyph-name="AEacute" unicode="&#x1fc;" horiz-adv-x="926" 
d="M634 901h119c10 0 13 -7 5 -14l-123 -106c-4 -4 -8 -5 -14 -5h-84c-10 0 -13 6 -6 13l90 106c3 4 7 6 13 6zM907 598h-364c-11 0 -13 -8 -13 -22c0 -21 6 -48 11 -70l20 -97h259c8 0 11 -4 10 -12l-14 -78c-1 -7 -5 -10 -12 -10h-221l45 -208h218c8 0 11 -4 10 -12
l-13 -79c-1 -7 -5 -10 -12 -10h-287c-7 0 -11 3 -12 10l-26 124h-315l-72 -126c-3 -6 -7 -8 -13 -8h-99c-9 0 -12 6 -7 13l236 414c45 80 101 188 133 264c3 5 7 8 13 8h566c8 0 12 -5 8 -13l-36 -80c-3 -5 -7 -8 -13 -8zM484 235l-33 148c-11 58 -19 117 -22 167
c-1 13 -11 13 -16 0c-19 -50 -49 -110 -79 -165l-86 -150h236z" />
    <glyph glyph-name="B" unicode="B" horiz-adv-x="655" 
d="M164 699h271c126 0 195 -57 195 -151c0 -99 -62 -156 -118 -177c-15 -5 -17 -13 -3 -17c46 -15 91 -58 91 -135c0 -135 -103 -219 -267 -219h-285c-8 0 -11 4 -10 12l114 677c1 7 5 10 12 10zM251 598l-31 -189h137c100 0 157 46 157 115c0 46 -34 74 -91 74h-172z
M202 309l-35 -208h183c82 0 134 44 134 117c0 58 -47 91 -131 91h-151z" />
    <glyph glyph-name="C" unicode="C" horiz-adv-x="619" 
d="M516 26l-50 -16c-49 -15 -90 -21 -147 -21c-163 0 -257 105 -257 276c0 179 98 444 372 444c54 0 94 -9 144 -27l39 -14c7 -3 9 -8 6 -14l-38 -74c-3 -6 -8 -8 -15 -6l-41 15c-32 12 -59 17 -104 17c-182 0 -247 -209 -247 -337c0 -116 52 -176 153 -176
c39 0 73 5 118 19l46 14c7 3 12 0 13 -7l16 -80c1 -7 -1 -11 -8 -13z" />
    <glyph glyph-name="Cacute" unicode="&#x106;" horiz-adv-x="619" 
d="M473 900h119c10 0 13 -7 5 -14l-123 -106c-4 -4 -8 -5 -14 -5h-84c-10 0 -13 6 -6 13l90 106c3 4 7 6 13 6zM516 26l-50 -16c-49 -15 -90 -21 -147 -21c-163 0 -257 105 -257 276c0 179 98 444 372 444c54 0 94 -9 144 -27l39 -14c7 -3 9 -8 6 -14l-38 -74
c-3 -6 -8 -8 -15 -6l-41 15c-32 12 -59 17 -104 17c-182 0 -247 -209 -247 -337c0 -116 52 -176 153 -176c39 0 73 5 118 19l46 14c7 3 12 0 13 -7l16 -80c1 -7 -1 -11 -8 -13z" />
    <glyph glyph-name="Ccaron" unicode="&#x10c;" horiz-adv-x="619" 
d="M484 774h-110c-5 0 -9 2 -13 7l-77 105c-6 7 -3 13 7 13h80c6 0 10 -2 14 -6l53 -53l75 55c4 3 8 4 14 4h76c10 0 13 -7 6 -14l-111 -106c-4 -3 -8 -5 -14 -5zM578 682l39 -14c7 -3 9 -8 6 -14l-38 -74c-3 -6 -8 -8 -15 -6l-41 15c-32 12 -59 17 -104 17
c-182 0 -247 -209 -247 -337c0 -116 52 -176 153 -176c39 0 73 5 118 19l46 14c7 3 12 0 13 -7l16 -80c1 -7 -1 -11 -8 -13l-50 -16c-49 -15 -90 -21 -147 -21c-163 0 -257 105 -257 276c0 179 98 444 372 444c54 0 94 -9 144 -27z" />
    <glyph glyph-name="Ccedilla" unicode="&#xc7;" horiz-adv-x="619" 
d="M578 682l39 -14c7 -3 9 -8 6 -14l-38 -74c-3 -6 -8 -8 -15 -6l-41 15c-32 12 -59 17 -104 17c-182 0 -247 -209 -247 -337c0 -116 52 -176 153 -176c39 0 73 5 118 19l46 14c7 3 12 0 13 -7l16 -80c1 -7 -1 -11 -8 -13l-50 -16c-49 -15 -90 -21 -147 -21h-8l-17 -30h6
c40 0 66 -26 66 -69c0 -51 -32 -116 -122 -116c-19 0 -34 3 -50 8l-15 6c-7 2 -9 8 -6 14l27 52c3 6 8 8 15 6l13 -5c10 -3 18 -4 28 -4c25 0 39 14 39 35c0 15 -11 24 -31 24h-34c-6 0 -10 2 -14 7c-2 4 -2 8 1 13l34 66c-121 26 -189 123 -189 269c0 179 98 444 372 444
c54 0 94 -9 144 -27z" />
    <glyph glyph-name="Ccircumflex" unicode="&#x108;" horiz-adv-x="619" 
d="M438 834l-75 -55c-4 -3 -8 -4 -14 -4h-76c-10 0 -13 7 -6 14l111 106c4 3 8 5 14 5h110c5 0 9 -2 13 -7l77 -105c6 -7 3 -13 -7 -13h-80c-6 0 -10 2 -14 6zM578 682l39 -14c7 -3 9 -8 6 -14l-38 -74c-3 -6 -8 -8 -15 -6l-41 15c-32 12 -59 17 -104 17
c-182 0 -247 -209 -247 -337c0 -116 52 -176 153 -176c39 0 73 5 118 19l46 14c7 3 12 0 13 -7l16 -80c1 -7 -1 -11 -8 -13l-50 -16c-49 -15 -90 -21 -147 -21c-163 0 -257 105 -257 276c0 179 98 444 372 444c54 0 94 -9 144 -27z" />
    <glyph glyph-name="Cdotaccent" unicode="&#x10a;" horiz-adv-x="619" 
d="M448 899c39 0 61 -17 61 -48c0 -33 -20 -75 -82 -75c-41 0 -61 16 -61 48c0 35 18 75 82 75zM516 26l-50 -16c-49 -15 -90 -21 -147 -21c-163 0 -257 105 -257 276c0 179 98 444 372 444c54 0 94 -9 144 -27l39 -14c7 -3 9 -8 6 -14l-38 -74c-3 -6 -8 -8 -15 -6l-41 15
c-32 12 -59 17 -104 17c-182 0 -247 -209 -247 -337c0 -116 52 -176 153 -176c39 0 73 5 118 19l46 14c7 3 12 0 13 -7l16 -80c1 -7 -1 -11 -8 -13z" />
    <glyph glyph-name="D" unicode="D" horiz-adv-x="679" 
d="M164 699h233c164 0 256 -101 256 -268c0 -177 -100 -431 -367 -431h-238c-8 0 -11 4 -10 12l114 677c1 7 5 10 12 10zM251 598l-84 -497h129c180 0 242 203 242 327c0 109 -53 170 -151 170h-136z" />
    <glyph glyph-name="Eth" unicode="&#xd0;" horiz-adv-x="731" 
d="M216 699h233c164 0 256 -101 256 -268c0 -177 -100 -431 -367 -431h-238c-8 0 -11 4 -10 12l50 294h-83c-8 0 -11 4 -10 12l13 79c1 7 5 10 12 10h85l47 282c1 7 5 10 12 10zM219 101h129c180 0 242 203 242 327c0 109 -53 170 -151 170h-136l-32 -191h129
c8 0 11 -4 10 -12l-13 -79c-1 -7 -5 -10 -12 -10h-131z" />
    <glyph glyph-name="Dcaron" unicode="&#x10e;" horiz-adv-x="679" 
d="M473 776h-110c-5 0 -9 2 -13 7l-77 105c-6 7 -3 13 7 13h80c6 0 10 -2 14 -6l53 -53l75 55c4 3 8 4 14 4h76c10 0 13 -7 6 -14l-111 -106c-4 -3 -8 -5 -14 -5zM164 699h233c164 0 256 -101 256 -268c0 -177 -100 -431 -367 -431h-238c-8 0 -11 4 -10 12l114 677
c1 7 5 10 12 10zM167 101h129c180 0 242 203 242 327c0 109 -53 170 -151 170h-136z" />
    <glyph glyph-name="Dcroat" unicode="&#x110;" horiz-adv-x="731" 
d="M216 699h233c164 0 256 -101 256 -268c0 -177 -100 -431 -367 -431h-238c-8 0 -11 4 -10 12l50 294h-83c-8 0 -11 4 -10 12l13 79c1 7 5 10 12 10h85l47 282c1 7 5 10 12 10zM219 101h129c180 0 242 203 242 327c0 109 -53 170 -151 170h-136l-32 -191h129
c8 0 11 -4 10 -12l-13 -79c-1 -7 -5 -10 -12 -10h-131z" />
    <glyph glyph-name="Ddotbelow" unicode="&#x1e0c;" horiz-adv-x="679" 
d="M164 699h233c164 0 256 -101 256 -268c0 -177 -100 -431 -367 -431h-238c-8 0 -11 4 -10 12l114 677c1 7 5 10 12 10zM167 101h129c180 0 242 203 242 327c0 109 -53 170 -151 170h-136zM271 -80c39 0 61 -17 61 -48c0 -33 -20 -75 -82 -75c-41 0 -61 16 -61 48
c0 35 18 75 82 75z" />
    <glyph glyph-name="E" unicode="E" horiz-adv-x="608" 
d="M220 409h277c8 0 11 -4 10 -12l-14 -78c-1 -7 -5 -10 -12 -10h-279l-34 -208h355c8 0 11 -4 10 -12l-14 -79c-1 -7 -5 -10 -12 -10h-459c-8 0 -11 4 -10 12l114 677c1 7 5 10 12 10h460c8 0 12 -5 8 -13l-35 -80c-3 -5 -7 -8 -13 -8h-333z" />
    <glyph glyph-name="Eacute" unicode="&#xc9;" horiz-adv-x="608" 
d="M457 901h119c10 0 13 -7 5 -14l-123 -106c-4 -4 -8 -5 -14 -5h-84c-10 0 -13 6 -6 13l90 106c3 4 7 6 13 6zM220 409h277c8 0 11 -4 10 -12l-14 -78c-1 -7 -5 -10 -12 -10h-279l-34 -208h355c8 0 11 -4 10 -12l-14 -79c-1 -7 -5 -10 -12 -10h-459c-8 0 -11 4 -10 12
l114 677c1 7 5 10 12 10h460c8 0 12 -5 8 -13l-35 -80c-3 -5 -7 -8 -13 -8h-333z" />
    <glyph glyph-name="Ebreve" unicode="&#x114;" horiz-adv-x="608" 
d="M569 889l-2 -11c-13 -76 -63 -112 -157 -112s-132 36 -119 112l2 13c1 7 4 10 11 10h66c8 0 11 -4 10 -12l-1 -5c-4 -26 9 -42 44 -42c34 0 52 16 57 42l1 7c1 7 5 10 12 10h66c8 0 11 -4 10 -12zM220 409h277c8 0 11 -4 10 -12l-14 -78c-1 -7 -5 -10 -12 -10h-279
l-34 -208h355c8 0 11 -4 10 -12l-14 -79c-1 -7 -5 -10 -12 -10h-459c-8 0 -11 4 -10 12l114 677c1 7 5 10 12 10h460c8 0 12 -5 8 -13l-35 -80c-3 -5 -7 -8 -13 -8h-333z" />
    <glyph glyph-name="Ecaron" unicode="&#x11a;" horiz-adv-x="608" 
d="M468 776h-110c-5 0 -9 2 -13 7l-77 105c-6 7 -3 13 7 13h80c6 0 10 -2 14 -6l53 -53l75 55c4 3 8 4 14 4h76c10 0 13 -7 6 -14l-111 -106c-4 -3 -8 -5 -14 -5zM251 598l-31 -189h277c8 0 11 -4 10 -12l-14 -78c-1 -7 -5 -10 -12 -10h-279l-34 -208h355c8 0 11 -4 10 -12
l-14 -79c-1 -7 -5 -10 -12 -10h-459c-8 0 -11 4 -10 12l114 677c1 7 5 10 12 10h460c8 0 12 -5 8 -13l-35 -80c-3 -5 -7 -8 -13 -8h-333z" />
    <glyph glyph-name="Ecircumflex" unicode="&#xca;" horiz-adv-x="608" 
d="M422 835l-75 -55c-4 -3 -8 -4 -14 -4h-76c-10 0 -13 7 -6 14l111 106c4 3 8 5 14 5h110c5 0 9 -2 13 -7l77 -105c6 -7 3 -13 -7 -13h-80c-6 0 -10 2 -14 6zM251 598l-31 -189h277c8 0 11 -4 10 -12l-14 -78c-1 -7 -5 -10 -12 -10h-279l-34 -208h355c8 0 11 -4 10 -12
l-14 -79c-1 -7 -5 -10 -12 -10h-459c-8 0 -11 4 -10 12l114 677c1 7 5 10 12 10h460c8 0 12 -5 8 -13l-35 -80c-3 -5 -7 -8 -13 -8h-333z" />
    <glyph glyph-name="Edblgrave" unicode="&#x204;" horiz-adv-x="608" 
d="M216 901h94c6 0 10 -2 13 -8l52 -104c4 -8 1 -13 -8 -13h-81c-6 0 -10 2 -14 7l-63 105c-5 7 -1 13 7 13zM401 901h93c6 0 10 -3 12 -9l43 -103c3 -8 -1 -13 -9 -13h-77c-6 0 -10 2 -13 8l-57 104c-4 8 -1 13 8 13zM220 409h277c8 0 11 -4 10 -12l-14 -78
c-1 -7 -5 -10 -12 -10h-279l-34 -208h355c8 0 11 -4 10 -12l-14 -79c-1 -7 -5 -10 -12 -10h-459c-8 0 -11 4 -10 12l114 677c1 7 5 10 12 10h460c8 0 12 -5 8 -13l-35 -80c-3 -5 -7 -8 -13 -8h-333z" />
    <glyph glyph-name="Edieresis" unicode="&#xcb;" horiz-adv-x="608" 
d="M339 900c37 0 57 -17 57 -48c0 -33 -18 -75 -76 -75c-39 0 -58 16 -58 48c0 35 17 75 77 75zM528 900c37 0 57 -17 57 -48c0 -33 -18 -75 -76 -75c-39 0 -58 16 -58 48c0 35 17 75 77 75zM220 409h277c8 0 11 -4 10 -12l-14 -78c-1 -7 -5 -10 -12 -10h-279l-34 -208h355
c8 0 11 -4 10 -12l-14 -79c-1 -7 -5 -10 -12 -10h-459c-8 0 -11 4 -10 12l114 677c1 7 5 10 12 10h460c8 0 12 -5 8 -13l-35 -80c-3 -5 -7 -8 -13 -8h-333z" />
    <glyph glyph-name="Edotaccent" unicode="&#x116;" horiz-adv-x="608" 
d="M432 900c39 0 61 -17 61 -48c0 -33 -20 -75 -82 -75c-41 0 -61 16 -61 48c0 35 18 75 82 75zM220 409h277c8 0 11 -4 10 -12l-14 -78c-1 -7 -5 -10 -12 -10h-279l-34 -208h355c8 0 11 -4 10 -12l-14 -79c-1 -7 -5 -10 -12 -10h-459c-8 0 -11 4 -10 12l114 677
c1 7 5 10 12 10h460c8 0 12 -5 8 -13l-35 -80c-3 -5 -7 -8 -13 -8h-333z" />
    <glyph glyph-name="Edotbelow" unicode="&#x1eb8;" horiz-adv-x="608" 
d="M220 409h277c8 0 11 -4 10 -12l-14 -78c-1 -7 -5 -10 -12 -10h-279l-34 -208h355c8 0 11 -4 10 -12l-14 -79c-1 -7 -5 -10 -12 -10h-459c-8 0 -11 4 -10 12l114 677c1 7 5 10 12 10h460c8 0 12 -5 8 -13l-35 -80c-3 -5 -7 -8 -13 -8h-333zM266 -80c39 0 61 -17 61 -48
c0 -33 -20 -75 -82 -75c-41 0 -61 16 -61 48c0 35 18 75 82 75z" />
    <glyph glyph-name="Egrave" unicode="&#xc8;" horiz-adv-x="608" 
d="M423 892l40 -103c3 -8 0 -13 -9 -13h-87c-5 0 -9 2 -13 7l-73 105c-5 7 -2 13 7 13h123c6 0 10 -3 12 -9zM220 409h277c8 0 11 -4 10 -12l-14 -78c-1 -7 -5 -10 -12 -10h-279l-34 -208h355c8 0 11 -4 10 -12l-14 -79c-1 -7 -5 -10 -12 -10h-459c-8 0 -11 4 -10 12
l114 677c1 7 5 10 12 10h460c8 0 12 -5 8 -13l-35 -80c-3 -5 -7 -8 -13 -8h-333z" />
    <glyph glyph-name="Einvertedbreve" unicode="&#x206;" horiz-adv-x="608" 
d="M275 788l2 11c13 76 63 112 157 112s132 -36 119 -112l-2 -13c-1 -7 -4 -10 -11 -10h-66c-8 0 -11 4 -10 12l1 5c4 26 -9 42 -44 42c-34 0 -52 -16 -57 -42l-1 -7c-1 -7 -5 -10 -12 -10h-66c-8 0 -11 4 -10 12zM220 409h277c8 0 11 -4 10 -12l-14 -78
c-1 -7 -5 -10 -12 -10h-279l-34 -208h355c8 0 11 -4 10 -12l-14 -79c-1 -7 -5 -10 -12 -10h-459c-8 0 -11 4 -10 12l114 677c1 7 5 10 12 10h460c8 0 12 -5 8 -13l-35 -80c-3 -5 -7 -8 -13 -8h-333z" />
    <glyph glyph-name="Emacron" unicode="&#x112;" horiz-adv-x="608" 
d="M282 876h291c8 0 11 -4 10 -12l-10 -59c-1 -7 -5 -10 -12 -10h-292c-7 0 -11 4 -10 12l11 59c1 7 5 10 12 10zM220 409h277c8 0 11 -4 10 -12l-14 -78c-1 -7 -5 -10 -12 -10h-279l-34 -208h355c8 0 11 -4 10 -12l-14 -79c-1 -7 -5 -10 -12 -10h-459c-8 0 -11 4 -10 12
l114 677c1 7 5 10 12 10h460c8 0 12 -5 8 -13l-35 -80c-3 -5 -7 -8 -13 -8h-333z" />
    <glyph glyph-name="Eogonek" unicode="&#x118;" horiz-adv-x="610" 
d="M251 598l-31 -189h277c8 0 11 -4 10 -12l-14 -78c-1 -7 -5 -10 -12 -10h-279l-34 -208h355c8 0 11 -4 10 -12l-16 -89c1 0 -6 -7 -13 -14l-97 -85c-11 -11 -16 -19 -16 -30s6 -17 18 -17c9 0 19 2 30 6l11 3c7 3 12 0 13 -8l10 -53c1 -7 -1 -11 -8 -13l-18 -6
c-17 -6 -34 -9 -53 -9c-56 0 -92 27 -92 72c0 34 18 58 49 85l41 37c23 21 32 32 5 32h-349c-8 0 -11 4 -10 12l114 677c1 7 5 10 12 10h460c8 0 12 -5 8 -13l-35 -80c-3 -5 -7 -8 -13 -8h-333z" />
    <glyph glyph-name="Etilde" unicode="&#x1ebc;" horiz-adv-x="608" 
d="M237 798l31 44c24 36 58 51 98 51c20 0 40 -7 57 -16l39 -17c10 -4 19 -7 25 -7c10 0 21 3 30 17l10 13c4 5 7 7 13 7h60c9 0 12 -6 7 -13l-32 -45c-25 -35 -58 -50 -98 -50c-20 0 -38 7 -56 15l-40 18c-9 3 -19 7 -26 7c-10 0 -20 -4 -29 -16l-11 -14
c-3 -5 -7 -7 -13 -7h-58c-9 0 -12 6 -7 13zM220 409h277c8 0 11 -4 10 -12l-14 -78c-1 -7 -5 -10 -12 -10h-279l-34 -208h355c8 0 11 -4 10 -12l-14 -79c-1 -7 -5 -10 -12 -10h-459c-8 0 -11 4 -10 12l114 677c1 7 5 10 12 10h460c8 0 12 -5 8 -13l-35 -80
c-3 -5 -7 -8 -13 -8h-333z" />
    <glyph glyph-name="F" unicode="F" horiz-adv-x="598" 
d="M215 381h282c8 0 11 -4 10 -12l-13 -79c-1 -7 -5 -10 -12 -10h-285l-45 -270c-1 -7 -5 -10 -12 -10h-92c-8 0 -11 4 -10 12l114 677c1 7 5 10 12 10h456c8 0 12 -5 8 -13l-36 -80c-3 -5 -7 -8 -13 -8h-328z" />
    <glyph glyph-name="G" unicode="G" horiz-adv-x="671" 
d="M371 282l36 80c3 5 7 8 13 8h195c8 0 11 -4 10 -12l-52 -302c-1 -6 -4 -10 -9 -12l-34 -11l-62 -22c-49 -16 -89 -22 -147 -22c-165 0 -259 104 -259 274c0 178 96 446 369 446c59 0 94 -7 145 -26l41 -14c7 -3 9 -8 6 -15l-38 -74c-3 -6 -8 -8 -15 -5l-38 14
c-36 13 -65 17 -107 17c-184 0 -247 -210 -247 -339c0 -111 51 -174 149 -174c45 0 79 5 117 17l31 10l25 149h-121c-8 0 -12 5 -8 13z" />
    <glyph glyph-name="Gacute" unicode="&#x1f4;" horiz-adv-x="671" 
d="M475 900h119c10 0 13 -7 5 -14l-123 -106c-4 -4 -8 -5 -14 -5h-84c-10 0 -13 6 -6 13l90 106c3 4 7 6 13 6zM420 370h195c8 0 11 -4 10 -12l-52 -302c-1 -6 -4 -10 -9 -12l-34 -11l-62 -22c-49 -16 -89 -22 -147 -22c-165 0 -259 104 -259 274c0 178 96 446 369 446
c59 0 94 -7 145 -26l41 -14c7 -3 9 -8 6 -15l-38 -74c-3 -6 -8 -8 -15 -5l-38 14c-36 13 -65 17 -107 17c-184 0 -247 -210 -247 -339c0 -111 51 -174 149 -174c45 0 79 5 117 17l31 10l25 149h-121c-8 0 -12 5 -8 13l36 80c3 5 7 8 13 8z" />
    <glyph glyph-name="Gbreve" unicode="&#x11e;" horiz-adv-x="671" 
d="M587 888l-2 -11c-13 -76 -63 -112 -157 -112s-132 36 -119 112l2 13c1 7 4 10 11 10h66c8 0 11 -4 10 -12l-1 -5c-4 -26 9 -42 44 -42c34 0 52 16 57 42l1 7c1 7 5 10 12 10h66c8 0 11 -4 10 -12zM420 370h195c8 0 11 -4 10 -12l-52 -302c-1 -6 -4 -10 -9 -12l-34 -11
l-62 -22c-49 -16 -89 -22 -147 -22c-165 0 -259 104 -259 274c0 178 96 446 369 446c59 0 94 -7 145 -26l41 -14c7 -3 9 -8 6 -15l-38 -74c-3 -6 -8 -8 -15 -5l-38 14c-36 13 -65 17 -107 17c-184 0 -247 -210 -247 -339c0 -111 51 -174 149 -174c45 0 79 5 117 17l31 10
l25 149h-121c-8 0 -12 5 -8 13l36 80c3 5 7 8 13 8z" />
    <glyph glyph-name="Gcircumflex" unicode="&#x11c;" horiz-adv-x="671" 
d="M440 834l-75 -55c-4 -3 -8 -4 -14 -4h-76c-10 0 -13 7 -6 14l111 106c4 3 8 5 14 5h110c5 0 9 -2 13 -7l77 -105c6 -7 3 -13 -7 -13h-80c-6 0 -10 2 -14 6zM371 282l36 80c3 5 7 8 13 8h195c8 0 11 -4 10 -12l-52 -302c-1 -6 -4 -10 -9 -12l-34 -11l-62 -22
c-49 -16 -89 -22 -147 -22c-165 0 -259 104 -259 274c0 178 96 446 369 446c59 0 94 -7 145 -26l41 -14c7 -3 9 -8 6 -15l-38 -74c-3 -6 -8 -8 -15 -5l-38 14c-36 13 -65 17 -107 17c-184 0 -247 -210 -247 -339c0 -111 51 -174 149 -174c45 0 79 5 117 17l31 10l25 149
h-121c-8 0 -12 5 -8 13z" />
    <glyph glyph-name="Gcommaaccent" unicode="&#x122;" horiz-adv-x="671" 
d="M420 370h195c8 0 11 -4 10 -12l-52 -302c-1 -6 -4 -10 -9 -12l-34 -11l-62 -22c-49 -16 -89 -22 -147 -22c-165 0 -259 104 -259 274c0 178 96 446 369 446c59 0 94 -7 145 -26l41 -14c7 -3 9 -8 6 -15l-38 -74c-3 -6 -8 -8 -15 -5l-38 14c-36 13 -65 17 -107 17
c-184 0 -247 -210 -247 -339c0 -111 51 -174 149 -174c45 0 79 5 117 17l31 10l25 149h-121c-8 0 -12 5 -8 13l36 80c3 5 7 8 13 8zM231 -218l24 34c10 14 8 22 -2 25c-15 5 -25 20 -25 38c0 30 20 57 61 57c28 0 46 -15 46 -42c0 -34 -24 -66 -41 -89l-20 -29
c-4 -5 -8 -7 -13 -7h-23c-10 0 -13 6 -7 13z" />
    <glyph glyph-name="Gdotaccent" unicode="&#x120;" horiz-adv-x="671" 
d="M450 899c39 0 61 -17 61 -48c0 -33 -20 -75 -82 -75c-41 0 -61 16 -61 48c0 35 18 75 82 75zM420 370h195c8 0 11 -4 10 -12l-52 -302c-1 -6 -4 -10 -9 -12l-34 -11l-62 -22c-49 -16 -89 -22 -147 -22c-165 0 -259 104 -259 274c0 178 96 446 369 446c59 0 94 -7 145 -26
l41 -14c7 -3 9 -8 6 -15l-38 -74c-3 -6 -8 -8 -15 -5l-38 14c-36 13 -65 17 -107 17c-184 0 -247 -210 -247 -339c0 -111 51 -174 149 -174c45 0 79 5 117 17l31 10l25 149h-121c-8 0 -12 5 -8 13l36 80c3 5 7 8 13 8z" />
    <glyph glyph-name="H" unicode="H" horiz-adv-x="703" 
d="M702 687l-115 -677c-1 -7 -5 -10 -12 -10h-92c-8 0 -11 4 -10 12l50 297h-321l-50 -299c-1 -7 -5 -10 -12 -10h-92c-8 0 -11 4 -10 12l114 677c1 7 5 10 12 10h92c8 0 11 -4 10 -12l-46 -278h321l46 280c1 7 5 10 12 10h93c8 0 11 -4 10 -12z" />
    <glyph glyph-name="Hbar" unicode="&#x126;" horiz-adv-x="703" 
d="M599 699h93c8 0 11 -4 10 -12l-115 -677c-1 -7 -5 -10 -12 -10h-92c-8 0 -11 4 -10 12l50 297h-321l-50 -299c-1 -7 -5 -10 -12 -10h-92c-8 0 -11 4 -10 12l114 677c1 7 5 10 12 10h92c8 0 11 -4 10 -12l-21 -124h321l21 126c1 7 5 10 12 10zM541 409l13 76h-321l-13 -76
h321z" />
    <glyph glyph-name="Hcircumflex" unicode="&#x124;" horiz-adv-x="703" 
d="M454 835l-75 -55c-4 -3 -8 -4 -14 -4h-76c-10 0 -13 7 -6 14l111 106c4 3 8 5 14 5h110c5 0 9 -2 13 -7l77 -105c6 -7 3 -13 -7 -13h-80c-6 0 -10 2 -14 6zM599 699h93c8 0 11 -4 10 -12l-115 -677c-1 -7 -5 -10 -12 -10h-92c-8 0 -11 4 -10 12l50 297h-321l-50 -299
c-1 -7 -5 -10 -12 -10h-92c-8 0 -11 4 -10 12l114 677c1 7 5 10 12 10h92c8 0 11 -4 10 -12l-46 -278h321l46 280c1 7 5 10 12 10z" />
    <glyph glyph-name="Hdotbelow" unicode="&#x1e24;" horiz-adv-x="703" 
d="M575 0h-92c-8 0 -11 4 -10 12l50 297h-321l-50 -299c-1 -7 -5 -10 -12 -10h-92c-8 0 -11 4 -10 12l114 677c1 7 5 10 12 10h92c8 0 11 -4 10 -12l-46 -278h321l46 280c1 7 5 10 12 10h93c8 0 11 -4 10 -12l-115 -677c-1 -7 -5 -10 -12 -10zM298 -80c39 0 61 -17 61 -48
c0 -33 -20 -75 -82 -75c-41 0 -61 16 -61 48c0 35 18 75 82 75z" />
    <glyph glyph-name="I" unicode="I" horiz-adv-x="268" 
d="M266 687l-114 -677c-1 -7 -5 -10 -12 -10h-92c-8 0 -11 4 -10 12l114 677c1 7 5 10 12 10h92c8 0 11 -4 10 -12z" />
    <glyph glyph-name="IJ" unicode="&#x132;" horiz-adv-x="676" 
d="M140 0h-92c-8 0 -11 4 -10 12l114 677c1 7 5 10 12 10h92c8 0 11 -4 10 -12l-114 -677c-1 -7 -5 -10 -12 -10zM676 687l-82 -484c-22 -134 -99 -214 -221 -214c-27 0 -52 6 -82 18l-11 4c-7 3 -9 8 -5 14l38 74c3 6 8 8 15 5l12 -5c10 -4 23 -6 39 -6c48 0 88 35 100 107
l82 489c1 7 5 10 12 10h93c8 0 11 -4 10 -12z" />
    <glyph glyph-name="Iacute" unicode="&#xcd;" horiz-adv-x="268" 
d="M270 901h119c10 0 13 -7 5 -14l-123 -106c-4 -4 -8 -5 -14 -5h-84c-10 0 -13 6 -6 13l90 106c3 4 7 6 13 6zM140 0h-92c-8 0 -11 4 -10 12l114 677c1 7 5 10 12 10h92c8 0 11 -4 10 -12l-114 -677c-1 -7 -5 -10 -12 -10z" />
    <glyph glyph-name="Ibreve" unicode="&#x12c;" horiz-adv-x="268" 
d="M382 889l-2 -11c-13 -76 -63 -112 -157 -112s-132 36 -119 112l2 13c1 7 4 10 11 10h66c8 0 11 -4 10 -12l-1 -5c-4 -26 9 -42 44 -42c34 0 52 16 57 42l1 7c1 7 5 10 12 10h66c8 0 11 -4 10 -12zM140 0h-92c-8 0 -11 4 -10 12l114 677c1 7 5 10 12 10h92
c8 0 11 -4 10 -12l-114 -677c-1 -7 -5 -10 -12 -10z" />
    <glyph glyph-name="Icaron" unicode="&#x1cf;" horiz-adv-x="268" 
d="M324 901h76c10 0 13 -7 6 -14l-111 -106c-4 -3 -8 -5 -14 -5h-110c-5 0 -9 2 -13 7l-77 105c-6 7 -3 13 7 13h80c6 0 10 -2 14 -6l53 -53l75 55c4 3 8 4 14 4zM38 12l114 677c1 7 5 10 12 10h92c8 0 11 -4 10 -12l-114 -677c-1 -7 -5 -10 -12 -10h-92c-8 0 -11 4 -10 12z
" />
    <glyph glyph-name="Icircumflex" unicode="&#xce;" horiz-adv-x="268" 
d="M313 894l77 -105c6 -7 3 -13 -7 -13h-80c-6 0 -10 2 -14 6l-53 53l-75 -55c-4 -3 -8 -4 -14 -4h-76c-10 0 -13 7 -6 14l111 106c4 3 8 5 14 5h110c5 0 9 -2 13 -7zM38 12l114 677c1 7 5 10 12 10h92c8 0 11 -4 10 -12l-114 -677c-1 -7 -5 -10 -12 -10h-92
c-8 0 -11 4 -10 12z" />
    <glyph glyph-name="Idblgrave" unicode="&#x208;" horiz-adv-x="268" 
d="M29 901h94c6 0 10 -2 13 -8l52 -104c4 -8 1 -13 -8 -13h-81c-6 0 -10 2 -14 7l-63 105c-5 7 -1 13 7 13zM214 901h93c6 0 10 -3 12 -9l43 -103c3 -8 -1 -13 -9 -13h-77c-6 0 -10 2 -13 8l-57 104c-4 8 -1 13 8 13zM140 0h-92c-8 0 -11 4 -10 12l114 677c1 7 5 10 12 10
h92c8 0 11 -4 10 -12l-114 -677c-1 -7 -5 -10 -12 -10z" />
    <glyph glyph-name="Idieresis" unicode="&#xcf;" horiz-adv-x="268" 
d="M153 900c37 0 57 -17 57 -48c0 -33 -18 -75 -76 -75c-39 0 -58 16 -58 48c0 35 17 75 77 75zM342 900c37 0 57 -17 57 -48c0 -33 -18 -75 -76 -75c-39 0 -58 16 -58 48c0 35 17 75 77 75zM140 0h-92c-8 0 -11 4 -10 12l114 677c1 7 5 10 12 10h92c8 0 11 -4 10 -12
l-114 -677c-1 -7 -5 -10 -12 -10z" />
    <glyph glyph-name="Idotaccent" unicode="&#x130;" horiz-adv-x="268" 
d="M245 900c39 0 61 -17 61 -48c0 -33 -20 -75 -82 -75c-41 0 -61 16 -61 48c0 35 18 75 82 75zM140 0h-92c-8 0 -11 4 -10 12l114 677c1 7 5 10 12 10h92c8 0 11 -4 10 -12l-114 -677c-1 -7 -5 -10 -12 -10z" />
    <glyph glyph-name="Idotbelow" unicode="&#x1eca;" horiz-adv-x="268" 
d="M140 0h-92c-8 0 -11 4 -10 12l114 677c1 7 5 10 12 10h92c8 0 11 -4 10 -12l-114 -677c-1 -7 -5 -10 -12 -10zM80 -80c39 0 61 -17 61 -48c0 -33 -20 -75 -82 -75c-41 0 -61 16 -61 48c0 35 18 75 82 75z" />
    <glyph glyph-name="Igrave" unicode="&#xcc;" horiz-adv-x="268" 
d="M236 892l40 -103c3 -8 0 -13 -9 -13h-87c-5 0 -9 2 -13 7l-73 105c-5 7 -2 13 7 13h123c6 0 10 -3 12 -9zM140 0h-92c-8 0 -11 4 -10 12l114 677c1 7 5 10 12 10h92c8 0 11 -4 10 -12l-114 -677c-1 -7 -5 -10 -12 -10z" />
    <glyph glyph-name="Iinvertedbreve" unicode="&#x20a;" horiz-adv-x="268" 
d="M89 788l2 11c13 76 63 112 157 112s132 -36 119 -112l-2 -13c-1 -7 -4 -10 -11 -10h-66c-8 0 -11 4 -10 12l1 5c4 26 -9 42 -44 42c-34 0 -52 -16 -57 -42l-1 -7c-1 -7 -5 -10 -12 -10h-66c-8 0 -11 4 -10 12zM140 0h-92c-8 0 -11 4 -10 12l114 677c1 7 5 10 12 10h92
c8 0 11 -4 10 -12l-114 -677c-1 -7 -5 -10 -12 -10z" />
    <glyph glyph-name="Imacron" unicode="&#x12a;" horiz-adv-x="268" 
d="M96 876h291c8 0 11 -4 10 -12l-10 -59c-1 -7 -5 -10 -12 -10h-292c-7 0 -11 4 -10 12l11 59c1 7 5 10 12 10zM140 0h-92c-8 0 -11 4 -10 12l114 677c1 7 5 10 12 10h92c8 0 11 -4 10 -12l-114 -677c-1 -7 -5 -10 -12 -10z" />
    <glyph glyph-name="Iogonek" unicode="&#x12e;" horiz-adv-x="268" 
d="M164 699h92c8 0 11 -4 10 -12l-116 -687c-3 -19 -11 -31 -41 -55l-54 -44c-12 -11 -17 -18 -17 -31c0 -10 6 -16 19 -16c8 0 18 2 30 6l9 3c7 3 12 0 13 -8l10 -54c1 -6 -1 -11 -8 -13l-18 -5c-16 -6 -33 -9 -51 -9c-57 0 -93 26 -93 72c0 32 15 59 47 85l42 34
c22 18 23 31 9 35c-7 0 -10 4 -9 12l114 677c1 7 5 10 12 10z" />
    <glyph glyph-name="Itilde" unicode="&#x128;" horiz-adv-x="268" 
d="M51 798l31 44c24 36 58 51 98 51c20 0 40 -7 57 -16l39 -17c10 -4 19 -7 25 -7c10 0 21 3 30 17l10 13c4 5 7 7 13 7h60c9 0 12 -6 7 -13l-32 -45c-25 -35 -58 -50 -98 -50c-20 0 -38 7 -56 15l-40 18c-9 3 -19 7 -26 7c-10 0 -20 -4 -29 -16l-11 -14c-3 -5 -7 -7 -13 -7
h-58c-9 0 -12 6 -7 13zM140 0h-92c-8 0 -11 4 -10 12l114 677c1 7 5 10 12 10h92c8 0 11 -4 10 -12l-114 -677c-1 -7 -5 -10 -12 -10z" />
    <glyph glyph-name="J" unicode="J" horiz-adv-x="450" 
d="M450 687l-80 -476c-24 -138 -109 -222 -236 -222c-34 0 -64 5 -98 19l-24 10c-7 2 -9 8 -6 14l37 73c3 6 8 8 15 5l26 -9c16 -6 30 -8 56 -8c55 0 101 38 115 114l80 482c1 7 5 10 12 10h93c8 0 11 -4 10 -12z" />
    <glyph glyph-name="Jcircumflex" unicode="&#x134;" horiz-adv-x="450" 
d="M495 894l77 -105c6 -7 3 -13 -7 -13h-80c-6 0 -10 2 -14 6l-53 53l-75 -55c-4 -3 -8 -4 -14 -4h-76c-10 0 -13 7 -6 14l111 106c4 3 8 5 14 5h110c5 0 9 -2 13 -7zM255 207l80 482c1 7 5 10 12 10h93c8 0 11 -4 10 -12l-80 -476c-24 -138 -109 -222 -236 -222
c-34 0 -64 5 -98 19l-24 10c-7 2 -9 8 -6 14l37 73c3 6 8 8 15 5l26 -9c16 -6 30 -8 56 -8c55 0 101 38 115 114z" />
    <glyph glyph-name="K" unicode="K" horiz-adv-x="668" 
d="M689 686l-156 -201c-49 -62 -111 -101 -158 -119c-7 -3 -9 -9 -2 -12c55 -25 97 -74 125 -136l89 -205c4 -8 0 -13 -8 -13h-96c-6 0 -10 3 -13 8l-71 160c-34 81 -91 138 -175 138h-22l-50 -296c-1 -7 -5 -10 -12 -10h-92c-8 0 -11 4 -10 12l114 677c1 7 5 10 12 10h93
c8 0 11 -4 10 -12l-47 -277h21c74 0 141 56 200 131l120 152c3 4 7 6 13 6h108c9 0 12 -6 7 -13z" />
    <glyph glyph-name="Kcommaaccent" unicode="&#x136;" horiz-adv-x="668" 
d="M689 686l-156 -201c-49 -62 -111 -101 -158 -119c-7 -3 -9 -9 -2 -12c55 -25 97 -74 125 -136l89 -205c4 -8 0 -13 -8 -13h-96c-6 0 -10 3 -13 8l-71 160c-34 81 -91 138 -175 138h-22l-50 -296c-1 -7 -5 -10 -12 -10h-92c-8 0 -11 4 -10 12l114 677c1 7 5 10 12 10h93
c8 0 11 -4 10 -12l-47 -277h21c74 0 141 56 200 131l120 152c3 4 7 6 13 6h108c9 0 12 -6 7 -13zM223 -218l24 34c10 14 8 22 -2 25c-15 5 -25 20 -25 38c0 30 20 57 61 57c28 0 46 -15 46 -42c0 -34 -24 -66 -41 -89l-20 -29c-4 -5 -8 -7 -13 -7h-23c-10 0 -13 6 -7 13z
" />
    <glyph glyph-name="L" unicode="L" horiz-adv-x="569" 
d="M168 103h315c8 0 11 -4 10 -12l-14 -81c-1 -7 -5 -10 -12 -10h-419c-8 0 -11 4 -10 12l114 677c1 7 5 10 12 10h92c8 0 11 -4 10 -12z" />
    <glyph glyph-name="LJ" unicode="&#x1c7;" horiz-adv-x="938" 
d="M168 103h281c8 0 11 -4 10 -12l-14 -81c-1 -7 -5 -10 -12 -10h-385c-8 0 -11 4 -10 12l114 677c1 7 5 10 12 10h92c8 0 11 -4 10 -12zM938 687l-82 -484c-23 -134 -100 -214 -221 -214c-26 0 -52 6 -82 18l-11 4c-7 3 -9 8 -5 14l38 74c3 6 8 8 15 5l11 -5
c11 -4 23 -6 40 -6c48 0 88 35 100 107l82 489c1 7 5 10 12 10h93c8 0 11 -4 10 -12z" />
    <glyph glyph-name="Lacute" unicode="&#x139;" horiz-adv-x="569" 
d="M273 901h119c10 0 13 -7 5 -14l-123 -106c-4 -4 -8 -5 -14 -5h-84c-10 0 -13 6 -6 13l90 106c3 4 7 6 13 6zM168 103h315c8 0 11 -4 10 -12l-14 -81c-1 -7 -5 -10 -12 -10h-419c-8 0 -11 4 -10 12l114 677c1 7 5 10 12 10h92c8 0 11 -4 10 -12z" />
    <glyph glyph-name="Lcaron" unicode="&#x13d;" horiz-adv-x="569" 
d="M168 103h315c8 0 11 -4 10 -12l-14 -81c-1 -7 -5 -10 -12 -10h-419c-8 0 -11 4 -10 12l114 677c1 7 5 10 12 10h92c8 0 11 -4 10 -12zM380 698h64c7 0 11 -4 10 -12l-6 -31c-3 -23 -15 -54 -36 -86l-8 -14c-4 -5 -8 -7 -14 -7h-50c-8 0 -12 5 -8 13l8 19
c11 23 17 46 22 71l6 37c1 7 5 10 12 10z" />
    <glyph glyph-name="Lcommaaccent" unicode="&#x13b;" horiz-adv-x="569" 
d="M168 103h315c8 0 11 -4 10 -12l-14 -81c-1 -7 -5 -10 -12 -10h-419c-8 0 -11 4 -10 12l114 677c1 7 5 10 12 10h92c8 0 11 -4 10 -12zM191 -218l24 34c10 14 8 22 -2 25c-15 5 -25 20 -25 38c0 30 20 57 61 57c28 0 46 -15 46 -42c0 -34 -24 -66 -41 -89l-20 -29
c-4 -5 -8 -7 -13 -7h-23c-10 0 -13 6 -7 13z" />
    <glyph glyph-name="Ldot" unicode="&#x13f;" horiz-adv-x="569" 
d="M168 103h315c8 0 11 -4 10 -12l-14 -81c-1 -7 -5 -10 -12 -10h-419c-8 0 -11 4 -10 12l114 677c1 7 5 10 12 10h92c8 0 11 -4 10 -12zM488 459c48 0 72 -31 64 -79c-8 -41 -34 -65 -75 -65c-47 0 -71 31 -63 79c8 41 34 65 74 65z" />
    <glyph glyph-name="Lslash" unicode="&#x141;" horiz-adv-x="624" 
d="M223 103h315c8 0 11 -4 10 -12l-14 -81c-1 -7 -5 -10 -12 -10h-419c-8 0 -11 4 -10 12l40 235l-83 -37c-9 -3 -14 1 -12 10l15 86c1 5 3 9 9 11l89 40l56 332c1 7 5 10 12 10h92c8 0 11 -4 10 -12l-46 -275l192 86c9 3 14 -1 12 -10l-15 -87c-1 -5 -3 -9 -9 -11l-199 -88
z" />
    <glyph glyph-name="M" unicode="M" horiz-adv-x="824" 
d="M823 687l-115 -677c-1 -7 -5 -10 -12 -10h-92c-8 0 -11 4 -10 12l54 323c9 59 25 135 42 192c4 13 -6 16 -13 3c-14 -26 -29 -52 -45 -79l-133 -224c-15 -26 -38 -71 -53 -101c-3 -6 -7 -8 -13 -8h-84c-7 0 -10 3 -12 10c-4 29 -12 70 -18 97l-58 226
c-7 27 -13 52 -19 79c-3 13 -13 10 -14 -3c-3 -57 -13 -133 -22 -192l-54 -325c-1 -7 -5 -10 -12 -10h-92c-8 0 -11 4 -10 12l114 677c1 7 5 10 12 10h137c7 0 10 -3 11 -10c4 -23 9 -51 14 -74l58 -224c7 -37 17 -97 21 -132c1 -11 10 -11 15 0c16 36 45 98 63 132l133 224
c13 23 27 51 38 75c2 6 6 9 12 9h147c8 0 11 -4 10 -12z" />
    <glyph glyph-name="N" unicode="N" horiz-adv-x="718" 
d="M717 687l-115 -677c-1 -7 -5 -10 -12 -10h-114c-7 0 -11 3 -13 9c-10 33 -22 68 -36 102l-157 348c-10 24 -18 50 -25 72c-4 11 -16 7 -16 -4c-1 -45 -5 -85 -14 -139l-63 -378c-1 -7 -5 -10 -12 -10h-92c-8 0 -11 4 -10 12l114 677c1 7 5 10 12 10h114c7 0 11 -3 13 -9
c9 -30 22 -66 36 -102l156 -344c10 -25 20 -53 27 -76c4 -13 15 -8 14 4c1 44 6 84 15 137l63 380c1 7 5 10 12 10h93c8 0 11 -4 10 -12z" />
    <glyph glyph-name="NJ" unicode="&#x1ca;" horiz-adv-x="1129" 
d="M590 0h-114c-7 0 -11 3 -13 9c-10 33 -22 68 -36 102l-157 348c-10 24 -18 50 -25 72c-4 11 -16 7 -16 -4c-1 -45 -5 -85 -14 -139l-63 -378c-1 -7 -5 -10 -12 -10h-92c-8 0 -11 4 -10 12l114 677c1 7 5 10 12 10h114c7 0 11 -3 13 -9c9 -30 22 -66 36 -102l156 -344
c10 -25 20 -53 27 -76c4 -13 15 -8 14 4c1 44 6 84 15 137l63 380c1 7 5 10 12 10h93c8 0 11 -4 10 -12l-115 -677c-1 -7 -5 -10 -12 -10zM1129 687l-83 -490c-22 -131 -107 -208 -228 -208c-24 0 -47 5 -74 15l-13 5c-7 3 -9 8 -6 14l41 80c3 6 8 8 15 5l14 -5
c13 -4 25 -7 42 -7c49 0 85 37 95 101l83 492c1 7 5 10 12 10h92c8 0 11 -4 10 -12z" />
    <glyph glyph-name="Nacute" unicode="&#x143;" horiz-adv-x="718" 
d="M490 901h119c10 0 13 -7 5 -14l-123 -106c-4 -4 -8 -5 -14 -5h-84c-10 0 -13 6 -6 13l90 106c3 4 7 6 13 6zM590 0h-114c-7 0 -11 3 -13 9c-10 33 -22 68 -36 102l-157 348c-10 24 -18 50 -25 72c-4 11 -16 7 -16 -4c-1 -45 -5 -85 -14 -139l-63 -378
c-1 -7 -5 -10 -12 -10h-92c-8 0 -11 4 -10 12l114 677c1 7 5 10 12 10h114c7 0 11 -3 13 -9c9 -30 22 -66 36 -102l156 -344c10 -25 20 -53 27 -76c4 -13 15 -8 14 4c1 44 6 84 15 137l63 380c1 7 5 10 12 10h93c8 0 11 -4 10 -12l-115 -677c-1 -7 -5 -10 -12 -10z" />
    <glyph glyph-name="Ncaron" unicode="&#x147;" horiz-adv-x="718" 
d="M501 776h-110c-5 0 -9 2 -13 7l-77 105c-6 7 -3 13 7 13h80c6 0 10 -2 14 -6l53 -53l75 55c4 3 8 4 14 4h76c10 0 13 -7 6 -14l-111 -106c-4 -3 -8 -5 -14 -5zM614 699h93c8 0 11 -4 10 -12l-115 -677c-1 -7 -5 -10 -12 -10h-114c-7 0 -11 3 -13 9c-10 33 -22 68 -36 102
l-157 348c-10 24 -18 50 -25 72c-4 11 -16 7 -16 -4c-1 -45 -5 -85 -14 -139l-63 -378c-1 -7 -5 -10 -12 -10h-92c-8 0 -11 4 -10 12l114 677c1 7 5 10 12 10h114c7 0 11 -3 13 -9c9 -30 22 -66 36 -102l156 -344c10 -25 20 -53 27 -76c4 -13 15 -8 14 4c1 44 6 84 15 137
l63 380c1 7 5 10 12 10z" />
    <glyph glyph-name="Ncommaaccent" unicode="&#x145;" horiz-adv-x="718" 
d="M590 0h-114c-7 0 -11 3 -13 9c-10 33 -22 68 -36 102l-157 348c-10 24 -18 50 -25 72c-4 11 -16 7 -16 -4c-1 -45 -5 -85 -14 -139l-63 -378c-1 -7 -5 -10 -12 -10h-92c-8 0 -11 4 -10 12l114 677c1 7 5 10 12 10h114c7 0 11 -3 13 -9c9 -30 22 -66 36 -102l156 -344
c10 -25 20 -53 27 -76c4 -13 15 -8 14 4c1 44 6 84 15 137l63 380c1 7 5 10 12 10h93c8 0 11 -4 10 -12l-115 -677c-1 -7 -5 -10 -12 -10zM243 -218l24 34c10 14 8 22 -2 25c-15 5 -25 20 -25 38c0 30 20 57 61 57c28 0 46 -15 46 -42c0 -34 -24 -66 -41 -89l-20 -29
c-4 -5 -8 -7 -13 -7h-23c-10 0 -13 6 -7 13z" />
    <glyph glyph-name="Ndotaccent" unicode="&#x1e44;" horiz-adv-x="718" 
d="M465 900c39 0 61 -17 61 -48c0 -33 -20 -75 -82 -75c-41 0 -61 16 -61 48c0 35 18 75 82 75zM590 0h-114c-7 0 -11 3 -13 9c-10 33 -22 68 -36 102l-157 348c-10 24 -18 50 -25 72c-4 11 -16 7 -16 -4c-1 -45 -5 -85 -14 -139l-63 -378c-1 -7 -5 -10 -12 -10h-92
c-8 0 -11 4 -10 12l114 677c1 7 5 10 12 10h114c7 0 11 -3 13 -9c9 -30 22 -66 36 -102l156 -344c10 -25 20 -53 27 -76c4 -13 15 -8 14 4c1 44 6 84 15 137l63 380c1 7 5 10 12 10h93c8 0 11 -4 10 -12l-115 -677c-1 -7 -5 -10 -12 -10z" />
    <glyph glyph-name="Eng" unicode="&#x14a;" horiz-adv-x="703" 
d="M229 688l3 -64c7 -20 13 -19 29 -5c63 65 129 95 212 95c153 0 221 -105 192 -280l-71 -414c-22 -130 -112 -208 -238 -208c-29 0 -57 4 -91 16l-24 8c-7 3 -9 8 -5 15l39 74c3 6 8 8 15 5l20 -7c20 -6 38 -8 63 -8c55 0 97 41 107 105l69 401c20 119 -19 186 -110 186
c-120 0 -203 -97 -232 -269l-56 -328c-1 -7 -5 -10 -12 -10h-91c-8 0 -11 4 -10 12l114 677c1 7 5 10 12 10h53c7 0 11 -4 12 -11z" />
    <glyph glyph-name="Ntilde" unicode="&#xd1;" horiz-adv-x="718" 
d="M270 798l31 44c24 36 58 51 98 51c20 0 40 -7 57 -16l39 -17c10 -4 19 -7 25 -7c10 0 21 3 30 17l10 13c4 5 7 7 13 7h60c9 0 12 -6 7 -13l-32 -45c-25 -35 -58 -50 -98 -50c-20 0 -38 7 -56 15l-40 18c-9 3 -19 7 -26 7c-10 0 -20 -4 -29 -16l-11 -14
c-3 -5 -7 -7 -13 -7h-58c-9 0 -12 6 -7 13zM590 0h-114c-7 0 -11 3 -13 9c-10 33 -22 68 -36 102l-157 348c-10 24 -18 50 -25 72c-4 11 -16 7 -16 -4c-1 -45 -5 -85 -14 -139l-63 -378c-1 -7 -5 -10 -12 -10h-92c-8 0 -11 4 -10 12l114 677c1 7 5 10 12 10h114
c7 0 11 -3 13 -9c9 -30 22 -66 36 -102l156 -344c10 -25 20 -53 27 -76c4 -13 15 -8 14 4c1 44 6 84 15 137l63 380c1 7 5 10 12 10h93c8 0 11 -4 10 -12l-115 -677c-1 -7 -5 -10 -12 -10z" />
    <glyph glyph-name="O" unicode="O" horiz-adv-x="711" 
d="M428 709c164 0 257 -103 257 -274c0 -177 -97 -446 -366 -446c-164 0 -257 104 -257 274c0 178 96 446 366 446zM423 606c-182 0 -245 -211 -245 -340c0 -110 51 -173 146 -173c182 0 245 213 245 340c0 111 -51 173 -146 173z" />
    <glyph glyph-name="Oacute" unicode="&#xd3;" horiz-adv-x="711" 
d="M500 901h119c10 0 13 -7 5 -14l-123 -106c-4 -4 -8 -5 -14 -5h-84c-10 0 -13 6 -6 13l90 106c3 4 7 6 13 6zM428 709c164 0 257 -103 257 -274c0 -177 -97 -446 -366 -446c-164 0 -257 104 -257 274c0 178 96 446 366 446zM423 606c-182 0 -245 -211 -245 -340
c0 -110 51 -173 146 -173c182 0 245 213 245 340c0 111 -51 173 -146 173z" />
    <glyph glyph-name="Obreve" unicode="&#x14e;" horiz-adv-x="711" 
d="M612 889l-2 -11c-13 -76 -63 -112 -157 -112s-132 36 -119 112l2 13c1 7 4 10 11 10h66c8 0 11 -4 10 -12l-1 -5c-4 -26 9 -42 44 -42c34 0 52 16 57 42l1 7c1 7 5 10 12 10h66c8 0 11 -4 10 -12zM428 709c164 0 257 -103 257 -274c0 -177 -97 -446 -366 -446
c-164 0 -257 104 -257 274c0 178 96 446 366 446zM423 606c-182 0 -245 -211 -245 -340c0 -110 51 -173 146 -173c182 0 245 213 245 340c0 111 -51 173 -146 173z" />
    <glyph glyph-name="Ocaron" unicode="&#x1d1;" horiz-adv-x="711" 
d="M512 776h-110c-5 0 -9 2 -13 7l-77 105c-6 7 -3 13 7 13h80c6 0 10 -2 14 -6l53 -53l75 55c4 3 8 4 14 4h76c10 0 13 -7 6 -14l-111 -106c-4 -3 -8 -5 -14 -5zM428 709c164 0 257 -103 257 -274c0 -177 -97 -446 -366 -446c-164 0 -257 104 -257 274
c0 178 96 446 366 446zM324 93c182 0 245 213 245 340c0 111 -51 173 -146 173c-182 0 -245 -211 -245 -340c0 -110 51 -173 146 -173z" />
    <glyph glyph-name="Ocircumflex" unicode="&#xd4;" horiz-adv-x="711" 
d="M466 835l-75 -55c-4 -3 -8 -4 -14 -4h-76c-10 0 -13 7 -6 14l111 106c4 3 8 5 14 5h110c5 0 9 -2 13 -7l77 -105c6 -7 3 -13 -7 -13h-80c-6 0 -10 2 -14 6zM428 709c164 0 257 -103 257 -274c0 -177 -97 -446 -366 -446c-164 0 -257 104 -257 274c0 178 96 446 366 446z
M324 93c182 0 245 213 245 340c0 111 -51 173 -146 173c-182 0 -245 -211 -245 -340c0 -110 51 -173 146 -173z" />
    <glyph glyph-name="Odblgrave" unicode="&#x20c;" horiz-adv-x="711" 
d="M260 901h94c6 0 10 -2 13 -8l52 -104c4 -8 1 -13 -8 -13h-81c-6 0 -10 2 -14 7l-63 105c-5 7 -1 13 7 13zM445 901h93c6 0 10 -3 12 -9l43 -103c3 -8 -1 -13 -9 -13h-77c-6 0 -10 2 -13 8l-57 104c-4 8 -1 13 8 13zM428 709c164 0 257 -103 257 -274
c0 -177 -97 -446 -366 -446c-164 0 -257 104 -257 274c0 178 96 446 366 446zM423 606c-182 0 -245 -211 -245 -340c0 -110 51 -173 146 -173c182 0 245 213 245 340c0 111 -51 173 -146 173z" />
    <glyph glyph-name="Odieresis" unicode="&#xd6;" horiz-adv-x="711" 
d="M383 900c37 0 57 -17 57 -48c0 -33 -18 -75 -76 -75c-39 0 -58 16 -58 48c0 35 17 75 77 75zM572 900c37 0 57 -17 57 -48c0 -33 -18 -75 -76 -75c-39 0 -58 16 -58 48c0 35 17 75 77 75zM428 709c164 0 257 -103 257 -274c0 -177 -97 -446 -366 -446
c-164 0 -257 104 -257 274c0 178 96 446 366 446zM423 606c-182 0 -245 -211 -245 -340c0 -110 51 -173 146 -173c182 0 245 213 245 340c0 111 -51 173 -146 173z" />
    <glyph glyph-name="Odotbelow" unicode="&#x1ecc;" horiz-adv-x="711" 
d="M428 709c164 0 257 -103 257 -274c0 -177 -97 -446 -366 -446c-164 0 -257 104 -257 274c0 178 96 446 366 446zM423 606c-182 0 -245 -211 -245 -340c0 -110 51 -173 146 -173c182 0 245 213 245 340c0 111 -51 173 -146 173zM291 -80c39 0 61 -17 61 -48
c0 -33 -20 -75 -82 -75c-41 0 -61 16 -61 48c0 35 18 75 82 75z" />
    <glyph glyph-name="Ograve" unicode="&#xd2;" horiz-adv-x="711" 
d="M467 892l40 -103c3 -8 0 -13 -9 -13h-87c-5 0 -9 2 -13 7l-73 105c-5 7 -2 13 7 13h123c6 0 10 -3 12 -9zM428 709c164 0 257 -103 257 -274c0 -177 -97 -446 -366 -446c-164 0 -257 104 -257 274c0 178 96 446 366 446zM423 606c-182 0 -245 -211 -245 -340
c0 -110 51 -173 146 -173c182 0 245 213 245 340c0 111 -51 173 -146 173z" />
    <glyph glyph-name="Ohungarumlaut" unicode="&#x150;" horiz-adv-x="711" 
d="M482 888l-74 -105c-4 -5 -8 -7 -13 -7h-77c-9 0 -12 6 -7 13l61 104c3 6 7 8 13 8h91c9 0 12 -6 6 -13zM667 888l-82 -105c-3 -5 -7 -7 -13 -7h-81c-9 0 -12 6 -7 13l70 105c4 5 8 7 14 7h93c9 0 12 -6 6 -13zM428 709c164 0 257 -103 257 -274
c0 -177 -97 -446 -366 -446c-164 0 -257 104 -257 274c0 178 96 446 366 446zM423 606c-182 0 -245 -211 -245 -340c0 -110 51 -173 146 -173c182 0 245 213 245 340c0 111 -51 173 -146 173z" />
    <glyph glyph-name="Oinvertedbreve" unicode="&#x20e;" horiz-adv-x="711" 
d="M319 788l2 11c13 76 63 112 157 112s132 -36 119 -112l-2 -13c-1 -7 -4 -10 -11 -10h-66c-8 0 -11 4 -10 12l1 5c4 26 -9 42 -44 42c-34 0 -52 -16 -57 -42l-1 -7c-1 -7 -5 -10 -12 -10h-66c-8 0 -11 4 -10 12zM428 709c164 0 257 -103 257 -274
c0 -177 -97 -446 -366 -446c-164 0 -257 104 -257 274c0 178 96 446 366 446zM423 606c-182 0 -245 -211 -245 -340c0 -110 51 -173 146 -173c182 0 245 213 245 340c0 111 -51 173 -146 173z" />
    <glyph glyph-name="Omacron" unicode="&#x14c;" horiz-adv-x="711" 
d="M326 876h291c8 0 11 -4 10 -12l-10 -59c-1 -7 -5 -10 -12 -10h-292c-7 0 -11 4 -10 12l11 59c1 7 5 10 12 10zM428 709c164 0 257 -103 257 -274c0 -177 -97 -446 -366 -446c-164 0 -257 104 -257 274c0 178 96 446 366 446zM423 606c-182 0 -245 -211 -245 -340
c0 -110 51 -173 146 -173c182 0 245 213 245 340c0 111 -51 173 -146 173z" />
    <glyph glyph-name="Oogonek" unicode="&#x1ea;" horiz-adv-x="711" 
d="M500 40l-194 -139c-14 -10 -17 -21 -17 -30c0 -11 6 -17 18 -17c9 0 19 2 30 6l11 3c7 3 12 0 13 -8l10 -53c1 -7 -1 -11 -8 -13l-18 -6c-17 -6 -35 -9 -53 -9c-57 0 -92 27 -92 72c0 33 16 61 49 86l36 28c19 14 22 24 11 30c-150 9 -234 111 -234 273
c0 178 96 446 366 446c164 0 257 -103 257 -274c0 -129 -52 -308 -185 -395zM178 266c0 -110 51 -173 146 -173c182 0 245 213 245 340c0 111 -51 173 -146 173c-182 0 -245 -211 -245 -340z" />
    <glyph glyph-name="Oslash" unicode="&#xd8;" horiz-adv-x="721" 
d="M730 685l-80 -85c26 -44 40 -100 40 -165c0 -177 -97 -446 -366 -446c-75 0 -136 22 -179 62l-42 -45c-3 -4 -7 -6 -13 -6h-57c-9 0 -12 6 -6 14l79 85c-25 44 -39 99 -39 164c0 178 96 446 366 446c75 0 135 -21 178 -61l42 45c3 4 7 6 13 6h58c9 0 12 -6 6 -14z
M192 193l342 371c-25 28 -60 42 -106 42c-182 0 -245 -211 -245 -340c0 -27 3 -52 9 -73zM565 507l-342 -372c24 -27 60 -42 106 -42c182 0 245 213 245 340c0 28 -3 52 -9 74z" />
    <glyph glyph-name="Oslashacute" unicode="&#x1fe;" horiz-adv-x="721" 
d="M500 901h119c10 0 13 -7 5 -14l-123 -106c-4 -4 -8 -5 -14 -5h-84c-10 0 -13 6 -6 13l90 106c3 4 7 6 13 6zM729 685l-79 -85c26 -44 40 -100 40 -165c0 -177 -97 -446 -366 -446c-75 0 -136 22 -179 62l-42 -45c-3 -4 -7 -6 -13 -6h-57c-9 0 -12 6 -6 14l79 85
c-25 44 -39 99 -39 164c0 178 96 446 366 446c75 0 135 -21 178 -61l42 45c3 4 7 6 13 6h58c9 0 12 -6 5 -14zM192 193l342 371c-25 28 -60 42 -106 42c-182 0 -245 -211 -245 -340c0 -27 3 -52 9 -73zM565 507l-342 -372c24 -27 60 -42 106 -42c182 0 245 213 245 340
c0 28 -3 52 -9 74z" />
    <glyph glyph-name="Otilde" unicode="&#xd5;" horiz-adv-x="711" 
d="M281 798l31 44c24 36 58 51 98 51c20 0 40 -7 57 -16l39 -17c10 -4 19 -7 25 -7c10 0 21 3 30 17l10 13c4 5 7 7 13 7h60c9 0 12 -6 7 -13l-32 -45c-25 -35 -58 -50 -98 -50c-20 0 -38 7 -56 15l-40 18c-9 3 -19 7 -26 7c-10 0 -20 -4 -29 -16l-11 -14
c-3 -5 -7 -7 -13 -7h-58c-9 0 -12 6 -7 13zM428 709c164 0 257 -103 257 -274c0 -177 -97 -446 -366 -446c-164 0 -257 104 -257 274c0 178 96 446 366 446zM423 606c-182 0 -245 -211 -245 -340c0 -110 51 -173 146 -173c182 0 245 213 245 340c0 111 -51 173 -146 173z
" />
    <glyph glyph-name="OE" unicode="&#x152;" horiz-adv-x="1060" 
d="M513 12l8 50c2 17 -4 19 -21 3c-47 -46 -107 -76 -190 -76c-154 0 -247 104 -247 277c0 203 112 443 366 443c83 0 134 -31 166 -77c10 -13 20 -18 24 2l8 55c1 7 5 10 12 10h442c8 0 12 -5 8 -13l-35 -80c-3 -5 -7 -8 -13 -8h-333l-32 -191h278c8 0 11 -4 10 -12
l-14 -78c-1 -7 -5 -10 -12 -10h-279l-35 -206h356c8 0 11 -4 10 -12l-14 -79c-1 -7 -5 -10 -12 -10h-441c-8 0 -11 4 -10 12zM416 606c-145 0 -238 -161 -238 -335c0 -123 54 -178 146 -178c148 0 235 171 235 330c0 114 -47 183 -143 183z" />
    <glyph glyph-name="P" unicode="P" horiz-adv-x="635" 
d="M164 699h253c139 0 216 -77 208 -207c-8 -157 -131 -246 -331 -246h-103l-39 -236c-1 -7 -5 -10 -12 -10h-92c-8 0 -11 4 -10 12l114 677c1 7 5 10 12 10zM251 598l-42 -252h96c122 0 198 50 205 141c6 70 -33 111 -104 111h-155z" />
    <glyph glyph-name="Thorn" unicode="&#xde;" horiz-adv-x="640" 
d="M249 581h139c140 0 219 -74 219 -192c0 -136 -85 -263 -293 -263h-143l-19 -116c-1 -7 -5 -10 -12 -10h-92c-8 0 -11 4 -10 12l114 677c1 7 5 10 12 10h92c8 0 11 -4 10 -12zM231 481l-42 -254h140c116 0 162 81 162 147c0 62 -41 107 -117 107h-143z" />
    <glyph glyph-name="Q" unicode="Q" horiz-adv-x="711" 
d="M637 -120l-74 -47c-6 -4 -11 -3 -15 3l-35 58c-37 63 -89 95 -193 95c-161 0 -257 102 -257 275c0 202 111 445 365 445c162 0 257 -102 257 -275c0 -179 -82 -329 -181 -377c-13 -7 -14 -10 -2 -14c47 -19 78 -46 104 -91l34 -57c4 -6 3 -11 -3 -15zM178 268
c0 -120 57 -175 146 -175c167 0 246 184 246 336c0 118 -53 177 -146 177c-169 0 -246 -191 -246 -338z" />
    <glyph glyph-name="R" unicode="R" horiz-adv-x="671" 
d="M164 699h273c129 0 197 -71 197 -177c0 -105 -63 -170 -162 -205c-16 -5 -16 -12 -6 -18c42 -25 63 -71 76 -116l43 -171c2 -7 -2 -12 -10 -12h-92c-7 0 -11 3 -12 9l-33 128c-22 88 -64 135 -171 135h-71l-44 -262c-1 -7 -5 -10 -12 -10h-92c-8 0 -11 4 -10 12l114 677
c1 7 5 10 12 10zM214 373h113c125 0 191 59 191 134c0 58 -37 91 -99 91h-168z" />
    <glyph glyph-name="Racute" unicode="&#x154;" horiz-adv-x="671" 
d="M457 901h119c10 0 13 -7 5 -14l-123 -106c-4 -4 -8 -5 -14 -5h-84c-10 0 -13 6 -6 13l90 106c3 4 7 6 13 6zM164 699h273c129 0 197 -71 197 -177c0 -105 -63 -170 -162 -205c-16 -5 -16 -12 -6 -18c42 -25 63 -71 76 -116l43 -171c2 -7 -2 -12 -10 -12h-92
c-7 0 -11 3 -12 9l-33 128c-22 88 -64 135 -171 135h-71l-44 -262c-1 -7 -5 -10 -12 -10h-92c-8 0 -11 4 -10 12l114 677c1 7 5 10 12 10zM214 373h113c125 0 191 59 191 134c0 58 -37 91 -99 91h-168z" />
    <glyph glyph-name="Rcaron" unicode="&#x158;" horiz-adv-x="671" 
d="M468 776h-110c-5 0 -9 2 -13 7l-77 105c-6 7 -3 13 7 13h80c6 0 10 -2 14 -6l53 -53l75 55c4 3 8 4 14 4h76c10 0 13 -7 6 -14l-111 -106c-4 -3 -8 -5 -14 -5zM164 699h273c129 0 197 -71 197 -177c0 -105 -63 -170 -162 -205c-16 -5 -16 -12 -6 -18
c42 -25 63 -71 76 -116l43 -171c2 -7 -2 -12 -10 -12h-92c-7 0 -11 3 -12 9l-33 128c-22 88 -64 135 -171 135h-71l-44 -262c-1 -7 -5 -10 -12 -10h-92c-8 0 -11 4 -10 12l114 677c1 7 5 10 12 10zM214 373h113c125 0 191 59 191 134c0 58 -37 91 -99 91h-168z" />
    <glyph glyph-name="Rcommaaccent" unicode="&#x156;" horiz-adv-x="671" 
d="M164 699h273c129 0 197 -71 197 -177c0 -105 -63 -170 -162 -205c-16 -5 -16 -12 -6 -18c42 -25 63 -71 76 -116l43 -171c2 -7 -2 -12 -10 -12h-92c-7 0 -11 3 -12 9l-33 128c-22 88 -64 135 -171 135h-71l-44 -262c-1 -7 -5 -10 -12 -10h-92c-8 0 -11 4 -10 12l114 677
c1 7 5 10 12 10zM214 373h113c125 0 191 59 191 134c0 58 -37 91 -99 91h-168zM216 -218l24 34c10 14 8 22 -2 25c-15 5 -25 20 -25 38c0 30 20 57 61 57c28 0 46 -15 46 -42c0 -34 -24 -66 -41 -89l-20 -29c-4 -5 -8 -7 -13 -7h-23c-10 0 -13 6 -7 13z" />
    <glyph glyph-name="Rdblgrave" unicode="&#x210;" horiz-adv-x="671" 
d="M216 901h94c6 0 10 -2 13 -8l52 -104c4 -8 1 -13 -8 -13h-81c-6 0 -10 2 -14 7l-63 105c-5 7 -1 13 7 13zM401 901h93c6 0 10 -3 12 -9l43 -103c3 -8 -1 -13 -9 -13h-77c-6 0 -10 2 -13 8l-57 104c-4 8 -1 13 8 13zM164 699h273c129 0 197 -71 197 -177
c0 -105 -63 -170 -162 -205c-16 -5 -16 -12 -6 -18c42 -25 63 -71 76 -116l43 -171c2 -7 -2 -12 -10 -12h-92c-7 0 -11 3 -12 9l-33 128c-22 88 -64 135 -171 135h-71l-44 -262c-1 -7 -5 -10 -12 -10h-92c-8 0 -11 4 -10 12l114 677c1 7 5 10 12 10zM214 373h113
c125 0 191 59 191 134c0 58 -37 91 -99 91h-168z" />
    <glyph glyph-name="Rdotbelow" unicode="&#x1e5a;" horiz-adv-x="671" 
d="M164 699h273c129 0 197 -71 197 -177c0 -105 -63 -170 -162 -205c-16 -5 -16 -12 -6 -18c42 -25 63 -71 76 -116l43 -171c2 -7 -2 -12 -10 -12h-92c-7 0 -11 3 -12 9l-33 128c-22 88 -64 135 -171 135h-71l-44 -262c-1 -7 -5 -10 -12 -10h-92c-8 0 -11 4 -10 12l114 677
c1 7 5 10 12 10zM214 373h113c125 0 191 59 191 134c0 58 -37 91 -99 91h-168zM271 -80c39 0 61 -17 61 -48c0 -33 -20 -75 -82 -75c-41 0 -61 16 -61 48c0 35 18 75 82 75z" />
    <glyph glyph-name="Rinvertedbreve" unicode="&#x212;" horiz-adv-x="671" 
d="M276 788l2 11c13 76 63 112 157 112s132 -36 119 -112l-2 -13c-1 -7 -4 -10 -11 -10h-66c-8 0 -11 4 -10 12l1 5c4 26 -9 42 -44 42c-34 0 -52 -16 -57 -42l-1 -7c-1 -7 -5 -10 -12 -10h-66c-8 0 -11 4 -10 12zM164 699h273c129 0 197 -71 197 -177
c0 -105 -63 -170 -162 -205c-16 -5 -16 -12 -6 -18c42 -25 63 -71 76 -116l43 -171c2 -7 -2 -12 -10 -12h-92c-7 0 -11 3 -12 9l-33 128c-22 88 -64 135 -171 135h-71l-44 -262c-1 -7 -5 -10 -12 -10h-92c-8 0 -11 4 -10 12l114 677c1 7 5 10 12 10zM214 373h113
c125 0 191 59 191 134c0 58 -37 91 -99 91h-168z" />
    <glyph glyph-name="S" unicode="S" horiz-adv-x="606" 
d="M353 287l-109 43c-97 39 -138 80 -138 155c0 103 65 224 268 224c55 0 105 -11 155 -28l55 -18c7 -3 9 -8 5 -15l-39 -74c-3 -6 -8 -8 -15 -6l-49 18c-37 12 -77 20 -120 20c-88 0 -145 -41 -145 -106c0 -30 18 -55 78 -79l104 -41c95 -38 146 -81 146 -160
c0 -106 -69 -231 -284 -231c-66 0 -124 14 -187 37l-50 17c-7 3 -9 8 -6 15l38 74c3 6 8 8 15 5l46 -17c48 -17 94 -27 153 -27c96 0 160 44 160 107c0 40 -29 67 -81 87z" />
    <glyph glyph-name="Sacute" unicode="&#x15a;" horiz-adv-x="606" 
d="M431 900h119c10 0 13 -7 5 -14l-123 -106c-4 -4 -8 -5 -14 -5h-84c-10 0 -13 6 -6 13l90 106c3 4 7 6 13 6zM353 287l-109 43c-97 39 -138 80 -138 155c0 103 65 224 268 224c55 0 105 -11 155 -28l55 -18c7 -3 9 -8 5 -15l-39 -74c-3 -6 -8 -8 -15 -6l-49 18
c-37 12 -77 20 -120 20c-88 0 -145 -41 -145 -106c0 -30 18 -55 78 -79l104 -41c95 -38 146 -81 146 -160c0 -106 -69 -231 -284 -231c-66 0 -124 14 -187 37l-50 17c-7 3 -9 8 -6 15l38 74c3 6 8 8 15 5l46 -17c48 -17 94 -27 153 -27c96 0 160 44 160 107
c0 40 -29 67 -81 87z" />
    <glyph glyph-name="Scaron" unicode="&#x160;" horiz-adv-x="606" 
d="M442 774h-110c-5 0 -9 2 -13 7l-77 105c-6 7 -3 13 7 13h80c6 0 10 -2 14 -6l53 -53l75 55c4 3 8 4 14 4h76c10 0 13 -7 6 -14l-111 -106c-4 -3 -8 -5 -14 -5zM299 421l104 -41c95 -38 146 -81 146 -160c0 -106 -69 -231 -284 -231c-66 0 -124 14 -187 37l-50 17
c-7 3 -9 8 -6 15l38 74c3 6 8 8 15 5l46 -17c48 -17 94 -27 153 -27c96 0 160 44 160 107c0 40 -29 67 -81 87l-109 43c-97 39 -138 80 -138 155c0 103 65 224 268 224c55 0 105 -11 155 -28l55 -18c7 -3 9 -8 5 -15l-39 -74c-3 -6 -8 -8 -15 -6l-49 18
c-37 12 -77 20 -120 20c-88 0 -145 -41 -145 -106c0 -30 18 -55 78 -79z" />
    <glyph glyph-name="Scedilla" unicode="&#x15e;" horiz-adv-x="606" 
d="M299 421l104 -41c95 -38 146 -81 146 -160c0 -101 -63 -220 -257 -230l-17 -31h6c40 0 66 -26 66 -69c0 -51 -32 -116 -122 -116c-19 0 -34 3 -50 8l-15 6c-7 2 -9 8 -6 14l27 52c3 6 8 8 15 6l13 -5c10 -3 18 -4 28 -4c25 0 39 14 39 35c0 15 -11 24 -31 24h-34
c-6 0 -10 2 -14 7c-2 4 -2 8 1 13l31 60c-52 4 -100 17 -151 36l-50 17c-7 3 -9 8 -6 15l38 74c3 6 8 8 15 5l46 -17c48 -17 94 -27 153 -27c96 0 160 44 160 107c0 40 -29 67 -81 87l-109 43c-97 39 -138 80 -138 155c0 103 65 224 268 224c55 0 105 -11 155 -28l55 -18
c7 -3 9 -8 5 -15l-39 -74c-3 -6 -8 -8 -15 -6l-49 18c-37 12 -77 20 -120 20c-88 0 -145 -41 -145 -106c0 -30 18 -55 78 -79z" />
    <glyph glyph-name="Scircumflex" unicode="&#x15c;" horiz-adv-x="606" 
d="M397 834l-75 -55c-4 -3 -8 -4 -14 -4h-76c-10 0 -13 7 -6 14l111 106c4 3 8 5 14 5h110c5 0 9 -2 13 -7l77 -105c6 -7 3 -13 -7 -13h-80c-6 0 -10 2 -14 6zM299 421l104 -41c95 -38 146 -81 146 -160c0 -106 -69 -231 -284 -231c-66 0 -124 14 -187 37l-50 17
c-7 3 -9 8 -6 15l38 74c3 6 8 8 15 5l46 -17c48 -17 94 -27 153 -27c96 0 160 44 160 107c0 40 -29 67 -81 87l-109 43c-97 39 -138 80 -138 155c0 103 65 224 268 224c55 0 105 -11 155 -28l55 -18c7 -3 9 -8 5 -15l-39 -74c-3 -6 -8 -8 -15 -6l-49 18
c-37 12 -77 20 -120 20c-88 0 -145 -41 -145 -106c0 -30 18 -55 78 -79z" />
    <glyph glyph-name="Scommaaccent" unicode="&#x218;" horiz-adv-x="606" 
d="M353 287l-109 43c-97 39 -138 80 -138 155c0 103 65 224 268 224c55 0 105 -11 155 -28l55 -18c7 -3 9 -8 5 -15l-39 -74c-3 -6 -8 -8 -15 -6l-49 18c-37 12 -77 20 -120 20c-88 0 -145 -41 -145 -106c0 -30 18 -55 78 -79l104 -41c95 -38 146 -81 146 -160
c0 -106 -69 -231 -284 -231c-66 0 -124 14 -187 37l-50 17c-7 3 -9 8 -6 15l38 74c3 6 8 8 15 5l46 -17c48 -17 94 -27 153 -27c96 0 160 44 160 107c0 40 -29 67 -81 87zM191 -218l24 34c10 14 8 22 -2 25c-15 5 -25 20 -25 38c0 30 20 57 61 57c28 0 46 -15 46 -42
c0 -34 -24 -66 -41 -89l-20 -29c-4 -5 -8 -7 -13 -7h-23c-10 0 -13 6 -7 13z" />
    <glyph glyph-name="Sdotbelow" unicode="&#x1e62;" horiz-adv-x="606" 
d="M353 287l-109 43c-97 39 -138 80 -138 155c0 103 65 224 268 224c55 0 105 -11 155 -28l55 -18c7 -3 9 -8 5 -15l-39 -74c-3 -6 -8 -8 -15 -6l-49 18c-37 12 -77 20 -120 20c-88 0 -145 -41 -145 -106c0 -30 18 -55 78 -79l104 -41c95 -38 146 -81 146 -160
c0 -106 -69 -231 -284 -231c-66 0 -124 14 -187 37l-50 17c-7 3 -9 8 -6 15l38 74c3 6 8 8 15 5l46 -17c48 -17 94 -27 153 -27c96 0 160 44 160 107c0 40 -29 67 -81 87zM247 -80c39 0 61 -17 61 -48c0 -33 -20 -75 -82 -75c-41 0 -61 16 -61 48c0 35 18 75 82 75z" />
    <glyph glyph-name="uni1E9E" unicode="&#x1e9e;" horiz-adv-x="734" 
d="M693 691l4 -10c2 -6 1 -10 -2 -15c-25 -32 -49 -63 -73 -99l-111 -158c-8 -13 -7 -16 2 -20l63 -27c75 -31 108 -78 108 -144c0 -126 -81 -229 -280 -229c-46 0 -92 12 -135 25l-44 13c-7 3 -9 8 -6 15l37 75c3 6 8 8 15 6l39 -13c31 -10 68 -17 98 -17
c101 0 161 39 161 111c0 33 -22 54 -65 72l-133 56c-5 2 -8 5 -10 10l-3 7c-2 6 -2 10 2 15l115 164c16 23 30 42 43 54c10 10 10 16 -5 16h-174c-53 0 -99 -45 -112 -121l-78 -467c-1 -7 -5 -10 -12 -10h-93c-8 0 -11 4 -10 12l80 473c24 137 109 214 236 214h330
c6 0 10 -3 13 -8z" />
    <glyph glyph-name="Schwa" unicode="&#x18f;" horiz-adv-x="651" 
d="M167 671l48 14c51 17 100 24 156 24c160 0 253 -100 254 -269c1 -186 -98 -451 -364 -451c-141 0 -222 68 -223 180c-1 133 71 200 228 231l241 48c-4 69 -32 158 -140 158c-45 0 -88 -7 -134 -21l-46 -14c-7 -2 -12 1 -13 8l-15 79c-1 6 1 11 8 13zM499 344l-226 -45
c-84 -17 -121 -53 -120 -120c0 -53 41 -86 112 -86c121 0 208 104 234 251z" />
    <glyph glyph-name="T" unicode="T" horiz-adv-x="639" 
d="M676 687l-14 -79c-1 -7 -5 -10 -12 -10h-212l-99 -588c-1 -7 -5 -10 -12 -10h-93c-8 0 -11 4 -10 12l99 586h-212c-8 0 -11 4 -10 12l14 79c1 7 5 10 12 10h539c8 0 11 -4 10 -12z" />
    <glyph glyph-name="Tbar" unicode="&#x166;" horiz-adv-x="659" 
d="M448 598l-33 -194h135c8 0 11 -4 10 -12l-14 -78c-1 -7 -5 -10 -12 -10h-136l-49 -294c-1 -7 -5 -10 -12 -10h-93c-8 0 -11 4 -10 12l49 292h-133c-8 0 -11 4 -10 12l13 78c1 7 5 10 12 10h135l33 194h-212c-8 0 -11 4 -10 12l14 79c1 7 5 10 12 10h539c8 0 11 -4 10 -12
l-14 -79c-1 -7 -5 -10 -12 -10h-212z" />
    <glyph glyph-name="Tcaron" unicode="&#x164;" horiz-adv-x="639" 
d="M467 776h-110c-5 0 -9 2 -13 7l-77 105c-6 7 -3 13 7 13h80c6 0 10 -2 14 -6l53 -53l75 55c4 3 8 4 14 4h76c10 0 13 -7 6 -14l-111 -106c-4 -3 -8 -5 -14 -5zM127 699h539c8 0 11 -4 10 -12l-14 -79c-1 -7 -5 -10 -12 -10h-212l-99 -588c-1 -7 -5 -10 -12 -10h-93
c-8 0 -11 4 -10 12l99 586h-212c-8 0 -11 4 -10 12l14 79c1 7 5 10 12 10z" />
    <glyph glyph-name="Tcedilla" unicode="&#x162;" horiz-adv-x="639" 
d="M127 699h539c8 0 11 -4 10 -12l-14 -79c-1 -7 -5 -10 -12 -10h-212l-99 -588c-1 -7 -5 -10 -12 -10h-10l-23 -41h6c40 0 66 -26 66 -69c0 -51 -32 -116 -122 -116c-19 0 -34 3 -50 8l-15 6c-7 2 -9 8 -6 14l27 52c3 6 8 8 15 6l13 -5c10 -3 18 -4 28 -4c25 0 39 14 39 35
c0 15 -11 24 -31 24h-34c-6 0 -10 2 -14 7c-2 4 -2 8 1 13l36 70h-19c-8 0 -11 4 -10 12l99 586h-212c-8 0 -11 4 -10 12l14 79c1 7 5 10 12 10z" />
    <glyph glyph-name="uni021A" unicode="&#x21a;" horiz-adv-x="639" 
d="M438 598l-99 -588c-1 -7 -5 -10 -12 -10h-93c-8 0 -11 4 -10 12l99 586h-212c-8 0 -11 4 -10 12l14 79c1 7 5 10 12 10h539c8 0 11 -4 10 -12l-14 -79c-1 -7 -5 -10 -12 -10h-212zM210 -218l24 34c10 14 8 22 -2 25c-15 5 -25 20 -25 38c0 30 20 57 61 57
c28 0 46 -15 46 -42c0 -34 -24 -66 -41 -89l-20 -29c-4 -5 -8 -7 -13 -7h-23c-10 0 -13 6 -7 13z" />
    <glyph glyph-name="Tdotbelow" unicode="&#x1e6c;" horiz-adv-x="639" 
d="M438 598l-99 -588c-1 -7 -5 -10 -12 -10h-93c-8 0 -11 4 -10 12l99 586h-212c-8 0 -11 4 -10 12l14 79c1 7 5 10 12 10h539c8 0 11 -4 10 -12l-14 -79c-1 -7 -5 -10 -12 -10h-212zM265 -80c39 0 61 -17 61 -48c0 -33 -20 -75 -82 -75c-41 0 -61 16 -61 48
c0 35 18 75 82 75z" />
    <glyph glyph-name="U" unicode="U" horiz-adv-x="672" 
d="M681 687l-70 -409c-31 -185 -148 -289 -315 -289c-172 0 -254 110 -222 295l68 405c1 7 5 10 12 10h92c8 0 11 -4 10 -12l-70 -409c-19 -120 24 -185 119 -185c102 0 174 71 193 191l69 405c1 7 5 10 12 10h92c8 0 11 -4 10 -12z" />
    <glyph glyph-name="Uacute" unicode="&#xda;" horiz-adv-x="672" 
d="M470 901h119c10 0 13 -7 5 -14l-123 -106c-4 -4 -8 -5 -14 -5h-84c-10 0 -13 6 -6 13l90 106c3 4 7 6 13 6zM681 687l-70 -409c-31 -185 -148 -289 -315 -289c-172 0 -254 110 -222 295l68 405c1 7 5 10 12 10h92c8 0 11 -4 10 -12l-70 -409c-19 -120 24 -185 119 -185
c102 0 174 71 193 191l69 405c1 7 5 10 12 10h92c8 0 11 -4 10 -12z" />
    <glyph glyph-name="Ubreve" unicode="&#x16c;" horiz-adv-x="672" 
d="M582 889l-2 -11c-13 -76 -63 -112 -157 -112s-132 36 -119 112l2 13c1 7 4 10 11 10h66c8 0 11 -4 10 -12l-1 -5c-4 -26 9 -42 44 -42c34 0 52 16 57 42l1 7c1 7 5 10 12 10h66c8 0 11 -4 10 -12zM681 687l-70 -409c-31 -185 -148 -289 -315 -289
c-172 0 -254 110 -222 295l68 405c1 7 5 10 12 10h92c8 0 11 -4 10 -12l-70 -409c-19 -120 24 -185 119 -185c102 0 174 71 193 191l69 405c1 7 5 10 12 10h92c8 0 11 -4 10 -12z" />
    <glyph glyph-name="Ucaron" unicode="&#x1d3;" horiz-adv-x="672" 
d="M482 776h-110c-5 0 -9 2 -13 7l-77 105c-6 7 -3 13 7 13h80c6 0 10 -2 14 -6l53 -53l75 55c4 3 8 4 14 4h76c10 0 13 -7 6 -14l-111 -106c-4 -3 -8 -5 -14 -5zM579 699h92c8 0 11 -4 10 -12l-70 -409c-31 -185 -148 -289 -315 -289c-172 0 -254 110 -222 295l68 405
c1 7 5 10 12 10h92c8 0 11 -4 10 -12l-70 -409c-19 -120 24 -185 119 -185c102 0 174 71 193 191l69 405c1 7 5 10 12 10z" />
    <glyph glyph-name="Ucircumflex" unicode="&#xdb;" horiz-adv-x="672" 
d="M436 835l-75 -55c-4 -3 -8 -4 -14 -4h-76c-10 0 -13 7 -6 14l111 106c4 3 8 5 14 5h110c5 0 9 -2 13 -7l77 -105c6 -7 3 -13 -7 -13h-80c-6 0 -10 2 -14 6zM579 699h92c8 0 11 -4 10 -12l-70 -409c-31 -185 -148 -289 -315 -289c-172 0 -254 110 -222 295l68 405
c1 7 5 10 12 10h92c8 0 11 -4 10 -12l-70 -409c-19 -120 24 -185 119 -185c102 0 174 71 193 191l69 405c1 7 5 10 12 10z" />
    <glyph glyph-name="Udblgrave" unicode="&#x214;" horiz-adv-x="672" 
d="M230 901h94c6 0 10 -2 13 -8l52 -104c4 -8 1 -13 -8 -13h-81c-6 0 -10 2 -14 7l-63 105c-5 7 -1 13 7 13zM415 901h93c6 0 10 -3 12 -9l43 -103c3 -8 -1 -13 -9 -13h-77c-6 0 -10 2 -13 8l-57 104c-4 8 -1 13 8 13zM681 687l-70 -409c-31 -185 -148 -289 -315 -289
c-172 0 -254 110 -222 295l68 405c1 7 5 10 12 10h92c8 0 11 -4 10 -12l-70 -409c-19 -120 24 -185 119 -185c102 0 174 71 193 191l69 405c1 7 5 10 12 10h92c8 0 11 -4 10 -12z" />
    <glyph glyph-name="Udieresis" unicode="&#xdc;" horiz-adv-x="672" 
d="M353 900c37 0 57 -17 57 -48c0 -33 -18 -75 -76 -75c-39 0 -58 16 -58 48c0 35 17 75 77 75zM542 900c37 0 57 -17 57 -48c0 -33 -18 -75 -76 -75c-39 0 -58 16 -58 48c0 35 17 75 77 75zM681 687l-70 -409c-31 -185 -148 -289 -315 -289c-172 0 -254 110 -222 295
l68 405c1 7 5 10 12 10h92c8 0 11 -4 10 -12l-70 -409c-19 -120 24 -185 119 -185c102 0 174 71 193 191l69 405c1 7 5 10 12 10h92c8 0 11 -4 10 -12z" />
    <glyph glyph-name="Udieresisacute" unicode="&#x1d7;" horiz-adv-x="672" 
d="M509 1028h119c10 0 13 -7 5 -14l-123 -106c-4 -4 -8 -5 -14 -5h-84c-10 0 -13 6 -6 13l90 106c3 4 7 6 13 6zM346 869c37 0 57 -17 57 -48c0 -33 -18 -75 -76 -75c-39 0 -58 16 -58 48c0 35 17 75 77 75zM535 869c37 0 57 -17 57 -48c0 -33 -18 -75 -76 -75
c-39 0 -58 16 -58 48c0 35 17 75 77 75zM681 687l-70 -409c-31 -185 -148 -289 -315 -289c-172 0 -254 110 -222 295l68 405c1 7 5 10 12 10h92c8 0 11 -4 10 -12l-70 -409c-19 -120 24 -185 119 -185c102 0 174 71 193 191l69 405c1 7 5 10 12 10h92c8 0 11 -4 10 -12z" />
    <glyph glyph-name="Udieresiscaron" unicode="&#x1d9;" horiz-adv-x="672" 
d="M511 903h-110c-5 0 -9 2 -13 7l-77 105c-6 7 -3 13 7 13h80c6 0 10 -2 14 -6l53 -53l75 55c4 3 8 4 14 4h76c10 0 13 -7 6 -14l-111 -106c-4 -3 -8 -5 -14 -5zM327 746c-39 0 -58 16 -58 48c0 35 17 75 77 75c37 0 57 -17 57 -48c0 -33 -18 -75 -76 -75zM458 794
c0 35 17 75 77 75c37 0 57 -17 57 -48c0 -33 -18 -75 -76 -75c-39 0 -58 16 -58 48zM579 699h92c8 0 11 -4 10 -12l-70 -409c-31 -185 -148 -289 -315 -289c-172 0 -254 110 -222 295l68 405c1 7 5 10 12 10h92c8 0 11 -4 10 -12l-70 -409c-19 -120 24 -185 119 -185
c102 0 174 71 193 191l69 405c1 7 5 10 12 10z" />
    <glyph glyph-name="Udieresisgrave" unicode="&#x1db;" horiz-adv-x="672" 
d="M458 1019l40 -103c3 -8 0 -13 -9 -13h-87c-5 0 -9 2 -13 7l-73 105c-5 7 -2 13 7 13h123c6 0 10 -3 12 -9zM346 869c37 0 57 -17 57 -48c0 -33 -18 -75 -76 -75c-39 0 -58 16 -58 48c0 35 17 75 77 75zM535 869c37 0 57 -17 57 -48c0 -33 -18 -75 -76 -75
c-39 0 -58 16 -58 48c0 35 17 75 77 75zM681 687l-70 -409c-31 -185 -148 -289 -315 -289c-172 0 -254 110 -222 295l68 405c1 7 5 10 12 10h92c8 0 11 -4 10 -12l-70 -409c-19 -120 24 -185 119 -185c102 0 174 71 193 191l69 405c1 7 5 10 12 10h92c8 0 11 -4 10 -12z" />
    <glyph glyph-name="Udieresismacron" unicode="&#x1d5;" horiz-adv-x="672" 
d="M324 1003h291c8 0 11 -4 10 -12l-10 -59c-1 -7 -5 -10 -12 -10h-292c-7 0 -11 4 -10 12l11 59c1 7 5 10 12 10zM346 869c37 0 57 -17 57 -48c0 -33 -18 -75 -76 -75c-39 0 -58 16 -58 48c0 35 17 75 77 75zM535 869c37 0 57 -17 57 -48c0 -33 -18 -75 -76 -75
c-39 0 -58 16 -58 48c0 35 17 75 77 75zM681 687l-70 -409c-31 -185 -148 -289 -315 -289c-172 0 -254 110 -222 295l68 405c1 7 5 10 12 10h92c8 0 11 -4 10 -12l-70 -409c-19 -120 24 -185 119 -185c102 0 174 71 193 191l69 405c1 7 5 10 12 10h92c8 0 11 -4 10 -12z" />
    <glyph glyph-name="Udotbelow" unicode="&#x1ee4;" horiz-adv-x="672" 
d="M681 687l-70 -409c-31 -185 -148 -289 -315 -289c-172 0 -254 110 -222 295l68 405c1 7 5 10 12 10h92c8 0 11 -4 10 -12l-70 -409c-19 -120 24 -185 119 -185c102 0 174 71 193 191l69 405c1 7 5 10 12 10h92c8 0 11 -4 10 -12zM282 -80c39 0 61 -17 61 -48
c0 -33 -20 -75 -82 -75c-41 0 -61 16 -61 48c0 35 18 75 82 75z" />
    <glyph glyph-name="Ugrave" unicode="&#xd9;" horiz-adv-x="672" 
d="M437 892l40 -103c3 -8 0 -13 -9 -13h-87c-5 0 -9 2 -13 7l-73 105c-5 7 -2 13 7 13h123c6 0 10 -3 12 -9zM681 687l-70 -409c-31 -185 -148 -289 -315 -289c-172 0 -254 110 -222 295l68 405c1 7 5 10 12 10h92c8 0 11 -4 10 -12l-70 -409c-19 -120 24 -185 119 -185
c102 0 174 71 193 191l69 405c1 7 5 10 12 10h92c8 0 11 -4 10 -12z" />
    <glyph glyph-name="Uhungarumlaut" unicode="&#x170;" horiz-adv-x="672" 
d="M452 888l-74 -105c-4 -5 -8 -7 -13 -7h-77c-9 0 -12 6 -7 13l61 104c3 6 7 8 13 8h91c9 0 12 -6 6 -13zM637 888l-82 -105c-3 -5 -7 -7 -13 -7h-81c-9 0 -12 6 -7 13l70 105c4 5 8 7 14 7h93c9 0 12 -6 6 -13zM681 687l-70 -409c-31 -185 -148 -289 -315 -289
c-172 0 -254 110 -222 295l68 405c1 7 5 10 12 10h92c8 0 11 -4 10 -12l-70 -409c-19 -120 24 -185 119 -185c102 0 174 71 193 191l69 405c1 7 5 10 12 10h92c8 0 11 -4 10 -12z" />
    <glyph glyph-name="Uinvertedbreve" unicode="&#x216;" horiz-adv-x="672" 
d="M289 788l2 11c13 76 63 112 157 112s132 -36 119 -112l-2 -13c-1 -7 -4 -10 -11 -10h-66c-8 0 -11 4 -10 12l1 5c4 26 -9 42 -44 42c-34 0 -52 -16 -57 -42l-1 -7c-1 -7 -5 -10 -12 -10h-66c-8 0 -11 4 -10 12zM681 687l-70 -409c-31 -185 -148 -289 -315 -289
c-172 0 -254 110 -222 295l68 405c1 7 5 10 12 10h92c8 0 11 -4 10 -12l-70 -409c-19 -120 24 -185 119 -185c102 0 174 71 193 191l69 405c1 7 5 10 12 10h92c8 0 11 -4 10 -12z" />
    <glyph glyph-name="Umacron" unicode="&#x16a;" horiz-adv-x="672" 
d="M296 876h291c8 0 11 -4 10 -12l-10 -59c-1 -7 -5 -10 -12 -10h-292c-7 0 -11 4 -10 12l11 59c1 7 5 10 12 10zM681 687l-70 -409c-31 -185 -148 -289 -315 -289c-172 0 -254 110 -222 295l68 405c1 7 5 10 12 10h92c8 0 11 -4 10 -12l-70 -409c-19 -120 24 -185 119 -185
c102 0 174 71 193 191l69 405c1 7 5 10 12 10h92c8 0 11 -4 10 -12z" />
    <glyph glyph-name="Uogonek" unicode="&#x172;" horiz-adv-x="672" 
d="M579 699h92c8 0 11 -4 10 -12l-70 -409c-19 -112 -69 -194 -143 -242l-181 -135c-14 -10 -17 -20 -17 -30c0 -11 6 -17 18 -17c10 0 19 2 30 6l11 3c7 3 12 0 13 -8l10 -53c1 -7 -1 -11 -8 -13l-18 -6c-17 -6 -34 -9 -53 -9c-57 0 -92 27 -92 72c0 33 16 61 49 86l37 28
c21 16 22 25 7 30c-157 9 -231 117 -200 294l68 405c1 7 5 10 12 10h92c8 0 11 -4 10 -12l-70 -409c-19 -120 24 -185 119 -185c102 0 174 71 193 191l69 405c1 7 5 10 12 10z" />
    <glyph glyph-name="Uring" unicode="&#x16e;" horiz-adv-x="672" 
d="M448 917c52 0 82 -25 82 -67c0 -57 -43 -93 -110 -93c-52 0 -81 25 -81 67c0 57 42 93 109 93zM439 870c-26 0 -42 -16 -42 -40c0 -16 11 -27 32 -27c26 0 43 15 43 39c0 18 -12 28 -33 28zM681 687l-70 -409c-31 -185 -148 -289 -315 -289c-172 0 -254 110 -222 295
l68 405c1 7 5 10 12 10h92c8 0 11 -4 10 -12l-70 -409c-19 -120 24 -185 119 -185c102 0 174 71 193 191l69 405c1 7 5 10 12 10h92c8 0 11 -4 10 -12z" />
    <glyph glyph-name="Utilde" unicode="&#x168;" horiz-adv-x="672" 
d="M251 798l31 44c24 36 58 51 98 51c20 0 40 -7 57 -16l39 -17c10 -4 19 -7 25 -7c10 0 21 3 30 17l10 13c4 5 7 7 13 7h60c9 0 12 -6 7 -13l-32 -45c-25 -35 -58 -50 -98 -50c-20 0 -38 7 -56 15l-40 18c-9 3 -19 7 -26 7c-10 0 -20 -4 -29 -16l-11 -14
c-3 -5 -7 -7 -13 -7h-58c-9 0 -12 6 -7 13zM681 687l-70 -409c-31 -185 -148 -289 -315 -289c-172 0 -254 110 -222 295l68 405c1 7 5 10 12 10h92c8 0 11 -4 10 -12l-70 -409c-19 -120 24 -185 119 -185c102 0 174 71 193 191l69 405c1 7 5 10 12 10h92c8 0 11 -4 10 -12z
" />
    <glyph glyph-name="V" unicode="V" horiz-adv-x="704" 
d="M746 686l-246 -438c-43 -80 -83 -161 -116 -240c-3 -5 -7 -8 -13 -8h-117c-7 0 -11 4 -12 10c-7 78 -18 159 -34 238l-99 439c-2 7 2 12 9 12h92c7 0 11 -3 12 -10l83 -357c12 -62 19 -130 20 -178c0 -11 12 -11 16 0c17 48 48 116 82 178l202 359c3 6 7 8 13 8h100
c9 0 12 -6 8 -13z" />
    <glyph glyph-name="W" unicode="W" horiz-adv-x="996" 
d="M1029 686l-222 -498c-26 -59 -51 -121 -72 -179c-2 -6 -6 -9 -12 -9h-122c-7 0 -11 4 -11 11c-1 52 -4 108 -10 158l-32 233c-2 21 -3 56 -2 82c0 13 -11 13 -15 0c-10 -26 -23 -60 -32 -82l-110 -237c-22 -50 -44 -104 -63 -156c-2 -6 -6 -9 -12 -9h-121
c-7 0 -11 4 -11 11c-1 58 -5 119 -11 177l-54 499c-1 8 3 12 11 12h91c6 0 10 -4 11 -10l41 -359c5 -56 4 -123 1 -170c-1 -10 11 -11 15 0c14 46 38 113 64 170l170 361c3 5 7 8 13 8h75c7 0 10 -3 11 -10l50 -359c6 -54 7 -119 6 -170c-1 -11 11 -10 14 0
c12 47 36 114 60 170l161 361c3 5 7 8 13 8h97c8 0 12 -5 8 -13z" />
    <glyph glyph-name="Wacute" unicode="&#x1e82;" horiz-adv-x="996" 
d="M631 901h119c10 0 13 -7 5 -14l-123 -106c-4 -4 -8 -5 -14 -5h-84c-10 0 -13 6 -6 13l90 106c3 4 7 6 13 6zM1029 686l-222 -498c-26 -59 -51 -121 -72 -179c-2 -6 -6 -9 -12 -9h-122c-7 0 -11 4 -11 11c-1 52 -4 108 -10 158l-32 233c-2 21 -3 56 -2 82
c0 13 -11 13 -15 0c-10 -26 -23 -60 -32 -82l-110 -237c-22 -50 -44 -104 -63 -156c-2 -6 -6 -9 -12 -9h-121c-7 0 -11 4 -11 11c-1 58 -5 119 -11 177l-54 499c-1 8 3 12 11 12h91c6 0 10 -4 11 -10l41 -359c5 -56 4 -123 1 -170c-1 -10 11 -11 15 0c14 46 38 113 64 170
l170 361c3 5 7 8 13 8h75c7 0 10 -3 11 -10l50 -359c6 -54 7 -119 6 -170c-1 -11 11 -10 14 0c12 47 36 114 60 170l161 361c3 5 7 8 13 8h97c8 0 12 -5 8 -13z" />
    <glyph glyph-name="Wcircumflex" unicode="&#x174;" horiz-adv-x="996" 
d="M596 835l-75 -55c-4 -3 -8 -4 -14 -4h-76c-10 0 -13 7 -6 14l111 106c4 3 8 5 14 5h110c5 0 9 -2 13 -7l77 -105c6 -7 3 -13 -7 -13h-80c-6 0 -10 2 -14 6zM924 699h97c8 0 12 -5 8 -13l-222 -498c-26 -59 -51 -121 -72 -179c-2 -6 -6 -9 -12 -9h-122c-7 0 -11 4 -11 11
c-1 52 -4 108 -10 158l-32 233c-2 21 -3 56 -2 82c0 13 -11 13 -15 0c-10 -26 -23 -60 -32 -82l-110 -237c-22 -50 -44 -104 -63 -156c-2 -6 -6 -9 -12 -9h-121c-7 0 -11 4 -11 11c-1 58 -5 119 -11 177l-54 499c-1 8 3 12 11 12h91c6 0 10 -4 11 -10l41 -359
c5 -56 4 -123 1 -170c-1 -10 11 -11 15 0c14 46 38 113 64 170l170 361c3 5 7 8 13 8h75c7 0 10 -3 11 -10l50 -359c6 -54 7 -119 6 -170c-1 -11 11 -10 14 0c12 47 36 114 60 170l161 361c3 5 7 8 13 8z" />
    <glyph glyph-name="Wdieresis" unicode="&#x1e84;" horiz-adv-x="996" 
d="M513 900c37 0 57 -17 57 -48c0 -33 -18 -75 -76 -75c-39 0 -58 16 -58 48c0 35 17 75 77 75zM702 900c37 0 57 -17 57 -48c0 -33 -18 -75 -76 -75c-39 0 -58 16 -58 48c0 35 17 75 77 75zM1029 686l-222 -498c-26 -59 -51 -121 -72 -179c-2 -6 -6 -9 -12 -9h-122
c-7 0 -11 4 -11 11c-1 52 -4 108 -10 158l-32 233c-2 21 -3 56 -2 82c0 13 -11 13 -15 0c-10 -26 -23 -60 -32 -82l-110 -237c-22 -50 -44 -104 -63 -156c-2 -6 -6 -9 -12 -9h-121c-7 0 -11 4 -11 11c-1 58 -5 119 -11 177l-54 499c-1 8 3 12 11 12h91c6 0 10 -4 11 -10
l41 -359c5 -56 4 -123 1 -170c-1 -10 11 -11 15 0c14 46 38 113 64 170l170 361c3 5 7 8 13 8h75c7 0 10 -3 11 -10l50 -359c6 -54 7 -119 6 -170c-1 -11 11 -10 14 0c12 47 36 114 60 170l161 361c3 5 7 8 13 8h97c8 0 12 -5 8 -13z" />
    <glyph glyph-name="Wgrave" unicode="&#x1e80;" horiz-adv-x="996" 
d="M597 892l40 -103c3 -8 0 -13 -9 -13h-87c-5 0 -9 2 -13 7l-73 105c-5 7 -2 13 7 13h123c6 0 10 -3 12 -9zM1029 686l-222 -498c-26 -59 -51 -121 -72 -179c-2 -6 -6 -9 -12 -9h-122c-7 0 -11 4 -11 11c-1 52 -4 108 -10 158l-32 233c-2 21 -3 56 -2 82c0 13 -11 13 -15 0
c-10 -26 -23 -60 -32 -82l-110 -237c-22 -50 -44 -104 -63 -156c-2 -6 -6 -9 -12 -9h-121c-7 0 -11 4 -11 11c-1 58 -5 119 -11 177l-54 499c-1 8 3 12 11 12h91c6 0 10 -4 11 -10l41 -359c5 -56 4 -123 1 -170c-1 -10 11 -11 15 0c14 46 38 113 64 170l170 361
c3 5 7 8 13 8h75c7 0 10 -3 11 -10l50 -359c6 -54 7 -119 6 -170c-1 -11 11 -10 14 0c12 47 36 114 60 170l161 361c3 5 7 8 13 8h97c8 0 12 -5 8 -13z" />
    <glyph glyph-name="X" unicode="X" horiz-adv-x="690" 
d="M704 686l-194 -257c-26 -35 -48 -55 -77 -70c-6 -4 -6 -10 -2 -13c21 -15 38 -37 52 -72l110 -261c3 -8 -1 -13 -9 -13h-95c-6 0 -10 3 -13 8l-111 262c-3 8 -10 10 -17 0l-201 -263c-3 -5 -7 -7 -13 -7h-107c-9 0 -12 6 -7 13l198 261c26 35 50 57 78 72c6 3 7 9 3 13
c-23 16 -38 35 -52 70l-108 257c-3 8 1 13 9 13h95c6 0 10 -3 13 -8l107 -256c5 -13 11 -12 20 0l195 257c4 5 7 7 13 7h106c9 0 12 -6 7 -13z" />
    <glyph glyph-name="Y" unicode="Y" horiz-adv-x="676" 
d="M716 686l-189 -250c-90 -123 -130 -175 -149 -290l-22 -136c-1 -7 -5 -10 -12 -10h-92c-8 0 -11 4 -10 12l22 134c20 115 0 167 -48 290l-106 250c-3 8 1 13 9 13h97c6 0 10 -3 13 -8l77 -178c20 -47 35 -93 43 -135c2 -10 11 -10 16 0c23 42 50 88 85 135l138 179
c3 5 7 7 13 7h108c9 0 12 -6 7 -13z" />
    <glyph glyph-name="Yacute" unicode="&#xdd;" horiz-adv-x="676" 
d="M468 901h119c10 0 13 -7 5 -14l-123 -106c-4 -4 -8 -5 -14 -5h-84c-10 0 -13 6 -6 13l90 106c3 4 7 6 13 6zM716 686l-189 -250c-90 -123 -130 -175 -149 -290l-22 -136c-1 -7 -5 -10 -12 -10h-92c-8 0 -11 4 -10 12l22 134c20 115 0 167 -48 290l-106 250
c-3 8 1 13 9 13h97c6 0 10 -3 13 -8l77 -178c20 -47 35 -93 43 -135c2 -10 11 -10 16 0c23 42 50 88 85 135l138 179c3 5 7 7 13 7h108c9 0 12 -6 7 -13z" />
    <glyph glyph-name="Ycircumflex" unicode="&#x176;" horiz-adv-x="676" 
d="M434 835l-75 -55c-4 -3 -8 -4 -14 -4h-76c-10 0 -13 7 -6 14l111 106c4 3 8 5 14 5h110c5 0 9 -2 13 -7l77 -105c6 -7 3 -13 -7 -13h-80c-6 0 -10 2 -14 6zM601 699h108c9 0 12 -6 7 -13l-189 -250c-90 -123 -130 -175 -149 -290l-22 -136c-1 -7 -5 -10 -12 -10h-92
c-8 0 -11 4 -10 12l22 134c20 115 0 167 -48 290l-106 250c-3 8 1 13 9 13h97c6 0 10 -3 13 -8l77 -178c20 -47 35 -93 43 -135c2 -10 11 -10 16 0c23 42 50 88 85 135l138 179c3 5 7 7 13 7z" />
    <glyph glyph-name="Ydieresis" unicode="&#x178;" horiz-adv-x="676" 
d="M351 900c37 0 57 -17 57 -48c0 -33 -18 -75 -76 -75c-39 0 -58 16 -58 48c0 35 17 75 77 75zM540 900c37 0 57 -17 57 -48c0 -33 -18 -75 -76 -75c-39 0 -58 16 -58 48c0 35 17 75 77 75zM716 686l-189 -250c-90 -123 -130 -175 -149 -290l-22 -136c-1 -7 -5 -10 -12 -10
h-92c-8 0 -11 4 -10 12l22 134c20 115 0 167 -48 290l-106 250c-3 8 1 13 9 13h97c6 0 10 -3 13 -8l77 -178c20 -47 35 -93 43 -135c2 -10 11 -10 16 0c23 42 50 88 85 135l138 179c3 5 7 7 13 7h108c9 0 12 -6 7 -13z" />
    <glyph glyph-name="Ygrave" unicode="&#x1ef2;" horiz-adv-x="676" 
d="M434 892l40 -103c3 -8 0 -13 -9 -13h-87c-5 0 -9 2 -13 7l-73 105c-5 7 -2 13 7 13h123c6 0 10 -3 12 -9zM716 686l-189 -250c-90 -123 -130 -175 -149 -290l-22 -136c-1 -7 -5 -10 -12 -10h-92c-8 0 -11 4 -10 12l22 134c20 115 0 167 -48 290l-106 250c-3 8 1 13 9 13
h97c6 0 10 -3 13 -8l77 -178c20 -47 35 -93 43 -135c2 -10 11 -10 16 0c23 42 50 88 85 135l138 179c3 5 7 7 13 7h108c9 0 12 -6 7 -13z" />
    <glyph glyph-name="Ytilde" unicode="&#x1ef8;" horiz-adv-x="676" 
d="M249 798l31 44c24 36 58 51 98 51c20 0 40 -7 57 -16l39 -17c10 -4 19 -7 25 -7c10 0 21 3 30 17l10 13c4 5 7 7 13 7h60c9 0 12 -6 7 -13l-32 -45c-25 -35 -58 -50 -98 -50c-20 0 -38 7 -56 15l-40 18c-9 3 -19 7 -26 7c-10 0 -20 -4 -29 -16l-11 -14
c-3 -5 -7 -7 -13 -7h-58c-9 0 -12 6 -7 13zM716 686l-189 -250c-90 -123 -130 -175 -149 -290l-22 -136c-1 -7 -5 -10 -12 -10h-92c-8 0 -11 4 -10 12l22 134c20 115 0 167 -48 290l-106 250c-3 8 1 13 9 13h97c6 0 10 -3 13 -8l77 -178c20 -47 35 -93 43 -135
c2 -10 11 -10 16 0c23 42 50 88 85 135l138 179c3 5 7 7 13 7h108c9 0 12 -6 7 -13z" />
    <glyph glyph-name="Z" unicode="Z" horiz-adv-x="629" 
d="M647 690l2 -4c3 -5 2 -10 -2 -15c-46 -54 -72 -87 -107 -134l-256 -337c-19 -25 -44 -58 -65 -84c-8 -10 -6 -17 5 -16c27 0 53 1 77 1h230c8 0 12 -5 8 -13l-36 -80c-3 -5 -7 -8 -13 -8h-457c-6 0 -10 3 -12 9l-2 4c-2 5 -1 10 3 15c46 54 73 91 107 138l253 331
c18 26 44 61 67 85c9 10 7 17 -4 17c-29 -1 -53 -1 -78 -1h-226c-8 0 -11 4 -10 12l13 79c1 7 5 10 12 10h479c6 0 10 -3 12 -9z" />
    <glyph glyph-name="Zacute" unicode="&#x179;" horiz-adv-x="629" 
d="M450 901h119c10 0 13 -7 5 -14l-123 -106c-4 -4 -8 -5 -14 -5h-84c-10 0 -13 6 -6 13l90 106c3 4 7 6 13 6zM647 690l2 -4c3 -5 2 -10 -2 -15c-46 -54 -72 -87 -107 -134l-256 -337c-19 -25 -44 -58 -65 -84c-8 -10 -6 -17 5 -16c27 0 53 1 77 1h230c8 0 12 -5 8 -13
l-36 -80c-3 -5 -7 -8 -13 -8h-457c-6 0 -10 3 -12 9l-2 4c-2 5 -1 10 3 15c46 54 73 91 107 138l253 331c18 26 44 61 67 85c9 10 7 17 -4 17c-29 -1 -53 -1 -78 -1h-226c-8 0 -11 4 -10 12l13 79c1 7 5 10 12 10h479c6 0 10 -3 12 -9z" />
    <glyph glyph-name="Zcaron" unicode="&#x17d;" horiz-adv-x="629" 
d="M461 776h-110c-5 0 -9 2 -13 7l-77 105c-6 7 -3 13 7 13h80c6 0 10 -2 14 -6l53 -53l75 55c4 3 8 4 14 4h76c10 0 13 -7 6 -14l-111 -106c-4 -3 -8 -5 -14 -5zM540 537l-256 -337c-19 -25 -44 -58 -65 -84c-8 -10 -6 -17 5 -16c27 0 53 1 77 1h230c8 0 12 -5 8 -13
l-36 -80c-3 -5 -7 -8 -13 -8h-457c-6 0 -10 3 -12 9l-2 4c-2 5 -1 10 3 15c46 54 73 91 107 138l253 331c18 26 44 61 67 85c9 10 7 17 -4 17c-29 -1 -53 -1 -78 -1h-226c-8 0 -11 4 -10 12l13 79c1 7 5 10 12 10h479c6 0 10 -3 13 -8l2 -5c2 -5 1 -10 -3 -15
c-46 -54 -72 -87 -107 -134z" />
    <glyph glyph-name="Zdotaccent" unicode="&#x17b;" horiz-adv-x="629" 
d="M425 900c39 0 61 -17 61 -48c0 -33 -20 -75 -82 -75c-41 0 -61 16 -61 48c0 35 18 75 82 75zM647 690l2 -4c3 -5 2 -10 -2 -15c-46 -54 -72 -87 -107 -134l-256 -337c-19 -25 -44 -58 -65 -84c-8 -10 -6 -17 5 -16c27 0 53 1 77 1h230c8 0 12 -5 8 -13l-36 -80
c-3 -5 -7 -8 -13 -8h-457c-6 0 -10 3 -12 9l-2 4c-2 5 -1 10 3 15c46 54 73 91 107 138l253 331c18 26 44 61 67 85c9 10 7 17 -4 17c-29 -1 -53 -1 -78 -1h-226c-8 0 -11 4 -10 12l13 79c1 7 5 10 12 10h479c6 0 10 -3 12 -9z" />
    <glyph glyph-name="Zdotbelow" unicode="&#x1e92;" horiz-adv-x="629" 
d="M647 690l2 -4c3 -5 2 -10 -2 -15c-46 -54 -72 -87 -107 -134l-256 -337c-19 -25 -44 -58 -65 -84c-8 -10 -6 -17 5 -16c27 0 53 1 77 1h230c8 0 12 -5 8 -13l-36 -80c-3 -5 -7 -8 -13 -8h-457c-6 0 -10 3 -12 9l-2 4c-2 5 -1 10 3 15c46 54 73 91 107 138l253 331
c18 26 44 61 67 85c9 10 7 17 -4 17c-29 -1 -53 -1 -78 -1h-226c-8 0 -11 4 -10 12l13 79c1 7 5 10 12 10h479c6 0 10 -3 12 -9zM253 -80c39 0 61 -17 61 -48c0 -33 -20 -75 -82 -75c-41 0 -61 16 -61 48c0 35 18 75 82 75z" />
    <glyph glyph-name="a" unicode="a" horiz-adv-x="561" 
d="M387 11l4 62c-2 19 -7 21 -25 1c-39 -49 -85 -85 -155 -85c-108 0 -172 69 -172 185c0 134 78 321 288 321c36 0 66 -4 106 -15l92 -24c7 -2 9 -7 8 -13l-72 -433c-1 -7 -5 -10 -12 -10h-52c-7 0 -11 4 -10 11zM411 377l-27 8c-20 7 -35 10 -62 10
c-124 0 -173 -135 -173 -212c0 -58 31 -93 82 -93c82 0 147 101 172 238z" />
    <glyph glyph-name="aacute" unicode="&#xe1;" horiz-adv-x="561" 
d="M395 717h102c9 0 12 -6 6 -14l-117 -130c-3 -4 -7 -6 -13 -6h-74c-9 0 -12 6 -7 13l90 130c4 5 8 7 13 7zM387 11l4 62c-2 19 -7 21 -25 1c-39 -49 -85 -85 -155 -85c-108 0 -172 69 -172 185c0 134 78 321 288 321c36 0 66 -4 106 -15l92 -24c7 -2 9 -7 8 -13l-72 -433
c-1 -7 -5 -10 -12 -10h-52c-7 0 -11 4 -10 11zM411 377l-27 8c-20 7 -35 10 -62 10c-124 0 -173 -135 -173 -212c0 -58 31 -93 82 -93c82 0 147 101 172 238z" />
    <glyph glyph-name="abreve" unicode="&#x103;" horiz-adv-x="561" 
d="M497 704l-5 -27c-13 -77 -68 -118 -145 -118c-84 0 -123 49 -110 126l3 21c1 7 5 10 12 10h58c8 0 11 -4 10 -12l-6 -32c-4 -26 11 -41 39 -41c34 0 56 23 60 49l4 26c1 7 5 10 12 10h58c8 0 11 -4 10 -12zM387 11l4 62c-2 19 -7 21 -25 1c-39 -49 -85 -85 -155 -85
c-108 0 -172 69 -172 185c0 134 78 321 288 321c36 0 66 -4 106 -15l92 -24c7 -2 9 -7 8 -13l-72 -433c-1 -7 -5 -10 -12 -10h-52c-7 0 -11 4 -10 11zM411 377l-27 8c-20 7 -35 10 -62 10c-124 0 -173 -135 -173 -212c0 -58 31 -93 82 -93c82 0 147 101 172 238z" />
    <glyph glyph-name="acaron" unicode="&#x1ce;" horiz-adv-x="561" 
d="M385 567h-81c-6 0 -10 2 -13 8l-72 129c-4 7 -1 13 8 13h68c5 0 9 -2 13 -7l48 -68l73 70c4 3 8 5 14 5h65c10 0 12 -6 6 -14l-116 -130c-3 -4 -7 -6 -13 -6zM433 480l92 -24c7 -2 9 -7 8 -13l-72 -433c-1 -7 -5 -10 -12 -10h-52c-7 0 -11 4 -10 11l4 62
c-2 19 -7 21 -25 1c-39 -49 -85 -85 -155 -85c-108 0 -172 69 -172 185c0 134 78 321 288 321c36 0 66 -4 106 -15zM411 377l-27 8c-20 7 -35 10 -62 10c-124 0 -173 -135 -173 -212c0 -58 31 -93 82 -93c82 0 147 101 172 238z" />
    <glyph glyph-name="acircumflex" unicode="&#xe2;" horiz-adv-x="561" 
d="M356 642l-73 -70c-4 -3 -8 -5 -14 -5h-65c-10 0 -12 6 -6 14l116 130c3 4 7 6 13 6h81c6 0 10 -2 13 -8l72 -129c4 -7 1 -13 -8 -13h-68c-5 0 -9 2 -13 7zM433 480l92 -24c7 -2 9 -7 8 -13l-72 -433c-1 -7 -5 -10 -12 -10h-52c-7 0 -11 4 -10 11l4 62c-2 19 -7 21 -25 1
c-39 -49 -85 -85 -155 -85c-108 0 -172 69 -172 185c0 134 78 321 288 321c36 0 66 -4 106 -15zM411 377l-27 8c-20 7 -35 10 -62 10c-124 0 -173 -135 -173 -212c0 -58 31 -93 82 -93c82 0 147 101 172 238z" />
    <glyph glyph-name="adblgrave" unicode="&#x201;" horiz-adv-x="561" 
d="M189 717h84c7 0 11 -3 12 -10l26 -128c1 -8 -3 -12 -10 -12h-71c-7 0 -11 3 -13 9l-37 129c-3 7 1 12 9 12zM353 717h81c7 0 10 -3 11 -10l17 -128c1 -8 -2 -12 -10 -12h-68c-7 0 -11 3 -12 10l-28 128c-2 7 2 12 9 12zM387 11l4 62c-2 19 -7 21 -25 1
c-39 -49 -85 -85 -155 -85c-108 0 -172 69 -172 185c0 134 78 321 288 321c36 0 66 -4 106 -15l92 -24c7 -2 9 -7 8 -13l-72 -433c-1 -7 -5 -10 -12 -10h-52c-7 0 -11 4 -10 11zM411 377l-27 8c-20 7 -35 10 -62 10c-124 0 -173 -135 -173 -212c0 -58 31 -93 82 -93
c82 0 147 101 172 238z" />
    <glyph glyph-name="adieresis" unicode="&#xe4;" horiz-adv-x="561" 
d="M280 733c35 0 56 -21 56 -56c0 -36 -18 -72 -66 -72c-36 0 -57 20 -57 55c0 46 24 73 67 73zM457 733c35 0 56 -21 56 -56c0 -36 -18 -72 -66 -72c-36 0 -57 20 -57 55c0 46 24 73 67 73zM387 11l4 62c-2 19 -7 21 -25 1c-39 -49 -85 -85 -155 -85
c-108 0 -172 69 -172 185c0 134 78 321 288 321c36 0 66 -4 106 -15l92 -24c7 -2 9 -7 8 -13l-72 -433c-1 -7 -5 -10 -12 -10h-52c-7 0 -11 4 -10 11zM411 377l-27 8c-20 7 -35 10 -62 10c-124 0 -173 -135 -173 -212c0 -58 31 -93 82 -93c82 0 147 101 172 238z" />
    <glyph glyph-name="agrave" unicode="&#xe0;" horiz-adv-x="561" 
d="M343 708l46 -128c2 -8 -1 -13 -9 -13h-71c-6 0 -10 2 -13 8l-72 129c-4 7 -1 13 8 13h99c6 0 10 -3 12 -9zM387 11l4 62c-2 19 -7 21 -25 1c-39 -49 -85 -85 -155 -85c-108 0 -172 69 -172 185c0 134 78 321 288 321c36 0 66 -4 106 -15l92 -24c7 -2 9 -7 8 -13l-72 -433
c-1 -7 -5 -10 -12 -10h-52c-7 0 -11 4 -10 11zM411 377l-27 8c-20 7 -35 10 -62 10c-124 0 -173 -135 -173 -212c0 -58 31 -93 82 -93c82 0 147 101 172 238z" />
    <glyph glyph-name="ainvertedbreve" unicode="&#x203;" horiz-adv-x="561" 
d="M219 580l5 27c13 77 68 118 145 118c84 0 123 -49 110 -126l-3 -21c-1 -7 -5 -10 -12 -10h-58c-8 0 -11 4 -10 12l6 32c4 26 -11 41 -39 41c-34 0 -56 -23 -60 -49l-4 -26c-1 -7 -5 -10 -12 -10h-58c-8 0 -11 4 -10 12zM387 11l4 62c-2 19 -7 21 -25 1
c-39 -49 -85 -85 -155 -85c-108 0 -172 69 -172 185c0 134 78 321 288 321c36 0 66 -4 106 -15l92 -24c7 -2 9 -7 8 -13l-72 -433c-1 -7 -5 -10 -12 -10h-52c-7 0 -11 4 -10 11zM411 377l-27 8c-20 7 -35 10 -62 10c-124 0 -173 -135 -173 -212c0 -58 31 -93 82 -93
c82 0 147 101 172 238z" />
    <glyph glyph-name="amacron" unicode="&#x101;" horiz-adv-x="561" 
d="M240 679h245c8 0 11 -4 10 -12l-10 -56c-1 -7 -5 -10 -12 -10h-245c-8 0 -11 4 -10 12l10 56c1 7 5 10 12 10zM387 11l4 62c-2 19 -7 21 -25 1c-39 -49 -85 -85 -155 -85c-108 0 -172 69 -172 185c0 134 78 321 288 321c36 0 66 -4 106 -15l92 -24c7 -2 9 -7 8 -13
l-72 -433c-1 -7 -5 -10 -12 -10h-52c-7 0 -11 4 -10 11zM411 377l-27 8c-20 7 -35 10 -62 10c-124 0 -173 -135 -173 -212c0 -58 31 -93 82 -93c82 0 147 101 172 238z" />
    <glyph glyph-name="aogonek" unicode="&#x105;" horiz-adv-x="561" 
d="M433 480l92 -24c7 -2 9 -7 8 -13l-74 -443c-3 -17 -12 -32 -41 -55l-54 -44c-14 -12 -17 -20 -17 -30c0 -11 6 -17 18 -17c9 0 19 2 31 6l9 3c7 3 12 0 13 -8l11 -54c1 -6 -2 -11 -8 -13l-19 -5c-16 -6 -33 -9 -51 -9c-57 0 -93 27 -93 72c0 32 14 59 47 85l53 42
c19 15 28 24 29 35c0 5 1 7 6 6c-4 1 -6 4 -5 11l3 48c-2 19 -7 21 -25 1c-39 -49 -85 -85 -155 -85c-108 0 -172 69 -172 185c0 134 78 321 288 321c36 0 66 -4 106 -15zM411 377l-27 8c-20 7 -35 10 -62 10c-124 0 -173 -135 -173 -212c0 -58 31 -93 82 -93
c82 0 147 101 172 238z" />
    <glyph glyph-name="aring" unicode="&#xe5;" horiz-adv-x="561" 
d="M370 726c51 0 80 -25 80 -68c0 -39 -26 -99 -105 -99c-52 0 -80 24 -80 66c0 47 28 101 105 101zM364 677c-24 0 -40 -17 -42 -41c-1 -18 9 -29 29 -29c25 0 42 18 42 45c0 16 -10 25 -29 25zM387 11l4 62c-2 19 -7 21 -25 1c-39 -49 -85 -85 -155 -85
c-108 0 -172 69 -172 185c0 134 78 321 288 321c36 0 66 -4 106 -15l92 -24c7 -2 9 -7 8 -13l-72 -433c-1 -7 -5 -10 -12 -10h-52c-7 0 -11 4 -10 11zM411 377l-27 8c-20 7 -35 10 -62 10c-124 0 -173 -135 -173 -212c0 -58 31 -93 82 -93c82 0 147 101 172 238z" />
    <glyph glyph-name="aringacute" unicode="&#x1fb;" horiz-adv-x="561" 
d="M426 871h102c9 0 12 -6 6 -14l-117 -130c-3 -4 -7 -6 -13 -6h-74c-9 0 -12 6 -7 13l90 130c4 5 8 7 13 7zM355 691c51 0 80 -25 80 -68c0 -39 -26 -99 -105 -99c-52 0 -80 24 -80 66c0 47 28 101 105 101zM349 642c-24 0 -40 -17 -42 -41c-1 -18 9 -29 29 -29
c25 0 42 18 42 45c0 16 -10 25 -29 25zM387 11l4 62c-2 19 -7 21 -25 1c-39 -49 -85 -85 -155 -85c-108 0 -172 69 -172 185c0 134 78 321 288 321c36 0 66 -4 106 -15l92 -24c7 -2 9 -7 8 -13l-72 -433c-1 -7 -5 -10 -12 -10h-52c-7 0 -11 4 -10 11zM411 377l-27 8
c-20 7 -35 10 -62 10c-124 0 -173 -135 -173 -212c0 -58 31 -93 82 -93c82 0 147 101 172 238z" />
    <glyph glyph-name="atilde" unicode="&#xe3;" horiz-adv-x="561" 
d="M189 603l30 45c23 37 57 53 94 53c22 0 34 -6 49 -16l34 -22c7 -5 14 -8 21 -8c8 0 14 4 24 18l14 18c3 4 7 6 13 6h56c9 0 12 -6 7 -13l-29 -45c-24 -36 -56 -53 -94 -53c-17 0 -32 6 -48 16l-33 20c-8 5 -14 10 -23 10c-8 0 -15 -5 -24 -17l-14 -18c-3 -5 -7 -7 -13 -7
h-57c-9 0 -12 6 -7 13zM387 11l4 62c-2 19 -7 21 -25 1c-39 -49 -85 -85 -155 -85c-108 0 -172 69 -172 185c0 134 78 321 288 321c36 0 66 -4 106 -15l92 -24c7 -2 9 -7 8 -13l-72 -433c-1 -7 -5 -10 -12 -10h-52c-7 0 -11 4 -10 11zM411 377l-27 8c-20 7 -35 10 -62 10
c-124 0 -173 -135 -173 -212c0 -58 31 -93 82 -93c82 0 147 101 172 238z" />
    <glyph glyph-name="ae" unicode="&#xe6;" horiz-adv-x="858" 
d="M485 452l-6 -29c-3 -21 2 -24 16 -7c34 42 93 79 171 79c102 0 166 -51 166 -135c0 -79 -41 -143 -171 -161l-160 -24c3 -53 34 -85 95 -85c26 0 50 2 83 10l51 13c8 2 12 -1 13 -9l7 -76c1 -7 -2 -11 -9 -13l-49 -12c-32 -9 -63 -14 -100 -14c-80 0 -138 29 -169 81
c-16 28 -19 29 -39 5c-40 -47 -88 -86 -170 -86c-115 0 -175 67 -175 188c0 131 85 318 283 318c42 0 72 -5 120 -18l35 -12c7 -2 9 -6 8 -13zM412 376l-29 9c-21 7 -38 10 -65 10c-120 0 -169 -132 -169 -208c0 -66 27 -97 87 -97c78 0 140 103 157 196zM510 262l141 21
c50 7 73 33 73 62c0 31 -23 50 -70 50c-71 0 -122 -43 -144 -133z" />
    <glyph glyph-name="aeacute" unicode="&#x1fd;" horiz-adv-x="858" 
d="M514 717h102c9 0 12 -6 6 -14l-117 -130c-3 -4 -7 -6 -13 -6h-74c-9 0 -12 6 -7 13l90 130c4 5 8 7 13 7zM485 452l-6 -29c-3 -21 2 -24 16 -7c34 42 93 79 171 79c102 0 166 -51 166 -135c0 -79 -41 -143 -171 -161l-160 -24c3 -53 34 -85 95 -85c26 0 50 2 83 10l51 13
c8 2 12 -1 13 -9l7 -76c1 -7 -2 -11 -9 -13l-49 -12c-32 -9 -63 -14 -100 -14c-80 0 -138 29 -169 81c-16 28 -19 29 -39 5c-40 -47 -88 -86 -170 -86c-115 0 -175 67 -175 188c0 131 85 318 283 318c42 0 72 -5 120 -18l35 -12c7 -2 9 -6 8 -13zM412 376l-29 9
c-21 7 -38 10 -65 10c-120 0 -169 -132 -169 -208c0 -66 27 -97 87 -97c78 0 140 103 157 196zM510 262l141 21c50 7 73 33 73 62c0 31 -23 50 -70 50c-71 0 -122 -43 -144 -133z" />
    <glyph glyph-name="b" unicode="b" horiz-adv-x="567" 
d="M257 705l-25 -149c-8 -48 -18 -78 -35 -108c-5 -12 1 -18 12 -11c36 34 82 58 137 58c118 0 182 -73 182 -194c0 -133 -71 -312 -275 -312c-52 0 -95 10 -135 28l-74 33c-6 3 -8 7 -7 14l108 643c1 7 5 10 12 10h90c8 0 11 -4 10 -12zM157 116l24 -10
c22 -10 48 -16 75 -16c119 0 162 125 162 205c0 64 -31 100 -89 100c-82 0 -138 -71 -155 -175z" />
    <glyph glyph-name="c" unicode="c" horiz-adv-x="474" 
d="M380 14l-42 -11c-30 -9 -60 -14 -93 -14c-135 0 -206 76 -206 199c0 131 69 307 280 307c29 0 58 -5 87 -14l43 -13c8 -2 10 -7 7 -14l-35 -72c-3 -6 -7 -8 -14 -6l-31 9c-24 8 -46 10 -60 10c-131 0 -167 -128 -167 -202c0 -66 33 -103 100 -103c23 0 48 4 79 12l38 10
c7 2 12 -1 13 -9l10 -76c1 -7 -2 -11 -9 -13z" />
    <glyph glyph-name="cacute" unicode="&#x107;" horiz-adv-x="474" 
d="M363 717h102c9 0 12 -6 6 -14l-117 -130c-3 -4 -7 -6 -13 -6h-74c-9 0 -12 6 -7 13l90 130c4 5 8 7 13 7zM380 14l-42 -11c-30 -9 -60 -14 -93 -14c-135 0 -206 76 -206 199c0 131 69 307 280 307c29 0 58 -5 87 -14l43 -13c8 -2 10 -7 7 -14l-35 -72c-3 -6 -7 -8 -14 -6
l-31 9c-24 8 -46 10 -60 10c-131 0 -167 -128 -167 -202c0 -66 33 -103 100 -103c23 0 48 4 79 12l38 10c7 2 12 -1 13 -9l10 -76c1 -7 -2 -11 -9 -13z" />
    <glyph glyph-name="ccaron" unicode="&#x10d;" horiz-adv-x="474" 
d="M354 567h-81c-6 0 -10 2 -13 8l-72 129c-4 7 -1 13 8 13h68c5 0 9 -2 13 -7l48 -68l73 70c4 3 8 5 14 5h65c10 0 12 -6 6 -14l-116 -130c-3 -4 -7 -6 -13 -6zM380 14l-42 -11c-30 -9 -60 -14 -93 -14c-135 0 -206 76 -206 199c0 131 69 307 280 307c29 0 58 -5 87 -14
l43 -13c8 -2 10 -7 7 -14l-35 -72c-3 -6 -7 -8 -14 -6l-31 9c-24 8 -46 10 -60 10c-131 0 -167 -128 -167 -202c0 -66 33 -103 100 -103c23 0 48 4 79 12l38 10c7 2 12 -1 13 -9l10 -76c1 -7 -2 -11 -9 -13z" />
    <glyph glyph-name="ccedilla" unicode="&#xe7;" horiz-adv-x="474" 
d="M407 376l-31 9c-24 8 -46 10 -60 10c-131 0 -167 -128 -167 -202c0 -66 33 -103 100 -103c23 0 48 4 79 12l38 10c7 2 12 -1 13 -9l10 -76c1 -7 -2 -11 -9 -13l-42 -11c-30 -9 -60 -14 -93 -14h-5l-17 -30h6c40 0 66 -26 66 -69c0 -51 -32 -116 -122 -116
c-19 0 -34 3 -50 8l-15 6c-7 2 -9 8 -6 14l27 52c3 6 8 8 15 6l13 -5c10 -3 18 -4 28 -4c25 0 39 14 39 35c0 15 -11 24 -31 24h-34c-6 0 -10 2 -14 7c-2 4 -2 8 1 13l34 66c-93 21 -141 91 -141 192c0 131 69 307 280 307c29 0 58 -5 87 -14l43 -13c8 -2 10 -7 7 -14
l-35 -72c-3 -6 -7 -8 -14 -6z" />
    <glyph glyph-name="ccircumflex" unicode="&#x109;" horiz-adv-x="474" 
d="M325 642l-73 -70c-4 -3 -8 -5 -14 -5h-65c-10 0 -12 6 -6 14l116 130c3 4 7 6 13 6h81c6 0 10 -2 13 -8l72 -129c4 -7 1 -13 -8 -13h-68c-5 0 -9 2 -13 7zM380 14l-42 -11c-30 -9 -60 -14 -93 -14c-135 0 -206 76 -206 199c0 131 69 307 280 307c29 0 58 -5 87 -14
l43 -13c8 -2 10 -7 7 -14l-35 -72c-3 -6 -7 -8 -14 -6l-31 9c-24 8 -46 10 -60 10c-131 0 -167 -128 -167 -202c0 -66 33 -103 100 -103c23 0 48 4 79 12l38 10c7 2 12 -1 13 -9l10 -76c1 -7 -2 -11 -9 -13z" />
    <glyph glyph-name="cdotaccent" unicode="&#x10b;" horiz-adv-x="474" 
d="M334 727c38 0 60 -22 60 -59c0 -39 -19 -77 -70 -77c-39 0 -61 22 -61 59c0 49 26 77 71 77zM380 14l-42 -11c-30 -9 -60 -14 -93 -14c-135 0 -206 76 -206 199c0 131 69 307 280 307c29 0 58 -5 87 -14l43 -13c8 -2 10 -7 7 -14l-35 -72c-3 -6 -7 -8 -14 -6l-31 9
c-24 8 -46 10 -60 10c-131 0 -167 -128 -167 -202c0 -66 33 -103 100 -103c23 0 48 4 79 12l38 10c7 2 12 -1 13 -9l10 -76c1 -7 -2 -11 -9 -13z" />
    <glyph glyph-name="d" unicode="d" horiz-adv-x="566" 
d="M578 705l-117 -695c-1 -7 -5 -10 -12 -10h-49c-7 0 -11 4 -12 11l-2 37c-4 13 -8 14 -24 1c-43 -39 -91 -60 -143 -60c-115 0 -180 74 -180 195c0 129 69 311 266 311c39 0 67 -5 94 -18l26 -13l41 243c1 7 5 10 12 10h90c8 0 11 -4 10 -12zM410 368l-25 11
c-21 10 -49 16 -77 16c-119 0 -159 -126 -159 -201c0 -66 32 -104 92 -104c78 0 132 61 147 149z" />
    <glyph glyph-name="eth" unicode="&#xf0;" horiz-adv-x="549" 
d="M521 641l-78 -36c43 -60 74 -132 74 -231c0 -172 -60 -384 -284 -384c-125 0 -198 72 -198 191c0 122 73 287 250 287c54 0 88 -13 111 -32c15 -11 22 -2 16 11c-15 44 -41 81 -67 113l-92 -42c-7 -3 -12 -2 -15 5l-12 24c-3 6 -1 12 5 15l80 37l-2 2l-93 102
c-6 8 -3 14 6 14h116c6 0 10 -2 13 -6l50 -54l10 -11l88 40c7 3 12 2 15 -5l12 -25c3 -6 1 -12 -5 -15zM240 90c115 0 155 110 155 182c0 62 -33 96 -95 96c-114 0 -155 -111 -155 -181c0 -62 34 -97 95 -97z" />
    <glyph glyph-name="dcaron" unicode="&#x10f;" horiz-adv-x="573" 
d="M578 705l-117 -695c-1 -7 -5 -10 -12 -10h-49c-7 0 -11 4 -12 11l-2 37c-4 13 -8 14 -24 1c-43 -39 -91 -60 -143 -60c-115 0 -180 74 -180 195c0 129 69 311 266 311c39 0 67 -5 94 -18l26 -13l41 243c1 7 5 10 12 10h90c8 0 11 -4 10 -12zM653 717h64c7 0 11 -4 10 -12
l-6 -31c-3 -23 -15 -54 -36 -86l-8 -14c-4 -5 -8 -7 -14 -7h-50c-8 0 -12 5 -8 13l8 19c11 23 17 46 22 71l6 37c1 7 5 10 12 10zM410 368l-25 11c-21 10 -49 16 -77 16c-119 0 -159 -126 -159 -201c0 -66 32 -104 92 -104c78 0 132 61 147 149z" />
    <glyph glyph-name="dcroat" unicode="&#x111;" horiz-adv-x="571" 
d="M630 622l-9 -53c-1 -7 -5 -10 -12 -10h-56l-92 -549c-1 -7 -5 -10 -12 -10h-49c-7 0 -11 4 -12 11l-2 37c-4 13 -8 14 -24 1c-43 -39 -91 -60 -143 -60c-115 0 -180 74 -180 195c0 129 69 311 266 311c39 0 67 -5 94 -18l26 -13l16 95h-120c-8 0 -11 4 -10 12l9 53
c1 7 5 10 12 10h122l12 73c1 7 5 10 12 10h90c8 0 11 -4 10 -12l-12 -71h54c8 0 11 -4 10 -12zM410 368l-25 11c-21 10 -49 16 -77 16c-119 0 -159 -126 -159 -201c0 -66 32 -104 92 -104c78 0 132 61 147 149z" />
    <glyph glyph-name="ddotbelow" unicode="&#x1e0d;" horiz-adv-x="566" 
d="M578 705l-117 -695c-1 -7 -5 -10 -12 -10h-49c-7 0 -11 4 -12 11l-2 37c-4 13 -8 14 -24 1c-43 -39 -91 -60 -143 -60c-115 0 -180 74 -180 195c0 129 69 311 266 311c39 0 67 -5 94 -18l26 -13l41 243c1 7 5 10 12 10h90c8 0 11 -4 10 -12zM410 368l-25 11
c-21 10 -49 16 -77 16c-119 0 -159 -126 -159 -201c0 -66 32 -104 92 -104c78 0 132 61 147 149zM228 -80c39 0 61 -17 61 -48c0 -33 -20 -75 -82 -75c-41 0 -61 16 -61 48c0 35 18 75 82 75z" />
    <glyph glyph-name="e" unicode="e" horiz-adv-x="507" 
d="M390 15l-49 -12c-34 -9 -64 -14 -100 -14c-131 0 -202 76 -202 199c0 129 71 307 270 307c108 0 172 -51 172 -135c0 -76 -38 -141 -171 -161l-161 -23c1 -52 32 -86 95 -86c34 0 59 4 89 11l46 12c8 2 12 -1 13 -9l7 -77c1 -7 -2 -11 -9 -12zM155 262l145 21
c54 8 73 34 73 62c0 31 -25 50 -70 50c-69 0 -123 -41 -148 -133z" />
    <glyph glyph-name="eacute" unicode="&#xe9;" horiz-adv-x="507" 
d="M365 717h102c9 0 12 -6 6 -14l-117 -130c-3 -4 -7 -6 -13 -6h-74c-9 0 -12 6 -7 13l90 130c4 5 8 7 13 7zM390 15l-49 -12c-34 -9 -64 -14 -100 -14c-131 0 -202 76 -202 199c0 129 71 307 270 307c108 0 172 -51 172 -135c0 -76 -38 -141 -171 -161l-161 -23
c1 -52 32 -86 95 -86c34 0 59 4 89 11l46 12c8 2 12 -1 13 -9l7 -77c1 -7 -2 -11 -9 -12zM155 262l145 21c54 8 73 34 73 62c0 31 -25 50 -70 50c-69 0 -123 -41 -148 -133z" />
    <glyph glyph-name="ebreve" unicode="&#x115;" horiz-adv-x="507" 
d="M467 704l-5 -27c-13 -77 -68 -118 -145 -118c-84 0 -123 49 -110 126l3 21c1 7 5 10 12 10h58c8 0 11 -4 10 -12l-6 -32c-4 -26 11 -41 39 -41c34 0 56 23 60 49l4 26c1 7 5 10 12 10h58c8 0 11 -4 10 -12zM390 15l-49 -12c-34 -9 -64 -14 -100 -14
c-131 0 -202 76 -202 199c0 129 71 307 270 307c108 0 172 -51 172 -135c0 -76 -38 -141 -171 -161l-161 -23c1 -52 32 -86 95 -86c34 0 59 4 89 11l46 12c8 2 12 -1 13 -9l7 -77c1 -7 -2 -11 -9 -12zM155 262l145 21c54 8 73 34 73 62c0 31 -25 50 -70 50
c-69 0 -123 -41 -148 -133z" />
    <glyph glyph-name="ecaron" unicode="&#x11b;" horiz-adv-x="507" 
d="M355 567h-81c-6 0 -10 2 -13 8l-72 129c-4 7 -1 13 8 13h68c5 0 9 -2 13 -7l48 -68l73 70c4 3 8 5 14 5h65c10 0 12 -6 6 -14l-116 -130c-3 -4 -7 -6 -13 -6zM390 15l-49 -12c-34 -9 -64 -14 -100 -14c-131 0 -202 76 -202 199c0 129 71 307 270 307
c108 0 172 -51 172 -135c0 -76 -38 -141 -171 -161l-161 -23c1 -52 32 -86 95 -86c34 0 59 4 89 11l46 12c8 2 12 -1 13 -9l7 -77c1 -7 -2 -11 -9 -12zM155 262l145 21c54 8 73 34 73 62c0 31 -25 50 -70 50c-69 0 -123 -41 -148 -133z" />
    <glyph glyph-name="ecircumflex" unicode="&#xea;" horiz-adv-x="507" 
d="M326 642l-73 -70c-4 -3 -8 -5 -14 -5h-65c-10 0 -12 6 -6 14l116 130c3 4 7 6 13 6h81c6 0 10 -2 13 -8l72 -129c4 -7 1 -13 -8 -13h-68c-5 0 -9 2 -13 7zM390 15l-49 -12c-34 -9 -64 -14 -100 -14c-131 0 -202 76 -202 199c0 129 71 307 270 307c108 0 172 -51 172 -135
c0 -76 -38 -141 -171 -161l-161 -23c1 -52 32 -86 95 -86c34 0 59 4 89 11l46 12c8 2 12 -1 13 -9l7 -77c1 -7 -2 -11 -9 -12zM155 262l145 21c54 8 73 34 73 62c0 31 -25 50 -70 50c-69 0 -123 -41 -148 -133z" />
    <glyph glyph-name="edblgrave" unicode="&#x205;" horiz-adv-x="507" 
d="M158 717h84c7 0 11 -3 12 -10l26 -128c1 -8 -3 -12 -10 -12h-71c-7 0 -11 3 -13 9l-37 129c-3 7 1 12 9 12zM322 717h81c7 0 10 -3 11 -10l17 -128c1 -8 -2 -12 -10 -12h-68c-7 0 -11 3 -12 10l-28 128c-2 7 2 12 9 12zM390 15l-49 -12c-34 -9 -64 -14 -100 -14
c-131 0 -202 76 -202 199c0 129 71 307 270 307c108 0 172 -51 172 -135c0 -76 -38 -141 -171 -161l-161 -23c1 -52 32 -86 95 -86c34 0 59 4 89 11l46 12c8 2 12 -1 13 -9l7 -77c1 -7 -2 -11 -9 -12zM155 262l145 21c54 8 73 34 73 62c0 31 -25 50 -70 50
c-69 0 -123 -41 -148 -133z" />
    <glyph glyph-name="edieresis" unicode="&#xeb;" horiz-adv-x="507" 
d="M250 733c35 0 56 -21 56 -56c0 -36 -18 -72 -66 -72c-36 0 -57 20 -57 55c0 46 24 73 67 73zM427 733c35 0 56 -21 56 -56c0 -36 -18 -72 -66 -72c-36 0 -57 20 -57 55c0 46 24 73 67 73zM390 15l-49 -12c-34 -9 -64 -14 -100 -14c-131 0 -202 76 -202 199
c0 129 71 307 270 307c108 0 172 -51 172 -135c0 -76 -38 -141 -171 -161l-161 -23c1 -52 32 -86 95 -86c34 0 59 4 89 11l46 12c8 2 12 -1 13 -9l7 -77c1 -7 -2 -11 -9 -12zM155 262l145 21c54 8 73 34 73 62c0 31 -25 50 -70 50c-69 0 -123 -41 -148 -133z" />
    <glyph glyph-name="edotaccent" unicode="&#x117;" horiz-adv-x="507" 
d="M335 727c38 0 60 -22 60 -59c0 -39 -19 -77 -70 -77c-39 0 -61 22 -61 59c0 49 26 77 71 77zM390 15l-49 -12c-34 -9 -64 -14 -100 -14c-131 0 -202 76 -202 199c0 129 71 307 270 307c108 0 172 -51 172 -135c0 -76 -38 -141 -171 -161l-161 -23c1 -52 32 -86 95 -86
c34 0 59 4 89 11l46 12c8 2 12 -1 13 -9l7 -77c1 -7 -2 -11 -9 -12zM155 262l145 21c54 8 73 34 73 62c0 31 -25 50 -70 50c-69 0 -123 -41 -148 -133z" />
    <glyph glyph-name="edotbelow" unicode="&#x1eb9;" horiz-adv-x="507" 
d="M390 15l-49 -12c-34 -9 -64 -14 -100 -14c-131 0 -202 76 -202 199c0 129 71 307 270 307c108 0 172 -51 172 -135c0 -76 -38 -141 -171 -161l-161 -23c1 -52 32 -86 95 -86c34 0 59 4 89 11l46 12c8 2 12 -1 13 -9l7 -77c1 -7 -2 -11 -9 -12zM155 262l145 21
c54 8 73 34 73 62c0 31 -25 50 -70 50c-69 0 -123 -41 -148 -133zM207 -80c39 0 61 -17 61 -48c0 -33 -20 -75 -82 -75c-41 0 -61 16 -61 48c0 35 18 75 82 75z" />
    <glyph glyph-name="egrave" unicode="&#xe8;" horiz-adv-x="507" 
d="M313 708l46 -128c2 -8 -1 -13 -9 -13h-71c-6 0 -10 2 -13 8l-72 129c-4 7 -1 13 8 13h99c6 0 10 -3 12 -9zM390 15l-49 -12c-34 -9 -64 -14 -100 -14c-131 0 -202 76 -202 199c0 129 71 307 270 307c108 0 172 -51 172 -135c0 -76 -38 -141 -171 -161l-161 -23
c1 -52 32 -86 95 -86c34 0 59 4 89 11l46 12c8 2 12 -1 13 -9l7 -77c1 -7 -2 -11 -9 -12zM155 262l145 21c54 8 73 34 73 62c0 31 -25 50 -70 50c-69 0 -123 -41 -148 -133z" />
    <glyph glyph-name="einvertedbreve" unicode="&#x207;" horiz-adv-x="507" 
d="M189 580l5 27c13 77 68 118 145 118c84 0 123 -49 110 -126l-3 -21c-1 -7 -5 -10 -12 -10h-58c-8 0 -11 4 -10 12l6 32c4 26 -11 41 -39 41c-34 0 -56 -23 -60 -49l-4 -26c-1 -7 -5 -10 -12 -10h-58c-8 0 -11 4 -10 12zM390 15l-49 -12c-34 -9 -64 -14 -100 -14
c-131 0 -202 76 -202 199c0 129 71 307 270 307c108 0 172 -51 172 -135c0 -76 -38 -141 -171 -161l-161 -23c1 -52 32 -86 95 -86c34 0 59 4 89 11l46 12c8 2 12 -1 13 -9l7 -77c1 -7 -2 -11 -9 -12zM155 262l145 21c54 8 73 34 73 62c0 31 -25 50 -70 50
c-69 0 -123 -41 -148 -133z" />
    <glyph glyph-name="emacron" unicode="&#x113;" horiz-adv-x="507" 
d="M210 679h245c8 0 11 -4 10 -12l-10 -56c-1 -7 -5 -10 -12 -10h-245c-8 0 -11 4 -10 12l10 56c1 7 5 10 12 10zM390 15l-49 -12c-34 -9 -64 -14 -100 -14c-131 0 -202 76 -202 199c0 129 71 307 270 307c108 0 172 -51 172 -135c0 -76 -38 -141 -171 -161l-161 -23
c1 -52 32 -86 95 -86c34 0 59 4 89 11l46 12c8 2 12 -1 13 -9l7 -77c1 -7 -2 -11 -9 -12zM155 262l145 21c54 8 73 34 73 62c0 31 -25 50 -70 50c-69 0 -123 -41 -148 -133z" />
    <glyph glyph-name="eogonek" unicode="&#x119;" horiz-adv-x="507" 
d="M198 -63l50 39c9 6 15 12 11 13h-18c-131 0 -202 76 -202 199c0 129 71 307 270 307c108 0 172 -51 172 -135c0 -76 -38 -141 -171 -161l-161 -23c1 -52 32 -86 95 -86c34 0 59 4 89 11l46 12c8 2 12 -1 13 -9l8 -83c2 -1 -1 -6 -8 -11l-142 -109
c-13 -10 -18 -20 -18 -31c0 -10 7 -16 20 -16c10 0 18 2 29 5l13 4c7 3 12 0 13 -8l10 -53c1 -7 -1 -11 -8 -13l-22 -7c-15 -5 -32 -8 -49 -8c-60 0 -94 26 -94 70c0 36 16 65 54 93zM155 262l145 21c54 8 73 34 73 62c0 31 -25 50 -70 50c-69 0 -123 -41 -148 -133z" />
    <glyph glyph-name="etilde" unicode="&#x1ebd;" horiz-adv-x="507" 
d="M159 603l30 45c23 37 57 53 94 53c22 0 34 -6 49 -16l34 -22c7 -5 14 -8 21 -8c8 0 14 4 24 18l14 18c3 4 7 6 13 6h56c9 0 12 -6 7 -13l-29 -45c-24 -36 -56 -53 -94 -53c-17 0 -32 6 -48 16l-33 20c-8 5 -14 10 -23 10c-8 0 -15 -5 -24 -17l-14 -18c-3 -5 -7 -7 -13 -7
h-57c-9 0 -12 6 -7 13zM390 15l-49 -12c-34 -9 -64 -14 -100 -14c-131 0 -202 76 -202 199c0 129 71 307 270 307c108 0 172 -51 172 -135c0 -76 -38 -141 -171 -161l-161 -23c1 -52 32 -86 95 -86c34 0 59 4 89 11l46 12c8 2 12 -1 13 -9l7 -77c1 -7 -2 -11 -9 -12z
M155 262l145 21c54 8 73 34 73 62c0 31 -25 50 -70 50c-69 0 -123 -41 -148 -133z" />
    <glyph glyph-name="f" unicode="f" horiz-adv-x="374" 
d="M143 485l11 69c19 111 92 174 198 174c25 0 41 -4 67 -13l18 -6c7 -3 9 -8 6 -15l-35 -72c-3 -6 -8 -8 -15 -5l-12 4c-13 4 -21 6 -33 6c-42 0 -75 -33 -83 -81l-10 -61h111c8 0 11 -4 10 -12l-13 -77c-1 -7 -5 -10 -12 -10h-113l-63 -376c-1 -7 -5 -10 -12 -10h-90
c-8 0 -11 4 -10 12l63 374h-48c-8 0 -11 4 -10 12l13 77c1 7 5 10 12 10h50z" />
    <glyph glyph-name="g" unicode="g" horiz-adv-x="562" 
d="M69 -103l35 -11c21 -6 55 -11 81 -11c72 0 139 22 173 106c8 30 15 52 17 64c2 13 -4 11 -19 1c-40 -34 -82 -57 -135 -57c-124 0 -190 85 -181 219c10 143 92 287 274 287c43 0 85 -9 122 -25l86 -34c6 -3 8 -7 7 -14l-70 -422c-25 -148 -123 -225 -273 -225
c-40 0 -83 6 -110 14l-50 15c-7 2 -9 7 -6 14l35 73c3 6 7 8 14 6zM409 367l-26 13c-20 9 -49 15 -74 15c-101 0 -151 -94 -159 -181c-8 -74 21 -124 87 -124c80 0 134 56 151 154z" />
    <glyph glyph-name="gacute" unicode="&#x1f5;" horiz-adv-x="562" 
d="M392 717h102c9 0 12 -6 6 -14l-117 -130c-3 -4 -7 -6 -13 -6h-74c-9 0 -12 6 -7 13l90 130c4 5 8 7 13 7zM69 -103l35 -11c21 -6 55 -11 81 -11c72 0 139 22 173 106c8 30 15 52 17 64c2 13 -4 11 -19 1c-40 -34 -82 -57 -135 -57c-124 0 -190 85 -181 219
c10 143 92 287 274 287c43 0 85 -9 122 -25l86 -34c6 -3 8 -7 7 -14l-70 -422c-25 -148 -123 -225 -273 -225c-40 0 -83 6 -110 14l-50 15c-7 2 -9 7 -6 14l35 73c3 6 7 8 14 6zM409 367l-26 13c-20 9 -49 15 -74 15c-101 0 -151 -94 -159 -181c-8 -74 21 -124 87 -124
c80 0 134 56 151 154z" />
    <glyph glyph-name="gbreve" unicode="&#x11f;" horiz-adv-x="562" 
d="M494 704l-5 -27c-13 -77 -68 -118 -145 -118c-84 0 -123 49 -110 126l3 21c1 7 5 10 12 10h58c8 0 11 -4 10 -12l-6 -32c-4 -26 11 -41 39 -41c34 0 56 23 60 49l4 26c1 7 5 10 12 10h58c8 0 11 -4 10 -12zM69 -103l35 -11c21 -6 55 -11 81 -11c72 0 139 22 173 106
c8 30 15 52 17 64c2 13 -4 11 -19 1c-40 -34 -82 -57 -135 -57c-124 0 -190 85 -181 219c10 143 92 287 274 287c43 0 85 -9 122 -25l86 -34c6 -3 8 -7 7 -14l-70 -422c-25 -148 -123 -225 -273 -225c-40 0 -83 6 -110 14l-50 15c-7 2 -9 7 -6 14l35 73c3 6 7 8 14 6z
M409 367l-26 13c-20 9 -49 15 -74 15c-101 0 -151 -94 -159 -181c-8 -74 21 -124 87 -124c80 0 134 56 151 154z" />
    <glyph glyph-name="gcircumflex" unicode="&#x11d;" horiz-adv-x="562" 
d="M353 642l-73 -70c-4 -3 -8 -5 -14 -5h-65c-10 0 -12 6 -6 14l116 130c3 4 7 6 13 6h81c6 0 10 -2 13 -8l72 -129c4 -7 1 -13 -8 -13h-68c-5 0 -9 2 -13 7zM436 470l86 -34c6 -3 8 -7 7 -14l-70 -422c-25 -148 -123 -225 -273 -225c-40 0 -83 6 -110 14l-50 15
c-7 2 -9 7 -6 14l35 73c3 6 7 8 14 6l35 -11c21 -6 55 -11 81 -11c72 0 139 22 173 106c8 30 15 52 17 64c2 13 -4 11 -19 1c-40 -34 -82 -57 -135 -57c-124 0 -190 85 -181 219c10 143 92 287 274 287c43 0 85 -9 122 -25zM409 367l-26 13c-20 9 -49 15 -74 15
c-101 0 -151 -94 -159 -181c-8 -74 21 -124 87 -124c80 0 134 56 151 154z" />
    <glyph glyph-name="gcommaaccent" unicode="&#x123;" horiz-adv-x="562" 
d="M385 711l-24 -34c-10 -14 -8 -22 2 -25c15 -5 25 -20 25 -38c0 -30 -20 -57 -61 -57c-28 0 -46 15 -46 42c0 34 24 66 41 89l20 29c4 5 8 7 13 7h23c10 0 13 -6 7 -13zM69 -103l35 -11c21 -6 55 -11 81 -11c72 0 139 22 173 106c8 30 15 52 17 64c2 13 -4 11 -19 1
c-40 -34 -82 -57 -135 -57c-124 0 -190 85 -181 219c10 143 92 287 274 287c43 0 85 -9 122 -25l86 -34c6 -3 8 -7 7 -14l-70 -422c-25 -148 -123 -225 -273 -225c-40 0 -83 6 -110 14l-50 15c-7 2 -9 7 -6 14l35 73c3 6 7 8 14 6zM409 367l-26 13c-20 9 -49 15 -74 15
c-101 0 -151 -94 -159 -181c-8 -74 21 -124 87 -124c80 0 134 56 151 154z" />
    <glyph glyph-name="gdotaccent" unicode="&#x121;" horiz-adv-x="562" 
d="M362 727c38 0 60 -22 60 -59c0 -39 -19 -77 -70 -77c-39 0 -61 22 -61 59c0 49 26 77 71 77zM69 -103l35 -11c21 -6 55 -11 81 -11c72 0 139 22 173 106c8 30 15 52 17 64c2 13 -4 11 -19 1c-40 -34 -82 -57 -135 -57c-124 0 -190 85 -181 219c10 143 92 287 274 287
c43 0 85 -9 122 -25l86 -34c6 -3 8 -7 7 -14l-70 -422c-25 -148 -123 -225 -273 -225c-40 0 -83 6 -110 14l-50 15c-7 2 -9 7 -6 14l35 73c3 6 7 8 14 6zM409 367l-26 13c-20 9 -49 15 -74 15c-101 0 -151 -94 -159 -181c-8 -74 21 -124 87 -124c80 0 134 56 151 154z" />
    <glyph glyph-name="h" unicode="h" horiz-adv-x="557" 
d="M257 705l-25 -149c-8 -48 -17 -76 -36 -112c-4 -9 3 -17 13 -8c39 37 84 59 138 59c117 0 178 -75 158 -193l-50 -292c-1 -7 -5 -10 -12 -10h-90c-8 0 -11 4 -10 12l48 286c11 64 -13 97 -63 97c-85 0 -134 -68 -149 -155l-39 -230c-1 -7 -5 -10 -12 -10h-90
c-8 0 -11 4 -10 12l117 695c1 7 5 10 12 10h90c8 0 11 -4 10 -12z" />
    <glyph glyph-name="hbar" unicode="&#x127;" horiz-adv-x="562" 
d="M238 559l-1 -3c-8 -48 -17 -76 -36 -112c-4 -9 3 -17 13 -8c39 37 84 59 138 59c117 0 178 -75 158 -193l-50 -292c-1 -7 -5 -10 -12 -10h-90c-8 0 -11 4 -10 12l48 286c11 64 -13 97 -63 97c-85 0 -134 -68 -149 -155l-39 -230c-1 -7 -5 -10 -12 -10h-90
c-8 0 -11 4 -10 12l92 547h-54c-8 0 -11 4 -10 12l9 53c1 7 5 10 12 10h56l12 73c1 7 5 10 12 10h90c8 0 11 -4 10 -12l-12 -71h121c8 0 11 -4 10 -12l-9 -53c-1 -7 -5 -10 -12 -10h-122z" />
    <glyph glyph-name="hcircumflex" unicode="&#x125;" horiz-adv-x="557" 
d="M225 854l-75 -55c-4 -3 -8 -4 -14 -4h-76c-10 0 -13 7 -6 14l111 106c4 3 8 5 14 5h110c5 0 9 -2 13 -7l77 -105c6 -7 3 -13 -7 -13h-80c-6 0 -10 2 -14 6zM257 705l-25 -149c-8 -48 -17 -76 -36 -112c-4 -9 3 -17 13 -8c39 37 84 59 138 59c117 0 178 -75 158 -193
l-50 -292c-1 -7 -5 -10 -12 -10h-90c-8 0 -11 4 -10 12l48 286c11 64 -13 97 -63 97c-85 0 -134 -68 -149 -155l-39 -230c-1 -7 -5 -10 -12 -10h-90c-8 0 -11 4 -10 12l117 695c1 7 5 10 12 10h90c8 0 11 -4 10 -12z" />
    <glyph glyph-name="hdotbelow" unicode="&#x1e25;" horiz-adv-x="557" 
d="M257 705l-25 -149c-8 -48 -17 -76 -36 -112c-4 -9 3 -17 13 -8c39 37 84 59 138 59c117 0 178 -75 158 -193l-50 -292c-1 -7 -5 -10 -12 -10h-90c-8 0 -11 4 -10 12l48 286c11 64 -13 97 -63 97c-85 0 -134 -68 -149 -155l-39 -230c-1 -7 -5 -10 -12 -10h-90
c-8 0 -11 4 -10 12l117 695c1 7 5 10 12 10h90c8 0 11 -4 10 -12zM226 -80c39 0 61 -17 61 -48c0 -33 -20 -75 -82 -75c-41 0 -61 16 -61 48c0 35 18 75 82 75z" />
    <glyph glyph-name="i" unicode="i" horiz-adv-x="280" 
d="M221 725c40 0 62 -21 62 -58c0 -50 -27 -77 -71 -77c-40 0 -62 22 -62 59c0 49 27 76 71 76zM253 473l-78 -463c-1 -7 -5 -10 -12 -10h-90c-8 0 -11 4 -10 12l63 374h-48c-8 0 -11 4 -10 12l13 77c1 7 5 10 12 10h150c8 0 11 -4 10 -12z" />
    <glyph glyph-name="dotlessi" unicode="&#x131;" horiz-adv-x="280" 
d="M253 473l-78 -463c-1 -7 -5 -10 -12 -10h-90c-8 0 -11 4 -10 12l63 374h-48c-8 0 -11 4 -10 12l13 77c1 7 5 10 12 10h150c8 0 11 -4 10 -12z" />
    <glyph glyph-name="iacute" unicode="&#xed;" horiz-adv-x="280" 
d="M333 704l-88 -130c-4 -5 -8 -7 -14 -7h-67c-8 0 -11 5 -8 13l63 129c3 5 7 8 13 8h94c9 0 12 -6 7 -13zM163 0h-90c-8 0 -11 4 -10 12l63 374h-48c-8 0 -11 4 -10 12l13 77c1 7 5 10 12 10h150c8 0 11 -4 10 -12l-78 -463c-1 -7 -5 -10 -12 -10z" />
    <glyph glyph-name="ibreve" unicode="&#x12d;" horiz-adv-x="280" 
d="M334 704l-5 -30c-12 -71 -60 -113 -131 -113s-106 43 -94 114l5 31c1 7 5 10 12 10h57c8 0 11 -4 10 -12l-6 -36c-4 -25 4 -35 26 -35c19 0 37 11 41 36l6 37c1 7 5 10 12 10h57c8 0 11 -4 10 -12zM163 0h-90c-8 0 -11 4 -10 12l63 374h-48c-8 0 -11 4 -10 12l13 77
c1 7 5 10 12 10h150c8 0 11 -4 10 -12l-78 -463c-1 -7 -5 -10 -12 -10z" />
    <glyph glyph-name="icaron" unicode="&#x1d0;" horiz-adv-x="280" 
d="M246 567h-88c-6 0 -10 3 -12 9l-51 128c-3 8 0 13 9 13h63c6 0 10 -2 13 -8l34 -62l57 64c3 4 7 6 13 6h62c10 0 13 -6 7 -13l-94 -130c-4 -5 -8 -7 -13 -7zM68 398l13 77c1 7 5 10 12 10h150c8 0 11 -4 10 -12l-78 -463c-1 -7 -5 -10 -12 -10h-90c-8 0 -11 4 -10 12
l63 374h-48c-8 0 -11 4 -10 12z" />
    <glyph glyph-name="icircumflex" unicode="&#xee;" horiz-adv-x="280" 
d="M214 637l-57 -64c-3 -4 -7 -6 -13 -6h-62c-10 0 -13 6 -7 13l94 130c4 5 8 7 13 7h88c6 0 10 -3 12 -9l51 -128c3 -8 0 -13 -9 -13h-63c-6 0 -10 2 -13 8zM68 398l13 77c1 7 5 10 12 10h150c8 0 11 -4 10 -12l-78 -463c-1 -7 -5 -10 -12 -10h-90c-8 0 -11 4 -10 12
l63 374h-48c-8 0 -11 4 -10 12z" />
    <glyph glyph-name="idblgrave" unicode="&#x209;" horiz-adv-x="280" 
d="M41 717h76c7 0 11 -3 12 -10l26 -128c1 -8 -3 -12 -10 -12h-64c-7 0 -11 3 -13 9l-36 129c-3 7 1 12 9 12zM198 717h78c7 0 10 -3 11 -10l16 -128c1 -8 -2 -12 -10 -12h-64c-7 0 -11 3 -12 10l-28 128c-2 7 2 12 9 12zM163 0h-90c-8 0 -11 4 -10 12l63 374h-48
c-8 0 -11 4 -10 12l13 77c1 7 5 10 12 10h150c8 0 11 -4 10 -12l-78 -463c-1 -7 -5 -10 -12 -10z" />
    <glyph glyph-name="idieresis" unicode="&#xef;" horiz-adv-x="280" 
d="M139 731c35 0 56 -21 56 -56c0 -36 -18 -72 -66 -72c-36 0 -57 20 -57 55c0 46 24 73 67 73zM303 731c35 0 56 -21 56 -56c0 -36 -18 -72 -66 -72c-36 0 -57 20 -57 55c0 46 24 73 67 73zM163 0h-90c-8 0 -11 4 -10 12l63 374h-48c-8 0 -11 4 -10 12l13 77
c1 7 5 10 12 10h150c8 0 11 -4 10 -12l-78 -463c-1 -7 -5 -10 -12 -10z" />
    <glyph glyph-name="idotbelow" unicode="&#x1ecb;" horiz-adv-x="280" 
d="M221 725c40 0 62 -21 62 -58c0 -50 -27 -77 -71 -77c-40 0 -62 22 -62 59c0 49 27 76 71 76zM163 0h-90c-8 0 -11 4 -10 12l63 374h-48c-8 0 -11 4 -10 12l13 77c1 7 5 10 12 10h150c8 0 11 -4 10 -12l-78 -463c-1 -7 -5 -10 -12 -10zM103 -80c39 0 61 -17 61 -48
c0 -33 -20 -75 -82 -75c-41 0 -61 16 -61 48c0 35 18 75 82 75z" />
    <glyph glyph-name="igrave" unicode="&#xec;" horiz-adv-x="280" 
d="M126 717h97c7 0 10 -3 11 -10l19 -128c1 -8 -2 -12 -10 -12h-69c-6 0 -10 3 -12 9l-45 128c-2 8 1 13 9 13zM163 0h-90c-8 0 -11 4 -10 12l63 374h-48c-8 0 -11 4 -10 12l13 77c1 7 5 10 12 10h150c8 0 11 -4 10 -12l-78 -463c-1 -7 -5 -10 -12 -10z" />
    <glyph glyph-name="iinvertedbreve" unicode="&#x20b;" horiz-adv-x="280" 
d="M88 579l5 30c12 71 60 113 131 113s106 -43 94 -114l-5 -31c-1 -7 -5 -10 -12 -10h-57c-8 0 -11 4 -10 12l6 36c4 25 -4 35 -26 35c-19 0 -37 -11 -41 -36l-6 -37c-1 -7 -5 -10 -12 -10h-57c-8 0 -11 4 -10 12zM163 0h-90c-8 0 -11 4 -10 12l63 374h-48
c-8 0 -11 4 -10 12l13 77c1 7 5 10 12 10h150c8 0 11 -4 10 -12l-78 -463c-1 -7 -5 -10 -12 -10z" />
    <glyph glyph-name="ij" unicode="&#x133;" horiz-adv-x="560" 
d="M501 726c40 0 62 -22 62 -59c0 -50 -27 -78 -71 -78c-39 0 -62 22 -62 59c0 50 28 78 71 78zM221 725c40 0 62 -21 62 -58c0 -50 -27 -77 -71 -77c-40 0 -62 22 -62 59c0 49 27 76 71 76zM163 0h-90c-8 0 -11 4 -10 12l63 374h-48c-8 0 -11 4 -10 12l13 77
c1 7 5 10 12 10h150c8 0 11 -4 10 -12l-78 -463c-1 -7 -5 -10 -12 -10zM533 473l-84 -498c-14 -80 -53 -142 -140 -183l-31 -16c-6 -3 -12 -1 -14 6l-31 74c-3 7 -1 12 5 15l25 14c43 20 68 55 75 98l68 403h-48c-8 0 -11 4 -10 12l13 77c1 7 5 10 12 10h150
c8 0 11 -4 10 -12z" />
    <glyph glyph-name="imacron" unicode="&#x12b;" horiz-adv-x="280" 
d="M112 679h201c8 0 11 -4 10 -12l-10 -56c-1 -7 -5 -10 -12 -10h-201c-8 0 -11 4 -10 12l10 56c1 7 5 10 12 10zM163 0h-90c-8 0 -11 4 -10 12l63 374h-48c-8 0 -11 4 -10 12l13 77c1 7 5 10 12 10h150c8 0 11 -4 10 -12l-78 -463c-1 -7 -5 -10 -12 -10z" />
    <glyph glyph-name="iogonek" unicode="&#x12f;" horiz-adv-x="280" 
d="M221 725c40 0 62 -21 62 -58c0 -50 -27 -77 -71 -77c-40 0 -62 22 -62 59c0 49 27 76 71 76zM68 398l13 77c1 7 5 10 12 10h150c8 0 11 -4 10 -12l-80 -473c-3 -19 -11 -31 -41 -55l-54 -44c-12 -11 -17 -18 -17 -31c0 -10 6 -16 19 -16c8 0 18 2 30 6l9 3
c7 3 12 0 13 -8l10 -54c1 -6 -1 -11 -8 -13l-18 -5c-16 -6 -33 -9 -51 -9c-57 0 -93 26 -93 72c0 32 15 59 47 85l42 34c22 18 23 31 9 35c-6 0 -8 4 -7 12l63 374h-48c-8 0 -11 4 -10 12z" />
    <glyph glyph-name="itilde" unicode="&#x129;" horiz-adv-x="280" 
d="M67 601l24 39c24 37 50 55 83 55c19 0 31 -5 46 -18l20 -15c5 -4 10 -6 15 -6c10 0 18 7 26 18l7 12c4 5 8 7 14 7h49c9 0 12 -6 7 -13l-24 -38c-24 -38 -50 -56 -82 -56c-21 0 -33 7 -46 17l-19 16c-7 5 -14 7 -17 7c-10 0 -17 -6 -25 -19l-7 -12c-4 -5 -8 -7 -14 -7
h-49c-9 0 -13 6 -8 13zM163 0h-90c-8 0 -11 4 -10 12l63 374h-48c-8 0 -11 4 -10 12l13 77c1 7 5 10 12 10h150c8 0 11 -4 10 -12l-78 -463c-1 -7 -5 -10 -12 -10z" />
    <glyph glyph-name="j" unicode="j" horiz-adv-x="280" 
d="M221 726c40 0 62 -22 62 -59c0 -50 -27 -78 -71 -78c-39 0 -62 22 -62 59c0 50 28 78 71 78zM253 473l-84 -498c-14 -80 -53 -142 -140 -183l-31 -16c-6 -3 -12 -1 -14 6l-31 74c-3 7 -1 12 5 15l25 14c43 20 68 55 75 98l68 403h-48c-8 0 -11 4 -10 12l13 77
c1 7 5 10 12 10h150c8 0 11 -4 10 -12z" />
    <glyph glyph-name="jcircumflex" unicode="&#x135;" horiz-adv-x="280" 
d="M214 637l-57 -64c-3 -4 -7 -6 -13 -6h-62c-10 0 -13 6 -7 13l94 130c4 5 8 7 13 7h88c6 0 10 -3 12 -9l51 -128c3 -8 0 -13 -9 -13h-63c-6 0 -10 2 -13 8zM68 398l13 77c1 7 5 10 12 10h150c8 0 11 -4 10 -12l-84 -498c-14 -80 -53 -142 -140 -183l-31 -16
c-6 -3 -12 -1 -14 6l-31 74c-3 7 -1 12 5 15l25 14c43 20 68 55 75 98l68 403h-48c-8 0 -11 4 -10 12z" />
    <glyph glyph-name="k" unicode="k" horiz-adv-x="545" 
d="M528 472l-112 -142c-31 -38 -68 -65 -103 -77c-8 -3 -8 -7 -2 -10c33 -14 59 -42 78 -80l66 -150c4 -8 0 -13 -8 -13h-93c-6 0 -10 3 -13 8l-52 110c-20 42 -47 78 -103 78h-15l-30 -186c-1 -7 -5 -10 -12 -10h-90c-8 0 -11 4 -10 12l75 455l41 240c1 7 5 10 12 10h90
c8 0 11 -4 10 -12l-37 -220l-31 -190h14c44 0 84 42 117 82l83 102c3 4 7 6 13 6h106c9 0 12 -6 6 -13z" />
    <glyph glyph-name="kcommaaccent" unicode="&#x137;" horiz-adv-x="545" 
d="M528 472l-112 -142c-31 -38 -68 -65 -103 -77c-8 -3 -8 -7 -2 -10c33 -14 59 -42 78 -80l66 -150c4 -8 0 -13 -8 -13h-93c-6 0 -10 3 -13 8l-52 110c-20 42 -47 78 -103 78h-15l-30 -186c-1 -7 -5 -10 -12 -10h-90c-8 0 -11 4 -10 12l75 455l41 240c1 7 5 10 12 10h90
c8 0 11 -4 10 -12l-37 -220l-31 -190h14c44 0 84 42 117 82l83 102c3 4 7 6 13 6h106c9 0 12 -6 6 -13zM158 -218l24 34c10 14 8 22 -2 25c-15 5 -25 20 -25 38c0 30 20 57 61 57c28 0 46 -15 46 -42c0 -34 -24 -66 -41 -89l-20 -29c-4 -5 -8 -7 -13 -7h-23
c-10 0 -13 6 -7 13z" />
    <glyph glyph-name="kgreenlandic" unicode="&#x138;" horiz-adv-x="545" 
d="M188 295h14c44 0 84 42 117 82l83 102c3 4 7 6 13 6h106c9 0 12 -6 6 -13l-112 -142c-31 -38 -68 -65 -103 -77c-8 -3 -8 -7 -2 -10c33 -14 59 -42 78 -80l66 -150c4 -8 0 -13 -8 -13h-93c-6 0 -10 3 -13 8l-52 110c-20 42 -47 78 -103 78h-15l-30 -186
c-1 -7 -5 -10 -12 -10h-90c-8 0 -11 4 -10 12l77 463c1 7 5 10 12 10h90c8 0 11 -4 10 -12z" />
    <glyph glyph-name="l" unicode="l" horiz-adv-x="287" 
d="M257 705l-99 -589c-3 -16 2 -26 14 -26c3 0 7 0 9 1c7 0 12 -2 13 -9l17 -70c1 -7 -1 -12 -7 -14c-15 -6 -33 -9 -48 -9c-83 0 -124 48 -110 128l99 590c1 7 5 10 12 10h90c8 0 11 -4 10 -12z" />
    <glyph glyph-name="lacute" unicode="&#x13a;" horiz-adv-x="287" 
d="M262 920h119c10 0 13 -7 5 -14l-123 -106c-4 -4 -8 -5 -14 -5h-84c-10 0 -13 6 -6 13l90 106c3 4 7 6 13 6zM257 705l-99 -589c-3 -16 2 -26 14 -26c3 0 7 0 9 1c7 0 12 -2 13 -9l17 -70c1 -7 -1 -12 -7 -14c-15 -6 -33 -9 -48 -9c-83 0 -124 48 -110 128l99 590
c1 7 5 10 12 10h90c8 0 11 -4 10 -12z" />
    <glyph glyph-name="lcaron" unicode="&#x13e;" horiz-adv-x="298" 
d="M257 705l-99 -589c-3 -16 2 -26 14 -26c3 0 7 0 9 1c7 0 12 -2 13 -9l17 -70c1 -7 -1 -12 -7 -14c-15 -6 -33 -9 -48 -9c-83 0 -124 48 -110 128l99 590c1 7 5 10 12 10h90c8 0 11 -4 10 -12zM337 717h64c7 0 11 -4 10 -12l-6 -31c-3 -23 -15 -54 -36 -86l-8 -14
c-4 -5 -8 -7 -14 -7h-50c-8 0 -12 5 -8 13l8 19c11 23 17 46 22 71l6 37c1 7 5 10 12 10z" />
    <glyph glyph-name="lcommaaccent" unicode="&#x13c;" horiz-adv-x="287" 
d="M257 705l-99 -589c-3 -16 2 -26 14 -26c3 0 7 0 9 1c7 0 12 -2 13 -9l17 -70c1 -7 -1 -12 -7 -14c-15 -6 -33 -9 -48 -9c-83 0 -124 48 -110 128l99 590c1 7 5 10 12 10h90c8 0 11 -4 10 -12zM38 -218l24 34c10 14 8 22 -2 25c-15 5 -25 20 -25 38c0 30 20 57 61 57
c28 0 46 -15 46 -42c0 -34 -24 -66 -41 -89l-20 -29c-4 -5 -8 -7 -13 -7h-23c-10 0 -13 6 -7 13z" />
    <glyph glyph-name="ldot" unicode="&#x140;" horiz-adv-x="360" 
d="M257 705l-99 -589c-3 -16 2 -26 14 -26c3 0 7 0 9 1c7 0 12 -2 13 -9l17 -70c1 -7 -1 -12 -7 -14c-15 -6 -33 -9 -48 -9c-83 0 -124 48 -110 128l99 590c1 7 5 10 12 10h90c8 0 11 -4 10 -12zM366 459c48 0 72 -31 64 -79c-8 -41 -34 -65 -75 -65c-47 0 -71 31 -63 79
c8 41 34 65 74 65z" />
    <glyph glyph-name="lj" unicode="&#x1c9;" horiz-adv-x="548" 
d="M489 726c40 0 62 -22 62 -59c0 -50 -27 -78 -71 -78c-39 0 -62 22 -62 59c0 50 28 78 71 78zM257 705l-99 -589c-3 -16 2 -26 14 -26c3 0 7 0 9 1c7 0 12 -2 13 -9l17 -70c1 -7 -1 -12 -7 -14c-15 -6 -33 -9 -48 -9c-83 0 -124 48 -110 128l99 590c1 7 5 10 12 10h90
c8 0 11 -4 10 -12zM521 473l-84 -498c-14 -80 -53 -142 -140 -183l-31 -16c-6 -3 -12 -1 -14 6l-31 74c-3 7 -1 12 5 15l25 14c43 20 68 55 75 98l68 403h-48c-8 0 -11 4 -10 12l13 77c1 7 5 10 12 10h150c8 0 11 -4 10 -12z" />
    <glyph glyph-name="lslash" unicode="&#x142;" horiz-adv-x="359" 
d="M241 330l-36 -214c-3 -16 2 -26 14 -26c3 0 7 0 9 1c7 0 12 -2 13 -9l17 -70c1 -7 -1 -12 -7 -14c-15 -6 -33 -9 -48 -9c-83 0 -124 48 -110 128l28 168l-68 -25c-8 -3 -13 1 -12 10l15 84c1 6 4 10 9 12l75 28l52 313c1 7 5 10 12 10h90c8 0 11 -4 10 -12l-45 -267
l80 30c8 3 13 -1 11 -10l-15 -85c-1 -6 -4 -10 -9 -12z" />
    <glyph glyph-name="m" unicode="m" horiz-adv-x="844" 
d="M178 474l2 -36c7 -16 11 -14 27 -1c43 41 87 58 139 58c54 0 90 -26 113 -64c15 -16 24 -18 43 -1c49 49 95 65 145 65c109 0 165 -75 145 -193l-50 -292c-1 -7 -5 -10 -12 -10h-90c-8 0 -11 4 -10 12l49 286c10 63 -7 97 -56 97c-79 0 -128 -63 -143 -155l-39 -230
c-1 -7 -5 -10 -12 -10h-90c-8 0 -11 4 -10 12l48 287c11 62 -8 96 -56 96c-80 0 -127 -63 -143 -155l-38 -230c-1 -7 -5 -10 -12 -10h-90c-8 0 -11 4 -10 12l77 463c1 7 5 10 12 10h50c7 0 11 -4 11 -11z" />
    <glyph glyph-name="n" unicode="n" 
d="M179 474l3 -37c4 -13 11 -12 24 -1c46 43 100 59 146 59c117 0 173 -75 152 -193l-49 -292c-1 -7 -5 -10 -12 -10h-90c-8 0 -11 4 -10 12l48 286c11 63 -13 97 -64 97c-77 0 -132 -59 -149 -155l-38 -230c-1 -7 -5 -10 -12 -10h-90c-8 0 -11 4 -10 12l77 463
c1 7 5 10 12 10h50c7 0 11 -4 12 -11z" />
    <glyph glyph-name="nacute" unicode="&#x144;" 
d="M393 717h102c9 0 12 -6 6 -14l-117 -130c-3 -4 -7 -6 -13 -6h-74c-9 0 -12 6 -7 13l90 130c4 5 8 7 13 7zM179 474l3 -37c4 -13 11 -12 24 -1c46 43 100 59 146 59c117 0 173 -75 152 -193l-49 -292c-1 -7 -5 -10 -12 -10h-90c-8 0 -11 4 -10 12l48 286
c11 63 -13 97 -64 97c-77 0 -132 -59 -149 -155l-38 -230c-1 -7 -5 -10 -12 -10h-90c-8 0 -11 4 -10 12l77 463c1 7 5 10 12 10h50c7 0 11 -4 12 -11z" />
    <glyph glyph-name="ncaron" unicode="&#x148;" 
d="M383 567h-81c-6 0 -10 2 -13 8l-72 129c-4 7 -1 13 8 13h68c5 0 9 -2 13 -7l48 -68l73 70c4 3 8 5 14 5h65c10 0 12 -6 6 -14l-116 -130c-3 -4 -7 -6 -13 -6zM179 474l3 -37c4 -13 11 -12 24 -1c46 43 100 59 146 59c117 0 173 -75 152 -193l-49 -292
c-1 -7 -5 -10 -12 -10h-90c-8 0 -11 4 -10 12l48 286c11 63 -13 97 -64 97c-77 0 -132 -59 -149 -155l-38 -230c-1 -7 -5 -10 -12 -10h-90c-8 0 -11 4 -10 12l77 463c1 7 5 10 12 10h50c7 0 11 -4 12 -11z" />
    <glyph glyph-name="ncommaaccent" unicode="&#x146;" 
d="M179 474l3 -37c4 -13 11 -12 24 -1c46 43 100 59 146 59c117 0 173 -75 152 -193l-49 -292c-1 -7 -5 -10 -12 -10h-90c-8 0 -11 4 -10 12l48 286c11 63 -13 97 -64 97c-77 0 -132 -59 -149 -155l-38 -230c-1 -7 -5 -10 -12 -10h-90c-8 0 -11 4 -10 12l77 463
c1 7 5 10 12 10h50c7 0 11 -4 12 -11zM170 -218l24 34c10 14 8 22 -2 25c-15 5 -25 20 -25 38c0 30 20 57 61 57c28 0 46 -15 46 -42c0 -34 -24 -66 -41 -89l-20 -29c-4 -5 -8 -7 -13 -7h-23c-10 0 -13 6 -7 13z" />
    <glyph glyph-name="ndotaccent" unicode="&#x1e45;" 
d="M363 727c38 0 60 -22 60 -59c0 -39 -19 -77 -70 -77c-39 0 -61 22 -61 59c0 49 26 77 71 77zM179 474l3 -37c4 -13 11 -12 24 -1c46 43 100 59 146 59c117 0 173 -75 152 -193l-49 -292c-1 -7 -5 -10 -12 -10h-90c-8 0 -11 4 -10 12l48 286c11 63 -13 97 -64 97
c-77 0 -132 -59 -149 -155l-38 -230c-1 -7 -5 -10 -12 -10h-90c-8 0 -11 4 -10 12l77 463c1 7 5 10 12 10h50c7 0 11 -4 12 -11z" />
    <glyph glyph-name="ndotbelow" unicode="&#x1e47;" 
d="M179 474l3 -37c4 -13 11 -12 24 -1c46 43 100 59 146 59c117 0 173 -75 152 -193l-49 -292c-1 -7 -5 -10 -12 -10h-90c-8 0 -11 4 -10 12l48 286c11 63 -13 97 -64 97c-77 0 -132 -59 -149 -155l-38 -230c-1 -7 -5 -10 -12 -10h-90c-8 0 -11 4 -10 12l77 463
c1 7 5 10 12 10h50c7 0 11 -4 12 -11zM226 -80c39 0 61 -17 61 -48c0 -33 -20 -75 -82 -75c-41 0 -61 16 -61 48c0 35 18 75 82 75z" />
    <glyph glyph-name="eng" unicode="&#x14b;" 
d="M332 -52l59 350c11 63 -13 97 -64 97c-77 0 -133 -59 -149 -155l-39 -230c-1 -7 -5 -10 -12 -10h-89c-8 0 -11 4 -10 12l77 463c1 7 5 10 12 10h50c7 0 11 -4 11 -11l2 -34c6 -18 11 -15 29 -2c46 42 97 57 143 57c117 0 173 -75 152 -193l-61 -362
c-18 -107 -91 -166 -198 -166c-29 0 -49 3 -75 12l-28 9c-7 3 -9 8 -6 15l36 71c3 6 8 8 15 6l17 -6c16 -5 30 -6 45 -6c43 0 76 30 83 73z" />
    <glyph glyph-name="nj" unicode="&#x1cc;" horiz-adv-x="832" 
d="M773 726c40 0 62 -22 62 -59c0 -50 -27 -78 -71 -78c-39 0 -62 22 -62 59c0 50 28 78 71 78zM179 474l3 -37c4 -13 11 -12 24 -1c46 43 100 59 146 59c117 0 173 -75 152 -193l-49 -292c-1 -7 -5 -10 -12 -10h-90c-8 0 -11 4 -10 12l48 286c11 63 -13 97 -64 97
c-77 0 -132 -59 -149 -155l-38 -230c-1 -7 -5 -10 -12 -10h-90c-8 0 -11 4 -10 12l77 463c1 7 5 10 12 10h50c7 0 11 -4 12 -11zM805 473l-84 -498c-14 -80 -53 -142 -140 -183l-31 -16c-6 -3 -12 -1 -14 6l-31 74c-3 7 -1 12 5 15l25 14c43 20 68 55 75 98l68 403h-48
c-8 0 -11 4 -10 12l13 77c1 7 5 10 12 10h150c8 0 11 -4 10 -12z" />
    <glyph glyph-name="ntilde" unicode="&#xf1;" 
d="M187 603l30 45c23 37 57 53 94 53c22 0 34 -6 49 -16l34 -22c7 -5 14 -8 21 -8c8 0 14 4 24 18l14 18c3 4 7 6 13 6h56c9 0 12 -6 7 -13l-29 -45c-24 -36 -56 -53 -94 -53c-17 0 -32 6 -48 16l-33 20c-8 5 -14 10 -23 10c-8 0 -15 -5 -24 -17l-14 -18c-3 -5 -7 -7 -13 -7
h-57c-9 0 -12 6 -7 13zM179 474l3 -37c4 -13 11 -12 24 -1c46 43 100 59 146 59c117 0 173 -75 152 -193l-49 -292c-1 -7 -5 -10 -12 -10h-90c-8 0 -11 4 -10 12l48 286c11 63 -13 97 -64 97c-77 0 -132 -59 -149 -155l-38 -230c-1 -7 -5 -10 -12 -10h-90c-8 0 -11 4 -10 12
l77 463c1 7 5 10 12 10h50c7 0 11 -4 12 -11z" />
    <glyph glyph-name="o" unicode="o" horiz-adv-x="549" 
d="M310 495c127 0 200 -75 200 -198c0 -126 -72 -308 -271 -308c-127 0 -200 76 -200 199c0 128 73 307 271 307zM307 395c-118 0 -158 -125 -158 -200c0 -67 33 -105 93 -105c117 0 158 125 158 200c0 67 -33 105 -93 105z" />
    <glyph glyph-name="oacute" unicode="&#xf3;" horiz-adv-x="549" 
d="M381 717h102c9 0 12 -6 6 -14l-117 -130c-3 -4 -7 -6 -13 -6h-74c-9 0 -12 6 -7 13l90 130c4 5 8 7 13 7zM310 495c127 0 200 -75 200 -198c0 -126 -72 -308 -271 -308c-127 0 -200 76 -200 199c0 128 73 307 271 307zM307 395c-118 0 -158 -125 -158 -200
c0 -67 33 -105 93 -105c117 0 158 125 158 200c0 67 -33 105 -93 105z" />
    <glyph glyph-name="obreve" unicode="&#x14f;" horiz-adv-x="549" 
d="M483 704l-5 -27c-13 -77 -68 -118 -145 -118c-84 0 -123 49 -110 126l3 21c1 7 5 10 12 10h58c8 0 11 -4 10 -12l-6 -32c-4 -26 11 -41 39 -41c34 0 56 23 60 49l4 26c1 7 5 10 12 10h58c8 0 11 -4 10 -12zM310 495c127 0 200 -75 200 -198c0 -126 -72 -308 -271 -308
c-127 0 -200 76 -200 199c0 128 73 307 271 307zM307 395c-118 0 -158 -125 -158 -200c0 -67 33 -105 93 -105c117 0 158 125 158 200c0 67 -33 105 -93 105z" />
    <glyph glyph-name="ocaron" unicode="&#x1d2;" horiz-adv-x="549" 
d="M372 567h-81c-6 0 -10 2 -13 8l-72 129c-4 7 -1 13 8 13h68c5 0 9 -2 13 -7l48 -68l73 70c4 3 8 5 14 5h65c10 0 12 -6 6 -14l-116 -130c-3 -4 -7 -6 -13 -6zM310 495c127 0 200 -75 200 -198c0 -126 -72 -308 -271 -308c-127 0 -200 76 -200 199c0 128 73 307 271 307z
M242 90c117 0 158 125 158 200c0 67 -33 105 -93 105c-118 0 -158 -125 -158 -200c0 -67 33 -105 93 -105z" />
    <glyph glyph-name="ocircumflex" unicode="&#xf4;" horiz-adv-x="549" 
d="M343 642l-73 -70c-4 -3 -8 -5 -14 -5h-65c-10 0 -12 6 -6 14l116 130c3 4 7 6 13 6h81c6 0 10 -2 13 -8l72 -129c4 -7 1 -13 -8 -13h-68c-5 0 -9 2 -13 7zM310 495c127 0 200 -75 200 -198c0 -126 -72 -308 -271 -308c-127 0 -200 76 -200 199c0 128 73 307 271 307z
M242 90c117 0 158 125 158 200c0 67 -33 105 -93 105c-118 0 -158 -125 -158 -200c0 -67 33 -105 93 -105z" />
    <glyph glyph-name="odblgrave" unicode="&#x20d;" horiz-adv-x="549" 
d="M175 717h84c7 0 11 -3 12 -10l26 -128c1 -8 -3 -12 -10 -12h-71c-7 0 -11 3 -13 9l-37 129c-3 7 1 12 9 12zM339 717h81c7 0 10 -3 11 -10l17 -128c1 -8 -2 -12 -10 -12h-68c-7 0 -11 3 -12 10l-28 128c-2 7 2 12 9 12zM310 495c127 0 200 -75 200 -198
c0 -126 -72 -308 -271 -308c-127 0 -200 76 -200 199c0 128 73 307 271 307zM307 395c-118 0 -158 -125 -158 -200c0 -67 33 -105 93 -105c117 0 158 125 158 200c0 67 -33 105 -93 105z" />
    <glyph glyph-name="odieresis" unicode="&#xf6;" horiz-adv-x="549" 
d="M266 733c35 0 56 -21 56 -56c0 -36 -18 -72 -66 -72c-36 0 -57 20 -57 55c0 46 24 73 67 73zM443 733c35 0 56 -21 56 -56c0 -36 -18 -72 -66 -72c-36 0 -57 20 -57 55c0 46 24 73 67 73zM310 495c127 0 200 -75 200 -198c0 -126 -72 -308 -271 -308
c-127 0 -200 76 -200 199c0 128 73 307 271 307zM307 395c-118 0 -158 -125 -158 -200c0 -67 33 -105 93 -105c117 0 158 125 158 200c0 67 -33 105 -93 105z" />
    <glyph glyph-name="odotbelow" unicode="&#x1ecd;" horiz-adv-x="549" 
d="M310 495c127 0 200 -75 200 -198c0 -126 -72 -308 -271 -308c-127 0 -200 76 -200 199c0 128 73 307 271 307zM307 395c-118 0 -158 -125 -158 -200c0 -67 33 -105 93 -105c117 0 158 125 158 200c0 67 -33 105 -93 105zM218 -80c39 0 61 -17 61 -48
c0 -33 -20 -75 -82 -75c-41 0 -61 16 -61 48c0 35 18 75 82 75z" />
    <glyph glyph-name="ograve" unicode="&#xf2;" horiz-adv-x="549" 
d="M330 708l46 -128c2 -8 -1 -13 -9 -13h-71c-6 0 -10 2 -13 8l-72 129c-4 7 -1 13 8 13h99c6 0 10 -3 12 -9zM310 495c127 0 200 -75 200 -198c0 -126 -72 -308 -271 -308c-127 0 -200 76 -200 199c0 128 73 307 271 307zM307 395c-118 0 -158 -125 -158 -200
c0 -67 33 -105 93 -105c117 0 158 125 158 200c0 67 -33 105 -93 105z" />
    <glyph glyph-name="ohungarumlaut" unicode="&#x151;" horiz-adv-x="549" 
d="M364 704l-73 -129c-3 -6 -7 -8 -13 -8h-69c-8 0 -11 5 -8 13l61 129c3 5 7 8 13 8h81c9 0 12 -6 8 -13zM532 704l-82 -130c-4 -5 -8 -7 -14 -7h-67c-9 0 -12 5 -8 13l70 129c3 6 7 8 13 8h80c9 0 12 -6 8 -13zM310 495c127 0 200 -75 200 -198c0 -126 -72 -308 -271 -308
c-127 0 -200 76 -200 199c0 128 73 307 271 307zM307 395c-118 0 -158 -125 -158 -200c0 -67 33 -105 93 -105c117 0 158 125 158 200c0 67 -33 105 -93 105z" />
    <glyph glyph-name="oinvertedbreve" unicode="&#x20f;" horiz-adv-x="549" 
d="M205 580l5 27c13 77 68 118 145 118c84 0 123 -49 110 -126l-3 -21c-1 -7 -5 -10 -12 -10h-58c-8 0 -11 4 -10 12l6 32c4 26 -11 41 -39 41c-34 0 -56 -23 -60 -49l-4 -26c-1 -7 -5 -10 -12 -10h-58c-8 0 -11 4 -10 12zM310 495c127 0 200 -75 200 -198
c0 -126 -72 -308 -271 -308c-127 0 -200 76 -200 199c0 128 73 307 271 307zM307 395c-118 0 -158 -125 -158 -200c0 -67 33 -105 93 -105c117 0 158 125 158 200c0 67 -33 105 -93 105z" />
    <glyph glyph-name="omacron" unicode="&#x14d;" horiz-adv-x="549" 
d="M226 679h245c8 0 11 -4 10 -12l-10 -56c-1 -7 -5 -10 -12 -10h-245c-8 0 -11 4 -10 12l10 56c1 7 5 10 12 10zM310 495c127 0 200 -75 200 -198c0 -126 -72 -308 -271 -308c-127 0 -200 76 -200 199c0 128 73 307 271 307zM307 395c-118 0 -158 -125 -158 -200
c0 -67 33 -105 93 -105c117 0 158 125 158 200c0 67 -33 105 -93 105z" />
    <glyph glyph-name="oogonek" unicode="&#x1eb;" horiz-adv-x="549" 
d="M372 23l-150 -122c-11 -9 -18 -18 -18 -30c0 -10 6 -17 18 -17c9 0 19 2 30 6l10 3c7 2 12 -1 13 -8l11 -54c1 -7 -1 -11 -8 -13l-17 -6c-18 -5 -35 -8 -52 -8c-60 0 -94 27 -94 70c0 37 19 62 50 89l34 28c20 16 22 24 11 29c-109 11 -171 85 -171 198
c0 128 73 307 271 307c127 0 200 -75 200 -198c0 -93 -39 -215 -138 -274zM149 195c0 -67 33 -105 93 -105c117 0 158 125 158 200c0 67 -33 105 -93 105c-118 0 -158 -125 -158 -200z" />
    <glyph glyph-name="oslash" unicode="&#xf8;" horiz-adv-x="550" 
d="M534 471l-54 -55c20 -31 31 -72 31 -119c0 -126 -73 -308 -272 -308c-57 0 -103 15 -136 43l-26 -26c-4 -4 -8 -6 -14 -6h-42c-10 0 -13 7 -6 14l55 55c-20 32 -31 72 -31 119c0 128 74 307 272 307c57 0 103 -15 136 -42l26 26c4 4 8 6 14 6h41c10 0 13 -7 6 -14z
M150 150l222 226c-17 12 -38 19 -65 19c-122 0 -164 -125 -164 -200c0 -17 2 -32 7 -45zM400 335l-222 -226c17 -12 38 -19 65 -19c120 0 164 125 164 200c0 17 -2 32 -7 45z" />
    <glyph glyph-name="oslashacute" unicode="&#x1ff;" horiz-adv-x="550" 
d="M387 717h102c9 0 12 -6 6 -14l-117 -130c-3 -4 -7 -6 -13 -6h-74c-9 0 -12 6 -7 13l90 130c4 5 8 7 13 7zM534 471l-54 -55c20 -31 31 -72 31 -119c0 -126 -73 -308 -272 -308c-57 0 -103 15 -136 43l-26 -26c-4 -4 -8 -6 -14 -6h-42c-10 0 -13 7 -6 14l55 55
c-20 32 -31 72 -31 119c0 128 74 307 272 307c57 0 103 -15 136 -42l26 26c4 4 8 6 14 6h41c10 0 13 -7 6 -14zM150 150l222 226c-17 12 -38 19 -65 19c-122 0 -164 -125 -164 -200c0 -17 2 -32 7 -45zM400 335l-222 -226c17 -12 38 -19 65 -19c120 0 164 125 164 200
c0 17 -2 32 -7 45z" />
    <glyph glyph-name="otilde" unicode="&#xf5;" horiz-adv-x="549" 
d="M176 603l30 45c23 37 57 53 94 53c22 0 34 -6 49 -16l34 -22c7 -5 14 -8 21 -8c8 0 14 4 24 18l14 18c3 4 7 6 13 6h56c9 0 12 -6 7 -13l-29 -45c-24 -36 -56 -53 -94 -53c-17 0 -32 6 -48 16l-33 20c-8 5 -14 10 -23 10c-8 0 -15 -5 -24 -17l-14 -18c-3 -5 -7 -7 -13 -7
h-57c-9 0 -12 6 -7 13zM310 495c127 0 200 -75 200 -198c0 -126 -72 -308 -271 -308c-127 0 -200 76 -200 199c0 128 73 307 271 307zM307 395c-118 0 -158 -125 -158 -200c0 -67 33 -105 93 -105c117 0 158 125 158 200c0 67 -33 105 -93 105z" />
    <glyph glyph-name="oe" unicode="&#x153;" horiz-adv-x="858" 
d="M740 15l-49 -12c-34 -9 -64 -14 -99 -14c-80 0 -131 29 -159 83c-8 11 -13 7 -22 -2c-39 -51 -102 -81 -175 -81c-124 0 -197 76 -197 200c0 127 73 306 269 306c76 0 127 -30 153 -83c7 -10 13 -7 21 2c40 51 104 81 177 81c109 0 172 -51 172 -135
c0 -76 -38 -142 -171 -161l-159 -24c2 -52 34 -85 93 -85c34 0 59 3 90 11l45 11c8 2 12 -1 13 -9l7 -75c1 -7 -2 -11 -9 -13zM304 395c-118 0 -158 -128 -158 -202c0 -65 33 -103 94 -103c121 0 158 133 158 202c0 66 -33 103 -94 103zM509 262l141 21c53 8 73 33 73 63
s-24 49 -70 49c-70 0 -121 -43 -144 -133z" />
    <glyph glyph-name="p" unicode="p" horiz-adv-x="566" 
d="M178 474l2 -35c5 -15 9 -16 25 -3c42 39 90 59 141 59c116 0 181 -73 181 -194c0 -129 -69 -311 -266 -312c-39 0 -67 6 -94 20l-26 12l-38 -226c-1 -7 -5 -10 -12 -10h-90c-8 0 -11 4 -10 12l114 678c1 7 5 10 12 10h49c7 0 11 -4 12 -11zM156 117l25 -12
c21 -9 49 -15 76 -15c120 0 160 125 160 201c0 66 -32 104 -92 104c-79 0 -133 -62 -147 -150z" />
    <glyph glyph-name="thorn" unicode="&#xfe;" horiz-adv-x="567" 
d="M257 705l-25 -149c-8 -48 -18 -78 -35 -109c-5 -12 2 -17 13 -9c37 34 81 57 136 57c118 0 182 -73 182 -194c0 -133 -71 -312 -274 -312c-33 0 -62 7 -87 19l-26 12l-38 -225c-1 -7 -5 -10 -12 -10h-90c-8 0 -11 4 -10 12l154 910c1 7 5 10 12 10h90c8 0 11 -4 10 -12z
M157 117l26 -12c20 -9 48 -15 74 -15c118 0 161 125 161 205c0 64 -31 100 -89 100c-82 0 -138 -70 -155 -174z" />
    <glyph glyph-name="q" unicode="q" horiz-adv-x="562" 
d="M312 -203l22 133c8 47 19 77 35 107c6 13 -1 18 -13 10c-37 -35 -81 -58 -136 -58c-117 0 -181 74 -181 195c0 133 70 311 274 311c52 0 95 -9 135 -27l75 -33c6 -3 8 -7 7 -14l-106 -626c-1 -7 -5 -10 -12 -10h-90c-8 0 -11 4 -10 12zM409 368l-25 11
c-22 9 -48 16 -75 16c-118 0 -160 -125 -160 -205c0 -64 30 -100 88 -100c82 0 139 70 155 174z" />
    <glyph glyph-name="r" unicode="r" horiz-adv-x="394" 
d="M386 483l-13 -78c-1 -7 -5 -10 -12 -10c-110 -4 -170 -81 -202 -265l-19 -120c-1 -7 -5 -10 -12 -10h-90c-8 0 -11 4 -10 12l77 463c1 7 5 10 12 10h51c7 0 10 -3 11 -10l8 -57c3 -10 8 -13 18 -2c49 52 99 76 171 79c7 0 11 -4 10 -12z" />
    <glyph glyph-name="racute" unicode="&#x155;" horiz-adv-x="394" 
d="M315 717h102c9 0 12 -6 6 -14l-117 -130c-3 -4 -7 -6 -13 -6h-74c-9 0 -12 6 -7 13l90 130c4 5 8 7 13 7zM386 483l-13 -78c-1 -7 -5 -10 -12 -10c-110 -4 -170 -81 -202 -265l-19 -120c-1 -7 -5 -10 -12 -10h-90c-8 0 -11 4 -10 12l77 463c1 7 5 10 12 10h51
c7 0 10 -3 11 -10l8 -57c3 -10 8 -13 18 -2c49 52 99 76 171 79c7 0 11 -4 10 -12z" />
    <glyph glyph-name="rcaron" unicode="&#x159;" horiz-adv-x="394" 
d="M305 567h-81c-6 0 -10 2 -13 8l-72 129c-4 7 -1 13 8 13h68c5 0 9 -2 13 -7l48 -68l73 70c4 3 8 5 14 5h65c10 0 12 -6 6 -14l-116 -130c-3 -4 -7 -6 -13 -6zM179 475l8 -57c3 -10 8 -13 18 -2c49 52 99 76 171 79c7 0 11 -4 10 -12l-13 -78c-1 -7 -5 -10 -12 -10
c-110 -4 -170 -81 -202 -265l-19 -120c-1 -7 -5 -10 -12 -10h-90c-8 0 -11 4 -10 12l77 463c1 7 5 10 12 10h51c7 0 10 -3 11 -10z" />
    <glyph glyph-name="rcommaaccent" unicode="&#x157;" horiz-adv-x="394" 
d="M386 483l-13 -78c-1 -7 -5 -10 -12 -10c-110 -4 -170 -81 -202 -265l-19 -120c-1 -7 -5 -10 -12 -10h-90c-8 0 -11 4 -10 12l77 463c1 7 5 10 12 10h51c7 0 10 -3 11 -10l8 -57c3 -10 8 -13 18 -2c49 52 99 76 171 79c7 0 11 -4 10 -12zM13 -218l24 34c10 14 8 22 -2 25
c-15 5 -25 20 -25 38c0 30 20 57 61 57c28 0 46 -15 46 -42c0 -34 -24 -66 -41 -89l-20 -29c-4 -5 -8 -7 -13 -7h-23c-10 0 -13 6 -7 13z" />
    <glyph glyph-name="rdblgrave" unicode="&#x211;" horiz-adv-x="394" 
d="M108 717h84c7 0 11 -3 12 -10l26 -128c1 -8 -3 -12 -10 -12h-71c-7 0 -11 3 -13 9l-37 129c-3 7 1 12 9 12zM272 717h81c7 0 10 -3 11 -10l17 -128c1 -8 -2 -12 -10 -12h-68c-7 0 -11 3 -12 10l-28 128c-2 7 2 12 9 12zM386 483l-13 -78c-1 -7 -5 -10 -12 -10
c-110 -4 -170 -81 -202 -265l-19 -120c-1 -7 -5 -10 -12 -10h-90c-8 0 -11 4 -10 12l77 463c1 7 5 10 12 10h51c7 0 10 -3 11 -10l8 -57c3 -10 8 -13 18 -2c49 52 99 76 171 79c7 0 11 -4 10 -12z" />
    <glyph glyph-name="rdotbelow" unicode="&#x1e5b;" horiz-adv-x="394" 
d="M386 483l-13 -78c-1 -7 -5 -10 -12 -10c-110 -4 -170 -81 -202 -265l-19 -120c-1 -7 -5 -10 -12 -10h-90c-8 0 -11 4 -10 12l77 463c1 7 5 10 12 10h51c7 0 10 -3 11 -10l8 -57c3 -10 8 -13 18 -2c49 52 99 76 171 79c7 0 11 -4 10 -12zM68 -80c39 0 61 -17 61 -48
c0 -33 -20 -75 -82 -75c-41 0 -61 16 -61 48c0 35 18 75 82 75z" />
    <glyph glyph-name="rinvertedbreve" unicode="&#x213;" horiz-adv-x="394" 
d="M139 580l5 27c13 77 68 118 145 118c84 0 123 -49 110 -126l-3 -21c-1 -7 -5 -10 -12 -10h-58c-8 0 -11 4 -10 12l6 32c4 26 -11 41 -39 41c-34 0 -56 -23 -60 -49l-4 -26c-1 -7 -5 -10 -12 -10h-58c-8 0 -11 4 -10 12zM386 483l-13 -78c-1 -7 -5 -10 -12 -10
c-110 -4 -170 -81 -202 -265l-19 -120c-1 -7 -5 -10 -12 -10h-90c-8 0 -11 4 -10 12l77 463c1 7 5 10 12 10h51c7 0 10 -3 11 -10l8 -57c3 -10 8 -13 18 -2c49 52 99 76 171 79c7 0 11 -4 10 -12z" />
    <glyph glyph-name="s" unicode="s" horiz-adv-x="484" 
d="M273 189l-97 27c-72 19 -106 55 -106 112c0 89 62 167 204 167c41 0 83 -6 126 -17l44 -12c8 -2 10 -7 7 -14l-35 -74c-3 -6 -7 -8 -14 -6l-39 11c-29 8 -60 12 -92 12c-56 0 -91 -22 -91 -55c0 -17 12 -28 37 -35l96 -27c73 -20 109 -57 109 -117
c0 -77 -49 -172 -210 -172c-55 0 -105 8 -152 22l-40 12c-7 2 -9 7 -6 14l35 73c3 6 7 8 14 6l31 -9c37 -12 89 -17 122 -17c67 0 96 30 96 61c0 18 -11 30 -39 38z" />
    <glyph glyph-name="sacute" unicode="&#x15b;" horiz-adv-x="484" 
d="M342 717h102c9 0 12 -6 6 -14l-117 -130c-3 -4 -7 -6 -13 -6h-74c-9 0 -12 6 -7 13l90 130c4 5 8 7 13 7zM273 189l-97 27c-72 19 -106 55 -106 112c0 89 62 167 204 167c41 0 83 -6 126 -17l44 -12c8 -2 10 -7 7 -14l-35 -74c-3 -6 -7 -8 -14 -6l-39 11
c-29 8 -60 12 -92 12c-56 0 -91 -22 -91 -55c0 -17 12 -28 37 -35l96 -27c73 -20 109 -57 109 -117c0 -77 -49 -172 -210 -172c-55 0 -105 8 -152 22l-40 12c-7 2 -9 7 -6 14l35 73c3 6 7 8 14 6l31 -9c37 -12 89 -17 122 -17c67 0 96 30 96 61c0 18 -11 30 -39 38z" />
    <glyph glyph-name="scaron" unicode="&#x161;" horiz-adv-x="484" 
d="M332 567h-81c-6 0 -10 2 -13 8l-72 129c-4 7 -1 13 8 13h68c5 0 9 -2 13 -7l48 -68l73 70c4 3 8 5 14 5h65c10 0 12 -6 6 -14l-116 -130c-3 -4 -7 -6 -13 -6zM402 372l-39 11c-29 8 -60 12 -92 12c-56 0 -91 -22 -91 -55c0 -17 12 -28 37 -35l96 -27
c73 -20 109 -57 109 -117c0 -77 -49 -172 -210 -172c-55 0 -105 8 -152 22l-40 12c-7 2 -9 7 -6 14l35 73c3 6 7 8 14 6l31 -9c37 -12 89 -17 122 -17c67 0 96 30 96 61c0 18 -11 30 -39 38l-97 27c-72 19 -106 55 -106 112c0 89 62 167 204 167c41 0 83 -6 126 -17l44 -12
c8 -2 10 -7 7 -14l-35 -74c-3 -6 -7 -8 -14 -6z" />
    <glyph glyph-name="scedilla" unicode="&#x15f;" horiz-adv-x="484" 
d="M217 305l96 -27c73 -20 109 -57 109 -117c0 -74 -45 -164 -191 -172l-17 -30h6c40 0 66 -26 66 -69c0 -51 -32 -116 -122 -116c-19 0 -34 3 -50 8l-15 6c-7 2 -9 8 -6 14l27 52c3 6 8 8 15 6l13 -5c10 -3 18 -4 28 -4c25 0 39 14 39 35c0 15 -11 24 -31 24h-34
c-6 0 -10 2 -14 7c-2 4 -2 8 1 13l31 61c-38 3 -74 10 -108 20l-40 12c-7 2 -9 7 -6 14l35 73c3 6 7 8 14 6l31 -9c37 -12 89 -17 122 -17c67 0 96 30 96 61c0 18 -11 30 -39 38l-97 27c-72 19 -106 55 -106 112c0 89 62 167 204 167c41 0 83 -6 126 -17l44 -12
c8 -2 10 -7 7 -14l-35 -74c-3 -6 -7 -8 -14 -6l-39 11c-29 8 -60 12 -92 12c-56 0 -91 -22 -91 -55c0 -17 12 -28 37 -35z" />
    <glyph glyph-name="scircumflex" unicode="&#x15d;" horiz-adv-x="484" 
d="M303 642l-73 -70c-4 -3 -8 -5 -14 -5h-65c-10 0 -12 6 -6 14l116 130c3 4 7 6 13 6h81c6 0 10 -2 13 -8l72 -129c4 -7 1 -13 -8 -13h-68c-5 0 -9 2 -13 7zM217 305l96 -27c73 -20 109 -57 109 -117c0 -77 -49 -172 -210 -172c-55 0 -105 8 -152 22l-40 12
c-7 2 -9 7 -6 14l35 73c3 6 7 8 14 6l31 -9c37 -12 89 -17 122 -17c67 0 96 30 96 61c0 18 -11 30 -39 38l-97 27c-72 19 -106 55 -106 112c0 89 62 167 204 167c41 0 83 -6 126 -17l44 -12c8 -2 10 -7 7 -14l-35 -74c-3 -6 -7 -8 -14 -6l-39 11c-29 8 -60 12 -92 12
c-56 0 -91 -22 -91 -55c0 -17 12 -28 37 -35z" />
    <glyph glyph-name="scommaaccent" unicode="&#x219;" horiz-adv-x="484" 
d="M273 189l-97 27c-72 19 -106 55 -106 112c0 89 62 167 204 167c41 0 83 -6 126 -17l44 -12c8 -2 10 -7 7 -14l-35 -74c-3 -6 -7 -8 -14 -6l-39 11c-29 8 -60 12 -92 12c-56 0 -91 -22 -91 -55c0 -17 12 -28 37 -35l96 -27c73 -20 109 -57 109 -117
c0 -77 -49 -172 -210 -172c-55 0 -105 8 -152 22l-40 12c-7 2 -9 7 -6 14l35 73c3 6 7 8 14 6l31 -9c37 -12 89 -17 122 -17c67 0 96 30 96 61c0 18 -11 30 -39 38zM130 -218l24 34c10 14 8 22 -2 25c-15 5 -25 20 -25 38c0 30 20 57 61 57c28 0 46 -15 46 -42
c0 -34 -24 -66 -41 -89l-20 -29c-4 -5 -8 -7 -13 -7h-23c-10 0 -13 6 -7 13z" />
    <glyph glyph-name="sdotbelow" unicode="&#x1e63;" horiz-adv-x="484" 
d="M273 189l-97 27c-72 19 -106 55 -106 112c0 89 62 167 204 167c41 0 83 -6 126 -17l44 -12c8 -2 10 -7 7 -14l-35 -74c-3 -6 -7 -8 -14 -6l-39 11c-29 8 -60 12 -92 12c-56 0 -91 -22 -91 -55c0 -17 12 -28 37 -35l96 -27c73 -20 109 -57 109 -117
c0 -77 -49 -172 -210 -172c-55 0 -105 8 -152 22l-40 12c-7 2 -9 7 -6 14l35 73c3 6 7 8 14 6l31 -9c37 -12 89 -17 122 -17c67 0 96 30 96 61c0 18 -11 30 -39 38zM185 -80c39 0 61 -17 61 -48c0 -33 -20 -75 -82 -75c-41 0 -61 16 -61 48c0 35 18 75 82 75z" />
    <glyph glyph-name="germandbls" unicode="&#xdf;" horiz-adv-x="611" 
d="M28 12l80 477c27 153 124 239 265 239c117 0 181 -51 181 -137c0 -48 -15 -93 -63 -137l-58 -52c-17 -15 -32 -31 -32 -50c0 -15 9 -26 28 -39l53 -34c54 -34 80 -69 80 -117c0 -86 -59 -173 -202 -173c-41 0 -78 8 -119 23l-34 11c-7 3 -9 8 -6 15l35 73c2 6 7 8 14 6
l27 -10c31 -11 60 -17 86 -17c60 0 89 28 89 60c0 18 -9 31 -30 44l-62 41c-45 30 -69 63 -69 107c0 46 12 82 61 127l51 46c23 20 41 40 41 66c0 30 -26 46 -74 46c-79 0 -136 -57 -151 -146l-79 -471c-1 -7 -5 -10 -12 -10h-90c-8 0 -11 4 -10 12z" />
    <glyph glyph-name="schwa" unicode="&#x259;" horiz-adv-x="509" 
d="M119 470l48 12c34 9 65 13 101 13c131 0 202 -75 202 -198c0 -130 -72 -308 -270 -308c-109 0 -172 52 -172 136c0 90 55 144 171 161l161 23c-2 52 -32 86 -96 86c-33 0 -58 -4 -89 -12l-45 -11c-8 -2 -12 1 -13 9l-7 76c-1 7 2 11 9 13zM354 223l-146 -22
c-54 -8 -72 -33 -72 -61c0 -32 25 -50 70 -50c69 0 122 41 148 133z" />
    <glyph glyph-name="t" unicode="t" horiz-adv-x="381" 
d="M255 485h111c8 0 11 -4 10 -12l-13 -77c-1 -7 -5 -10 -12 -10h-113l-41 -243c-6 -34 5 -53 30 -53c10 0 18 1 27 4c7 2 12 0 14 -7l20 -67c2 -6 0 -11 -6 -14c-20 -10 -47 -17 -71 -17c-95 0 -142 57 -126 154l41 243h-48c-8 0 -11 4 -10 12l13 77c1 7 5 10 12 10h50
l19 115c1 6 4 10 10 12l96 30c8 2 13 -2 12 -10z" />
    <glyph glyph-name="tbar" unicode="&#x167;" horiz-adv-x="391" 
d="M249 386l-14 -82h112c8 0 11 -4 10 -12l-10 -56c-1 -7 -5 -10 -12 -10h-113l-14 -83c-6 -34 5 -53 30 -53c10 0 18 1 27 4c7 2 12 0 14 -7l20 -67c2 -6 0 -11 -6 -14c-20 -10 -47 -17 -71 -17c-95 0 -142 57 -126 154l14 83h-49c-8 0 -11 4 -10 12l10 56c1 7 5 10 12 10
h50l14 82h-48c-8 0 -11 4 -10 12l13 77c1 7 5 10 12 10h50l19 115c1 6 4 10 10 12l96 30c8 2 13 -2 12 -10l-25 -147h111c8 0 11 -4 10 -12l-13 -77c-1 -7 -5 -10 -12 -10h-113z" />
    <glyph glyph-name="tcaron" unicode="&#x165;" horiz-adv-x="381" 
d="M367 717h64c7 0 11 -4 10 -12l-6 -31c-3 -23 -15 -54 -36 -86l-8 -14c-4 -5 -8 -7 -14 -7h-50c-8 0 -12 5 -8 13l8 19c11 23 17 46 22 71l6 37c1 7 5 10 12 10zM255 485h111c8 0 11 -4 10 -12l-13 -77c-1 -7 -5 -10 -12 -10h-113l-41 -243c-6 -34 5 -53 30 -53
c10 0 18 1 27 4c7 2 12 0 14 -7l20 -67c2 -6 0 -11 -6 -14c-20 -10 -47 -17 -71 -17c-95 0 -142 57 -126 154l41 243h-48c-8 0 -11 4 -10 12l13 77c1 7 5 10 12 10h50l19 115c1 6 4 10 10 12l96 30c8 2 13 -2 12 -10z" />
    <glyph glyph-name="tcedilla" unicode="&#x163;" horiz-adv-x="381" 
d="M238 386l-41 -243c-6 -34 5 -53 30 -53c10 0 18 1 27 4c7 2 12 0 14 -7l20 -67c2 -6 0 -11 -6 -14c-20 -10 -47 -17 -71 -17l-17 1l-17 -31h6c40 0 66 -26 66 -69c0 -51 -32 -116 -122 -116c-19 0 -34 3 -50 8l-15 6c-7 2 -9 8 -6 14l27 52c3 6 8 8 15 6l13 -5
c10 -3 18 -4 28 -4c25 0 39 14 39 35c0 15 -11 24 -31 24h-34c-6 0 -10 2 -14 7c-2 4 -2 8 1 13l38 74c-45 23 -64 71 -53 139l41 243h-48c-8 0 -11 4 -10 12l13 77c1 7 5 10 12 10h50l19 115c1 6 4 10 10 12l96 30c8 2 13 -2 12 -10l-25 -147h111c8 0 11 -4 10 -12l-13 -77
c-1 -7 -5 -10 -12 -10h-113z" />
    <glyph glyph-name="uni021B" unicode="&#x21b;" horiz-adv-x="381" 
d="M255 485h111c8 0 11 -4 10 -12l-13 -77c-1 -7 -5 -10 -12 -10h-113l-41 -243c-6 -34 5 -53 30 -53c10 0 18 1 27 4c7 2 12 0 14 -7l20 -67c2 -6 0 -11 -6 -14c-20 -10 -47 -17 -71 -17c-95 0 -142 57 -126 154l41 243h-48c-8 0 -11 4 -10 12l13 77c1 7 5 10 12 10h50
l19 115c1 6 4 10 10 12l96 30c8 2 13 -2 12 -10zM93 -218l24 34c10 14 8 22 -2 25c-15 5 -25 20 -25 38c0 30 20 57 61 57c28 0 46 -15 46 -42c0 -34 -24 -66 -41 -89l-20 -29c-4 -5 -8 -7 -13 -7h-23c-10 0 -13 6 -7 13z" />
    <glyph glyph-name="tdotbelow" unicode="&#x1e6d;" horiz-adv-x="381" 
d="M255 485h111c8 0 11 -4 10 -12l-13 -77c-1 -7 -5 -10 -12 -10h-113l-41 -243c-6 -34 5 -53 30 -53c10 0 18 1 27 4c7 2 12 0 14 -7l20 -67c2 -6 0 -11 -6 -14c-20 -10 -47 -17 -71 -17c-95 0 -142 57 -126 154l41 243h-48c-8 0 -11 4 -10 12l13 77c1 7 5 10 12 10h50
l19 115c1 6 4 10 10 12l96 30c8 2 13 -2 12 -10zM148 -80c39 0 61 -17 61 -48c0 -33 -20 -75 -82 -75c-41 0 -61 16 -61 48c0 35 18 75 82 75z" />
    <glyph glyph-name="u" unicode="u" 
d="M377 11l-3 37c-4 13 -11 12 -24 1c-46 -43 -100 -59 -146 -59c-117 0 -173 75 -152 193l49 292c1 7 5 10 12 10h90c8 0 11 -4 10 -12l-48 -286c-11 -63 13 -97 64 -97c77 0 132 59 149 155l38 230c1 7 5 10 12 10h90c8 0 11 -4 10 -12l-77 -463c-1 -7 -5 -10 -12 -10h-50
c-7 0 -11 4 -12 11z" />
    <glyph glyph-name="uacute" unicode="&#xfa;" 
d="M381 717h102c9 0 12 -6 6 -14l-117 -130c-3 -4 -7 -6 -13 -6h-74c-9 0 -12 6 -7 13l90 130c4 5 8 7 13 7zM377 11l-3 37c-4 13 -11 12 -24 1c-46 -43 -100 -59 -146 -59c-117 0 -173 75 -152 193l49 292c1 7 5 10 12 10h90c8 0 11 -4 10 -12l-48 -286
c-11 -63 13 -97 64 -97c77 0 132 59 149 155l38 230c1 7 5 10 12 10h90c8 0 11 -4 10 -12l-77 -463c-1 -7 -5 -10 -12 -10h-50c-7 0 -11 4 -12 11z" />
    <glyph glyph-name="ubreve" unicode="&#x16d;" 
d="M483 704l-5 -27c-13 -77 -68 -118 -145 -118c-84 0 -123 49 -110 126l3 21c1 7 5 10 12 10h58c8 0 11 -4 10 -12l-6 -32c-4 -26 11 -41 39 -41c34 0 56 23 60 49l4 26c1 7 5 10 12 10h58c8 0 11 -4 10 -12zM377 11l-3 37c-4 13 -11 12 -24 1c-46 -43 -100 -59 -146 -59
c-117 0 -173 75 -152 193l49 292c1 7 5 10 12 10h90c8 0 11 -4 10 -12l-48 -286c-11 -63 13 -97 64 -97c77 0 132 59 149 155l38 230c1 7 5 10 12 10h90c8 0 11 -4 10 -12l-77 -463c-1 -7 -5 -10 -12 -10h-50c-7 0 -11 4 -12 11z" />
    <glyph glyph-name="ucaron" unicode="&#x1d4;" 
d="M371 567h-81c-6 0 -10 2 -13 8l-72 129c-4 7 -1 13 8 13h68c5 0 9 -2 13 -7l48 -68l73 70c4 3 8 5 14 5h65c10 0 12 -6 6 -14l-116 -130c-3 -4 -7 -6 -13 -6zM428 485h90c8 0 11 -4 10 -12l-77 -463c-1 -7 -5 -10 -12 -10h-50c-7 0 -11 4 -12 11l-3 37
c-4 13 -11 12 -24 1c-46 -43 -100 -59 -146 -59c-117 0 -173 75 -152 193l49 292c1 7 5 10 12 10h90c8 0 11 -4 10 -12l-48 -286c-11 -63 13 -97 64 -97c77 0 132 59 149 155l38 230c1 7 5 10 12 10z" />
    <glyph glyph-name="ucircumflex" unicode="&#xfb;" 
d="M342 642l-73 -70c-4 -3 -8 -5 -14 -5h-65c-10 0 -12 6 -6 14l116 130c3 4 7 6 13 6h81c6 0 10 -2 13 -8l72 -129c4 -7 1 -13 -8 -13h-68c-5 0 -9 2 -13 7zM428 485h90c8 0 11 -4 10 -12l-77 -463c-1 -7 -5 -10 -12 -10h-50c-7 0 -11 4 -12 11l-3 37c-4 13 -11 12 -24 1
c-46 -43 -100 -59 -146 -59c-117 0 -173 75 -152 193l49 292c1 7 5 10 12 10h90c8 0 11 -4 10 -12l-48 -286c-11 -63 13 -97 64 -97c77 0 132 59 149 155l38 230c1 7 5 10 12 10z" />
    <glyph glyph-name="udblgrave" unicode="&#x215;" 
d="M175 717h84c7 0 11 -3 12 -10l26 -128c1 -8 -3 -12 -10 -12h-71c-7 0 -11 3 -13 9l-37 129c-3 7 1 12 9 12zM339 717h81c7 0 10 -3 11 -10l17 -128c1 -8 -2 -12 -10 -12h-68c-7 0 -11 3 -12 10l-28 128c-2 7 2 12 9 12zM377 11l-3 37c-4 13 -11 12 -24 1
c-46 -43 -100 -59 -146 -59c-117 0 -173 75 -152 193l49 292c1 7 5 10 12 10h90c8 0 11 -4 10 -12l-48 -286c-11 -63 13 -97 64 -97c77 0 132 59 149 155l38 230c1 7 5 10 12 10h90c8 0 11 -4 10 -12l-77 -463c-1 -7 -5 -10 -12 -10h-50c-7 0 -11 4 -12 11z" />
    <glyph glyph-name="udieresis" unicode="&#xfc;" 
d="M266 733c35 0 56 -21 56 -56c0 -36 -18 -72 -66 -72c-36 0 -57 20 -57 55c0 46 24 73 67 73zM443 733c35 0 56 -21 56 -56c0 -36 -18 -72 -66 -72c-36 0 -57 20 -57 55c0 46 24 73 67 73zM377 11l-3 37c-4 13 -11 12 -24 1c-46 -43 -100 -59 -146 -59
c-117 0 -173 75 -152 193l49 292c1 7 5 10 12 10h90c8 0 11 -4 10 -12l-48 -286c-11 -63 13 -97 64 -97c77 0 132 59 149 155l38 230c1 7 5 10 12 10h90c8 0 11 -4 10 -12l-77 -463c-1 -7 -5 -10 -12 -10h-50c-7 0 -11 4 -12 11z" />
    <glyph glyph-name="udieresisacute" unicode="&#x1d8;" 
d="M403 871h102c9 0 12 -6 6 -14l-117 -130c-3 -4 -7 -6 -13 -6h-74c-9 0 -12 6 -7 13l90 130c4 5 8 7 13 7zM250 671c35 0 56 -21 56 -56c0 -36 -18 -72 -66 -72c-36 0 -57 20 -57 55c0 46 24 73 67 73zM427 671c35 0 56 -21 56 -56c0 -36 -18 -72 -66 -72
c-36 0 -57 20 -57 55c0 46 24 73 67 73zM377 11l-3 37c-4 13 -11 12 -24 1c-46 -43 -100 -59 -146 -59c-117 0 -173 75 -152 193l49 292c1 7 5 10 12 10h90c8 0 11 -4 10 -12l-48 -286c-11 -63 13 -97 64 -97c77 0 132 59 149 155l38 230c1 7 5 10 12 10h90
c8 0 11 -4 10 -12l-77 -463c-1 -7 -5 -10 -12 -10h-50c-7 0 -11 4 -12 11z" />
    <glyph glyph-name="udieresiscaron" unicode="&#x1da;" 
d="M396 721h-81c-6 0 -10 2 -13 8l-72 129c-4 7 -1 13 8 13h68c5 0 9 -2 13 -7l48 -68l73 70c4 3 8 5 14 5h65c10 0 12 -6 6 -14l-116 -130c-3 -4 -7 -6 -13 -6zM240 543c-36 0 -57 20 -57 55c0 46 24 73 67 73c35 0 56 -21 56 -56c0 -36 -18 -72 -66 -72zM360 598
c0 46 24 73 67 73c35 0 56 -21 56 -56c0 -36 -18 -72 -66 -72c-36 0 -57 20 -57 55zM378 245l38 230c1 7 5 10 12 10h90c8 0 11 -4 10 -12l-77 -463c-1 -7 -5 -10 -12 -10h-50c-7 0 -11 4 -12 11l-3 37c-4 13 -11 12 -24 1c-46 -43 -100 -59 -146 -59
c-117 0 -173 75 -152 193l49 292c1 7 5 10 12 10h90c8 0 11 -4 10 -12l-48 -286c-11 -63 13 -97 64 -97c77 0 132 59 149 155z" />
    <glyph glyph-name="udieresisgrave" unicode="&#x1dc;" 
d="M351 862l46 -128c2 -8 -1 -13 -9 -13h-71c-6 0 -10 2 -13 8l-72 129c-4 7 -1 13 8 13h99c6 0 10 -3 12 -9zM250 671c35 0 56 -21 56 -56c0 -36 -18 -72 -66 -72c-36 0 -57 20 -57 55c0 46 24 73 67 73zM427 671c35 0 56 -21 56 -56c0 -36 -18 -72 -66 -72
c-36 0 -57 20 -57 55c0 46 24 73 67 73zM377 11l-3 37c-4 13 -11 12 -24 1c-46 -43 -100 -59 -146 -59c-117 0 -173 75 -152 193l49 292c1 7 5 10 12 10h90c8 0 11 -4 10 -12l-48 -286c-11 -63 13 -97 64 -97c77 0 132 59 149 155l38 230c1 7 5 10 12 10h90
c8 0 11 -4 10 -12l-77 -463c-1 -7 -5 -10 -12 -10h-50c-7 0 -11 4 -12 11z" />
    <glyph glyph-name="udieresismacron" unicode="&#x1d6;" 
d="M249 827h245c8 0 11 -4 10 -12l-10 -56c-1 -7 -5 -10 -12 -10h-245c-8 0 -11 4 -10 12l10 56c1 7 5 10 12 10zM250 671c35 0 56 -21 56 -56c0 -36 -18 -72 -66 -72c-36 0 -57 20 -57 55c0 46 24 73 67 73zM427 671c35 0 56 -21 56 -56c0 -36 -18 -72 -66 -72
c-36 0 -57 20 -57 55c0 46 24 73 67 73zM377 11l-3 37c-4 13 -11 12 -24 1c-46 -43 -100 -59 -146 -59c-117 0 -173 75 -152 193l49 292c1 7 5 10 12 10h90c8 0 11 -4 10 -12l-48 -286c-11 -63 13 -97 64 -97c77 0 132 59 149 155l38 230c1 7 5 10 12 10h90
c8 0 11 -4 10 -12l-77 -463c-1 -7 -5 -10 -12 -10h-50c-7 0 -11 4 -12 11z" />
    <glyph glyph-name="udotbelow" unicode="&#x1ee5;" 
d="M377 11l-3 37c-4 13 -11 12 -24 1c-46 -43 -100 -59 -146 -59c-117 0 -173 75 -152 193l49 292c1 7 5 10 12 10h90c8 0 11 -4 10 -12l-48 -286c-11 -63 13 -97 64 -97c77 0 132 59 149 155l38 230c1 7 5 10 12 10h90c8 0 11 -4 10 -12l-77 -463c-1 -7 -5 -10 -12 -10h-50
c-7 0 -11 4 -12 11zM263 -80c39 0 61 -17 61 -48c0 -33 -20 -75 -82 -75c-41 0 -61 16 -61 48c0 35 18 75 82 75z" />
    <glyph glyph-name="ugrave" unicode="&#xf9;" 
d="M330 708l46 -128c2 -8 -1 -13 -9 -13h-71c-6 0 -10 2 -13 8l-72 129c-4 7 -1 13 8 13h99c6 0 10 -3 12 -9zM377 11l-3 37c-4 13 -11 12 -24 1c-46 -43 -100 -59 -146 -59c-117 0 -173 75 -152 193l49 292c1 7 5 10 12 10h90c8 0 11 -4 10 -12l-48 -286
c-11 -63 13 -97 64 -97c77 0 132 59 149 155l38 230c1 7 5 10 12 10h90c8 0 11 -4 10 -12l-77 -463c-1 -7 -5 -10 -12 -10h-50c-7 0 -11 4 -12 11z" />
    <glyph glyph-name="uhungarumlaut" unicode="&#x171;" 
d="M364 704l-73 -129c-3 -6 -7 -8 -13 -8h-69c-8 0 -11 5 -8 13l61 129c3 5 7 8 13 8h81c9 0 12 -6 8 -13zM532 704l-82 -130c-4 -5 -8 -7 -14 -7h-67c-9 0 -12 5 -8 13l70 129c3 6 7 8 13 8h80c9 0 12 -6 8 -13zM377 11l-3 37c-4 13 -11 12 -24 1
c-46 -43 -100 -59 -146 -59c-117 0 -173 75 -152 193l49 292c1 7 5 10 12 10h90c8 0 11 -4 10 -12l-48 -286c-11 -63 13 -97 64 -97c77 0 132 59 149 155l38 230c1 7 5 10 12 10h90c8 0 11 -4 10 -12l-77 -463c-1 -7 -5 -10 -12 -10h-50c-7 0 -11 4 -12 11z" />
    <glyph glyph-name="uinvertedbreve" unicode="&#x217;" 
d="M205 580l5 27c13 77 68 118 145 118c84 0 123 -49 110 -126l-3 -21c-1 -7 -5 -10 -12 -10h-58c-8 0 -11 4 -10 12l6 32c4 26 -11 41 -39 41c-34 0 -56 -23 -60 -49l-4 -26c-1 -7 -5 -10 -12 -10h-58c-8 0 -11 4 -10 12zM377 11l-3 37c-4 13 -11 12 -24 1
c-46 -43 -100 -59 -146 -59c-117 0 -173 75 -152 193l49 292c1 7 5 10 12 10h90c8 0 11 -4 10 -12l-48 -286c-11 -63 13 -97 64 -97c77 0 132 59 149 155l38 230c1 7 5 10 12 10h90c8 0 11 -4 10 -12l-77 -463c-1 -7 -5 -10 -12 -10h-50c-7 0 -11 4 -12 11z" />
    <glyph glyph-name="umacron" unicode="&#x16b;" 
d="M226 679h245c8 0 11 -4 10 -12l-10 -56c-1 -7 -5 -10 -12 -10h-245c-8 0 -11 4 -10 12l10 56c1 7 5 10 12 10zM377 11l-3 37c-4 13 -11 12 -24 1c-46 -43 -100 -59 -146 -59c-117 0 -173 75 -152 193l49 292c1 7 5 10 12 10h90c8 0 11 -4 10 -12l-48 -286
c-11 -63 13 -97 64 -97c77 0 132 59 149 155l38 230c1 7 5 10 12 10h90c8 0 11 -4 10 -12l-77 -463c-1 -7 -5 -10 -12 -10h-50c-7 0 -11 4 -12 11z" />
    <glyph glyph-name="uogonek" unicode="&#x173;" 
d="M428 485h90c8 0 11 -4 10 -12l-79 -473c-3 -17 -12 -32 -41 -55l-54 -44c-14 -12 -17 -20 -17 -30c0 -11 6 -17 18 -17c9 0 19 2 31 6l9 3c7 3 12 0 13 -8l11 -54c1 -6 -2 -11 -8 -13l-19 -5c-16 -6 -33 -9 -51 -9c-57 0 -93 27 -93 72c0 32 14 59 47 85l53 42
c23 18 31 28 29 42l-3 33c-4 13 -11 12 -24 1c-46 -43 -100 -59 -146 -59c-117 0 -173 75 -152 193l49 292c1 7 5 10 12 10h90c8 0 11 -4 10 -12l-48 -286c-11 -63 13 -97 64 -97c77 0 132 59 149 155l38 230c1 7 5 10 12 10z" />
    <glyph glyph-name="uring" unicode="&#x16f;" 
d="M356 726c51 0 80 -25 80 -68c0 -39 -26 -99 -105 -99c-52 0 -80 24 -80 66c0 47 28 101 105 101zM350 677c-24 0 -40 -17 -42 -41c-1 -18 9 -29 29 -29c25 0 42 18 42 45c0 16 -10 25 -29 25zM377 11l-3 37c-4 13 -11 12 -24 1c-46 -43 -100 -59 -146 -59
c-117 0 -173 75 -152 193l49 292c1 7 5 10 12 10h90c8 0 11 -4 10 -12l-48 -286c-11 -63 13 -97 64 -97c77 0 132 59 149 155l38 230c1 7 5 10 12 10h90c8 0 11 -4 10 -12l-77 -463c-1 -7 -5 -10 -12 -10h-50c-7 0 -11 4 -12 11z" />
    <glyph glyph-name="utilde" unicode="&#x169;" 
d="M176 604l30 45c23 37 57 53 94 53c22 0 34 -6 49 -16l34 -22c7 -5 14 -8 21 -8c8 0 14 4 24 18l14 18c3 4 7 6 13 6h56c9 0 12 -6 7 -13l-29 -45c-24 -36 -56 -53 -94 -53c-17 0 -32 6 -48 16l-33 20c-8 5 -14 10 -23 10c-8 0 -15 -5 -24 -17l-14 -18c-3 -5 -7 -7 -13 -7
h-57c-9 0 -12 6 -7 13zM377 11l-3 37c-4 13 -11 12 -24 1c-46 -43 -100 -59 -146 -59c-117 0 -173 75 -152 193l49 292c1 7 5 10 12 10h90c8 0 11 -4 10 -12l-48 -286c-11 -63 13 -97 64 -97c77 0 132 59 149 155l38 230c1 7 5 10 12 10h90c8 0 11 -4 10 -12l-77 -463
c-1 -7 -5 -10 -12 -10h-50c-7 0 -11 4 -12 11z" />
    <glyph glyph-name="v" unicode="v" horiz-adv-x="553" 
d="M558 472l-138 -236c-44 -78 -89 -164 -117 -228c-3 -5 -7 -8 -13 -8h-108c-6 0 -10 3 -11 10c-8 63 -22 148 -39 226l-60 237c-2 7 2 12 10 12h92c7 0 11 -3 12 -9l44 -167c12 -59 19 -120 19 -165c1 -11 12 -11 16 0c15 45 44 107 76 165l100 169c3 5 7 7 13 7h97
c9 0 12 -6 7 -13z" />
    <glyph glyph-name="w" unicode="w" horiz-adv-x="800" 
d="M800 472l-129 -276c-37 -79 -59 -128 -84 -187c-2 -6 -6 -9 -12 -9h-113c-6 0 -10 3 -11 10c-4 33 -7 69 -12 104l-19 106c-2 19 -5 54 -6 73c0 13 -9 12 -13 0c-8 -20 -23 -56 -31 -73l-53 -106c-17 -37 -33 -72 -47 -106c-3 -5 -7 -8 -13 -8h-112c-7 0 -11 4 -12 11
c-4 58 -10 106 -18 185l-36 277c-1 8 2 12 10 12h90c7 0 10 -3 11 -10l23 -174c5 -64 7 -110 8 -160c1 -11 11 -11 16 0c20 50 49 112 79 177l78 159c3 6 7 8 13 8h59c7 0 11 -3 12 -10l28 -157c7 -64 14 -127 17 -177c1 -11 12 -11 16 0c17 50 35 94 63 160l80 176
c3 5 7 8 13 8h97c8 0 12 -5 8 -13z" />
    <glyph glyph-name="wacute" unicode="&#x1e83;" horiz-adv-x="800" 
d="M502 717h102c9 0 12 -6 6 -14l-117 -130c-3 -4 -7 -6 -13 -6h-74c-9 0 -12 6 -7 13l90 130c4 5 8 7 13 7zM800 472l-129 -276c-37 -79 -59 -128 -84 -187c-2 -6 -6 -9 -12 -9h-113c-6 0 -10 3 -11 10c-4 33 -7 69 -12 104l-19 106c-2 19 -5 54 -6 73c0 13 -9 12 -13 0
c-8 -20 -23 -56 -31 -73l-53 -106c-17 -37 -33 -72 -47 -106c-3 -5 -7 -8 -13 -8h-112c-7 0 -11 4 -12 11c-4 58 -10 106 -18 185l-36 277c-1 8 2 12 10 12h90c7 0 10 -3 11 -10l23 -174c5 -64 7 -110 8 -160c1 -11 11 -11 16 0c20 50 49 112 79 177l78 159c3 6 7 8 13 8h59
c7 0 11 -3 12 -10l28 -157c7 -64 14 -127 17 -177c1 -11 12 -11 16 0c17 50 35 94 63 160l80 176c3 5 7 8 13 8h97c8 0 12 -5 8 -13z" />
    <glyph glyph-name="wcircumflex" unicode="&#x175;" horiz-adv-x="800" 
d="M463 642l-73 -70c-4 -3 -8 -5 -14 -5h-65c-10 0 -12 6 -6 14l116 130c3 4 7 6 13 6h81c6 0 10 -2 13 -8l72 -129c4 -7 1 -13 -8 -13h-68c-5 0 -9 2 -13 7zM695 485h97c8 0 12 -5 8 -13l-129 -276c-37 -79 -59 -128 -84 -187c-2 -6 -6 -9 -12 -9h-113c-6 0 -10 3 -11 10
c-4 33 -7 69 -12 104l-19 106c-2 19 -5 54 -6 73c0 13 -9 12 -13 0c-8 -20 -23 -56 -31 -73l-53 -106c-17 -37 -33 -72 -47 -106c-3 -5 -7 -8 -13 -8h-112c-7 0 -11 4 -12 11c-4 58 -10 106 -18 185l-36 277c-1 8 2 12 10 12h90c7 0 10 -3 11 -10l23 -174
c5 -64 7 -110 8 -160c1 -11 11 -11 16 0c20 50 49 112 79 177l78 159c3 6 7 8 13 8h59c7 0 11 -3 12 -10l28 -157c7 -64 14 -127 17 -177c1 -11 12 -11 16 0c17 50 35 94 63 160l80 176c3 5 7 8 13 8z" />
    <glyph glyph-name="wdieresis" unicode="&#x1e85;" horiz-adv-x="800" 
d="M387 733c35 0 56 -21 56 -56c0 -36 -18 -72 -66 -72c-36 0 -57 20 -57 55c0 46 24 73 67 73zM564 733c35 0 56 -21 56 -56c0 -36 -18 -72 -66 -72c-36 0 -57 20 -57 55c0 46 24 73 67 73zM800 472l-129 -276c-37 -79 -59 -128 -84 -187c-2 -6 -6 -9 -12 -9h-113
c-6 0 -10 3 -11 10c-4 33 -7 69 -12 104l-19 106c-2 19 -5 54 -6 73c0 13 -9 12 -13 0c-8 -20 -23 -56 -31 -73l-53 -106c-17 -37 -33 -72 -47 -106c-3 -5 -7 -8 -13 -8h-112c-7 0 -11 4 -12 11c-4 58 -10 106 -18 185l-36 277c-1 8 2 12 10 12h90c7 0 10 -3 11 -10l23 -174
c5 -64 7 -110 8 -160c1 -11 11 -11 16 0c20 50 49 112 79 177l78 159c3 6 7 8 13 8h59c7 0 11 -3 12 -10l28 -157c7 -64 14 -127 17 -177c1 -11 12 -11 16 0c17 50 35 94 63 160l80 176c3 5 7 8 13 8h97c8 0 12 -5 8 -13z" />
    <glyph glyph-name="wgrave" unicode="&#x1e81;" horiz-adv-x="800" 
d="M450 708l46 -128c2 -8 -1 -13 -9 -13h-71c-6 0 -10 2 -13 8l-72 129c-4 7 -1 13 8 13h99c6 0 10 -3 12 -9zM800 472l-129 -276c-37 -79 -59 -128 -84 -187c-2 -6 -6 -9 -12 -9h-113c-6 0 -10 3 -11 10c-4 33 -7 69 -12 104l-19 106c-2 19 -5 54 -6 73c0 13 -9 12 -13 0
c-8 -20 -23 -56 -31 -73l-53 -106c-17 -37 -33 -72 -47 -106c-3 -5 -7 -8 -13 -8h-112c-7 0 -11 4 -12 11c-4 58 -10 106 -18 185l-36 277c-1 8 2 12 10 12h90c7 0 10 -3 11 -10l23 -174c5 -64 7 -110 8 -160c1 -11 11 -11 16 0c20 50 49 112 79 177l78 159c3 6 7 8 13 8h59
c7 0 11 -3 12 -10l28 -157c7 -64 14 -127 17 -177c1 -11 12 -11 16 0c17 50 35 94 63 160l80 176c3 5 7 8 13 8h97c8 0 12 -5 8 -13z" />
    <glyph glyph-name="x" unicode="x" horiz-adv-x="536" 
d="M527 472l-137 -172c-19 -24 -40 -42 -57 -49c-2 -1 -3 -2 -4 -4c-2 -4 3 -6 7 -9c14 -11 24 -25 34 -49l81 -176c4 -8 0 -13 -8 -13h-95c-6 0 -10 3 -13 8l-68 150c-4 8 -8 8 -15 0l-120 -152c-3 -4 -7 -6 -13 -6h-105c-9 0 -12 6 -6 13l140 176c20 26 37 42 57 53
c4 2 5 5 1 9c-13 8 -28 27 -37 49l-80 172c-4 8 0 13 8 13h93c6 0 10 -3 13 -8l68 -148c3 -8 9 -8 15 0l117 149c3 5 7 7 13 7h105c9 0 12 -6 6 -13z" />
    <glyph glyph-name="y" unicode="y" 
d="M561 472l-391 -679c-3 -6 -7 -8 -13 -8h-94c-9 0 -12 6 -7 13l73 127c37 69 39 144 12 270l-69 278c-2 7 2 12 10 12h92c7 0 11 -3 12 -9l48 -188c10 -45 16 -105 16 -143c0 -15 10 -16 17 0c14 38 43 100 66 143l111 189c3 6 7 8 13 8h97c9 0 12 -6 7 -13z" />
    <glyph glyph-name="yacute" unicode="&#xfd;" 
d="M378 717h102c9 0 12 -6 6 -14l-117 -130c-3 -4 -7 -6 -13 -6h-74c-9 0 -12 6 -7 13l90 130c4 5 8 7 13 7zM157 -215h-94c-9 0 -12 6 -7 13l73 127c37 69 39 144 12 270l-69 278c-2 7 2 12 10 12h92c7 0 11 -3 12 -9l48 -188c10 -45 16 -105 16 -143c0 -15 10 -16 17 0
c14 38 43 100 66 143l111 189c3 6 7 8 13 8h97c9 0 12 -6 7 -13l-391 -679c-3 -6 -7 -8 -13 -8z" />
    <glyph glyph-name="ycircumflex" unicode="&#x177;" 
d="M340 642l-73 -70c-4 -3 -8 -5 -14 -5h-65c-10 0 -12 6 -6 14l116 130c3 4 7 6 13 6h81c6 0 10 -2 13 -8l72 -129c4 -7 1 -13 -8 -13h-68c-5 0 -9 2 -13 7zM457 485h97c9 0 12 -6 7 -13l-391 -679c-3 -6 -7 -8 -13 -8h-94c-9 0 -12 6 -7 13l73 127c37 69 39 144 12 270
l-69 278c-2 7 2 12 10 12h92c7 0 11 -3 12 -9l48 -188c10 -45 16 -105 16 -143c0 -15 10 -16 17 0c14 38 43 100 66 143l111 189c3 6 7 8 13 8z" />
    <glyph glyph-name="ydieresis" unicode="&#xff;" 
d="M263 733c35 0 56 -21 56 -56c0 -36 -18 -72 -66 -72c-36 0 -57 20 -57 55c0 46 24 73 67 73zM440 733c35 0 56 -21 56 -56c0 -36 -18 -72 -66 -72c-36 0 -57 20 -57 55c0 46 24 73 67 73zM157 -215h-94c-9 0 -12 6 -7 13l73 127c37 69 39 144 12 270l-69 278
c-2 7 2 12 10 12h92c7 0 11 -3 12 -9l48 -188c10 -45 16 -105 16 -143c0 -15 10 -16 17 0c14 38 43 100 66 143l111 189c3 6 7 8 13 8h97c9 0 12 -6 7 -13l-391 -679c-3 -6 -7 -8 -13 -8z" />
    <glyph glyph-name="ygrave" unicode="&#x1ef3;" 
d="M327 708l46 -128c2 -8 -1 -13 -9 -13h-71c-6 0 -10 2 -13 8l-72 129c-4 7 -1 13 8 13h99c6 0 10 -3 12 -9zM157 -215h-94c-9 0 -12 6 -7 13l73 127c37 69 39 144 12 270l-69 278c-2 7 2 12 10 12h92c7 0 11 -3 12 -9l48 -188c10 -45 16 -105 16 -143c0 -15 10 -16 17 0
c14 38 43 100 66 143l111 189c3 6 7 8 13 8h97c9 0 12 -6 7 -13l-391 -679c-3 -6 -7 -8 -13 -8z" />
    <glyph glyph-name="ytilde" unicode="&#x1ef9;" 
d="M173 603l30 45c23 37 57 53 94 53c22 0 34 -6 49 -16l34 -22c7 -5 14 -8 21 -8c8 0 14 4 24 18l14 18c3 4 7 6 13 6h56c9 0 12 -6 7 -13l-29 -45c-24 -36 -56 -53 -94 -53c-17 0 -32 6 -48 16l-33 20c-8 5 -14 10 -23 10c-8 0 -15 -5 -24 -17l-14 -18c-3 -5 -7 -7 -13 -7
h-57c-9 0 -12 6 -7 13zM157 -215h-94c-9 0 -12 6 -7 13l73 127c37 69 39 144 12 270l-69 278c-2 7 2 12 10 12h92c7 0 11 -3 12 -9l48 -188c10 -45 16 -105 16 -143c0 -15 10 -16 17 0c14 38 43 100 66 143l111 189c3 6 7 8 13 8h97c9 0 12 -6 7 -13l-391 -679
c-3 -6 -7 -8 -13 -8z" />
    <glyph glyph-name="z" unicode="z" horiz-adv-x="490" 
d="M484 477c2 -5 1 -10 -3 -15c-20 -22 -37 -44 -59 -74l-173 -225c-13 -17 -29 -37 -48 -54c-6 -6 -5 -11 3 -11c21 0 39 1 56 1h146c9 0 12 -5 8 -13l-43 -78c-3 -6 -7 -8 -13 -8h-334c-6 0 -10 3 -12 9c-2 5 -1 9 3 14c22 24 41 49 64 79l169 219c12 19 31 41 47 55
c7 7 7 11 -2 11c-19 -1 -38 -1 -55 -1h-143c-8 0 -11 4 -10 12l13 77c1 7 5 10 12 10h361c6 0 10 -2 13 -8z" />
    <glyph glyph-name="zacute" unicode="&#x17a;" horiz-adv-x="490" 
d="M355 717h102c9 0 12 -6 6 -14l-117 -130c-3 -4 -7 -6 -13 -6h-74c-9 0 -12 6 -7 13l90 130c4 5 8 7 13 7zM484 477c2 -5 1 -10 -3 -15c-20 -22 -37 -44 -59 -74l-173 -225c-13 -17 -29 -37 -48 -54c-6 -6 -5 -11 3 -11c21 0 39 1 56 1h146c9 0 12 -5 8 -13l-43 -78
c-3 -6 -7 -8 -13 -8h-334c-6 0 -10 3 -12 9c-2 5 -1 9 3 14c22 24 41 49 64 79l169 219c12 19 31 41 47 55c7 7 7 11 -2 11c-19 -1 -38 -1 -55 -1h-143c-8 0 -11 4 -10 12l13 77c1 7 5 10 12 10h361c6 0 10 -2 13 -8z" />
    <glyph glyph-name="zcaron" unicode="&#x17e;" horiz-adv-x="490" 
d="M345 567h-81c-6 0 -10 2 -13 8l-72 129c-4 7 -1 13 8 13h68c5 0 9 -2 13 -7l48 -68l73 70c4 3 8 5 14 5h65c10 0 12 -6 6 -14l-116 -130c-3 -4 -7 -6 -13 -6zM422 388l-173 -225c-13 -17 -29 -37 -48 -54c-6 -6 -5 -11 3 -11c21 0 39 1 56 1h146c9 0 12 -5 8 -13l-43 -78
c-3 -6 -7 -8 -13 -8h-334c-6 0 -10 3 -12 9c-2 5 -1 9 3 14c22 24 41 49 64 79l169 219c12 19 31 41 47 55c7 7 7 11 -2 11c-19 -1 -38 -1 -55 -1h-143c-8 0 -11 4 -10 12l13 77c1 7 5 10 12 10h361c6 0 10 -3 13 -8c2 -6 1 -10 -3 -15c-20 -22 -37 -44 -59 -74z" />
    <glyph glyph-name="zdotaccent" unicode="&#x17c;" horiz-adv-x="490" 
d="M325 727c38 0 60 -22 60 -59c0 -39 -19 -77 -70 -77c-39 0 -61 22 -61 59c0 49 26 77 71 77zM484 477c2 -5 1 -10 -3 -15c-20 -22 -37 -44 -59 -74l-173 -225c-13 -17 -29 -37 -48 -54c-6 -6 -5 -11 3 -11c21 0 39 1 56 1h146c9 0 12 -5 8 -13l-43 -78
c-3 -6 -7 -8 -13 -8h-334c-6 0 -10 3 -12 9c-2 5 -1 9 3 14c22 24 41 49 64 79l169 219c12 19 31 41 47 55c7 7 7 11 -2 11c-19 -1 -38 -1 -55 -1h-143c-8 0 -11 4 -10 12l13 77c1 7 5 10 12 10h361c6 0 10 -2 13 -8z" />
    <glyph glyph-name="zdotbelow" unicode="&#x1e93;" horiz-adv-x="490" 
d="M484 477c2 -5 1 -10 -3 -15c-20 -22 -37 -44 -59 -74l-173 -225c-13 -17 -29 -37 -48 -54c-6 -6 -5 -11 3 -11c21 0 39 1 56 1h146c9 0 12 -5 8 -13l-43 -78c-3 -6 -7 -8 -13 -8h-334c-6 0 -10 3 -12 9c-2 5 -1 9 3 14c22 24 41 49 64 79l169 219c12 19 31 41 47 55
c7 7 7 11 -2 11c-19 -1 -38 -1 -55 -1h-143c-8 0 -11 4 -10 12l13 77c1 7 5 10 12 10h361c6 0 10 -2 13 -8zM183 -80c39 0 61 -17 61 -48c0 -33 -20 -75 -82 -75c-41 0 -61 16 -61 48c0 35 18 75 82 75z" />
    <glyph glyph-name="ordfeminine" unicode="&#xaa;" horiz-adv-x="400" 
d="M146 683l31 8c26 8 55 12 87 12c107 0 162 -57 146 -152l-39 -228c-1 -7 -5 -10 -12 -10h-41c-7 0 -11 4 -11 11v17c-1 10 -7 8 -14 2c-30 -24 -65 -38 -118 -38c-84 0 -125 45 -113 119c12 73 71 119 161 119h100l1 6c8 48 -18 77 -76 77c-24 0 -45 -4 -65 -9l-26 -8
c-8 -2 -13 1 -13 9l-7 52c-1 7 2 11 9 13zM311 475h-100c-39 0 -59 -16 -64 -44c-5 -30 13 -50 52 -50c66 0 102 31 111 88zM22 156l9 55c1 7 5 10 12 10h297c8 0 11 -4 10 -12l-9 -55c-1 -7 -5 -10 -12 -10h-297c-8 0 -11 4 -10 12z" />
    <glyph glyph-name="ordmasculine" unicode="&#xba;" horiz-adv-x="465" 
d="M292 703c112 0 168 -77 147 -199c-20 -122 -103 -200 -215 -200c-110 0 -167 78 -146 200s104 199 214 199zM278 626c-60 0 -103 -46 -116 -122s16 -122 75 -122c62 0 106 46 119 122s-16 122 -78 122zM61 221h297c8 0 11 -4 10 -12l-9 -55c-1 -7 -5 -10 -12 -10h-297
c-8 0 -11 4 -10 12l9 55c1 7 5 10 12 10z" />
    <glyph glyph-name="Iacute_J.loclNLD" horiz-adv-x="676" 
d="M270 901h119c10 0 13 -7 5 -14l-123 -106c-4 -4 -8 -5 -14 -5h-84c-10 0 -13 6 -6 13l90 106c3 4 7 6 13 6zM679 901h119c10 0 13 -7 5 -14l-123 -106c-4 -4 -8 -5 -14 -5h-84c-10 0 -13 6 -6 13l90 106c3 4 7 6 13 6zM38 12l114 677c1 7 5 10 12 10h92c8 0 11 -4 10 -12
l-114 -677c-1 -7 -5 -10 -12 -10h-92c-8 0 -11 4 -10 12zM676 687l-82 -484c-22 -134 -99 -214 -221 -214c-27 0 -52 6 -82 18l-11 4c-7 3 -9 8 -5 14l38 74c3 6 8 8 15 5l12 -5c10 -4 23 -6 39 -6c48 0 88 35 100 107l82 489c1 7 5 10 12 10h93c8 0 11 -4 10 -12z" />
    <glyph glyph-name="Cacute.loclPLK" horiz-adv-x="619" 
d="M467 900h117c9 0 12 -6 6 -14l-96 -105c-3 -4 -7 -6 -13 -6h-84c-8 0 -12 6 -7 13l64 105c3 5 7 7 13 7zM516 26l-50 -16c-49 -15 -90 -21 -147 -21c-163 0 -257 105 -257 276c0 179 98 444 372 444c54 0 94 -9 144 -27l39 -14c7 -3 9 -8 6 -14l-38 -74
c-3 -6 -8 -8 -15 -6l-41 15c-32 12 -59 17 -104 17c-182 0 -247 -209 -247 -337c0 -116 52 -176 153 -176c39 0 73 5 118 19l46 14c7 3 12 0 13 -7l16 -80c1 -7 -1 -11 -8 -13z" />
    <glyph glyph-name="Nacute.loclPLK" horiz-adv-x="718" 
d="M484 901h117c9 0 12 -6 6 -14l-96 -105c-3 -4 -7 -6 -13 -6h-84c-8 0 -12 6 -7 13l64 105c3 5 7 7 13 7zM590 0h-114c-7 0 -11 3 -13 9c-10 33 -22 68 -36 102l-157 348c-10 24 -18 50 -25 72c-4 11 -16 7 -16 -4c-1 -45 -5 -85 -14 -139l-63 -378c-1 -7 -5 -10 -12 -10
h-92c-8 0 -11 4 -10 12l114 677c1 7 5 10 12 10h114c7 0 11 -3 13 -9c9 -30 22 -66 36 -102l156 -344c10 -25 20 -53 27 -76c4 -13 15 -8 14 4c1 44 6 84 15 137l63 380c1 7 5 10 12 10h93c8 0 11 -4 10 -12l-115 -677c-1 -7 -5 -10 -12 -10z" />
    <glyph glyph-name="Oacute.loclPLK" horiz-adv-x="711" 
d="M494 901h117c9 0 12 -6 6 -14l-96 -105c-3 -4 -7 -6 -13 -6h-84c-8 0 -12 6 -7 13l64 105c3 5 7 7 13 7zM428 709c164 0 257 -103 257 -274c0 -177 -97 -446 -366 -446c-164 0 -257 104 -257 274c0 178 96 446 366 446zM423 606c-182 0 -245 -211 -245 -340
c0 -110 51 -173 146 -173c182 0 245 213 245 340c0 111 -51 173 -146 173z" />
    <glyph glyph-name="Sacute.loclPLK" horiz-adv-x="606" 
d="M425 900h117c9 0 12 -6 6 -14l-96 -105c-3 -4 -7 -6 -13 -6h-84c-8 0 -12 6 -7 13l64 105c3 5 7 7 13 7zM353 287l-109 43c-97 39 -138 80 -138 155c0 103 65 224 268 224c55 0 105 -11 155 -28l55 -18c7 -3 9 -8 5 -15l-39 -74c-3 -6 -8 -8 -15 -6l-49 18
c-37 12 -77 20 -120 20c-88 0 -145 -41 -145 -106c0 -30 18 -55 78 -79l104 -41c95 -38 146 -81 146 -160c0 -106 -69 -231 -284 -231c-66 0 -124 14 -187 37l-50 17c-7 3 -9 8 -6 15l38 74c3 6 8 8 15 5l46 -17c48 -17 94 -27 153 -27c96 0 160 44 160 107
c0 40 -29 67 -81 87z" />
    <glyph glyph-name="Zacute.loclPLK" horiz-adv-x="629" 
d="M444 901h117c9 0 12 -6 6 -14l-96 -105c-3 -4 -7 -6 -13 -6h-84c-8 0 -12 6 -7 13l64 105c3 5 7 7 13 7zM647 690l2 -4c3 -5 2 -10 -2 -15c-46 -54 -72 -87 -107 -134l-256 -337c-19 -25 -44 -58 -65 -84c-8 -10 -6 -17 5 -16c27 0 53 1 77 1h230c8 0 12 -5 8 -13
l-36 -80c-3 -5 -7 -8 -13 -8h-457c-6 0 -10 3 -12 9l-2 4c-2 5 -1 10 3 15c46 54 73 91 107 138l253 331c18 26 44 61 67 85c9 10 7 17 -4 17c-29 -1 -53 -1 -78 -1h-226c-8 0 -11 4 -10 12l13 79c1 7 5 10 12 10h479c6 0 10 -3 12 -9z" />
    <glyph glyph-name="i.loclTRK" horiz-adv-x="280" 
d="M222 727c38 0 60 -22 60 -59c0 -39 -19 -77 -70 -77c-39 0 -61 22 -61 59c0 49 26 77 71 77zM163 0h-90c-8 0 -11 4 -10 12l63 374h-48c-8 0 -11 4 -10 12l13 77c1 7 5 10 12 10h150c8 0 11 -4 10 -12l-78 -463c-1 -7 -5 -10 -12 -10z" />
    <glyph glyph-name="f.ligaturoms" horiz-adv-x="431" 
d="M353 717h147c8 0 11 -4 10 -12l-13 -77c-1 -7 -5 -10 -12 -10h-142c-39 0 -71 -28 -79 -76l-10 -57h111c8 0 11 -4 10 -12l-13 -77c-1 -7 -5 -10 -12 -10h-113l-63 -376c-1 -7 -5 -10 -12 -10h-89c-8 0 -11 4 -10 12l63 374h-48c-8 0 -11 4 -10 12l13 77c1 7 5 10 12 10
h50l11 65c18 111 90 167 199 167z" />
    <glyph glyph-name="f.ligaturoms.ss02" horiz-adv-x="431" 
d="M353 717h147c8 0 11 -4 10 -12l-13 -77c-1 -7 -5 -10 -12 -10h-142c-39 0 -71 -28 -79 -76l-10 -57h111c8 0 11 -4 10 -12l-13 -77c-1 -7 -5 -10 -12 -10h-113l-85 -505c-1 -7 -5 -10 -12 -10h-89c-8 0 -11 4 -10 12l85 503h-48c-8 0 -11 4 -10 12l13 77c1 7 5 10 12 10
h50l11 65c18 111 90 167 199 167z" />
    <glyph glyph-name="iacute_j.loclNLD" horiz-adv-x="562" 
d="M333 704l-88 -130c-4 -5 -8 -7 -14 -7h-67c-8 0 -11 5 -8 13l63 129c3 5 7 8 13 8h94c9 0 12 -6 7 -13zM615 704l-88 -130c-4 -5 -8 -7 -14 -7h-67c-8 0 -11 5 -8 13l63 129c3 5 7 8 13 8h94c9 0 12 -6 7 -13zM93 485h150c8 0 11 -4 10 -12l-78 -463
c-1 -7 -5 -10 -12 -10h-90c-8 0 -11 4 -10 12l63 374h-48c-8 0 -11 4 -10 12l13 77c1 7 5 10 12 10zM375 485h150c8 0 11 -4 10 -12l-59 -350l-25 -148c-14 -80 -52 -141 -141 -183l-30 -16c-6 -3 -12 -1 -14 6l-31 74c-3 7 -1 12 5 15l25 14c42 21 68 55 75 98l8 45l60 358
h-48c-8 0 -11 4 -10 12l13 77c1 7 5 10 12 10z" />
    <glyph glyph-name="cacute.loclPLK" horiz-adv-x="474" 
d="M333 717h98c9 0 12 -6 7 -13l-84 -130c-4 -5 -8 -7 -14 -7h-70c-8 0 -12 5 -8 13l58 129c3 5 7 8 13 8zM380 14l-42 -11c-30 -9 -60 -14 -93 -14c-135 0 -206 76 -206 199c0 131 69 307 280 307c29 0 58 -5 87 -14l43 -13c8 -2 10 -7 7 -14l-35 -72c-3 -6 -7 -8 -14 -6
l-31 9c-24 8 -46 10 -60 10c-131 0 -167 -128 -167 -202c0 -66 33 -103 100 -103c23 0 48 4 79 12l38 10c7 2 12 -1 13 -9l10 -76c1 -7 -2 -11 -9 -13z" />
    <glyph glyph-name="nacute.loclPLK" 
d="M362 717h98c9 0 12 -6 7 -13l-84 -130c-4 -5 -8 -7 -14 -7h-70c-8 0 -12 5 -8 13l58 129c3 5 7 8 13 8zM179 474l3 -37c4 -13 11 -12 24 -1c46 43 100 59 146 59c117 0 173 -75 152 -193l-49 -292c-1 -7 -5 -10 -12 -10h-90c-8 0 -11 4 -10 12l48 286
c11 63 -13 97 -64 97c-77 0 -132 -59 -149 -155l-38 -230c-1 -7 -5 -10 -12 -10h-90c-8 0 -11 4 -10 12l77 463c1 7 5 10 12 10h50c7 0 11 -4 12 -11z" />
    <glyph glyph-name="oacute.loclPLK" horiz-adv-x="549" 
d="M351 717h98c9 0 12 -6 7 -13l-84 -130c-4 -5 -8 -7 -14 -7h-70c-8 0 -12 5 -8 13l58 129c3 5 7 8 13 8zM310 495c127 0 200 -75 200 -198c0 -126 -72 -308 -271 -308c-127 0 -200 76 -200 199c0 128 73 307 271 307zM307 395c-118 0 -158 -125 -158 -200
c0 -67 33 -105 93 -105c117 0 158 125 158 200c0 67 -33 105 -93 105z" />
    <glyph glyph-name="sacute.loclPLK" horiz-adv-x="484" 
d="M311 717h98c9 0 12 -6 7 -13l-84 -130c-4 -5 -8 -7 -14 -7h-70c-8 0 -12 5 -8 13l58 129c3 5 7 8 13 8zM273 189l-97 27c-72 19 -106 55 -106 112c0 89 62 167 204 167c41 0 83 -6 126 -17l44 -12c8 -2 10 -7 7 -14l-35 -74c-3 -6 -7 -8 -14 -6l-39 11
c-29 8 -60 12 -92 12c-56 0 -91 -22 -91 -55c0 -17 12 -28 37 -35l96 -27c73 -20 109 -57 109 -117c0 -77 -49 -172 -210 -172c-55 0 -105 8 -152 22l-40 12c-7 2 -9 7 -6 14l35 73c3 6 7 8 14 6l31 -9c37 -12 89 -17 122 -17c67 0 96 30 96 61c0 18 -11 30 -39 38z" />
    <glyph glyph-name="cacute.loclPLK.sc" horiz-adv-x="518" 
d="M371 756h98c9 0 12 -6 7 -13l-84 -130c-4 -5 -8 -7 -14 -7h-70c-8 0 -12 5 -8 13l58 129c3 5 7 8 13 8zM425 17l-40 -11c-38 -10 -72 -17 -111 -17c-152 0 -232 82 -232 216c0 136 72 329 312 329c35 0 66 -5 100 -15l47 -14c8 -2 10 -7 6 -14l-37 -72
c-3 -6 -8 -8 -15 -6l-31 10c-27 7 -50 11 -73 11c-158 0 -199 -136 -199 -223c0 -78 41 -121 126 -121c29 0 59 4 92 13l43 11c7 2 11 -1 12 -9l9 -75c1 -7 -2 -11 -9 -13z" />
    <glyph glyph-name="nacute.loclPLK.sc" horiz-adv-x="615" 
d="M388 755h98c9 0 12 -6 7 -13l-84 -130c-4 -5 -8 -7 -14 -7h-70c-8 0 -12 5 -8 13l58 129c3 5 7 8 13 8zM594 512l-84 -502c-1 -7 -5 -10 -12 -10h-104c-6 0 -10 3 -12 9c-9 24 -22 53 -34 76l-125 233c-8 16 -15 34 -21 48c-4 11 -13 6 -12 -3c-1 -43 -4 -79 -13 -128
l-37 -225c-1 -7 -5 -10 -12 -10h-90c-8 0 -11 4 -10 12l85 502c1 7 5 10 12 10h102c6 0 10 -3 12 -9c9 -26 21 -53 33 -77l123 -227l24 -53c4 -11 12 -6 12 2c1 44 6 78 14 129l37 225c1 7 5 10 12 10h90c8 0 11 -4 10 -12z" />
    <glyph glyph-name="oacute.loclPLK.sc" horiz-adv-x="593" 
d="M377 756h98c9 0 12 -6 7 -13l-84 -130c-4 -5 -8 -7 -14 -7h-70c-8 0 -12 5 -8 13l58 129c3 5 7 8 13 8zM339 534c139 0 219 -81 219 -215s-81 -330 -298 -330c-139 0 -219 83 -219 216c0 136 81 329 298 329zM335 434c-137 0 -184 -138 -184 -223c0 -77 40 -121 113 -121
c137 0 184 138 184 223c0 77 -41 121 -113 121z" />
    <glyph glyph-name="sacute.loclPLK.sc" horiz-adv-x="528" 
d="M342 756h98c9 0 12 -6 7 -13l-84 -130c-4 -5 -8 -7 -14 -7h-70c-8 0 -12 5 -8 13l58 129c3 5 7 8 13 8zM308 206l-114 29c-79 20 -115 58 -115 122c0 93 66 177 224 177c51 0 96 -5 139 -17l49 -14c8 -2 10 -7 7 -14l-35 -75c-3 -6 -7 -8 -14 -6l-44 12
c-35 10 -67 14 -104 14c-71 0 -112 -24 -112 -64c0 -21 14 -35 47 -43l113 -30c81 -20 119 -59 119 -124c0 -95 -66 -184 -233 -184c-68 0 -121 8 -171 23l-44 13c-7 3 -9 8 -6 15l36 73c3 6 8 8 15 6l33 -10c42 -13 86 -19 141 -19c75 0 119 27 119 72c0 20 -16 35 -50 44z
" />
    <glyph glyph-name="zacute.loclPLK.sc" horiz-adv-x="536" 
d="M340 756h98c9 0 12 -6 7 -13l-84 -130c-4 -5 -8 -7 -14 -7h-70c-8 0 -12 5 -8 13l58 129c3 5 7 8 13 8zM536 516v-1c2 -5 1 -10 -3 -15c-22 -24 -41 -48 -64 -78l-211 -256c-14 -18 -31 -39 -50 -56c-7 -6 -6 -12 3 -12c23 0 43 1 61 1h179c9 0 12 -5 8 -13l-43 -78
c-3 -6 -7 -8 -13 -8h-378c-6 0 -10 3 -13 9c-2 6 -1 10 3 15c24 26 46 52 70 83l205 251c14 17 34 41 51 56c8 7 7 12 -3 12c-21 -1 -42 -1 -61 -1h-175c-8 0 -11 4 -10 12l14 77c1 7 5 10 12 10h405c6 0 10 -3 13 -8z" />
    <glyph glyph-name="zacute.loclPLK" horiz-adv-x="490" 
d="M324 717h98c9 0 12 -6 7 -13l-84 -130c-4 -5 -8 -7 -14 -7h-70c-8 0 -12 5 -8 13l58 129c3 5 7 8 13 8zM484 477c2 -5 1 -10 -3 -15c-20 -22 -37 -44 -59 -74l-173 -225c-13 -17 -29 -37 -48 -54c-6 -6 -5 -11 3 -11c21 0 39 1 56 1h146c9 0 12 -5 8 -13l-43 -78
c-3 -6 -7 -8 -13 -8h-334c-6 0 -10 3 -12 9c-2 5 -1 9 3 14c22 24 41 49 64 79l169 219c12 19 31 41 47 55c7 7 7 11 -2 11c-19 -1 -38 -1 -55 -1h-143c-8 0 -11 4 -10 12l13 77c1 7 5 10 12 10h361c6 0 10 -2 13 -8z" />
    <glyph glyph-name="f.calt" horiz-adv-x="373" 
d="M143 485l12 73c18 109 89 170 192 170c20 0 38 -3 60 -10l10 -4c7 -3 9 -8 6 -14l-34 -72c-3 -7 -8 -9 -15 -6l-2 1c-9 3 -20 4 -29 4c-40 0 -71 -31 -78 -77l-11 -65h111c8 0 11 -4 10 -12l-13 -77c-1 -7 -5 -10 -12 -10h-113l-63 -376c-1 -7 -5 -10 -12 -10h-89
c-8 0 -11 4 -10 12l63 374h-48c-8 0 -11 4 -10 12l13 77c1 7 5 10 12 10h50z" />
    <glyph glyph-name="germandbls.calt" horiz-adv-x="734" 
d="M693 691l4 -10c2 -6 1 -10 -2 -15c-25 -32 -49 -63 -73 -99l-111 -158c-8 -13 -7 -16 2 -20l63 -27c75 -31 108 -78 108 -144c0 -126 -81 -229 -280 -229c-46 0 -92 12 -135 25l-44 13c-7 3 -9 8 -6 15l37 75c3 6 8 8 15 6l39 -13c31 -10 68 -17 98 -17
c101 0 161 39 161 111c0 33 -22 54 -65 72l-133 56c-5 2 -8 5 -10 10l-3 7c-2 6 -2 10 2 15l115 164c16 23 30 42 43 54c10 10 10 16 -5 16h-174c-53 0 -99 -45 -112 -121l-78 -467c-1 -7 -5 -10 -12 -10h-93c-8 0 -11 4 -10 12l80 473c24 137 109 214 236 214h330
c6 0 10 -3 13 -8z" />
    <glyph glyph-name="f.calt.ss02" horiz-adv-x="373" 
d="M143 485l12 73c18 109 89 170 192 170c20 0 38 -3 60 -10l10 -4c7 -3 9 -8 6 -14l-34 -72c-3 -7 -8 -9 -15 -6l-2 1c-9 3 -20 4 -29 4c-40 0 -71 -31 -78 -77l-11 -65h111c8 0 11 -4 10 -12l-13 -77c-1 -7 -5 -10 -12 -10h-113l-85 -505c-1 -7 -5 -10 -12 -10h-89
c-8 0 -11 4 -10 12l85 503h-48c-8 0 -11 4 -10 12l13 77c1 7 5 10 12 10h50z" />
    </font>
</defs>
</svg>
